# Blender v3.0.1 OBJ File: ''
# www.blender.org
mtllib side_mount.mtl
o obj1
v -3.243347 -79.192139 63.825047
v -3.162481 -78.702927 63.335842
v -3.243347 -77.070816 65.946373
v -3.162481 -76.581604 65.457161
v -2.924246 -78.240089 62.873005
v -2.924246 -76.118767 64.994324
v -2.541481 -77.828575 62.461491
v -2.541481 -75.707260 64.582817
v -2.034822 -77.490578 62.123486
v -2.034822 -75.369255 64.244812
v -1.431587 -77.244308 61.877216
v -1.431587 -75.122986 63.998539
v -0.764292 -77.103043 61.735958
v -0.764292 -74.981720 63.857273
v -0.068913 -77.074402 61.707317
v -0.068913 -74.953087 63.828640
v 0.617062 -77.159935 61.792843
v 0.617062 -75.038612 63.914165
v 1.256653 -77.355019 61.987934
v 1.256653 -75.233696 64.109253
v 1.815378 -77.649147 62.282055
v 1.815378 -75.527824 64.403381
v 2.263117 -78.026451 62.659367
v 2.263117 -75.905128 64.780685
v 2.575731 -78.466599 63.099514
v 2.575731 -76.345284 65.220840
v 2.736368 -78.945869 63.578777
v 2.736368 -76.824547 65.700104
v 2.736368 -79.438408 64.071320
v 2.736368 -77.317085 66.192642
v 2.575731 -79.917671 64.550591
v 2.575731 -77.796349 66.671906
v 2.263117 -80.357819 64.990738
v 2.263117 -78.236504 67.112061
v 1.815378 -80.735130 65.368042
v 1.815378 -78.613808 67.489365
v 1.256653 -81.029251 65.662170
v 1.256653 -78.907936 67.783493
v 0.617062 -81.224342 65.857254
v 0.617062 -79.103020 67.978577
v -0.068913 -81.309868 65.942787
v -0.068913 -79.188545 68.064102
v -0.764292 -81.281227 65.914146
v -0.764292 -79.159912 68.035469
v -1.431587 -81.139969 65.772881
v -1.431587 -79.018646 67.894203
v -2.034822 -80.893700 65.526611
v -2.034822 -78.772377 67.647934
v -2.541481 -80.555695 65.188614
v -2.541481 -78.434372 67.309929
v -2.924246 -80.144180 64.777100
v -2.924246 -78.022865 66.898422
v -3.162481 -79.681343 64.314262
v -3.162481 -77.560028 66.435585
v -3.243347 -34.644409 23.519964
v -3.243347 -36.765728 21.398645
v -3.162481 -34.155201 23.030752
v -3.162481 -36.276520 20.909433
v -2.924246 -33.692364 22.567919
v -2.924246 -35.813683 20.446596
v -2.541481 -33.280849 22.156404
v -2.541481 -35.402172 20.035086
v -2.034822 -32.942848 21.818403
v -2.034822 -35.064171 19.697084
v -1.431587 -32.696579 21.572134
v -1.431587 -34.817898 19.450815
v -0.764292 -32.555317 21.430872
v -0.764292 -34.676636 19.309549
v -0.068913 -32.526676 21.402231
v -0.068913 -34.647999 19.280912
v 0.617062 -32.612206 21.487761
v 0.617062 -34.733528 19.366442
v 1.256653 -32.807293 21.682848
v 1.256653 -34.928612 19.561525
v 1.815378 -33.101418 21.976973
v 1.815378 -35.222736 19.855650
v 2.263117 -33.478725 22.354280
v 2.263117 -35.600044 20.232958
v 2.575731 -33.918877 22.794432
v 2.575731 -36.040195 20.673109
v 2.736368 -34.398140 23.273695
v 2.736368 -36.519459 21.152372
v 2.736368 -34.890678 23.766233
v 2.736368 -37.012001 21.644915
v 2.575731 -35.369942 24.245497
v 2.575731 -37.491264 22.124178
v 2.263117 -35.810093 24.685648
v 2.263117 -37.931416 22.564329
v 1.815378 -36.187401 25.062956
v 1.815378 -38.308723 22.941637
v 1.256653 -36.481525 25.357080
v 1.256653 -38.602848 23.235762
v 0.617062 -36.676613 25.552168
v 0.617062 -38.797932 23.430845
v -0.068913 -36.762142 25.637697
v -0.068913 -38.883461 23.516375
v -0.764292 -36.733501 25.609056
v -0.764292 -38.854824 23.487738
v -1.431587 -36.592239 25.467794
v -1.431587 -38.713558 23.346476
v -2.034822 -36.345970 25.221525
v -2.034822 -38.467289 23.100203
v -2.541481 -36.007969 24.883524
v -2.541481 -38.129288 22.762201
v -2.924246 -35.596455 24.472010
v -2.924246 -37.717777 22.350691
v -3.162481 -35.133621 24.009176
v -3.162481 -37.254940 21.887854
v -3.243347 -20.502274 9.377830
v -3.243347 -22.623592 7.256511
v -3.162481 -20.013062 8.888618
v -3.162481 -22.134384 6.767299
v -2.924246 -19.550228 8.425784
v -2.924246 -21.671547 6.304461
v -2.541481 -19.138714 8.014270
v -2.541481 -21.260036 5.892951
v -2.034822 -18.800713 7.676269
v -2.034822 -20.922035 5.554950
v -1.431587 -18.554443 7.429999
v -1.431587 -20.675762 5.308681
v -0.764292 -18.413181 7.288737
v -0.764292 -20.534500 5.167415
v -0.068913 -20.505863 5.138778
v -0.068913 -18.384541 7.260097
v 0.617062 -20.591393 5.224307
v 0.617062 -18.470070 7.345626
v 1.256653 -20.786476 5.419391
v 1.256653 -18.665157 7.540713
v 1.815378 -18.959282 7.834838
v 1.815378 -21.080601 5.713515
v 2.263117 -21.457909 6.090823
v 2.263117 -19.336590 8.212146
v 2.575731 -21.898060 6.530974
v 2.575731 -19.776741 8.652297
v 2.736368 -22.377323 7.010238
v 2.736368 -20.256004 9.131560
v 2.736368 -22.869865 7.502780
v 2.736368 -20.748543 9.624099
v 2.575731 -23.349129 7.982043
v 2.575731 -21.227806 10.103362
v 2.263117 -21.667957 10.543513
v 2.263117 -23.789280 8.422194
v 1.815378 -24.166588 8.799502
v 1.815378 -22.045265 10.920821
v 1.256653 -22.339390 11.214946
v 1.256653 -24.460712 9.093627
v 0.617062 -22.534477 11.410033
v 0.617062 -24.655796 9.288711
v -0.068913 -22.620007 11.495563
v -0.068913 -24.741325 9.374240
v -0.764292 -24.712688 9.345603
v -0.764292 -22.591366 11.466922
v -1.431587 -24.571423 9.204341
v -1.431587 -22.450104 11.325660
v -2.034822 -24.325153 8.958068
v -2.034822 -22.203835 11.079391
v -2.541481 -21.865833 10.741389
v -2.541481 -23.987152 8.620067
v -2.924246 -23.575642 8.208556
v -2.924246 -21.454319 10.329875
v -3.162481 -23.112804 7.745719
v -3.162481 -20.991486 9.867042
v -3.243347 -62.928684 51.804234
v -3.243347 -65.050003 49.682911
v -3.162481 -62.439472 51.315022
v -3.162481 -64.560791 49.193707
v -2.924246 -61.976635 50.852184
v -2.924246 -64.097954 48.730869
v -2.541481 -61.565128 50.440678
v -2.541481 -63.686443 48.319355
v -2.034822 -61.227123 50.102673
v -2.034822 -63.348446 47.981350
v -1.431587 -60.980854 49.856403
v -1.431587 -63.102177 47.735081
v -0.764292 -60.839588 49.715137
v -0.764292 -62.960911 47.593822
v -0.068913 -62.932270 47.565182
v -0.068913 -60.810955 49.686504
v 0.617062 -63.017803 47.650707
v 0.617062 -60.896481 49.772030
v 1.256653 -63.212887 47.845798
v 1.256653 -61.091564 49.967113
v 1.815378 -63.507015 48.139919
v 1.815378 -61.385693 50.261242
v 2.263117 -61.762997 50.638546
v 2.263117 -63.884319 48.517231
v 2.575731 -64.324463 48.957378
v 2.575731 -62.203152 51.078701
v 2.736368 -64.803734 49.436642
v 2.736368 -62.682415 51.557964
v 2.736368 -65.296272 49.929180
v 2.736368 -63.174953 52.050503
v 2.575731 -65.775536 50.408451
v 2.575731 -63.654217 52.529766
v 2.263117 -66.215683 50.848598
v 2.263117 -64.094368 52.969921
v 1.815378 -66.592995 51.225903
v 1.815378 -64.471672 53.347225
v 1.256653 -66.887115 51.520031
v 1.256653 -64.765800 53.641354
v 0.617062 -67.082207 51.715115
v 0.617062 -64.960884 53.836437
v -0.068913 -67.167732 51.800648
v -0.068913 -65.046410 53.921963
v -0.764292 -65.017776 53.893330
v -0.764292 -67.139091 51.772007
v -1.431587 -66.997833 51.630741
v -1.431587 -64.876511 53.752064
v -2.034822 -66.751564 51.384472
v -2.034822 -64.630241 53.505795
v -2.541481 -64.292236 53.167789
v -2.541481 -66.413559 51.046474
v -2.924246 -66.002045 50.634960
v -2.924246 -63.880733 52.756283
v -3.162481 -65.539207 50.172123
v -3.162481 -63.417896 52.293446
v -3.243347 -50.907867 35.540775
v -3.162481 -50.418655 35.051571
v -3.243347 -48.786545 37.662098
v -3.162481 -48.297333 37.172886
v -2.924246 -47.834496 36.710049
v -2.924246 -49.955818 34.588734
v -2.541481 -47.422989 36.298542
v -2.541481 -49.544304 34.177219
v -2.034822 -47.084984 35.960537
v -2.034822 -49.206306 33.839214
v -1.431587 -46.838715 35.714268
v -1.431587 -48.960037 33.592945
v -0.764292 -46.697453 35.573002
v -0.764292 -48.818771 33.451687
v -0.068913 -48.790131 33.423046
v -0.068913 -46.668812 35.544369
v 0.617062 -48.875664 33.508572
v 0.617062 -46.754341 35.629894
v 1.256653 -49.070747 33.703663
v 1.256653 -46.949429 35.824978
v 1.815378 -49.364876 33.997784
v 1.815378 -47.243553 36.119106
v 2.263117 -49.742180 34.375095
v 2.263117 -47.620857 36.496410
v 2.575731 -48.061012 36.936565
v 2.575731 -50.182327 34.815243
v 2.736368 -50.661598 35.294506
v 2.736368 -48.540276 37.415829
v 2.736368 -51.154137 35.787045
v 2.736368 -49.032814 37.908367
v 2.575731 -51.633400 36.266315
v 2.575731 -49.512077 38.387630
v 2.263117 -49.952232 38.827785
v 2.263117 -52.073547 36.706463
v 1.815378 -52.450859 37.083767
v 1.815378 -50.329536 39.205090
v 1.256653 -50.623665 39.499218
v 1.256653 -52.744980 37.377895
v 0.617062 -52.940071 37.572979
v 0.617062 -50.818748 39.694302
v -0.068913 -53.025597 37.658512
v -0.068913 -50.904274 39.779827
v -0.764292 -52.996956 37.629871
v -0.764292 -50.875641 39.751194
v -1.431587 -52.855698 37.488605
v -1.431587 -50.734375 39.609928
v -2.034822 -52.609428 37.242336
v -2.034822 -50.488106 39.363659
v -2.541481 -52.271423 36.904339
v -2.541481 -50.150101 39.025654
v -2.924246 -49.738594 38.614147
v -2.924246 -51.859909 36.492825
v -3.162481 -49.275757 38.151310
v -3.162481 -51.397072 36.029987
v -3.243347 -6.360138 -4.764306
v -3.243347 -8.481459 -6.885626
v -3.162481 -5.870928 -5.253516
v -3.162481 -7.992248 -7.374836
v -2.924246 -5.408090 -5.716352
v -2.924246 -7.529411 -7.837674
v -2.541481 -4.996580 -6.127863
v -2.541481 -7.117898 -8.249184
v -2.034822 -4.658576 -6.465866
v -2.034822 -6.779897 -8.587185
v -1.431587 -4.412307 -6.712135
v -1.431587 -6.533628 -8.833456
v -0.764292 -4.271045 -6.853397
v -0.764292 -6.392366 -8.974718
v -0.068913 -6.363727 -9.003357
v -0.068913 -4.242406 -6.882036
v 0.617062 -6.449255 -8.917828
v 0.617062 -4.327936 -6.796507
v 1.256653 -6.644340 -8.722742
v 1.256653 -4.523019 -6.601423
v 1.815378 -6.938465 -8.428617
v 1.815378 -4.817146 -6.307297
v 2.263117 -7.315773 -8.051310
v 2.263117 -5.194454 -5.929989
v 2.575731 -7.755924 -7.611161
v 2.575731 -5.634603 -5.489840
v 2.736368 -8.235188 -7.131896
v 2.736368 -6.113867 -5.010577
v 2.736368 -8.727728 -6.639355
v 2.736368 -6.606409 -4.518034
v 2.575731 -9.206993 -6.160092
v 2.575731 -7.085672 -4.038771
v 2.263117 -9.647142 -5.719941
v 2.263117 -7.525822 -3.598622
v 1.815378 -7.903130 -3.221314
v 1.815378 -10.024450 -5.342633
v 1.256653 -10.318575 -5.048508
v 1.256653 -8.197256 -2.927187
v 0.617062 -10.513660 -4.853423
v 0.617062 -8.392340 -2.732102
v -0.068913 -8.477869 -2.646573
v -0.068913 -10.599190 -4.767895
v -0.764292 -10.570551 -4.796534
v -0.764292 -8.449230 -2.675213
v -1.431587 -8.307968 -2.816475
v -1.431587 -10.429289 -4.937796
v -2.034822 -10.183018 -5.184065
v -2.034822 -8.061699 -3.062744
v -2.541481 -7.723696 -3.400748
v -2.541481 -9.845016 -5.522067
v -2.924246 -7.312185 -3.812258
v -2.924246 -9.433506 -5.933579
v -3.162481 -8.970669 -6.396416
v -3.162481 -6.849348 -4.275095
v -15.243347 14.885268 -30.252352
v -14.493347 14.853066 -30.220150
v 14.006653 14.853066 -30.220150
v 14.756653 14.885268 -30.252352
v -15.243347 -86.263206 70.896118
v 14.756653 -86.263206 70.896118
v -15.243347 14.885268 -26.009710
v -15.243347 -84.141884 73.017441
v 14.756653 14.885268 -26.009710
v 14.006653 14.853066 -25.977509
v -14.493347 14.853066 -25.977509
v 14.756653 -84.141884 73.017441
v -21.393347 23.603065 -11.835372
v -21.360123 22.926746 -11.835372
v -21.393347 23.603067 -34.835373
v -21.360123 22.926748 -34.835373
v -21.260765 22.256943 -11.835372
v -21.260765 22.256945 -34.835373
v -21.096235 21.600101 -11.835372
v -21.096235 21.600103 -34.835373
v -20.868116 20.962549 -11.835372
v -20.868116 20.962551 -34.835373
v -20.578604 20.350428 -11.835372
v -20.578604 20.350430 -34.835373
v -20.230488 19.769630 -11.835372
v -20.230488 19.769632 -34.835373
v -19.827120 19.225752 -11.835372
v -19.827120 19.225754 -34.835373
v -19.372383 18.724030 -11.835372
v -19.372383 18.724031 -34.835373
v -18.870661 18.269293 -11.835372
v -18.870661 18.269295 -34.835373
v -18.326782 17.865925 -11.835372
v -18.326782 17.865927 -34.835373
v -17.745985 17.517809 -11.835372
v -17.745985 17.517811 -34.835373
v -17.133863 17.228298 -34.835373
v -17.133863 17.228296 -11.835372
v -16.496311 17.000179 -34.835373
v -16.496311 17.000177 -11.835372
v -15.839470 16.835648 -11.835372
v -15.839470 16.835649 -34.835373
v -15.169665 16.736290 -11.835372
v -15.169665 16.736292 -34.835373
v -14.493347 16.703066 -11.835372
v -14.493347 16.703068 -34.835373
v 14.006653 16.703066 -11.835372
v 14.006653 16.703068 -34.835373
v -23.216373 22.916548 -11.835372
v -23.243347 23.603065 -11.835372
v -23.243347 23.603067 -36.835373
v -23.216373 22.916550 -36.835373
v -23.135620 22.234264 -11.835372
v -23.135620 22.234266 -36.835373
v -23.001583 21.560419 -11.835372
v -23.001583 21.560421 -36.835373
v -22.815092 20.899166 -11.835372
v -22.815092 20.899168 -36.835373
v -22.577293 20.254585 -11.835372
v -22.577293 20.254587 -36.835373
v -22.289654 19.630650 -11.835372
v -22.289654 19.630651 -36.835373
v -21.953949 19.031202 -11.835372
v -21.953949 19.031204 -36.835373
v -21.572247 18.459944 -11.835372
v -21.572247 18.459946 -36.835373
v -21.146900 17.920395 -11.835372
v -21.146900 17.920397 -36.835373
v -20.680531 17.415882 -11.835372
v -20.680531 17.415884 -36.835373
v -20.176018 16.949512 -11.835372
v -20.176018 16.949514 -36.835373
v -19.636469 16.524166 -11.835372
v -19.636469 16.524168 -36.835373
v -19.065210 16.142464 -11.835372
v -19.065210 16.142466 -36.835373
v -18.465763 15.806760 -11.835372
v -18.465763 15.806761 -36.835373
v -17.841827 15.519120 -11.835372
v -17.841827 15.519121 -36.835373
v -17.197247 15.281322 -11.835372
v -17.197247 15.281322 -36.835373
v -16.535994 15.094830 -11.835372
v -16.535994 15.094831 -36.835373
v -15.862148 14.960794 -36.835373
v -15.179865 14.880041 -36.835373
v -15.862148 14.960793 -11.835372
v -15.179865 14.880040 -11.835372
v -14.493347 14.853067 -36.835373
v -14.493347 14.853066 -11.835372
v 14.006653 14.853066 -11.835372
v 20.906654 23.603065 -18.835371
v 20.906654 52.103065 -18.835371
v 22.756653 23.603065 -18.835371
v 22.756653 52.103065 -18.835371
v 20.756653 23.603067 -36.835373
v 20.906654 23.603067 -34.835373
v 22.756653 23.603067 -36.835373
v 20.756653 23.603067 -34.835373
v 20.906654 52.103065 -34.835369
v 22.756653 52.103065 -36.835369
v 20.756653 52.103065 -34.835369
v 20.756653 52.103065 -36.835369
v 20.906654 23.603065 -11.835372
v 20.906654 52.103065 -11.835371
v 22.729679 22.916550 -36.835373
v 22.648926 22.234266 -36.835373
v 22.514889 21.560421 -36.835373
v 22.328396 20.899168 -36.835373
v 22.090599 20.254587 -36.835373
v 21.802959 19.630651 -36.835373
v 21.467255 19.031204 -36.835373
v 21.085552 18.459946 -36.835373
v 20.660206 17.920397 -36.835373
v 20.193836 17.415884 -36.835373
v 19.689323 16.949514 -36.835373
v 19.149773 16.524168 -36.835373
v 18.578514 16.142466 -36.835373
v 17.979069 15.806761 -36.835373
v 17.355133 15.519121 -36.835373
v 16.710552 15.281322 -36.835373
v 16.049301 15.094831 -36.835373
v 15.375454 14.960794 -36.835373
v 14.693169 14.880041 -36.835373
v 14.006653 14.853067 -36.835373
v 11.218327 37.202286 -36.835373
v 10.827263 36.664032 -36.835373
v 10.251080 36.331375 -36.835373
v 9.589407 36.261833 -36.835373
v 8.956654 36.467422 -36.835373
v 11.218327 38.503845 -36.835373
v 10.827263 39.042099 -36.835373
v 10.251080 39.374756 -36.835373
v 9.589407 39.444298 -36.835373
v 22.648926 53.471867 -36.835369
v 22.729679 52.789581 -36.835369
v 22.514889 54.145714 -36.835369
v 22.328396 54.806965 -36.835369
v 22.090599 55.451546 -36.835369
v 21.802959 56.075481 -36.835369
v 21.467255 56.674927 -36.835369
v 21.085552 57.246185 -36.835369
v 20.660206 57.785736 -36.835369
v 20.193836 58.290249 -36.835369
v 19.689323 58.756618 -36.835369
v 19.149773 59.181965 -36.835369
v 18.578514 59.563667 -36.835369
v 17.979069 59.899372 -36.835369
v 17.355133 60.187012 -36.835369
v 16.710552 60.424809 -36.835369
v 16.049301 60.611301 -36.835369
v 15.375454 60.745338 -36.835369
v -9.172738 36.664032 -36.835373
v 8.462225 36.912609 -36.835373
v -8.781674 37.202286 -36.835373
v 8.191616 37.520409 -36.835373
v -9.748920 36.331375 -36.835373
v 14.693169 60.826092 -36.835369
v -8.643347 37.853065 -36.835373
v 8.191616 38.185722 -36.835373
v -10.410593 36.261833 -36.835373
v 14.006653 60.853065 -36.835369
v 8.956654 39.238708 -36.835373
v -8.781674 38.503845 -36.835373
v 8.462225 38.793522 -36.835373
v -11.043347 36.467422 -36.835373
v -9.172738 39.042099 -36.835373
v -11.537774 36.912609 -36.835373
v -11.808383 37.520409 -36.835373
v -14.493347 60.853065 -36.835369
v -9.748920 39.374756 -36.835373
v -10.410593 39.444298 -36.835373
v -23.243347 52.103065 -36.835369
v -11.043347 39.238708 -36.835373
v -11.537774 38.793522 -36.835373
v -11.808383 38.185722 -36.835373
v -22.815092 54.806965 -36.835369
v -23.216373 52.789581 -36.835369
v -23.135620 53.471867 -36.835369
v -23.001583 54.145714 -36.835369
v -15.179865 60.826092 -36.835369
v -22.289654 56.075481 -36.835369
v -22.577293 55.451546 -36.835369
v -18.465763 59.899372 -36.835369
v -17.841827 60.187012 -36.835369
v -17.197247 60.424809 -36.835369
v -16.535994 60.611301 -36.835369
v -15.862148 60.745338 -36.835369
v -19.065210 59.563667 -36.835369
v -21.572247 57.246185 -36.835369
v -21.953949 56.674927 -36.835369
v -21.146900 57.785736 -36.835369
v -19.636469 59.181965 -36.835369
v -20.680531 58.290249 -36.835369
v -20.176018 58.756618 -36.835369
v 11.356651 37.853065 -36.835373
v 20.873428 22.926748 -34.835373
v 20.774071 22.256945 -34.835373
v 20.609543 21.600103 -34.835373
v 20.381420 20.962551 -34.835373
v 20.091911 20.350430 -34.835373
v 19.743793 19.769632 -34.835373
v 19.340424 19.225754 -34.835373
v 18.885689 18.724031 -34.835373
v 18.383968 18.269295 -34.835373
v 17.840088 17.865927 -34.835373
v 17.259289 17.517811 -34.835373
v 16.647167 17.228298 -34.835373
v 16.009617 17.000179 -34.835373
v 15.352776 16.835649 -34.835373
v 14.682972 16.736292 -34.835373
v 11.218327 37.202286 -34.835373
v 10.827263 36.664032 -34.835373
v 10.251080 36.331375 -34.835373
v 9.589407 36.261833 -34.835373
v 8.956654 36.467422 -34.835373
v 11.218327 38.503845 -34.835373
v 10.827263 39.042099 -34.835373
v 10.251080 39.374756 -34.835373
v 20.873428 52.779385 -34.835369
v 20.774071 53.449188 -34.835369
v 20.609543 54.106030 -34.835369
v 20.381420 54.743580 -34.835369
v 20.091911 55.355701 -34.835369
v 19.743793 55.936501 -34.835369
v 19.340424 56.480381 -34.835369
v 18.885689 56.982101 -34.835369
v 18.383968 57.436836 -34.835369
v 17.840088 57.840206 -34.835369
v 17.259289 58.188324 -34.835369
v 16.647167 58.477833 -34.835369
v 16.009617 58.705956 -34.835369
v 15.352776 58.870483 -34.835369
v 14.682972 58.969841 -34.835369
v 14.006653 59.003067 -34.835369
v 9.589407 39.444298 -34.835373
v 8.956654 39.238708 -34.835373
v -9.172738 36.664032 -34.835373
v 8.462225 36.912609 -34.835373
v -8.781674 37.202286 -34.835373
v 8.191616 37.520409 -34.835373
v -9.748920 36.331375 -34.835373
v -8.643347 37.853065 -34.835373
v 8.191616 38.185722 -34.835373
v -10.410593 36.261833 -34.835373
v -8.781674 38.503845 -34.835373
v 8.462225 38.793522 -34.835373
v -11.043347 36.467422 -34.835373
v -9.172738 39.042099 -34.835373
v -11.537774 36.912609 -34.835373
v -11.808383 37.520409 -34.835373
v -11.808383 38.185722 -34.835373
v -21.393347 52.103065 -34.835369
v -10.410593 39.444298 -34.835373
v -11.043347 39.238708 -34.835373
v -11.537774 38.793522 -34.835373
v -14.493347 59.003067 -34.835369
v -9.748920 39.374756 -34.835373
v -15.169665 58.969841 -34.835369
v -21.360123 52.779385 -34.835369
v -21.260765 53.449188 -34.835369
v -15.839470 58.870483 -34.835369
v -16.496311 58.705956 -34.835369
v -20.868116 54.743580 -34.835369
v -21.096235 54.106030 -34.835369
v -20.230488 55.936501 -34.835369
v -20.578604 55.355701 -34.835369
v -17.745985 58.188324 -34.835369
v -17.133863 58.477833 -34.835369
v -18.326782 57.840206 -34.835369
v -18.870661 57.436836 -34.835369
v -19.372383 56.982101 -34.835369
v -19.827120 56.480381 -34.835369
v 11.356651 37.853065 -34.835373
v 14.006653 59.003067 -11.835370
v -14.493347 59.003067 -11.835370
v -15.169665 58.969841 -11.835370
v -15.839470 58.870483 -11.835370
v -16.496311 58.705956 -11.835370
v -17.133863 58.477833 -11.835370
v -17.745985 58.188324 -11.835370
v -18.326782 57.840206 -11.835370
v -18.870661 57.436836 -11.835370
v -19.372383 56.982101 -11.835370
v -19.827120 56.480381 -11.835370
v -20.230488 55.936501 -11.835370
v -20.578604 55.355701 -11.835370
v -20.868116 54.743580 -11.835370
v -21.096235 54.106030 -11.835371
v -21.260765 53.449188 -11.835371
v -21.360123 52.779385 -11.835371
v -21.393347 52.103065 -11.835371
v 14.682972 16.736290 -11.835372
v 15.352776 16.835648 -11.835372
v 16.009617 17.000177 -11.835372
v 16.647167 17.228296 -11.835372
v 17.259289 17.517809 -11.835372
v 17.840088 17.865925 -11.835372
v 18.383968 18.269293 -11.835372
v 18.885689 18.724030 -11.835372
v 19.340424 19.225752 -11.835372
v 19.743793 19.769630 -11.835372
v 20.091911 20.350428 -11.835372
v 20.381420 20.962549 -11.835372
v 20.609543 21.600101 -11.835372
v 20.774071 22.256943 -11.835372
v 20.873428 22.926746 -11.835372
v 20.873428 52.779385 -11.835371
v 20.774071 53.449188 -11.835371
v 20.609543 54.106030 -11.835371
v 20.381420 54.743580 -11.835370
v 20.091911 55.355701 -11.835370
v 19.743793 55.936501 -11.835370
v 19.340424 56.480381 -11.835370
v 18.885689 56.982101 -11.835370
v 18.383968 57.436836 -11.835370
v 17.840088 57.840206 -11.835370
v 17.259289 58.188324 -11.835370
v 16.647167 58.477833 -11.835370
v 16.009617 58.705956 -11.835370
v 15.352776 58.870483 -11.835370
v 14.682972 58.969841 -11.835370
v 14.693169 14.880040 -11.835372
v 15.375454 14.960793 -11.835372
v 16.049301 15.094830 -11.835372
v 16.710552 15.281322 -11.835372
v 17.355133 15.519120 -11.835372
v 17.979069 15.806760 -11.835372
v 18.578514 16.142464 -11.835372
v 19.149773 16.524166 -11.835372
v 19.689323 16.949512 -11.835372
v 20.193836 17.415882 -11.835372
v 20.660206 17.920395 -11.835372
v 21.085552 18.459944 -11.835372
v 21.467255 19.031202 -11.835372
v 21.802959 19.630650 -11.835372
v 22.090599 20.254585 -11.835372
v 22.328396 20.899166 -11.835372
v 22.514889 21.560419 -11.835372
v 22.648926 22.234264 -11.835372
v 22.729679 22.916548 -11.835372
v 22.756653 23.603065 -11.835372
v -23.243347 52.103065 -11.835371
v -15.179865 60.826092 -11.835370
v -14.493347 60.853065 -11.835370
v -15.862148 60.745338 -11.835370
v -16.535994 60.611301 -11.835370
v -17.197247 60.424809 -11.835370
v -17.841827 60.187012 -11.835370
v -18.465763 59.899372 -11.835370
v -19.065210 59.563667 -11.835370
v -19.636469 59.181965 -11.835370
v -20.176018 58.756618 -11.835370
v -20.680531 58.290249 -11.835370
v -21.146900 57.785736 -11.835370
v -21.572247 57.246185 -11.835370
v -21.953949 56.674927 -11.835370
v -22.289654 56.075481 -11.835370
v -22.577293 55.451546 -11.835370
v -22.815092 54.806965 -11.835370
v -23.001583 54.145714 -11.835371
v -23.135620 53.471867 -11.835371
v -23.216373 52.789581 -11.835371
v 14.006653 60.853065 -11.835370
v 22.729679 52.789581 -11.835371
v 22.756653 52.103065 -11.835371
v 22.648926 53.471867 -11.835371
v 22.514889 54.145714 -11.835371
v 22.328396 54.806965 -11.835370
v 22.090599 55.451546 -11.835370
v 21.802959 56.075481 -11.835370
v 21.467255 56.674927 -11.835370
v 21.085552 57.246185 -11.835370
v 20.660206 57.785736 -11.835370
v 20.193836 58.290249 -11.835370
v 19.689323 58.756618 -11.835370
v 19.149773 59.181965 -11.835370
v 18.578514 59.563667 -11.835370
v 17.979069 59.899372 -11.835370
v 17.355133 60.187012 -11.835370
v 16.710552 60.424809 -11.835370
v 16.049301 60.611301 -11.835370
v 15.375454 60.745338 -11.835370
v 14.693169 60.826092 -11.835370
vn 0.9932 -0.0821 0.0821
vn 0.9397 -0.2418 0.2418
vn 0.8355 -0.3886 0.3886
vn 0.6862 -0.5143 0.5143
vn 0.5000 -0.6124 0.6124
vn 0.2868 -0.6774 0.6774
vn 0.0581 -0.7059 0.7059
vn -0.1736 -0.6964 0.6964
vn -0.1737 -0.6964 0.6964
vn -0.3961 -0.6493 0.6493
vn -0.5972 -0.5672 0.5672
vn -0.7660 -0.4545 0.4545
vn -0.8936 -0.3173 0.3173
vn -0.9730 -0.1631 0.1631
vn -1.0000 0.0000 0.0000
vn -0.9730 0.1631 -0.1631
vn -0.8936 0.3174 -0.3174
vn -0.8936 0.3173 -0.3173
vn -0.7660 0.4545 -0.4545
vn -0.5972 0.5672 -0.5672
vn -0.3961 0.6493 -0.6493
vn -0.1736 0.6964 -0.6964
vn -0.1737 0.6964 -0.6964
vn 0.0582 0.7059 -0.7059
vn 0.0581 0.7059 -0.7059
vn 0.2868 0.6774 -0.6774
vn 0.5000 0.6124 -0.6124
vn 0.6862 0.5143 -0.5143
vn 0.8355 0.3886 -0.3886
vn 0.9397 0.2418 -0.2418
vn 0.9932 0.0821 -0.0821
vn 0.0582 -0.7059 0.7059
vn -0.8936 -0.3174 0.3174
vn -0.8936 0.3173 -0.3174
vn 0.6863 0.5143 -0.5143
vn -0.8936 0.3174 -0.3173
vn -0.0000 -0.7071 -0.7071
vn 0.0001 -0.7071 -0.7071
vn -0.0001 -0.7071 -0.7071
vn -0.0000 0.7071 0.7071
vn 1.0000 -0.0000 0.0000
vn 0.0000 -0.7071 0.7071
vn 0.9988 0.0491 0.0000
vn 0.9892 0.1467 0.0000
vn 0.9700 0.2430 0.0000
vn 0.9415 0.3369 0.0000
vn 0.9040 0.4276 0.0000
vn 0.8577 0.5141 0.0000
vn 0.8032 0.5957 0.0000
vn 0.7410 0.6716 0.0000
vn 0.7409 0.6716 0.0000
vn 0.6716 0.7409 0.0000
vn 0.6716 0.7410 0.0000
vn 0.5957 0.8032 0.0000
vn 0.5141 0.8577 0.0000
vn 0.3369 0.9415 0.0000
vn 0.4276 0.9040 0.0000
vn 0.2430 0.9700 0.0000
vn 0.1467 0.9892 0.0000
vn 0.0491 0.9988 0.0000
vn 0.0000 1.0000 0.0000
vn -0.9992 -0.0393 0.0000
vn -0.9931 -0.1175 -0.0000
vn -0.9808 -0.1951 0.0000
vn -0.9625 -0.2714 0.0000
vn -0.9382 -0.3461 0.0000
vn -0.9081 -0.4187 0.0000
vn -0.8725 -0.4886 -0.0000
vn -0.8315 -0.5556 0.0000
vn -0.7853 -0.6191 0.0000
vn -0.7343 -0.6788 0.0000
vn -0.6788 -0.7343 -0.0000
vn -0.6191 -0.7853 -0.0000
vn -0.5556 -0.8315 -0.0000
vn -0.4886 -0.8725 -0.0000
vn -0.4187 -0.9081 0.0000
vn -0.3461 -0.9382 0.0000
vn -0.2714 -0.9625 0.0000
vn -0.1951 -0.9808 -0.0000
vn -0.1175 -0.9931 -0.0003
vn -0.1212 -0.9926 0.0000
vn -0.1175 -0.9931 0.0002
vn -0.0393 -0.9992 0.0000
vn -0.0429 -0.9991 0.0004
vn -0.0429 -0.9991 -0.0002
vn 0.0000 -1.0000 0.0000
vn 0.0000 0.0000 -1.0000
vn -0.0001 0.0000 -1.0000
vn 0.0001 0.0000 -1.0000
vn 0.0000 0.0000 1.0000
vn 0.0001 0.0000 1.0000
vn -0.0001 0.0000 1.0000
vn -0.9781 0.2079 0.0000
vn -0.8090 0.5878 0.0000
vn -0.5000 0.8660 0.0000
vn -0.1045 0.9945 0.0000
vn 0.3090 0.9511 0.0000
vn 0.6691 0.7431 0.0000
vn 0.9135 0.4067 0.0000
vn 0.9135 -0.4067 0.0000
vn 0.3090 -0.9511 0.0000
vn 0.6691 -0.7431 0.0000
vn -0.1045 -0.9945 0.0000
vn -0.5000 -0.8660 0.0000
vn -0.8090 -0.5878 0.0000
vn -0.9781 -0.2079 0.0000
vn 0.0491 -0.9988 0.0000
vn 0.1467 -0.9892 0.0000
vn 0.2430 -0.9700 0.0000
vn 0.4276 -0.9040 0.0000
vn 0.3369 -0.9415 0.0000
vn 0.5141 -0.8577 0.0000
vn 0.6716 -0.7409 0.0000
vn 0.5957 -0.8032 0.0000
vn 0.6716 -0.7410 0.0000
vn 0.7409 -0.6716 0.0000
vn 0.7410 -0.6716 0.0000
vn 0.8577 -0.5141 0.0000
vn 0.8032 -0.5957 0.0000
vn 0.9040 -0.4276 0.0000
vn 0.9415 -0.3369 0.0000
vn 0.9892 -0.1467 0.0000
vn 0.9700 -0.2430 0.0000
vn 0.9988 -0.0491 0.0000
vn -0.0491 0.9988 0.0000
vn -0.1467 0.9892 0.0000
vn -0.2430 0.9700 0.0000
vn -0.4276 0.9040 0.0000
vn -0.3369 0.9415 0.0000
vn -0.5141 0.8577 0.0000
vn -0.6716 0.7409 0.0000
vn -0.5957 0.8032 0.0000
vn -0.7410 0.6716 0.0000
vn -0.8577 0.5141 0.0000
vn -0.8032 0.5957 0.0000
vn -0.9040 0.4276 0.0000
vn -0.9415 0.3369 0.0000
vn -0.9892 0.1467 0.0000
vn -0.9700 0.2430 0.0000
vn -0.9988 0.0491 0.0000
vn -0.9988 -0.0491 0.0000
vn -0.9892 -0.1467 0.0000
vn -0.9700 -0.2430 0.0000
vn -0.9415 -0.3369 0.0000
vn -0.9040 -0.4276 0.0000
vn -0.8577 -0.5141 0.0000
vn -0.7409 -0.6716 0.0000
vn -0.8032 -0.5957 0.0000
vn -0.7410 -0.6716 0.0000
vn -0.6716 -0.7409 0.0000
vn -0.6716 -0.7410 0.0000
vn -0.5957 -0.8032 0.0000
vn -0.5141 -0.8577 0.0000
vn -0.4276 -0.9040 0.0000
vn -0.3369 -0.9415 0.0000
vn -0.1467 -0.9892 0.0000
vn -0.2430 -0.9700 0.0000
vn -0.0491 -0.9988 0.0000
vn 0.0393 -0.9992 0.0000
vn 0.0429 -0.9991 0.0004
vn 0.1212 -0.9926 0.0000
vn 0.1175 -0.9931 -0.0003
vn 0.0429 -0.9991 -0.0002
vn 0.1175 -0.9931 0.0002
vn 0.1951 -0.9808 -0.0000
vn 0.2714 -0.9625 0.0000
vn 0.4187 -0.9081 0.0000
vn 0.3461 -0.9382 -0.0000
vn 0.4886 -0.8725 0.0000
vn 0.5556 -0.8315 0.0000
vn 0.6191 -0.7853 -0.0000
vn 0.6788 -0.7343 -0.0000
vn 0.7343 -0.6788 0.0000
vn 0.7853 -0.6191 0.0000
vn 0.8315 -0.5556 -0.0000
vn 0.8725 -0.4886 -0.0000
vn 0.9081 -0.4187 0.0000
vn 0.9625 -0.2714 0.0000
vn 0.9382 -0.3461 0.0000
vn 0.9808 -0.1951 0.0000
vn 0.9931 -0.1175 -0.0000
vn 0.9992 -0.0393 0.0000
vn -0.0393 0.9992 0.0000
vn -0.1175 0.9931 0.0000
vn -0.1951 0.9808 0.0000
vn -0.3461 0.9382 0.0000
vn -0.2714 0.9625 0.0000
vn -0.4187 0.9081 0.0000
vn -0.4886 0.8725 0.0000
vn -0.6191 0.7853 0.0000
vn -0.5556 0.8315 0.0000
vn -0.6788 0.7343 0.0000
vn -0.7853 0.6191 0.0000
vn -0.7343 0.6788 0.0000
vn -0.8725 0.4886 0.0000
vn -0.8315 0.5556 0.0000
vn -0.9081 0.4187 0.0000
vn -0.9382 0.3461 0.0000
vn -0.9625 0.2714 0.0000
vn -0.9808 0.1951 0.0000
vn -0.9931 0.1175 0.0000
vn -0.9992 0.0393 0.0000
vn 0.9992 0.0393 0.0000
vn 0.9931 0.1175 0.0000
vn 0.9808 0.1951 0.0000
vn 0.9625 0.2714 0.0000
vn 0.9382 0.3461 0.0000
vn 0.9081 0.4187 0.0000
vn 0.8725 0.4886 0.0000
vn 0.8315 0.5556 0.0000
vn 0.7853 0.6191 0.0000
vn 0.7343 0.6788 0.0000
vn 0.6191 0.7853 0.0000
vn 0.6788 0.7343 0.0000
vn 0.5556 0.8315 0.0000
vn 0.4886 0.8725 0.0000
vn 0.4187 0.9081 0.0000
vn 0.3461 0.9382 0.0000
vn 0.2714 0.9625 0.0000
vn 0.1951 0.9808 0.0000
vn 0.1175 0.9931 0.0000
vn 0.0393 0.9992 0.0000
usemtl Default_OBJ
s off
f 1//1 2//1 3//1
f 3//1 2//1 4//1
f 4//2 5//2 6//2
f 2//2 5//2 4//2
f 6//3 7//3 8//3
f 5//3 7//3 6//3
f 8//4 9//4 10//4
f 7//4 9//4 8//4
f 10//5 11//5 12//5
f 9//5 11//5 10//5
f 12//6 13//6 14//6
f 11//6 13//6 12//6
f 14//7 15//7 16//7
f 13//7 15//7 14//7
f 16//8 17//8 18//8
f 15//9 17//9 16//9
f 18//10 19//10 20//10
f 17//10 19//10 18//10
f 20//11 21//11 22//11
f 19//11 21//11 20//11
f 21//12 23//12 22//12
f 22//12 23//12 24//12
f 23//13 25//13 24//13
f 24//13 25//13 26//13
f 25//14 27//14 26//14
f 26//14 27//14 28//14
f 27//15 29//15 28//15
f 28//15 29//15 30//15
f 29//16 31//16 30//16
f 30//16 31//16 32//16
f 31//17 33//17 32//17
f 32//18 33//18 34//18
f 33//19 35//19 34//19
f 34//19 35//19 36//19
f 35//20 37//20 36//20
f 36//20 37//20 38//20
f 37//21 39//21 38//21
f 38//21 39//21 40//21
f 39//22 41//22 40//22
f 40//23 41//23 42//23
f 41//24 43//24 42//24
f 42//25 43//25 44//25
f 43//26 45//26 44//26
f 44//26 45//26 46//26
f 45//27 47//27 46//27
f 46//27 47//27 48//27
f 47//28 49//28 48//28
f 48//28 49//28 50//28
f 50//29 51//29 52//29
f 49//29 51//29 50//29
f 52//30 53//30 54//30
f 51//30 53//30 52//30
f 54//31 1//31 3//31
f 53//31 1//31 54//31
f 55//1 56//1 57//1
f 57//2 58//2 59//2
f 56//1 58//1 57//1
f 59//3 60//3 61//3
f 58//2 60//2 59//2
f 61//4 62//4 63//4
f 60//3 62//3 61//3
f 63//5 64//5 65//5
f 62//4 64//4 63//4
f 65//6 66//6 67//6
f 64//5 66//5 65//5
f 67//7 68//7 69//7
f 66//6 68//6 67//6
f 69//8 70//8 71//8
f 68//7 70//7 69//7
f 71//10 72//10 73//10
f 70//9 72//9 71//9
f 73//11 74//11 75//11
f 72//10 74//10 73//10
f 74//11 76//11 75//11
f 75//12 76//12 77//12
f 76//12 78//12 77//12
f 77//13 78//13 79//13
f 78//13 80//13 79//13
f 79//14 80//14 81//14
f 80//14 82//14 81//14
f 81//15 82//15 83//15
f 82//15 84//15 83//15
f 83//16 84//16 85//16
f 84//16 86//16 85//16
f 85//18 86//18 87//18
f 86//18 88//18 87//18
f 87//19 88//19 89//19
f 88//19 90//19 89//19
f 89//20 90//20 91//20
f 90//20 92//20 91//20
f 91//21 92//21 93//21
f 92//21 94//21 93//21
f 93//23 94//23 95//23
f 94//22 96//22 95//22
f 95//25 96//25 97//25
f 96//25 98//25 97//25
f 97//26 98//26 99//26
f 98//26 100//26 99//26
f 99//27 100//27 101//27
f 100//27 102//27 101//27
f 101//28 102//28 103//28
f 103//29 104//29 105//29
f 102//28 104//28 103//28
f 105//30 106//30 107//30
f 104//29 106//29 105//29
f 107//31 108//31 55//31
f 106//30 108//30 107//30
f 108//31 56//31 55//31
f 109//1 110//1 111//1
f 111//2 112//2 113//2
f 110//1 112//1 111//1
f 113//3 114//3 115//3
f 112//2 114//2 113//2
f 115//4 116//4 117//4
f 114//3 116//3 115//3
f 117//5 118//5 119//5
f 116//4 118//4 117//4
f 119//6 120//6 121//6
f 118//5 120//5 119//5
f 120//6 122//6 121//6
f 121//7 123//7 124//7
f 122//7 123//7 121//7
f 124//8 125//8 126//8
f 123//8 125//8 124//8
f 126//10 127//10 128//10
f 128//11 127//11 129//11
f 125//10 127//10 126//10
f 127//11 130//11 129//11
f 129//12 131//12 132//12
f 130//12 131//12 129//12
f 131//13 133//13 132//13
f 132//13 133//13 134//13
f 133//14 135//14 134//14
f 134//14 135//14 136//14
f 135//15 137//15 136//15
f 136//15 137//15 138//15
f 137//16 139//16 138//16
f 138//16 139//16 140//16
f 140//18 139//18 141//18
f 139//18 142//18 141//18
f 142//19 143//19 141//19
f 141//19 143//19 144//19
f 144//20 143//20 145//20
f 143//20 146//20 145//20
f 145//21 146//21 147//21
f 146//21 148//21 147//21
f 147//22 148//22 149//22
f 148//22 150//22 149//22
f 150//25 151//25 149//25
f 149//25 151//25 152//25
f 151//26 153//26 152//26
f 152//26 153//26 154//26
f 153//27 155//27 154//27
f 154//27 155//27 156//27
f 156//28 155//28 157//28
f 155//28 158//28 157//28
f 157//29 159//29 160//29
f 158//29 159//29 157//29
f 160//30 161//30 162//30
f 159//30 161//30 160//30
f 162//31 110//31 109//31
f 161//31 110//31 162//31
f 163//1 164//1 165//1
f 165//2 166//2 167//2
f 164//1 166//1 165//1
f 167//3 168//3 169//3
f 166//2 168//2 167//2
f 169//4 170//4 171//4
f 168//3 170//3 169//3
f 171//5 172//5 173//5
f 170//4 172//4 171//4
f 173//6 174//6 175//6
f 172//5 174//5 173//5
f 174//6 176//6 175//6
f 175//7 177//7 178//7
f 176//32 177//32 175//32
f 178//8 179//8 180//8
f 177//8 179//8 178//8
f 180//10 181//10 182//10
f 179//10 181//10 180//10
f 182//11 183//11 184//11
f 184//12 183//12 185//12
f 181//11 183//11 182//11
f 183//12 186//12 185//12
f 186//33 187//33 185//33
f 185//13 187//13 188//13
f 187//14 189//14 188//14
f 188//14 189//14 190//14
f 189//15 191//15 190//15
f 190//15 191//15 192//15
f 191//16 193//16 192//16
f 192//16 193//16 194//16
f 193//18 195//18 194//18
f 194//34 195//34 196//34
f 195//19 197//19 196//19
f 196//19 197//19 198//19
f 197//20 199//20 198//20
f 198//20 199//20 200//20
f 199//21 201//21 200//21
f 200//21 201//21 202//21
f 201//22 203//22 202//22
f 202//22 203//22 204//22
f 204//25 203//25 205//25
f 203//24 206//24 205//24
f 206//26 207//26 205//26
f 205//26 207//26 208//26
f 207//27 209//27 208//27
f 208//27 209//27 210//27
f 210//35 209//35 211//35
f 209//28 212//28 211//28
f 211//29 213//29 214//29
f 212//29 213//29 211//29
f 214//30 215//30 216//30
f 213//30 215//30 214//30
f 216//31 164//31 163//31
f 215//31 164//31 216//31
f 217//1 218//1 219//1
f 219//1 218//1 220//1
f 220//2 218//2 221//2
f 221//3 222//3 223//3
f 218//2 222//2 221//2
f 223//4 224//4 225//4
f 222//3 224//3 223//3
f 225//5 226//5 227//5
f 224//4 226//4 225//4
f 227//6 228//6 229//6
f 226//5 228//5 227//5
f 228//6 230//6 229//6
f 229//7 231//7 232//7
f 230//7 231//7 229//7
f 232//8 233//8 234//8
f 231//8 233//8 232//8
f 234//10 235//10 236//10
f 233//10 235//10 234//10
f 236//11 237//11 238//11
f 235//11 237//11 236//11
f 237//12 239//12 238//12
f 238//12 239//12 240//12
f 240//13 239//13 241//13
f 239//33 242//33 241//33
f 242//14 243//14 241//14
f 241//14 243//14 244//14
f 243//15 245//15 244//15
f 244//15 245//15 246//15
f 245//16 247//16 246//16
f 246//16 247//16 248//16
f 248//18 247//18 249//18
f 247//36 250//36 249//36
f 250//19 251//19 249//19
f 249//19 251//19 252//19
f 252//20 251//20 253//20
f 251//20 254//20 253//20
f 254//21 255//21 253//21
f 253//21 255//21 256//21
f 255//22 257//22 256//22
f 256//22 257//22 258//22
f 257//25 259//25 258//25
f 258//25 259//25 260//25
f 259//26 261//26 260//26
f 260//26 261//26 262//26
f 262//27 263//27 264//27
f 261//27 263//27 262//27
f 264//28 265//28 266//28
f 266//29 265//29 267//29
f 263//28 265//28 264//28
f 267//30 268//30 269//30
f 265//29 268//29 267//29
f 268//30 270//30 269//30
f 269//31 217//31 219//31
f 270//31 217//31 269//31
f 271//1 272//1 273//1
f 273//2 274//2 275//2
f 272//1 274//1 273//1
f 275//3 276//3 277//3
f 274//2 276//2 275//2
f 277//4 278//4 279//4
f 276//3 278//3 277//3
f 279//5 280//5 281//5
f 278//4 280//4 279//4
f 281//6 282//6 283//6
f 280//5 282//5 281//5
f 282//6 284//6 283//6
f 283//7 285//7 286//7
f 284//7 285//7 283//7
f 286//8 287//8 288//8
f 285//8 287//8 286//8
f 288//10 289//10 290//10
f 287//10 289//10 288//10
f 290//11 291//11 292//11
f 289//11 291//11 290//11
f 291//12 293//12 292//12
f 292//12 293//12 294//12
f 293//13 295//13 294//13
f 294//13 295//13 296//13
f 295//14 297//14 296//14
f 296//14 297//14 298//14
f 297//15 299//15 298//15
f 298//15 299//15 300//15
f 299//16 301//16 300//16
f 300//16 301//16 302//16
f 301//18 303//18 302//18
f 302//18 303//18 304//18
f 304//19 303//19 305//19
f 303//19 306//19 305//19
f 306//20 307//20 305//20
f 305//20 307//20 308//20
f 307//21 309//21 308//21
f 308//21 309//21 310//21
f 310//22 309//22 311//22
f 309//22 312//22 311//22
f 312//25 313//25 311//25
f 311//25 313//25 314//25
f 314//26 313//26 315//26
f 313//26 316//26 315//26
f 316//27 317//27 315//27
f 315//27 317//27 318//27
f 318//28 317//28 319//28
f 319//29 320//29 321//29
f 317//28 320//28 319//28
f 320//29 322//29 321//29
f 321//30 323//30 324//30
f 322//30 323//30 321//30
f 324//31 272//31 271//31
f 323//31 272//31 324//31
f 278//37 325//37 326//37
f 280//37 278//37 326//37
f 276//37 325//37 278//37
f 282//37 280//37 326//37
f 274//37 325//37 276//37
f 284//37 282//37 326//37
f 272//37 325//37 274//37
f 285//37 326//37 327//37
f 285//37 284//37 326//37
f 323//37 325//37 272//37
f 287//37 285//37 327//37
f 289//37 287//37 327//37
f 291//37 289//37 327//37
f 291//37 327//37 328//37
f 293//37 291//37 328//37
f 295//37 293//37 328//37
f 297//37 295//37 328//37
f 299//37 297//37 328//37
f 116//37 320//37 317//37
f 118//37 116//37 317//37
f 114//37 320//37 116//37
f 114//37 322//37 320//37
f 120//37 118//37 317//37
f 120//37 317//37 316//37
f 112//37 322//37 114//37
f 112//37 323//37 322//37
f 112//37 325//37 323//37
f 122//37 120//37 316//37
f 122//37 316//37 313//37
f 110//37 325//37 112//37
f 123//37 122//37 313//37
f 123//37 313//37 312//37
f 125//37 123//37 312//37
f 125//37 312//37 309//37
f 127//37 309//37 307//37
f 127//37 125//37 309//37
f 127//37 307//37 306//37
f 130//37 127//37 306//37
f 131//37 130//37 306//37
f 131//37 306//37 303//37
f 131//37 303//37 301//37
f 133//37 301//37 299//37
f 133//37 131//37 301//37
f 135//37 299//37 328//37
f 135//37 133//37 299//37
f 64//37 158//37 155//37
f 64//37 155//37 153//37
f 64//37 62//37 158//37
f 60//37 159//37 158//37
f 60//37 158//37 62//37
f 66//37 64//37 153//37
f 58//37 161//37 159//37
f 58//37 159//37 60//37
f 68//37 153//37 151//37
f 68//37 151//37 150//37
f 68//37 66//37 153//37
f 56//37 110//37 161//37
f 56//37 161//37 58//37
f 70//37 150//37 148//37
f 70//37 68//37 150//37
f 72//37 70//37 148//37
f 74//37 72//37 148//37
f 74//37 148//37 146//37
f 74//37 146//37 143//37
f 76//37 74//37 143//37
f 78//37 76//37 143//37
f 78//37 143//37 142//37
f 78//37 142//37 139//37
f 80//37 78//37 139//37
f 82//37 80//37 139//37
f 82//37 139//37 137//37
f 226//37 224//37 104//37
f 226//37 104//37 102//37
f 226//37 102//37 100//37
f 222//37 104//37 224//37
f 222//37 106//37 104//37
f 228//37 226//37 100//37
f 218//37 106//37 222//37
f 218//37 108//37 106//37
f 230//37 228//37 100//37
f 230//37 100//37 98//37
f 217//38 108//38 218//38
f 217//39 56//39 108//39
f 231//37 98//37 96//37
f 231//37 230//37 98//37
f 233//37 96//37 94//37
f 233//37 231//37 96//37
f 235//37 233//37 94//37
f 235//37 94//37 92//37
f 237//37 235//37 92//37
f 237//37 92//37 90//37
f 239//37 90//37 88//37
f 239//37 88//37 86//37
f 239//37 237//37 90//37
f 242//37 239//37 86//37
f 243//37 86//37 84//37
f 243//37 242//37 86//37
f 170//37 265//37 263//37
f 172//37 263//37 261//37
f 172//37 170//37 263//37
f 168//37 268//37 265//37
f 168//37 265//37 170//37
f 174//37 261//37 259//37
f 174//37 172//37 261//37
f 166//37 270//37 268//37
f 166//37 268//37 168//37
f 176//37 174//37 259//37
f 177//37 176//37 259//37
f 177//37 259//37 257//37
f 179//37 257//37 255//37
f 179//37 177//37 257//37
f 181//37 179//37 255//37
f 181//37 255//37 254//37
f 183//37 181//37 254//37
f 183//37 254//37 251//37
f 186//37 183//37 251//37
f 186//37 251//37 250//37
f 186//37 250//37 247//37
f 187//37 186//37 247//37
f 189//37 187//37 247//37
f 189//37 247//37 245//37
f 329//37 166//37 164//37
f 329//37 217//37 270//37
f 329//37 270//37 166//37
f 329//37 164//37 215//37
f 329//37 215//37 213//37
f 9//37 7//37 212//37
f 9//37 212//37 209//37
f 9//37 209//37 207//37
f 5//37 212//37 7//37
f 5//37 329//37 213//37
f 5//37 213//37 212//37
f 11//37 9//37 207//37
f 11//37 207//37 206//37
f 2//37 329//37 5//37
f 13//37 11//37 206//37
f 1//37 329//37 2//37
f 15//37 13//37 206//37
f 15//37 206//37 203//37
f 53//37 329//37 1//37
f 17//37 15//37 203//37
f 17//37 203//37 201//37
f 51//37 329//37 53//37
f 19//37 17//37 201//37
f 19//37 201//37 199//37
f 49//37 329//37 51//37
f 21//37 19//37 199//37
f 21//37 199//37 197//37
f 47//37 329//37 49//37
f 23//37 21//37 197//37
f 23//37 197//37 195//37
f 23//37 195//37 193//37
f 45//37 329//37 47//37
f 25//37 23//37 193//37
f 43//37 329//37 45//37
f 41//37 329//37 43//37
f 330//37 191//37 189//37
f 330//37 41//37 39//37
f 330//37 39//37 37//37
f 330//37 37//37 35//37
f 330//37 35//37 33//37
f 330//37 33//37 31//37
f 330//37 31//37 29//37
f 330//37 29//37 27//37
f 330//37 27//37 25//37
f 330//37 245//37 243//37
f 330//37 189//37 245//37
f 330//37 329//37 41//37
f 330//37 25//37 193//37
f 330//37 193//37 191//37
f 328//37 330//37 243//37
f 328//37 243//37 84//37
f 328//37 84//37 82//37
f 328//37 82//37 137//37
f 328//37 137//37 135//37
f 329//37 325//37 110//37
f 329//37 110//37 56//37
f 329//37 56//37 217//37
f 329//15 331//15 325//15
f 329//15 332//15 331//15
f 294//40 333//40 334//40
f 294//40 334//40 292//40
f 290//40 292//40 334//40
f 296//40 333//40 294//40
f 288//40 290//40 334//40
f 298//40 333//40 296//40
f 286//40 334//40 335//40
f 286//40 288//40 334//40
f 300//40 333//40 298//40
f 283//40 286//40 335//40
f 281//40 283//40 335//40
f 279//40 281//40 335//40
f 277//40 335//40 331//40
f 277//40 279//40 335//40
f 275//40 277//40 331//40
f 273//40 275//40 331//40
f 271//40 273//40 331//40
f 324//40 271//40 331//40
f 132//40 305//40 129//40
f 132//40 304//40 305//40
f 128//40 129//40 305//40
f 128//40 305//40 308//40
f 128//40 308//40 310//40
f 134//40 304//40 132//40
f 134//40 302//40 304//40
f 126//40 128//40 310//40
f 136//40 302//40 134//40
f 136//40 300//40 302//40
f 136//40 333//40 300//40
f 124//40 126//40 310//40
f 124//40 310//40 311//40
f 124//40 311//40 314//40
f 121//40 124//40 314//40
f 121//40 314//40 315//40
f 119//40 121//40 315//40
f 117//40 119//40 315//40
f 117//40 315//40 318//40
f 115//40 117//40 318//40
f 115//40 318//40 319//40
f 115//40 319//40 321//40
f 113//40 115//40 321//40
f 111//40 324//40 331//40
f 111//40 113//40 321//40
f 111//40 321//40 324//40
f 109//40 111//40 331//40
f 75//40 144//40 145//40
f 77//40 144//40 75//40
f 77//40 141//40 144//40
f 73//40 75//40 145//40
f 79//40 140//40 141//40
f 79//40 141//40 77//40
f 71//40 145//40 147//40
f 71//40 73//40 145//40
f 81//40 138//40 140//40
f 81//40 140//40 79//40
f 69//40 71//40 147//40
f 69//40 147//40 149//40
f 67//40 69//40 149//40
f 67//40 149//40 152//40
f 65//40 67//40 152//40
f 65//40 152//40 154//40
f 63//40 65//40 154//40
f 63//40 154//40 156//40
f 61//40 156//40 157//40
f 61//40 63//40 156//40
f 59//40 61//40 157//40
f 59//40 157//40 160//40
f 59//40 160//40 162//40
f 57//40 59//40 162//40
f 55//40 57//40 162//40
f 55//40 162//40 109//40
f 240//40 89//40 238//40
f 240//40 87//40 89//40
f 236//40 238//40 89//40
f 236//40 89//40 91//40
f 241//40 87//40 240//40
f 241//40 85//40 87//40
f 234//40 236//40 91//40
f 234//40 91//40 93//40
f 244//40 85//40 241//40
f 244//40 83//40 85//40
f 232//40 234//40 93//40
f 232//40 93//40 95//40
f 229//40 232//40 95//40
f 229//40 95//40 97//40
f 227//40 229//40 97//40
f 227//40 97//40 99//40
f 225//40 227//40 99//40
f 225//40 99//40 101//40
f 225//40 101//40 103//40
f 223//40 225//40 103//40
f 221//40 223//40 103//40
f 221//40 103//40 105//40
f 220//40 105//40 107//40
f 220//40 107//40 55//40
f 220//40 221//40 105//40
f 219//40 220//40 55//40
f 184//40 249//40 252//40
f 185//40 249//40 184//40
f 182//40 252//40 253//40
f 182//40 184//40 252//40
f 188//40 246//40 248//40
f 188//40 248//40 249//40
f 188//40 249//40 185//40
f 180//40 253//40 256//40
f 180//40 182//40 253//40
f 190//40 246//40 188//40
f 178//40 256//40 258//40
f 178//40 180//40 256//40
f 175//40 258//40 260//40
f 175//40 178//40 258//40
f 173//40 260//40 262//40
f 173//40 175//40 260//40
f 171//40 173//40 262//40
f 171//40 262//40 264//40
f 169//40 264//40 266//40
f 169//40 266//40 267//40
f 169//40 171//40 264//40
f 167//40 169//40 267//40
f 165//40 167//40 267//40
f 165//40 267//40 269//40
f 336//40 190//40 192//40
f 336//40 192//40 194//40
f 336//40 246//40 190//40
f 336//40 244//40 246//40
f 22//40 196//40 198//40
f 24//40 196//40 22//40
f 20//40 198//40 200//40
f 20//40 22//40 198//40
f 26//40 194//40 196//40
f 26//40 336//40 194//40
f 26//40 196//40 24//40
f 18//40 200//40 202//40
f 18//40 20//40 200//40
f 28//40 336//40 26//40
f 16//40 202//40 204//40
f 16//40 18//40 202//40
f 30//40 336//40 28//40
f 14//40 204//40 205//40
f 14//40 205//40 208//40
f 14//40 16//40 204//40
f 32//40 336//40 30//40
f 12//40 14//40 208//40
f 34//40 336//40 32//40
f 10//40 208//40 210//40
f 10//40 12//40 208//40
f 36//40 336//40 34//40
f 8//40 210//40 211//40
f 8//40 10//40 210//40
f 38//40 336//40 36//40
f 6//40 211//40 214//40
f 6//40 8//40 211//40
f 40//40 336//40 38//40
f 42//40 336//40 40//40
f 332//40 3//40 4//40
f 332//40 4//40 6//40
f 332//40 214//40 216//40
f 332//40 216//40 163//40
f 332//40 42//40 44//40
f 332//40 44//40 46//40
f 332//40 46//40 48//40
f 332//40 48//40 50//40
f 332//40 50//40 52//40
f 332//40 52//40 54//40
f 332//40 54//40 3//40
f 332//40 6//40 214//40
f 332//40 269//40 219//40
f 332//40 165//40 269//40
f 332//40 336//40 42//40
f 332//40 163//40 165//40
f 331//40 332//40 219//40
f 331//40 219//40 55//40
f 331//40 55//40 109//40
f 336//40 333//40 136//40
f 336//40 136//40 138//40
f 336//40 138//40 81//40
f 336//40 81//40 83//40
f 336//40 83//40 244//40
f 330//41 328//41 333//41
f 336//41 330//41 333//41
f 336//42 329//42 330//42
f 336//42 332//42 329//42
f 337//43 338//43 339//43
f 339//43 338//43 340//43
f 340//44 341//44 342//44
f 338//44 341//44 340//44
f 342//45 343//45 344//45
f 341//45 343//45 342//45
f 344//46 345//46 346//46
f 343//46 345//46 344//46
f 346//47 347//47 348//47
f 345//47 347//47 346//47
f 348//48 349//48 350//48
f 347//48 349//48 348//48
f 350//49 351//49 352//49
f 349//49 351//49 350//49
f 352//50 353//50 354//50
f 351//51 353//51 352//51
f 354//52 355//52 356//52
f 353//53 355//53 354//53
f 356//54 357//54 358//54
f 355//54 357//54 356//54
f 358//55 359//55 360//55
f 357//55 359//55 358//55
f 361//56 362//56 363//56
f 360//57 362//57 361//57
f 359//57 362//57 360//57
f 362//56 364//56 363//56
f 363//58 365//58 366//58
f 364//58 365//58 363//58
f 366//59 367//59 368//59
f 365//59 367//59 366//59
f 367//60 369//60 368//60
f 368//60 369//60 370//60
f 369//61 371//61 372//61
f 369//61 372//61 370//61
f 373//62 374//62 375//62
f 373//62 375//62 376//62
f 377//63 376//63 378//63
f 377//63 373//63 376//63
f 379//64 378//64 380//64
f 379//64 377//64 378//64
f 381//65 380//65 382//65
f 381//65 379//65 380//65
f 383//66 382//66 384//66
f 383//66 381//66 382//66
f 385//67 384//67 386//67
f 385//67 383//67 384//67
f 387//68 386//68 388//68
f 387//68 385//68 386//68
f 389//69 388//69 390//69
f 389//69 387//69 388//69
f 391//70 390//70 392//70
f 391//70 389//70 390//70
f 393//71 392//71 394//71
f 393//71 391//71 392//71
f 395//72 394//72 396//72
f 395//72 393//72 394//72
f 397//73 396//73 398//73
f 397//73 395//73 396//73
f 399//74 397//74 398//74
f 399//74 398//74 400//74
f 401//75 399//75 400//75
f 401//75 400//75 402//75
f 403//76 401//76 402//76
f 403//76 402//76 404//76
f 405//77 403//77 404//77
f 405//77 404//77 406//77
f 407//78 405//78 406//78
f 407//79 408//79 409//79
f 407//78 406//78 408//78
f 325//80 409//80 410//80
f 411//79 407//79 409//79
f 331//81 409//81 325//81
f 331//81 411//81 409//81
f 412//82 411//82 331//82
f 326//83 410//83 413//83
f 326//84 325//84 410//84
f 335//85 412//85 331//85
f 414//83 412//83 335//83
f 334//86 414//86 335//86
f 415//86 414//86 334//86
f 416//87 417//87 418//87
f 418//87 417//87 419//87
f 420//61 421//61 422//61
f 420//61 423//61 421//61
f 421//61 418//61 422//61
f 421//61 416//61 418//61
f 417//86 424//86 419//86
f 424//86 425//86 419//86
f 426//86 427//86 424//86
f 424//86 427//86 425//86
f 427//41 426//41 420//41
f 420//41 426//41 423//41
f 428//15 417//15 416//15
f 428//15 429//15 417//15
f 420//87 422//87 430//87
f 420//87 430//87 431//87
f 420//87 431//87 432//87
f 420//87 432//87 433//87
f 420//87 433//87 434//87
f 420//87 434//87 435//87
f 420//87 435//87 436//87
f 420//87 436//87 437//87
f 420//87 437//87 438//87
f 420//87 438//87 439//87
f 420//87 439//87 440//87
f 420//87 440//87 441//87
f 420//87 441//87 442//87
f 420//87 442//87 443//87
f 420//87 443//87 444//87
f 420//87 444//87 445//87
f 420//87 445//87 446//87
f 420//87 446//87 447//87
f 420//87 447//87 448//87
f 420//87 448//87 449//87
f 450//87 420//87 451//87
f 452//87 451//87 420//87
f 453//87 420//87 449//87
f 453//87 452//87 420//87
f 454//87 453//87 449//87
f 413//87 454//87 449//87
f 427//87 455//87 456//87
f 427//87 456//87 457//87
f 427//87 457//87 458//87
f 427//87 459//87 460//87
f 427//87 460//87 425//87
f 461//87 459//87 427//87
f 462//87 461//87 427//87
f 463//87 462//87 427//87
f 404//87 410//87 409//87
f 404//87 409//87 408//87
f 404//87 408//87 406//87
f 464//87 463//87 427//87
f 465//87 464//87 427//87
f 400//88 404//88 402//88
f 466//87 465//87 427//87
f 398//87 410//87 404//87
f 398//87 413//87 410//87
f 398//87 404//87 400//87
f 467//87 466//87 427//87
f 468//87 467//87 427//87
f 394//87 413//87 398//87
f 394//89 398//89 396//89
f 469//87 468//87 427//87
f 392//87 413//87 394//87
f 470//87 469//87 427//87
f 471//87 470//87 427//87
f 388//89 392//89 390//89
f 472//87 471//87 427//87
f 386//87 413//87 392//87
f 386//87 392//87 388//87
f 473//87 472//87 427//87
f 384//87 413//87 386//87
f 474//87 473//87 427//87
f 475//87 474//87 427//87
f 476//87 475//87 427//87
f 477//87 478//87 454//87
f 477//87 454//87 413//87
f 479//87 480//87 478//87
f 479//87 478//87 477//87
f 481//87 477//87 413//87
f 482//87 476//87 427//87
f 376//87 384//87 382//87
f 376//87 382//87 380//87
f 376//87 380//87 378//87
f 376//87 413//87 384//87
f 483//87 484//87 480//87
f 483//87 480//87 479//87
f 485//87 481//87 413//87
f 486//87 458//87 487//87
f 486//87 482//87 427//87
f 486//87 427//87 458//87
f 375//87 413//87 376//87
f 375//87 485//87 413//87
f 488//87 489//87 484//87
f 488//87 484//87 483//87
f 490//87 485//87 375//87
f 491//87 487//87 489//87
f 491//87 489//87 488//87
f 492//87 490//87 375//87
f 493//87 492//87 375//87
f 494//87 486//87 487//87
f 494//87 491//87 495//87
f 494//87 495//87 496//87
f 494//87 487//87 491//87
f 497//87 493//87 375//87
f 497//87 496//87 498//87
f 497//87 498//87 499//87
f 497//87 499//87 500//87
f 497//87 500//87 493//87
f 497//87 494//87 496//87
f 501//87 494//87 497//87
f 501//87 497//87 502//87
f 501//87 502//87 503//87
f 501//89 503//89 504//89
f 501//87 505//87 494//87
f 506//87 501//87 507//87
f 508//89 509//89 510//89
f 508//87 510//87 511//87
f 508//87 511//87 512//87
f 513//87 508//87 512//87
f 513//87 512//87 505//87
f 514//87 501//87 506//87
f 514//88 506//88 515//88
f 516//87 505//87 501//87
f 516//87 513//87 505//87
f 516//87 501//87 514//87
f 516//87 517//87 513//87
f 518//87 517//87 516//87
f 518//89 519//89 517//89
f 427//87 420//87 520//87
f 520//87 420//87 450//87
f 427//87 520//87 455//87
f 421//90 423//90 521//90
f 521//90 423//90 522//90
f 522//90 423//90 523//90
f 523//90 423//90 524//90
f 524//90 423//90 525//90
f 525//90 423//90 526//90
f 526//90 423//90 527//90
f 527//90 423//90 528//90
f 528//90 423//90 529//90
f 529//90 423//90 530//90
f 530//90 423//90 531//90
f 531//90 423//90 532//90
f 532//90 423//90 533//90
f 533//90 423//90 534//90
f 534//90 423//90 535//90
f 535//90 423//90 372//90
f 423//90 536//90 537//90
f 423//90 538//90 372//90
f 537//90 538//90 423//90
f 538//90 539//90 372//90
f 539//90 540//90 372//90
f 540//90 370//90 372//90
f 541//90 426//90 542//90
f 542//90 426//90 543//90
f 424//90 544//90 426//90
f 544//91 545//91 426//91
f 368//90 363//90 366//90
f 545//92 546//92 426//92
f 546//90 547//90 426//90
f 363//90 360//90 361//90
f 368//90 360//90 363//90
f 547//90 548//90 426//90
f 548//90 549//90 426//90
f 370//90 356//90 368//90
f 360//90 356//90 358//90
f 368//90 356//90 360//90
f 549//90 550//90 426//90
f 370//90 354//90 356//90
f 550//90 551//90 426//90
f 551//90 552//90 426//90
f 370//90 350//90 354//90
f 354//90 350//90 352//90
f 552//90 553//90 426//90
f 553//90 554//90 426//90
f 350//90 346//90 348//90
f 554//90 555//90 426//90
f 350//90 344//90 346//90
f 555//90 556//90 426//90
f 556//90 557//90 426//90
f 350//90 340//90 344//90
f 344//92 340//92 342//92
f 557//90 558//90 426//90
f 370//90 339//90 350//90
f 350//90 339//90 340//90
f 558//90 559//90 426//90
f 426//90 559//90 543//90
f 543//90 559//90 560//90
f 560//90 559//90 561//90
f 540//90 562//90 370//90
f 563//90 562//90 540//90
f 563//90 564//90 562//90
f 565//90 564//90 563//90
f 562//90 566//90 370//90
f 565//90 567//90 564//90
f 568//90 567//90 565//90
f 370//90 569//90 339//90
f 566//90 569//90 370//90
f 568//90 570//90 567//90
f 571//90 570//90 568//90
f 569//90 572//90 339//90
f 571//90 573//90 570//90
f 561//90 573//90 571//90
f 572//90 574//90 339//90
f 574//90 575//90 339//90
f 575//90 576//90 339//90
f 576//90 577//90 339//90
f 578//90 577//90 579//90
f 579//90 577//90 580//90
f 580//90 577//90 576//90
f 559//90 581//90 561//90
f 561//90 581//90 573//90
f 578//90 581//90 577//90
f 573//90 581//90 582//90
f 582//90 581//90 578//90
f 577//90 583//90 584//90
f 581//90 583//90 577//90
f 583//90 585//90 584//90
f 586//90 587//90 583//90
f 585//91 588//91 589//91
f 583//90 588//90 585//90
f 588//90 590//90 591//90
f 592//90 590//90 593//90
f 593//90 590//90 587//90
f 587//90 590//90 583//90
f 583//90 590//90 588//90
f 594//90 595//90 592//90
f 590//92 596//92 597//92
f 592//90 596//90 590//90
f 595//90 596//90 592//90
f 423//90 426//90 598//90
f 423//90 598//90 536//90
f 598//90 426//90 541//90
f 483//93 479//93 567//93
f 567//93 479//93 564//93
f 564//94 477//94 562//94
f 479//94 477//94 564//94
f 562//95 481//95 566//95
f 477//95 481//95 562//95
f 566//96 485//96 569//96
f 481//96 485//96 566//96
f 569//97 490//97 572//97
f 485//97 490//97 569//97
f 572//98 492//98 574//98
f 490//98 492//98 572//98
f 574//99 493//99 575//99
f 492//99 493//99 574//99
f 575//41 500//41 576//41
f 493//41 500//41 575//41
f 576//100 499//100 580//100
f 500//100 499//100 576//100
f 579//101 498//101 578//101
f 580//102 498//102 579//102
f 499//102 498//102 580//102
f 498//101 496//101 578//101
f 578//103 495//103 582//103
f 496//103 495//103 578//103
f 582//104 491//104 573//104
f 495//104 491//104 582//104
f 573//105 488//105 570//105
f 491//105 488//105 573//105
f 570//106 483//106 567//106
f 488//106 483//106 570//106
f 520//93 450//93 598//93
f 598//93 450//93 536//93
f 536//94 451//94 537//94
f 450//94 451//94 536//94
f 537//95 452//95 538//95
f 451//95 452//95 537//95
f 538//96 453//96 539//96
f 452//96 453//96 538//96
f 539//97 454//97 540//97
f 453//97 454//97 539//97
f 540//98 478//98 563//98
f 454//98 478//98 540//98
f 563//99 480//99 565//99
f 478//99 480//99 563//99
f 565//41 484//41 568//41
f 480//41 484//41 565//41
f 568//100 489//100 571//100
f 484//100 489//100 568//100
f 561//101 487//101 560//101
f 571//102 487//102 561//102
f 489//102 487//102 571//102
f 487//101 458//101 560//101
f 560//103 457//103 543//103
f 458//103 457//103 560//103
f 543//104 456//104 542//104
f 457//104 456//104 543//104
f 542//105 455//105 541//105
f 456//105 455//105 542//105
f 541//106 520//106 598//106
f 455//106 520//106 541//106
f 599//86 581//86 559//86
f 599//86 600//86 581//86
f 600//107 601//107 581//107
f 581//107 601//107 583//107
f 583//108 602//108 586//108
f 601//108 602//108 583//108
f 586//109 603//109 587//109
f 602//109 603//109 586//109
f 593//110 604//110 592//110
f 587//111 604//111 593//111
f 603//111 604//111 587//111
f 604//110 605//110 592//110
f 592//112 606//112 594//112
f 605//112 606//112 592//112
f 595//113 607//113 596//113
f 594//114 607//114 595//114
f 606//114 607//114 594//114
f 607//115 608//115 596//115
f 596//116 609//116 597//116
f 608//117 609//117 596//117
f 590//118 610//118 591//118
f 597//119 610//119 590//119
f 609//119 610//119 597//119
f 591//120 611//120 588//120
f 610//118 611//118 591//118
f 588//121 612//121 589//121
f 611//120 612//120 588//120
f 612//121 613//121 589//121
f 585//122 614//122 584//122
f 589//123 614//123 585//123
f 613//123 614//123 589//123
f 614//122 615//122 584//122
f 615//124 616//124 584//124
f 584//124 616//124 577//124
f 577//41 337//41 339//41
f 616//41 337//41 577//41
f 372//125 617//125 535//125
f 371//125 617//125 372//125
f 535//126 618//126 534//126
f 617//126 618//126 535//126
f 534//127 619//127 533//127
f 618//127 619//127 534//127
f 532//128 620//128 531//128
f 533//129 620//129 532//129
f 619//129 620//129 533//129
f 620//128 621//128 531//128
f 531//130 622//130 530//130
f 621//130 622//130 531//130
f 529//131 623//131 528//131
f 530//132 623//132 529//132
f 622//132 623//132 530//132
f 623//131 624//131 528//131
f 528//133 625//133 527//133
f 624//133 625//133 528//133
f 526//134 626//134 525//134
f 527//135 626//135 526//135
f 625//135 626//135 527//135
f 525//136 627//136 524//136
f 626//134 627//134 525//134
f 524//137 628//137 523//137
f 627//136 628//136 524//136
f 628//137 629//137 523//137
f 522//138 630//138 521//138
f 523//139 630//139 522//139
f 629//139 630//139 523//139
f 630//138 631//138 521//138
f 521//140 416//140 421//140
f 631//140 416//140 521//140
f 631//140 428//140 416//140
f 417//141 544//141 424//141
f 429//141 632//141 417//141
f 417//141 632//141 544//141
f 544//142 633//142 545//142
f 632//142 633//142 544//142
f 545//143 634//143 546//143
f 633//143 634//143 545//143
f 546//144 635//144 547//144
f 634//144 635//144 546//144
f 547//145 636//145 548//145
f 635//145 636//145 547//145
f 548//146 637//146 549//146
f 636//146 637//146 548//146
f 550//147 638//147 551//147
f 549//148 638//148 550//148
f 637//148 638//148 549//148
f 638//149 639//149 551//149
f 551//150 640//150 552//150
f 639//151 640//151 551//151
f 552//152 641//152 553//152
f 640//152 641//152 552//152
f 553//153 642//153 554//153
f 641//153 642//153 553//153
f 554//154 643//154 555//154
f 642//154 643//154 554//154
f 555//155 644//155 556//155
f 643//155 644//155 555//155
f 557//156 645//156 558//156
f 556//157 645//157 557//157
f 644//157 645//157 556//157
f 645//156 646//156 558//156
f 646//158 599//158 558//158
f 558//158 599//158 559//158
f 448//159 327//159 449//159
f 328//160 327//160 448//160
f 447//161 333//161 328//161
f 447//162 328//162 448//162
f 647//159 415//159 334//159
f 647//163 334//163 333//163
f 648//161 333//161 447//161
f 648//164 647//164 333//164
f 649//165 447//165 446//165
f 649//165 648//165 447//165
f 650//166 446//166 445//166
f 650//166 649//166 446//166
f 651//167 444//167 443//167
f 651//168 445//168 444//168
f 651//168 650//168 445//168
f 652//169 443//169 442//169
f 652//167 651//167 443//167
f 653//169 652//169 442//169
f 654//170 442//170 441//170
f 654//170 653//170 442//170
f 655//171 441//171 440//171
f 655//171 654//171 441//171
f 656//172 440//172 439//172
f 656//172 655//172 440//172
f 657//173 439//173 438//173
f 657//173 656//173 439//173
f 658//174 657//174 438//174
f 658//174 438//174 437//174
f 659//175 658//175 437//175
f 659//176 436//176 435//176
f 659//175 437//175 436//175
f 660//176 659//176 435//176
f 661//177 435//177 434//177
f 661//177 660//177 435//177
f 662//178 433//178 432//178
f 662//179 434//179 433//179
f 662//179 661//179 434//179
f 663//180 432//180 431//180
f 663//178 662//178 432//178
f 664//180 663//180 431//180
f 665//181 431//181 430//181
f 665//181 664//181 431//181
f 418//182 430//182 422//182
f 418//182 665//182 430//182
f 666//182 665//182 418//182
f 327//86 326//86 413//86
f 327//86 413//86 449//86
f 375//15 667//15 497//15
f 374//15 667//15 375//15
f 668//183 669//183 494//183
f 668//184 505//184 512//184
f 668//183 494//183 505//183
f 670//185 512//185 511//185
f 670//184 668//184 512//184
f 671//185 670//185 511//185
f 672//186 510//186 509//186
f 672//187 511//187 510//187
f 672//187 671//187 511//187
f 673//188 509//188 508//188
f 673//186 672//186 509//186
f 674//189 508//189 513//189
f 674//188 673//188 508//188
f 675//189 674//189 513//189
f 676//190 517//190 519//190
f 676//191 513//191 517//191
f 676//191 675//191 513//191
f 677//190 676//190 519//190
f 678//192 519//192 518//192
f 678//192 677//192 519//192
f 679//193 516//193 514//193
f 679//194 518//194 516//194
f 679//194 678//194 518//194
f 680//193 679//193 514//193
f 681//195 515//195 506//195
f 681//196 514//196 515//196
f 681//196 680//196 514//196
f 682//195 681//195 506//195
f 683//197 682//197 506//197
f 683//197 506//197 507//197
f 684//198 683//198 507//198
f 684//199 501//199 504//199
f 684//198 507//198 501//198
f 685//199 684//199 504//199
f 685//200 504//200 503//200
f 686//200 685//200 503//200
f 687//201 686//201 503//201
f 687//201 503//201 502//201
f 667//202 687//202 502//202
f 667//202 502//202 497//202
f 669//61 688//61 486//61
f 669//61 486//61 494//61
f 460//203 419//203 425//203
f 689//203 690//203 419//203
f 689//203 419//203 460//203
f 691//204 460//204 459//204
f 691//204 689//204 460//204
f 692//205 459//205 461//205
f 692//205 691//205 459//205
f 693//206 461//206 462//206
f 693//206 692//206 461//206
f 694//207 462//207 463//207
f 694//207 693//207 462//207
f 695//208 463//208 464//208
f 695//208 694//208 463//208
f 696//209 464//209 465//209
f 696//209 695//209 464//209
f 697//210 465//210 466//210
f 697//210 696//210 465//210
f 698//211 466//211 467//211
f 698//211 697//211 466//211
f 699//212 467//212 468//212
f 699//212 698//212 467//212
f 700//213 469//213 470//213
f 700//214 468//214 469//214
f 700//214 699//214 468//214
f 701//213 700//213 470//213
f 702//215 701//215 470//215
f 702//215 470//215 471//215
f 703//216 702//216 471//216
f 703//216 471//216 472//216
f 704//217 703//217 472//217
f 704//217 472//217 473//217
f 705//218 704//218 473//218
f 705//218 473//218 474//218
f 706//219 705//219 474//219
f 706//220 475//220 476//220
f 706//219 474//219 475//219
f 707//220 706//220 476//220
f 708//221 476//221 482//221
f 708//221 707//221 476//221
f 688//222 482//222 486//222
f 688//222 708//222 482//222
f 690//41 418//41 419//41
f 690//41 666//41 418//41
f 353//90 391//90 393//90
f 353//90 393//90 395//90
f 351//90 389//90 391//90
f 351//90 391//90 353//90
f 355//90 395//90 397//90
f 355//90 353//90 395//90
f 349//90 387//90 389//90
f 349//90 389//90 351//90
f 357//90 397//90 399//90
f 357//90 355//90 397//90
f 347//90 385//90 387//90
f 347//90 387//90 349//90
f 359//90 399//90 401//90
f 359//90 357//90 399//90
f 345//90 385//90 347//90
f 345//90 381//90 383//90
f 345//90 383//90 385//90
f 362//90 401//90 403//90
f 362//90 359//90 401//90
f 362//90 403//90 405//90
f 343//90 379//90 381//90
f 343//90 381//90 345//90
f 364//90 405//90 407//90
f 364//90 362//90 405//90
f 341//90 379//90 343//90
f 341//90 377//90 379//90
f 365//90 364//90 407//90
f 365//90 407//90 411//90
f 338//90 377//90 341//90
f 338//90 373//90 377//90
f 367//90 365//90 411//90
f 367//90 411//90 412//90
f 337//90 373//90 338//90
f 337//90 374//90 373//90
f 369//90 367//90 412//90
f 369//90 412//90 414//90
f 415//90 369//90 414//90
f 371//90 415//90 647//90
f 371//90 369//90 415//90
f 616//90 374//90 337//90
f 616//90 687//90 667//90
f 616//90 667//90 374//90
f 615//90 686//90 687//90
f 615//90 687//90 616//90
f 617//90 371//90 647//90
f 617//90 647//90 648//90
f 614//90 685//90 686//90
f 614//90 686//90 615//90
f 618//90 617//90 648//90
f 618//90 648//90 649//90
f 613//90 684//90 685//90
f 613//90 685//90 614//90
f 619//90 618//90 649//90
f 619//90 649//90 650//90
f 612//90 682//90 683//90
f 612//90 683//90 684//90
f 612//90 684//90 613//90
f 620//90 650//90 651//90
f 620//90 651//90 652//90
f 620//90 619//90 650//90
f 611//90 681//90 682//90
f 611//90 682//90 612//90
f 621//90 652//90 653//90
f 621//90 620//90 652//90
f 610//90 680//90 681//90
f 610//90 681//90 611//90
f 622//90 653//90 654//90
f 622//90 621//90 653//90
f 609//90 679//90 680//90
f 609//90 680//90 610//90
f 623//90 654//90 655//90
f 623//90 622//90 654//90
f 608//90 679//90 609//90
f 678//90 679//90 608//90
f 624//90 623//90 655//90
f 624//90 655//90 656//90
f 657//90 625//90 624//90
f 657//90 624//90 656//90
f 677//90 678//90 608//90
f 677//90 608//90 607//90
f 658//90 626//90 625//90
f 658//90 625//90 657//90
f 676//90 677//90 607//90
f 676//90 607//90 606//90
f 659//90 627//90 626//90
f 659//90 626//90 658//90
f 675//90 676//90 606//90
f 675//90 606//90 605//90
f 660//90 628//90 627//90
f 660//90 627//90 659//90
f 674//90 675//90 605//90
f 674//90 605//90 604//90
f 661//90 628//90 660//90
f 673//90 674//90 604//90
f 662//90 629//90 628//90
f 662//90 628//90 661//90
f 672//90 604//90 603//90
f 672//90 673//90 604//90
f 663//90 630//90 629//90
f 663//90 629//90 662//90
f 671//90 672//90 603//90
f 671//90 603//90 602//90
f 664//90 631//90 630//90
f 664//90 630//90 663//90
f 670//90 602//90 601//90
f 670//90 671//90 602//90
f 665//90 428//90 631//90
f 665//90 631//90 664//90
f 668//90 601//90 600//90
f 668//90 670//90 601//90
f 669//90 668//90 600//90
f 666//90 428//90 665//90
f 599//90 669//90 600//90
f 690//90 429//90 428//90
f 690//90 428//90 666//90
f 688//90 669//90 599//90
f 708//90 599//90 646//90
f 708//90 688//90 599//90
f 689//90 429//90 690//90
f 689//90 632//90 429//90
f 691//90 632//90 689//90
f 691//90 633//90 632//90
f 707//90 646//90 645//90
f 707//90 708//90 646//90
f 706//90 707//90 645//90
f 706//90 645//90 644//90
f 692//90 633//90 691//90
f 692//90 634//90 633//90
f 705//90 706//90 644//90
f 705//90 644//90 643//90
f 693//90 634//90 692//90
f 693//90 635//90 634//90
f 704//90 705//90 643//90
f 694//90 635//90 693//90
f 695//90 635//90 694//90
f 695//90 636//90 635//90
f 703//90 704//90 643//90
f 703//90 643//90 642//90
f 696//90 636//90 695//90
f 696//90 637//90 636//90
f 702//90 703//90 642//90
f 702//90 642//90 641//90
f 697//90 637//90 696//90
f 697//90 638//90 637//90
f 701//90 702//90 641//90
f 701//90 641//90 640//90
f 698//90 638//90 697//90
f 698//90 639//90 638//90
f 700//90 701//90 640//90
f 700//90 640//90 639//90
f 699//90 639//90 698//90
f 699//90 700//90 639//90
