# Blender v3.0.1 OBJ File: ''
# www.blender.org
mtllib Medium_Short_3Prong_JeansRed.mtl
o obj1.014_obj1.005
v -5.119720 -25.336143 -10.000005
v -25.240021 -5.215850 -10.000000
v -25.240021 -5.215848 -50.000000
v -5.119720 -25.336142 -50.000004
v -4.299591 -25.965462 -10.000005
v -6.858795 -17.255997 -10.000005
v -3.959869 -20.154922 -10.000005
v -6.858795 -17.255999 50.000000
v -7.919861 -13.296005 -10.000001
v -3.959869 -20.154932 50.000000
v -7.919861 -13.296007 50.000000
v -6.858795 -9.336000 50.000000
v 0.000122 -21.216005 50.000000
v 3.960114 -20.154932 50.000000
v 0.000122 -5.375994 50.000000
v -6.858795 -9.335999 -10.000000
v -3.959869 -6.437072 -10.000000
v -3.959869 -6.437075 50.000000
v 0.000122 -5.375991 -10.000000
v 6.341217 5.607071 -10.000000
v 3.960114 -6.437072 -10.000000
v -6.340942 5.607071 -10.000000
v 3.960114 -6.437075 50.000000
v -9.239868 2.708143 50.000000
v -9.239868 2.708146 -10.000000
v 5.280121 9.567078 -10.000000
v -5.279877 9.567078 -10.000000
v -5.279877 9.567076 50.000000
v -6.340942 5.607069 50.000000
v -6.340942 13.527067 50.000000
v -6.340942 13.527069 -9.999999
v -13.199860 17.487074 50.000000
v -9.239868 16.425993 50.000000
v -9.239868 16.425995 -9.999999
v -20.058807 13.527067 50.000000
v -17.159882 16.425993 50.000000
v -13.199860 17.487076 -9.999999
v -20.058807 5.607069 50.000000
v -21.119873 9.567076 50.000000
v -20.058807 13.527069 -9.999999
v -17.159882 16.425995 -9.999999
v -22.439880 22.767075 -9.999999
v -26.399872 18.807068 -9.999999
v -25.869324 20.787079 -9.999999
v -26.399872 18.807070 -50.000000
v -26.399872 -2.415710 -10.000000
v -21.119873 9.567078 -10.000000
v -17.159882 2.708146 -10.000000
v -25.869324 -4.395706 -10.000000
v -26.399872 -2.415708 -50.000000
v -26.264954 -3.440626 -50.000000
v -26.264954 -3.440628 -10.000000
v -20.058807 5.607071 -10.000000
v -13.199860 1.647080 -10.000000
v -13.199860 1.647077 50.000000
v -17.159882 2.708143 50.000000
v -25.869324 -4.395704 -50.000000
v -22.439880 22.767076 -50.000000
v 25.240265 -5.215848 -50.000000
v -25.869324 20.787081 -50.000000
v -24.419861 22.236526 -9.999999
v -24.419861 22.236528 -50.000000
v 22.440125 22.767076 -50.000000
v 5.119995 -25.336142 -50.000004
v 26.400116 -2.415708 -50.000000
v 25.869598 -4.395704 -50.000000
v 25.240265 -5.215850 -10.000000
v 5.119995 -25.336143 -10.000005
v 2.319855 -26.495993 -50.000004
v 4.299835 -25.965462 -10.000005
v 4.299835 -25.965460 -50.000004
v 3.344757 -26.361061 -10.000005
v 3.960114 -20.154922 -10.000005
v 0.000122 -21.215996 -10.000005
v 2.319855 -26.495995 -10.000005
v 3.344757 -26.361059 -50.000004
v -2.319580 -26.495993 -50.000004
v -2.319580 -26.495995 -10.000005
v -3.344513 -26.361059 -50.000004
v -3.344513 -26.361061 -10.000005
v -4.299591 -25.965460 -50.000004
v 6.859039 -17.255997 -10.000005
v 7.920135 -13.296007 50.000000
v 7.920135 -13.296005 -10.000001
v 6.859039 -17.255999 50.000000
v 6.859039 -9.336000 50.000000
v 6.859039 -9.335999 -10.000000
v 9.240112 2.708146 -10.000000
v 13.200134 1.647080 -10.000000
v 17.160126 2.708143 50.000000
v 17.160126 2.708146 -10.000000
v 13.200134 1.647077 50.000000
v 6.341217 13.527067 50.000000
v 6.341217 5.607069 50.000000
v 13.200134 17.487074 50.000000
v 20.059052 5.607069 50.000000
v 20.059052 5.607071 -10.000000
v 21.120117 9.567078 -10.000000
v 26.400116 -2.415710 -10.000000
v 21.120117 9.567076 50.000000
v 20.059052 13.527067 50.000000
v 20.059052 13.527069 -9.999999
v 17.160126 16.425995 -9.999999
v 17.160126 16.425993 50.000000
v 13.200134 17.487076 -9.999999
v 22.440125 22.767075 -9.999999
v 9.240112 16.425995 -9.999999
v 9.240112 16.425993 50.000000
v 6.341217 13.527069 -9.999999
v 5.280121 9.567076 50.000000
v 24.420135 22.236528 -50.000000
v 24.420135 22.236526 -9.999999
v 26.400116 18.807068 -9.999999
v 25.869598 20.787081 -50.000000
v 26.400116 18.807070 -50.000000
v 25.869598 20.787079 -9.999999
v 26.265198 -3.440626 -50.000000
v 26.265198 -3.440628 -10.000000
v 25.869598 -4.395706 -10.000000
v 9.240112 2.708143 50.000000
vn -0.7071 -0.7071 -0.0000
vn -0.6088 -0.7933 -0.0000
vn 0.0000 -0.0000 1.0000
vn -0.9659 -0.2588 -0.0000
vn -0.9659 0.2588 0.0000
vn -0.7071 0.7071 0.0000
vn -0.2588 0.9659 0.0000
vn 0.2588 0.9659 0.0000
vn 0.7071 -0.7071 -0.0000
vn 0.9659 -0.2588 -0.0000
vn 0.9659 0.2588 0.0000
vn 0.7071 0.7071 0.0000
vn -1.0000 0.0000 0.0000
vn -0.9914 -0.1305 -0.0000
vn -0.2588 -0.9659 -0.0000
vn 0.2588 -0.9659 -0.0000
vn -0.7934 -0.6088 -0.0000
vn -0.9239 -0.3827 -0.0000
vn 0.0000 0.0000 -1.0000
vn 0.0000 1.0000 0.0000
vn 0.7933 -0.6088 -0.0000
vn 0.6088 -0.7934 0.0000
vn 0.3827 -0.9239 0.0000
vn 0.1305 -0.9914 0.0000
vn 0.0000 -1.0000 -0.0000
vn -0.1305 -0.9914 -0.0000
vn -0.3827 -0.9239 -0.0000
vn 1.0000 0.0000 0.0000
vn 0.9914 -0.1305 -0.0000
vn 0.9239 -0.3827 -0.0000
usemtl Default_OBJ.323
s 1
f 1//1 2//1 3//1
f 1//1 3//1 4//1
f 5//2 1//2 4//2
f 6//3 2//3 1//3
f 7//3 1//3 5//3
f 6//3 1//3 7//3
f 8//1 6//1 7//1
f 8//4 9//4 6//4
f 9//3 2//3 6//3
f 10//1 8//1 7//1
f 8//4 11//4 9//4
f 12//3 11//3 8//3
f 13//3 8//3 10//3
f 14//3 8//3 13//3
f 14//3 12//3 8//3
f 15//3 12//3 14//3
f 11//5 12//5 16//5
f 12//6 17//6 16//6
f 15//3 18//3 12//3
f 12//6 18//6 17//6
f 18//7 15//7 19//7
f 18//7 19//7 17//7
f 20//3 19//3 21//3
f 20//3 22//3 19//3
f 23//8 21//8 19//8
f 15//8 23//8 19//8
f 22//3 17//3 19//3
f 24//9 25//9 22//9
f 22//3 25//3 17//3
f 26//3 22//3 20//3
f 26//3 27//3 22//3
f 28//10 22//10 27//10
f 29//9 24//9 22//9
f 28//10 29//10 22//10
f 30//11 28//11 27//11
f 30//3 29//3 28//3
f 30//11 27//11 31//11
f 30//3 32//3 29//3
f 33//12 30//12 34//12
f 30//12 31//12 34//12
f 30//3 33//3 32//3
f 32//3 35//3 24//3
f 32//3 24//3 29//3
f 36//7 32//7 37//7
f 32//8 33//8 37//8
f 32//3 36//3 35//3
f 24//3 35//3 38//3
f 39//5 35//5 40//5
f 35//6 41//6 40//6
f 35//3 39//3 38//3
f 35//6 36//6 41//6
f 37//3 42//3 41//3
f 42//3 43//3 41//3
f 41//3 43//3 40//3
f 36//7 37//7 41//7
f 43//5 44//5 45//5
f 46//13 43//13 45//13
f 42//3 44//3 43//3
f 40//3 43//3 47//3
f 43//3 46//3 47//3
f 48//3 46//3 2//3
f 46//3 49//3 2//3
f 46//13 45//13 50//13
f 46//14 50//14 51//14
f 52//14 46//14 51//14
f 46//3 52//3 49//3
f 53//3 46//3 48//3
f 47//3 46//3 53//3
f 38//1 53//1 48//1
f 38//4 47//4 53//4
f 54//3 48//3 2//3
f 55//15 48//15 54//15
f 56//1 38//1 48//1
f 55//15 56//15 48//15
f 24//16 55//16 54//16
f 24//3 38//3 55//3
f 55//3 38//3 56//3
f 24//16 54//16 25//16
f 25//3 54//3 16//3
f 54//3 2//3 16//3
f 2//17 49//17 57//17
f 49//18 52//18 57//18
f 57//19 50//19 3//19
f 2//17 57//17 3//17
f 51//19 50//19 57//19
f 52//18 51//18 57//18
f 50//19 58//19 3//19
f 45//19 58//19 50//19
f 58//19 59//19 3//19
f 60//19 58//19 45//19
f 61//7 42//7 58//7
f 61//7 58//7 62//7
f 62//19 58//19 60//19
f 42//20 63//20 58//20
f 58//19 63//19 59//19
f 3//19 59//19 64//19
f 59//19 63//19 65//19
f 59//19 65//19 66//19
f 67//9 68//9 59//9
f 67//21 59//21 66//21
f 68//9 64//9 59//9
f 3//19 64//19 4//19
f 4//19 64//19 69//19
f 68//22 70//22 64//22
f 69//19 64//19 71//19
f 70//22 71//22 64//22
f 70//23 72//23 71//23
f 73//3 74//3 70//3
f 74//3 72//3 70//3
f 73//3 70//3 68//3
f 74//3 75//3 72//3
f 72//24 75//24 76//24
f 72//23 76//23 71//23
f 75//24 69//24 76//24
f 69//19 71//19 76//19
f 75//25 77//25 69//25
f 75//25 78//25 77//25
f 74//3 78//3 75//3
f 78//26 79//26 77//26
f 74//3 80//3 78//3
f 78//26 80//26 79//26
f 4//19 77//19 79//19
f 4//19 79//19 81//19
f 80//27 81//27 79//27
f 5//2 4//2 81//2
f 80//27 5//27 81//27
f 74//3 5//3 80//3
f 4//19 69//19 77//19
f 82//3 73//3 68//3
f 14//16 74//16 73//16
f 14//9 73//9 82//9
f 67//3 82//3 68//3
f 83//10 82//10 84//10
f 67//3 84//3 82//3
f 85//9 14//9 82//9
f 83//10 85//10 82//10
f 86//3 85//3 83//3
f 86//11 83//11 84//11
f 86//3 15//3 85//3
f 86//3 23//3 15//3
f 23//12 86//12 21//12
f 86//12 87//12 21//12
f 86//11 84//11 87//11
f 88//3 21//3 87//3
f 67//3 89//3 87//3
f 67//3 87//3 84//3
f 89//3 88//3 87//3
f 90//16 89//16 91//16
f 67//3 91//3 89//3
f 90//16 92//16 89//16
f 92//15 88//15 89//15
f 90//3 93//3 94//3
f 90//3 94//3 92//3
f 95//3 90//3 96//3
f 96//9 90//9 97//9
f 95//3 93//3 90//3
f 90//9 91//9 97//9
f 98//3 97//3 99//3
f 97//3 91//3 99//3
f 100//10 97//10 98//10
f 100//10 96//10 97//10
f 101//11 100//11 98//11
f 101//3 96//3 100//3
f 101//11 98//11 102//11
f 101//12 102//12 103//12
f 104//12 101//12 103//12
f 101//3 95//3 96//3
f 101//3 104//3 95//3
f 95//8 104//8 105//8
f 104//8 103//8 105//8
f 106//3 105//3 103//3
f 106//3 107//3 105//3
f 108//7 95//7 105//7
f 108//7 105//7 107//7
f 106//3 34//3 107//3
f 107//3 34//3 31//3
f 93//6 107//6 109//6
f 107//3 31//3 109//3
f 93//6 108//6 107//6
f 109//3 31//3 27//3
f 109//3 27//3 26//3
f 110//5 93//5 109//5
f 110//5 109//5 26//5
f 93//3 110//3 94//3
f 94//4 110//4 26//4
f 95//3 108//3 93//3
f 106//3 42//3 34//3
f 42//20 106//20 63//20
f 106//8 111//8 63//8
f 112//3 106//3 113//3
f 106//3 102//3 113//3
f 106//8 112//8 111//8
f 106//3 103//3 102//3
f 112//12 114//12 111//12
f 63//19 111//19 115//19
f 115//19 111//19 114//19
f 112//12 116//12 114//12
f 116//11 115//11 114//11
f 116//11 113//11 115//11
f 112//3 113//3 116//3
f 65//19 63//19 115//19
f 113//28 65//28 115//28
f 113//28 99//28 65//28
f 113//3 98//3 99//3
f 113//3 102//3 98//3
f 99//29 117//29 65//29
f 99//3 67//3 118//3
f 99//3 91//3 67//3
f 99//29 118//29 117//29
f 118//30 66//30 117//30
f 66//19 65//19 117//19
f 118//3 67//3 119//3
f 118//30 119//30 66//30
f 119//21 67//21 66//21
f 92//3 94//3 120//3
f 120//1 94//1 88//1
f 94//1 20//1 88//1
f 94//4 26//4 20//4
f 92//15 120//15 88//15
f 88//3 20//3 21//3
f 15//3 14//3 85//3
f 13//15 7//15 74//15
f 74//3 7//3 5//3
f 14//16 13//16 74//16
f 44//5 60//5 45//5
f 44//6 61//6 60//6
f 61//6 62//6 60//6
f 42//3 61//3 44//3
f 39//5 40//5 47//5
f 38//4 39//4 47//4
f 34//3 42//3 37//3
f 33//8 34//8 37//8
f 25//3 16//3 17//3
f 16//3 2//3 9//3
f 11//5 16//5 9//5
f 13//15 10//15 7//15
