# Blender v3.0.1 OBJ File: ''
# www.blender.org
mtllib Medium_Short_Circle_Brown.mtl
o obj1.011_obj1.005
v -20.159912 -0.000033 50.000000
v -19.719391 -4.191531 50.000000
v -18.416992 -8.199846 50.000000
v -20.159912 -0.000028 -50.000000
v -19.719391 -4.191526 -50.000000
v -18.416992 -8.199842 -50.000000
v -16.309692 -11.849779 50.000000
v -13.489594 -14.981829 50.000000
v 13.489746 -14.981829 50.000000
v -10.079926 17.459044 50.000000
v 16.309875 11.849714 50.000000
v 2.107361 20.049528 50.000000
v -6.229706 19.173277 50.000000
v -6.229706 19.173281 -50.000000
v -10.079926 17.459047 -50.000000
v -18.416992 8.199781 50.000000
v -13.489594 14.981764 50.000000
v -16.309692 11.849714 50.000000
v -16.309692 11.849718 -50.000000
v -18.416992 8.199785 -50.000000
v -19.719391 4.191465 50.000000
v -19.719391 4.191470 -50.000000
v -13.489594 14.981768 -50.000000
v 13.489746 -14.981825 -50.000000
v 2.107361 20.049532 -50.000000
v 16.309875 11.849718 -50.000000
v 6.229858 -19.173323 -50.000000
v 10.080078 -17.459105 -50.000000
v -13.489594 -14.981825 -50.000000
v -6.229706 -19.173323 -50.000000
v 2.107361 -20.049589 -50.000000
v 16.309875 -11.849775 -50.000000
v 18.417145 -8.199842 -50.000000
v 19.719543 4.191470 -50.000000
v 6.229858 -19.173326 50.000000
v 2.107361 -20.049593 50.000000
v 10.080078 -17.459108 50.000000
v -6.229706 -19.173326 50.000000
v -2.107208 -20.049593 50.000000
v -2.107208 -20.049589 -50.000000
v -10.079926 -17.459105 -50.000000
v -10.079926 -17.459108 50.000000
v -16.309692 -11.849775 -50.000000
v 20.160065 -0.000028 -50.000000
v 19.719543 4.191465 50.000000
v 18.417145 8.199781 50.000000
v 18.417145 8.199785 -50.000000
v 18.417145 -8.199846 50.000000
v 20.160065 -0.000033 50.000000
v 16.309875 -11.849779 50.000000
v 19.719543 -4.191531 50.000000
v 19.719543 -4.191526 -50.000000
v 13.489746 14.981768 -50.000000
v 10.080078 17.459047 -50.000000
v 10.080078 17.459044 50.000000
v 6.229858 19.173281 -50.000000
v 6.229858 19.173277 50.000000
v 13.489746 14.981764 50.000000
v -2.107208 20.049532 -50.000000
v -2.107208 20.049528 50.000000
vn 0.0000 0.0000 1.0000
vn -0.9945 -0.1045 -0.0000
vn -0.9511 -0.3090 -0.0000
vn -0.8660 -0.5000 -0.0000
vn -0.4067 0.9135 0.0000
vn -0.5878 0.8090 0.0000
vn -0.8660 0.5000 0.0000
vn -0.9511 0.3090 0.0000
vn -0.9945 0.1045 0.0000
vn -0.0000 0.0000 -1.0000
vn -0.7431 0.6691 0.0000
vn 0.5878 -0.8090 -0.0000
vn 0.7431 -0.6691 -0.0000
vn 0.2079 -0.9781 -0.0000
vn 0.4067 -0.9135 -0.0000
vn 0.0000 -1.0000 -0.0000
vn -0.2079 -0.9781 -0.0000
vn -0.4067 -0.9135 -0.0000
vn -0.5878 -0.8090 -0.0000
vn -0.7431 -0.6691 -0.0000
vn 0.9945 0.1045 0.0000
vn 0.9511 0.3090 0.0000
vn 0.8660 0.5000 0.0000
vn 0.8660 -0.5000 -0.0000
vn 0.9511 -0.3090 -0.0000
vn 0.9945 -0.1045 -0.0000
vn 0.7431 0.6691 0.0000
vn 0.5878 0.8090 0.0000
vn 0.4067 0.9135 0.0000
vn 0.2079 0.9781 0.0000
vn 0.0000 1.0000 0.0000
vn -0.2079 0.9781 0.0000
usemtl Default_OBJ.325
s 1
f 1//1 2//1 3//1
f 2//2 1//2 4//2
f 2//2 4//2 5//2
f 2//3 5//3 6//3
f 3//3 2//3 6//3
f 7//4 3//4 6//4
f 3//1 7//1 8//1
f 9//1 3//1 8//1
f 10//1 3//1 9//1
f 10//1 1//1 3//1
f 11//1 12//1 10//1
f 12//1 13//1 10//1
f 11//1 10//1 9//1
f 10//5 13//5 14//5
f 10//5 14//5 15//5
f 10//1 16//1 1//1
f 17//6 10//6 15//6
f 10//1 17//1 16//1
f 17//1 18//1 16//1
f 16//7 18//7 19//7
f 16//7 19//7 20//7
f 21//8 16//8 20//8
f 16//1 21//1 1//1
f 21//8 20//8 22//8
f 1//9 21//9 22//9
f 22//10 20//10 4//10
f 1//9 22//9 4//9
f 23//10 15//10 20//10
f 19//10 23//10 20//10
f 20//10 15//10 4//10
f 18//11 17//11 23//11
f 17//6 15//6 23//6
f 18//11 23//11 19//11
f 6//10 15//10 24//10
f 4//10 15//10 6//10
f 25//10 26//10 15//10
f 14//10 25//10 15//10
f 15//10 26//10 24//10
f 27//10 24//10 28//10
f 9//12 28//12 24//12
f 6//10 24//10 29//10
f 30//10 24//10 31//10
f 29//10 24//10 30//10
f 9//13 24//13 32//13
f 24//10 33//10 32//10
f 24//10 34//10 33//10
f 24//10 26//10 34//10
f 31//10 24//10 27//10
f 35//14 36//14 27//14
f 36//14 31//14 27//14
f 35//15 27//15 28//15
f 9//1 36//1 35//1
f 37//15 35//15 28//15
f 9//1 35//1 37//1
f 9//12 37//12 28//12
f 9//1 38//1 36//1
f 36//1 38//1 39//1
f 36//16 39//16 40//16
f 36//16 40//16 31//16
f 30//10 31//10 40//10
f 39//17 30//17 40//17
f 39//17 38//17 30//17
f 38//18 41//18 30//18
f 9//1 8//1 38//1
f 38//1 8//1 42//1
f 38//18 42//18 41//18
f 42//19 8//19 41//19
f 8//19 29//19 41//19
f 29//10 30//10 41//10
f 43//10 6//10 29//10
f 8//20 43//20 29//20
f 7//4 6//4 43//4
f 8//20 7//20 43//20
f 33//10 34//10 44//10
f 45//21 44//21 34//21
f 46//22 45//22 34//22
f 46//22 34//22 47//22
f 34//10 26//10 47//10
f 11//23 46//23 47//23
f 11//23 47//23 26//23
f 11//1 45//1 46//1
f 11//1 9//1 45//1
f 45//1 9//1 48//1
f 45//1 48//1 49//1
f 45//21 49//21 44//21
f 48//1 9//1 50//1
f 48//24 32//24 33//24
f 48//24 50//24 32//24
f 51//25 48//25 33//25
f 49//1 48//1 51//1
f 49//26 51//26 52//26
f 51//25 33//25 52//25
f 49//26 52//26 44//26
f 33//10 44//10 52//10
f 50//13 9//13 32//13
f 11//27 26//27 53//27
f 54//10 53//10 26//10
f 54//10 26//10 25//10
f 55//28 53//28 54//28
f 55//29 54//29 56//29
f 56//10 54//10 25//10
f 57//29 55//29 56//29
f 12//30 57//30 56//30
f 12//30 56//30 25//30
f 55//1 57//1 12//1
f 58//1 55//1 11//1
f 11//1 55//1 12//1
f 55//28 58//28 53//28
f 58//27 11//27 53//27
f 12//31 25//31 59//31
f 59//10 25//10 14//10
f 60//31 12//31 59//31
f 13//32 60//32 59//32
f 13//32 59//32 14//32
f 12//1 60//1 13//1
f 5//10 4//10 6//10
