# Blender v3.0.1 OBJ File: ''
# www.blender.org
mtllib Large_Long_Arch_Purple.mtl
o obj1.039_obj1.007
v 29.646006 -9.305934 75.000000
v 18.735437 -9.867640 75.000000
v 22.248331 -12.863444 74.999985
v 17.649179 -5.899425 75.000000
v 20.634806 -12.476497 74.999985
v 18.735437 -9.867629 -75.000008
v 19.372293 -11.399821 75.000000
v 20.634806 -12.476485 -75.000008
v 19.372293 -11.399810 -75.000008
v 22.248331 -12.863433 -75.000008
v 26.088480 -12.863444 74.999985
v 26.088480 -12.863433 -75.000008
v 29.646006 -9.305923 -75.000008
v 29.169382 -11.084670 -75.000008
v 27.867243 -12.386836 74.999985
v 27.867243 -12.386825 -75.000008
v 29.169382 -11.084682 75.000000
v 17.649179 -5.899413 -75.000008
v 29.646006 19.154224 75.000000
v 15.733073 -2.258634 -75.000008
v 29.646006 19.154240 -75.000008
v 9.806438 3.379260 -75.000008
v 13.077205 0.883501 -75.000008
v 26.088480 22.711765 -75.000008
v 29.169382 20.933002 -75.000008
v 27.867243 22.235157 -75.000008
v 29.169382 20.932987 75.000000
v 27.867243 22.235142 75.000000
v 26.088480 22.711750 75.000000
v 9.806438 3.379246 75.000000
v 6.074580 5.111286 75.000000
v -26.088476 22.711750 75.000000
v -2.057103 5.998142 75.000000
v -26.088476 22.711765 -75.000008
v 2.057109 5.998142 75.000000
v 2.057109 5.998156 -75.000008
v -2.057103 5.998156 -75.000008
v -6.074591 5.111286 75.000000
v -6.074591 5.111300 -75.000008
v -9.806447 3.379260 -75.000008
v -9.806447 3.379246 75.000000
v -13.077199 0.883488 75.000000
v -29.646002 19.154224 75.000000
v -29.646002 -9.305934 75.000000
v -15.733083 -2.258648 75.000000
v -29.646002 19.154240 -75.000008
v -29.169378 20.932987 75.000000
v -27.867239 22.235142 75.000000
v -29.169378 20.933002 -75.000008
v -27.867239 22.235157 -75.000008
v -29.646002 -9.305923 -75.000008
v -13.077199 0.883501 -75.000008
v -15.733083 -2.258634 -75.000008
v -17.649191 -5.899425 75.000000
v -17.649191 -5.899413 -75.000008
v -18.735434 -9.867629 -75.000008
v -18.735434 -9.867640 75.000000
v -19.372305 -11.399810 -75.000008
v -22.248327 -12.863433 -75.000008
v -20.634817 -12.476485 -75.000008
v -19.372305 -11.399821 75.000000
v -20.634817 -12.476497 74.999985
v -22.248327 -12.863444 74.999985
v -26.088476 -12.863444 74.999985
v -26.088476 -12.863433 -75.000008
v -27.867239 -12.386836 74.999985
v -29.169378 -11.084682 75.000000
v -29.169378 -11.084670 -75.000008
v -27.867239 -12.386825 -75.000008
v 6.074580 5.111300 -75.000008
v 13.077205 0.883488 75.000000
v 15.733073 -2.258648 75.000000
vn -0.0000 -0.0000 1.0000
vn -0.9645 -0.2640 -0.0000
vn -0.9234 -0.3838 -0.0000
vn -0.2332 -0.9724 -0.0000
vn -0.6489 -0.7609 -0.0000
vn 0.0000 0.0000 -1.0000
vn 0.0000 -1.0000 -0.0000
vn 0.2588 -0.9659 -0.0000
vn 0.9659 -0.2588 -0.0000
vn 0.7071 -0.7071 -0.0000
vn 1.0000 0.0000 0.0000
vn 0.9659 0.2588 0.0000
vn 0.7071 0.7071 0.0000
vn 0.0000 1.0000 0.0000
vn 0.2588 0.9659 0.0000
vn 0.2156 -0.9765 -0.0000
vn 0.4210 -0.9071 -0.0000
vn 0.6066 -0.7950 -0.0000
vn -1.0000 0.0000 0.0000
vn -0.9659 0.2588 0.0000
vn -0.7071 0.7071 0.0000
vn -0.2588 0.9659 0.0000
vn 0.7637 -0.6455 -0.0000
vn 0.8849 -0.4657 -0.0000
vn 0.9645 -0.2640 -0.0000
vn 0.9234 -0.3838 -0.0000
vn 0.6489 -0.7609 -0.0000
vn 0.2332 -0.9724 -0.0000
vn -0.2588 -0.9659 -0.0000
vn -0.9659 -0.2588 -0.0000
vn -0.7071 -0.7071 -0.0000
vn -0.2156 -0.9765 -0.0000
vn -0.4210 -0.9071 -0.0000
vn -0.6066 -0.7950 -0.0000
vn -0.7637 -0.6455 -0.0000
vn -0.8849 -0.4657 -0.0000
usemtl Default_OBJ.296
s 1
f 1//1 2//1 3//1
f 1//1 4//1 2//1
f 3//1 2//1 5//1
f 2//2 4//2 6//2
f 7//3 2//3 6//3
f 2//1 7//1 5//1
f 3//4 5//4 8//4
f 5//5 7//5 9//5
f 5//5 9//5 8//5
f 6//6 10//6 8//6
f 3//4 8//4 10//4
f 9//6 6//6 8//6
f 11//7 3//7 10//7
f 11//7 10//7 12//7
f 6//6 13//6 10//6
f 10//6 13//6 12//6
f 12//6 13//6 14//6
f 15//8 11//8 12//8
f 15//8 12//8 16//8
f 12//6 14//6 16//6
f 1//9 17//9 14//9
f 17//10 15//10 14//10
f 1//9 14//9 13//9
f 15//10 16//10 14//10
f 1//1 11//1 17//1
f 17//1 11//1 15//1
f 18//6 13//6 6//6
f 19//11 1//11 13//11
f 20//6 13//6 18//6
f 19//11 13//11 21//11
f 20//6 21//6 13//6
f 22//6 21//6 23//6
f 23//6 21//6 20//6
f 24//6 21//6 22//6
f 24//6 25//6 21//6
f 19//12 21//12 25//12
f 26//6 25//6 24//6
f 27//12 19//12 25//12
f 27//13 25//13 26//13
f 28//13 27//13 26//13
f 27//1 28//1 29//1
f 27//1 29//1 19//1
f 19//1 29//1 30//1
f 29//1 31//1 30//1
f 29//1 32//1 33//1
f 32//14 29//14 34//14
f 29//1 35//1 31//1
f 29//15 28//15 24//15
f 29//14 24//14 34//14
f 29//1 33//1 35//1
f 35//7 33//7 36//7
f 36//7 33//7 37//7
f 33//1 32//1 38//1
f 33//16 38//16 37//16
f 37//16 38//16 39//16
f 39//17 38//17 40//17
f 38//17 41//17 40//17
f 38//1 32//1 41//1
f 41//18 42//18 40//18
f 41//1 43//1 42//1
f 32//1 43//1 41//1
f 43//1 44//1 45//1
f 44//19 43//19 46//19
f 43//1 45//1 42//1
f 43//20 47//20 46//20
f 32//1 48//1 43//1
f 48//1 47//1 43//1
f 47//21 48//21 49//21
f 47//20 49//20 46//20
f 49//6 50//6 46//6
f 48//21 50//21 49//21
f 50//6 34//6 46//6
f 48//22 34//22 50//22
f 48//22 32//22 34//22
f 44//19 46//19 51//19
f 46//6 34//6 40//6
f 46//6 40//6 52//6
f 51//6 46//6 53//6
f 53//6 46//6 52//6
f 42//23 45//23 53//23
f 52//23 42//23 53//23
f 45//24 54//24 53//24
f 53//24 54//24 55//24
f 51//6 53//6 55//6
f 55//25 54//25 56//25
f 51//6 55//6 56//6
f 54//25 57//25 56//25
f 57//26 58//26 56//26
f 51//6 56//6 59//6
f 59//6 56//6 60//6
f 60//6 56//6 58//6
f 57//26 61//26 58//26
f 61//27 62//27 58//27
f 62//27 60//27 58//27
f 57//1 62//1 61//1
f 57//1 63//1 62//1
f 62//28 63//28 59//28
f 62//28 59//28 60//28
f 63//7 64//7 65//7
f 63//7 65//7 59//7
f 63//1 44//1 64//1
f 57//1 44//1 63//1
f 64//29 66//29 65//29
f 64//1 44//1 67//1
f 64//1 67//1 66//1
f 67//30 44//30 51//30
f 67//30 51//30 68//30
f 66//31 67//31 68//31
f 68//6 51//6 69//6
f 66//31 68//31 69//31
f 66//29 69//29 65//29
f 69//6 51//6 65//6
f 51//6 59//6 65//6
f 54//1 44//1 57//1
f 45//1 44//1 54//1
f 40//18 42//18 52//18
f 34//6 39//6 40//6
f 34//6 37//6 39//6
f 34//6 24//6 37//6
f 37//6 24//6 36//6
f 36//6 24//6 70//6
f 70//32 35//32 36//32
f 70//6 24//6 22//6
f 22//33 31//33 70//33
f 31//32 35//32 70//32
f 30//33 31//33 22//33
f 71//34 30//34 23//34
f 23//34 30//34 22//34
f 19//1 30//1 71//1
f 19//1 71//1 72//1
f 72//35 71//35 20//35
f 20//35 71//35 23//35
f 1//1 72//1 4//1
f 4//36 72//36 18//36
f 18//36 72//36 20//36
f 19//1 72//1 1//1
f 28//15 26//15 24//15
f 6//2 4//2 18//2
f 1//1 3//1 11//1
f 7//3 6//3 9//3
