# Blender v3.0.1 OBJ File: ''
# www.blender.org
mtllib Large_Short_Star_Brown.mtl
o obj1.009_obj1.005
v -23.588196 11.221783 50.000000
v -8.153107 11.221783 50.000000
v -8.153107 11.221790 -49.999996
v -23.588196 11.221790 -49.999996
v -26.231949 10.044708 50.000000
v -13.192001 -4.286356 50.000000
v -25.679260 4.786167 50.000000
v -27.126236 7.292400 50.000000
v -27.126236 7.292408 -49.999996
v -26.231949 10.044716 -49.999996
v -25.679260 4.786175 -49.999996
v -13.192001 -4.286348 -50.000000
v 8.153122 11.221790 -49.999996
v 13.192017 -4.286348 -50.000000
v 0.000000 -13.870905 -50.000000
v -17.961716 -18.966009 50.000000
v -17.961716 -18.966000 -50.000000
v -12.487259 -22.943428 -50.000000
v -17.659210 -21.844095 -50.000000
v -17.659210 -21.844103 50.000000
v -15.317963 -23.545122 50.000000
v -15.317963 -23.545115 -50.000000
v -12.487259 -22.943436 50.000000
v 0.000000 -13.870913 50.000000
v 13.192017 -4.286356 50.000000
v 12.487259 -22.943436 50.000000
v 17.961716 -18.966009 50.000000
v 17.659225 -21.844103 50.000000
v 15.317978 -23.545122 50.000000
v 12.487259 -22.943428 -50.000000
v 17.659225 -21.844095 -50.000000
v 15.317978 -23.545115 -50.000000
v 17.961716 -18.966000 -50.000000
v 25.679276 4.786167 50.000000
v 8.153122 11.221783 50.000000
v 3.383408 25.901432 50.000000
v -3.383392 25.901432 50.000000
v 23.588211 11.221790 -49.999996
v 23.588211 11.221783 50.000000
v 26.231964 10.044708 50.000000
v 27.126251 7.292400 50.000000
v 26.231964 10.044716 -49.999996
v 27.126251 7.292408 -49.999996
v 25.679276 4.786175 -49.999996
v -3.383392 25.901440 -49.999996
v -1.446976 28.052063 -49.999996
v 1.446976 28.052055 50.000000
v -1.446976 28.052055 50.000000
v 1.446976 28.052063 -49.999996
v 3.383408 25.901440 -49.999996
vn 0.0000 1.0000 0.0000
vn -0.4067 0.9135 0.0000
vn 0.0000 0.0000 1.0000
vn -0.9511 0.3090 0.0000
vn -0.8660 -0.5000 -0.0000
vn 0.0000 0.0000 -1.0000
vn -0.5878 -0.8090 -0.0000
vn -0.9945 -0.1045 -0.0000
vn 0.2079 -0.9781 -0.0000
vn 0.5878 -0.8090 -0.0000
vn -0.2079 -0.9781 -0.0000
vn 0.9945 -0.1045 -0.0000
vn 0.9511 0.3090 0.0000
vn 0.4067 0.9135 0.0000
vn 0.8660 -0.5000 -0.0000
vn -0.7431 0.6691 0.0000
vn 0.7431 0.6691 0.0000
usemtl Default_OBJ.312
s 1
f 1//1 2//1 3//1
f 1//1 3//1 4//1
f 5//2 1//2 4//2
f 2//3 1//3 6//3
f 1//3 7//3 6//3
f 1//3 8//3 7//3
f 1//3 5//3 8//3
f 8//4 5//4 9//4
f 7//5 8//5 9//5
f 5//4 10//4 9//4
f 10//6 4//6 9//6
f 9//6 4//6 11//6
f 7//5 9//5 11//5
f 11//6 4//6 12//6
f 6//7 11//7 12//7
f 6//7 7//7 11//7
f 12//6 13//6 14//6
f 12//6 14//6 15//6
f 16//4 6//4 12//4
f 16//4 12//4 17//4
f 12//6 15//6 17//6
f 3//6 13//6 12//6
f 4//6 3//6 12//6
f 17//6 15//6 18//6
f 17//6 18//6 19//6
f 20//8 16//8 17//8
f 20//8 17//8 19//8
f 21//7 20//7 19//7
f 21//7 19//7 22//7
f 19//6 18//6 22//6
f 21//9 22//9 18//9
f 23//9 21//9 18//9
f 23//3 20//3 21//3
f 24//3 16//3 23//3
f 24//10 23//10 18//10
f 23//3 16//3 20//3
f 25//3 6//3 24//3
f 25//3 24//3 26//3
f 24//10 18//10 15//10
f 26//7 24//7 15//7
f 24//3 6//3 16//3
f 25//3 26//3 27//3
f 27//3 26//3 28//3
f 28//3 26//3 29//3
f 29//11 26//11 30//11
f 26//7 15//7 30//7
f 27//12 28//12 31//12
f 28//10 32//10 31//10
f 28//10 29//10 32//10
f 29//11 30//11 32//11
f 30//6 31//6 32//6
f 30//6 33//6 31//6
f 27//12 31//12 33//12
f 30//6 14//6 33//6
f 25//13 33//13 14//13
f 25//13 27//13 33//13
f 15//6 14//6 30//6
f 34//10 25//10 14//10
f 35//3 6//3 25//3
f 34//3 35//3 25//3
f 36//3 37//3 35//3
f 36//13 35//13 13//13
f 37//3 2//3 35//3
f 35//3 2//3 6//3
f 35//1 38//1 13//1
f 35//1 39//1 38//1
f 39//3 35//3 34//3
f 39//14 40//14 38//14
f 40//3 39//3 41//3
f 39//3 34//3 41//3
f 40//14 42//14 38//14
f 40//13 41//13 43//13
f 40//13 43//13 42//13
f 38//6 42//6 43//6
f 44//6 38//6 43//6
f 41//15 44//15 43//15
f 13//6 38//6 44//6
f 41//15 34//15 44//15
f 34//10 14//10 44//10
f 13//6 44//6 14//6
f 2//4 37//4 45//4
f 37//16 46//16 45//16
f 47//3 37//3 36//3
f 47//3 48//3 37//3
f 37//16 48//16 46//16
f 46//6 49//6 45//6
f 48//1 49//1 46//1
f 48//1 47//1 49//1
f 47//17 50//17 49//17
f 45//6 49//6 50//6
f 47//17 36//17 50//17
f 36//13 13//13 50//13
f 45//6 50//6 13//6
f 3//6 45//6 13//6
f 2//4 45//4 3//4
f 5//2 4//2 10//2
