# Blender v3.0.1 OBJ File: ''
# www.blender.org
mtllib Large_Long_SquareCircle_Brown.mtl
o obj1.044_obj1.005
v 8.344257 -6.982894 -16.901413
v -10.401268 -9.503997 -16.901413
v 10.972488 -9.611129 -16.901413
v -12.140621 -11.243361 -16.901413
v 14.284256 -11.298553 -16.901413
v 8.854771 -7.636324 58.098595
v 12.015377 -10.288394 58.098595
v 15.892437 -11.699527 58.098595
v 8.854771 7.636304 58.098595
v 20.018318 11.699506 58.098595
v 27.055988 7.636304 58.098595
v 20.018318 -11.699527 58.098595
v 23.895378 10.288373 58.098595
v 22.018578 11.163548 -91.901413
v 15.892437 11.699506 58.098595
v 17.955379 11.879991 -16.901413
v 12.015377 10.288373 58.098595
v 14.284256 11.298554 -16.901413
v 10.972488 9.611115 -16.901413
v -12.140621 11.243348 -16.901413
v -14.516621 11.879991 -16.901413
v -12.140621 11.243344 58.098595
v 17.955379 11.879993 -91.901413
v -28.772621 11.879993 -91.901413
v -28.772621 11.879987 58.098595
v -14.516621 11.879987 58.098595
v -10.401268 9.503995 58.098595
v -10.401268 9.503999 -16.901413
v -9.764622 7.127992 -16.901413
v -9.764622 7.127988 58.098595
v -9.764622 -7.128005 -16.901413
v 6.075378 0.000001 -16.901413
v 6.656826 3.671113 -16.901413
v 8.344257 6.982881 -16.901413
v 6.791832 4.063200 58.098595
v 6.075378 -0.000003 58.098595
v 6.791832 -4.063204 58.098595
v 6.656826 -3.671127 -16.901413
v -9.764622 -7.128008 58.098595
v -14.516621 -11.880008 58.098595
v -12.140621 -11.243365 58.098595
v -10.401268 -9.504001 58.098595
v -28.772621 -11.880008 58.098595
v -14.516621 -11.880004 -16.901413
v -33.524620 -7.128008 58.098595
v -31.148621 -11.243365 58.098595
v -28.772621 -11.880001 -91.901413
v -31.148621 -11.243359 -91.901413
v -32.887974 -9.503994 -91.901413
v -33.524620 -7.128002 -91.901413
v -32.887974 -9.504001 58.098595
v -33.524620 7.127995 -91.901413
v -33.524620 7.127988 58.098595
v -32.887974 9.503995 58.098595
v -32.887974 9.504002 -91.901413
v -31.148621 11.243344 58.098595
v -31.148621 11.243351 -91.901413
v 17.955379 -11.880001 -91.901413
v 17.955379 -11.880004 -16.901413
v 22.018578 -11.163555 -91.901413
v 23.895378 -10.288394 58.098595
v 25.591698 -9.100613 -91.901413
v 27.055988 -7.636324 58.098595
v 28.243759 -5.939999 -91.901413
v 29.118927 -4.063204 58.098595
v 29.654892 -2.062938 -91.901413
v 29.654892 2.062947 -91.901413
v 29.835381 -0.000003 58.098595
v 29.118927 4.063200 58.098595
v 28.243759 5.940006 -91.901413
v 25.591694 9.100605 -91.901413
vn 0.0000 0.0000 1.0000
vn -0.7071 -0.7071 -0.0013
vn -0.4540 -0.8910 -0.0017
vn -0.6428 -0.7660 0.0020
vn -0.3420 -0.9397 0.0023
vn 0.3420 0.9397 0.0012
vn 0.0000 1.0000 0.0024
vn 0.1449 0.9895 -0.0016
vn -0.3420 0.9397 0.0023
vn -0.1564 0.9877 -0.0019
vn -0.4540 0.8910 -0.0017
vn 0.2588 0.9659 0.0000
vn -0.0000 1.0000 0.0000
vn 0.7071 0.7071 0.0000
vn 0.9659 0.2588 0.0000
vn 1.0000 0.0000 0.0000
vn -0.8910 0.4540 -0.0008
vn -0.7071 0.7071 -0.0013
vn -0.8660 0.5000 0.0015
vn -0.9848 0.1736 0.0009
vn -0.9848 -0.1736 0.0009
vn -0.8660 -0.5000 0.0015
vn -0.8910 -0.4540 -0.0008
vn -0.9877 -0.1564 -0.0000
vn -0.9877 0.1564 0.0000
vn 0.9659 -0.2588 -0.0000
vn 0.7071 -0.7071 -0.0000
vn 0.2588 -0.9659 -0.0000
vn 0.0000 -1.0000 -0.0000
vn -0.2588 -0.9659 -0.0000
vn 0.0000 0.0000 -1.0000
vn -0.7071 -0.7071 -0.0000
vn -0.9659 -0.2588 -0.0000
vn -1.0000 0.0000 0.0000
vn -0.9659 0.2588 0.0000
vn -0.7071 0.7071 0.0000
vn -0.2588 0.9659 0.0000
vn 0.1736 -0.9848 -0.0000
vn -0.1564 -0.9877 -0.0019
vn 0.0000 -1.0000 0.0024
vn 0.1449 -0.9895 -0.0016
vn 0.3420 -0.9397 0.0012
vn 0.5000 -0.8660 -0.0012
vn 0.6428 -0.7660 0.0012
vn 0.7660 -0.6428 -0.0012
vn 0.8660 -0.5000 0.0012
vn 0.9397 -0.3420 -0.0012
vn 1.0000 0.0000 -0.0012
vn 0.9848 0.1736 0.0012
vn 0.9397 0.3420 -0.0012
vn 0.8660 0.5000 0.0012
vn 0.7660 0.6428 -0.0012
vn 0.6428 0.7660 0.0012
vn 0.5000 0.8660 -0.0012
vn 0.9848 -0.1736 0.0012
vn 0.1736 0.9848 0.0000
vn -0.6428 0.7660 0.0020
usemtl Default_OBJ.302
s 1
f 1//1 2//1 3//1
f 3//1 2//1 4//1
f 5//1 3//1 4//1
f 3//2 6//2 1//2
f 5//3 7//3 3//3
f 7//4 6//4 3//4
f 8//5 7//5 5//5
f 9//1 6//1 7//1
f 10//1 7//1 8//1
f 10//1 9//1 7//1
f 11//1 10//1 12//1
f 11//1 13//1 10//1
f 10//1 8//1 12//1
f 10//6 13//6 14//6
f 15//7 10//7 16//7
f 10//8 14//8 16//8
f 10//1 15//1 9//1
f 15//1 17//1 9//1
f 17//9 15//9 18//9
f 15//10 16//10 18//10
f 17//11 18//11 19//11
f 18//1 20//1 19//1
f 18//1 21//1 20//1
f 16//1 21//1 18//1
f 22//12 20//12 21//12
f 21//13 16//13 23//13
f 21//13 23//13 24//13
f 24//13 25//13 21//13
f 25//13 26//13 21//13
f 26//12 22//12 21//12
f 22//14 27//14 28//14
f 22//14 28//14 20//14
f 27//1 22//1 26//1
f 27//15 29//15 28//15
f 27//1 26//1 30//1
f 27//15 30//15 29//15
f 30//16 31//16 29//16
f 32//1 29//1 31//1
f 33//1 29//1 32//1
f 34//1 29//1 33//1
f 34//1 28//1 29//1
f 35//17 34//17 33//17
f 19//1 28//1 34//1
f 9//18 19//18 34//18
f 35//19 9//19 34//19
f 36//20 35//20 33//20
f 35//1 36//1 37//1
f 9//1 35//1 37//1
f 37//21 36//21 38//21
f 6//22 37//22 1//22
f 1//23 37//23 38//23
f 9//1 37//1 6//1
f 38//1 31//1 1//1
f 32//1 31//1 38//1
f 38//24 36//24 32//24
f 36//25 33//25 32//25
f 1//1 31//1 2//1
f 30//16 39//16 31//16
f 39//26 2//26 31//26
f 26//1 40//1 39//1
f 39//1 40//1 41//1
f 39//1 41//1 42//1
f 39//26 42//26 2//26
f 30//1 26//1 39//1
f 42//27 41//27 4//27
f 42//27 4//27 2//27
f 41//28 40//28 4//28
f 40//29 43//29 44//29
f 40//28 44//28 4//28
f 26//1 43//1 40//1
f 25//1 45//1 43//1
f 43//1 45//1 46//1
f 26//1 25//1 43//1
f 43//29 47//29 44//29
f 43//30 48//30 47//30
f 43//30 46//30 48//30
f 49//31 50//31 48//31
f 46//32 49//32 48//32
f 50//31 47//31 48//31
f 51//33 45//33 50//33
f 45//34 52//34 50//34
f 52//31 24//31 50//31
f 50//31 24//31 47//31
f 51//33 50//33 49//33
f 45//1 51//1 46//1
f 46//32 51//32 49//32
f 45//34 53//34 52//34
f 53//35 54//35 52//35
f 55//31 24//31 52//31
f 54//35 55//35 52//35
f 25//1 54//1 53//1
f 25//1 56//1 54//1
f 54//36 56//36 55//36
f 56//37 25//37 24//37
f 56//37 24//37 57//37
f 56//36 57//36 55//36
f 57//31 24//31 55//31
f 25//1 53//1 45//1
f 44//29 47//29 58//29
f 24//31 23//31 47//31
f 47//31 23//31 58//31
f 59//29 44//29 58//29
f 58//31 23//31 60//31
f 60//38 59//38 58//38
f 8//39 5//39 59//39
f 59//1 5//1 44//1
f 12//40 8//40 59//40
f 12//41 59//41 60//41
f 61//42 12//42 60//42
f 61//43 60//43 62//43
f 60//31 23//31 62//31
f 63//44 61//44 62//44
f 63//45 62//45 64//45
f 62//31 23//31 64//31
f 65//46 63//46 64//46
f 65//47 64//47 66//47
f 64//31 67//31 66//31
f 23//31 67//31 64//31
f 68//48 66//48 67//48
f 69//49 68//49 67//49
f 69//50 67//50 70//50
f 23//31 70//31 67//31
f 11//51 69//51 70//51
f 11//52 70//52 71//52
f 23//31 71//31 70//31
f 13//53 11//53 71//53
f 13//54 71//54 14//54
f 14//31 71//31 23//31
f 11//1 61//1 69//1
f 69//1 61//1 63//1
f 69//1 63//1 65//1
f 69//1 65//1 68//1
f 68//55 65//55 66//55
f 11//1 12//1 61//1
f 5//1 4//1 44//1
f 19//1 20//1 28//1
f 16//56 14//56 23//56
f 9//57 17//57 19//57
