# Blender v3.0.1 OBJ File: ''
# www.blender.org
mtllib Large_Long_Circle_Red.mtl
o obj1.038_obj1.006
v -23.480137 8.296054 75.000000
v -24.902637 -0.000013 75.000000
v -24.544437 -4.208578 75.000000
v -24.902637 0.000007 -75.000000
v -24.544437 -4.208557 -75.000000
v -23.480137 -8.296072 75.000000
v -24.544437 4.208559 75.000000
v 24.099102 6.274912 75.000000
v -16.452549 -18.693733 75.000000
v -21.740360 -12.144902 75.000000
v 7.292064 23.811062 75.000000
v -21.740360 12.144881 75.000000
v -23.480137 8.296073 -75.000000
v -9.285115 -23.106895 75.000000
v 24.812923 -2.111898 75.000000
v 24.812923 2.111879 75.000000
v 24.812923 2.111900 -75.000000
v 24.099102 6.274933 -75.000000
v 22.691998 10.257439 -75.000000
v 20.632076 13.944842 75.000000
v 22.691998 10.257419 75.000000
v 17.978619 17.231091 75.000000
v 11.211268 22.236198 75.000000
v 17.978619 17.231113 -75.000000
v 14.807933 20.021637 75.000000
v 14.807933 20.021660 -75.000000
v 11.211268 22.236221 -75.000000
v 7.292064 23.811085 -75.000000
v 3.163081 24.700951 -75.000000
v -21.740360 12.144900 -75.000000
v -1.056905 24.880211 -75.000000
v -5.246465 24.343716 -75.000000
v -13.056630 21.205334 -75.000000
v -16.452549 18.693733 -75.000000
v -19.375141 15.644347 -75.000000
v -16.452549 18.693710 75.000000
v -19.375141 15.644328 75.000000
v -13.056630 21.205311 75.000000
v -5.246465 24.343693 75.000000
v -9.285115 23.106873 75.000000
v -9.285115 23.106895 -75.000000
v -1.056905 24.880188 75.000000
v 3.163081 24.700928 75.000000
v 20.632076 13.944861 -75.000000
v -16.452549 -18.693710 -75.000008
v -9.285115 -23.106873 -75.000008
v 24.812923 -2.111878 -75.000000
v -13.056630 -21.205315 -75.000008
v -5.246465 -24.343719 75.000000
v -5.246465 -24.343697 -75.000008
v -1.056905 -24.880211 75.000000
v 3.163081 -24.700951 75.000000
v 3.163081 -24.700928 -75.000008
v 7.292064 -23.811089 75.000000
v 22.691998 -10.257436 75.000000
v 14.807933 -20.021660 75.000000
v 20.632076 -13.944860 75.000000
v 20.632076 -13.944840 -75.000008
v 22.691998 -10.257417 -75.000008
v 24.099102 -6.274931 75.000000
v 24.099102 -6.274910 -75.000008
v 14.807933 -20.021637 -75.000008
v 7.292064 -23.811066 -75.000008
v 11.211268 -22.236221 75.000000
v 11.211268 -22.236198 -75.000008
v 17.978619 -17.231117 75.000000
v 17.978619 -17.231094 -75.000008
v -1.056905 -24.880188 -75.000008
v -13.056630 -21.205338 75.000000
v -19.375141 -15.644326 -75.000008
v -21.740360 -12.144883 -75.000008
v -19.375141 -15.644345 75.000000
v -23.480137 -8.296052 -75.000008
v -24.544437 4.208580 -75.000000
vn 0.0000 0.0000 1.0000
vn -0.9964 -0.0848 -0.0000
vn -0.9677 -0.2520 -0.0000
vn -0.9112 0.4119 0.0000
vn -0.9677 0.2520 0.0000
vn 0.9856 0.1690 0.0000
vn 0.9429 0.3331 0.0000
vn 0.7780 0.6282 0.0000
vn 0.6607 0.7507 0.0000
vn 0.5243 0.8515 0.0000
vn 0.0000 0.0000 -1.0000
vn 0.3729 0.9279 0.0000
vn 0.2107 0.9776 0.0000
vn -0.8285 0.5600 0.0000
vn -0.7220 0.6919 0.0000
vn -0.5946 0.8040 0.0000
vn -0.4502 0.8929 0.0000
vn -0.2928 0.9562 0.0000
vn -0.1270 0.9919 0.0000
vn 0.0424 0.9991 0.0000
vn 0.8730 0.4877 0.0000
vn -0.4502 -0.8929 -0.0000
vn -0.2928 -0.9562 -0.0000
vn -0.1270 -0.9919 -0.0000
vn 0.0424 -0.9991 -0.0000
vn 0.2107 -0.9776 -0.0000
vn 0.8730 -0.4877 -0.0000
vn 0.9429 -0.3331 -0.0000
vn 0.9856 -0.1690 -0.0000
vn 0.3729 -0.9279 -0.0000
vn 0.5243 -0.8515 -0.0000
vn 0.6607 -0.7507 -0.0000
vn 0.7780 -0.6282 -0.0000
vn -0.5946 -0.8040 -0.0000
vn 1.0000 0.0000 0.0000
vn -0.7220 -0.6919 -0.0000
vn -0.8285 -0.5600 -0.0000
vn -0.9112 -0.4119 -0.0000
vn -0.9964 0.0848 0.0000
usemtl Default_OBJ.297
s 1
f 1//1 2//1 3//1
f 3//2 2//2 4//2
f 3//2 4//2 5//2
f 6//3 3//3 5//3
f 1//1 3//1 6//1
f 1//1 7//1 2//1
f 8//1 1//1 9//1
f 1//1 10//1 9//1
f 11//1 1//1 8//1
f 11//1 12//1 1//1
f 1//1 6//1 10//1
f 1//4 12//4 13//4
f 7//5 1//5 13//5
f 8//1 9//1 14//1
f 8//1 14//1 15//1
f 8//1 15//1 16//1
f 8//6 16//6 17//6
f 8//6 17//6 18//6
f 8//7 18//7 19//7
f 20//1 8//1 21//1
f 21//7 8//7 19//7
f 22//1 8//1 20//1
f 22//1 23//1 8//1
f 23//1 11//1 8//1
f 22//8 20//8 24//8
f 25//9 22//9 24//9
f 22//1 25//1 23//1
f 25//9 24//9 26//9
f 23//10 25//10 26//10
f 23//10 26//10 27//10
f 26//11 24//11 27//11
f 27//11 24//11 18//11
f 28//11 27//11 18//11
f 11//12 23//12 27//12
f 11//12 27//12 28//12
f 13//11 28//11 18//11
f 11//13 28//13 29//13
f 30//11 28//11 13//11
f 29//11 28//11 31//11
f 31//11 28//11 32//11
f 32//11 28//11 33//11
f 33//11 28//11 30//11
f 34//11 33//11 30//11
f 35//11 34//11 30//11
f 12//14 35//14 30//14
f 12//4 30//4 13//4
f 36//15 34//15 35//15
f 12//14 37//14 35//14
f 37//15 36//15 35//15
f 36//16 33//16 34//16
f 36//16 38//16 33//16
f 38//1 36//1 12//1
f 36//1 37//1 12//1
f 11//1 39//1 38//1
f 39//1 40//1 38//1
f 38//17 40//17 33//17
f 11//1 38//1 12//1
f 40//18 39//18 32//18
f 40//18 32//18 41//18
f 40//17 41//17 33//17
f 41//11 32//11 33//11
f 39//19 42//19 31//19
f 39//19 31//19 32//19
f 11//1 42//1 39//1
f 11//1 43//1 42//1
f 42//20 43//20 29//20
f 42//20 29//20 31//20
f 43//13 11//13 29//13
f 18//11 24//11 44//11
f 20//8 44//8 24//8
f 18//11 44//11 19//11
f 20//21 19//21 44//21
f 20//21 21//21 19//21
f 13//11 18//11 45//11
f 45//11 18//11 46//11
f 46//11 18//11 47//11
f 47//11 18//11 17//11
f 45//11 46//11 48//11
f 14//22 48//22 46//22
f 49//23 14//23 46//23
f 46//11 47//11 50//11
f 49//23 46//23 50//23
f 15//1 14//1 49//1
f 51//24 49//24 50//24
f 52//1 49//1 51//1
f 15//1 49//1 52//1
f 52//25 51//25 53//25
f 54//26 52//26 53//26
f 55//1 52//1 54//1
f 15//1 52//1 55//1
f 55//1 56//1 57//1
f 55//1 54//1 56//1
f 55//27 57//27 58//27
f 55//27 58//27 59//27
f 60//28 55//28 59//28
f 15//1 55//1 60//1
f 60//28 59//28 61//28
f 15//29 60//29 61//29
f 59//11 47//11 61//11
f 15//29 61//29 47//29
f 53//11 47//11 59//11
f 62//11 59//11 58//11
f 63//11 59//11 62//11
f 53//11 59//11 63//11
f 54//26 53//26 63//26
f 64//30 54//30 63//30
f 64//30 63//30 65//30
f 63//11 62//11 65//11
f 64//31 65//31 62//31
f 56//1 54//1 64//1
f 56//31 64//31 62//31
f 66//32 56//32 62//32
f 66//32 62//32 67//32
f 62//11 58//11 67//11
f 57//33 66//33 67//33
f 57//33 67//33 58//33
f 57//1 56//1 66//1
f 50//11 47//11 53//11
f 50//11 53//11 68//11
f 51//25 68//25 53//25
f 51//24 50//24 68//24
f 9//34 45//34 48//34
f 69//34 9//34 48//34
f 14//22 69//22 48//22
f 14//1 9//1 69//1
f 16//35 15//35 47//35
f 16//35 47//35 17//35
f 70//11 71//11 45//11
f 72//36 70//36 45//36
f 9//36 72//36 45//36
f 71//11 13//11 45//11
f 72//37 10//37 71//37
f 72//37 71//37 70//37
f 10//1 72//1 9//1
f 10//38 6//38 71//38
f 6//38 73//38 71//38
f 73//11 13//11 71//11
f 5//11 13//11 73//11
f 6//3 5//3 73//3
f 2//39 7//39 74//39
f 7//5 13//5 74//5
f 2//39 74//39 4//39
f 74//11 13//11 4//11
f 4//11 13//11 5//11
