# Blender v3.0.1 OBJ File: ''
# www.blender.org
mtllib Large_Long_Rectangle_Yellow.mtl
o obj1.053_obj1.005
v 24.426018 14.230069 75.000000
v 21.345116 16.008831 75.000000
v 24.902641 12.451322 75.000000
v 24.902641 -12.451327 75.000000
v 24.902641 -12.451322 -75.000008
v 24.902641 12.451327 -75.000008
v 24.426018 14.230075 -75.000008
v 23.123878 15.532224 75.000000
v 23.123878 15.532229 -75.000008
v 21.345116 16.008839 -75.000008
v -21.345116 16.008831 75.000000
v -21.345116 16.008839 -75.000008
v 21.345116 -16.008831 -75.000008
v -21.345116 -16.008831 -75.000008
v 24.426018 -14.230084 -75.000008
v 21.345116 -16.008839 75.000000
v 23.123878 -15.532224 -75.000008
v 23.123878 -15.532229 75.000000
v 24.426018 -14.230090 75.000000
v -21.345116 -16.008839 75.000000
v -23.123878 -15.532224 -75.000008
v -23.123878 -15.532229 75.000000
v -24.902641 12.451322 75.000000
v -24.426018 -14.230090 75.000000
v -24.902641 -12.451327 75.000000
v -24.902641 12.451327 -75.000008
v -24.426018 14.230075 -75.000008
v -24.426018 14.230069 75.000000
v -23.123878 15.532224 75.000000
v -23.123878 15.532229 -75.000008
v -24.902641 -12.451322 -75.000008
v -24.426018 -14.230084 -75.000008
vn -0.0000 0.0000 1.0000
vn 1.0000 0.0000 0.0000
vn 0.9659 0.2588 0.0000
vn 0.7071 0.7071 0.0000
vn 0.2588 0.9659 0.0000
vn 0.0000 0.0000 -1.0000
vn 0.0000 1.0000 0.0000
vn 0.0000 -1.0000 -0.0000
vn 0.2588 -0.9659 -0.0000
vn 0.7071 -0.7071 -0.0000
vn 0.9659 -0.2588 -0.0000
vn -0.2588 -0.9659 -0.0000
vn -1.0000 0.0000 0.0000
vn -0.9659 0.2588 0.0000
vn -0.7071 0.7071 0.0000
vn -0.2588 0.9659 0.0000
vn -0.9659 -0.2588 -0.0000
vn -0.7071 -0.7071 -0.0000
usemtl Default_OBJ.301
s 1
f 1//1 2//1 3//1
f 2//1 4//1 3//1
f 3//2 4//2 5//2
f 3//2 5//2 6//2
f 1//3 3//3 6//3
f 1//3 6//3 7//3
f 1//1 8//1 2//1
f 1//4 7//4 9//4
f 8//4 1//4 9//4
f 2//5 8//5 9//5
f 9//6 7//6 10//6
f 2//5 9//5 10//5
f 11//7 2//7 10//7
f 11//7 10//7 12//7
f 10//6 6//6 5//6
f 13//6 10//6 5//6
f 10//6 7//6 6//6
f 12//6 10//6 14//6
f 14//6 10//6 13//6
f 13//6 5//6 15//6
f 16//8 14//8 13//8
f 16//9 13//9 17//9
f 13//6 15//6 17//6
f 18//9 16//9 17//9
f 18//10 17//10 15//10
f 19//10 18//10 15//10
f 19//1 16//1 18//1
f 19//11 15//11 5//11
f 4//11 19//11 5//11
f 4//1 16//1 19//1
f 2//1 16//1 4//1
f 2//1 20//1 16//1
f 16//8 20//8 14//8
f 20//12 21//12 14//12
f 20//12 22//12 21//12
f 2//1 11//1 20//1
f 11//1 23//1 20//1
f 20//1 24//1 22//1
f 20//1 25//1 24//1
f 23//1 25//1 20//1
f 25//13 23//13 26//13
f 23//14 27//14 26//14
f 11//1 28//1 23//1
f 23//14 28//14 27//14
f 28//15 29//15 27//15
f 11//1 29//1 28//1
f 29//15 30//15 27//15
f 29//16 11//16 12//16
f 29//16 12//16 30//16
f 30//6 12//6 27//6
f 27//6 12//6 26//6
f 25//13 26//13 31//13
f 26//6 12//6 14//6
f 31//6 26//6 14//6
f 31//6 14//6 32//6
f 24//17 25//17 31//17
f 24//17 31//17 32//17
f 32//6 14//6 21//6
f 22//18 32//18 21//18
f 22//18 24//18 32//18
