# Blender v3.0.1 OBJ File: ''
# www.blender.org
mtllib Large_Short_Arch_Green.mtl
o obj1.023_obj1.005
v -18.735443 -9.867655 50.000004
v -29.646011 -9.305941 50.000004
v -22.248337 -12.863459 50.000004
v -26.088486 -12.863459 50.000004
v -29.169388 -11.084696 50.000004
v -29.646011 -9.305929 -50.000000
v -29.646011 19.154219 50.000004
v -29.646011 19.154230 -49.999996
v -15.733093 -2.258662 50.000004
v -17.649200 -5.899432 50.000004
v -17.649200 -5.899419 -50.000000
v -18.735443 -9.867643 -50.000000
v -19.372314 -11.399824 -50.000000
v -20.634827 -12.476511 50.000004
v -19.372314 -11.399836 50.000004
v -20.634827 -12.476500 -50.000000
v -22.248337 -12.863447 -50.000000
v -26.088486 -12.863447 -50.000000
v -27.867249 -12.386831 -50.000000
v -27.867249 -12.386843 50.000004
v -29.169388 -11.084684 -50.000000
v -15.733093 -2.258650 -50.000000
v -13.077209 0.883486 -50.000000
v -9.806458 3.379232 50.000004
v -13.077209 0.883474 50.000004
v -9.806458 3.379244 -50.000000
v -26.088486 22.711756 -49.999996
v -6.074600 5.111285 -50.000000
v -6.074600 5.111272 50.000004
v -2.057114 5.998148 -50.000000
v 2.057098 5.998148 -50.000000
v -2.057114 5.998136 50.000004
v 2.057098 5.998136 50.000004
v -26.088486 22.711752 50.000004
v -29.169388 20.932989 50.000004
v -27.867249 22.235128 50.000004
v 26.088470 22.711756 -49.999996
v 26.088470 22.711752 50.000004
v 29.645996 19.154219 50.000004
v 9.806427 3.379232 50.000004
v 6.074570 5.111272 50.000004
v 29.169373 20.932989 50.000004
v 27.867233 22.235128 50.000004
v 27.867233 22.235132 -49.999996
v 29.645996 19.154230 -49.999996
v 29.645996 -9.305929 -50.000000
v 29.645996 -9.305941 50.000004
v 15.733063 -2.258662 50.000004
v 13.077194 0.883474 50.000004
v 13.077194 0.883486 -50.000000
v 9.806427 3.379244 -50.000000
v 6.074570 5.111285 -50.000000
v 15.733063 -2.258650 -50.000000
v 17.649170 -5.899432 50.000004
v 17.649170 -5.899419 -50.000000
v 18.735428 -9.867643 -50.000000
v 18.735428 -9.867655 50.000004
v 22.248322 -12.863459 50.000004
v 20.634796 -12.476511 50.000004
v 19.372284 -11.399836 50.000004
v 22.248322 -12.863447 -50.000000
v 19.372284 -11.399824 -50.000000
v 20.634796 -12.476500 -50.000000
v 26.088470 -12.863447 -50.000000
v 26.088470 -12.863459 50.000004
v 29.169373 -11.084696 50.000004
v 27.867233 -12.386843 50.000004
v 29.169373 -11.084684 -50.000000
v 27.867233 -12.386831 -50.000000
v 29.169373 20.932993 -49.999996
v -29.169388 20.932993 -49.999996
v -27.867249 22.235132 -49.999996
vn 0.0000 0.0000 1.0000
vn -0.9659 -0.2588 -0.0000
vn -1.0000 -0.0000 0.0000
vn 0.9645 -0.2640 -0.0000
vn 0.9234 -0.3838 -0.0000
vn 0.0000 0.0000 -1.0000
vn 0.6489 -0.7609 -0.0000
vn 0.2332 -0.9724 -0.0000
vn 0.0000 -1.0000 -0.0000
vn -0.2588 -0.9659 -0.0000
vn -0.7071 -0.7071 -0.0000
vn 0.8849 -0.4657 -0.0000
vn 0.7637 -0.6455 -0.0000
vn 0.6066 -0.7950 -0.0000
vn 0.4210 -0.9071 -0.0000
vn 0.2156 -0.9765 -0.0000
vn -0.2588 0.9659 0.0000
vn 0.0000 1.0000 0.0000
vn 0.2588 0.9659 0.0000
vn 0.7071 0.7071 0.0000
vn 0.9659 0.2588 0.0000
vn 1.0000 -0.0000 0.0000
vn -0.7637 -0.6455 -0.0000
vn -0.6066 -0.7950 -0.0000
vn -0.4210 -0.9071 -0.0000
vn -0.2156 -0.9765 -0.0000
vn -0.8849 -0.4657 -0.0000
vn -0.9645 -0.2640 -0.0000
vn -0.9234 -0.3838 -0.0000
vn -0.2332 -0.9724 -0.0000
vn -0.6489 -0.7609 -0.0000
vn 0.2588 -0.9659 -0.0000
vn 0.9659 -0.2588 -0.0000
vn 0.7071 -0.7071 -0.0000
vn -0.9659 0.2588 0.0000
vn -0.7071 0.7071 0.0000
usemtl Default_OBJ.305
s 1
f 1//1 2//1 3//1
f 3//1 2//1 4//1
f 4//1 2//1 5//1
f 5//2 2//2 6//2
f 2//3 7//3 8//3
f 2//3 8//3 6//3
f 7//1 2//1 9//1
f 9//1 2//1 10//1
f 10//1 2//1 1//1
f 10//4 1//4 11//4
f 11//4 1//4 12//4
f 1//5 13//5 12//5
f 1//1 14//1 15//1
f 1//1 3//1 14//1
f 1//5 15//5 13//5
f 16//6 12//6 13//6
f 15//7 16//7 13//7
f 17//6 12//6 16//6
f 15//7 14//7 16//7
f 14//8 17//8 16//8
f 6//6 12//6 17//6
f 14//8 3//8 17//8
f 3//9 18//9 17//9
f 6//6 17//6 18//6
f 3//9 4//9 18//9
f 6//6 18//6 19//6
f 4//10 19//10 18//10
f 4//10 20//10 19//10
f 21//6 6//6 19//6
f 20//11 21//11 19//11
f 4//1 5//1 20//1
f 20//11 5//11 21//11
f 5//2 6//2 21//2
f 6//6 11//6 12//6
f 6//6 22//6 11//6
f 22//12 10//12 11//12
f 22//6 8//6 23//6
f 23//13 9//13 22//13
f 9//12 10//12 22//12
f 6//6 8//6 22//6
f 24//14 25//14 23//14
f 26//14 24//14 23//14
f 25//13 9//13 23//13
f 8//6 26//6 23//6
f 27//6 28//6 26//6
f 8//6 27//6 26//6
f 29//15 24//15 26//15
f 28//15 29//15 26//15
f 27//6 30//6 28//6
f 30//16 29//16 28//16
f 27//6 31//6 30//6
f 31//9 32//9 30//9
f 32//16 29//16 30//16
f 33//9 32//9 31//9
f 33//1 34//1 32//1
f 32//1 34//1 29//1
f 34//1 7//1 24//1
f 34//1 35//1 7//1
f 34//1 36//1 35//1
f 36//17 34//17 27//17
f 34//18 37//18 27//18
f 34//18 38//18 37//18
f 38//1 34//1 33//1
f 29//1 34//1 24//1
f 39//1 38//1 40//1
f 38//1 41//1 40//1
f 38//1 33//1 41//1
f 42//1 43//1 38//1
f 42//1 38//1 39//1
f 38//19 43//19 44//19
f 38//19 44//19 37//19
f 43//20 42//20 44//20
f 42//21 39//21 45//21
f 39//22 46//22 45//22
f 39//22 47//22 46//22
f 39//1 48//1 47//1
f 39//1 49//1 48//1
f 39//1 40//1 49//1
f 48//23 49//23 50//23
f 50//24 49//24 51//24
f 49//24 40//24 51//24
f 37//6 45//6 51//6
f 51//6 45//6 50//6
f 51//25 40//25 52//25
f 52//6 37//6 51//6
f 40//25 41//25 52//25
f 31//6 37//6 52//6
f 52//26 41//26 31//26
f 50//6 45//6 53//6
f 53//23 48//23 50//23
f 54//27 48//27 53//27
f 55//27 54//27 53//27
f 53//6 45//6 46//6
f 53//6 46//6 55//6
f 55//6 46//6 56//6
f 56//28 57//28 55//28
f 57//28 54//28 55//28
f 47//1 57//1 58//1
f 58//1 57//1 59//1
f 47//1 54//1 57//1
f 57//1 60//1 59//1
f 60//29 57//29 56//29
f 58//30 59//30 61//30
f 59//31 60//31 62//31
f 59//31 62//31 63//31
f 59//30 63//30 61//30
f 61//6 46//6 64//6
f 65//9 61//9 64//9
f 65//9 58//9 61//9
f 56//6 46//6 61//6
f 56//6 61//6 62//6
f 62//6 61//6 63//6
f 47//1 65//1 66//1
f 47//1 58//1 65//1
f 66//1 65//1 67//1
f 67//32 65//32 64//32
f 47//33 66//33 68//33
f 66//34 67//34 69//34
f 66//34 69//34 68//34
f 47//33 68//33 46//33
f 69//6 46//6 68//6
f 67//32 64//32 69//32
f 64//6 46//6 69//6
f 60//29 56//29 62//29
f 47//1 48//1 54//1
f 42//21 45//21 70//21
f 37//6 70//6 45//6
f 42//20 70//20 44//20
f 37//6 44//6 70//6
f 41//26 33//26 31//26
f 27//6 37//6 31//6
f 7//35 35//35 71//35
f 35//36 36//36 72//36
f 35//36 72//36 71//36
f 7//35 71//35 8//35
f 71//6 72//6 8//6
f 36//17 27//17 72//17
f 72//6 27//6 8//6
f 24//1 7//1 25//1
f 7//1 9//1 25//1
