# Blender v3.0.1 OBJ File: ''
# www.blender.org
mtllib Large_Long_DoubleSquare_JeansRed.mtl
o obj1.029_obj1.005
v 7.732025 -10.763484 56.250000
v 7.338737 -9.295733 56.250000
v 7.732025 -10.763473 -18.750000
v 7.338737 -9.295722 -18.750000
v 8.806488 -11.837935 -18.750000
v -7.338707 -9.295722 -18.750000
v -7.731987 -10.763473 -18.750000
v -8.806450 -11.837935 -18.750000
v -7.338707 9.295701 -18.750000
v 7.338737 9.295701 -18.750000
v 7.732025 10.763444 -18.750000
v 7.338737 9.295690 56.250000
v -7.731987 10.763444 -18.750000
v 7.732025 10.763433 56.250000
v 8.806488 11.837907 -18.750000
v -8.806450 11.837907 -18.750000
v 8.806488 11.837899 56.250000
v -10.274193 12.231187 -18.750000
v 10.274231 12.231187 -18.750000
v 10.274231 12.231179 56.250000
v 28.865662 12.231179 56.250000
v 31.801147 9.295690 56.250000
v 31.801147 -9.295733 56.250000
v 31.801147 9.295704 -93.750000
v 31.407867 10.763433 56.250000
v 28.865662 -12.231227 56.250000
v 30.333405 11.837899 56.250000
v 31.407867 10.763447 -93.750000
v 30.333405 11.837914 -93.750000
v 28.865662 12.231194 -93.750000
v -28.865623 12.231194 -93.750000
v -28.865623 -12.231213 -93.750008
v 28.865662 -12.231213 -93.750008
v 31.407867 -10.763470 -93.750008
v 30.333405 -11.837933 -93.750008
v 30.333405 -11.837947 56.250000
v 10.274231 -12.231215 -18.750000
v 31.801147 -9.295719 -93.750008
v -10.274193 -12.231215 -18.750000
v 31.407867 -10.763484 56.250000
v 8.806488 -11.837947 56.250000
v 10.274231 -12.231227 56.250000
v -8.806450 -11.837947 56.250000
v -10.274193 -12.231227 56.250000
v -28.865623 -12.231227 56.250000
v -31.801109 9.295690 56.250000
v -31.801109 -9.295733 56.250000
v -30.333366 -11.837947 56.250000
v -31.801109 -9.295719 -93.750008
v -10.274193 12.231179 56.250000
v -28.865623 12.231179 56.250000
v -31.407829 10.763447 -93.750000
v -31.801109 9.295704 -93.750000
v -31.407829 10.763433 56.250000
v -31.407829 -10.763484 56.250000
v -31.407829 -10.763470 -93.750008
v -30.333366 -11.837933 -93.750008
v -30.333366 11.837914 -93.750000
v -30.333366 11.837899 56.250000
v -7.731987 10.763433 56.250000
v -7.338707 9.295690 56.250000
v -8.806450 11.837899 56.250000
v -7.338707 -9.295733 56.250000
v -7.731987 -10.763484 56.250000
vn -0.9659 -0.2588 -0.0000
vn -0.7071 -0.7071 -0.0000
vn 0.0000 0.0000 1.0000
vn -1.0000 0.0000 0.0000
vn -0.9659 0.2588 0.0000
vn -0.7071 0.7071 0.0000
vn -0.2588 0.9659 0.0000
vn 0.0000 1.0000 0.0000
vn 1.0000 0.0000 0.0000
vn 0.9659 0.2588 0.0000
vn 0.7071 0.7071 0.0000
vn 0.0000 0.0000 -1.0000
vn 0.2588 0.9659 0.0000
vn 0.2588 -0.9659 -0.0000
vn -0.0000 -1.0000 -0.0000
vn 0.7071 -0.7071 -0.0000
vn 0.9659 -0.2588 -0.0000
vn -0.2588 -0.9659 -0.0000
usemtl Default_OBJ.298
s 1
f 1//1 2//1 3//1
f 2//1 4//1 3//1
f 1//2 3//2 5//2
f 3//3 6//3 7//3
f 3//3 7//3 8//3
f 5//3 3//3 8//3
f 4//3 6//3 3//3
f 9//3 6//3 4//3
f 2//4 10//4 4//4
f 10//3 9//3 4//3
f 11//3 9//3 10//3
f 2//4 12//4 10//4
f 12//5 11//5 10//5
f 11//3 13//3 9//3
f 12//5 14//5 11//5
f 14//6 15//6 11//6
f 15//3 13//3 11//3
f 15//3 16//3 13//3
f 14//6 17//6 15//6
f 15//3 18//3 16//3
f 17//7 19//7 15//7
f 19//3 18//3 15//3
f 17//7 20//7 19//7
f 20//3 17//3 12//3
f 17//3 14//3 12//3
f 20//8 21//8 19//8
f 22//3 20//3 12//3
f 21//3 20//3 22//3
f 22//9 23//9 24//9
f 25//10 22//10 24//10
f 22//3 12//3 26//3
f 25//3 27//3 22//3
f 27//3 21//3 22//3
f 22//3 26//3 23//3
f 25//10 24//10 28//10
f 27//11 25//11 28//11
f 24//12 29//12 28//12
f 27//11 28//11 29//11
f 30//12 29//12 24//12
f 21//13 27//13 29//13
f 21//13 29//13 30//13
f 31//12 30//12 32//12
f 18//8 30//8 31//8
f 32//12 30//12 33//12
f 21//8 30//8 19//8
f 18//8 19//8 30//8
f 33//12 30//12 24//12
f 33//12 34//12 35//12
f 36//14 33//14 35//14
f 33//15 26//15 37//15
f 36//14 26//14 33//14
f 33//12 38//12 34//12
f 33//12 24//12 38//12
f 37//15 39//15 33//15
f 39//15 32//15 33//15
f 23//3 36//3 40//3
f 23//3 26//3 36//3
f 40//16 36//16 35//16
f 40//16 35//16 34//16
f 23//17 40//17 34//17
f 23//9 38//9 24//9
f 23//17 34//17 38//17
f 41//18 5//18 37//18
f 37//3 5//3 39//3
f 26//15 42//15 37//15
f 42//18 41//18 37//18
f 2//3 41//3 42//3
f 2//3 1//3 41//3
f 41//2 1//2 5//2
f 26//3 2//3 42//3
f 5//3 8//3 39//3
f 43//14 44//14 39//14
f 43//14 39//14 8//14
f 44//15 45//15 39//15
f 45//15 32//15 39//15
f 46//3 47//3 45//3
f 47//3 48//3 45//3
f 45//18 48//18 32//18
f 44//3 46//3 45//3
f 47//4 46//4 49//4
f 50//3 51//3 46//3
f 50//3 46//3 44//3
f 46//5 52//5 53//5
f 46//4 53//4 49//4
f 51//3 54//3 46//3
f 46//5 54//5 52//5
f 55//1 47//1 49//1
f 55//1 49//1 56//1
f 56//12 49//12 57//12
f 57//12 49//12 32//12
f 49//12 53//12 32//12
f 48//2 55//2 57//2
f 48//18 57//18 32//18
f 55//2 56//2 57//2
f 47//3 55//3 48//3
f 52//12 31//12 53//12
f 58//12 31//12 52//12
f 54//6 58//6 52//6
f 59//7 31//7 58//7
f 54//6 59//6 58//6
f 59//7 51//7 31//7
f 51//3 59//3 54//3
f 31//8 51//8 18//8
f 51//8 50//8 18//8
f 53//12 31//12 32//12
f 60//3 50//3 61//3
f 61//3 50//3 44//3
f 62//3 50//3 60//3
f 50//13 62//13 16//13
f 50//13 16//13 18//13
f 62//11 60//11 13//11
f 62//11 13//11 16//11
f 60//10 9//10 13//10
f 60//10 61//10 9//10
f 61//3 44//3 63//3
f 61//9 63//9 6//9
f 61//9 6//9 9//9
f 63//17 7//17 6//17
f 63//17 64//17 7//17
f 63//3 44//3 64//3
f 64//3 44//3 43//3
f 64//16 43//16 8//16
f 64//16 8//16 7//16
f 12//3 2//3 26//3
