# Blender v3.0.1 OBJ File: ''
# www.blender.org
mtllib Large_Long_Hexagon_DarkBlue.mtl
o obj1.052_obj1.005
v -0.617760 25.484112 74.999985
v 0.617752 25.484112 74.999985
v 0.617752 25.484119 -75.000008
v 1.778755 25.061558 -75.000008
v 1.778755 25.061550 74.999985
v -1.778763 25.061550 74.999985
v -1.778763 25.061558 -75.000008
v -20.814529 14.071246 -75.000008
v 22.593277 10.990338 74.999985
v -20.814529 14.071240 74.999985
v 20.814514 -14.071170 74.999985
v -22.593292 10.990338 74.999985
v -21.760994 13.277066 74.999985
v 22.593277 -10.990268 74.999985
v 21.760986 -13.276996 74.999985
v 20.814514 -14.071164 -75.000008
v 1.778755 -25.061474 -75.000015
v 1.778755 -25.061481 74.999985
v 0.617752 -25.484058 74.999985
v -0.617760 -25.484058 74.999985
v -1.778763 -25.061481 74.999985
v -20.814529 -14.071170 74.999985
v -1.778763 -25.061474 -75.000015
v -21.760994 -13.276990 -75.000008
v -20.814529 -14.071164 -75.000008
v -22.593292 -10.990268 74.999985
v -22.378746 -12.207019 74.999985
v -21.760994 -13.276996 74.999985
v -0.617760 -25.484051 -75.000015
v 0.617752 -25.484051 -75.000015
v -22.378746 -12.207013 -75.000008
v -22.593292 -10.990262 -75.000008
v -22.593292 10.990344 -75.000008
v -22.378746 12.207074 74.999985
v -21.760994 13.277072 -75.000008
v -22.378746 12.207080 -75.000008
v 22.593277 10.990344 -75.000008
v 22.593277 -10.990262 -75.000008
v 21.760986 -13.276990 -75.000008
v 22.378738 -12.207013 -75.000008
v 22.378738 -12.207019 74.999985
v 20.814514 14.071246 -75.000008
v 22.378738 12.207080 -75.000008
v 21.760986 13.277072 -75.000008
v 22.378738 12.207074 74.999985
v 21.760986 13.277066 74.999985
v 20.814514 14.071240 74.999985
v -0.617760 25.484119 -75.000008
vn 0.0000 1.0000 0.0000
vn 0.3420 0.9397 0.0000
vn 0.0000 0.0000 1.0000
vn -0.5000 0.8660 0.0000
vn -0.3420 0.9397 0.0000
vn -0.6428 0.7660 0.0000
vn 0.6428 -0.7660 -0.0000
vn 0.5000 -0.8660 -0.0000
vn 0.3420 -0.9397 -0.0000
vn -0.5000 -0.8660 -0.0000
vn -0.6428 -0.7660 -0.0000
vn 0.0000 0.0000 -1.0000
vn -0.3420 -0.9397 -0.0000
vn 0.0000 -1.0000 -0.0000
vn -0.8660 -0.5000 -0.0000
vn -0.9848 -0.1736 -0.0000
vn -1.0000 0.0000 0.0000
vn -0.9848 0.1737 0.0000
vn -0.9848 0.1736 0.0000
vn -0.8660 0.5000 0.0000
vn 0.8660 -0.5000 -0.0000
vn 0.9848 -0.1736 -0.0000
vn 1.0000 0.0000 0.0000
vn 0.9848 0.1736 0.0000
vn 0.8660 0.5000 0.0000
vn 0.6428 0.7660 0.0000
vn 0.5000 0.8660 0.0000
usemtl Default_OBJ.299
s 1
f 1//1 2//1 3//1
f 2//2 4//2 3//2
f 2//2 5//2 4//2
f 5//3 2//3 6//3
f 2//3 1//3 6//3
f 6//4 7//4 8//4
f 6//5 1//5 7//5
f 9//3 5//3 6//3
f 9//3 6//3 10//3
f 10//4 6//4 8//4
f 11//3 10//3 12//3
f 10//3 13//3 12//3
f 13//6 10//6 8//6
f 9//3 10//3 11//3
f 9//3 11//3 14//3
f 14//3 11//3 15//3
f 15//7 11//7 16//7
f 11//8 17//8 16//8
f 11//8 18//8 17//8
f 11//3 12//3 18//3
f 18//9 19//9 17//9
f 18//3 20//3 19//3
f 18//3 21//3 20//3
f 18//3 22//3 21//3
f 12//3 22//3 18//3
f 21//10 22//10 23//10
f 22//11 24//11 25//11
f 22//10 25//10 23//10
f 12//3 26//3 22//3
f 26//3 27//3 22//3
f 27//3 28//3 22//3
f 22//11 28//11 24//11
f 23//12 17//12 29//12
f 25//12 17//12 23//12
f 20//13 21//13 23//13
f 20//13 23//13 29//13
f 29//12 17//12 30//12
f 20//14 29//14 30//14
f 19//9 30//9 17//9
f 19//14 20//14 30//14
f 28//15 31//15 24//15
f 24//12 31//12 25//12
f 31//12 32//12 25//12
f 27//16 26//16 31//16
f 26//16 32//16 31//16
f 28//15 27//15 31//15
f 32//12 33//12 25//12
f 26//17 33//17 32//17
f 12//18 34//18 33//19
f 26//17 12//17 33//17
f 35//12 8//12 33//12
f 33//12 8//12 25//12
f 36//12 35//12 33//12
f 34//18 36//19 33//19
f 34//20 35//20 36//20
f 13//3 34//3 12//3
f 34//20 13//20 35//20
f 13//6 8//6 35//6
f 25//12 8//12 17//12
f 8//12 16//12 17//12
f 7//12 37//12 16//12
f 8//12 7//12 16//12
f 16//12 37//12 38//12
f 16//12 38//12 39//12
f 15//7 16//7 39//7
f 39//12 38//12 40//12
f 41//21 15//21 39//21
f 41//21 39//21 40//21
f 41//22 40//22 38//22
f 14//22 41//22 38//22
f 14//3 15//3 41//3
f 7//12 42//12 37//12
f 37//12 42//12 43//12
f 9//23 38//23 37//23
f 9//24 37//24 43//24
f 42//12 44//12 43//12
f 45//24 9//24 43//24
f 46//25 45//25 43//25
f 46//25 43//25 44//25
f 47//26 46//26 44//26
f 47//26 44//26 42//26
f 5//27 47//27 42//27
f 47//3 5//3 9//3
f 47//3 9//3 45//3
f 46//3 47//3 45//3
f 4//12 42//12 7//12
f 5//27 42//27 4//27
f 9//23 14//23 38//23
f 3//12 4//12 7//12
f 48//12 3//12 7//12
f 1//5 48//5 7//5
f 1//1 3//1 48//1
