# Blender v3.0.1 OBJ File: ''
# www.blender.org
mtllib Large_Short_DoubleSquare_Red.mtl
o obj1.029
v 7.732033 -10.763488 -12.499996
v -7.731979 -10.763488 -12.499996
v -8.806442 -11.837951 -12.499997
v -7.338699 -9.295745 -12.499996
v 8.806496 -11.837951 -12.499997
v -10.274185 -12.231231 -12.499997
v 10.274239 -12.231231 -12.499997
v 7.338745 -9.295745 -12.499996
v 7.338745 9.295686 -12.499996
v -7.338699 9.295686 -12.499996
v 7.732033 10.763429 -12.499996
v -7.731979 10.763429 -12.499996
v 8.806496 11.837892 -12.499995
v -8.806442 11.837892 -12.499995
v 10.274239 12.231172 -12.499995
v -10.274185 12.231172 -12.499995
v -10.274185 -12.231234 37.500004
v -8.806442 -11.837954 37.500004
v -7.731979 -10.763491 37.500004
v -7.338699 -9.295748 37.500004
v -31.801102 9.295683 37.500004
v -31.801102 9.295688 -62.499996
v -31.801102 -9.295743 -62.499996
v -31.801102 -9.295748 37.500004
v -28.865616 12.231169 37.500004
v -28.865616 12.231174 -62.499996
v -30.333359 11.837893 -62.499996
v -30.333359 11.837889 37.500004
v -31.407822 10.763431 -62.499996
v -31.407822 10.763426 37.500004
v -7.338699 9.295683 37.500004
v -7.731979 10.763426 37.500004
v -8.806442 11.837889 37.500004
v -10.274185 12.231169 37.500004
v -31.407822 -10.763491 37.500004
v -31.407822 -10.763486 -62.499996
v -30.333359 -11.837954 37.500004
v -30.333359 -11.837949 -62.499996
v -28.865616 -12.231234 37.500004
v -28.865616 -12.231229 -62.499996
v 10.274239 12.231169 37.500004
v 8.806496 11.837889 37.500004
v 7.732033 10.763426 37.500004
v 7.338745 9.295683 37.500004
v 7.338745 -9.295748 37.500004
v 7.732033 -10.763491 37.500004
v 8.806496 -11.837954 37.500004
v 10.274239 -12.231234 37.500004
v 28.865669 12.231174 -62.499996
v 28.865669 12.231169 37.500004
v 31.407875 10.763426 37.500004
v 31.801155 9.295688 -62.499996
v 31.407875 10.763431 -62.499996
v 31.801155 9.295683 37.500004
v 30.333412 11.837889 37.500004
v 30.333412 11.837893 -62.499996
v 31.801155 -9.295748 37.500004
v 31.801155 -9.295743 -62.499996
v 28.865669 -12.231234 37.500004
v 28.865669 -12.231229 -62.499996
v 30.333412 -11.837949 -62.499996
v 30.333412 -11.837954 37.500004
v 31.407875 -10.763491 37.500004
v 31.407875 -10.763486 -62.499996
vn 0.0000 -0.0000 1.0000
vn 0.2588 -0.9659 -0.0000
vn 0.7071 -0.7071 -0.0000
vn 0.9659 -0.2588 -0.0000
vn -1.0000 0.0000 0.0000
vn -0.2588 0.9659 0.0000
vn -0.7071 0.7071 0.0000
vn -0.9659 0.2588 0.0000
vn 0.9659 0.2588 0.0000
vn 0.7071 0.7071 0.0000
vn 0.2588 0.9659 0.0000
vn 1.0000 0.0000 0.0000
vn -0.9659 -0.2588 -0.0000
vn -0.7071 -0.7071 -0.0000
vn -0.2588 -0.9659 -0.0000
vn -0.0000 1.0000 0.0000
vn 0.0000 -1.0000 -0.0000
vn 0.0000 0.0000 -1.0000
usemtl Default_OBJ.307
s 1
f 1//1 2//1 3//1
f 1//1 4//1 2//1
f 5//1 3//1 6//1
f 5//1 1//1 3//1
f 7//1 5//1 6//1
f 8//1 4//1 1//1
f 9//1 10//1 4//1
f 9//1 4//1 8//1
f 11//1 12//1 10//1
f 11//1 10//1 9//1
f 13//1 14//1 12//1
f 13//1 12//1 11//1
f 15//1 16//1 13//1
f 13//1 16//1 14//1
f 17//2 6//2 3//2
f 18//2 17//2 3//2
f 19//3 3//3 2//3
f 19//3 18//3 3//3
f 20//4 2//4 4//4
f 20//4 19//4 2//4
f 21//5 22//5 23//5
f 24//5 21//5 23//5
f 25//6 26//6 27//6
f 28//7 27//7 29//7
f 28//6 25//6 27//6
f 30//8 29//8 22//8
f 30//7 28//7 29//7
f 21//8 30//8 22//8
f 31//9 10//9 12//9
f 32//9 31//9 12//9
f 33//10 12//10 14//10
f 33//10 32//10 12//10
f 34//11 14//11 16//11
f 34//11 33//11 14//11
f 31//12 4//12 10//12
f 31//12 20//12 4//12
f 35//13 23//13 36//13
f 35//13 24//13 23//13
f 37//14 36//14 38//14
f 37//14 35//14 36//14
f 39//15 38//15 40//15
f 39//15 37//15 38//15
f 39//1 24//1 35//1
f 39//1 35//1 37//1
f 21//1 24//1 39//1
f 28//1 30//1 21//1
f 19//1 17//1 18//1
f 25//1 21//1 39//1
f 25//1 28//1 21//1
f 20//1 17//1 19//1
f 31//1 17//1 20//1
f 34//1 39//1 17//1
f 34//1 25//1 39//1
f 34//1 17//1 31//1
f 33//1 31//1 32//1
f 33//1 34//1 31//1
f 41//6 15//6 13//6
f 42//7 13//7 11//7
f 42//6 41//6 13//6
f 43//8 11//8 9//8
f 43//7 42//7 11//7
f 44//8 43//8 9//8
f 45//5 9//5 8//5
f 45//5 44//5 9//5
f 46//13 8//13 1//13
f 46//13 45//13 8//13
f 47//14 1//14 5//14
f 47//15 5//15 7//15
f 47//14 46//14 1//14
f 48//15 47//15 7//15
f 16//16 49//16 26//16
f 16//16 15//16 49//16
f 50//16 49//16 15//16
f 41//16 50//16 15//16
f 25//16 34//16 16//16
f 25//16 16//16 26//16
f 51//9 52//9 53//9
f 51//9 54//9 52//9
f 55//10 53//10 56//10
f 55//11 56//11 49//11
f 55//10 51//10 53//10
f 50//11 55//11 49//11
f 57//12 58//12 52//12
f 54//12 57//12 52//12
f 59//2 60//2 61//2
f 62//2 59//2 61//2
f 63//3 61//3 64//3
f 63//3 62//3 61//3
f 57//4 64//4 58//4
f 57//4 63//4 64//4
f 6//17 40//17 60//17
f 7//17 6//17 60//17
f 39//17 40//17 6//17
f 17//17 39//17 6//17
f 59//17 48//17 7//17
f 59//17 7//17 60//17
f 48//1 45//1 46//1
f 48//1 46//1 47//1
f 44//1 45//1 48//1
f 42//1 43//1 44//1
f 41//1 44//1 48//1
f 41//1 42//1 44//1
f 57//1 59//1 62//1
f 57//1 62//1 63//1
f 54//1 48//1 59//1
f 54//1 59//1 57//1
f 54//1 41//1 48//1
f 50//1 41//1 54//1
f 55//1 54//1 51//1
f 55//1 50//1 54//1
f 23//18 40//18 36//18
f 36//18 40//18 38//18
f 23//18 22//18 40//18
f 29//18 27//18 22//18
f 22//18 26//18 40//18
f 27//18 26//18 22//18
f 60//18 58//18 61//18
f 61//18 58//18 64//18
f 60//18 52//18 58//18
f 40//18 49//18 60//18
f 26//18 49//18 40//18
f 60//18 49//18 52//18
f 52//18 56//18 53//18
f 49//18 56//18 52//18
