# Blender v3.0.1 OBJ File: ''
# www.blender.org
mtllib Large_Short_Hexagon_Red.mtl
o obj1.007_obj1.005
v 1.778770 25.061508 50.000000
v 20.814529 14.071201 50.000000
v 20.814529 14.071209 -49.999996
v 1.778770 25.061516 -49.999996
v 0.617767 25.484085 -49.999996
v 22.593292 10.990299 50.000000
v -22.593277 10.990299 50.000000
v -20.814514 14.071201 50.000000
v -1.778748 25.061508 50.000000
v -0.617744 25.484077 50.000000
v 0.617767 25.484077 50.000000
v -0.617744 25.484085 -49.999996
v -1.778748 25.061516 -49.999996
v 22.593292 10.990307 -49.999996
v -22.593277 10.990307 -49.999996
v -20.814514 14.071209 -49.999996
v 21.761002 13.277039 -49.999996
v 22.378754 12.207043 50.000000
v 22.378754 12.207050 -49.999996
v 22.593292 -10.990303 -50.000000
v -20.814514 -14.071205 -50.000000
v -20.814514 -14.071213 50.000000
v -21.760979 -13.277031 -50.000000
v -1.778748 -25.061510 -50.000000
v 1.778770 -25.061510 -50.000000
v -22.593277 -10.990303 -50.000000
v 0.617767 -25.484079 -50.000000
v -0.617744 -25.484087 50.000000
v -1.778748 -25.061518 50.000000
v -0.617744 -25.484079 -50.000000
v 0.617767 -25.484087 50.000000
v 1.778770 -25.061518 50.000000
v 22.593292 -10.990311 50.000000
v 20.814529 -14.071213 50.000000
v 20.814529 -14.071205 -50.000000
v 21.761002 -13.277031 -50.000000
v 21.761002 -13.277039 50.000000
v 22.378754 -12.207054 50.000000
v 22.378754 -12.207047 -50.000000
v -22.378731 -12.207047 -50.000000
v -21.760979 -13.277039 50.000000
v -22.378731 -12.207054 50.000000
v -22.593277 -10.990311 50.000000
v 21.761002 13.277031 50.000000
v -21.760979 13.277039 -49.999996
v -21.760979 13.277031 50.000000
v -22.378731 12.207050 -49.999996
v -22.378731 12.207043 50.000000
vn 0.5000 0.8660 0.0000
vn 0.3420 0.9397 0.0000
vn 0.0000 0.0000 1.0000
vn 0.0000 1.0000 0.0000
vn -0.3420 0.9397 0.0000
vn -0.0000 0.0000 -1.0000
vn -0.5000 0.8660 0.0000
vn 0.9848 0.1736 0.0000
vn 1.0000 -0.0000 0.0000
vn -0.6428 -0.7660 -0.0000
vn -0.5000 -0.8660 -0.0000
vn -0.3420 -0.9397 -0.0000
vn 0.0000 -1.0000 -0.0000
vn 0.3420 -0.9397 -0.0000
vn 0.5000 -0.8660 -0.0000
vn 0.6428 -0.7660 -0.0000
vn 0.8660 -0.5000 -0.0000
vn 0.9848 -0.1736 -0.0000
vn -0.8660 -0.5000 -0.0000
vn -0.9848 -0.1736 -0.0000
vn -1.0000 -0.0000 0.0000
vn 0.8660 0.5000 0.0000
vn 0.6428 0.7661 0.0000
vn 0.6428 0.7660 0.0000
vn -0.6428 0.7660 0.0000
vn -0.8660 0.5000 0.0000
vn -0.9848 0.1736 0.0000
usemtl Default_OBJ.308
s 1
f 1//1 2//1 3//1
f 1//1 3//1 4//1
f 1//2 4//2 5//2
f 2//3 1//3 6//3
f 6//3 1//3 7//3
f 1//3 8//3 7//3
f 1//3 9//3 8//3
f 1//3 10//3 9//3
f 11//2 1//2 5//2
f 1//3 11//3 10//3
f 10//4 11//4 12//4
f 10//5 12//5 13//5
f 9//5 10//5 13//5
f 4//6 14//6 13//6
f 12//6 4//6 13//6
f 13//6 14//6 15//6
f 16//6 13//6 15//6
f 9//7 13//7 16//7
f 3//6 17//6 14//6
f 4//6 3//6 14//6
f 18//8 6//8 14//8
f 18//8 14//8 19//8
f 14//6 17//6 19//6
f 6//9 20//9 14//9
f 21//6 14//6 20//6
f 15//6 14//6 21//6
f 22//10 23//10 21//10
f 22//11 21//11 24//11
f 21//6 20//6 25//6
f 21//6 25//6 24//6
f 26//6 15//6 21//6
f 23//6 26//6 21//6
f 24//6 25//6 27//6
f 28//12 29//12 24//12
f 28//12 24//12 30//12
f 24//6 27//6 30//6
f 29//11 22//11 24//11
f 31//13 30//13 27//13
f 31//14 27//14 25//14
f 31//13 28//13 30//13
f 32//3 29//3 31//3
f 31//3 29//3 28//3
f 32//14 31//14 25//14
f 33//3 32//3 34//3
f 34//15 32//15 35//15
f 32//15 25//15 35//15
f 32//3 22//3 29//3
f 33//3 22//3 32//3
f 35//6 20//6 36//6
f 25//6 20//6 35//6
f 37//16 34//16 35//16
f 37//16 35//16 36//16
f 38//17 37//17 36//17
f 38//17 36//17 39//17
f 36//6 20//6 39//6
f 33//18 38//18 39//18
f 33//18 39//18 20//18
f 33//3 37//3 38//3
f 33//3 34//3 37//3
f 6//3 22//3 33//3
f 6//9 33//9 20//9
f 40//6 26//6 23//6
f 41//19 40//19 23//19
f 22//10 41//10 23//10
f 41//19 42//19 40//19
f 43//3 41//3 22//3
f 43//3 42//3 41//3
f 42//20 43//20 26//20
f 42//20 26//20 40//20
f 43//21 7//21 15//21
f 43//21 15//21 26//21
f 7//3 43//3 22//3
f 6//3 7//3 22//3
f 44//22 19//22 17//22
f 44//23 17//24 3//24
f 44//22 18//22 19//22
f 44//3 2//3 6//3
f 44//3 6//3 18//3
f 2//23 44//23 3//24
f 45//6 16//6 15//6
f 8//7 9//7 16//7
f 8//25 16//25 45//25
f 46//25 8//25 45//25
f 46//26 45//26 47//26
f 47//6 45//6 15//6
f 48//26 46//26 47//26
f 48//27 47//27 15//27
f 46//3 48//3 7//3
f 7//27 48//27 15//27
f 8//3 46//3 7//3
f 5//6 4//6 12//6
f 11//4 5//4 12//4
