# Blender v3.0.1 OBJ File: ''
# www.blender.org
mtllib Large_Long_Star_Yellow.mtl
o obj1.035_obj1.005
v -17.659210 -21.844059 74.999992
v -17.961716 -18.965977 74.999992
v -17.961716 -18.965969 -75.000000
v -17.659210 -21.844051 -75.000000
v -15.317963 -23.545078 74.999992
v -12.487259 -22.943394 74.999992
v -12.487259 -22.943386 -75.000008
v 0.000000 -13.870877 -75.000000
v 0.000000 -13.870883 74.999992
v -8.153107 11.221820 -75.000000
v 13.192017 -4.286328 -75.000000
v 12.487259 -22.943386 -75.000008
v -13.192001 -4.286328 -75.000000
v 17.961716 -18.965969 -75.000000
v 17.659225 -21.844051 -75.000000
v 15.317978 -23.545078 74.999992
v 12.487259 -22.943394 74.999992
v 15.317978 -23.545071 -75.000008
v 17.961716 -18.965977 74.999992
v 17.659225 -21.844059 74.999992
v 13.192017 -4.286335 74.999992
v 23.588211 11.221814 74.999992
v 8.153122 11.221814 74.999992
v -8.153107 11.221814 74.999992
v 25.679276 4.786197 -75.000000
v -13.192001 -4.286335 74.999992
v 25.679276 4.786191 74.999992
v -23.588196 11.221814 74.999992
v -3.383392 25.901463 -75.000000
v -3.383392 25.901455 74.999992
v 1.446976 28.052090 74.999992
v 3.383408 25.901455 74.999992
v -1.446976 28.052090 74.999992
v -1.446976 28.052097 -75.000000
v 1.446976 28.052097 -75.000000
v 3.383408 25.901463 -75.000000
v 8.153122 11.221820 -75.000000
v 23.588211 11.221820 -75.000000
v 26.231964 10.044742 -75.000000
v 26.231964 10.044736 74.999992
v 27.126251 7.292438 -75.000000
v 27.126251 7.292431 74.999992
v -23.588196 11.221820 -75.000000
v -26.231949 10.044736 74.999992
v -27.126236 7.292431 74.999992
v -25.679260 4.786191 74.999992
v -26.231949 10.044742 -75.000000
v -27.126236 7.292438 -75.000000
v -25.679260 4.786197 -75.000000
v -15.317963 -23.545071 -75.000008
vn -0.9945 -0.1045 -0.0000
vn -0.5878 -0.8090 -0.0000
vn 0.0000 0.0000 1.0000
vn 0.5878 -0.8090 -0.0000
vn 0.2079 -0.9781 -0.0000
vn 0.0000 0.0000 -1.0000
vn -0.2079 -0.9781 -0.0000
vn 0.9945 -0.1045 -0.0000
vn 0.9511 0.3090 0.0000
vn 0.0000 1.0000 0.0000
vn -0.9511 0.3090 0.0000
vn -0.7431 0.6691 0.0000
vn 0.7431 0.6691 0.0000
vn 0.4067 0.9135 0.0000
vn 0.8660 -0.5000 -0.0000
vn -0.4067 0.9135 0.0000
vn -0.8660 -0.5000 -0.0000
usemtl Default_OBJ.303
s 1
f 1//1 2//1 3//1
f 1//1 3//1 4//1
f 5//2 1//2 4//2
f 6//3 2//3 1//3
f 6//3 1//3 5//3
f 6//4 7//4 8//4
f 6//5 5//5 7//5
f 9//3 2//3 6//3
f 9//4 6//4 8//4
f 3//6 8//6 7//6
f 10//6 11//6 8//6
f 8//6 11//6 12//6
f 9//2 8//2 12//2
f 13//6 10//6 8//6
f 13//6 8//6 3//6
f 12//6 11//6 14//6
f 12//6 14//6 15//6
f 16//7 17//7 12//7
f 16//7 12//7 18//7
f 12//6 15//6 18//6
f 17//2 9//2 12//2
f 19//8 20//8 15//8
f 20//4 18//4 15//4
f 19//8 15//8 14//8
f 21//3 17//3 19//3
f 21//9 19//9 14//9
f 19//3 17//3 20//3
f 22//3 23//3 21//3
f 23//3 24//3 21//3
f 21//9 14//9 11//9
f 21//4 11//4 25//4
f 21//3 9//3 17//3
f 21//3 26//3 9//3
f 22//3 21//3 27//3
f 21//3 24//3 26//3
f 27//4 21//4 25//4
f 24//3 28//3 26//3
f 28//10 24//10 10//10
f 24//11 29//11 10//11
f 24//11 30//11 29//11
f 30//3 24//3 23//3
f 31//3 30//3 32//3
f 31//3 33//3 30//3
f 32//3 30//3 23//3
f 30//12 33//12 34//12
f 30//12 34//12 29//12
f 34//6 35//6 29//6
f 33//10 35//10 34//10
f 33//10 31//10 35//10
f 31//13 36//13 35//13
f 29//6 35//6 36//6
f 31//13 32//13 36//13
f 32//9 37//9 36//9
f 29//6 36//6 37//6
f 32//9 23//9 37//9
f 10//6 29//6 37//6
f 10//6 37//6 11//6
f 23//10 38//10 37//10
f 37//6 38//6 11//6
f 23//10 22//10 38//10
f 22//14 39//14 38//14
f 38//6 39//6 25//6
f 11//6 38//6 25//6
f 22//14 40//14 39//14
f 25//6 39//6 41//6
f 40//9 41//9 39//9
f 40//3 22//3 27//3
f 40//3 27//3 42//3
f 40//9 42//9 41//9
f 42//15 27//15 25//15
f 42//15 25//15 41//15
f 28//10 10//10 43//10
f 44//16 28//16 43//16
f 28//3 45//3 46//3
f 28//3 44//3 45//3
f 28//3 46//3 26//3
f 44//16 43//16 47//16
f 45//11 44//11 47//11
f 47//6 43//6 48//6
f 45//11 47//11 48//11
f 48//6 43//6 49//6
f 46//17 45//17 48//17
f 46//17 48//17 49//17
f 49//6 43//6 13//6
f 46//2 49//2 13//2
f 26//2 46//2 13//2
f 43//6 10//6 13//6
f 26//11 13//11 3//11
f 9//3 26//3 2//3
f 2//11 26//11 3//11
f 20//3 17//3 16//3
f 20//4 16//4 18//4
f 4//6 7//6 50//6
f 5//5 50//5 7//5
f 3//6 7//6 4//6
f 5//2 4//2 50//2
