# Blender v3.0.1 OBJ File: ''
# www.blender.org
mtllib Large_Short_Oval_DarkBlue.mtl
o obj1.021_obj1.005
v -16.795889 -14.164310 -12.392941
v -15.882341 -14.608927 -9.267941
v -18.255344 -13.365876 -12.392941
v -12.391479 -15.983023 -12.392941
v -11.892933 -16.142328 -10.830441
v -19.060474 -12.872749 -6.142941
v -16.170422 -14.472969 -3.017941
v -12.204790 -16.043671 -4.580441
v -7.602365 -17.189274 -8.486691
v -7.698568 -17.171730 -12.392941
v -7.922728 -17.129848 -2.236691
v -2.991619 -17.739902 -12.392941
v -3.257902 -17.723099 -4.189816
v 1.572147 -17.751263 -12.392941
v -3.619360 -17.697412 0.107059
v 1.128296 -17.773067 -2.041379
v 3.327301 -17.616093 -4.189816
v 5.633476 -17.316952 0.107059
v 0.949806 -17.780437 0.107059
v 10.348122 -16.241322 0.107059
v 10.095211 -16.316223 4.403934
v 10.095211 -16.316223 -4.189816
v 3.327301 -17.616093 4.403934
v 1.128296 -17.773067 2.255496
v -3.257902 -17.723099 4.403934
v 1.572147 -17.751263 12.607059
v 5.824783 -17.285755 8.505496
v 10.409157 -16.222931 10.653934
v 6.274139 -17.208530 12.607059
v 6.914822 -17.088736 25.107059
v 10.973087 -16.047121 12.607059
v 2.198662 -17.712019 25.107059
v 10.369579 -16.234873 25.107059
v 6.382042 -17.189161 28.232059
v 0.035995 -17.805660 31.357059
v 2.251587 -17.708250 32.919559
v 10.559116 -16.177223 31.357059
v 6.702404 -17.129728 34.482059
v 14.352154 -14.750679 28.232059
v 17.742702 -12.934217 32.919559
v 14.052795 -14.883898 37.607059
v 8.536484 -16.732962 37.607059
v 2.828865 -17.662481 37.607059
v 4.220940 -17.516829 43.075809
v 9.952751 -16.357500 43.857059
v -1.372280 -17.803629 42.294559
v -1.141853 -17.807356 50.107059
v 5.668396 -17.311335 50.107059
v -1.056499 17.761833 50.107059
v 12.017967 -15.692351 50.107059
v 7.123852 17.000584 50.107059
v 2.302246 17.658009 46.982059
v -2.374018 17.725422 43.857059
v -7.874489 17.092422 50.107059
v 2.369228 17.653046 43.857059
v -1.978821 17.740910 37.607059
v -7.066452 17.235760 37.607059
v -7.474775 17.165585 43.857059
v -12.572344 15.876556 43.857059
v -12.176548 16.006180 37.607059
v -16.961586 14.032776 37.607059
v -16.904314 14.062302 46.982059
v -13.204496 15.658100 50.107059
v -20.678841 11.698650 50.107059
v -21.195663 11.293324 40.732059
v -19.016216 -12.900932 50.107059
v -22.902470 -9.797728 50.107059
v -24.395107 8.037289 43.857059
v -25.583961 6.238513 50.107059
v -25.122843 -7.048365 46.982059
v -20.410057 -11.946630 46.982059
v -25.682800 -6.107001 50.107059
v -26.552536 -4.181654 43.857059
v -23.004128 -9.693899 42.294559
v -24.998760 -7.237751 37.607059
v -27.079306 -2.264179 37.607059
v -27.291885 -0.023283 50.107059
v -25.788841 -5.909141 31.357059
v -27.198826 -1.507611 25.107059
v -27.198826 -1.507607 -24.892939
v -27.291885 -0.023275 -49.892941
v -26.908516 -3.027775 0.107059
v -26.654085 -3.889262 18.857059
v -26.406555 -4.567384 25.107059
v -27.079306 -2.264172 -37.392941
v -26.654085 -3.889259 -18.642939
v -25.788841 -5.909134 -31.142939
v -26.406555 -4.567380 -24.892939
v -26.369232 -4.660520 -6.142941
v -24.526569 -7.909076 -18.642939
v -25.579723 -6.292577 -12.392941
v -23.142794 -9.549667 -6.142941
v -24.466757 -7.989191 0.107059
v -21.571203 -11.029244 -12.392941
v -21.097208 -11.419016 0.107059
v -17.353317 -13.872864 0.107059
v -16.170422 -14.472969 3.232059
v -19.060474 -12.872749 6.357059
v -23.142794 -9.549667 6.357059
v -12.360252 -15.993252 1.669559
v -12.204790 -16.043671 4.794559
v -15.882341 -14.608927 9.482059
v -13.009666 -15.773516 0.107059
v -8.339123 -17.048296 0.107059
v -7.922728 -17.129848 2.450809
v -7.602365 -17.189276 8.700809
v -2.991619 -17.739904 12.607059
v -7.698568 -17.171732 12.607059
v -11.892933 -16.142330 11.044559
v -12.391479 -15.983026 12.607059
v -7.408466 -17.223854 14.755496
v -16.795889 -14.164311 12.607059
v -16.049488 -14.530509 14.950809
v -11.827168 -16.162716 16.903934
v -11.513903 -16.257849 23.153934
v -7.057831 -17.283754 25.107059
v -2.367901 -17.772253 25.107059
v -6.565197 -17.362238 28.232059
v -1.974367 -17.787626 29.794559
v -6.245281 -17.409691 34.482059
v -10.800182 -16.462627 31.357059
v -11.768032 -16.180925 25.107059
v -15.018314 -14.994535 25.107059
v -17.938677 -13.549073 31.357059
v -15.760417 -14.665332 21.200809
v -17.766407 -13.646325 25.107059
v -13.992516 -15.411856 37.607059
v -22.671516 -10.027904 31.357059
v -20.817135 -11.639142 28.232059
v -20.550039 -11.842501 37.607059
v -10.224691 -16.615973 43.857059
v -17.443516 -13.824188 43.857059
v -10.171740 -16.629566 36.044559
v -10.027430 -16.666178 39.169559
v -13.932655 -15.434922 50.107059
v -5.954914 -17.450390 40.732059
v -5.635651 -17.492556 46.982059
v -7.848812 -17.143820 50.107059
v -6.417542 -17.384481 37.607059
v -1.748680 -17.794691 37.607059
v 2.408890 -17.696619 36.044559
v -23.636997 -9.009119 34.482059
v -23.215397 -9.472917 25.107059
v -24.526569 -7.909080 18.857059
v -21.613617 -10.993253 21.982059
v -19.355742 -12.681392 17.294559
v -21.810463 -10.823653 15.732059
v -18.255344 -13.365878 12.607059
v -21.571203 -11.029246 12.607059
v -25.579723 -6.292578 12.607059
v -26.369232 -4.660521 6.357059
v -12.360252 -15.993252 -1.455441
v -21.810463 -10.823649 -15.517941
v -21.613617 -10.993249 -21.767941
v -19.355742 -12.681388 -17.080441
v -15.760417 -14.665327 -20.986691
v -16.049488 -14.530507 -14.736691
v -11.827168 -16.162716 -16.689816
v -11.513903 -16.257841 -22.939816
v -7.408466 -17.223854 -14.541379
v -2.367901 -17.772249 -24.892941
v -7.057831 -17.283749 -24.892941
v 2.198662 -17.712015 -24.892941
v -6.565197 -17.362230 -28.017941
v -1.974367 -17.787621 -29.580441
v -6.245281 -17.409685 -34.267941
v 0.035995 -17.805655 -31.142941
v 2.251587 -17.708242 -32.705441
v 6.382042 -17.189154 -28.017941
v -1.748680 -17.794683 -37.392941
v 6.914822 -17.088728 -24.892941
v 6.702404 -17.129723 -34.267941
v 10.559116 -16.177217 -31.142941
v 10.369579 -16.234865 -24.892941
v 6.274139 -17.208530 -12.392941
v 10.973087 -16.047119 -12.392941
v 14.357967 -14.748051 -8.486691
v 10.409157 -16.222931 -10.439816
v 15.353138 -14.275916 -12.392941
v 15.456020 -14.224442 -21.767941
v 19.813156 -11.469228 -18.642941
v 17.796448 -12.900163 -24.892941
v 14.352154 -14.750674 -28.017941
v 19.278851 -11.880038 -31.142941
v 20.685963 -10.738963 -29.580441
v 23.166695 -8.093600 -24.892939
v 24.665058 -5.720995 -31.142939
v 25.297554 -4.274846 -24.892939
v 23.834068 -7.152587 -18.642939
v 22.988682 -8.322573 -34.267941
v 25.831631 -2.400154 -37.392941
v 26.031853 -0.985406 -31.142939
v 23.833027 -7.154171 -37.392941
v 20.651253 -10.769550 -37.392941
v 14.052795 -14.883891 -37.392941
v 17.463295 -13.108219 -42.080441
v 22.800247 -8.556467 -43.642941
v 17.742702 -12.934211 -32.705441
v 23.674805 -7.390524 -46.767941
v 25.108631 -4.757269 -43.642941
v 20.407318 -10.980749 -46.767941
v 17.422020 -13.133505 -49.892941
v 13.857380 -14.968775 -46.767941
v 21.569565 -9.910248 -49.892941
v 24.959507 5.057084 -49.892937
v 25.834835 -2.384262 -49.892941
v 19.440796 11.711632 -49.892937
v 25.499443 3.638466 -43.642941
v 26.070850 -0.061554 -43.642941
v 24.283337 6.377930 -43.642941
v 21.661201 9.771717 -43.642937
v 23.439087 7.679977 -37.392937
v 16.215061 13.781685 -43.642937
v 18.898548 12.111061 -37.392937
v 24.783165 5.436054 -31.142939
v 25.856148 2.229076 -37.392937
v 21.727425 9.704459 -31.142939
v 24.020664 6.814643 -24.892939
v 21.251572 10.173621 -24.892939
v 19.603241 11.587108 -24.892939
v 16.309292 13.730403 -31.142939
v 25.185352 4.521407 -18.642939
v 25.638306 3.166858 -24.892939
v 22.811573 8.496097 -18.642939
v 20.276463 11.044848 -15.517940
v 21.320709 10.107421 -12.392941
v 24.560566 5.876452 -12.392941
v 18.767773 12.203837 -18.642939
v 23.759945 7.217936 -6.142940
v 25.519112 3.575556 -6.142941
v 25.985584 -1.444717 -12.392941
v 26.039871 0.834523 -18.642939
v 26.070820 -0.070175 -6.142941
v 25.996777 1.301825 0.107060
v 22.782898 8.531034 0.107060
v 25.458969 -3.811009 6.357059
v 24.410038 -6.201035 0.107059
v 25.458969 -3.811008 -6.142941
v 25.519112 3.575556 6.357059
v 26.070820 -0.070175 6.357059
v 25.985584 -1.444718 12.607059
v 23.759945 7.217935 6.357060
v 24.560566 5.876447 12.607059
v 25.731716 -2.850566 18.857059
v 24.656670 -5.737509 12.607059
v 26.039871 0.834520 18.857059
v 26.060818 -0.512563 25.107059
v 25.638306 3.166852 25.107059
v 25.185352 4.521401 18.857059
v 24.020664 6.814637 25.107059
v 22.811573 8.496091 18.857059
v 18.767773 12.203832 18.857059
v 21.251572 10.173615 25.107059
v 20.276463 11.044843 15.732060
v 21.320709 10.107415 12.607059
v 17.090031 13.286511 12.607064
v 19.597778 11.591330 7.919560
v 13.845291 14.927420 9.482064
v 13.094318 15.238516 6.357064
v 16.263622 13.755312 3.232064
v 21.733864 9.697878 3.232060
v 19.096760 11.967855 0.107060
v 14.270130 14.741007 0.107064
v 16.263622 13.755312 -3.017936
v 21.733864 9.697878 -3.017940
v 19.597778 11.591333 -7.705440
v 17.090031 13.286517 -12.392936
v 13.094318 15.238516 -6.142936
v 13.845291 14.927423 -9.267936
v 10.323380 16.202181 -6.142936
v 8.730396 16.638651 0.107064
v 6.658356 17.091509 -3.017936
v 8.955532 16.581789 -9.267936
v 3.888084 17.509676 -9.267936
v 4.055500 17.490213 -3.017936
v 2.979790 17.602549 0.107064
v -2.274755 17.729681 -6.142936
v -2.055855 17.738203 0.107064
v -8.576000 16.953142 -3.017936
v -7.206945 17.212133 0.107064
v -8.576000 16.953142 3.232064
v -2.274755 17.729681 6.357064
v 4.055500 17.490213 3.232064
v -12.371904 15.942881 0.107064
v -17.189556 13.913588 0.107064
v -11.163229 16.313951 3.232064
v -11.163229 16.313951 -3.017936
v -8.079954 17.053072 9.482064
v -14.969788 14.968683 6.357064
v -13.828876 15.428021 12.607064
v -8.122200 17.044836 12.607064
v -2.356693 17.726183 12.607064
v -8.744776 16.917536 15.732060
v -2.438709 17.722513 18.857059
v -8.829134 16.899429 21.982059
v -11.412188 16.241478 21.982059
v -13.868876 15.412786 15.732060
v -15.125740 14.901784 18.857059
v -7.545033 17.153046 25.107059
v -12.698875 15.833970 25.107059
v -16.249233 14.388547 28.232059
v -12.408754 15.930791 31.357059
v -19.690746 12.410378 25.107059
v -17.449028 13.774636 18.857059
v -18.528942 13.156266 15.732060
v -23.221272 9.420106 18.857059
v -24.658602 7.681993 25.107059
v -26.400997 4.534818 25.107059
v -21.478695 11.060540 12.607060
v -25.222221 6.845636 12.607059
v -26.400997 4.534819 0.107060
v -27.077991 2.224510 37.607059
v -24.988752 7.206204 31.357059
v -22.710056 9.943467 28.232059
v -20.082636 12.137356 32.919559
v -22.887455 9.766369 37.607059
v -25.087883 7.055771 40.732059
v -26.518543 4.228241 43.857059
v -16.476664 14.277638 32.138309
v -27.077991 2.224516 -12.392941
v -27.077991 2.224518 -37.392937
v -25.875851 5.694472 -6.142940
v -25.222221 6.845641 -12.392941
v -26.400997 4.534823 -24.892939
v -26.518543 4.228249 -43.642941
v -24.988752 7.206211 -31.142939
v -25.087883 7.055779 -40.517937
v -24.395107 8.037296 -43.642937
v -21.195663 11.293331 -40.517937
v -22.887455 9.766376 -37.392937
v -20.082636 12.137362 -32.705437
v -16.961586 14.032784 -37.392937
v -16.904314 14.062309 -46.767937
v -16.476664 14.277644 -31.924189
v -12.176548 16.006187 -37.392937
v -12.572344 15.876564 -43.642937
v -13.204496 15.658108 -49.892937
v -20.678841 11.698658 -49.892937
v -19.016216 -12.900925 -49.892941
v -25.583961 6.238522 -49.892937
v -22.902470 -9.797720 -49.892941
v -13.932655 -15.434914 -49.892941
v -17.443516 -13.824181 -43.642941
v -20.410057 -11.946623 -46.767941
v -23.004128 -9.693892 -42.080441
v -25.122843 -7.048357 -46.767941
v -26.552536 -4.181646 -43.642941
v -24.998760 -7.237744 -37.392941
v -20.550039 -11.842493 -37.392941
v -23.636997 -9.009111 -34.267941
v -13.992516 -15.411850 -37.392941
v -17.938677 -13.549067 -31.142941
v -22.671516 -10.027898 -31.142941
v -10.800182 -16.462622 -31.142941
v -15.018314 -14.994532 -24.892941
v -17.766407 -13.646321 -24.892941
v -20.817135 -11.639138 -28.017941
v -10.171740 -16.629560 -35.830441
v -11.768032 -16.180920 -24.892941
v -10.027430 -16.666170 -38.955441
v -6.417542 -17.384474 -37.392941
v -5.954914 -17.450382 -40.517941
v -5.635651 -17.492548 -46.767941
v -1.372280 -17.803623 -42.080441
v -10.224691 -16.615965 -43.642941
v -7.848812 -17.143812 -49.892941
v -1.141853 -17.807346 -49.892941
v -7.874489 17.092430 -49.892937
v 4.220940 -17.516821 -42.861691
v 5.668396 -17.311327 -49.892941
v -1.056499 17.761841 -49.892937
v -2.374018 17.725430 -43.642937
v 2.302246 17.658016 -46.767937
v 7.123852 17.000591 -49.892937
v 12.017967 -15.692343 -49.892941
v 11.321491 15.886539 -49.892937
v 7.268406 16.971107 -43.642937
v 11.906967 15.685329 -43.642937
v 15.506622 14.152386 -49.892937
v 12.170368 15.590778 -40.517937
v 7.818165 16.853466 -37.392937
v 12.545586 15.451649 -37.392937
v 12.222782 15.571659 -34.267937
v 12.982754 15.282802 -28.017939
v 7.347538 16.954712 -31.142939
v 2.998539 17.600849 -37.392937
v 2.491238 17.643723 -31.142939
v 2.403912 17.650440 -28.017939
v 7.748104 16.868946 -28.017939
v 7.170063 16.991230 -24.892939
v 2.316227 17.656990 -24.892939
v -2.383228 17.725021 -24.892939
v -2.210188 17.732327 -31.142939
v 3.720264 17.528448 -21.767939
v -2.438709 17.722517 -18.642939
v 3.129833 17.588678 -15.517936
v 6.152927 17.183355 -21.767939
v -8.744776 16.917540 -15.517936
v -8.829134 16.899435 -21.767939
v -2.356693 17.726187 -12.392936
v -8.122200 17.044840 -12.392936
v 3.171608 17.584711 -12.392936
v -8.079954 17.053076 -9.267936
v -14.969788 14.968683 -6.142936
v -13.828876 15.428027 -12.392936
v -13.868876 15.412791 -15.517936
v -18.528942 13.156272 -15.517936
v -18.459385 13.198153 -9.267936
v -21.478695 11.060546 -12.392940
v -17.303520 13.852995 -6.142936
v -23.303383 9.332159 -6.142940
v -19.455929 12.568541 -6.142940
v -24.053230 8.470770 -9.267941
v -23.528128 9.085417 0.107060
v -24.952433 7.260393 4.794560
v -19.455929 12.568541 6.357060
v -22.786602 9.867613 9.482059
v -17.303520 13.852995 6.357064
v -18.459385 13.198149 9.482064
v -23.221272 9.420112 -18.642939
v -19.690746 12.410384 -24.892939
v -17.449028 13.774642 -18.642939
v -24.658602 7.681998 -24.892939
v -22.710056 9.943473 -28.017939
v -16.249233 14.388553 -28.017939
v -12.698875 15.833976 -24.892939
v -12.408754 15.930797 -31.142939
v -15.125740 14.901790 -18.642939
v -11.412188 16.241484 -21.767939
v -7.545033 17.153053 -24.892939
v -7.305729 17.195202 -31.142939
v -7.066452 17.235767 -37.392937
v -7.474775 17.165592 -43.642937
v -1.978821 17.740917 -37.392937
v 2.369228 17.653053 -43.642937
v 8.872017 16.603064 -12.392936
v 13.689644 14.993804 -15.517936
v 9.992863 16.299387 -18.642939
v 9.412277 16.461617 -24.892939
v 12.354675 15.523097 -18.642939
v 14.893147 14.453288 -24.892939
v 13.416077 15.108039 -18.642939
v 16.702713 13.511046 -21.767939
v 9.952751 -16.357492 -43.642941
v 8.536484 -16.732954 -37.392941
v 2.828865 -17.662474 -37.392941
v 2.408890 -17.696613 -35.830441
v -23.215397 -9.472913 -24.892941
v -25.682800 -6.106992 -49.892941
v -7.305729 17.195194 31.357059
v -2.210188 17.732319 31.357059
v -2.383228 17.725014 25.107059
v 2.403912 17.650433 28.232059
v 3.720264 17.528442 21.982059
v 2.316227 17.656982 25.107059
v 7.170063 16.991222 25.107059
v 7.748104 16.868938 28.232059
v 9.412277 16.461609 25.107059
v 6.152927 17.183350 21.982059
v 9.992863 16.299383 18.857059
v 3.129833 17.588675 15.732060
v 12.354675 15.523091 18.857059
v 13.689644 14.993798 15.732060
v 8.872017 16.603060 12.607064
v 14.893147 14.453282 25.107059
v 13.416077 15.108033 18.857059
v 12.982754 15.282796 28.232059
v 16.702713 13.511041 21.982059
v 16.309292 13.730397 31.357059
v 19.603241 11.587102 25.107059
v 12.222782 15.571651 34.482059
v 18.898548 12.111053 37.607059
v 21.727425 9.704453 31.357059
v 12.545586 15.451641 37.607059
v 16.215061 13.781677 43.857059
v 21.661201 9.771709 43.857059
v 23.439087 7.679970 37.607059
v 12.170368 15.590771 40.732059
v 24.783165 5.436047 31.357059
v 26.063755 0.388708 37.607059
v 25.757084 2.696884 43.857059
v 24.283337 6.377922 43.857059
v 24.959507 5.057075 50.107059
v 25.834835 -2.384270 50.107059
v 19.440796 11.711624 50.107059
v 21.569565 -9.910255 50.107059
v 23.674805 -7.390532 46.982059
v 25.108631 -4.757277 43.857059
v 26.033268 -0.967846 43.857059
v 22.800247 -8.556475 43.857059
v 20.407318 -10.980757 46.982059
v 17.463295 -13.108227 42.294559
v 20.651253 -10.769558 37.607059
v 23.833027 -7.154178 37.607059
v 19.278851 -11.880044 31.357059
v 22.988682 -8.322580 34.482059
v 20.685963 -10.738969 29.794559
v 24.665058 -5.721002 31.357059
v 23.166695 -8.093604 25.107059
v 17.796448 -12.900167 25.107059
v 15.456020 -14.224446 21.982059
v 19.813156 -11.469232 18.857059
v 23.834068 -7.152591 18.857059
v 21.573246 -9.906579 12.607059
v 15.353138 -14.275918 12.607059
v 19.814018 -11.468542 9.482059
v 14.357967 -14.748052 8.700809
v 17.462738 -13.108566 4.794559
v 14.065208 -14.878447 2.450809
v 14.824738 -14.532293 0.107059
v 14.065208 -14.878447 -2.236691
v 17.462738 -13.108566 -4.580441
v 19.646099 -11.600416 0.107059
v 23.167885 -8.092043 -6.142941
v 23.167885 -8.092043 6.357059
v 19.814018 -11.468542 -9.267941
v 21.573246 -9.906577 -12.392941
v 24.656670 -5.737508 -12.392941
v 25.731716 -2.850562 -18.642939
v 26.060818 -0.512559 -24.892939
v 26.039230 0.843294 -31.142939
v 25.297554 -4.274850 25.107059
v 25.920799 -1.907482 31.357059
v 25.935902 1.763894 31.357059
v 13.857380 -14.968782 46.982059
v 17.422020 -13.133512 50.107059
v 15.506622 14.152378 50.107059
v 11.321491 15.886532 50.107059
v 11.906967 15.685322 43.857059
v 7.268406 16.971100 43.857059
v 7.818165 16.853458 37.607059
v 2.998539 17.600842 37.607059
v 7.347538 16.954704 31.357059
v 2.491238 17.643715 31.357059
v 3.888084 17.509672 9.482064
v 8.955532 16.581785 9.482064
v 3.171608 17.584707 12.607064
v 6.658356 17.091509 3.232064
v 10.323380 16.202181 6.357064
v 5.824783 -17.285755 -8.291379
vn -0.4799 -0.8772 0.0155
vn -0.4784 -0.8780 0.0140
vn -0.4764 -0.8791 0.0121
vn -0.3816 -0.9241 -0.0199
vn -0.3528 -0.9355 0.0172
vn -0.4729 -0.8811 0.0086
vn -0.4818 -0.8763 -0.0031
vn -0.3599 -0.9330 -0.0032
vn -0.3616 -0.9323 -0.0029
vn -0.3663 -0.9305 0.0026
vn -0.3691 -0.9294 -0.0027
vn -0.2378 -0.9713 0.0016
vn -0.2425 -0.9701 -0.0021
vn -0.2399 -0.9708 0.0033
vn -0.2455 -0.9692 -0.0180
vn -0.2455 -0.9692 -0.0205
vn -0.2455 -0.9693 -0.0117
vn -0.2378 -0.9713 0.0015
vn -0.2472 -0.9689 0.0025
vn -0.1202 -0.9927 0.0038
vn -0.1234 -0.9924 0.0020
vn -0.1188 -0.9929 0.0076
vn -0.1207 -0.9927 -0.0032
vn -0.1280 -0.9918 -0.0045
vn -0.0025 -1.0000 0.0022
vn -0.0025 -1.0000 0.0020
vn -0.1282 -0.9917 -0.0049
vn -0.0138 -0.9999 0.0048
vn -0.0144 -0.9999 0.0045
vn -0.0204 -0.9998 -0.0000
vn 0.0162 -0.9998 0.0130
vn 0.0162 -0.9983 -0.0563
vn 0.0910 -0.9956 0.0204
vn 0.0985 -0.9951 -0.0000
vn 0.0985 -0.9951 0.0048
vn -0.0182 -0.9998 -0.0000
vn 0.2224 -0.9749 0.0000
vn 0.2224 -0.9749 -0.0039
vn 0.2224 -0.9749 0.0039
vn 0.1885 -0.9815 -0.0328
vn 0.1885 -0.9815 0.0328
vn 0.0985 -0.9951 -0.0048
vn 0.0910 -0.9956 -0.0204
vn 0.0162 -0.9998 -0.0130
vn 0.0162 -0.9983 0.0563
vn 0.1885 -0.9814 -0.0357
vn 0.1171 -0.9931 0.0087
vn 0.1150 -0.9933 0.0064
vn 0.1160 -0.9932 0.0073
vn 0.2286 -0.9735 -0.0061
vn 0.2287 -0.9735 -0.0063
vn 0.2244 -0.9745 0.0033
vn 0.1151 -0.9933 -0.0022
vn 0.2288 -0.9734 -0.0067
vn 0.2399 -0.9708 -0.0029
vn 0.2399 -0.9708 -0.0030
vn 0.2399 -0.9706 0.0181
vn 0.1306 -0.9914 -0.0093
vn 0.1310 -0.9914 -0.0078
vn 0.1310 -0.9914 0.0028
vn 0.1147 -0.9934 -0.0026
vn 0.2374 -0.9714 0.0072
vn 0.1310 -0.9913 -0.0095
vn 0.2408 -0.9706 0.0063
vn 0.1076 -0.9939 0.0223
vn 0.0750 -0.9962 -0.0442
vn 0.2308 -0.9730 -0.0082
vn 0.1278 -0.9918 -0.0082
vn 0.1289 -0.9917 0.0000
vn 0.1279 -0.9918 0.0029
vn 0.2367 -0.9716 -0.0040
vn 0.3506 -0.9365 -0.0020
vn 0.3986 -0.9147 0.0662
vn 0.4195 -0.9066 -0.0469
vn 0.3178 -0.9480 0.0185
vn 0.2307 -0.9730 -0.0119
vn 0.1607 -0.9865 0.0310
vn 0.1607 -0.9869 -0.0146
vn 0.3178 -0.9480 -0.0151
vn 0.1963 -0.9804 0.0144
vn 0.0492 -0.9987 0.0141
vn 0.0515 -0.9987 -0.0020
vn 0.0726 -0.9973 0.0142
vn 0.1999 -0.9797 -0.0125
vn -0.0000 0.0000 1.0000
vn 0.2470 -0.9688 0.0215
vn 0.0213 0.9997 -0.0103
vn 0.0925 0.9935 0.0664
vn -0.0977 0.9951 0.0148
vn 0.0153 0.9999 -0.0013
vn 0.0155 0.9999 0.0029
vn 0.0154 0.9999 -0.0004
vn -0.1012 0.9949 -0.0018
vn -0.0988 0.9951 -0.0007
vn -0.1077 0.9942 0.0010
vn 0.0153 0.9999 0.0034
vn -0.1091 0.9940 0.0044
vn -0.1091 0.9940 0.0047
vn -0.2453 0.9694 -0.0034
vn -0.2361 0.9717 0.0005
vn -0.2438 0.9698 0.0009
vn -0.2339 0.9723 -0.0008
vn -0.2452 0.9695 -0.0043
vn -0.3846 0.9230 -0.0082
vn -0.3779 0.9258 0.0059
vn -0.3851 0.9229 -0.0033
vn -0.3869 0.9221 -0.0009
vn -0.2599 0.9656 0.0075
vn -0.3908 0.9204 -0.0074
vn -0.4657 0.8790 0.1024
vn -0.5349 0.8449 -0.0070
vn -0.5416 0.8406 -0.0004
vn -0.5362 0.8441 -0.0057
vn -0.5429 0.8398 0.0007
vn -0.7091 0.7050 0.0086
vn -0.7429 0.6674 0.0508
vn -0.7172 -0.6900 -0.0975
vn -0.6235 -0.7808 0.0397
vn -0.7981 -0.6013 0.0381
vn -0.8488 -0.5210 -0.0896
vn -0.7191 -0.6918 0.0654
vn -0.8861 -0.4630 -0.0193
vn -0.9218 -0.3856 -0.0406
vn -0.8308 -0.5529 0.0638
vn -0.9788 -0.2040 0.0199
vn -0.9653 -0.2553 0.0557
vn -0.9220 -0.3857 0.0346
vn -0.9480 -0.3181 -0.0102
vn -0.9939 -0.1101 0.0028
vn -0.9980 -0.0626 -0.0000
vn -0.9733 -0.2296 0.0027
vn -0.9822 -0.1876 -0.0000
vn -0.9680 -0.2507 0.0111
vn -0.9672 -0.2504 0.0418
vn -0.9939 -0.1101 -0.0028
vn -0.9733 -0.2296 -0.0027
vn -0.9480 -0.3181 0.0102
vn -0.9680 -0.2507 -0.0111
vn -0.9672 -0.2504 -0.0418
vn -0.9474 -0.3200 0.0018
vn -0.8835 -0.4676 -0.0279
vn -0.8837 -0.4677 0.0157
vn -0.9078 -0.4193 -0.0052
vn -0.8340 -0.5504 0.0384
vn -0.8340 -0.5504 -0.0393
vn -0.8966 -0.4413 0.0379
vn -0.7628 -0.6455 -0.0390
vn -0.7131 -0.7006 0.0239
vn -0.6311 -0.7753 0.0248
vn -0.6311 -0.7753 -0.0253
vn -0.5476 -0.8354 0.0468
vn -0.5476 -0.8354 -0.0468
vn -0.5113 -0.8588 0.0331
vn -0.6311 -0.7753 0.0253
vn -0.7131 -0.7006 -0.0239
vn -0.5113 -0.8588 -0.0331
vn -0.3694 -0.9293 0.0034
vn -0.3616 -0.9323 0.0029
vn -0.3691 -0.9294 0.0027
vn -0.3663 -0.9305 -0.0026
vn -0.4818 -0.8763 0.0031
vn -0.4008 -0.9159 -0.0242
vn -0.3634 -0.9314 0.0201
vn -0.2632 -0.9644 -0.0262
vn -0.2499 -0.9682 0.0107
vn -0.2476 -0.9689 -0.0033
vn -0.2472 -0.9689 -0.0025
vn -0.2399 -0.9708 -0.0033
vn -0.2425 -0.9701 0.0021
vn -0.1362 -0.9906 -0.0103
vn -0.1282 -0.9917 0.0049
vn -0.1207 -0.9927 0.0032
vn -0.1280 -0.9918 0.0045
vn -0.1234 -0.9924 -0.0020
vn -0.1197 -0.9928 -0.0051
vn -0.1188 -0.9929 -0.0076
vn -0.2378 -0.9713 -0.0017
vn -0.2378 -0.9713 -0.0015
vn -0.3599 -0.9330 0.0032
vn -0.3528 -0.9355 -0.0172
vn -0.2455 -0.9693 0.0117
vn -0.2455 -0.9692 0.0205
vn -0.2455 -0.9692 0.0180
vn -0.2455 -0.9693 0.0096
vn -0.3816 -0.9241 0.0199
vn -0.3816 -0.9241 -0.0229
vn -0.3641 -0.9313 0.0089
vn -0.3539 -0.9353 0.0072
vn -0.3635 -0.9315 0.0086
vn -0.2378 -0.9713 -0.0094
vn -0.2350 -0.9720 -0.0034
vn -0.2375 -0.9713 -0.0088
vn -0.2281 -0.9736 0.0083
vn -0.2252 -0.9743 0.0020
vn -0.2277 -0.9737 0.0036
vn -0.2349 -0.9720 -0.0030
vn -0.1198 -0.9928 -0.0079
vn -0.1110 -0.9938 -0.0012
vn -0.1059 -0.9944 -0.0011
vn -0.1145 -0.9934 0.0031
vn -0.1037 -0.9946 -0.0084
vn -0.0025 -1.0000 -0.0025
vn -0.0025 -1.0000 -0.0022
vn 0.0132 -0.9999 0.0025
vn 0.0132 -0.9999 -0.0036
vn 0.0133 -0.9999 0.0022
vn -0.0976 -0.9952 0.0048
vn 0.0132 -0.9999 -0.0044
vn -0.0926 -0.9957 0.0009
vn -0.2056 -0.9786 0.0031
vn -0.2056 -0.9786 -0.0016
vn -0.1988 -0.9800 -0.0075
vn -0.0913 -0.9958 -0.0029
vn -0.2153 -0.9765 -0.0107
vn -0.2280 -0.9736 0.0115
vn -0.2281 -0.9736 0.0109
vn -0.3434 -0.9392 -0.0086
vn -0.3442 -0.9388 -0.0104
vn -0.3429 -0.9394 -0.0076
vn -0.3429 -0.9393 0.0108
vn -0.3776 -0.9252 0.0375
vn -0.3457 -0.9383 -0.0134
vn -0.4403 -0.8978 0.0074
vn -0.4404 -0.8977 0.0080
vn -0.4402 -0.8979 0.0022
vn -0.4404 -0.8978 0.0018
vn -0.3776 -0.9252 -0.0373
vn -0.5959 -0.8009 0.0594
vn -0.5512 -0.8344 -0.0022
vn -0.5966 -0.8019 -0.0303
vn -0.4777 -0.8776 0.0400
vn -0.3604 -0.9320 0.0377
vn -0.4777 -0.8776 -0.0408
vn -0.3025 -0.9531 0.0032
vn -0.3023 -0.9532 0.0022
vn -0.3007 -0.9537 -0.0012
vn -0.3013 -0.9535 0.0064
vn -0.3007 -0.9537 -0.0024
vn -0.3604 -0.9320 -0.0377
vn -0.1898 -0.9818 0.0028
vn -0.1922 -0.9813 0.0068
vn -0.1906 -0.9817 0.0045
vn -0.1896 -0.9818 0.0031
vn -0.1773 -0.9840 -0.0157
vn -0.2704 -0.9625 0.0215
vn -0.0984 -0.9943 0.0413
vn -0.4460 -0.8948 0.0199
vn -0.0822 -0.9966 0.0045
vn -0.0714 -0.9974 0.0016
vn -0.0753 -0.9972 -0.0023
vn -0.0710 -0.9975 0.0016
vn -0.1966 -0.9805 -0.0034
vn -0.0893 -0.9960 -0.0036
vn -0.0869 -0.9962 -0.0079
vn -0.0875 -0.9962 0.0032
vn -0.0723 -0.9972 -0.0189
vn 0.0355 -0.9993 0.0119
vn 0.0245 -0.9997 0.0025
vn 0.0286 -0.9995 0.0134
vn 0.0285 -0.9995 0.0132
vn 0.0289 -0.9995 0.0141
vn 0.0289 -0.9996 -0.0042
vn 0.1265 -0.9919 -0.0123
vn 0.1297 -0.9915 -0.0035
vn -0.1960 -0.9806 -0.0023
vn -0.5446 -0.8386 -0.0132
vn -0.5828 -0.8099 -0.0667
vn -0.6043 -0.7953 0.0482
vn -0.7169 -0.6926 0.0802
vn -0.7180 -0.6936 -0.0579
vn -0.6888 -0.7246 0.0234
vn -0.8108 -0.5848 -0.0218
vn -0.7964 -0.6028 -0.0495
vn -0.6641 -0.7476 -0.0086
vn -0.7973 -0.6034 0.0158
vn -0.7138 -0.6999 -0.0254
vn -0.8376 -0.5449 0.0394
vn -0.6777 -0.7353 0.0104
vn -0.8378 -0.5450 -0.0342
vn -0.5257 -0.8491 0.0526
vn -0.6024 -0.7982 -0.0027
vn -0.7292 -0.6843 0.0044
vn -0.5598 -0.8285 -0.0143
vn -0.5359 -0.8424 -0.0554
vn -0.5760 -0.8174 0.0097
vn -0.5943 -0.8039 -0.0221
vn -0.7632 -0.6459 -0.0159
vn -0.7534 -0.6562 -0.0428
vn -0.7628 -0.6455 0.0390
vn -0.6311 -0.7753 -0.0248
vn -0.8835 -0.4676 0.0279
vn -0.9078 -0.4193 0.0052
vn -0.8340 -0.5504 -0.0384
vn -0.8340 -0.5504 0.0393
vn -0.9474 -0.3200 -0.0018
vn -0.8966 -0.4413 -0.0379
vn -0.4729 -0.8811 -0.0086
vn -0.4784 -0.8780 -0.0140
vn -0.4764 -0.8791 -0.0121
vn -0.4799 -0.8772 -0.0155
vn -0.4799 -0.8772 0.0158
vn -0.4797 -0.8773 0.0171
vn -0.4798 -0.8773 0.0156
vn -0.4805 -0.8769 0.0141
vn -0.4862 -0.8739 0.0036
vn -0.8837 -0.4677 -0.0157
vn -0.3525 -0.9358 0.0034
vn -0.3585 -0.9335 -0.0030
vn -0.0419 -0.9982 0.0423
vn 0.0021 -0.9999 -0.0143
vn -0.0025 -1.0000 -0.0020
vn -0.2499 -0.9682 -0.0107
vn -0.2632 -0.9644 0.0262
vn -0.1362 -0.9906 0.0103
vn -0.2476 -0.9689 0.0033
vn -0.3694 -0.9293 -0.0034
vn -0.3634 -0.9314 -0.0201
vn -0.4008 -0.9159 0.0242
vn -0.7632 -0.6459 0.0159
vn -0.5760 -0.8174 -0.0097
vn -0.7534 -0.6562 0.0428
vn -0.6024 -0.7982 0.0027
vn -0.7292 -0.6843 -0.0044
vn -0.5943 -0.8039 0.0221
vn -0.4862 -0.8739 -0.0036
vn -0.4797 -0.8773 -0.0171
vn -0.4805 -0.8769 -0.0141
vn -0.5257 -0.8491 -0.0526
vn -0.4798 -0.8773 -0.0156
vn -0.3585 -0.9335 0.0030
vn -0.3539 -0.9353 -0.0072
vn -0.3635 -0.9315 -0.0086
vn -0.4799 -0.8772 -0.0158
vn -0.3816 -0.9241 0.0229
vn -0.3641 -0.9313 -0.0089
vn -0.3525 -0.9358 -0.0034
vn -0.2329 -0.9725 0.0003
vn -0.2259 -0.9742 -0.0018
vn -0.2349 -0.9720 0.0030
vn -0.2378 -0.9713 0.0094
vn -0.1192 -0.9928 0.0075
vn -0.2455 -0.9693 -0.0096
vn -0.1145 -0.9934 -0.0031
vn -0.2277 -0.9737 -0.0037
vn -0.1036 -0.9946 0.0079
vn -0.1036 -0.9946 0.0022
vn -0.1037 -0.9946 0.0084
vn -0.0025 -1.0000 0.0025
vn 0.0133 -0.9999 -0.0022
vn 0.0132 -0.9999 0.0036
vn 0.0132 -0.9999 -0.0025
vn -0.1036 -0.9946 0.0086
vn 0.0132 -0.9999 0.0044
vn -0.0937 -0.9956 -0.0042
vn -0.0926 -0.9957 -0.0009
vn -0.0938 -0.9956 -0.0046
vn -0.0913 -0.9958 0.0029
vn 0.0021 -0.9999 0.0143
vn -0.0419 -0.9982 -0.0423
vn 0.0750 -0.9962 0.0442
vn 0.0355 -0.9993 -0.0119
vn 0.1076 -0.9939 -0.0223
vn -0.0723 -0.9972 0.0189
vn 0.1310 -0.9914 0.0078
vn 0.1310 -0.9913 0.0095
vn 0.1306 -0.9914 0.0093
vn 0.1279 -0.9918 -0.0029
vn 0.2317 -0.9727 0.0105
vn 0.2375 -0.9714 0.0029
vn 0.2367 -0.9716 0.0040
vn 0.2374 -0.9714 -0.0072
vn 0.2392 -0.9709 -0.0089
vn 0.2341 -0.9722 -0.0019
vn 0.2399 -0.9708 0.0028
vn 0.1310 -0.9914 -0.0028
vn 0.2399 -0.9708 0.0030
vn 0.3420 -0.9396 0.0104
vn 0.3480 -0.9375 0.0045
vn 0.3435 -0.9390 0.0146
vn 0.3748 -0.9269 -0.0165
vn 0.3704 -0.9289 -0.0035
vn 0.3738 -0.9275 -0.0016
vn 0.3749 -0.9271 -0.0010
vn 0.2399 -0.9706 -0.0181
vn 0.3696 -0.9292 -0.0039
vn 0.5338 -0.8456 0.0012
vn 0.5200 -0.8537 0.0277
vn 0.3595 -0.9330 0.0151
vn 0.4811 -0.8766 -0.0112
vn 0.4911 -0.8707 -0.0256
vn 0.6175 -0.7863 0.0181
vn 0.6663 -0.7444 -0.0446
vn 0.6654 -0.7434 0.0674
vn 0.7742 -0.6307 -0.0538
vn 0.8731 -0.4872 -0.0199
vn 0.8730 -0.4871 0.0244
vn 0.7315 -0.6814 0.0245
vn 0.7928 -0.6044 0.0779
vn 0.9603 -0.2772 0.0320
vn 0.9213 -0.3873 -0.0338
vn 0.8312 -0.5558 0.0168
vn 0.9603 -0.2772 -0.0330
vn 0.6659 -0.7439 -0.0564
vn 0.7043 -0.7093 0.0286
vn 0.7500 -0.6600 -0.0441
vn 0.5280 -0.8469 0.0634
vn 0.6392 -0.7673 -0.0519
vn 0.5280 -0.8468 -0.0634
vn 0.7505 -0.6605 0.0242
vn 0.5781 -0.8158 -0.0180
vn 0.3986 -0.9147 -0.0662
vn 0.5277 -0.8478 0.0532
vn 0.4195 -0.9066 0.0469
vn 0.8537 -0.5187 0.0454
vn 0.7388 -0.6724 -0.0441
vn 0.6597 -0.7478 0.0749
vn 0.8544 -0.5191 -0.0247
vn 0.5179 -0.8506 0.0912
vn 0.6131 -0.7889 -0.0422
vn 0.5191 -0.8525 -0.0609
vn 0.7388 -0.6724 0.0444
vn -0.0000 0.0000 -1.0000
vn 0.8549 -0.4845 -0.1853
vn 0.9870 0.1524 -0.0507
vn 0.9899 0.1164 -0.0807
vn 0.9139 0.4057 0.0131
vn 0.7906 0.6108 -0.0436
vn 0.7676 0.6366 -0.0751
vn 0.7912 0.6113 -0.0205
vn 0.5925 0.8046 -0.0393
vn 0.5925 0.8046 0.0393
vn 0.6978 0.7151 0.0408
vn 0.9130 0.4048 -0.0510
vn 0.9135 0.4050 0.0392
vn 0.9134 0.4052 0.0390
vn 0.9134 0.4052 0.0391
vn 0.9133 0.4054 0.0389
vn 0.8126 0.5818 0.0341
vn 0.6979 0.7151 -0.0405
vn 0.8128 0.5819 -0.0292
vn 0.6509 0.7591 -0.0074
vn 0.7716 0.6361 0.0110
vn 0.5960 0.8021 -0.0390
vn 0.5960 0.8021 0.0391
vn 0.9139 0.4053 -0.0216
vn 0.9139 0.4053 0.0221
vn 0.7714 0.6359 -0.0219
vn 0.8582 0.5125 0.0281
vn 0.6976 0.7163 -0.0183
vn 0.7935 0.6076 0.0326
vn 0.8583 0.5126 -0.0253
vn 0.6755 0.7368 0.0291
vn 0.6749 0.7360 -0.0528
vn 0.7936 0.6077 -0.0288
vn 0.9784 0.1904 -0.0799
vn 0.9786 0.1905 0.0780
vn 0.9003 0.4348 0.0220
vn 0.9730 0.2255 0.0484
vn 0.9877 0.1495 -0.0463
vn 0.9885 0.1496 -0.0211
vn 0.8994 0.4344 0.0493
vn 0.9110 0.4050 0.0777
vn 0.9748 -0.2062 -0.0848
vn 0.9748 -0.2062 0.0848
vn 0.9858 -0.1612 0.0471
vn 0.9110 0.4050 -0.0777
vn 0.9858 -0.1612 -0.0471
vn 0.9885 0.1496 0.0211
vn 0.9877 0.1495 0.0463
vn 0.9003 0.4348 -0.0220
vn 0.9784 0.1904 0.0799
vn 0.8994 0.4344 -0.0493
vn 0.9549 -0.2956 -0.0277
vn 0.9548 -0.2956 0.0315
vn 0.9866 -0.1614 -0.0220
vn 0.9786 0.1905 -0.0780
vn 0.9963 -0.0833 0.0217
vn 0.9932 0.1141 0.0213
vn 0.9963 -0.0833 -0.0213
vn 0.9730 0.2255 -0.0484
vn 0.9739 0.2257 -0.0217
vn 0.9139 0.4053 0.0216
vn 0.8582 0.5125 -0.0281
vn 0.8583 0.5126 0.0253
vn 0.6755 0.7368 -0.0291
vn 0.7714 0.6359 0.0219
vn 0.6749 0.7360 0.0528
vn 0.6976 0.7163 0.0183
vn 0.7935 0.6076 -0.0326
vn 0.6003 0.7988 -0.0390
vn 0.7936 0.6077 0.0288
vn 0.6004 0.7990 0.0323
vn 0.7161 0.6967 -0.0426
vn 0.4948 0.8684 -0.0325
vn 0.4759 0.8770 0.0664
vn 0.5949 0.8021 -0.0529
vn 0.4903 0.8700 -0.0523
vn 0.7338 0.6766 0.0611
vn 0.5938 0.8006 0.0804
vn 0.7644 0.6446 0.0159
vn 0.6813 0.7307 -0.0441
vn 0.4977 0.8662 -0.0443
vn 0.4977 0.8662 0.0443
vn 0.5938 0.8006 -0.0804
vn 0.6813 0.7307 0.0441
vn 0.7644 0.6446 -0.0159
vn 0.7338 0.6766 -0.0611
vn 0.5949 0.8021 0.0529
vn 0.7161 0.6967 0.0426
vn 0.6004 0.7990 -0.0323
vn 0.4759 0.8770 -0.0664
vn 0.4903 0.8700 0.0523
vn 0.4948 0.8684 0.0325
vn 0.4314 0.9021 -0.0093
vn 0.3284 0.9444 -0.0151
vn 0.3280 0.9445 -0.0152
vn 0.3273 0.9448 -0.0164
vn 0.3284 0.9444 0.0134
vn 0.3242 0.9458 0.0165
vn 0.3277 0.9447 0.0139
vn 0.3240 0.9459 0.0165
vn 0.2278 0.9737 -0.0099
vn 0.3204 0.9470 -0.0252
vn 0.1800 0.9828 0.0406
vn 0.2124 0.9767 -0.0288
vn 0.1514 0.9885 -0.0010
vn 0.1514 0.9883 0.0166
vn 0.1652 0.9857 0.0333
vn 0.0357 0.9994 -0.0010
vn 0.0374 0.9993 0.0018
vn 0.0390 0.9992 -0.0025
vn 0.0269 0.9993 -0.0267
vn 0.0391 0.9992 -0.0027
vn -0.1209 0.9927 0.0029
vn -0.1182 0.9930 0.0062
vn -0.1210 0.9927 0.0030
vn -0.1015 0.9941 -0.0379
vn -0.1210 0.9927 -0.0030
vn -0.1182 0.9930 -0.0062
vn -0.1209 0.9927 -0.0029
vn 0.0391 0.9992 0.0027
vn 0.0374 0.9993 -0.0018
vn 0.0390 0.9992 0.0025
vn 0.0269 0.9993 0.0267
vn -0.1015 0.9941 0.0379
vn -0.2391 0.9707 -0.0234
vn -0.2396 0.9706 -0.0228
vn -0.2386 0.9708 -0.0241
vn -0.2386 0.9708 0.0241
vn -0.2396 0.9706 0.0228
vn -0.2391 0.9707 0.0234
vn -0.3879 0.9208 0.0407
vn -0.3879 0.9208 -0.0407
vn -0.2398 0.9706 -0.0225
vn -0.2398 0.9706 0.0225
vn -0.2398 0.9708 0.0035
vn -0.3558 0.9340 -0.0313
vn -0.3051 0.9516 0.0380
vn -0.1164 0.9932 0.0008
vn -0.2731 0.9620 -0.0015
vn -0.2730 0.9619 -0.0146
vn -0.2726 0.9621 -0.0011
vn -0.2816 0.9594 -0.0191
vn -0.1174 0.9931 0.0010
vn -0.1173 0.9931 0.0007
vn -0.2726 0.9620 -0.0151
vn -0.1173 0.9929 0.0171
vn -0.1262 0.9920 -0.0010
vn -0.1269 0.9919 0.0002
vn -0.1261 0.9920 -0.0011
vn -0.1273 0.9919 0.0010
vn -0.2468 0.9691 -0.0005
vn -0.2818 0.9595 0.0011
vn -0.2815 0.9586 0.0435
vn -0.3153 0.9485 -0.0320
vn -0.2468 0.9688 0.0228
vn -0.2471 0.9687 0.0231
vn -0.2471 0.9687 0.0229
vn -0.2479 0.9685 0.0242
vn -0.3298 0.9440 -0.0127
vn -0.3748 0.9271 0.0030
vn -0.3760 0.9266 0.0042
vn -0.3751 0.9270 0.0040
vn -0.2479 0.9688 -0.0035
vn -0.2465 0.9691 -0.0003
vn -0.2409 0.9705 0.0023
vn -0.4382 0.8949 -0.0839
vn -0.4368 0.8989 0.0359
vn -0.4362 0.8991 0.0357
vn -0.4394 0.8975 0.0383
vn -0.4362 0.8991 0.0353
vn -0.4362 0.8995 -0.0272
vn -0.4359 0.8995 -0.0277
vn -0.4363 0.8994 -0.0272
vn -0.6015 0.7973 0.0501
vn -0.6062 0.7943 0.0402
vn -0.6020 0.7969 0.0492
vn -0.6017 0.7976 -0.0417
vn -0.6888 0.7237 0.0428
vn -0.8729 0.4833 -0.0663
vn -0.6062 0.7943 0.0395
vn -0.8210 0.5702 0.0280
vn -0.7472 0.6637 -0.0341
vn -0.8908 0.4544 0.0000
vn -0.9596 0.2812 0.0000
vn -0.8748 0.4843 -0.0093
vn -0.9090 0.4159 0.0276
vn -0.7635 0.6457 0.0088
vn -0.7192 0.6902 0.0801
vn -0.6986 0.7132 -0.0573
vn -0.7753 0.6316 0.0019
vn -0.9238 0.3829 -0.0036
vn -0.7356 0.6756 -0.0491
vn -0.7348 0.6749 0.0680
vn -0.8727 0.4865 0.0407
vn -0.9120 0.4073 -0.0490
vn -0.9778 0.2083 0.0207
vn -0.9630 0.2627 0.0595
vn -0.8732 0.4868 -0.0260
vn -0.5832 0.8100 0.0608
vn -0.5824 0.8089 -0.0800
vn -0.5655 0.8220 -0.0677
vn -0.5113 0.8594 -0.0056
vn -0.5115 0.8592 -0.0069
vn -0.5113 0.8594 -0.0054
vn -0.5115 0.8593 -0.0069
vn -0.3801 0.9249 0.0062
vn -0.5638 0.8195 0.1022
vn -0.6864 0.7212 -0.0939
vn -0.9955 0.0947 0.0000
vn -0.9368 0.3495 -0.0139
vn -0.9276 0.3725 -0.0284
vn -0.9278 0.3726 0.0186
vn -0.9778 0.2083 -0.0207
vn -0.9090 0.4159 -0.0276
vn -0.9238 0.3829 0.0036
vn -0.9120 0.4073 0.0490
vn -0.8727 0.4865 -0.0407
vn -0.7356 0.6756 0.0491
vn -0.7348 0.6749 -0.0680
vn -0.7753 0.6316 -0.0019
vn -0.5832 0.8100 -0.0608
vn -0.6986 0.7132 0.0573
vn -0.5824 0.8089 0.0800
vn -0.5416 0.8406 0.0004
vn -0.5362 0.8441 0.0057
vn -0.5429 0.8398 -0.0007
vn -0.5113 0.8594 0.0056
vn -0.5115 0.8592 0.0068
vn -0.5115 0.8593 0.0069
vn -0.3850 0.9229 0.0033
vn -0.3800 0.9249 -0.0062
vn -0.3778 0.9259 -0.0059
vn -0.3846 0.9230 0.0082
vn -0.3869 0.9221 0.0009
vn -0.3908 0.9204 0.0074
vn -0.4657 0.8790 -0.1024
vn -0.5349 0.8449 0.0070
vn -0.7429 0.6674 -0.0508
vn -0.7091 0.7050 -0.0086
vn -0.4460 -0.8948 -0.0199
vn -0.5446 -0.8386 0.0132
vn -0.6235 -0.7808 -0.0397
vn -0.5828 -0.8099 0.0667
vn -0.7172 -0.6900 0.0975
vn -0.7191 -0.6918 -0.0654
vn -0.8308 -0.5529 -0.0638
vn -0.8488 -0.5210 0.0896
vn -0.7180 -0.6936 0.0579
vn -0.6043 -0.7953 -0.0482
vn -0.7169 -0.6926 -0.0802
vn -0.4777 -0.8776 -0.0400
vn -0.4777 -0.8776 0.0408
vn -0.6888 -0.7246 -0.0234
vn -0.5966 -0.8019 0.0303
vn -0.3776 -0.9252 -0.0375
vn -0.4403 -0.8978 -0.0074
vn -0.4404 -0.8978 -0.0018
vn -0.4402 -0.8979 -0.0022
vn -0.3776 -0.9252 0.0373
vn -0.5959 -0.8009 -0.0594
vn -0.5512 -0.8344 0.0022
vn -0.5598 -0.8285 0.0143
vn -0.4404 -0.8977 -0.0080
vn -0.5359 -0.8424 0.0554
vn -0.1988 -0.9800 0.0075
vn -0.1960 -0.9806 0.0023
vn -0.2057 -0.9786 0.0016
vn -0.2056 -0.9786 -0.0031
vn -0.2153 -0.9765 0.0107
vn -0.3007 -0.9537 0.0012
vn -0.3025 -0.9531 -0.0031
vn -0.3013 -0.9535 -0.0064
vn -0.3429 -0.9393 -0.0108
vn -0.3429 -0.9394 0.0076
vn -0.3442 -0.9388 0.0104
vn -0.3434 -0.9392 0.0086
vn -0.2281 -0.9736 -0.0110
vn -0.2280 -0.9736 -0.0115
vn -0.3023 -0.9532 -0.0022
vn -0.1966 -0.9805 0.0034
vn -0.1922 -0.9813 -0.0068
vn -0.1906 -0.9817 -0.0045
vn -0.0869 -0.9962 0.0079
vn -0.0875 -0.9961 0.0081
vn -0.0864 -0.9963 -0.0030
vn -0.0875 -0.9962 -0.0032
vn -0.0752 -0.9972 0.0024
vn -0.0714 -0.9974 -0.0014
vn -0.0782 -0.9969 -0.0040
vn -0.0783 -0.9969 -0.0044
vn -0.1896 -0.9818 -0.0031
vn -0.1898 -0.9818 -0.0028
vn -0.1773 -0.9840 0.0157
vn -0.2704 -0.9625 -0.0215
vn -0.3007 -0.9537 0.0024
vn -0.0984 -0.9943 -0.0413
vn -0.0710 -0.9975 -0.0016
vn 0.0515 -0.9987 0.0020
vn 0.0726 -0.9973 -0.0142
vn 0.0186 0.9998 0.0075
vn 0.0157 0.9999 0.0019
vn 0.0213 0.9997 0.0103
vn 0.0925 0.9935 -0.0664
vn -0.0977 0.9951 -0.0148
vn 0.1379 0.9904 -0.0011
vn 0.1401 0.9901 -0.0013
vn 0.1361 0.9907 0.0015
vn 0.2565 0.9665 -0.0014
vn 0.2589 0.9659 0.0007
vn 0.2663 0.9639 0.0054
vn 0.2671 0.9636 0.0063
vn 0.3828 0.9238 -0.0061
vn 0.4042 0.9146 0.0084
vn 0.5272 0.8497 -0.0094
vn 0.2671 0.9636 0.0066
vn 0.4042 0.9147 -0.0064
vn 0.2746 0.9615 -0.0061
vn 0.2843 0.9587 0.0085
vn 0.4401 0.8965 0.0507
vn 0.4653 0.8850 -0.0165
vn 0.2843 0.9587 -0.0075
vn 0.4654 0.8850 0.0141
vn 0.4162 0.9092 -0.0086
vn 0.4159 0.9093 -0.0090
vn 0.4144 0.9100 -0.0110
vn 0.2775 0.9607 0.0078
vn 0.2764 0.9610 0.0052
vn 0.2791 0.9602 0.0104
vn 0.4414 0.8960 -0.0493
vn 0.2760 0.9611 0.0052
vn 0.1532 0.9882 0.0003
vn 0.1532 0.9882 -0.0045
vn 0.1405 0.9901 0.0046
vn 0.1405 0.9901 0.0032
vn 0.1407 0.9901 0.0026
vn 0.1443 0.9895 0.0078
vn 0.2900 0.9570 -0.0109
vn 0.1447 0.9894 0.0086
vn 0.1447 0.9894 -0.0120
vn 0.1359 0.9907 0.0017
vn 0.0148 0.9999 -0.0013
vn 0.0159 0.9999 -0.0027
vn 0.0179 0.9998 -0.0007
vn 0.0145 0.9999 -0.0017
vn 0.0261 0.9997 -0.0022
vn 0.0145 0.9993 0.0346
vn 0.1359 0.9905 -0.0203
vn 0.1399 0.9900 -0.0158
vn 0.1401 0.9900 -0.0157
vn 0.0318 0.9995 0.0007
vn 0.0255 0.9997 -0.0058
vn 0.0305 0.9995 0.0010
vn 0.1405 0.9901 0.0037
vn 0.0240 0.9997 0.0005
vn 0.1404 0.9900 -0.0152
vn -0.1261 0.9920 0.0010
vn -0.1269 0.9919 -0.0002
vn -0.1273 0.9919 -0.0010
vn -0.1274 0.9919 -0.0007
vn 0.0254 0.9997 0.0007
vn -0.1261 0.9920 0.0011
vn -0.1173 0.9929 -0.0171
vn 0.0256 0.9995 0.0181
vn 0.0352 0.9994 -0.0010
vn -0.1173 0.9931 -0.0007
vn -0.1164 0.9932 -0.0008
vn 0.0256 0.9997 0.0009
vn -0.1174 0.9931 -0.0010
vn -0.2816 0.9594 0.0191
vn -0.3051 0.9516 -0.0380
vn -0.2398 0.9708 -0.0035
vn -0.2732 0.9620 0.0016
vn -0.2726 0.9621 0.0011
vn -0.2730 0.9619 0.0146
vn -0.2726 0.9620 0.0151
vn -0.2818 0.9595 -0.0011
vn -0.4356 0.9001 0.0009
vn -0.4352 0.9004 -0.0000
vn -0.4358 0.9000 0.0012
vn -0.4345 0.9007 -0.0012
vn -0.4419 0.8969 -0.0147
vn -0.5785 0.8157 0.0010
vn -0.4311 0.9018 -0.0295
vn -0.6063 0.7941 0.0426
vn -0.5123 0.8588 0.0090
vn -0.5124 0.8587 0.0096
vn -0.5124 0.8587 0.0054
vn -0.6429 0.7643 -0.0510
vn -0.8159 0.5770 0.0367
vn -0.7201 0.6936 -0.0184
vn -0.8165 0.5774 -0.0066
vn -0.6437 0.7652 0.0071
vn -0.8446 0.5332 -0.0490
vn -0.7025 0.7090 0.0626
vn -0.6052 0.7946 -0.0485
vn -0.6052 0.7946 0.0485
vn -0.8453 0.5336 0.0280
vn -0.6780 0.7292 -0.0923
vn -0.5124 0.8587 -0.0010
vn -0.5124 0.8587 -0.0054
vn -0.5123 0.8588 -0.0090
vn -0.5124 0.8587 -0.0096
vn -0.6096 0.7920 0.0348
vn -0.6093 0.7916 -0.0472
vn -0.7751 0.6317 0.0068
vn -0.7464 0.6629 0.0593
vn -0.5785 0.8157 -0.0010
vn -0.4356 0.9001 -0.0009
vn -0.4345 0.9007 0.0012
vn -0.4419 0.8969 0.0147
vn -0.4311 0.9018 0.0295
vn -0.4313 0.9022 0.0009
vn -0.8794 0.4761 -0.0051
vn -0.8269 0.5621 0.0170
vn -0.7461 0.6626 -0.0655
vn -0.5124 0.8587 0.0010
vn -0.4313 0.9022 -0.0009
vn -0.6062 0.7943 -0.0395
vn -0.6062 0.7943 -0.0402
vn -0.6020 0.7969 -0.0492
vn -0.7472 0.6637 0.0341
vn -0.6017 0.7976 0.0417
vn -0.6888 0.7237 -0.0428
vn -0.6015 0.7973 -0.0501
vn -0.8210 0.5702 -0.0280
vn -0.8729 0.4833 0.0663
vn -0.7635 0.6457 -0.0088
vn -0.6864 0.7212 0.0939
vn -0.8748 0.4843 0.0093
vn -0.5638 0.8195 -0.1022
vn -0.5655 0.8220 0.0677
vn -0.7192 0.6902 -0.0801
vn -0.5113 0.8594 0.0054
vn -0.4382 0.8949 0.0839
vn -0.3751 0.9270 -0.0041
vn -0.3760 0.9266 -0.0041
vn -0.3748 0.9271 -0.0030
vn -0.3298 0.9440 0.0127
vn -0.4368 0.8988 -0.0359
vn -0.4362 0.8991 -0.0357
vn -0.4362 0.8991 -0.0353
vn -0.2409 0.9705 -0.0023
vn -0.2465 0.9691 0.0003
vn -0.2479 0.9688 0.0035
vn -0.2479 0.9685 -0.0242
vn -0.2471 0.9687 -0.0231
vn -0.2471 0.9687 -0.0229
vn -0.4394 0.8975 -0.0383
vn -0.2468 0.9691 0.0005
vn -0.3153 0.9485 0.0320
vn -0.2468 0.9688 -0.0228
vn -0.1101 0.9933 0.0354
vn -0.1050 0.9945 -0.0012
vn -0.1090 0.9940 0.0002
vn -0.1101 0.9939 0.0025
vn -0.2353 0.9719 0.0004
vn -0.1000 0.9950 -0.0000
vn -0.1077 0.9942 -0.0010
vn -0.2399 0.9708 0.0028
vn -0.2339 0.9723 0.0008
vn -0.2339 0.9722 0.0044
vn -0.1012 0.9949 0.0018
vn -0.1091 0.9940 -0.0044
vn -0.0988 0.9951 0.0007
vn 0.0281 0.9996 0.0004
vn 0.0281 0.9996 0.0055
vn 0.0197 0.9998 0.0017
vn 0.0153 0.9999 -0.0034
vn 0.0155 0.9999 -0.0029
vn 0.1379 0.9904 -0.0034
vn 0.1379 0.9904 -0.0056
vn -0.2453 0.9694 0.0034
vn -0.2452 0.9695 -0.0046
vn -0.2453 0.9694 -0.0036
vn -0.2452 0.9695 0.0043
vn -0.1091 0.9940 -0.0047
vn -0.2815 0.9586 -0.0435
vn -0.4359 0.8995 0.0277
vn -0.4356 0.8997 0.0281
vn -0.4362 0.8995 0.0272
vn -0.4363 0.8994 0.0272
vn -0.3558 0.9340 0.0313
vn 0.1697 0.9855 -0.0010
vn 0.1697 0.9854 -0.0152
vn 0.3205 0.9473 -0.0021
vn 0.3187 0.9479 0.0023
vn 0.3238 0.9461 0.0114
vn 0.3181 0.9481 0.0021
vn 0.3239 0.9460 0.0121
vn 0.1776 0.9840 -0.0160
vn 0.1801 0.9836 0.0019
vn 0.2267 0.9739 0.0141
vn 0.2281 0.9736 0.0131
vn 0.2206 0.9754 0.0048
vn 0.3122 0.9500 -0.0043
vn 0.3121 0.9496 0.0275
vn 0.1989 0.9795 0.0327
vn 0.3440 0.9387 -0.0210
vn 0.3642 0.9313 -0.0115
vn 0.3642 0.9313 -0.0047
vn 0.3645 0.9312 0.0019
vn 0.3642 0.9313 0.0022
vn 0.4459 0.8950 0.0116
vn 0.4763 0.8777 0.0524
vn 0.4769 0.8789 -0.0096
vn 0.5454 0.8381 -0.0098
vn 0.5193 0.8535 -0.0434
vn 0.4140 0.9102 -0.0115
vn 0.3438 0.9382 0.0389
vn 0.5197 0.8541 0.0190
vn 0.2899 0.9566 -0.0297
vn 0.2299 0.9732 0.0044
vn 0.2298 0.9732 0.0051
vn 0.4500 0.8930 -0.0017
vn 0.4684 0.8831 -0.0272
vn 0.1532 0.9882 0.0051
vn 0.2470 -0.9688 -0.0215
vn 0.4276 -0.9030 -0.0426
vn 0.3451 -0.9385 0.0142
vn 0.1963 -0.9804 -0.0144
vn 0.1999 -0.9797 0.0125
vn 0.3837 -0.9208 0.0703
vn 0.4054 -0.9127 -0.0508
vn 0.3178 -0.9480 0.0151
vn 0.1607 -0.9869 0.0146
vn 0.1607 -0.9865 -0.0310
vn 0.2307 -0.9730 0.0119
vn 0.3178 -0.9480 -0.0185
vn 0.0289 -0.9996 0.0042
vn 0.0492 -0.9987 -0.0141
vn 0.0289 -0.9995 -0.0141
vn 0.0286 -0.9995 -0.0134
vn 0.0285 -0.9995 -0.0131
vn 0.1270 -0.9918 0.0109
vn 0.1297 -0.9915 0.0035
vn 0.1265 -0.9919 0.0123
vn 0.1299 -0.9915 0.0028
vn 0.0245 -0.9997 -0.0025
vn -0.2599 0.9656 -0.0075
vn -0.6777 -0.7353 -0.0104
vn -0.6641 -0.7476 0.0086
vn -0.7973 -0.6034 -0.0158
vn -0.7138 -0.6999 0.0254
vn -0.8376 -0.5449 -0.0394
vn -0.8378 -0.5450 0.0342
vn -0.3457 -0.9383 0.0134
vn -0.7964 -0.6028 0.0495
vn -0.8108 -0.5848 0.0218
vn -0.9218 -0.3856 0.0406
vn -0.9220 -0.3857 -0.0346
vn -0.9788 -0.2040 -0.0199
vn -0.9653 -0.2553 -0.0557
vn -0.8861 -0.4630 0.0193
vn -0.7981 -0.6013 -0.0381
vn -0.9630 0.2627 -0.0595
vn -0.8732 0.4868 0.0260
vn -0.4358 0.9000 -0.0012
vn -0.4356 0.8997 -0.0281
vn -0.2352 0.9719 -0.0004
vn -0.1090 0.9940 -0.0002
vn -0.1050 0.9945 0.0012
vn -0.1101 0.9939 -0.0025
vn 0.0179 0.9998 0.0007
vn 0.0159 0.9999 0.0027
vn 0.0148 0.9999 0.0013
vn 0.0305 0.9995 -0.0010
vn 0.0255 0.9997 0.0058
vn 0.0318 0.9995 -0.0007
vn -0.1274 0.9919 0.0007
vn -0.1101 0.9933 -0.0354
vn 0.0145 0.9993 -0.0346
vn 0.0145 0.9999 0.0017
vn 0.1359 0.9907 -0.0017
vn 0.1400 0.9900 0.0155
vn 0.1398 0.9900 0.0157
vn 0.1359 0.9905 0.0203
vn 0.1447 0.9894 0.0120
vn 0.2298 0.9732 -0.0052
vn 0.2299 0.9732 -0.0044
vn 0.2267 0.9739 -0.0141
vn 0.2281 0.9736 -0.0131
vn 0.1404 0.9900 0.0152
vn 0.2206 0.9754 -0.0048
vn 0.1405 0.9901 -0.0037
vn 0.1989 0.9795 -0.0327
vn 0.3121 0.9496 -0.0275
vn 0.3239 0.9460 -0.0121
vn 0.1776 0.9840 0.0160
vn 0.3122 0.9500 0.0043
vn 0.3440 0.9387 0.0210
vn 0.3645 0.9312 -0.0019
vn 0.3642 0.9313 -0.0022
vn 0.3642 0.9313 0.0047
vn 0.3642 0.9313 0.0115
vn 0.3438 0.9382 -0.0389
vn 0.4459 0.8950 -0.0116
vn 0.4140 0.9102 0.0115
vn 0.4159 0.9093 0.0090
vn 0.4144 0.9100 0.0110
vn 0.5193 0.8535 0.0434
vn 0.5197 0.8541 -0.0190
vn 0.5454 0.8381 0.0098
vn 0.4763 0.8777 -0.0524
vn 0.4162 0.9092 0.0086
vn 0.4414 0.8960 0.0493
vn 0.5960 0.8021 -0.0391
vn 0.5960 0.8021 0.0390
vn 0.4654 0.8850 -0.0141
vn 0.6978 0.7151 -0.0408
vn 0.4653 0.8850 0.0165
vn 0.6979 0.7151 0.0405
vn 0.4401 0.8965 -0.0507
vn 0.8126 0.5818 -0.0341
vn 0.9378 0.3376 0.0805
vn 0.9380 0.3376 -0.0787
vn 0.9273 0.3713 -0.0479
vn 0.7912 0.6113 0.0205
vn 0.9281 0.3716 -0.0219
vn 0.7906 0.6108 0.0436
vn 0.9898 0.1164 0.0823
vn 0.7676 0.6366 0.0751
vn 0.9034 -0.4250 0.0564
vn 0.9712 -0.2370 -0.0229
vn 0.9960 0.0751 0.0486
vn 0.8549 -0.4845 0.1853
vn 0.7388 -0.6724 0.0441
vn 0.7388 -0.6724 -0.0444
vn 0.8537 -0.5187 -0.0454
vn 0.6597 -0.7478 -0.0749
vn 0.6392 -0.7673 0.0519
vn 0.8544 -0.5191 0.0247
vn 0.7505 -0.6605 -0.0242
vn 0.5781 -0.8158 0.0180
vn 0.5280 -0.8468 0.0634
vn 0.5280 -0.8469 -0.0634
vn 0.7500 -0.6600 0.0441
vn 0.7043 -0.7093 -0.0286
vn 0.6659 -0.7439 0.0564
vn 0.8312 -0.5558 -0.0168
vn 0.7928 -0.6044 -0.0779
vn 0.7742 -0.6307 0.0538
vn 0.6654 -0.7434 -0.0674
vn 0.6175 -0.7863 -0.0181
vn 0.4811 -0.8766 0.0112
vn 0.4911 -0.8707 0.0256
vn 0.5200 -0.8537 -0.0277
vn 0.6663 -0.7444 0.0446
vn 0.7315 -0.6814 -0.0245
vn 0.7313 -0.6812 0.0356
vn 0.5743 -0.8175 -0.0427
vn 0.5338 -0.8456 -0.0012
vn 0.5727 -0.8153 0.0851
vn 0.5180 -0.8549 -0.0286
vn 0.3749 -0.9271 0.0010
vn 0.3738 -0.9275 0.0016
vn 0.3704 -0.9289 0.0035
vn 0.3748 -0.9269 0.0165
vn 0.5099 -0.8590 0.0448
vn 0.4638 -0.8860 -0.0032
vn 0.3428 -0.9394 0.0029
vn 0.3468 -0.9379 -0.0014
vn 0.3421 -0.9397 0.0037
vn 0.3435 -0.9390 -0.0146
vn 0.3484 -0.9374 -0.0035
vn 0.3421 -0.9396 0.0038
vn 0.3566 -0.9340 -0.0224
vn 0.4536 -0.8911 0.0154
vn 0.4536 -0.8911 -0.0154
vn 0.5193 -0.8540 0.0329
vn 0.5193 -0.8540 -0.0329
vn 0.3566 -0.9340 0.0224
vn 0.3421 -0.9396 -0.0038
vn 0.3468 -0.9380 0.0015
vn 0.3421 -0.9397 -0.0037
vn 0.4638 -0.8860 0.0032
vn 0.6500 -0.7576 -0.0590
vn 0.7489 -0.6607 0.0511
vn 0.6500 -0.7576 0.0590
vn 0.7489 -0.6607 -0.0511
vn 0.6703 -0.7380 -0.0780
vn 0.6944 -0.7189 -0.0316
vn 0.8812 -0.4716 0.0324
vn 0.8812 -0.4716 -0.0322
vn 0.8036 -0.5943 0.0325
vn 0.6703 -0.7380 0.0780
vn 0.6944 -0.7189 0.0316
vn 0.8036 -0.5943 -0.0325
vn 0.8812 -0.4716 0.0322
vn 0.8812 -0.4716 -0.0324
vn 0.5099 -0.8590 -0.0448
vn 0.5180 -0.8549 0.0286
vn 0.5727 -0.8153 -0.0851
vn 0.9548 -0.2956 -0.0315
vn 0.9549 -0.2956 0.0277
vn 0.8037 -0.5944 0.0288
vn 0.9146 -0.4034 -0.0290
vn 0.9146 -0.4034 0.0284
vn 0.9963 -0.0833 0.0213
vn 0.9798 -0.1988 -0.0228
vn 0.9963 -0.0833 -0.0217
vn 1.0000 -0.0040 -0.0043
vn 0.9800 -0.1988 0.0105
vn 0.9932 0.1141 -0.0213
vn 0.9639 0.2636 -0.0362
vn 0.9641 0.2637 0.0302
vn 0.9995 -0.0044 -0.0304
vn 0.9995 -0.0040 -0.0302
vn 0.9995 -0.0051 -0.0308
vn 0.7313 -0.6812 -0.0356
vn 0.5743 -0.8175 0.0427
vn 0.9146 -0.4034 -0.0284
vn 0.8731 -0.4872 0.0199
vn 0.9146 -0.4034 0.0290
vn 0.8037 -0.5944 -0.0288
vn 0.9496 -0.3127 0.0237
vn 0.8730 -0.4871 -0.0244
vn 0.9798 -0.1988 0.0228
vn 0.9798 -0.1988 -0.0224
vn 0.9484 -0.3123 0.0546
vn 0.9998 -0.0041 0.0215
vn 0.9557 -0.2826 0.0820
vn 0.9998 -0.0041 -0.0214
vn 0.9539 0.2994 0.0218
vn 0.9932 0.1141 -0.0217
vn 0.9531 0.2992 0.0463
vn 0.3696 -0.9292 0.0039
vn 0.3595 -0.9330 -0.0151
vn 0.5277 -0.8478 -0.0532
vn 0.9553 -0.2825 -0.0866
vn 0.5191 -0.8525 0.0609
vn 0.4054 -0.9127 0.0508
vn 0.3837 -0.9208 -0.0703
vn 0.5179 -0.8506 -0.0912
vn 0.3451 -0.9385 -0.0142
vn 0.4276 -0.9030 0.0426
vn 0.6131 -0.7889 0.0422
vn 0.3828 0.9238 0.0061
vn 0.5272 0.8497 0.0094
vn 0.4042 0.9146 -0.0084
vn 0.2663 0.9639 -0.0054
vn 0.2671 0.9636 -0.0063
vn 0.2589 0.9659 -0.0007
vn 0.4042 0.9147 0.0064
vn 0.2671 0.9636 -0.0066
vn 0.2746 0.9615 0.0061
vn 0.2565 0.9665 0.0014
vn 0.1361 0.9907 -0.0015
vn 0.1401 0.9901 0.0013
vn 0.1380 0.9904 0.0011
vn 0.1379 0.9904 0.0034
vn 0.1379 0.9904 0.0056
vn 0.1532 0.9882 -0.0003
vn 0.1532 0.9882 -0.0051
vn 0.1407 0.9901 -0.0026
vn 0.1405 0.9901 -0.0032
vn 0.1405 0.9901 -0.0046
vn 0.1532 0.9882 0.0045
vn 0.0281 0.9996 -0.0004
vn 0.0261 0.9997 0.0022
vn 0.0197 0.9998 -0.0017
vn 0.0281 0.9996 -0.0055
vn 0.1443 0.9895 -0.0078
vn 0.1447 0.9894 -0.0086
vn 0.2900 0.9570 0.0109
vn 0.2791 0.9602 -0.0104
vn 0.2764 0.9610 -0.0052
vn 0.2775 0.9607 -0.0078
vn 0.2760 0.9611 -0.0052
vn 0.2843 0.9587 -0.0085
vn 0.2843 0.9587 0.0075
vn 0.9704 -0.2368 -0.0467
vn 0.9969 0.0751 0.0212
vn 0.9139 0.4053 -0.0221
vn 0.8128 0.5819 0.0292
vn 0.6509 0.7591 0.0074
vn 0.7716 0.6361 -0.0110
vn 0.6509 0.7591 -0.0121
vn 0.2899 0.9566 0.0297
vn 0.4769 0.8789 0.0096
vn 0.1801 0.9836 -0.0019
vn 0.3205 0.9473 0.0021
vn 0.3192 0.9477 -0.0001
vn 0.3201 0.9474 0.0015
vn 0.1697 0.9854 0.0152
vn 0.3181 0.9481 -0.0021
vn 0.1697 0.9855 0.0010
vn 0.0254 0.9997 -0.0007
vn 0.0240 0.9997 -0.0005
vn 0.0256 0.9997 -0.0009
vn 0.0256 0.9995 -0.0181
vn 0.2124 0.9767 0.0288
vn 0.1800 0.9828 -0.0406
vn 0.1514 0.9885 0.0010
vn 0.0352 0.9994 0.0010
vn 0.0357 0.9994 0.0010
vn 0.1514 0.9883 -0.0166
vn 0.2278 0.9737 0.0099
vn 0.1652 0.9857 -0.0333
vn 0.3276 0.9447 -0.0139
vn 0.3241 0.9459 -0.0162
vn 0.3284 0.9444 -0.0134
vn 0.3240 0.9459 -0.0165
vn 0.3274 0.9448 0.0164
vn 0.3204 0.9470 0.0252
vn 0.3280 0.9445 0.0152
vn 0.3284 0.9444 0.0151
vn 0.4684 0.8831 0.0272
vn 0.4500 0.8930 0.0017
vn 0.6003 0.7988 0.0390
vn 0.5865 0.8098 0.0172
vn 0.4314 0.9021 0.0093
vn 0.5865 0.8098 -0.0172
vn 0.9866 -0.1614 0.0220
vn 0.9739 0.2257 0.0217
vn 0.6509 0.7591 0.0121
vn 0.9995 -0.0053 -0.0308
vn 0.9993 -0.0053 0.0363
vn 0.9880 0.1526 -0.0220
vn 0.9790 -0.2006 -0.0376
vn 0.9790 -0.2006 0.0376
vn 0.9034 -0.4250 -0.0564
vn 0.9211 -0.3872 0.0395
vn 0.3506 -0.9365 0.0020
vn 0.2286 -0.9735 0.0061
vn 0.2288 -0.9735 0.0063
vn 0.2288 -0.9734 0.0067
vn 0.2244 -0.9745 -0.0033
vn 0.1150 -0.9933 -0.0064
vn 0.1171 -0.9931 -0.0087
vn 0.1160 -0.9932 -0.0074
vn 0.1151 -0.9933 0.0022
vn 0.1885 -0.9814 0.0357
vn 0.1147 -0.9934 0.0026
vn -0.0144 -0.9999 -0.0045
vn -0.0138 -0.9999 -0.0048
usemtl Default_OBJ.309
s 1
f 1//1 2//2 3//3
f 4//4 2//4 1//4
f 4//5 5//5 2//5
f 3//3 2//2 6//6
f 2//7 7//7 6//7
f 5//8 8//9 2//10
f 2//10 8//9 7//11
f 5//12 9//13 8//14
f 10//15 5//16 4//17
f 10//18 9//13 5//12
f 9//13 11//19 8//14
f 12//20 9//21 10//22
f 12//20 13//23 9//21
f 9//21 13//23 11//24
f 14//25 13//26 12//25
f 11//24 13//23 15//27
f 13//28 16//29 15//30
f 14//31 17//31 13//31
f 17//32 16//32 13//32
f 18//33 16//33 17//33
f 19//34 16//35 18//34
f 15//30 16//29 19//36
f 20//37 21//38 18//37
f 18//37 22//39 20//37
f 18//40 17//40 22//40
f 21//41 23//41 18//41
f 18//34 24//42 19//34
f 18//43 23//43 24//43
f 25//44 23//44 26//44
f 24//45 23//45 25//45
f 21//46 27//46 23//46
f 23//47 27//48 26//49
f 28//50 27//51 21//52
f 26//49 27//48 29//53
f 29//54 27//51 28//50
f 30//55 29//56 31//56
f 29//57 28//57 31//57
f 30//58 32//59 29//60
f 29//53 32//61 26//49
f 30//55 31//56 33//62
f 30//58 34//63 32//59
f 33//62 34//64 30//55
f 34//65 35//65 32//65
f 34//66 36//66 35//66
f 37//67 34//64 33//62
f 38//68 36//69 34//70
f 37//67 38//71 34//64
f 33//72 39//72 37//72
f 39//73 40//73 37//73
f 37//74 40//74 41//74
f 41//75 42//75 37//75
f 42//76 38//71 37//67
f 43//77 38//77 42//77
f 42//78 44//78 43//78
f 41//79 45//79 42//79
f 45//80 44//80 42//80
f 43//81 44//81 46//81
f 46//82 44//82 47//82
f 47//83 44//83 48//83
f 48//84 44//84 45//84
f 49//85 47//85 48//85
f 48//86 45//86 50//86
f 51//85 48//85 50//85
f 51//85 49//85 48//85
f 49//87 52//87 53//87
f 51//88 52//88 49//88
f 49//85 54//85 47//85
f 49//89 53//89 54//89
f 52//90 55//91 53//92
f 53//93 56//94 57//95
f 53//92 55//91 56//96
f 53//93 58//97 54//98
f 57//95 58//97 53//93
f 59//99 58//100 60//101
f 60//101 58//100 57//102
f 54//103 58//100 59//99
f 59//104 60//105 61//106
f 61//106 62//107 59//104
f 54//108 59//108 63//108
f 59//104 62//107 63//109
f 63//110 62//110 64//110
f 64//111 62//112 65//113
f 65//113 62//112 61//114
f 63//85 64//85 66//85
f 64//85 67//85 66//85
f 64//115 65//115 68//115
f 64//116 68//116 69//116
f 64//85 69//85 67//85
f 70//117 71//117 67//117
f 67//118 71//118 66//118
f 69//85 72//85 67//85
f 72//119 70//119 67//119
f 73//120 74//120 70//120
f 70//121 74//121 71//121
f 73//122 70//122 72//122
f 75//123 73//123 76//123
f 75//124 74//124 73//124
f 76//125 73//125 77//125
f 77//126 73//126 72//126
f 76//127 78//127 75//127
f 79//128 78//128 76//128
f 79//129 76//129 77//129
f 80//130 79//130 81//130
f 81//130 79//130 77//130
f 82//131 83//131 79//131
f 82//132 79//132 80//132
f 79//133 83//133 84//133
f 84//134 78//134 79//134
f 81//135 85//135 80//135
f 80//136 86//136 82//136
f 85//137 87//137 80//137
f 88//138 86//138 80//138
f 80//139 87//139 88//139
f 86//140 89//140 82//140
f 86//141 90//141 91//141
f 88//142 90//142 86//142
f 91//143 89//143 86//143
f 91//144 92//144 89//144
f 89//145 92//145 93//145
f 82//146 89//146 93//146
f 94//147 92//147 91//147
f 93//148 92//148 95//148
f 94//149 6//149 92//149
f 92//150 6//150 95//150
f 96//151 97//151 95//151
f 95//152 7//152 96//152
f 6//153 7//153 95//153
f 95//154 98//154 99//154
f 95//155 99//155 93//155
f 95//156 97//156 98//156
f 100//157 101//158 97//159
f 97//159 101//158 102//160
f 97//161 102//161 98//161
f 103//162 97//162 96//162
f 103//163 100//163 97//163
f 104//164 100//164 103//164
f 104//165 105//165 100//165
f 100//166 105//167 101//168
f 105//167 106//169 101//168
f 15//170 105//170 104//170
f 15//171 25//172 105//173
f 105//173 25//172 106//174
f 106//174 25//172 107//175
f 108//176 106//174 107//175
f 101//168 106//169 109//177
f 109//177 106//169 108//178
f 101//158 109//179 102//160
f 102//180 109//180 110//180
f 110//181 109//182 108//183
f 108//183 111//184 110//181
f 112//185 102//185 110//185
f 110//186 113//186 112//186
f 110//187 114//188 113//189
f 110//190 111//191 114//192
f 115//193 111//194 116//195
f 114//192 111//191 115//196
f 107//175 111//197 108//176
f 117//198 111//199 107//200
f 116//201 111//199 117//198
f 117//202 107//203 26//203
f 26//204 32//205 117//206
f 117//198 118//207 116//201
f 32//205 119//208 117//206
f 117//198 119//209 118//207
f 118//210 120//211 121//212
f 118//207 119//209 120//213
f 122//214 118//214 121//214
f 116//195 118//215 122//216
f 122//216 115//193 116//195
f 123//217 115//218 122//219
f 122//220 121//220 123//220
f 123//221 121//221 124//221
f 125//222 115//218 123//217
f 126//223 125//224 123//225
f 123//225 124//226 126//223
f 121//227 127//227 124//227
f 124//228 128//228 129//228
f 124//229 129//229 126//229
f 130//230 128//230 124//230
f 124//231 127//231 130//231
f 127//232 131//232 132//232
f 127//233 132//233 130//233
f 133//234 134//235 127//236
f 121//237 133//234 127//236
f 127//236 134//235 131//238
f 132//239 131//239 135//239
f 131//240 134//241 136//242
f 136//242 137//243 131//240
f 131//244 137//244 138//244
f 135//245 131//245 138//245
f 63//85 135//85 138//85
f 138//246 137//246 47//246
f 54//85 138//85 47//85
f 54//85 63//85 138//85
f 63//85 66//85 135//85
f 66//247 132//247 135//247
f 136//248 46//249 137//250
f 137//250 46//249 47//251
f 136//242 134//241 139//252
f 140//253 136//248 139//254
f 140//253 46//249 136//248
f 139//254 120//255 140//253
f 120//256 35//256 140//256
f 35//257 36//257 140//257
f 36//258 141//259 140//260
f 140//260 141//259 43//261
f 43//262 46//262 140//262
f 43//263 141//264 38//68
f 38//68 141//264 36//69
f 139//252 133//265 120//211
f 139//252 134//241 133//265
f 120//211 133//265 121//212
f 66//266 71//266 132//266
f 71//267 74//267 132//267
f 132//268 74//268 130//268
f 75//269 142//269 130//269
f 130//270 74//270 75//270
f 130//271 142//271 128//271
f 78//272 142//272 75//272
f 128//273 142//273 78//273
f 129//274 128//274 143//274
f 143//275 128//275 78//275
f 144//276 145//276 143//276
f 84//277 144//277 143//277
f 145//278 129//278 143//278
f 143//279 78//279 84//279
f 146//280 125//280 145//280
f 147//281 146//281 145//281
f 147//282 145//282 144//282
f 126//283 129//283 145//283
f 145//284 125//284 126//284
f 148//285 147//285 149//285
f 148//286 146//286 147//286
f 149//287 147//287 150//287
f 150//288 147//288 144//288
f 150//289 99//289 149//289
f 149//285 98//285 148//285
f 99//290 98//290 149//290
f 150//291 144//291 83//291
f 150//292 83//292 151//292
f 151//293 99//293 150//293
f 93//294 99//294 151//294
f 151//295 83//295 82//295
f 93//296 151//296 82//296
f 98//297 102//298 148//299
f 148//299 102//298 112//300
f 112//301 113//302 148//303
f 148//303 113//302 146//304
f 113//302 125//305 146//304
f 83//306 144//306 84//306
f 114//188 115//307 125//308
f 113//189 114//188 125//308
f 119//309 35//309 120//309
f 32//310 35//310 119//310
f 107//203 25//311 26//203
f 152//312 11//312 104//312
f 103//313 152//313 104//313
f 104//314 11//314 15//314
f 8//14 11//19 152//315
f 8//9 152//316 7//11
f 7//317 152//317 103//317
f 96//318 7//318 103//318
f 91//319 153//319 94//319
f 3//320 6//320 94//320
f 94//320 153//320 3//320
f 90//321 153//321 91//321
f 154//322 155//322 153//322
f 154//323 153//323 90//323
f 153//324 155//324 3//324
f 156//325 157//326 155//327
f 154//328 156//328 155//328
f 155//327 157//326 3//329
f 156//330 158//331 157//332
f 3//329 157//326 1//333
f 1//334 157//334 4//334
f 157//332 158//331 4//335
f 159//336 158//331 156//330
f 159//337 160//338 158//339
f 158//340 160//340 4//340
f 10//22 160//341 12//20
f 4//17 160//342 10//15
f 12//20 160//341 161//343
f 162//344 160//338 159//337
f 161//345 160//346 162//347
f 14//25 12//25 161//348
f 161//349 163//350 14//351
f 162//347 164//352 161//345
f 161//349 165//353 163//350
f 164//354 165//355 161//356
f 166//357 165//355 164//354
f 165//358 167//358 163//358
f 166//359 167//359 165//359
f 167//360 168//360 169//360
f 170//361 168//361 167//361
f 163//362 167//362 169//362
f 170//363 167//363 166//363
f 163//364 169//365 171//366
f 169//367 168//367 172//367
f 173//368 169//369 172//370
f 174//371 169//372 173//373
f 171//374 169//372 174//371
f 171//366 175//375 163//364
f 176//376 175//376 171//374
f 174//371 176//376 171//374
f 177//377 178//378 176//379
f 179//380 177//380 176//380
f 176//381 180//382 179//383
f 176//384 178//384 175//384
f 174//385 180//382 176//381
f 179//386 180//386 181//386
f 181//387 180//387 182//387
f 183//388 180//388 174//388
f 182//389 180//389 183//389
f 183//390 184//390 182//390
f 184//391 185//391 182//391
f 186//392 181//392 182//392
f 182//393 185//393 186//393
f 186//394 185//394 187//394
f 188//395 189//395 186//395
f 186//396 187//396 188//396
f 186//397 189//397 181//397
f 187//398 185//398 190//398
f 191//399 192//399 187//399
f 191//400 187//400 193//400
f 187//401 190//401 193//401
f 187//402 192//402 188//402
f 190//403 185//403 184//403
f 190//404 184//404 194//404
f 193//405 190//405 194//405
f 195//406 196//406 194//406
f 194//407 196//407 197//407
f 194//408 198//408 195//408
f 194//409 197//409 193//409
f 194//410 184//410 198//410
f 173//411 198//411 183//411
f 198//412 184//412 183//412
f 195//413 198//413 173//413
f 197//414 199//414 200//414
f 201//415 199//415 197//415
f 197//416 196//416 201//416
f 197//417 200//417 193//417
f 202//418 201//418 203//418
f 204//419 201//419 202//419
f 201//420 196//420 203//420
f 204//421 199//421 201//421
f 204//422 205//422 206//422
f 206//423 199//423 204//423
f 202//422 207//422 204//422
f 204//422 207//422 205//422
f 205//424 208//424 209//424
f 205//425 209//425 206//425
f 205//426 210//426 208//426
f 205//427 211//427 210//427
f 207//428 211//428 205//428
f 210//429 211//429 212//429
f 213//430 214//430 211//430
f 207//431 213//431 211//431
f 211//432 214//432 212//432
f 212//433 215//433 216//433
f 216//434 208//435 212//436
f 208//435 210//437 212//436
f 212//438 217//438 215//438
f 214//439 217//439 212//439
f 215//440 217//440 218//440
f 219//441 217//441 220//441
f 218//442 217//442 219//442
f 217//443 221//443 220//443
f 214//444 221//444 217//444
f 218//445 222//445 223//445
f 223//446 215//446 218//446
f 219//447 224//447 218//447
f 218//448 224//448 222//448
f 224//449 225//449 226//449
f 227//450 224//450 226//450
f 222//451 224//451 227//451
f 219//452 228//452 224//452
f 228//453 225//453 224//453
f 226//454 229//454 227//454
f 227//455 230//455 231//455
f 231//456 232//456 227//456
f 227//457 229//457 230//457
f 232//458 222//458 227//458
f 231//459 230//459 233//459
f 233//460 230//460 234//460
f 230//461 229//461 235//461
f 234//462 230//462 235//462
f 234//463 236//463 237//463
f 237//464 238//464 234//464
f 238//465 233//465 234//465
f 235//466 239//466 234//466
f 234//467 240//467 236//467
f 234//468 239//468 240//468
f 240//469 239//469 241//469
f 239//470 242//470 243//470
f 241//471 239//471 243//471
f 235//472 242//472 239//472
f 241//473 244//473 245//473
f 241//474 245//474 236//474
f 236//475 240//475 241//475
f 243//476 246//476 241//476
f 241//477 246//477 244//477
f 247//478 246//478 248//478
f 244//479 246//479 247//479
f 243//480 249//480 246//480
f 246//481 249//481 248//481
f 248//482 249//482 250//482
f 249//483 251//483 250//483
f 243//484 251//484 249//484
f 251//485 252//485 253//485
f 250//486 251//486 253//486
f 254//487 252//487 251//487
f 255//488 254//488 251//488
f 255//489 251//489 243//489
f 256//490 254//490 255//490
f 243//491 242//491 255//491
f 255//492 257//492 256//492
f 242//493 257//493 255//493
f 258//494 257//494 259//494
f 259//495 257//495 260//495
f 260//496 257//496 261//496
f 256//497 257//497 258//497
f 261//498 257//498 242//498
f 262//499 260//499 261//499
f 235//500 261//500 242//500
f 262//501 261//501 235//501
f 263//502 260//502 262//502
f 262//503 264//503 263//503
f 265//504 264//504 262//504
f 235//505 265//505 262//505
f 229//506 265//506 235//506
f 229//507 266//507 265//507
f 265//508 266//508 264//508
f 226//509 266//509 229//509
f 267//510 266//510 226//510
f 264//511 266//511 268//511
f 269//512 266//512 267//512
f 268//513 266//513 269//513
f 263//514 264//514 268//514
f 268//515 269//516 270//517
f 268//518 270//519 263//520
f 263//520 270//519 271//521
f 270//522 272//522 271//522
f 269//516 273//523 270//517
f 270//524 273//524 274//524
f 274//525 272//525 270//525
f 274//526 275//526 272//526
f 272//527 275//527 276//527
f 271//528 272//528 276//528
f 274//529 277//530 275//531
f 276//532 275//532 278//532
f 275//531 277//530 278//533
f 278//534 277//535 279//536
f 278//537 279//537 280//537
f 281//538 282//539 278//540
f 278//541 282//542 283//543
f 278//544 283//544 276//544
f 280//545 281//545 278//545
f 284//546 281//547 280//548
f 280//549 279//550 284//551
f 285//552 286//552 284//552
f 284//553 287//553 285//553
f 284//546 286//554 281//547
f 279//550 287//555 284//551
f 286//556 288//556 281//556
f 289//557 286//557 285//557
f 289//558 288//558 286//558
f 281//538 288//559 282//539
f 290//560 291//561 288//562
f 290//563 288//563 289//563
f 288//559 291//564 292//565
f 282//539 288//559 292//565
f 293//566 291//561 290//560
f 292//567 291//567 293//567
f 293//568 294//569 292//570
f 295//571 294//569 293//568
f 293//572 296//572 295//572
f 290//573 297//573 293//573
f 293//574 297//574 298//574
f 298//575 296//575 293//575
f 295//576 296//577 299//578
f 299//578 296//577 300//579
f 300//580 296//580 298//580
f 300//581 301//582 302//583
f 300//584 302//585 299//586
f 303//587 301//587 300//587
f 300//588 304//589 303//590
f 298//591 304//589 300//588
f 298//592 305//593 304//594
f 304//595 305//596 306//597
f 304//598 306//598 303//598
f 303//599 306//599 307//599
f 307//600 306//600 308//600
f 306//597 305//596 309//601
f 308//602 306//602 310//602
f 310//603 306//603 309//603
f 310//604 311//604 308//604
f 308//605 311//605 312//605
f 308//606 313//606 307//606
f 312//607 313//607 308//607
f 313//608 314//608 307//608
f 313//609 315//609 314//609
f 316//610 315//610 313//610
f 313//611 317//611 316//611
f 312//612 317//612 313//612
f 65//613 317//613 68//613
f 316//614 317//614 65//614
f 68//615 317//615 318//615
f 318//616 317//616 312//616
f 77//617 318//617 312//617
f 69//618 318//618 77//618
f 68//619 318//619 69//619
f 61//620 315//620 316//620
f 316//621 65//621 61//621
f 314//622 315//622 301//622
f 315//623 319//624 301//625
f 61//626 319//624 315//623
f 302//583 319//627 60//105
f 301//582 319//627 302//583
f 60//105 319//627 61//106
f 303//628 314//628 301//628
f 307//629 314//629 303//629
f 77//630 312//630 320//630
f 312//605 311//605 320//605
f 81//630 320//630 321//630
f 77//630 320//630 81//630
f 320//631 311//631 322//631
f 320//632 322//632 323//632
f 321//605 320//605 324//605
f 324//633 320//633 323//633
f 321//634 325//634 81//634
f 324//635 326//635 321//635
f 326//636 327//636 321//636
f 321//637 327//637 325//637
f 325//638 327//638 328//638
f 328//639 327//639 329//639
f 329//640 327//640 330//640
f 330//641 327//641 326//641
f 330//642 331//642 332//642
f 326//643 331//643 330//643
f 332//644 329//644 330//644
f 333//645 329//646 332//647
f 331//648 334//649 332//650
f 332//651 334//652 335//653
f 332//651 335//653 336//654
f 336//654 333//655 332//651
f 337//656 333//655 336//654
f 338//657 333//657 337//657
f 338//658 329//646 333//645
f 338//422 337//422 339//422
f 340//422 338//422 341//422
f 340//659 328//659 338//659
f 328//660 329//660 338//660
f 341//422 338//422 339//422
f 339//422 337//422 342//422
f 342//661 343//661 339//661
f 343//662 344//662 339//662
f 339//663 344//663 341//663
f 343//664 345//664 344//664
f 341//665 344//665 346//665
f 344//666 345//666 346//666
f 347//667 345//667 348//667
f 346//668 345//668 347//668
f 348//669 345//669 349//669
f 349//670 345//670 343//670
f 349//671 350//671 348//671
f 351//672 352//672 349//672
f 343//673 351//673 349//673
f 349//674 353//674 350//674
f 352//675 353//675 349//675
f 352//676 354//676 355//676
f 356//677 352//678 355//679
f 351//680 354//680 352//680
f 352//681 357//681 353//681
f 356//682 357//682 352//682
f 356//683 154//683 357//683
f 355//679 156//684 356//677
f 356//685 156//685 154//685
f 354//686 358//687 166//688
f 166//688 164//689 354//686
f 354//690 164//690 359//690
f 351//691 358//692 354//693
f 355//694 354//694 359//694
f 359//695 159//696 355//697
f 162//344 159//337 359//698
f 359//698 164//699 162//344
f 360//700 358//692 351//691
f 361//701 358//687 360//702
f 166//688 358//687 361//701
f 361//701 360//702 362//703
f 361//704 362//705 170//706
f 170//706 166//707 361//704
f 363//708 364//709 362//710
f 362//710 364//709 170//711
f 363//712 362//703 365//713
f 362//703 360//702 365//713
f 366//714 363//714 365//714
f 366//715 365//715 342//715
f 365//716 360//700 351//691
f 365//239 351//239 343//239
f 342//232 365//232 343//232
f 367//717 363//717 366//717
f 337//422 368//422 366//422
f 366//422 368//422 367//422
f 342//422 337//422 366//422
f 367//718 364//709 363//708
f 367//719 369//719 364//719
f 370//720 369//720 367//720
f 367//422 371//422 370//422
f 368//422 371//422 367//422
f 372//721 373//722 371//723
f 371//724 373//724 374//724
f 368//725 372//725 371//725
f 371//422 374//422 370//422
f 370//422 374//422 375//422
f 374//422 376//422 375//422
f 373//726 377//727 374//728
f 374//729 377//730 376//731
f 377//730 378//732 376//731
f 376//733 378//733 379//733
f 376//422 379//422 375//422
f 379//734 378//734 213//734
f 375//422 379//422 202//422
f 379//422 207//422 202//422
f 379//735 213//735 207//735
f 380//736 378//732 377//730
f 213//737 378//737 380//737
f 380//738 377//738 381//738
f 382//739 380//739 381//739
f 213//740 380//740 214//740
f 214//741 380//741 382//741
f 381//742 383//742 382//742
f 382//743 383//743 214//743
f 383//744 384//745 221//746
f 383//747 385//748 384//749
f 214//750 383//750 221//750
f 381//751 385//748 383//747
f 386//752 385//753 381//752
f 386//754 387//755 385//756
f 385//756 387//755 388//757
f 385//758 389//758 384//758
f 388//757 389//759 385//756
f 390//760 389//760 388//760
f 390//761 388//761 391//761
f 392//762 388//763 393//764
f 391//765 388//763 392//762
f 388//763 387//766 393//764
f 392//767 394//767 391//767
f 391//768 394//769 390//770
f 392//771 395//772 394//773
f 394//774 396//774 397//774
f 395//772 396//775 394//773
f 390//770 394//769 397//776
f 398//777 395//778 399//779
f 399//779 395//778 392//780
f 400//781 396//775 395//772
f 398//777 400//782 395//778
f 398//783 401//783 400//783
f 274//784 402//784 400//784
f 400//785 277//530 274//529
f 400//786 403//787 277//535
f 400//781 402//788 396//775
f 401//789 403//787 400//786
f 277//535 403//787 279//536
f 404//790 403//790 405//790
f 287//791 403//791 404//791
f 279//792 403//792 287//792
f 405//793 403//794 401//795
f 405//793 401//795 398//796
f 406//797 405//797 398//797
f 407//798 405//799 406//800
f 408//801 405//799 407//798
f 404//802 405//802 408//802
f 409//803 408//803 407//803
f 404//804 408//804 410//804
f 409//805 411//805 408//805
f 410//806 408//807 412//808
f 408//809 411//809 412//809
f 322//810 411//810 413//810
f 413//811 411//811 409//811
f 414//812 411//812 322//812
f 412//813 411//813 414//813
f 311//814 415//814 414//814
f 414//815 415//815 416//815
f 414//816 416//816 285//816
f 285//817 412//817 414//817
f 322//818 311//818 414//818
f 416//819 415//819 417//819
f 285//820 416//821 418//822
f 416//821 419//823 418//822
f 416//824 417//824 419//824
f 419//825 417//825 309//825
f 417//826 415//826 310//826
f 309//827 417//827 310//827
f 309//828 305//828 419//828
f 305//829 290//799 419//830
f 419//831 290//831 289//831
f 418//832 419//832 289//832
f 285//833 418//833 289//833
f 310//834 415//834 311//834
f 322//835 413//835 323//835
f 323//836 413//836 409//836
f 410//806 412//808 285//837
f 404//838 410//838 285//838
f 409//839 407//840 420//841
f 409//842 420//842 323//842
f 421//843 420//843 422//843
f 423//844 420//844 421//844
f 420//841 407//840 422//845
f 323//846 420//846 324//846
f 324//847 420//847 423//847
f 423//848 424//848 326//848
f 421//849 424//849 423//849
f 423//850 326//850 324//850
f 425//851 424//851 421//851
f 425//852 331//852 424//852
f 424//853 331//853 326//853
f 425//854 334//649 331//648
f 426//855 425//855 421//855
f 427//856 334//652 425//857
f 427//856 425//857 426//858
f 428//859 429//859 426//859
f 426//860 422//861 428//862
f 430//863 427//864 426//865
f 426//866 429//867 430//868
f 421//869 422//861 426//860
f 429//870 398//870 399//870
f 428//871 398//871 429//871
f 430//868 429//867 399//872
f 430//873 399//873 392//873
f 392//874 431//875 430//876
f 430//863 431//877 427//864
f 393//878 431//875 392//874
f 432//879 431//875 393//878
f 335//880 431//877 432//881
f 427//864 431//877 335//880
f 433//882 335//880 432//881
f 372//883 433//884 432//879
f 393//878 434//885 432//879
f 432//879 434//885 372//883
f 386//886 435//887 434//888
f 434//889 435//890 372//721
f 393//764 387//766 434//888
f 434//888 387//766 386//886
f 373//726 435//891 377//727
f 377//727 435//891 386//892
f 372//721 435//890 373//722
f 336//893 335//894 433//895
f 336//893 433//895 368//896
f 368//897 433//884 372//883
f 428//898 406//898 398//898
f 407//899 406//900 428//901
f 422//902 407//899 428//901
f 335//653 334//652 427//856
f 285//903 287//903 404//903
f 396//904 402//904 436//904
f 436//905 402//905 274//905
f 436//906 273//906 269//906
f 437//907 436//908 269//909
f 438//910 436//908 437//907
f 438//911 396//911 436//911
f 274//912 273//912 436//912
f 439//913 397//914 438//915
f 439//916 438//916 440//916
f 438//917 437//917 440//917
f 397//918 396//918 438//918
f 439//919 440//919 441//919
f 441//920 440//921 442//922
f 440//921 437//923 442//922
f 442//924 443//924 441//924
f 442//925 228//925 443//925
f 442//926 437//926 228//926
f 443//927 228//927 220//927
f 441//928 443//928 220//928
f 221//746 384//745 441//929
f 441//930 384//930 439//930
f 220//931 221//931 441//931
f 384//932 389//932 439//932
f 439//913 389//933 390//934
f 390//934 397//914 439//913
f 437//935 269//935 267//935
f 228//936 437//936 267//936
f 381//752 377//937 386//752
f 375//938 444//938 370//938
f 202//939 203//939 375//939
f 375//940 203//940 444//940
f 445//941 369//941 444//941
f 444//942 369//942 370//942
f 203//943 196//943 444//943
f 444//944 196//944 195//944
f 195//945 445//945 444//945
f 446//946 369//946 445//946
f 445//947 172//947 446//947
f 173//368 172//370 445//948
f 195//949 173//949 445//949
f 170//950 364//950 446//950
f 364//951 369//951 446//951
f 446//952 447//953 170//954
f 172//955 447//956 446//957
f 172//955 168//958 447//956
f 447//953 168//959 170//954
f 337//960 336//960 368//960
f 357//961 154//961 448//961
f 353//962 357//962 448//962
f 87//963 353//963 448//963
f 448//964 154//964 90//964
f 448//965 90//965 88//965
f 88//966 87//966 448//966
f 355//697 159//696 156//967
f 350//968 353//968 87//968
f 348//969 350//969 87//969
f 85//970 347//970 348//970
f 348//971 87//971 85//971
f 81//972 347//972 85//972
f 449//973 347//973 81//973
f 449//974 346//974 347//974
f 81//422 340//422 449//422
f 449//422 340//422 341//422
f 341//975 346//975 449//975
f 81//976 325//976 340//976
f 340//977 325//977 328//977
f 305//829 297//978 290//799
f 298//592 297//979 305//593
f 302//585 60//101 450//980
f 302//585 450//980 299//586
f 450//980 60//101 57//102
f 451//878 450//981 57//95
f 452//982 450//981 451//878
f 299//983 450//981 452//982
f 451//984 453//985 452//986
f 454//987 294//988 452//989
f 452//990 294//569 295//571
f 452//991 295//991 299//991
f 455//992 454//992 452//992
f 452//986 453//985 455//993
f 455//994 453//994 456//994
f 456//995 454//996 455//997
f 453//998 457//998 456//998
f 456//999 457//1000 458//1001
f 458//1001 459//1002 456//999
f 459//1003 454//996 456//995
f 460//1004 459//1002 458//1001
f 459//1005 461//1005 454//1005
f 460//1006 461//1006 459//1006
f 462//1007 463//1007 460//1007
f 463//1008 464//1008 460//1008
f 464//1009 461//1009 460//1009
f 462//1010 460//1010 458//1010
f 465//1011 462//1011 458//1011
f 466//1012 463//1013 462//1014
f 466//1012 462//1014 465//1015
f 458//1016 467//1016 465//1016
f 465//1017 468//1017 466//1017
f 465//1018 467//1019 469//1020
f 470//1021 468//1021 465//1021
f 465//1022 469//1022 470//1022
f 252//1023 468//1023 470//1023
f 466//1024 468//1024 252//1024
f 467//1019 471//1025 469//1020
f 469//1026 471//1026 472//1026
f 469//1027 472//1027 473//1027
f 470//1028 469//1028 473//1028
f 472//1029 471//1029 474//1029
f 472//431 475//431 476//431
f 472//1030 476//1030 477//1030
f 474//1031 478//1031 472//1031
f 473//1032 472//1032 477//1032
f 472//1033 478//1033 475//1033
f 479//1034 473//1034 477//1034
f 480//1035 479//1035 477//1035
f 477//1036 481//1036 480//1036
f 477//1037 482//1037 481//1037
f 477//1038 476//1038 482//1038
f 481//1039 482//1039 483//1039
f 482//1040 476//1040 483//1040
f 484//1041 481//1041 483//1041
f 485//85 486//85 483//85
f 483//85 486//85 484//85
f 483//1042 476//1042 485//1042
f 484//1043 487//1043 488//1043
f 488//1044 489//1044 484//1044
f 489//1045 481//1045 484//1045
f 486//1046 487//1046 484//1046
f 490//1047 487//1047 491//1047
f 491//1048 487//1048 486//1048
f 488//1049 487//1049 490//1049
f 491//1050 492//1050 490//1050
f 490//1051 492//1051 493//1051
f 494//1052 488//1052 490//1052
f 494//1053 490//1053 493//1053
f 40//1054 495//1054 493//1054
f 41//1055 40//1055 493//1055
f 493//1056 492//1056 41//1056
f 493//1057 496//1057 494//1057
f 493//1058 495//1058 496//1058
f 495//1059 497//1059 496//1059
f 494//1060 496//1060 498//1060
f 496//1061 497//1061 498//1061
f 498//1062 497//1062 499//1062
f 499//1063 497//1063 500//1063
f 500//1064 497//1064 495//1064
f 500//1065 39//1065 501//1065
f 500//1066 495//1066 39//1066
f 500//1067 501//1067 502//1067
f 500//1068 502//1068 499//1068
f 502//1069 503//1069 499//1069
f 504//1070 503//1070 502//1070
f 504//1071 502//1071 505//1071
f 502//1072 501//1072 505//1072
f 505//1073 506//1073 504//1073
f 505//1074 507//1074 506//1074
f 505//1075 501//1076 31//1077
f 31//1078 507//1078 505//1078
f 506//1079 507//1079 508//1079
f 508//1080 507//1080 509//1080
f 507//1081 21//1082 509//1083
f 31//1084 28//1084 507//1084
f 507//1081 28//1085 21//1082
f 509//1083 21//1082 20//1086
f 510//1087 509//1087 20//1087
f 508//1088 509//1088 510//1088
f 510//1089 511//1089 512//1089
f 510//1090 512//1090 513//1090
f 513//1091 508//1091 510//1091
f 20//1092 511//1092 510//1092
f 20//1093 22//1094 511//1095
f 511//1095 22//1094 177//377
f 512//1096 511//1096 177//1096
f 513//1097 512//1097 514//1097
f 513//1098 514//1098 237//1098
f 515//1099 508//1099 513//1099
f 237//1100 515//1100 513//1100
f 506//1101 508//1101 515//1101
f 504//1102 506//1102 515//1102
f 237//1103 236//1103 515//1103
f 236//1104 245//1104 515//1104
f 515//1105 245//1105 504//1105
f 514//1106 512//1106 516//1106
f 514//1107 516//1107 517//1107
f 518//1108 514//1108 517//1108
f 518//1109 238//1109 514//1109
f 514//1110 238//1110 237//1110
f 512//1111 177//1111 516//1111
f 516//1112 177//1112 179//1112
f 517//1113 516//1113 179//1113
f 231//1114 238//1114 518//1114
f 231//1115 518//1115 519//1115
f 189//1116 518//1116 517//1116
f 519//1117 518//1117 189//1117
f 188//1118 519//1118 189//1118
f 520//1119 232//1119 519//1119
f 520//1120 519//1120 188//1120
f 519//1121 232//1121 231//1121
f 192//1122 521//1122 520//1122
f 188//1123 192//1123 520//1123
f 520//478 521//478 223//478
f 223//1124 232//1124 520//1124
f 521//1125 215//1125 223//1125
f 216//1126 215//1126 521//1126
f 216//1127 521//1128 192//1129
f 181//1130 189//1130 517//1130
f 179//1131 181//1131 517//1131
f 503//1132 244//1132 522//1132
f 499//1133 503//1133 522//1133
f 245//1134 244//1134 503//1134
f 245//1135 503//1135 504//1135
f 522//1136 523//1136 498//1136
f 522//1137 498//1137 499//1137
f 522//1138 244//1138 247//1138
f 247//1139 523//1139 522//1139
f 498//1140 523//1140 494//1140
f 247//1141 524//1141 523//1141
f 494//1142 523//1142 480//1142
f 523//1143 524//1143 480//1143
f 248//1144 479//1144 524//1144
f 248//1145 524//1145 247//1145
f 524//1146 479//1146 480//1146
f 31//1077 501//1076 33//1147
f 501//1148 39//1148 33//1148
f 39//1149 495//1149 40//1149
f 480//1150 488//1150 494//1150
f 525//1151 492//1151 491//1151
f 41//1152 492//1152 45//1152
f 45//1153 492//1153 525//1153
f 525//1154 491//1154 526//1154
f 45//1155 525//1155 50//1155
f 50//1156 525//1156 526//1156
f 526//1157 491//1157 486//1157
f 485//85 527//85 526//85
f 485//85 526//85 486//85
f 527//85 50//85 526//85
f 527//85 528//85 50//85
f 527//1158 529//1158 528//1158
f 485//1159 475//1159 527//1159
f 475//1160 529//1160 527//1160
f 528//1161 529//1162 530//1163
f 478//1164 529//1164 475//1164
f 530//1163 529//1162 478//1165
f 531//1166 530//1166 478//1166
f 528//1161 530//1163 51//1167
f 51//1168 530//1169 52//1170
f 530//1169 55//1171 52//1170
f 532//1172 55//1171 530//1169
f 532//1173 530//1174 531//1173
f 533//1175 534//1176 532//1177
f 531//1173 533//1178 532//1173
f 532//1179 534//1180 56//1181
f 56//1181 55//1182 532//1179
f 56//1181 534//1180 451//984
f 451//984 534//1180 453//985
f 453//1183 534//1176 533//1175
f 453//1183 533//1175 457//1184
f 457//1185 533//1185 467//1185
f 467//1186 533//1187 471//1188
f 471//1188 533//1187 531//1189
f 531//1190 478//1190 474//1190
f 474//1191 471//1191 531//1191
f 528//85 51//85 50//85
f 480//1192 489//1192 488//1192
f 480//1193 481//1193 489//1193
f 476//430 475//430 485//430
f 250//1194 479//1194 248//1194
f 250//1195 473//1195 479//1195
f 470//1196 473//1196 253//1196
f 253//1197 473//1197 250//1197
f 253//1198 252//1198 470//1198
f 458//1199 457//1199 467//1199
f 252//1200 463//1200 466//1200
f 535//1201 464//1201 536//1201
f 536//1202 464//1203 258//1204
f 535//1205 537//1205 464//1205
f 258//1204 464//1203 463//1206
f 537//1207 461//1207 464//1207
f 292//1208 461//1209 537//1210
f 292//1211 537//1211 535//1211
f 538//1212 535//1212 539//1212
f 535//1213 536//1213 539//1213
f 283//1214 535//1214 538//1214
f 282//542 292//1215 535//1216
f 283//543 282//542 535//1216
f 276//1217 283//1217 538//1217
f 271//1218 538//1218 539//1218
f 276//1219 538//1219 271//1219
f 263//1220 539//1221 259//1222
f 271//1223 539//1221 263//1220
f 539//1224 536//1225 258//1226
f 539//1224 258//1226 259//1227
f 256//1228 463//1228 252//1228
f 258//1229 463//1229 256//1229
f 294//988 461//1209 292//1208
f 454//987 461//1209 294//988
f 57//95 56//94 451//878
f 226//1230 225//1230 267//1230
f 267//1231 225//1231 228//1231
f 259//1232 260//1232 263//1232
f 256//1233 252//1233 254//1233
f 231//1234 233//1234 238//1234
f 223//1235 222//1235 232//1235
f 220//1236 228//1236 219//1236
f 216//1127 192//1129 191//1237
f 216//1238 191//1238 209//1238
f 209//1239 208//1239 216//1239
f 209//1240 191//1240 200//1240
f 206//1241 209//1241 200//1241
f 200//1242 199//1242 206//1242
f 200//1243 191//1243 193//1243
f 173//1244 183//1244 174//1244
f 178//1245 540//1246 175//1247
f 22//1248 540//1246 178//1245
f 177//377 22//1094 178//378
f 540//1249 17//1250 14//1251
f 175//1252 540//1249 14//1251
f 22//1253 17//1253 540//1253
f 163//1254 175//1252 14//1251
f 69//85 77//85 72//85
f 15//30 24//1255 25//1256
f 19//36 24//1255 15//30
