# Blender v3.0.1 OBJ File: ''
# www.blender.org
mtllib Large_Long_3Prong_JeansBlue.mtl
o obj1.028_obj1.008
v 16.994242 20.294250 71.466354
v 16.000803 20.346323 16.466352
v 16.000803 20.346323 21.466352
v -15.679195 20.346323 16.466352
v 13.063906 19.881149 71.466354
v 12.363779 19.622873 21.466352
v -15.679195 20.346323 21.466352
v 9.641386 17.905159 71.466354
v 9.280462 17.562662 21.466352
v -11.813572 19.524660 21.466352
v 7.318469 14.707941 71.466354
v 7.220252 14.479340 21.466352
v 7.318469 6.976684 71.466354
v 6.496805 10.842310 71.466354
v 6.496805 10.842316 21.466352
v -6.640355 13.779213 21.466352
v -8.616348 17.201738 21.466352
v -10.927197 19.073013 71.466354
v -7.990300 16.428619 71.466354
v -18.616093 19.881149 71.466354
v -24.361532 14.707941 71.466354
v -14.685758 20.294250 71.466354
v -22.038612 17.905159 71.466354
v -22.038612 17.905182 -38.533649
v -24.361532 14.707963 -38.533649
v -25.183195 10.842310 71.466354
v -25.183195 10.842332 -38.533649
v -31.519196 21.930336 -38.533649
v -31.519196 -3.537009 -38.533649
v -31.519196 21.930342 -78.533653
v -30.882549 24.306341 -78.533653
v -26.767197 26.682335 -38.533649
v -30.882549 24.306335 -38.533649
v -29.143196 26.045691 -78.533653
v -26.767197 26.682341 -78.533653
v -29.143196 26.045685 -38.533649
v -31.519196 -3.537005 -78.533653
v -30.127367 -6.897174 -78.533653
v 30.448977 -6.897174 -78.533653
v 27.088804 26.682341 -78.533653
v 31.840803 -3.537005 -78.533653
v 31.204157 -5.913005 -78.533653
v 31.204157 -5.913009 -38.533649
v 30.448977 -6.897178 -38.533649
v 6.304632 -31.041512 -78.533653
v 6.304632 -31.041519 -38.533653
v 5.320458 -31.796700 -78.533653
v 2.944462 -32.433342 -78.533653
v -5.983026 -31.041512 -78.533653
v -2.622854 -32.433342 -78.533653
v -4.998855 -31.796700 -78.533653
v -4.998855 -31.796707 -38.533653
v -5.983026 -31.041519 -38.533653
v -30.127367 -6.897178 -38.533649
v -8.521532 -20.458977 -38.533649
v -6.198615 -23.656197 -38.533649
v -2.776094 -25.632195 -38.533649
v -3.852762 -32.271435 -38.533653
v -2.622854 -32.433353 -38.533653
v -2.776094 -25.632217 71.466354
v 1.154242 -26.045288 -38.533649
v 2.944462 -32.433353 -38.533653
v -3.852762 -32.271423 -78.533653
v 4.174367 -32.271435 -38.533653
v 4.174367 -32.271423 -78.533653
v 5.320458 -31.796707 -38.533653
v 7.849702 -22.179688 71.466354
v -6.198615 -23.656219 71.466354
v 1.154242 -26.045311 71.466354
v -8.521532 -20.459000 71.466354
v -9.343197 -16.593376 71.466354
v 4.912807 -24.824081 71.466354
v 7.849702 -22.179665 -38.533649
v 8.391508 -21.345366 16.466345
v 4.912807 -24.824059 -38.533649
v 8.391508 -21.345366 21.466345
v 9.457117 -14.617376 71.466354
v 9.457117 -18.569366 71.466354
v 7.849702 -11.007063 71.466354
v -8.521532 -12.727750 71.466354
v 24.231508 6.090317 21.466352
v 9.600542 -17.696714 21.466345
v 21.452074 3.057099 21.466352
v 9.265535 -13.867592 21.466345
v 7.441289 -10.484313 21.466345
v 17.651155 1.482704 21.466345
v 16.994242 1.390375 71.466354
v 13.540987 1.662163 21.466345
v 20.752806 2.611605 71.466354
v 23.689703 5.255997 71.466354
v 20.752806 19.073013 71.466354
v 25.297117 8.866319 71.466354
v 23.689703 16.428619 71.466354
v 23.689703 16.428644 -38.533649
v 20.752806 19.073036 -38.533649
v 27.088804 26.682335 -38.533649
v 16.994242 20.294273 -38.533649
v -14.685758 20.294273 -38.533649
v -10.927197 19.073036 -38.533649
v 13.063906 19.881172 -38.533649
v 29.464804 26.045691 -78.533653
v 31.204157 24.306335 -38.533649
v 31.840803 21.930336 -38.533649
v 29.464804 26.045685 -38.533649
v -11.813572 19.524660 16.466352
v -8.616348 17.201738 16.466352
v 9.641386 17.905182 -38.533649
v -7.990300 16.428644 -38.533649
v 7.318469 14.707963 -38.533649
v 9.280462 17.562662 16.466352
v 12.363779 19.622873 16.466352
v 7.220252 14.479340 16.466352
v -6.382882 12.818330 -38.533649
v 6.496805 10.842332 -38.533649
v -6.227262 9.848877 16.466352
v -6.382882 8.866342 -38.533649
v -6.640355 13.779213 16.466352
v -7.448491 6.090317 16.466352
v 7.387255 6.825753 16.466352
v 6.496805 10.842316 16.466352
v 7.318469 6.976708 -38.533649
v -7.990300 5.256021 -38.533649
v 1.154242 -7.141418 -38.533649
v 9.641386 3.779487 -38.533649
v -10.092886 3.153420 16.466352
v -10.927197 2.611625 -38.533649
v -2.776094 -7.554512 -38.533649
v -13.703203 1.546006 16.466345
v -6.361238 -9.680405 16.466345
v -3.089756 -7.662530 16.466345
v -6.198615 -9.530501 -38.533649
v 0.713413 -7.105445 16.466345
v -8.521532 -12.727729 -38.533649
v -14.685758 1.390395 -38.533649
v -9.343197 -16.593353 -38.533649
v -8.565922 -12.829025 16.466345
v -18.616093 1.803489 -38.533649
v -21.265507 3.153420 16.466352
v -22.038612 3.779487 -38.533649
v -17.655190 1.546006 16.466345
v -23.909903 6.090317 16.466352
v -8.770035 -19.843924 16.466345
v -9.198809 -18.243719 16.466345
v -9.343197 -16.593367 16.466345
v -8.069902 -21.345366 16.466345
v -8.069902 -21.345366 21.466345
v -23.909903 6.090317 21.466352
v -8.770035 -19.843924 21.466345
v -21.265507 3.153420 21.466352
v -9.198809 -18.243719 21.466345
v -9.343197 -16.593367 21.466345
v -17.655190 1.546006 21.466345
v -8.565922 -12.829025 21.466345
v -13.703203 1.546006 21.466345
v -6.361238 -9.680405 21.466345
v -6.198615 -9.530523 71.466354
v -10.092886 3.153420 21.466352
v -3.089756 -7.662530 21.466345
v -2.776094 -7.554534 71.466354
v 1.154242 -7.141441 71.466354
v 0.713413 -7.105445 21.466345
v -7.448491 6.090317 21.466352
v 7.387255 6.825753 21.466352
v 9.891752 3.561829 21.466352
v 4.426190 -8.100281 21.466345
v -6.227262 9.848877 21.466352
v 9.641386 3.779466 71.466354
v 13.063906 1.803469 71.466354
v -6.382882 12.818308 71.466354
v -6.382882 8.866319 71.466354
v -7.990300 5.255997 71.466354
v -10.927197 2.611605 71.466354
v -24.361532 6.976684 71.466354
v -24.361532 6.976708 -38.533649
v -22.038612 3.779466 71.466354
v -14.685758 1.390375 71.466354
v -18.616093 1.803469 71.466354
v 4.912807 -8.362669 71.466354
v 9.891752 3.561829 16.466352
v 4.426190 -8.100281 16.466345
v 13.540987 1.662163 16.466345
v 7.441289 -10.484313 16.466345
v 4.912807 -8.362647 -38.533649
v 13.063906 1.803489 -38.533649
v 7.849702 -11.007041 -38.533649
v 16.994242 1.390395 -38.533649
v 9.265535 -13.867592 16.466345
v 9.457117 -14.617355 -38.533649
v 17.651155 1.482705 16.466345
v 21.452074 3.057099 16.466352
v 9.600542 -17.696714 16.466345
v 24.231508 6.090317 16.466352
v 9.457117 -18.569344 -38.533649
v 23.689703 5.256021 -38.533649
v 25.297117 8.866342 -38.533649
v 20.752806 2.611625 -38.533649
v 31.840803 -3.537009 -38.533649
v 31.678885 -4.766913 -38.533649
v 31.678885 -4.766909 -78.533653
v 25.297117 12.818308 71.466354
v 25.297117 12.818330 -38.533649
v -18.616093 19.881172 -38.533649
v 31.840803 21.930342 -78.533653
v 31.204157 24.306341 -78.533653
v -30.882549 -5.913009 -38.533649
v -30.882549 -5.913005 -78.533653
v -31.357277 -4.766913 -38.533649
v -31.357277 -4.766909 -78.533653
vn 0.0523 0.9986 0.0000
vn 0.0000 1.0000 0.0000
vn -0.1045 0.9945 0.0031
vn -0.1951 0.9808 -0.0023
vn 0.0000 0.0000 1.0000
vn -0.5556 0.8315 -0.0017
vn -0.5000 0.8660 0.0025
vn -0.8090 0.5878 0.0018
vn -0.8315 0.5556 -0.0009
vn -0.9801 0.1986 0.0003
vn -0.9781 0.2079 0.0010
vn -0.9789 0.2044 0.0007
vn -0.9808 0.1951 0.0000
vn 0.5878 0.8090 -0.0031
vn 0.6691 0.7431 0.0031
vn 0.8660 0.5000 -0.0031
vn 0.3090 0.9511 0.0031
vn -0.8090 0.5878 0.0000
vn -0.9781 0.2079 0.0000
vn -1.0000 0.0000 0.0000
vn -0.9659 0.2588 0.0000
vn -0.7071 0.7071 0.0000
vn 0.0000 0.0000 -1.0000
vn -0.2588 0.9659 0.0000
vn 0.7934 -0.6088 -0.0000
vn 0.7071 -0.7071 -0.0000
vn 0.6088 -0.7934 -0.0000
vn -0.6088 -0.7934 -0.0000
vn -0.7071 -0.7071 -0.0000
vn -0.5000 -0.8660 -0.0000
vn -0.1045 -0.9945 -0.0000
vn 0.0000 -1.0000 -0.0000
vn -0.1305 -0.9914 -0.0000
vn -0.3827 -0.9239 -0.0000
vn 0.1305 -0.9914 -0.0000
vn 0.3827 -0.9239 -0.0000
vn 0.8387 -0.5446 -0.0000
vn 0.6691 -0.7431 -0.0000
vn 0.9135 -0.4067 0.0031
vn 0.3090 -0.9511 -0.0000
vn 0.8660 -0.5000 0.0000
vn 0.9492 -0.3145 -0.0028
vn 1.0000 0.0000 0.0029
vn 0.9962 0.0872 -0.0025
vn 0.8802 0.4746 -0.0022
vn 0.9135 0.4067 0.0026
vn -0.0436 -0.9990 -0.0024
vn 0.3827 -0.9239 -0.0029
vn 0.3090 -0.9511 0.0023
vn 0.6691 -0.7431 0.0027
vn 0.7373 -0.6756 -0.0033
vn 0.6691 0.7431 0.0000
vn 0.3090 0.9511 0.0000
vn 0.2588 0.9659 0.0000
vn 0.3090 0.9511 -0.0028
vn 0.5878 0.8090 0.0028
vn 0.6691 0.7431 -0.0028
vn -0.8090 0.5878 -0.0016
vn -0.5556 0.8315 0.0015
vn -0.5000 0.8660 -0.0023
vn -0.8315 0.5556 0.0008
vn -0.9801 0.1987 -0.0003
vn -0.9789 0.2043 -0.0006
vn -0.9781 0.2079 -0.0009
vn 1.0000 0.0000 -0.0028
vn 0.9135 0.4067 -0.0028
vn 0.9945 0.1045 0.0028
vn 0.9511 -0.3090 0.0028
vn -0.9763 -0.2164 0.0006
vn -0.9776 -0.2103 0.0002
vn -0.9768 -0.2140 0.0004
vn -0.9781 -0.2079 -0.0000
vn -0.8090 -0.5878 -0.0006
vn 0.6691 -0.7431 -0.0028
vn 0.9135 -0.4067 -0.0028
vn 0.7431 -0.6691 0.0028
vn 0.4067 -0.9135 0.0028
vn -0.5250 0.8511 0.0008
vn -0.1449 0.9894 0.0011
vn -0.5000 0.8660 -0.0012
vn -0.8090 0.5878 -0.0008
vn -0.9790 0.2039 -0.0001
vn -0.9785 0.2063 -0.0003
vn -0.9781 0.2079 -0.0004
vn -0.8192 0.5736 0.0004
vn -0.5000 -0.8660 -0.0028
vn -0.1045 -0.9945 -0.0028
vn -0.4067 -0.9135 0.0028
vn -0.7431 -0.6691 0.0028
vn -0.9962 -0.0872 -0.0000
vn -0.9793 0.2022 0.0000
vn -0.9781 -0.2079 -0.0037
vn -0.9659 -0.2588 -0.0015
vn -0.9063 -0.4226 0.0006
vn -0.8660 -0.5000 0.0000
vn -0.7771 -0.6293 -0.0000
vn -0.8090 -0.5878 -0.0028
vn -0.9063 -0.4226 -0.0007
vn -0.8090 -0.5878 0.0031
vn -0.9659 -0.2588 0.0016
vn -0.9781 -0.2079 0.0040
vn -0.9790 0.2038 0.0001
vn -0.9785 0.2063 0.0003
vn -0.8192 0.5736 -0.0004
vn -0.9781 0.2079 0.0004
vn -0.8090 0.5878 0.0009
vn -0.5250 0.8511 -0.0008
vn -0.5000 0.8660 0.0013
vn -0.1045 0.9945 0.0016
vn -0.1449 0.9894 -0.0012
vn 0.2588 0.9659 -0.0016
vn -0.7934 -0.6088 -0.0013
vn -0.9768 -0.2141 -0.0005
vn -0.9776 -0.2103 -0.0002
vn -0.9763 -0.2164 -0.0007
vn -0.8090 -0.5878 0.0007
vn -0.5000 -0.8660 0.0013
vn -0.1045 -0.9945 0.0018
vn -0.4617 -0.8870 -0.0019
vn 0.9945 0.1045 -0.0031
vn 1.0000 0.0000 0.0031
vn 0.9511 -0.3090 -0.0031
vn 0.9135 0.4067 0.0031
vn 0.6691 -0.7431 0.0031
vn 0.7431 -0.6691 -0.0031
vn -0.8910 -0.4540 -0.0000
vn -0.1045 -0.9945 0.0031
vn 0.3090 -0.9511 0.0031
vn 0.0000 -1.0000 -0.0031
vn -0.5000 -0.8660 0.0031
vn -0.4067 -0.9135 -0.0031
vn -0.7431 -0.6691 -0.0031
vn 0.4067 -0.9135 -0.0031
vn 0.6202 0.7844 -0.0019
vn 0.3090 0.9511 0.0020
vn 0.6691 0.7431 0.0023
vn 0.0000 -1.0000 0.0028
vn 0.3090 -0.9511 -0.0028
vn 0.2588 0.9659 0.0014
vn -0.1045 0.9945 -0.0015
vn 0.6202 0.7844 0.0017
vn 0.3090 0.9511 -0.0018
vn 0.6691 0.7431 -0.0021
vn 0.9135 0.4067 -0.0024
vn 0.8802 0.4746 0.0020
vn 0.9962 0.0872 0.0023
vn 0.9492 -0.3145 0.0025
vn 1.0000 0.0000 -0.0026
vn 0.7373 -0.6756 0.0030
vn 0.9336 -0.3584 -0.0000
vn 0.6691 -0.7431 -0.0025
vn 1.0000 0.0000 0.0000
vn 0.9914 -0.1305 -0.0000
vn 0.9239 -0.3827 -0.0000
vn 0.3090 -0.9511 -0.0021
vn 0.3827 -0.9239 0.0026
vn 0.9135 0.4067 0.0000
vn -0.0436 -0.9990 0.0022
vn -0.1045 -0.9945 -0.0016
vn -0.4617 -0.8870 0.0017
vn -0.5000 -0.8660 -0.0012
vn -0.7934 -0.6088 0.0012
vn 0.8660 0.5000 0.0028
vn -0.1951 0.9808 0.0021
vn 0.2079 0.9781 0.0028
vn -0.1045 0.9945 -0.0028
vn -0.5000 0.8660 0.0000
vn -0.1564 0.9877 0.0000
vn 0.7071 0.7071 0.0000
vn 0.9659 0.2588 0.0000
vn -0.7934 -0.6088 -0.0000
vn -0.9239 -0.3827 -0.0000
vn -0.9914 -0.1305 -0.0000
vn 0.2079 0.9781 -0.0031
usemtl Default_OBJ.295
s 1
f 1//1 2//1 3//1
f 2//2 4//2 3//2
f 5//3 1//3 3//3
f 5//4 3//4 6//4
f 3//2 4//2 7//2
f 3//5 7//5 6//5
f 8//6 6//6 9//6
f 6//5 10//5 9//5
f 6//5 7//5 10//5
f 8//7 5//7 6//7
f 11//8 8//8 9//8
f 5//5 8//5 11//5
f 11//9 9//9 12//9
f 5//5 11//5 13//5
f 11//5 14//5 13//5
f 14//10 11//11 12//12
f 14//10 12//12 15//13
f 12//5 16//5 15//5
f 12//5 17//5 16//5
f 9//5 17//5 12//5
f 9//5 10//5 17//5
f 18//14 17//14 10//14
f 18//15 19//15 17//15
f 19//16 16//16 17//16
f 18//5 20//5 21//5
f 18//5 22//5 20//5
f 22//17 18//17 10//17
f 19//5 18//5 21//5
f 20//5 23//5 21//5
f 21//18 23//18 24//18
f 21//18 24//18 25//18
f 19//5 21//5 26//5
f 26//19 21//19 25//19
f 26//19 25//19 27//19
f 28//5 27//5 25//5
f 24//5 28//5 25//5
f 28//5 29//5 27//5
f 29//20 28//20 30//20
f 28//21 31//21 30//21
f 32//5 28//5 24//5
f 32//5 33//5 28//5
f 28//21 33//21 31//21
f 33//22 34//22 31//22
f 31//23 35//23 30//23
f 34//23 35//23 31//23
f 33//22 36//22 34//22
f 36//24 35//24 34//24
f 36//24 32//24 35//24
f 32//5 36//5 33//5
f 30//23 35//23 37//23
f 37//23 35//23 38//23
f 35//23 39//23 38//23
f 32//2 40//2 35//2
f 35//23 40//23 39//23
f 39//23 40//23 41//23
f 39//23 41//23 42//23
f 43//25 44//25 39//25
f 43//25 39//25 42//25
f 44//26 45//26 39//26
f 38//23 39//23 45//23
f 44//26 46//26 45//26
f 46//27 47//27 45//27
f 48//23 45//23 47//23
f 49//23 45//23 48//23
f 38//23 45//23 49//23
f 49//23 48//23 50//23
f 49//23 50//23 51//23
f 52//28 53//28 49//28
f 52//28 49//28 51//28
f 53//29 38//29 49//29
f 53//29 54//29 38//29
f 55//5 54//5 53//5
f 55//5 53//5 56//5
f 57//5 56//5 53//5
f 57//5 53//5 52//5
f 57//5 58//5 59//5
f 57//5 52//5 58//5
f 60//30 56//30 57//30
f 60//31 57//31 61//31
f 61//5 57//5 59//5
f 61//5 59//5 62//5
f 62//32 59//32 50//32
f 59//33 63//33 50//33
f 59//33 58//33 63//33
f 58//34 51//34 63//34
f 51//23 50//23 63//23
f 62//32 50//32 48//32
f 61//5 62//5 64//5
f 64//35 62//35 48//35
f 64//35 48//35 65//35
f 66//36 64//36 65//36
f 61//5 64//5 66//5
f 46//27 66//27 47//27
f 66//36 65//36 47//36
f 46//5 61//5 66//5
f 48//23 47//23 65//23
f 67//5 68//5 60//5
f 60//30 68//30 56//30
f 67//5 60//5 69//5
f 69//31 60//31 61//31
f 67//5 70//5 68//5
f 67//5 71//5 70//5
f 67//5 69//5 72//5
f 67//37 73//37 74//37
f 67//38 75//38 73//38
f 67//38 72//38 75//38
f 67//37 74//37 76//37
f 77//5 67//5 78//5
f 78//39 67//39 76//39
f 79//5 67//5 77//5
f 79//5 80//5 67//5
f 67//5 80//5 71//5
f 73//5 75//5 46//5
f 75//5 61//5 46//5
f 72//40 61//40 75//40
f 74//41 81//41 76//41
f 76//5 81//5 82//5
f 78//42 76//42 82//42
f 82//5 81//5 83//5
f 83//5 84//5 82//5
f 77//43 78//43 82//43
f 77//44 82//44 84//44
f 79//45 84//45 85//45
f 86//5 85//5 84//5
f 83//5 86//5 84//5
f 79//46 77//46 84//46
f 87//47 88//47 86//47
f 86//5 88//5 85//5
f 89//48 86//48 83//48
f 89//49 87//49 86//49
f 90//50 89//50 83//50
f 90//5 87//5 89//5
f 90//51 83//51 81//51
f 91//5 90//5 92//5
f 92//39 90//39 81//39
f 91//5 5//5 90//5
f 5//5 87//5 90//5
f 93//5 91//5 92//5
f 91//52 93//52 94//52
f 91//52 94//52 95//52
f 1//53 91//53 95//53
f 91//5 1//5 5//5
f 96//5 97//5 95//5
f 1//53 95//53 97//53
f 96//5 95//5 94//5
f 96//5 32//5 98//5
f 32//2 96//2 40//2
f 96//5 99//5 100//5
f 96//5 100//5 97//5
f 96//54 101//54 40//54
f 102//5 96//5 103//5
f 102//5 104//5 96//5
f 96//54 104//54 101//54
f 96//5 94//5 103//5
f 96//5 98//5 99//5
f 98//55 105//55 99//55
f 105//56 106//56 99//56
f 100//5 99//5 107//5
f 99//57 106//57 108//57
f 107//5 99//5 108//5
f 109//58 110//58 107//58
f 110//59 111//59 107//59
f 107//60 111//60 100//60
f 107//5 108//5 109//5
f 112//61 110//61 109//61
f 109//5 113//5 114//5
f 114//62 112//63 109//64
f 109//5 108//5 113//5
f 113//65 115//65 116//65
f 114//5 113//5 116//5
f 108//66 117//66 113//66
f 117//67 115//67 113//67
f 115//68 118//68 116//68
f 115//23 119//23 118//23
f 115//23 120//23 119//23
f 117//23 120//23 115//23
f 117//23 112//23 120//23
f 120//13 112//63 114//62
f 119//69 120//70 121//71
f 121//71 120//70 114//72
f 114//5 116//5 121//5
f 121//5 122//5 123//5
f 121//5 123//5 124//5
f 124//73 119//73 121//73
f 121//5 116//5 122//5
f 122//74 125//74 126//74
f 122//5 126//5 127//5
f 116//75 118//75 122//75
f 118//76 125//76 122//76
f 122//5 127//5 123//5
f 125//77 128//77 126//77
f 128//23 125//23 129//23
f 129//23 125//23 130//23
f 125//23 118//23 130//23
f 129//78 130//78 131//78
f 130//23 118//23 132//23
f 130//79 132//79 127//79
f 131//80 130//80 127//80
f 133//81 129//81 131//81
f 126//5 134//5 131//5
f 134//5 133//5 131//5
f 126//5 131//5 127//5
f 135//82 136//83 133//84
f 136//85 129//85 133//85
f 137//5 54//5 133//5
f 133//5 54//5 135//5
f 134//5 137//5 133//5
f 137//86 138//86 139//86
f 137//5 139//5 54//5
f 134//87 140//87 137//87
f 140//88 138//88 137//88
f 138//89 141//89 139//89
f 142//23 141//23 138//23
f 142//23 138//23 143//23
f 143//23 138//23 144//23
f 138//23 140//23 144//23
f 143//90 144//90 135//90
f 144//23 140//23 136//23
f 144//91 136//83 135//82
f 55//92 143//92 135//92
f 142//93 143//93 55//93
f 145//23 141//23 142//23
f 145//94 142//94 55//94
f 141//95 145//95 146//95
f 68//96 146//96 145//96
f 56//97 145//97 55//97
f 68//96 145//96 56//96
f 141//95 146//95 147//95
f 147//5 146//5 148//5
f 70//98 148//98 146//98
f 68//99 70//99 146//99
f 147//5 148//5 149//5
f 149//5 148//5 150//5
f 70//100 150//100 148//100
f 149//5 150//5 151//5
f 71//90 151//90 150//90
f 70//101 71//101 150//101
f 152//5 149//5 151//5
f 152//5 151//5 153//5
f 71//102 153//103 151//91
f 154//5 152//5 153//5
f 154//5 153//5 155//5
f 80//104 155//104 153//104
f 71//102 80//105 153//103
f 80//106 156//106 155//106
f 157//5 154//5 155//5
f 157//5 155//5 158//5
f 156//107 158//107 155//107
f 156//108 159//108 158//108
f 159//5 156//5 80//5
f 79//5 159//5 80//5
f 79//5 160//5 159//5
f 159//109 160//109 161//109
f 159//110 161//110 158//110
f 162//5 158//5 161//5
f 163//5 162//5 161//5
f 163//5 161//5 164//5
f 164//5 161//5 165//5
f 160//111 165//111 161//111
f 163//5 166//5 162//5
f 167//112 163//112 164//112
f 15//5 166//5 163//5
f 13//113 15//114 163//115
f 167//116 13//116 163//116
f 5//5 167//5 168//5
f 168//117 167//117 164//117
f 5//5 13//5 167//5
f 87//118 168//118 88//118
f 168//119 164//119 88//119
f 5//5 168//5 87//5
f 15//5 16//5 166//5
f 169//120 166//120 16//120
f 169//121 170//121 166//121
f 170//122 162//122 166//122
f 19//123 169//123 16//123
f 19//5 170//5 169//5
f 170//39 171//39 162//39
f 170//5 26//5 171//5
f 19//5 26//5 170//5
f 171//124 172//124 157//124
f 171//125 157//125 162//125
f 171//5 173//5 172//5
f 171//5 26//5 173//5
f 173//126 174//126 141//126
f 173//126 141//126 147//126
f 173//72 27//72 174//72
f 175//99 173//99 147//99
f 173//72 26//72 27//72
f 176//5 173//5 175//5
f 172//5 173//5 176//5
f 176//5 175//5 177//5
f 176//127 177//127 152//127
f 172//128 176//128 154//128
f 176//129 152//129 154//129
f 177//130 175//130 149//130
f 177//131 149//131 152//131
f 175//132 147//132 149//132
f 139//97 141//97 174//97
f 174//5 29//5 139//5
f 27//5 29//5 174//5
f 172//133 154//133 157//133
f 88//5 164//5 165//5
f 88//5 165//5 85//5
f 178//134 85//134 165//134
f 160//135 178//135 165//135
f 79//5 178//5 160//5
f 178//136 79//136 85//136
f 162//5 157//5 158//5
f 140//23 128//23 136//23
f 128//137 140//137 134//137
f 139//5 29//5 54//5
f 135//5 54//5 55//5
f 136//23 128//23 129//23
f 126//138 128//138 134//138
f 118//23 119//23 132//23
f 132//23 119//23 179//23
f 132//23 179//23 180//23
f 132//139 180//139 123//139
f 127//140 132//140 123//140
f 179//23 181//23 180//23
f 180//23 181//23 182//23
f 180//141 182//141 183//141
f 123//142 180//142 183//142
f 184//5 124//5 183//5
f 184//5 183//5 185//5
f 124//5 123//5 183//5
f 183//143 182//143 185//143
f 186//5 184//5 185//5
f 185//144 187//144 188//144
f 186//5 185//5 188//5
f 182//145 187//145 185//145
f 189//23 190//23 187//23
f 182//23 189//23 187//23
f 187//23 190//23 191//23
f 187//146 191//146 188//146
f 192//23 191//23 190//23
f 192//23 74//23 191//23
f 191//147 74//147 193//147
f 188//148 191//148 193//148
f 44//5 188//5 193//5
f 44//5 193//5 73//5
f 193//75 74//75 73//75
f 192//149 190//149 194//149
f 92//150 192//150 195//150
f 195//75 192//75 194//75
f 92//150 81//150 192//150
f 74//41 192//41 81//41
f 194//5 196//5 197//5
f 194//151 190//151 196//151
f 195//5 194//5 197//5
f 103//5 195//5 197//5
f 103//152 197//152 41//152
f 197//153 198//153 41//153
f 197//5 196//5 44//5
f 197//5 44//5 198//5
f 198//5 44//5 43//5
f 198//153 199//153 41//153
f 198//154 42//154 199//154
f 198//154 43//154 42//154
f 42//23 41//23 199//23
f 44//5 196//5 186//5
f 196//155 189//155 186//155
f 190//156 189//156 196//156
f 200//152 92//152 195//152
f 200//152 195//152 201//152
f 103//5 201//5 195//5
f 93//157 200//157 201//157
f 93//157 201//157 94//157
f 103//5 94//5 201//5
f 93//5 92//5 200//5
f 189//158 181//158 186//158
f 181//23 189//23 182//23
f 186//159 181//159 184//159
f 44//5 186//5 188//5
f 181//160 179//160 184//160
f 184//161 179//161 124//161
f 179//162 119//162 124//162
f 106//163 117//163 108//163
f 106//23 112//23 117//23
f 106//23 110//23 112//23
f 4//23 111//23 105//23
f 105//23 111//23 110//23
f 111//164 2//164 100//164
f 4//23 2//23 111//23
f 105//23 110//23 106//23
f 4//165 105//165 98//165
f 98//5 32//5 202//5
f 202//166 4//166 98//166
f 202//5 32//5 24//5
f 23//167 202//167 24//167
f 23//167 20//167 202//167
f 20//168 4//168 202//168
f 104//169 102//169 101//169
f 103//152 41//152 203//152
f 102//170 103//170 203//170
f 40//23 204//23 203//23
f 41//23 40//23 203//23
f 102//170 203//170 204//170
f 101//23 204//23 40//23
f 102//169 204//169 101//169
f 100//166 2//166 97//166
f 1//1 97//1 2//1
f 72//40 69//40 61//40
f 44//5 73//5 46//5
f 58//34 52//34 51//34
f 29//5 205//5 54//5
f 54//171 206//171 38//171
f 54//171 205//171 206//171
f 29//5 207//5 205//5
f 205//172 207//172 208//172
f 205//172 208//172 206//172
f 208//23 37//23 206//23
f 207//173 37//173 208//173
f 207//173 29//173 37//173
f 206//23 37//23 38//23
f 29//20 30//20 37//20
f 20//3 22//3 7//3
f 22//174 10//174 7//174
f 20//168 7//168 4//168
f 13//113 14//72 15//114
