# Blender v3.0.1 OBJ File: ''
# www.blender.org
mtllib Large_Short_Circle_Purple.mtl
o obj1.022_obj1.005
v -23.480133 8.296064 50.000004
v -24.902634 -0.000002 50.000004
v -24.544434 -4.208560 50.000004
v -24.902634 0.000002 -49.999996
v -24.544434 -4.208555 -49.999996
v -23.480133 -8.296053 50.000004
v -19.375137 15.644346 50.000004
v -21.740356 12.144896 50.000004
v -21.740356 12.144899 -49.999996
v -21.740356 -12.144884 50.000004
v -19.375137 -15.644335 50.000004
v -24.544434 4.208570 50.000004
v -23.480133 8.296068 -49.999996
v -13.056625 21.205320 50.000004
v -16.452545 18.693724 50.000004
v -9.285110 -23.106890 50.000004
v -16.452545 -18.693712 50.000004
v -19.375137 15.644350 -49.999996
v -16.452545 18.693727 -49.999996
v -13.056625 21.205324 -49.999992
v 3.163086 -24.700926 -49.999996
v 7.292068 -23.811064 -49.999996
v -1.056900 -24.880201 -49.999996
v 7.292068 23.811083 -49.999992
v 11.211273 -22.236204 -49.999996
v -9.285110 23.106890 -49.999992
v -9.285110 -23.106886 -49.999996
v -5.246460 -24.343702 -49.999996
v -1.056900 -24.880205 50.000004
v -5.246460 -24.343706 50.000004
v 3.163086 -24.700930 50.000004
v 7.292068 -23.811068 50.000004
v 11.211273 -22.236208 50.000004
v 14.807938 -20.021654 50.000004
v 17.978622 17.231108 50.000004
v 7.292068 23.811079 50.000004
v 20.632080 -13.944841 50.000004
v 22.692001 10.257429 50.000004
v 20.632080 13.944853 50.000004
v 20.632080 13.944857 -49.999996
v 14.807938 20.021650 50.000004
v 17.978622 17.231112 -49.999996
v 24.812927 2.111891 50.000004
v 22.692001 10.257433 -49.999996
v 24.812927 2.111895 -49.999996
v 24.099106 6.274920 -49.999996
v 24.099106 6.274915 50.000004
v 24.812927 -2.111895 50.000004
v 24.812927 -2.111891 -49.999996
v 20.632080 -13.944838 -49.999996
v 22.692001 -10.257414 -49.999996
v 24.099106 -6.274915 -49.999996
v 24.099106 -6.274920 50.000004
v 22.692001 -10.257418 50.000004
v 14.807938 -20.021650 -49.999996
v 17.978622 -17.231092 -49.999996
v 17.978622 -17.231096 50.000004
v 14.807938 20.021654 -49.999996
v 11.211273 22.236219 50.000004
v 11.211273 22.236223 -49.999992
v 3.163086 24.700941 50.000004
v -1.056900 24.880201 50.000004
v -5.246460 24.343702 50.000004
v -9.285110 23.106886 50.000004
v -5.246460 24.343706 -49.999992
v -1.056900 24.880205 -49.999992
v 3.163086 24.700945 -49.999992
v -16.452545 -18.693708 -49.999996
v -13.056625 -21.205320 -49.999996
v -13.056625 -21.205324 50.000004
v -19.375137 -15.644331 -49.999996
v -21.740356 -12.144880 -49.999996
v -23.480133 -8.296049 -49.999996
v -24.544434 4.208575 -49.999996
vn 0.0000 0.0000 1.0000
vn -0.9964 -0.0848 -0.0000
vn -0.9677 -0.2520 -0.0000
vn -0.9112 0.4119 0.0000
vn -0.9677 0.2520 0.0000
vn -0.8285 0.5600 0.0000
vn 0.0000 0.0000 -1.0000
vn -0.7220 0.6919 0.0000
vn -0.5946 0.8040 0.0000
vn -0.4502 0.8929 0.0000
vn -0.1270 -0.9919 -0.0000
vn 0.0424 -0.9991 -0.0000
vn 0.2107 -0.9776 -0.0000
vn 0.3729 -0.9279 -0.0000
vn 0.5243 -0.8515 -0.0000
vn 0.7780 0.6282 0.0000
vn 0.6607 0.7507 0.0000
vn 0.8730 0.4877 0.0000
vn 0.9429 0.3331 0.0000
vn 0.9856 0.1690 0.0000
vn 1.0000 0.0000 0.0000
vn 0.9856 -0.1690 -0.0000
vn 0.9429 -0.3331 -0.0000
vn 0.8730 -0.4877 -0.0000
vn 0.7780 -0.6282 -0.0000
vn 0.6607 -0.7507 -0.0000
vn 0.5243 0.8515 0.0000
vn 0.3729 0.9279 0.0000
vn 0.2107 0.9776 0.0000
vn -0.2928 0.9562 0.0000
vn -0.1270 0.9919 0.0000
vn 0.0424 0.9991 0.0000
vn -0.2928 -0.9562 -0.0000
vn -0.4502 -0.8929 -0.0000
vn -0.5946 -0.8040 -0.0000
vn -0.7220 -0.6919 -0.0000
vn -0.8285 -0.5600 -0.0000
vn -0.9112 -0.4119 -0.0000
vn -0.9964 0.0848 0.0000
usemtl Default_OBJ.306
s 1
f 1//1 2//1 3//1
f 3//2 2//2 4//2
f 3//2 4//2 5//2
f 6//3 3//3 5//3
f 1//1 3//1 6//1
f 7//1 8//1 1//1
f 1//4 8//4 9//4
f 1//1 10//1 11//1
f 1//1 6//1 10//1
f 12//5 1//5 13//5
f 1//4 9//4 13//4
f 1//1 12//1 2//1
f 14//1 15//1 1//1
f 14//1 1//1 16//1
f 1//1 17//1 16//1
f 15//1 7//1 1//1
f 1//1 11//1 17//1
f 8//6 7//6 9//6
f 7//6 18//6 9//6
f 9//7 18//7 13//7
f 18//7 19//7 13//7
f 7//8 19//8 18//8
f 19//7 20//7 13//7
f 15//9 20//9 19//9
f 7//8 15//8 19//8
f 21//7 20//7 22//7
f 23//7 20//7 21//7
f 20//7 24//7 25//7
f 26//7 24//7 20//7
f 14//10 26//10 20//10
f 13//7 20//7 27//7
f 27//7 20//7 28//7
f 15//9 14//9 20//9
f 22//7 20//7 25//7
f 28//7 20//7 23//7
f 29//11 30//11 23//11
f 30//11 28//11 23//11
f 31//12 29//12 23//12
f 31//12 23//12 21//12
f 14//1 29//1 31//1
f 32//13 31//13 21//13
f 14//1 31//1 32//1
f 32//13 21//13 22//13
f 32//14 22//14 25//14
f 33//14 32//14 25//14
f 14//1 32//1 33//1
f 34//15 33//15 25//15
f 35//1 36//1 33//1
f 36//1 14//1 33//1
f 37//1 33//1 34//1
f 35//1 33//1 37//1
f 35//1 38//1 39//1
f 35//16 39//16 40//16
f 41//17 35//17 42//17
f 35//16 40//16 42//16
f 35//1 41//1 36//1
f 35//1 37//1 43//1
f 35//1 43//1 38//1
f 44//7 42//7 40//7
f 38//18 44//18 40//18
f 39//18 38//18 40//18
f 45//7 42//7 44//7
f 45//7 44//7 46//7
f 38//19 47//19 44//19
f 47//19 46//19 44//19
f 47//20 45//20 46//20
f 47//20 43//20 45//20
f 38//1 43//1 47//1
f 43//21 48//21 45//21
f 48//21 49//21 45//21
f 50//7 42//7 45//7
f 50//7 45//7 51//7
f 51//7 45//7 52//7
f 52//7 45//7 49//7
f 48//22 53//22 49//22
f 53//22 52//22 49//22
f 43//1 54//1 53//1
f 53//23 54//23 51//23
f 53//23 51//23 52//23
f 43//1 53//1 48//1
f 54//24 50//24 51//24
f 54//24 37//24 50//24
f 43//1 37//1 54//1
f 55//7 50//7 56//7
f 57//25 56//25 50//25
f 37//25 57//25 50//25
f 25//7 42//7 50//7
f 25//7 50//7 55//7
f 37//1 34//1 57//1
f 57//26 34//26 55//26
f 57//26 55//26 56//26
f 34//15 25//15 55//15
f 41//17 42//17 58//17
f 59//27 41//27 58//27
f 41//1 59//1 36//1
f 59//27 58//27 60//27
f 36//28 59//28 60//28
f 60//7 58//7 24//7
f 36//28 60//28 24//28
f 58//7 42//7 24//7
f 24//7 42//7 25//7
f 61//29 36//29 24//29
f 36//1 61//1 62//1
f 36//1 62//1 63//1
f 36//1 63//1 64//1
f 36//1 64//1 14//1
f 64//30 63//30 65//30
f 64//30 65//30 26//30
f 14//10 64//10 26//10
f 65//7 24//7 26//7
f 66//7 24//7 65//7
f 63//31 66//31 65//31
f 67//7 24//7 66//7
f 62//32 67//32 66//32
f 63//31 62//31 66//31
f 61//29 24//29 67//29
f 62//32 61//32 67//32
f 14//1 30//1 29//1
f 30//33 27//33 28//33
f 30//33 16//33 27//33
f 14//1 16//1 30//1
f 68//7 27//7 69//7
f 70//34 69//34 27//34
f 16//34 70//34 27//34
f 68//7 13//7 27//7
f 70//35 17//35 68//35
f 70//35 68//35 69//35
f 16//1 17//1 70//1
f 17//36 11//36 68//36
f 11//36 71//36 68//36
f 71//7 13//7 68//7
f 72//7 13//7 71//7
f 11//37 72//37 71//37
f 73//7 13//7 72//7
f 10//38 73//38 72//38
f 11//37 10//37 72//37
f 10//38 6//38 73//38
f 5//7 13//7 73//7
f 6//3 5//3 73//3
f 12//5 13//5 74//5
f 12//39 74//39 4//39
f 2//39 12//39 4//39
f 74//7 13//7 4//7
f 4//7 13//7 5//7
