# Blender v3.0.1 OBJ File: ''
# www.blender.org
mtllib Large_Short_SquareCircle_JeansRed.mtl
o obj1.016_obj1.005
v 8.344257 -6.982894 -11.267609
v -10.401268 -9.504004 -11.267609
v 10.972488 -9.611129 -11.267609
v -12.140621 -11.243354 -11.267610
v 14.284256 -11.298553 -11.267610
v 8.854771 -7.636332 38.732395
v 12.015377 -10.288393 38.732395
v 20.018318 11.699507 38.732395
v 15.892437 -11.699533 38.732395
v 8.854771 7.636305 38.732395
v 15.892437 11.699507 38.732395
v 17.955379 11.879991 -11.267608
v 22.018578 11.163547 -61.267605
v 27.055988 7.636305 38.732395
v 23.895378 10.288374 38.732395
v 20.018318 -11.699533 38.732395
v 23.895378 -10.288393 38.732395
v 29.118927 4.063185 38.732395
v 28.243759 5.939998 -61.267609
v 25.591694 9.100604 -61.267605
v 29.654892 -2.062940 -61.267609
v 25.591698 -9.100606 -61.267609
v 17.955379 -11.880002 -61.267609
v 22.018578 -11.163548 -61.267609
v 27.055988 -7.636332 38.732395
v 28.243759 -5.940000 -61.267609
v 17.955379 11.879992 -61.267605
v 17.955379 -11.880004 -11.267610
v -14.516621 -11.880004 -11.267610
v -28.772621 -11.880002 -61.267609
v -12.140621 -11.243364 38.732395
v -14.516621 -11.880014 38.732395
v -28.772621 -11.880014 38.732395
v -32.887974 -9.504015 38.732395
v -31.148621 -11.243364 38.732395
v -33.524620 -7.128016 38.732395
v -31.148621 -11.243352 -61.267609
v -14.516621 11.879988 38.732395
v -28.772621 11.879988 38.732395
v -33.524620 7.127989 38.732395
v -33.524620 7.128001 -61.267609
v -33.524620 -7.128003 -61.267609
v -32.887974 9.504001 -61.267605
v -32.887974 9.503988 38.732395
v -28.772621 11.879992 -61.267605
v -31.148621 11.243350 -61.267605
v -31.148621 11.243345 38.732395
v -14.516621 11.879991 -11.267608
v 14.284256 11.298554 -11.267608
v -12.140621 11.243348 -11.267608
v -12.140621 11.243345 38.732395
v -10.401268 9.503999 -11.267609
v 10.972488 9.611115 -11.267609
v -10.401268 9.503988 38.732395
v -9.764622 7.127989 38.732395
v -9.764622 7.127999 -11.267609
v -9.764622 -7.128006 -11.267609
v -9.764622 -7.128016 38.732395
v -10.401268 -9.504015 38.732395
v 6.656826 -3.671127 -11.267609
v 6.075378 -0.000007 -11.267609
v 6.656826 3.671120 -11.267609
v 6.075378 -0.000017 38.732395
v 6.791832 4.063185 38.732395
v 6.791832 -4.063211 38.732395
v 8.344257 6.982888 -11.267609
v 12.015377 10.288374 38.732395
v -32.887974 -9.504003 -61.267609
v 29.118927 -4.063211 38.732395
v 29.835381 -0.000017 38.732395
v 29.654892 2.062937 -61.267609
vn -0.0000 0.0000 1.0000
vn -0.7071 -0.7071 -0.0020
vn -0.4540 -0.8910 -0.0026
vn -0.6428 -0.7660 0.0030
vn -0.3420 -0.9397 0.0035
vn 0.0000 1.0000 0.0036
vn 0.1449 0.9894 -0.0024
vn 0.3420 0.9397 0.0018
vn 0.8660 0.5000 0.0018
vn 0.7660 0.6428 -0.0018
vn 0.6428 0.7660 0.0018
vn 0.0000 0.0000 -1.0000
vn 0.5000 0.8660 -0.0018
vn 0.5000 -0.8660 -0.0018
vn 0.6428 -0.7660 0.0018
vn 0.7660 -0.6428 -0.0018
vn 0.1736 -0.9848 -0.0000
vn 0.0000 -1.0000 -0.0000
vn 0.2588 -0.9659 -0.0000
vn -0.2588 -0.9659 -0.0000
vn -1.0000 0.0000 0.0000
vn -0.9659 -0.2588 -0.0000
vn -0.9659 0.2588 0.0000
vn -0.7071 0.7071 0.0000
vn -0.2588 0.9659 0.0000
vn -0.0000 1.0000 0.0000
vn 0.2588 0.9659 0.0000
vn 0.7071 0.7071 0.0000
vn 0.9659 0.2588 0.0000
vn 1.0000 0.0000 0.0000
vn 0.9659 -0.2588 -0.0000
vn 0.7071 -0.7071 -0.0000
vn -0.9877 0.1564 0.0000
vn -0.9877 -0.1564 -0.0000
vn -0.9848 0.1736 0.0013
vn -0.9848 -0.1736 0.0013
vn -0.8910 0.4540 -0.0012
vn -0.8660 0.5000 0.0023
vn -0.7071 0.7071 -0.0020
vn -0.8660 -0.5000 0.0023
vn -0.8910 -0.4540 -0.0012
vn -0.4540 0.8910 -0.0026
vn -0.6428 0.7660 0.0030
vn -0.3420 0.9397 0.0035
vn -0.1564 0.9877 -0.0029
vn -0.7071 -0.7071 -0.0000
vn 0.0000 -1.0000 0.0036
vn -0.1564 -0.9877 -0.0029
vn 0.1449 -0.9894 -0.0024
vn 0.1736 0.9848 0.0000
vn 0.8660 -0.5000 0.0018
vn 0.9397 -0.3420 -0.0018
vn 0.9848 -0.1736 0.0018
vn 1.0000 0.0000 -0.0018
vn 0.9848 0.1736 0.0018
vn 0.9397 0.3420 -0.0018
vn 0.3420 -0.9397 0.0018
usemtl Default_OBJ.311
s 1
f 1//1 2//1 3//1
f 3//1 2//1 4//1
f 5//1 3//1 4//1
f 3//2 6//2 1//2
f 5//3 7//3 3//3
f 7//4 6//4 3//4
f 8//1 7//1 9//1
f 9//5 7//5 5//5
f 8//1 10//1 7//1
f 10//1 6//1 7//1
f 11//6 8//6 12//6
f 8//7 13//7 12//7
f 14//1 15//1 8//1
f 8//8 15//8 13//8
f 8//1 9//1 16//1
f 8//1 11//1 10//1
f 14//1 8//1 16//1
f 14//1 16//1 17//1
f 14//1 17//1 18//1
f 14//9 18//9 19//9
f 14//10 19//10 20//10
f 15//11 14//11 20//11
f 21//12 20//12 19//12
f 22//12 20//12 21//12
f 13//12 20//12 22//12
f 15//13 20//13 13//13
f 23//12 22//12 24//12
f 17//14 24//14 22//14
f 25//15 17//15 22//15
f 25//16 22//16 26//16
f 22//12 21//12 26//12
f 27//12 13//12 22//12
f 23//12 27//12 22//12
f 24//17 28//17 23//17
f 28//18 29//18 23//18
f 30//12 27//12 23//12
f 29//18 30//18 23//18
f 31//19 29//19 4//19
f 5//1 4//1 29//1
f 28//1 5//1 29//1
f 31//19 32//19 29//19
f 32//18 33//18 29//18
f 33//18 30//18 29//18
f 33//1 34//1 35//1
f 33//1 36//1 34//1
f 33//20 35//20 37//20
f 33//20 37//20 30//20
f 38//1 39//1 33//1
f 38//1 33//1 32//1
f 39//1 36//1 33//1
f 36//21 40//21 41//21
f 36//21 41//21 42//21
f 34//22 36//22 42//22
f 39//1 40//1 36//1
f 40//23 43//23 41//23
f 39//1 44//1 40//1
f 40//23 44//23 43//23
f 43//12 45//12 41//12
f 46//12 45//12 43//12
f 44//24 46//24 43//24
f 47//25 45//25 46//25
f 44//24 47//24 46//24
f 47//25 39//25 45//25
f 39//1 47//1 44//1
f 39//26 48//26 45//26
f 45//12 27//12 30//12
f 48//26 27//26 45//26
f 42//12 45//12 30//12
f 41//12 45//12 42//12
f 48//26 12//26 27//26
f 12//1 48//1 49//1
f 49//1 48//1 50//1
f 39//26 38//26 48//26
f 38//27 50//27 48//27
f 51//28 52//28 50//28
f 53//1 50//1 52//1
f 49//1 50//1 53//1
f 38//27 51//27 50//27
f 54//1 51//1 38//1
f 51//28 54//28 52//28
f 54//1 38//1 55//1
f 54//29 55//29 56//29
f 54//29 56//29 52//29
f 55//30 57//30 56//30
f 55//30 58//30 57//30
f 55//1 38//1 58//1
f 58//31 59//31 2//31
f 58//31 2//31 57//31
f 58//1 31//1 59//1
f 58//1 32//1 31//1
f 38//1 32//1 58//1
f 59//32 4//32 2//32
f 59//32 31//32 4//32
f 1//1 57//1 2//1
f 60//1 57//1 1//1
f 61//1 57//1 60//1
f 61//1 56//1 57//1
f 62//1 56//1 61//1
f 63//33 62//33 61//33
f 60//34 63//34 61//34
f 63//35 64//35 62//35
f 64//1 63//1 65//1
f 65//36 63//36 60//36
f 64//37 66//37 62//37
f 64//38 10//38 66//38
f 10//1 64//1 65//1
f 66//1 56//1 62//1
f 66//1 52//1 56//1
f 53//1 52//1 66//1
f 10//39 53//39 66//39
f 6//40 65//40 1//40
f 1//41 65//41 60//41
f 10//1 65//1 6//1
f 67//42 49//42 53//42
f 10//43 67//43 53//43
f 67//44 11//44 49//44
f 11//1 67//1 10//1
f 11//45 12//45 49//45
f 42//12 30//12 68//12
f 34//22 42//22 68//22
f 35//46 34//46 68//46
f 35//46 68//46 37//46
f 68//12 30//12 37//12
f 16//47 9//47 28//47
f 9//48 5//48 28//48
f 16//49 28//49 24//49
f 12//50 13//50 27//50
f 69//51 25//51 26//51
f 69//52 26//52 21//52
f 70//53 69//53 21//53
f 18//1 69//1 70//1
f 18//1 25//1 69//1
f 70//54 21//54 71//54
f 18//55 70//55 71//55
f 21//12 19//12 71//12
f 18//56 71//56 19//56
f 18//1 17//1 25//1
f 17//57 16//57 24//57
