# Blender v3.0.1 OBJ File: ''
# www.blender.org
mtllib Large_Short_Rectangle_JeansBlue.mtl
o obj1.008_obj1.005
v 21.345123 -16.008844 50.000004
v -21.345108 -16.008844 50.000004
v -21.345108 -16.008833 -50.000000
v 21.345123 -16.008833 -50.000000
v 23.123886 -15.532228 50.000004
v -21.345108 16.008841 50.000004
v 21.345123 16.008841 50.000004
v 24.902649 -12.451326 50.000004
v 23.123886 -15.532217 -50.000000
v 24.426025 -14.230089 50.000004
v 24.426025 -14.230078 -50.000000
v 24.902649 -12.451315 -50.000000
v 24.902649 12.451315 50.000004
v 24.902649 12.451326 -49.999996
v 21.345123 16.008844 -49.999996
v 23.123886 15.532221 -49.999996
v 24.426025 14.230070 50.000004
v 24.426025 14.230082 -49.999996
v 23.123886 15.532217 50.000004
v -21.345108 16.008844 -49.999996
v -24.902634 -12.451315 -50.000000
v -24.902634 12.451326 -49.999996
v -24.426010 14.230082 -49.999996
v -23.123871 15.532217 50.000004
v -23.123871 15.532221 -49.999996
v -24.426010 14.230070 50.000004
v -24.902634 12.451315 50.000004
v -24.902634 -12.451326 50.000004
v -24.426010 -14.230089 50.000004
v -23.123871 -15.532228 50.000004
v -24.426010 -14.230078 -50.000000
v -23.123871 -15.532217 -50.000000
vn 0.0000 -1.0000 -0.0000
vn 0.2588 -0.9659 -0.0000
vn 0.0000 0.0000 1.0000
vn 0.7071 -0.7071 -0.0000
vn 0.9659 -0.2588 -0.0000
vn 0.0000 0.0000 -1.0000
vn 1.0000 -0.0000 0.0000
vn 0.9659 0.2588 0.0000
vn 0.7071 0.7071 0.0000
vn 0.2588 0.9659 0.0000
vn 0.0000 1.0000 0.0000
vn -0.2588 0.9659 0.0000
vn -0.7071 0.7071 0.0000
vn -0.9659 0.2588 0.0000
vn -1.0000 -0.0000 0.0000
vn -0.9659 -0.2588 -0.0000
vn -0.7071 -0.7071 -0.0000
vn -0.2588 -0.9659 -0.0000
usemtl Default_OBJ.310
s 1
f 1//1 2//1 3//1
f 1//1 3//1 4//1
f 5//2 1//2 4//2
f 1//3 6//3 2//3
f 7//3 6//3 1//3
f 7//3 1//3 8//3
f 8//3 1//3 5//3
f 5//2 4//2 9//2
f 8//3 5//3 10//3
f 5//4 9//4 11//4
f 10//4 5//4 11//4
f 8//5 10//5 11//5
f 4//6 12//6 11//6
f 4//6 11//6 9//6
f 8//5 11//5 12//5
f 13//7 8//7 12//7
f 13//7 12//7 14//7
f 4//6 15//6 12//6
f 15//6 14//6 12//6
f 15//6 16//6 14//6
f 17//8 13//8 14//8
f 17//8 14//8 18//8
f 16//6 18//6 14//6
f 17//9 18//9 16//9
f 19//9 17//9 16//9
f 19//10 16//10 15//10
f 7//10 19//10 15//10
f 17//3 19//3 7//3
f 17//3 7//3 13//3
f 6//11 7//11 15//11
f 6//11 15//11 20//11
f 20//6 15//6 3//6
f 3//6 15//6 4//6
f 21//6 20//6 3//6
f 22//6 20//6 21//6
f 23//6 20//6 22//6
f 24//12 6//12 20//12
f 24//12 20//12 25//12
f 25//6 20//6 23//6
f 24//13 25//13 23//13
f 26//13 24//13 23//13
f 26//14 23//14 22//14
f 6//3 26//3 27//3
f 6//3 24//3 26//3
f 27//14 26//14 22//14
f 6//3 27//3 28//3
f 28//15 27//15 22//15
f 28//15 22//15 21//15
f 6//3 28//3 2//3
f 28//3 29//3 2//3
f 29//16 28//16 21//16
f 2//3 29//3 30//3
f 29//16 21//16 31//16
f 30//17 29//17 31//17
f 30//17 31//17 32//17
f 2//18 30//18 32//18
f 31//6 3//6 32//6
f 2//18 32//18 3//18
f 31//6 21//6 3//6
f 13//3 7//3 8//3
