# Blender v3.0.1 OBJ File: ''
# www.blender.org
mtllib Large_Short_3Prong_Yellow.mtl
o obj1.001_obj1.006
v -6.143816 -30.707977 -12.608693
v -30.288158 -6.563629 -12.608692
v -30.288158 -6.563627 -52.608692
v -6.143816 -30.707975 -52.608692
v -5.159645 -31.463150 -12.608693
v -8.682323 -20.125427 -12.608693
v -2.936886 -25.298645 -12.608693
v -6.359406 -23.322647 -12.608693
v -2.936886 -25.298647 47.391308
v 0.993450 -25.711731 -12.608693
v -2.783646 -32.099808 -12.608693
v -4.013554 -31.937881 -12.608693
v -4.013554 -31.937880 -52.608692
v -5.159645 -31.463148 -52.608692
v -2.783646 -32.099804 -52.608692
v 2.783670 -32.099804 -52.608692
v 2.783670 -32.099808 -12.608693
v 4.013577 -31.937881 -12.608693
v 4.013577 -31.937880 -52.608692
v 5.159668 -31.463150 -12.608693
v 5.159668 -31.463148 -52.608692
v 6.143841 -30.707975 -52.608692
v 6.143841 -30.707977 -12.608693
v 30.288185 -6.563629 -12.608692
v 4.752014 -24.490509 -12.608693
v 7.688911 -21.846115 -12.608693
v 31.680012 -3.203460 -12.608692
v 20.592014 2.945176 -12.608692
v 31.043365 -5.579452 -12.608692
v 30.288185 -6.563627 -52.608692
v 31.043365 -5.579450 -52.608692
v 9.296326 -18.235794 -12.608693
v 16.833450 1.723954 -12.608692
v 9.296326 -14.283813 -12.608693
v 23.528912 5.589570 -12.608692
v 23.528912 5.589567 47.391308
v 20.592014 2.945173 47.391308
v 16.833450 20.627821 47.391308
v 16.833450 1.723951 47.391308
v 25.136326 13.151869 47.391308
v 25.136326 9.199888 47.391308
v 23.528912 16.762190 47.391308
v 12.903114 20.214720 47.391308
v 16.833450 20.627823 -12.608691
v 20.592014 19.406584 47.391308
v 20.592014 19.406586 -12.608691
v 23.528912 16.762192 -12.608691
v 31.680012 22.263885 -12.608691
v 25.136326 13.151872 -12.608691
v 26.928013 27.015884 -12.608691
v 29.304012 26.379244 -52.608692
v 26.928013 27.015886 -52.608692
v -26.927988 27.015884 -12.608691
v 31.043365 24.639877 -12.608691
v 29.304012 26.379242 -12.608691
v -14.846549 20.627823 -12.608691
v -11.087988 19.406586 -12.608691
v 12.903114 20.214722 -12.608691
v -31.679987 22.263885 -12.608691
v -22.199404 18.238739 -12.608691
v -31.043341 24.639877 -12.608691
v -29.303988 26.379242 -12.608691
v -26.927988 27.015886 -52.608692
v -18.776886 20.214722 -12.608691
v -22.199404 18.238737 47.391308
v -18.776886 20.214720 47.391308
v -24.522324 15.041502 47.391308
v -24.522324 15.041505 -12.608691
v -25.343987 11.175886 47.391308
v -25.343987 11.175889 -12.608691
v -24.522324 7.310255 47.391308
v -24.522324 7.310257 -12.608692
v -22.199404 4.113038 -12.608692
v -22.199404 4.113035 47.391308
v -18.776886 2.137040 -12.608692
v -31.679987 -3.203460 -12.608692
v -18.776886 2.137037 47.391308
v -14.846549 1.723954 -12.608692
v -14.846549 1.723951 47.391308
v -8.151091 5.589567 47.391308
v -11.087988 2.945173 47.391308
v -14.846549 20.627821 47.391308
v -11.087988 19.406584 47.391308
v -8.151091 16.762190 47.391308
v -8.151091 16.762192 -12.608691
v -6.543673 13.151872 -12.608691
v -6.543673 9.199888 47.391308
v -6.543673 13.151869 47.391308
v -6.543673 9.199891 -12.608692
v 6.336014 11.175889 -12.608691
v 7.157677 15.041505 -12.608691
v 9.480595 18.238739 -12.608691
v 9.480595 18.238737 47.391308
v 6.336014 11.175886 47.391308
v 7.157677 15.041502 47.391308
v 9.480595 4.113035 47.391308
v 7.157677 7.310255 47.391308
v 12.903114 2.137037 47.391308
v 9.480595 4.113038 -12.608692
v 12.903114 2.137040 -12.608692
v 7.688911 -10.673491 -12.608692
v 4.752014 -8.029098 -12.608692
v 0.993450 -6.807863 47.391308
v 0.993450 -6.807861 -12.608692
v 4.752014 -8.029100 47.391308
v 4.752014 -24.490511 47.391308
v 7.688911 -21.846117 47.391308
v 0.993450 -25.711733 47.391308
v -2.936886 -7.220964 47.391308
v -6.359406 -9.196962 47.391308
v -2.936886 -7.220962 -12.608692
v -8.682323 -12.394182 47.391308
v -9.503988 -16.259798 47.391308
v -8.682323 -20.125429 47.391308
v -6.359406 -23.322649 47.391308
v -8.682323 -12.394179 -12.608693
v -9.503988 -16.259796 -12.608693
v -6.359406 -9.196959 -12.608692
v -11.087988 2.945176 -12.608692
v -8.151091 5.589570 -12.608692
v 7.157677 7.310257 -12.608692
v 9.296326 -14.283815 47.391308
v 9.296326 -18.235796 47.391308
v 7.688911 -10.673494 47.391308
v -31.043341 -5.579452 -12.608692
v -31.518066 -4.433364 -12.608692
v -31.679987 -3.203458 -52.608692
v -31.679987 22.263887 -52.608692
v -31.043341 24.639879 -52.608692
v -29.303988 26.379244 -52.608692
v -31.043341 -5.579450 -52.608692
v -31.518066 -4.433362 -52.608692
v 31.043365 24.639879 -52.608692
v 31.680012 22.263887 -52.608692
v 31.680012 -3.203458 -52.608692
v 31.518093 -4.433362 -52.608692
v 31.518093 -4.433364 -12.608692
v 25.136326 9.199891 -12.608692
vn -0.7071 -0.7071 -0.0000
vn -0.6088 -0.7934 -0.0000
vn -0.0000 0.0000 1.0000
vn -0.5000 -0.8660 -0.0000
vn -0.1045 -0.9945 -0.0000
vn -0.1305 -0.9914 -0.0000
vn -0.3827 -0.9239 -0.0000
vn -0.0000 0.0000 -1.0000
vn 0.0000 -1.0000 -0.0000
vn 0.1305 -0.9914 -0.0000
vn 0.3827 -0.9239 -0.0000
vn 0.6088 -0.7934 -0.0000
vn 0.7071 -0.7071 -0.0000
vn 0.7934 -0.6088 -0.0000
vn 0.6691 -0.7431 -0.0000
vn 0.3090 -0.9511 -0.0000
vn 0.9135 -0.4067 -0.0000
vn -0.1045 0.9945 0.0000
vn 0.3090 0.9511 0.0000
vn 0.6691 0.7431 0.0000
vn 0.9135 0.4067 0.0000
vn 0.2588 0.9659 0.0000
vn 0.0000 1.0000 0.0000
vn -0.2588 0.9659 0.0000
vn -0.5000 0.8660 0.0000
vn -0.8090 0.5878 0.0000
vn -0.9781 0.2079 0.0000
vn -0.9781 -0.2079 -0.0000
vn -0.8090 -0.5878 -0.0000
vn 1.0000 0.0000 0.0000
vn -0.9914 -0.1305 -0.0000
vn -1.0000 0.0000 0.0000
vn -0.9659 0.2588 0.0000
vn -0.7071 0.7071 0.0000
vn -0.7934 -0.6088 -0.0000
vn -0.9239 -0.3827 -0.0000
vn 0.7071 0.7071 0.0000
vn 0.9659 0.2588 0.0000
vn 0.9914 -0.1305 -0.0000
vn 0.9239 -0.3827 -0.0000
usemtl Default_OBJ.304
s 1
f 1//1 2//1 3//1
f 1//1 3//1 4//1
f 5//2 1//2 4//2
f 6//3 2//3 1//3
f 7//3 1//3 5//3
f 6//3 1//3 8//3
f 7//3 8//3 1//3
f 9//4 8//4 7//4
f 9//5 7//5 10//5
f 10//3 7//3 11//3
f 7//3 12//3 11//3
f 7//3 5//3 12//3
f 11//6 12//6 13//6
f 12//7 5//7 14//7
f 12//7 14//7 13//7
f 4//8 15//8 13//8
f 4//8 13//8 14//8
f 11//6 13//6 15//6
f 4//8 16//8 15//8
f 17//9 11//9 15//9
f 17//9 15//9 16//9
f 10//3 17//3 18//3
f 18//10 17//10 16//10
f 10//3 11//3 17//3
f 18//10 16//10 19//10
f 20//11 18//11 19//11
f 10//3 18//3 20//3
f 20//12 21//12 22//12
f 20//11 19//11 21//11
f 23//3 10//3 20//3
f 23//12 20//12 22//12
f 24//13 23//13 22//13
f 25//3 10//3 23//3
f 26//3 25//3 23//3
f 24//3 26//3 23//3
f 27//3 28//3 24//3
f 27//3 24//3 29//3
f 24//13 22//13 30//13
f 24//14 30//14 31//14
f 29//14 24//14 31//14
f 24//3 32//3 26//3
f 24//3 28//3 33//3
f 24//3 33//3 34//3
f 24//3 34//3 32//3
f 35//3 28//3 27//3
f 36//15 28//15 35//15
f 36//15 37//15 28//15
f 37//16 33//16 28//16
f 38//3 39//3 36//3
f 36//3 39//3 37//3
f 40//3 36//3 41//3
f 41//17 36//17 35//17
f 42//3 36//3 40//3
f 42//3 38//3 36//3
f 38//3 43//3 39//3
f 43//18 38//18 44//18
f 38//19 45//19 46//19
f 38//19 46//19 44//19
f 42//3 45//3 38//3
f 45//20 47//20 46//20
f 45//20 42//20 47//20
f 48//3 47//3 49//3
f 48//3 50//3 47//3
f 50//3 46//3 47//3
f 42//21 49//21 47//21
f 50//22 51//22 52//22
f 53//23 50//23 52//23
f 54//3 55//3 50//3
f 54//3 50//3 48//3
f 50//22 55//22 51//22
f 50//3 56//3 57//3
f 50//3 53//3 56//3
f 50//3 57//3 58//3
f 50//3 58//3 44//3
f 50//3 44//3 46//3
f 53//3 59//3 60//3
f 53//3 61//3 59//3
f 53//3 62//3 61//3
f 62//24 53//24 63//24
f 53//23 52//23 63//23
f 64//3 53//3 60//3
f 56//3 53//3 64//3
f 65//25 64//25 60//25
f 66//18 56//18 64//18
f 65//25 66//25 64//25
f 66//3 65//3 67//3
f 65//26 60//26 68//26
f 67//26 65//26 68//26
f 69//27 68//27 70//27
f 59//3 70//3 68//3
f 60//3 59//3 68//3
f 69//27 67//27 68//27
f 71//28 69//28 72//28
f 69//28 70//28 72//28
f 67//3 69//3 71//3
f 71//29 72//29 73//29
f 66//3 71//3 74//3
f 74//29 71//29 73//29
f 66//3 67//3 71//3
f 75//3 73//3 2//3
f 73//3 76//3 2//3
f 72//3 76//3 73//3
f 77//4 73//4 75//4
f 77//4 74//4 73//4
f 77//5 75//5 78//5
f 79//5 77//5 78//5
f 66//3 74//3 77//3
f 66//3 77//3 79//3
f 80//3 79//3 81//3
f 81//16 79//16 78//16
f 82//3 79//3 80//3
f 82//3 66//3 79//3
f 83//3 82//3 80//3
f 66//18 82//18 56//18
f 82//19 57//19 56//19
f 82//19 83//19 57//19
f 83//20 84//20 85//20
f 83//20 85//20 57//20
f 84//3 83//3 80//3
f 84//21 86//21 85//21
f 84//3 80//3 87//3
f 84//3 87//3 88//3
f 84//21 88//21 86//21
f 88//30 89//30 86//30
f 90//3 86//3 89//3
f 91//3 86//3 90//3
f 91//3 85//3 86//3
f 92//3 85//3 91//3
f 93//26 92//26 91//26
f 94//27 95//27 91//27
f 94//27 91//27 90//27
f 95//26 93//26 91//26
f 93//3 95//3 94//3
f 43//3 93//3 96//3
f 93//25 43//25 58//25
f 93//25 58//25 92//25
f 93//3 94//3 97//3
f 93//3 97//3 96//3
f 98//4 96//4 99//4
f 96//29 97//29 99//29
f 43//3 96//3 98//3
f 43//3 98//3 39//3
f 39//5 98//5 33//5
f 98//5 100//5 33//5
f 98//4 99//4 100//4
f 33//3 100//3 101//3
f 100//3 102//3 101//3
f 100//3 99//3 102//3
f 103//19 102//19 104//19
f 99//3 104//3 102//3
f 105//20 101//20 102//20
f 103//19 105//19 102//19
f 103//3 106//3 107//3
f 103//3 108//3 106//3
f 105//3 103//3 107//3
f 109//18 103//18 104//18
f 103//3 109//3 108//3
f 106//16 108//16 10//16
f 108//5 9//5 10//5
f 109//3 9//3 108//3
f 110//25 109//25 111//25
f 109//18 104//18 111//18
f 109//3 112//3 113//3
f 109//3 113//3 114//3
f 109//3 114//3 115//3
f 109//3 115//3 9//3
f 109//3 110//3 112//3
f 112//26 110//26 116//26
f 113//27 112//27 116//27
f 75//3 2//3 116//3
f 116//3 2//3 117//3
f 113//27 116//27 117//27
f 78//3 75//3 116//3
f 78//3 116//3 118//3
f 110//26 118//26 116//26
f 119//3 78//3 118//3
f 119//3 118//3 111//3
f 110//25 111//25 118//25
f 81//16 78//16 119//16
f 120//3 119//3 111//3
f 80//15 119//15 120//15
f 80//15 81//15 119//15
f 120//3 111//3 104//3
f 121//3 120//3 104//3
f 121//3 89//3 120//3
f 87//17 120//17 89//17
f 87//17 80//17 120//17
f 90//3 89//3 121//3
f 94//28 90//28 121//28
f 97//28 94//28 121//28
f 97//29 121//29 99//29
f 121//3 104//3 99//3
f 113//28 117//28 6//28
f 117//3 2//3 6//3
f 9//4 115//4 8//4
f 115//29 114//29 8//29
f 114//28 113//28 6//28
f 114//29 6//29 8//29
f 107//15 106//15 25//15
f 122//3 107//3 123//3
f 123//17 107//17 26//17
f 105//3 107//3 122//3
f 107//15 25//15 26//15
f 122//30 123//30 32//30
f 122//30 32//30 34//30
f 124//3 105//3 122//3
f 124//21 122//21 34//21
f 105//20 124//20 101//20
f 124//21 34//21 101//21
f 123//17 26//17 32//17
f 106//16 10//16 25//16
f 33//3 101//3 34//3
f 92//3 57//3 85//3
f 58//3 57//3 92//3
f 88//30 87//30 89//30
f 76//3 125//3 2//3
f 76//3 126//3 125//3
f 126//31 76//31 127//31
f 76//32 128//32 127//32
f 76//32 59//32 128//32
f 59//3 76//3 70//3
f 70//3 76//3 72//3
f 59//33 129//33 128//33
f 128//8 63//8 127//8
f 129//8 63//8 128//8
f 59//33 61//33 129//33
f 61//34 130//34 129//34
f 130//8 63//8 129//8
f 61//34 62//34 130//34
f 62//24 63//24 130//24
f 2//35 125//35 131//35
f 125//36 132//36 131//36
f 125//36 126//36 132//36
f 126//31 127//31 132//31
f 132//8 127//8 131//8
f 131//8 127//8 3//8
f 2//35 131//35 3//35
f 127//8 63//8 3//8
f 63//8 30//8 3//8
f 63//8 52//8 30//8
f 43//18 44//18 58//18
f 55//37 54//37 51//37
f 51//8 133//8 52//8
f 54//37 133//37 51//37
f 52//8 133//8 134//8
f 54//38 134//38 133//38
f 52//8 134//8 135//8
f 54//38 48//38 134//38
f 48//30 27//30 134//30
f 27//30 135//30 134//30
f 30//8 52//8 135//8
f 27//39 136//39 135//39
f 30//8 135//8 31//8
f 31//8 135//8 136//8
f 27//39 137//39 136//39
f 137//40 29//40 136//40
f 29//40 31//40 136//40
f 27//3 29//3 137//3
f 48//3 49//3 138//3
f 40//30 138//30 49//30
f 42//21 40//21 49//21
f 48//3 138//3 27//3
f 40//30 41//30 138//30
f 41//17 35//17 138//17
f 138//3 35//3 27//3
f 37//16 39//16 33//16
f 3//8 30//8 22//8
f 3//8 22//8 4//8
f 4//8 22//8 16//8
f 16//8 22//8 21//8
f 16//8 21//8 19//8
f 5//2 4//2 14//2
