# Blender v3.0.1 OBJ File: ''
# www.blender.org
mtllib Medium_Long_3Prong_Purple.mtl
o obj1.030_obj1.005
v 13.371216 17.241364 19.410110
v -13.028778 17.241364 19.410110
v -13.028778 17.241362 24.410110
v 13.371216 17.241362 24.410110
v 17.331207 16.180279 74.410110
v 9.411194 16.180286 19.410110
v 17.331207 16.180292 -35.589893
v 13.371216 17.241369 -35.589893
v -9.068787 16.180286 19.410110
v 6.512299 13.281356 19.410110
v 9.411194 16.180292 -35.589893
v 22.611206 22.521372 -35.589893
v 6.512299 13.281366 -35.589893
v -9.068787 16.180292 -35.589893
v -22.268799 22.521372 -35.589893
v -13.028778 17.241369 -35.589893
v -6.169861 13.281356 19.410110
v -6.169861 13.281366 -35.589893
v -5.108795 9.321357 19.410110
v -6.169861 5.361358 19.410110
v -5.108795 9.321367 -35.589893
v 5.451202 9.321357 19.410110
v 6.512299 5.361358 19.410110
v 6.512299 5.361368 -35.589893
v 5.451202 9.321367 -35.589893
v 9.411194 2.462450 -35.589893
v 4.131195 -6.682784 -35.589893
v -6.169861 5.361368 -35.589893
v 0.171204 -5.621703 -35.589893
v 0.171204 -5.621713 19.410110
v 4.131195 -6.682794 19.410110
v 7.030121 -9.581701 -35.589893
v 9.411224 2.462440 19.410110
v 7.030121 -9.581712 19.410103
v 13.371216 1.401359 19.410110
v 8.091217 -13.541711 19.410103
v 8.091217 -13.541700 -35.589893
v 7.030121 -17.501699 -35.589893
v 25.411346 -5.461562 -35.589893
v 26.571198 -2.661413 -35.589893
v 17.331207 2.462450 -35.589893
v 26.040680 -4.641417 -35.589893
v 5.291077 -25.581844 -75.589897
v 25.411346 -5.461560 -75.589897
v 26.040680 -4.641415 -75.589897
v 5.291077 -25.581846 -35.589893
v 13.371216 1.401369 -35.589893
v 17.331207 2.462440 19.410110
v 20.230133 5.361368 -35.589893
v 21.291199 9.321367 -35.589893
v 20.230133 5.361365 19.410110
v 7.030121 -17.501709 19.410103
v 7.030121 -17.501711 24.410103
v 20.230133 5.361365 24.410110
v 21.291199 9.321355 74.410110
v 20.230133 13.281354 74.410110
v 20.230133 5.361355 74.410110
v 20.230133 13.281366 -35.589893
v 13.371216 17.241356 74.410110
v 6.512299 13.281354 74.410110
v 17.331207 2.462437 74.410110
v 9.411194 16.180279 74.410110
v 9.411194 16.180285 24.410110
v 6.512299 13.281356 24.410110
v -9.068787 16.180285 24.410110
v -6.169861 13.281356 24.410110
v -9.068787 16.180279 74.410110
v -13.028778 17.241356 74.410110
v -16.988800 16.180279 74.410110
v -19.887726 13.281354 74.410110
v -9.068787 2.462437 74.410110
v -6.169861 5.361355 74.410110
v -6.169861 13.281354 74.410110
v -5.108795 9.321355 74.410110
v -5.108795 9.321357 24.410110
v -6.169861 5.361358 24.410110
v -9.068787 2.462440 24.410110
v -3.788788 -6.682794 24.410110
v 0.171204 -5.621713 24.410110
v 6.512299 5.361358 24.410110
v 5.451202 9.321357 24.410110
v -13.028778 1.401358 24.410110
v -6.687714 -9.581712 24.410103
v -7.748779 -13.541711 24.410103
v -6.687714 -9.581714 74.410110
v -3.788788 -6.682796 74.410110
v -7.748779 -13.541713 74.410110
v -6.687714 -17.501713 74.410110
v 4.131195 -20.400639 74.410110
v 0.171204 -5.621715 74.410110
v 4.131195 -20.400625 -35.589893
v 0.171204 -21.461712 74.410110
v 0.171204 -21.461699 -35.589893
v 7.030121 -17.501713 74.410110
v 7.030121 -9.581714 74.410110
v 8.091217 -13.541713 74.410110
v 8.091217 -13.541711 24.410103
v 17.331207 2.462440 24.410110
v 13.371216 1.401358 24.410110
v 7.030121 -9.581712 24.410103
v 4.131195 -6.682794 24.410110
v 9.411224 2.462440 24.410110
v 9.411194 2.462437 74.410110
v 13.371216 1.401356 74.410110
v 6.512299 5.361355 74.410110
v 5.451202 9.321355 74.410110
v 4.131195 -6.682796 74.410110
v -3.788788 -20.400625 -35.589893
v -3.788788 -20.400639 74.410110
v -4.128510 -26.211164 -35.589893
v -4.948639 -25.581846 -35.589893
v -6.687714 -17.501709 19.410103
v -6.687714 -17.501699 -35.589893
v -25.068939 -5.461562 -35.589893
v -25.068939 -5.461560 -75.589897
v -4.948639 -25.581844 -75.589897
v -25.698242 -4.641415 -75.589897
v -16.988800 2.462450 -35.589893
v -26.228790 -2.661413 -35.589893
v -25.698242 -4.641417 -35.589893
v -7.748779 -13.541700 -35.589893
v -6.687714 -9.581701 -35.589893
v -13.028778 1.401369 -35.589893
v -13.028778 1.401359 19.410110
v -16.988800 2.462440 19.410110
v -9.068787 2.462450 -35.589893
v -3.788788 -6.682784 -35.589893
v -9.068787 2.462440 19.410110
v -6.687714 -9.581712 19.410103
v -3.788788 -6.682794 19.410110
v -7.748779 -13.541711 19.410103
v -7.628479 -14.917008 19.410103
v -7.271149 -16.250511 19.410103
v -19.887726 5.361358 19.410110
v -6.687714 -17.501711 24.410103
v -19.887726 5.361358 24.410110
v -20.948792 9.321355 74.410110
v -19.887726 5.361368 -35.589893
v -20.948792 9.321367 -35.589893
v -19.887726 13.281366 -35.589893
v -19.887726 5.361355 74.410110
v -13.028778 1.401356 74.410110
v -16.988800 2.462437 74.410110
v -16.988800 2.462440 24.410110
v -7.628479 -14.917008 24.410103
v -7.271149 -16.250513 24.410103
v -26.228790 18.561369 -35.589893
v -16.988800 16.180292 -35.589893
v -25.698242 20.541370 -75.589890
v -26.228790 18.561371 -75.589890
v -26.228790 -2.661412 -75.589897
v -25.698242 20.541368 -35.589893
v -22.268799 22.521374 -75.589890
v -26.093872 -3.686339 -35.589893
v -26.093872 -3.686337 -75.589897
v 22.611206 22.521374 -75.589890
v -24.248779 21.990833 -75.589890
v 24.591217 21.990831 -35.589893
v 24.591217 21.990833 -75.589890
v 26.571198 18.561371 -75.589890
v 26.571198 -2.661412 -75.589897
v 26.436279 -3.686337 -75.589897
v 26.571198 18.561369 -35.589893
v 26.040680 20.541368 -35.589893
v 26.040680 20.541370 -75.589890
v 26.436279 -3.686339 -35.589893
v -24.248779 21.990831 -35.589893
v 2.490936 -26.741695 -75.589897
v -2.148499 -26.741695 -75.589897
v -4.128510 -26.211163 -75.589897
v -3.173431 -26.606762 -75.589897
v -3.173431 -26.606764 -35.589893
v -2.148499 -26.741697 -35.589893
v 2.490936 -26.741697 -35.589893
v 3.515839 -26.606762 -75.589897
v 3.515839 -26.606764 -35.589893
v 4.470917 -26.211163 -75.589897
v 4.470917 -26.211164 -35.589893
vn 0.0000 1.0000 0.0000
vn 0.2588 0.9659 0.0000
vn 0.0000 0.0000 -1.0000
vn -0.2588 0.9659 0.0000
vn -0.7071 0.7071 0.0000
vn 0.0000 0.0000 1.0000
vn 0.7071 0.7071 0.0000
vn 0.9659 0.2588 0.0000
vn 0.9659 -0.2588 -0.0000
vn -0.9659 -0.2588 -0.0000
vn -0.9659 0.2588 0.0000
vn -0.7071 -0.7071 -0.0000
vn 0.7071 -0.7071 -0.0000
vn 0.7933 -0.6088 -0.0000
vn 0.2588 -0.9659 -0.0000
vn 0.8660 -0.5000 -0.0000
vn -0.2588 -0.9659 -0.0000
vn -0.6088 -0.7933 -0.0000
vn -0.7934 -0.6088 -0.0000
vn -0.9962 -0.0871 -0.0000
vn -0.9659 -0.2588 -0.0044
vn -0.8660 -0.5000 -0.0000
vn -0.9659 -0.2588 0.0048
vn -0.9063 -0.4226 -0.0000
vn -1.0000 0.0000 0.0000
vn -0.9914 -0.1305 -0.0000
vn 0.9914 -0.1305 -0.0000
vn 1.0000 0.0000 0.0000
vn -0.0001 0.0000 -1.0000
vn 0.9239 -0.3827 -0.0000
vn -0.9239 -0.3827 -0.0000
vn -0.3827 -0.9239 -0.0000
vn -0.1305 -0.9914 -0.0000
vn 0.0000 -1.0000 -0.0000
vn 0.1305 -0.9914 -0.0000
vn 0.3827 -0.9239 -0.0000
vn 0.6088 -0.7934 -0.0000
usemtl Default_OBJ.314
s 1
f 1//1 2//1 3//1
f 1//1 3//1 4//1
f 4//2 5//2 1//2
f 2//3 1//3 6//3
f 1//2 7//2 8//2
f 1//2 5//2 7//2
f 6//4 1//4 8//4
f 2//3 6//3 9//3
f 9//3 6//3 10//3
f 10//5 6//5 11//5
f 6//4 8//4 11//4
f 12//6 11//6 8//6
f 10//5 11//5 13//5
f 11//6 14//6 13//6
f 11//6 15//6 14//6
f 12//6 15//6 11//6
f 16//2 9//2 14//2
f 14//6 15//6 16//6
f 14//7 17//7 18//7
f 13//6 14//6 18//6
f 9//7 17//7 14//7
f 9//3 10//3 17//3
f 17//3 10//3 19//3
f 17//8 19//8 18//8
f 19//9 20//9 21//9
f 19//3 22//3 20//3
f 18//8 19//8 21//8
f 19//3 10//3 22//3
f 20//3 22//3 23//3
f 23//10 22//10 24//10
f 22//11 10//11 13//11
f 24//10 22//10 25//10
f 22//11 13//11 25//11
f 13//6 18//6 25//6
f 25//6 18//6 21//6
f 25//6 21//6 24//6
f 26//12 23//12 24//12
f 26//6 24//6 27//6
f 24//6 21//6 28//6
f 24//6 28//6 29//6
f 24//6 29//6 27//6
f 30//2 27//2 29//2
f 30//2 31//2 27//2
f 26//6 27//6 32//6
f 31//7 32//7 27//7
f 30//3 23//3 31//3
f 23//3 33//3 31//3
f 31//3 33//3 34//3
f 31//7 34//7 32//7
f 33//3 35//3 34//3
f 34//3 35//3 36//3
f 34//8 36//8 37//8
f 34//8 37//8 32//8
f 36//9 38//9 37//9
f 39//6 37//6 38//6
f 39//6 32//6 37//6
f 40//6 41//6 39//6
f 40//6 39//6 42//6
f 39//13 43//13 44//13
f 39//14 44//14 45//14
f 42//14 39//14 45//14
f 39//6 38//6 46//6
f 39//13 46//13 43//13
f 39//6 47//6 32//6
f 39//6 41//6 47//6
f 48//15 35//15 41//15
f 41//15 35//15 47//15
f 49//13 48//13 41//13
f 49//6 41//6 40//6
f 50//6 49//6 40//6
f 50//9 51//9 49//9
f 51//13 48//13 49//13
f 52//16 51//16 53//16
f 53//16 51//16 54//16
f 55//9 54//9 51//9
f 48//3 51//3 52//3
f 55//9 51//9 50//9
f 56//8 55//8 50//8
f 56//6 57//6 55//6
f 55//9 57//9 54//9
f 56//8 50//8 58//8
f 56//6 59//6 57//6
f 56//7 58//7 7//7
f 5//7 56//7 7//7
f 56//6 5//6 59//6
f 59//2 5//2 4//2
f 59//6 60//6 61//6
f 59//6 61//6 57//6
f 59//6 62//6 60//6
f 62//4 59//4 63//4
f 63//4 59//4 4//4
f 64//5 62//5 63//5
f 63//6 65//6 64//6
f 63//6 3//6 65//6
f 4//6 3//6 63//6
f 64//6 65//6 66//6
f 67//7 66//7 65//7
f 68//2 67//2 65//2
f 68//2 65//2 3//2
f 68//6 69//6 70//6
f 69//4 68//4 3//4
f 68//6 70//6 71//6
f 68//6 71//6 72//6
f 73//6 68//6 72//6
f 73//6 67//6 68//6
f 73//8 74//8 75//8
f 73//8 75//8 66//8
f 67//7 73//7 66//7
f 73//6 72//6 74//6
f 74//9 76//9 75//9
f 74//9 72//9 76//9
f 76//6 77//6 78//6
f 76//6 78//6 79//6
f 80//6 76//6 79//6
f 81//6 76//6 80//6
f 81//6 75//6 76//6
f 72//13 77//13 76//13
f 71//15 82//15 77//15
f 77//6 82//6 83//6
f 77//6 83//6 78//6
f 72//13 71//13 77//13
f 84//11 85//11 83//11
f 82//6 84//6 83//6
f 83//5 86//5 78//5
f 85//5 86//5 83//5
f 85//6 87//6 88//6
f 87//11 85//11 84//11
f 89//6 85//6 88//6
f 90//6 85//6 89//6
f 90//6 86//6 85//6
f 53//13 89//13 52//13
f 52//13 89//13 91//13
f 89//15 92//15 93//15
f 89//15 93//15 91//15
f 89//6 88//6 92//6
f 94//13 89//13 53//13
f 90//6 89//6 94//6
f 95//6 94//6 96//6
f 96//9 94//9 97//9
f 95//6 90//6 94//6
f 97//9 94//9 53//9
f 98//6 99//6 97//6
f 99//6 100//6 97//6
f 98//6 97//6 53//6
f 100//8 96//8 97//8
f 101//7 95//7 100//7
f 102//6 101//6 100//6
f 99//6 102//6 100//6
f 95//8 96//8 100//8
f 103//12 80//12 102//12
f 102//6 80//6 101//6
f 104//17 102//17 99//17
f 104//17 103//17 102//17
f 61//15 104//15 99//15
f 61//6 105//6 104//6
f 104//6 105//6 103//6
f 60//6 106//6 105//6
f 105//10 106//10 81//10
f 103//12 105//12 80//12
f 61//6 60//6 105//6
f 105//10 81//10 80//10
f 106//11 60//11 81//11
f 79//2 107//2 101//2
f 80//6 79//6 101//6
f 107//7 95//7 101//7
f 90//2 107//2 79//2
f 95//6 107//6 90//6
f 61//15 99//15 98//15
f 54//6 98//6 53//6
f 57//13 61//13 98//13
f 57//13 98//13 54//13
f 92//17 108//17 93//17
f 92//6 88//6 109//6
f 92//17 109//17 108//17
f 93//6 108//6 110//6
f 108//6 111//6 110//6
f 109//12 112//12 108//12
f 108//12 112//12 113//12
f 113//6 111//6 108//6
f 111//12 114//12 115//12
f 111//12 115//12 116//12
f 110//18 111//18 116//18
f 113//6 114//6 111//6
f 114//19 117//19 115//19
f 118//6 119//6 114//6
f 119//6 120//6 114//6
f 114//19 120//19 117//19
f 121//6 114//6 113//6
f 122//6 114//6 121//6
f 123//6 114//6 122//6
f 123//6 118//6 114//6
f 124//17 125//17 123//17
f 123//17 125//17 118//17
f 126//6 123//6 122//6
f 126//15 124//15 123//15
f 28//6 126//6 127//6
f 126//6 122//6 127//6
f 28//13 128//13 126//13
f 128//15 124//15 126//15
f 124//3 128//3 129//3
f 129//3 128//3 130//3
f 128//3 20//3 130//3
f 20//13 128//13 28//13
f 129//5 130//5 127//5
f 130//3 20//3 30//3
f 130//4 30//4 29//4
f 130//4 29//4 127//4
f 131//11 129//11 122//11
f 131//3 124//3 129//3
f 129//5 127//5 122//5
f 132//20 131//20 121//20
f 132//3 125//3 131//3
f 125//3 124//3 131//3
f 131//11 122//11 121//11
f 133//21 132//21 113//21
f 133//3 134//3 132//3
f 134//3 125//3 132//3
f 113//21 132//21 121//21
f 125//12 134//12 118//12
f 134//22 112//22 135//22
f 134//22 135//22 136//22
f 136//10 137//10 134//10
f 112//3 134//3 133//3
f 118//12 134//12 138//12
f 134//10 139//10 138//10
f 134//10 137//10 139//10
f 137//11 140//11 139//11
f 141//10 137//10 136//10
f 137//11 70//11 140//11
f 70//6 137//6 141//6
f 142//6 141//6 143//6
f 143//12 141//12 136//12
f 71//6 141//6 142//6
f 71//6 70//6 141//6
f 142//17 143//17 144//17
f 71//15 142//15 82//15
f 142//17 144//17 82//17
f 144//6 136//6 145//6
f 144//6 145//6 84//6
f 82//6 144//6 84//6
f 143//12 136//12 144//12
f 88//23 145//23 146//23
f 136//6 146//6 145//6
f 88//23 87//23 145//23
f 87//20 84//20 145//20
f 88//24 146//24 135//24
f 136//6 135//6 146//6
f 140//6 147//6 139//6
f 148//6 147//6 140//6
f 70//5 148//5 140//5
f 69//4 2//4 148//4
f 148//4 2//4 16//4
f 15//6 147//6 148//6
f 16//6 15//6 148//6
f 70//5 69//5 148//5
f 147//11 149//11 150//11
f 147//25 150//25 151//25
f 15//6 152//6 147//6
f 147//11 152//11 149//11
f 147//6 119//6 139//6
f 119//25 147//25 151//25
f 151//3 153//3 115//3
f 117//3 151//3 115//3
f 154//26 119//26 151//26
f 154//26 151//26 155//26
f 155//3 151//3 117//3
f 150//3 153//3 151//3
f 153//3 44//3 115//3
f 149//3 153//3 150//3
f 15//1 156//1 153//1
f 15//4 153//4 157//4
f 157//3 153//3 149//3
f 153//3 156//3 44//3
f 12//2 158//2 156//2
f 15//1 12//1 156//1
f 156//3 159//3 160//3
f 161//3 156//3 160//3
f 158//2 159//2 156//2
f 44//3 156//3 161//3
f 40//27 162//27 161//27
f 163//28 40//28 161//28
f 44//3 161//3 45//3
f 45//3 161//3 162//29
f 163//28 161//28 160//28
f 158//6 12//6 163//6
f 12//6 58//6 163//6
f 163//6 50//6 40//6
f 163//6 58//6 50//6
f 158//6 163//6 164//6
f 164//8 163//8 160//8
f 164//8 160//8 165//8
f 158//7 164//7 165//7
f 160//3 159//3 165//3
f 158//7 165//7 159//7
f 40//27 166//27 162//27
f 42//30 45//30 162//30
f 166//30 42//30 162//30
f 40//6 42//6 166//6
f 167//4 15//4 157//4
f 152//5 167//5 157//5
f 152//5 157//5 149//5
f 15//6 167//6 152//6
f 120//31 154//31 155//31
f 120//31 155//31 117//31
f 119//6 154//6 120//6
f 139//6 119//6 138//6
f 138//6 119//6 118//6
f 109//12 135//12 112//12
f 109//12 88//12 135//12
f 112//24 133//24 113//24
f 28//6 127//6 29//6
f 115//3 43//3 116//3
f 116//3 43//3 168//3
f 116//3 168//3 169//3
f 116//3 169//3 170//3
f 110//18 116//18 170//18
f 170//3 169//3 171//3
f 172//32 110//32 170//32
f 172//32 170//32 171//32
f 173//33 171//33 169//33
f 173//33 172//33 171//33
f 174//34 173//34 169//34
f 93//6 172//6 173//6
f 93//6 173//6 174//6
f 174//34 169//34 168//34
f 174//35 168//35 175//35
f 176//35 174//35 175//35
f 93//6 174//6 176//6
f 176//36 175//36 177//36
f 178//36 176//36 177//36
f 93//6 176//6 178//6
f 91//6 93//6 178//6
f 91//6 178//6 46//6
f 46//37 178//37 43//37
f 178//37 177//37 43//37
f 168//3 43//3 177//3
f 168//3 177//3 175//3
f 93//6 110//6 172//6
f 115//3 44//3 43//3
f 52//13 91//13 38//13
f 38//6 91//6 46//6
f 86//4 90//4 78//4
f 78//4 90//4 79//4
f 64//6 75//6 81//6
f 81//11 60//11 64//11
f 64//6 66//6 75//6
f 69//4 3//4 2//4
f 60//5 62//5 64//5
f 12//6 7//6 58//6
f 36//9 52//9 38//9
f 36//3 48//3 52//3
f 35//3 48//3 36//3
f 35//17 33//17 47//17
f 47//6 26//6 32//6
f 47//17 33//17 26//17
f 33//12 23//12 26//12
f 20//3 23//3 30//3
f 21//9 20//9 28//9
f 2//2 9//2 16//2
f 12//6 8//6 7//6
