# Blender v3.0.1 OBJ File: ''
# www.blender.org
mtllib Medium_Long_Arch_Brown.mtl
o obj1.037_obj1.005
v -23.999908 -7.511508 75.000000
v -23.999908 15.528485 75.000000
v -23.999908 15.528499 -75.000008
v -23.999908 -7.511502 -75.000008
v -15.167236 -7.966236 75.000000
v -18.011108 -10.391498 75.000000
v -21.119934 -10.391498 75.000000
v -22.559906 -10.005664 75.000000
v -23.614075 -8.951510 75.000000
v -12.019379 -0.827899 75.000000
v -14.054077 -4.193882 75.000000
v -23.614075 -8.951505 -75.000008
v -22.559906 -10.005658 -75.000008
v -21.119934 -10.391492 -75.000008
v -18.011108 -10.391492 -75.000008
v -15.167236 -7.966229 -75.000008
v -15.682831 -9.206616 -75.000008
v -16.704895 -10.078250 75.000000
v -16.704895 -10.078244 -75.000008
v -15.682831 -9.206622 75.000000
v -14.054077 -4.193875 -75.000008
v -12.019379 -0.827893 -75.000008
v -9.196564 1.910999 -75.000008
v -21.119934 18.408504 -75.000008
v -5.770721 3.843235 -75.000008
v -9.196564 1.910992 75.000000
v -5.770721 3.843228 75.000000
v -21.119934 18.408489 75.000000
v 21.120087 18.408504 -75.000008
v -22.559906 18.022640 75.000000
v -23.614075 16.968487 75.000000
v 21.120087 18.408489 75.000000
v -1.966492 4.842076 75.000000
v -22.559906 18.022655 -75.000008
v -23.614075 16.968502 -75.000008
v 1.966675 4.842076 75.000000
v 1.966675 4.842090 -75.000008
v -1.966492 4.842090 -75.000008
v 5.770874 3.843235 -75.000008
v 9.196716 1.910999 -75.000008
v 5.770874 3.843228 75.000000
v 9.196716 1.910992 75.000000
v 12.019531 -0.827899 75.000000
v 12.019531 -0.827893 -75.000008
v 24.000092 15.528485 75.000000
v 24.000092 -7.511508 75.000000
v 14.054230 -4.193882 75.000000
v 14.054230 -4.193875 -75.000008
v 24.000092 -7.511502 -75.000008
v 15.167389 -7.966229 -75.000008
v 24.000092 15.528499 -75.000008
v 23.614227 -8.951510 75.000000
v 21.120087 -10.391492 -75.000008
v 22.560089 -10.005658 -75.000008
v 18.011261 -10.391492 -75.000008
v 23.614227 -8.951505 -75.000008
v 22.560089 -10.005664 75.000000
v 21.120087 -10.391498 75.000000
v 18.011261 -10.391498 75.000000
v 16.705048 -10.078244 -75.000008
v 15.682983 -9.206622 75.000000
v 16.705048 -10.078250 75.000000
v 15.167389 -7.966236 75.000000
v 15.682983 -9.206616 -75.000008
v 23.614227 16.968502 -75.000008
v 23.614227 16.968487 75.000000
v 22.560089 18.022640 75.000000
v 22.560089 18.022655 -75.000008
vn -1.0000 0.0000 0.0000
vn 0.0000 0.0000 1.0000
vn -0.9659 -0.2588 -0.0000
vn -0.7071 -0.7071 -0.0000
vn -0.0000 0.0000 -1.0000
vn -0.2588 -0.9659 -0.0000
vn 0.0000 -1.0000 -0.0000
vn 0.2332 -0.9724 -0.0000
vn 0.9234 -0.3838 -0.0000
vn 0.6489 -0.7609 -0.0000
vn 0.9591 -0.2830 -0.0000
vn 0.8558 -0.5173 -0.0000
vn 0.6964 -0.7177 -0.0000
vn 0.4913 -0.8710 -0.0000
vn 0.0000 1.0000 0.0000
vn -0.2588 0.9659 0.0000
vn -0.7071 0.7071 0.0000
vn -0.9659 0.2588 0.0000
vn 0.2540 -0.9672 -0.0000
vn -0.2540 -0.9672 -0.0000
vn -0.4913 -0.8710 -0.0000
vn -0.6964 -0.7177 -0.0000
vn -0.8558 -0.5173 -0.0000
vn -0.9591 -0.2830 -0.0000
vn 1.0000 0.0000 0.0000
vn 0.9659 -0.2588 -0.0000
vn 0.2588 -0.9659 -0.0000
vn 0.7071 -0.7071 -0.0000
vn -0.2332 -0.9724 -0.0000
vn -0.6489 -0.7609 -0.0000
vn -0.9234 -0.3838 -0.0000
vn 0.9659 0.2588 0.0000
vn 0.7071 0.7071 0.0000
vn 0.2588 0.9659 0.0000
usemtl Default_OBJ.315
s 1
f 1//1 2//1 3//1
f 1//1 3//1 4//1
f 5//2 1//2 6//2
f 6//2 1//2 7//2
f 7//2 1//2 8//2
f 1//2 9//2 8//2
f 9//3 1//3 4//3
f 2//2 1//2 10//2
f 10//2 1//2 11//2
f 11//2 1//2 5//2
f 8//4 9//4 12//4
f 9//3 4//3 12//3
f 8//4 12//4 13//4
f 12//5 4//5 13//5
f 4//5 14//5 13//5
f 8//6 13//6 14//6
f 7//6 8//6 14//6
f 7//7 14//7 15//7
f 4//5 15//5 14//5
f 15//5 16//5 17//5
f 4//5 16//5 15//5
f 18//8 6//8 15//8
f 18//8 15//8 19//8
f 15//5 17//5 19//5
f 6//7 7//7 15//7
f 20//9 17//9 16//9
f 20//10 19//10 17//10
f 5//2 6//2 20//2
f 5//9 20//9 16//9
f 20//2 6//2 18//2
f 20//10 18//10 19//10
f 4//5 21//5 16//5
f 21//11 5//11 16//11
f 11//11 5//11 21//11
f 4//5 22//5 21//5
f 22//12 11//12 21//12
f 3//5 23//5 22//5
f 23//13 10//13 22//13
f 4//5 3//5 22//5
f 10//12 11//12 22//12
f 24//5 25//5 23//5
f 3//5 24//5 23//5
f 25//14 26//14 23//14
f 26//13 10//13 23//13
f 27//2 28//2 26//2
f 27//14 26//14 25//14
f 28//2 2//2 26//2
f 26//2 2//2 10//2
f 28//15 29//15 24//15
f 30//16 28//16 24//16
f 28//2 31//2 2//2
f 28//2 30//2 31//2
f 28//15 32//15 29//15
f 32//2 28//2 33//2
f 33//2 28//2 27//2
f 31//17 30//17 34//17
f 30//16 24//16 34//16
f 34//5 24//5 35//5
f 31//17 34//17 35//17
f 35//5 24//5 3//5
f 31//18 35//18 3//18
f 32//2 33//2 36//2
f 36//7 33//7 37//7
f 37//7 33//7 38//7
f 33//19 27//19 38//19
f 24//5 29//5 38//5
f 24//5 38//5 25//5
f 38//19 27//19 25//19
f 38//5 29//5 37//5
f 37//5 29//5 39//5
f 39//20 36//20 37//20
f 39//5 29//5 40//5
f 40//21 41//21 39//21
f 41//20 36//20 39//20
f 32//2 41//2 42//2
f 42//21 41//21 40//21
f 32//2 36//2 41//2
f 43//22 42//22 44//22
f 44//22 42//22 40//22
f 45//2 32//2 42//2
f 45//2 42//2 43//2
f 45//2 43//2 46//2
f 46//2 43//2 47//2
f 47//23 43//23 48//23
f 48//23 43//23 44//23
f 48//5 49//5 50//5
f 50//24 47//24 48//24
f 44//5 49//5 48//5
f 44//5 51//5 49//5
f 45//25 49//25 51//25
f 45//25 46//25 49//25
f 46//26 52//26 49//26
f 53//5 49//5 54//5
f 55//5 49//5 53//5
f 52//26 56//26 49//26
f 54//5 49//5 56//5
f 50//5 49//5 55//5
f 57//27 53//27 54//27
f 52//28 57//28 54//28
f 52//28 54//28 56//28
f 46//2 57//2 52//2
f 46//2 58//2 57//2
f 57//27 58//27 53//27
f 58//7 59//7 53//7
f 46//2 59//2 58//2
f 59//7 55//7 53//7
f 59//29 60//29 55//29
f 59//2 61//2 62//2
f 59//2 63//2 61//2
f 46//2 63//2 59//2
f 59//29 62//29 60//29
f 64//5 55//5 60//5
f 62//30 64//30 60//30
f 50//5 55//5 64//5
f 61//31 50//31 64//31
f 62//30 61//30 64//30
f 63//24 47//24 50//24
f 61//31 63//31 50//31
f 46//2 47//2 63//2
f 29//5 65//5 51//5
f 66//32 51//32 65//32
f 66//32 45//32 51//32
f 40//5 51//5 44//5
f 29//5 51//5 40//5
f 66//2 67//2 32//2
f 66//2 32//2 45//2
f 67//33 66//33 65//33
f 67//33 65//33 68//33
f 32//34 67//34 68//34
f 68//5 65//5 29//5
f 32//34 68//34 29//34
f 2//18 31//18 3//18
