# Blender v3.0.1 OBJ File: ''
# www.blender.org
mtllib Medium_Long_Rectangle_JeansRed.mtl
o obj1.049_obj1.005
v -17.280029 -12.960010 75.000000
v -18.720032 -12.574161 75.000000
v -17.280029 -12.960004 -75.000008
v 17.279968 -12.960004 -75.000008
v 17.279968 -12.960010 75.000000
v 17.279968 12.959989 75.000000
v -19.774170 -11.520007 75.000000
v -20.160034 -10.080005 75.000000
v -17.280029 12.959989 75.000000
v -20.160034 10.079991 75.000000
v 18.719971 12.574140 75.000000
v 17.279968 12.960002 -75.000008
v -17.280029 12.960002 -75.000008
v 19.774109 11.519986 75.000000
v 20.159973 10.079991 75.000000
v 20.159973 -10.080005 75.000000
v -20.160034 10.080005 -75.000008
v -19.774170 11.520000 -75.000008
v -18.720032 12.574153 -75.000008
v -19.774170 11.519986 75.000000
v -18.720032 12.574140 75.000000
v -20.160034 -10.079999 -75.000008
v -19.774170 -11.520001 -75.000008
v -18.720032 -12.574155 -75.000008
v 18.719971 12.574153 -75.000008
v 19.774109 11.520000 -75.000008
v 20.159973 10.080005 -75.000008
v 20.159973 -10.079999 -75.000008
v 19.774109 -11.520001 -75.000008
v 19.774109 -11.520007 75.000000
v 18.719971 -12.574161 75.000000
v 18.719971 -12.574155 -75.000008
vn -0.2588 -0.9659 -0.0000
vn 0.0000 -1.0000 -0.0000
vn 0.0000 0.0000 1.0000
vn 0.2588 0.9659 0.0000
vn 0.0000 1.0000 0.0000
vn 0.0000 0.0000 -1.0000
vn -0.2588 0.9659 0.0000
vn -0.9659 0.2588 0.0000
vn -0.7071 0.7071 0.0000
vn -1.0000 0.0000 0.0000
vn -0.9659 -0.2588 -0.0000
vn -0.7071 -0.7071 -0.0000
vn 0.7071 0.7071 0.0000
vn 0.9659 0.2588 0.0000
vn 1.0000 0.0000 0.0000
vn 0.9659 -0.2588 -0.0000
vn 0.7071 -0.7071 -0.0000
vn 0.2588 -0.9659 -0.0000
usemtl Default_OBJ.320
s 1
f 1//1 2//1 3//1
f 1//2 3//2 4//2
f 5//2 1//2 4//2
f 6//3 1//3 5//3
f 1//3 7//3 2//3
f 1//3 8//3 7//3
f 9//3 10//3 1//3
f 10//3 8//3 1//3
f 6//3 9//3 1//3
f 6//4 11//4 12//4
f 6//5 12//5 13//5
f 14//3 6//3 15//3
f 14//3 11//3 6//3
f 15//3 6//3 16//3
f 6//3 5//3 16//3
f 9//5 6//5 13//5
f 17//6 13//6 3//6
f 18//6 13//6 17//6
f 9//7 13//7 19//7
f 19//6 13//6 18//6
f 13//6 12//6 3//6
f 20//8 18//8 17//8
f 20//9 19//9 18//9
f 21//3 20//3 10//3
f 10//8 20//8 17//8
f 20//9 21//9 19//9
f 9//3 21//3 10//3
f 21//7 9//7 19//7
f 10//10 17//10 22//10
f 22//6 17//6 3//6
f 8//10 10//10 22//10
f 8//11 22//11 23//11
f 22//6 3//6 23//6
f 7//11 8//11 23//11
f 7//12 23//12 24//12
f 23//6 3//6 24//6
f 2//12 7//12 24//12
f 2//1 24//1 3//1
f 11//4 25//4 12//4
f 11//13 14//13 26//13
f 11//13 26//13 25//13
f 25//6 26//6 12//6
f 12//6 26//6 27//6
f 14//14 27//14 26//14
f 12//6 27//6 28//6
f 14//14 15//14 27//14
f 15//15 16//15 27//15
f 16//15 28//15 27//15
f 4//6 12//6 28//6
f 4//6 28//6 29//6
f 16//16 30//16 28//16
f 30//16 29//16 28//16
f 16//3 5//3 30//3
f 30//3 5//3 31//3
f 30//17 31//17 32//17
f 30//17 32//17 29//17
f 31//18 5//18 32//18
f 4//6 29//6 32//6
f 5//18 4//18 32//18
f 3//6 12//6 4//6
