# Blender v3.0.1 OBJ File: ''
# www.blender.org
mtllib Medium_Short_DoubleSquare_Purple.mtl
o obj1.015_obj1.005
v 6.443390 -8.969588 -12.499996
v -6.115540 -7.746459 -12.499996
v -6.443268 -8.969588 -12.499996
v -7.338654 -9.864974 -12.499996
v 7.338776 -9.864974 -12.499996
v 6.115662 -7.746459 -12.499996
v 7.338776 -9.864977 37.500004
v 6.443390 -8.969591 37.500004
v 8.561890 -10.192705 37.500004
v 26.501007 7.746397 37.500004
v 8.561890 10.192640 37.500004
v 6.115662 7.746397 37.500004
v 6.115662 -7.746461 37.500004
v 8.561890 -10.192702 -12.499996
v 24.054749 -10.192705 37.500004
v 26.501007 -7.746461 37.500004
v 25.277863 -9.864977 37.500004
v 24.054749 -10.192700 -62.499996
v 24.054749 10.192645 -62.499996
v 26.501007 7.746402 -62.499996
v -24.054626 -10.192700 -62.499996
v 26.501007 -7.746457 -62.499996
v 26.173279 -8.969586 -62.499996
v 25.277863 -9.864972 -62.499996
v -24.054626 10.192645 -62.499996
v -26.500885 -7.746457 -62.499996
v -26.173157 -8.969586 -62.499996
v -25.277771 -9.864972 -62.499996
v -24.054626 -10.192705 37.500004
v -8.561768 -10.192702 -12.499996
v -8.561768 -10.192705 37.500004
v -8.561768 10.192640 37.500004
v -24.054626 10.192640 37.500004
v -26.173157 -8.969591 37.500004
v -25.277771 -9.864977 37.500004
v -26.500885 -7.746461 37.500004
v -26.500885 7.746397 37.500004
v -26.500885 7.746402 -62.499996
v -26.173157 8.969516 -62.499996
v -25.277771 9.864897 37.500004
v -26.173157 8.969511 37.500004
v -25.277771 9.864902 -62.499996
v -8.561768 10.192643 -12.499996
v 7.338776 9.864900 -12.499996
v -7.338654 9.864900 -12.499996
v 8.561890 10.192643 -12.499996
v 7.338776 9.864897 37.500004
v 24.054749 10.192640 37.500004
v 25.277863 9.864902 -62.499996
v 25.277863 9.864897 37.500004
v 26.173279 8.969516 -62.499996
v 26.173279 8.969511 37.500004
v 6.443390 8.969511 37.500004
v 6.443390 8.969514 -12.499996
v 6.115662 7.746399 -12.499996
v -6.443268 8.969514 -12.499996
v -6.115540 7.746399 -12.499996
v -6.443268 8.969511 37.500004
v -7.338654 9.864897 37.500004
v -6.115540 7.746397 37.500004
v -6.115540 -7.746461 37.500004
v -7.338654 -9.864977 37.500004
v -6.443268 -8.969591 37.500004
v 26.173279 -8.969591 37.500004
vn 0.0000 0.0000 1.0000
vn -0.7071 -0.7071 -0.0000
vn -0.9659 -0.2588 -0.0000
vn -0.2588 -0.9659 -0.0000
vn -0.0000 -1.0000 -0.0000
vn 0.2588 -0.9659 -0.0000
vn -0.0000 0.0000 -1.0000
vn -1.0000 0.0000 0.0000
vn -0.9659 0.2588 0.0000
vn -0.7071 0.7071 0.0000
vn -0.2588 0.9659 0.0000
vn -0.0000 1.0000 0.0000
vn 0.2588 0.9659 0.0000
vn 0.7071 0.7071 0.0000
vn 0.9659 0.2588 0.0000
vn 1.0000 0.0000 0.0000
vn 0.9659 -0.2588 -0.0000
vn 0.7071 -0.7071 -0.0000
usemtl Default_OBJ.326
s 1
f 1//1 2//1 3//1
f 1//1 3//1 4//1
f 5//1 1//1 4//1
f 6//1 2//1 1//1
f 7//2 1//2 5//2
f 8//3 6//3 1//3
f 7//2 8//2 1//2
f 9//4 7//4 5//4
f 9//1 8//1 7//1
f 10//1 11//1 9//1
f 11//1 12//1 9//1
f 12//1 13//1 9//1
f 9//1 13//1 8//1
f 9//4 5//4 14//4
f 15//5 9//5 14//5
f 10//1 9//1 15//1
f 10//1 15//1 16//1
f 16//1 15//1 17//1
f 17//6 15//6 18//6
f 15//5 14//5 18//5
f 18//7 19//7 20//7
f 21//7 19//7 18//7
f 18//7 20//7 22//7
f 18//7 22//7 23//7
f 17//6 18//6 24//6
f 18//7 23//7 24//7
f 14//5 21//5 18//5
f 25//7 19//7 21//7
f 26//7 25//7 21//7
f 27//7 21//7 28//7
f 26//7 21//7 27//7
f 29//5 21//5 30//5
f 14//5 30//5 21//5
f 29//4 28//4 21//4
f 31//5 29//5 30//5
f 32//1 29//1 31//1
f 32//1 33//1 29//1
f 29//1 34//1 35//1
f 29//1 36//1 34//1
f 33//1 37//1 29//1
f 37//1 36//1 29//1
f 29//4 35//4 28//4
f 36//8 37//8 38//8
f 37//9 39//9 38//9
f 33//1 40//1 37//1
f 40//1 41//1 37//1
f 37//9 41//9 39//9
f 39//7 25//7 38//7
f 42//7 25//7 39//7
f 41//10 42//10 39//10
f 41//10 40//10 42//10
f 40//11 25//11 42//11
f 40//11 33//11 25//11
f 36//8 38//8 26//8
f 38//7 25//7 26//7
f 35//2 34//2 27//2
f 35//2 27//2 28//2
f 34//3 36//3 26//3
f 33//12 43//12 25//12
f 33//12 32//12 43//12
f 44//1 43//1 45//1
f 46//1 43//1 44//1
f 32//13 45//13 43//13
f 43//12 46//12 19//12
f 43//12 19//12 25//12
f 47//11 46//11 44//11
f 47//11 11//11 46//11
f 11//12 48//12 46//12
f 48//12 19//12 46//12
f 48//13 49//13 19//13
f 48//1 11//1 10//1
f 50//1 48//1 10//1
f 48//13 50//13 49//13
f 19//7 49//7 20//7
f 20//7 49//7 51//7
f 50//14 51//14 49//14
f 50//14 52//14 51//14
f 52//15 20//15 51//15
f 52//15 10//15 20//15
f 50//1 10//1 52//1
f 11//1 47//1 53//1
f 53//10 47//10 44//10
f 11//1 53//1 12//1
f 12//9 53//9 54//9
f 53//10 44//10 54//10
f 12//9 54//9 55//9
f 54//1 56//1 55//1
f 44//1 56//1 54//1
f 55//1 56//1 57//1
f 58//15 57//15 56//15
f 44//1 45//1 56//1
f 59//14 56//14 45//14
f 59//14 58//14 56//14
f 59//1 32//1 60//1
f 32//13 59//13 45//13
f 59//1 60//1 58//1
f 60//16 2//16 57//16
f 58//15 60//15 57//15
f 32//1 31//1 60//1
f 60//1 31//1 61//1
f 60//16 61//16 2//16
f 61//1 62//1 63//1
f 61//1 31//1 62//1
f 61//17 63//17 3//17
f 61//17 3//17 2//17
f 63//18 62//18 4//18
f 63//18 4//18 3//18
f 62//6 31//6 30//6
f 62//6 30//6 4//6
f 55//1 57//1 2//1
f 13//8 12//8 55//8
f 13//8 55//8 6//8
f 55//1 2//1 6//1
f 34//3 26//3 27//3
f 5//1 4//1 30//1
f 14//1 5//1 30//1
f 16//17 23//17 22//17
f 16//17 64//17 23//17
f 64//18 24//18 23//18
f 16//1 17//1 64//1
f 64//18 17//18 24//18
f 10//16 22//16 20//16
f 10//16 16//16 22//16
f 8//3 13//3 6//3
