# Blender v3.0.1 OBJ File: ''
# www.blender.org
mtllib Medium_Long_Oval_Green.mtl
o obj1.047_obj1.005
v -4.536163 -13.651322 18.780930
v 1.256744 -13.738236 23.468430
v -6.546631 -13.373231 23.468430
v -10.348694 -12.459992 18.780930
v -6.446045 -13.390336 16.437180
v 1.133514 -13.747239 18.780930
v 1.355591 -13.730668 16.437180
v -2.556610 -13.798310 14.093429
v 1.902435 -13.683228 11.749679
v 6.244598 -12.956422 11.749679
v 5.396423 -13.149507 18.780930
v 5.662811 -13.091676 23.468430
v 9.588165 -11.919892 18.780930
v 9.972687 -11.769334 23.468430
v 5.928864 -13.031373 28.155930
v 1.519379 -13.717454 28.155930
v 11.921143 -10.888444 23.468430
v 10.221985 -11.667848 28.155930
v 9.665405 -11.890215 32.843430
v 14.052032 -9.652894 28.155930
v 17.114288 -7.107606 23.468430
v 18.165894 -5.862520 28.155930
v 15.923401 -8.242174 32.843430
v 19.015106 -4.575273 32.843430
v 17.490875 -6.694093 37.530930
v 11.992920 -10.851885 37.530930
v 4.743561 -13.280596 37.530930
v 14.308105 -9.480730 42.218430
v 6.506470 -12.891451 42.218430
v 2.706146 -13.596209 39.874680
v -1.010162 -13.828173 37.530930
v 0.936401 -13.760653 32.843430
v 5.336823 -13.162111 32.843430
v 1.706696 -13.701296 42.218430
v 5.009247 -13.229052 46.905930
v 0.739716 -13.772829 46.905930
v -2.947845 -13.779009 42.218430
v 8.779694 -12.213915 51.593430
v 4.534973 -13.319338 51.593430
v 9.234100 -12.052340 46.905930
v 16.303711 -7.904482 46.905930
v 12.700500 -10.473848 51.593430
v 8.321350 -12.367679 56.280922
v 14.928955 -9.037890 56.280922
v 18.168457 -5.859087 56.280922
v 18.889008 -4.789813 60.968422
v 20.249969 -1.343737 60.968422
v 20.434631 0.944059 56.280922
v 19.559235 -3.502856 51.593430
v 20.419647 -0.081454 51.593430
v 19.493683 4.791135 56.280922
v 20.339294 1.973203 60.968422
v 19.970490 3.563429 51.593430
v 20.404510 -0.275241 65.655922
v 20.126831 3.021909 65.655922
v 18.840637 6.012448 60.968422
v 15.394684 9.822659 60.968422
v 18.131439 7.051282 65.655922
v 16.499481 8.865232 56.280922
v 14.403687 10.557904 66.827797
v 11.738342 12.123120 56.280922
v 9.680023 13.027524 60.968422
v 12.196533 11.889371 63.312172
v 16.313019 9.038907 70.343422
v 13.471832 11.165494 70.343422
v 8.478882 13.458814 65.655922
v 8.365723 13.496152 70.343422
v 2.987183 14.703809 60.968422
v 3.513306 14.630689 65.655922
v 2.754486 14.733274 70.343422
v -1.381287 14.970716 65.655922
v 6.987640 13.908261 75.030922
v 0.146515 14.945188 75.030922
v -1.456787 14.970105 72.687172
v -5.278992 14.706998 69.171547
v -5.691193 14.650800 75.030922
v -5.748169 -13.499637 75.030922
v -10.319244 13.612180 75.030922
v -11.343292 -12.127124 75.030922
v -8.770233 -12.904681 70.343422
v -4.499847 -13.655139 70.343422
v 0.357574 -13.793017 75.030922
v -12.894104 -11.517566 70.343422
v -9.488037 -12.714648 65.655922
v -14.026642 -10.994006 65.655922
v -17.873535 -8.548831 65.655922
v -19.624207 -6.898883 70.343422
v -15.980957 -9.902698 75.030922
v -21.947601 -3.336215 65.655922
v -22.563843 -1.355579 70.343422
v -20.991608 -5.132068 75.030922
v -20.928253 -5.228976 60.968422
v -22.701569 -0.469836 65.655922
v -22.525940 -1.534243 56.280922
v -22.656677 -0.822466 37.530930
v -22.758118 0.571484 75.030922
v -22.338684 -2.252579 0.030929
v -22.398560 -2.045091 32.843430
v -22.656677 -0.822462 -37.469070
v -21.787109 -3.697542 37.530930
v -22.223206 -2.613344 46.905930
v -22.758118 0.571491 -74.969070
v -22.701569 -0.469831 -65.594070
v -22.525940 -1.534238 -56.219070
v -22.223206 -2.613340 -46.844070
v -21.787109 -3.697539 -37.469070
v -22.398560 -2.045088 -32.781570
v -21.639099 -4.003295 -9.344070
v -21.970764 -3.281050 -28.094070
v -21.154663 -4.873122 -32.781570
v -15.360321 -10.278151 -32.781570
v -19.208588 -7.337477 -28.094070
v -17.516663 -8.832014 -37.469070
v -20.036102 -6.426344 -37.469070
v -19.358093 -7.183699 -42.156570
v -12.755646 -11.576811 -42.156570
v -9.862793 -12.607435 -37.469070
v -9.976288 -12.573851 -46.844070
v -7.910553 -13.106794 -42.156570
v -15.422852 -10.241621 -46.844070
v -17.632141 -8.741987 -51.531570
v -13.069214 -11.441205 -56.219070
v -20.809235 -5.406019 -46.844070
v -19.480499 -7.054533 -56.219070
v -21.887512 -3.475569 -51.531570
v -20.928253 -5.228971 -60.906570
v -15.630188 -10.118466 -60.906570
v -14.026642 -10.994000 -65.594070
v -17.873535 -8.548825 -65.594070
v -11.187714 -12.182019 -60.906570
v -19.624207 -6.898877 -70.281570
v -12.894104 -11.517560 -70.281570
v -21.947601 -3.336209 -65.594070
v -8.770233 -12.904675 -70.281570
v -9.488037 -12.714643 -65.594070
v -11.343292 -12.127118 -74.969070
v -15.980957 -9.902692 -74.969070
v -19.385040 8.298495 -74.969070
v -15.420258 11.386127 -74.969070
v -20.991608 -5.132061 -74.969070
v -22.563843 -1.355572 -70.281570
v -17.085907 10.298099 -70.281570
v -10.319244 13.612185 -74.969070
v -12.430450 12.855075 -70.281570
v -13.585632 12.349383 -65.594070
v -9.176392 13.942554 -65.594070
v -5.278992 14.707004 -69.109695
v -10.247070 13.634601 -61.492508
v -4.992218 14.742816 -62.078445
v -1.381287 14.970721 -65.594070
v -1.456787 14.970111 -72.625320
v 2.754486 14.733279 -70.281570
v 3.286041 14.663394 -65.594070
v -0.909607 14.970538 -58.562820
v 2.987183 14.703815 -60.906570
v 2.912384 14.713473 -56.219070
v -4.782623 14.767306 -56.219070
v -1.919495 14.962542 -51.531570
v 7.450165 13.778522 -56.219070
v 3.332733 14.656816 -51.531570
v 3.449371 14.640062 -46.844070
v 8.673370 13.393373 -51.531570
v -1.661560 14.967577 -46.844070
v 8.898224 13.315630 -42.156570
v 3.566040 14.622850 -42.156570
v -1.695496 14.967028 -42.156570
v -5.519592 14.674883 -39.812820
v -1.080231 14.971392 -37.469070
v -6.961914 14.441942 -42.156570
v -6.823151 14.467409 -46.844070
v -9.731567 13.788591 -51.531570
v -14.795959 11.738298 -46.844070
v -12.193695 12.950258 -42.156570
v -18.858063 8.825029 -42.156570
v -9.406128 13.880312 -37.469070
v -16.841095 10.473330 -37.469070
v -20.470551 7.020967 -46.844070
v -22.292023 3.546801 -42.156570
v -21.523102 5.370897 -37.469070
v -22.463745 2.940798 -37.469070
v -22.686615 1.742220 -46.844070
v -22.078583 4.155031 -46.844070
v -22.686615 1.742221 -65.594070
v -22.463745 2.940798 -56.219070
v -21.443756 5.518023 -51.531570
v -22.463745 2.940797 -18.719070
v -22.686615 1.742217 28.155930
v -22.463745 2.940795 18.780930
v -20.792786 6.572951 28.155930
v -21.822510 4.763701 23.468430
v -22.292023 3.546797 32.843430
v -22.463745 2.940794 37.530930
v -22.686615 1.742215 65.655922
v -22.078583 4.155030 -9.344070
v -22.078583 4.155029 9.405930
v -19.887299 7.744842 18.780930
v -21.179932 5.974655 14.093430
v -18.042480 9.552413 14.093430
v -19.751862 7.899765 9.405930
v -20.361786 7.163712 4.718430
v -15.787781 11.165680 9.405931
v -17.572357 9.931763 0.030930
v -12.969238 12.627975 0.030930
v -9.363647 13.891968 9.405931
v -13.801025 12.247039 18.780930
v -8.910065 14.012177 0.030930
v -4.604492 14.787003 9.405931
v -9.270050 13.917434 18.780930
v -6.009338 14.603606 23.468430
v -4.510468 14.796996 18.780930
v -10.743408 13.475966 23.468430
v -7.514160 14.333922 28.155930
v -2.881805 14.925567 28.155930
v -1.327301 14.971038 23.468430
v -13.544983 12.368392 28.155930
v -4.252563 14.822950 32.843430
v -12.480927 12.834425 32.843430
v -9.406128 13.880308 37.530930
v -16.920135 10.417387 32.843430
v -16.841095 10.473326 37.530930
v -5.519592 14.674879 39.874680
v -12.193695 12.950254 42.218430
v -6.961914 14.441938 42.218430
v -1.080231 14.971388 37.530930
v -1.695496 14.967024 42.218430
v 3.566040 14.622847 42.218430
v -6.823151 14.467405 46.905930
v -1.661560 14.967573 46.905930
v 3.449371 14.640059 46.905930
v 8.898224 13.315626 42.218430
v 8.673370 13.393370 51.593430
v 3.332733 14.656813 51.593430
v 13.857391 10.922956 46.905930
v 10.817780 12.555510 51.593430
v 7.450165 13.778516 56.280922
v 15.729462 9.549696 37.530930
v 17.530334 7.791853 46.905930
v 17.717072 7.572660 51.593430
v 11.030792 12.459669 42.218430
v 18.709503 6.221937 46.905930
v 20.306427 2.181623 46.905930
v 19.472015 4.838026 42.218430
v 20.424561 1.147963 42.218430
v 18.405548 6.675124 37.530930
v 20.007416 3.445051 37.530930
v 20.431915 0.134230 37.530930
v 20.040070 -2.193102 42.218430
v 20.290833 -1.128435 46.905930
v 20.326660 -0.913866 32.843430
v 20.269897 2.384917 32.843430
v 19.660522 -3.266573 37.530930
v 19.559875 4.644392 28.155930
v 20.410980 1.341399 28.155930
v 20.099701 -1.981538 28.155930
v 20.438599 0.320403 23.468430
v 19.966400 3.576232 23.468430
v 18.944580 5.839446 18.780930
v 15.684235 9.587371 23.468430
v 20.355927 -0.711701 18.780930
v 17.561066 7.756392 28.155930
v 10.765656 12.578582 28.155930
v 13.387177 11.217177 18.780930
v 12.102234 11.938552 23.468430
v 17.455597 7.877182 14.093430
v 10.727539 12.595366 14.093431
v 9.319916 13.163726 18.780930
v 4.841461 14.404860 18.780930
v 7.867340 13.654143 23.468430
v 3.227753 14.671508 23.468430
v 6.275055 14.091964 28.155930
v 7.149048 13.863935 32.843430
v 1.625153 14.851439 28.155930
v 2.499176 14.763563 32.843430
v -2.027039 14.959822 32.843430
v 3.378479 14.650297 37.530930
v 7.907959 13.641645 37.530930
v 12.148865 11.914289 37.530930
v 13.421265 11.196440 32.843430
v 0.112946 14.946532 18.780930
v 0.021210 14.950012 9.405931
v 3.545288 14.625946 0.030930
v 7.826660 13.666580 9.405931
v -4.698578 14.776733 0.030930
v 10.689331 12.612106 0.030930
v 13.228973 11.312302 4.718430
v 15.461060 9.769608 9.405930
v 17.203705 8.155167 0.030930
v 18.840637 6.012451 4.718430
v 18.840637 6.012451 -4.656570
v 13.228973 11.312302 -4.656570
v 20.367493 1.765564 0.030930
v 7.826660 13.666580 -9.344069
v 15.461060 9.769608 -9.344070
v 10.727539 12.595368 -14.031569
v 4.841461 14.404862 -18.719070
v 0.021210 14.950012 -9.344069
v 0.112946 14.946534 -18.719070
v -4.510468 14.796998 -18.719070
v -4.604492 14.787003 -9.344069
v -9.363647 13.891968 -9.344069
v -9.270050 13.917436 -18.719070
v -6.009338 14.603608 -23.406570
v -10.743408 13.475968 -23.406570
v -13.801025 12.247041 -18.719070
v -7.514160 14.333924 -28.094070
v -2.881805 14.925569 -28.094070
v -1.327301 14.971040 -23.406570
v 3.227753 14.671510 -23.406570
v 1.625153 14.851441 -28.094070
v 6.275055 14.091966 -28.094070
v 7.867340 13.654145 -23.406570
v 2.499176 14.763567 -32.781570
v 10.765656 12.578584 -28.094070
v 7.149048 13.863939 -32.781570
v 3.378479 14.650301 -37.469070
v 7.907959 13.641649 -37.469070
v 12.148865 11.914293 -37.469070
v 13.421265 11.196444 -32.781570
v 18.405548 6.675127 -37.469070
v 17.561066 7.756395 -28.094070
v 15.729462 9.549700 -37.469070
v 19.559875 4.644395 -28.094070
v 15.684235 9.587373 -23.406570
v 19.966400 3.576234 -23.406570
v 12.102234 11.938554 -23.406570
v 13.387177 11.217179 -18.719070
v 18.944580 5.839448 -18.719070
v 17.455597 7.877182 -14.031570
v 19.480713 4.819275 -14.031570
v 20.395874 1.510804 -14.031570
v 20.355927 -0.711700 -18.719070
v 19.649872 -3.292129 -23.406570
v 20.438599 0.320405 -23.406570
v 19.066132 -4.485473 -18.719070
v 20.152863 -1.776275 -14.031570
v 19.822052 -2.853378 -9.344070
v 20.441772 0.528214 -9.344070
v 18.313080 -5.662185 -14.031570
v 17.487946 -6.697448 -9.344070
v 15.867950 -8.289748 -18.719070
v 13.987488 -9.695403 -14.031570
v 15.866119 -8.291290 -4.656571
v 11.849182 -10.924789 -9.344071
v 19.357727 -3.933304 -4.656570
v 18.756226 -5.005417 0.030929
v 20.380829 -0.510315 -4.656570
v 20.187775 2.773789 -4.656570
v 19.893921 3.794404 -9.344070
v 18.158752 7.015000 -9.344070
v 13.922699 -9.737717 0.030929
v 15.866119 -8.291290 4.718429
v 20.380829 -0.510315 4.718430
v 19.357727 -3.933304 4.718430
v 11.849182 -10.924789 9.405929
v 12.768951 -10.435516 2.374679
v 17.487946 -6.697449 9.405930
v 18.313080 -5.662186 14.093430
v 13.987488 -9.695405 14.093430
v 19.822052 -2.853379 9.405930
v 20.152863 -1.776276 14.093430
v 19.066132 -4.485475 18.780930
v 15.867950 -8.289750 18.780930
v 19.649872 -3.292130 23.468430
v 20.441772 0.528213 9.405930
v 20.395874 1.510803 14.093430
v 19.480713 4.819274 14.093430
v 19.893921 3.794403 9.405930
v 20.187775 2.773788 4.718430
v 18.158752 7.014999 9.405930
v 10.450806 -11.571961 11.749679
v 6.500427 -12.892975 9.405929
v 8.812561 -12.202530 5.890304
v 2.001923 -13.673584 4.718429
v 0.027252 -13.806808 9.405929
v -2.130737 -13.813904 7.062179
v -6.345459 -13.407089 9.405929
v -6.244904 -13.423508 2.374679
v -10.152374 -12.520737 4.718429
v -12.289215 -11.769211 9.405929
v -10.353882 -12.458360 11.749679
v -14.127106 -10.944032 14.093429
v -17.407623 -8.915680 9.405930
v -15.737457 -10.053514 18.780930
v -19.163208 -7.383301 14.093430
v -20.579193 -5.731324 18.780930
v -21.639099 -4.003296 9.405930
v -20.469269 -5.879700 4.718429
v -21.365570 -4.515306 23.468430
v -21.970764 -3.281053 28.155930
v -19.208588 -7.337480 28.155930
v -21.154663 -4.873125 32.843430
v -15.360321 -10.278154 32.843430
v -20.036102 -6.426347 37.530930
v -17.516663 -8.832018 37.530930
v -9.862793 -12.607439 37.530930
v -9.902771 -12.595675 32.843430
v -12.931458 -11.501420 28.155930
v -7.905243 -13.107957 28.155930
v -6.318573 -13.411515 30.499680
v -6.747803 -13.337999 37.530930
v -4.409882 -13.664400 32.843430
v -2.849854 -13.784288 35.187180
v -7.910553 -13.106798 42.218430
v -12.755646 -11.576815 42.218430
v -9.976288 -12.573854 46.905930
v -4.546692 -13.650209 46.905930
v -15.422852 -10.241625 46.905930
v -13.069214 -11.441211 56.280922
v -6.557220 -13.371416 51.593430
v -8.180573 -13.046237 56.280922
v -2.855011 -13.784014 49.249680
v -3.144257 -13.767520 56.280922
v -1.018738 -13.828218 51.593430
v 0.637970 -13.778643 53.937172
v 2.522217 -13.617953 56.280922
v 0.539948 -13.783954 60.968422
v 4.432526 -13.337817 58.624672
v -6.308838 -13.413119 60.968422
v -2.524689 -13.799670 65.655922
v 4.333771 -13.355289 65.655922
v -0.127136 -13.812106 67.999672
v 4.231323 -13.373065 72.687172
v 9.000336 -12.136615 63.312172
v 11.521698 -11.086276 65.655922
v 8.122284 -12.431659 70.343422
v 14.684143 -9.216998 70.343422
v 6.374298 -12.924563 75.030922
v 11.696625 -11.000812 75.030922
v 15.873199 -8.285266 75.030922
v 14.004730 10.827054 75.030922
v 18.007446 -6.069827 70.343422
v 20.206909 -1.546665 75.030922
v 19.326111 5.139798 75.030922
v 20.440369 0.741223 70.343422
v 19.790222 4.081891 70.343422
v 19.907654 -2.611285 70.343422
v 19.468140 -3.703357 65.655922
v 17.118958 -7.102679 65.655922
v 13.254120 -10.154330 60.968422
v -11.187714 -12.182025 60.968422
v -15.630188 -10.118472 60.968422
v -19.480499 -7.054537 56.280922
v -21.887512 -3.475573 51.593430
v -17.632141 -8.741991 51.593430
v -20.809235 -5.406023 46.905930
v -19.358093 -7.183702 42.218430
v -2.751984 -13.789262 28.155930
v -17.604004 -8.764070 23.468430
v -14.246521 -10.883821 21.124680
v -15.675964 -10.090866 4.718429
v -18.874237 -7.666641 0.030929
v -20.469269 -5.879700 -4.656571
v -15.675964 -10.090866 -4.656571
v -13.759827 -11.123856 0.030929
v -8.159424 -13.051071 0.030929
v -10.152374 -12.520737 -4.656571
v -6.244904 -13.423508 -2.312821
v -2.130737 -13.813904 -7.000321
v -6.345459 -13.407089 -9.344071
v -2.361816 -13.806137 0.030929
v 2.001923 -13.673584 -4.656571
v 3.331024 -13.514084 0.030929
v 5.585632 -13.108704 -2.312821
v 5.585632 -13.108704 2.374679
v 9.110748 -12.097107 0.030929
v 12.768951 -10.435516 -2.312821
v 8.812561 -12.202530 -5.828446
v 6.500427 -12.892975 -9.344071
v 1.902435 -13.683227 -11.687821
v 6.244598 -12.956420 -11.687821
v 0.027252 -13.806808 -9.344071
v 10.450806 -11.571959 -11.687821
v -2.556610 -13.798308 -14.031571
v -6.446045 -13.390334 -16.375320
v -4.536163 -13.651320 -18.719070
v 1.355591 -13.730666 -16.375320
v 1.133514 -13.747237 -18.719070
v 5.396423 -13.149505 -18.719070
v 1.256744 -13.738235 -23.406570
v 5.662811 -13.091674 -23.406570
v 9.588165 -11.919890 -18.719070
v -2.751984 -13.789260 -28.094070
v -6.546631 -13.373229 -23.406570
v 1.519379 -13.717452 -28.094070
v 5.928864 -13.031371 -28.094070
v 5.336823 -13.162107 -32.781570
v 0.936401 -13.760649 -32.781570
v 4.743561 -13.280592 -37.469070
v -1.010162 -13.828169 -37.469070
v -2.849854 -13.784285 -35.125320
v -4.409882 -13.664396 -32.781570
v 2.706146 -13.596205 -39.812820
v 6.506470 -12.891447 -42.156570
v 9.665405 -11.890211 -32.781570
v 11.992920 -10.851881 -37.469070
v 9.234100 -12.052336 -46.844070
v 14.308105 -9.480726 -42.156570
v 5.009247 -13.229048 -46.844070
v 1.706696 -13.701292 -42.156570
v 17.490875 -6.694090 -37.469070
v 19.016113 -4.573500 -46.844070
v 16.303711 -7.904478 -46.844070
v 12.700500 -10.473845 -51.531570
v 18.168457 -5.859083 -56.219070
v 19.736755 -3.077787 -51.531570
v 20.150665 -1.785123 -56.219070
v 20.425232 1.136523 -51.531570
v 20.402435 -0.298246 -46.844070
v 20.154327 -1.770369 -42.156570
v 20.410034 1.352892 -46.844070
v 20.268799 2.390779 -42.156570
v 19.161865 5.454943 -46.844070
v 17.717072 7.572664 -42.156570
v 20.431915 0.134233 -37.469070
v 20.007416 3.445055 -37.469070
v 19.660522 -3.266569 -37.469070
v 20.326660 -0.913863 -32.781570
v 20.269897 2.384920 -32.781570
v 20.410980 1.341401 -28.094070
v 20.099701 -1.981536 -28.094070
v 18.165894 -5.862517 -28.094070
v 19.015106 -4.575270 -32.781570
v 15.923401 -8.242170 -32.781570
v 14.052032 -9.652892 -28.094070
v 17.114288 -7.107604 -23.406570
v 11.921143 -10.888442 -23.406570
v 10.221985 -11.667846 -28.094070
v 9.972687 -11.769332 -23.406570
v 13.857391 10.922960 -46.844070
v 11.030792 12.459673 -42.156570
v 16.060303 9.265932 -51.531570
v 10.817780 12.555513 -51.531570
v 11.738342 12.123126 -56.219070
v 14.087555 10.772342 -60.906570
v 12.198395 11.888400 -60.906570
v 7.744019 13.691638 -60.906570
v 17.839661 7.423708 -56.219070
v 16.122498 9.210925 -65.594070
v 19.044891 5.666049 -60.906570
v 12.457397 11.750384 -65.594070
v 18.661896 6.295764 -65.594070
v 19.867767 3.869433 -65.594070
v 20.391052 1.558779 -60.906570
v 20.226349 2.600588 -56.219070
v 20.441803 0.539493 -65.594070
v 20.380829 -0.510312 -60.906570
v 18.889008 -4.789807 -60.906570
v 19.468140 -3.703351 -65.594070
v 17.118958 -7.102674 -65.594070
v 18.007446 -6.069821 -70.281570
v 19.907654 -2.611279 -70.281570
v 20.206909 -1.546658 -74.969070
v 20.384064 -0.481412 -70.281570
v 20.179047 2.810992 -70.281570
v 19.326111 5.139804 -74.969070
v 17.987732 7.238009 -70.281570
v 14.004730 10.827060 -74.969070
v 11.994415 11.994082 -70.281570
v 6.987640 13.908267 -74.969070
v 11.696625 -11.000806 -74.969070
v 15.873199 -8.285260 -74.969070
v 14.684143 -9.216992 -70.281570
v 8.122284 -12.431653 -70.281570
v 6.374298 -12.924558 -74.969070
v 11.521698 -11.086270 -65.594070
v 13.254120 -10.154325 -60.906570
v 4.333771 -13.355283 -65.594070
v 9.000336 -12.136609 -63.250320
v 4.432526 -13.337811 -58.562820
v 8.321350 -12.367673 -56.219070
v 2.522217 -13.617948 -56.219070
v 0.539948 -13.783948 -60.906570
v -3.144257 -13.767514 -56.219070
v -2.524689 -13.799664 -65.594070
v -6.308838 -13.413114 -60.906570
v -8.180573 -13.046231 -56.219070
v -6.557220 -13.371412 -51.531570
v -1.018738 -13.828215 -51.531570
v -2.855011 -13.784010 -49.187820
v -4.546692 -13.650206 -46.844070
v 0.739716 -13.772825 -46.844070
v -2.947845 -13.779005 -42.156570
v -6.747803 -13.337996 -37.469070
v -9.902771 -12.595671 -32.781570
v -6.318573 -13.411513 -30.437820
v -7.905243 -13.107955 -28.094070
v -12.931458 -11.501418 -28.094070
v -17.604004 -8.764068 -23.406570
v -14.246521 -10.883819 -21.062820
v -15.737457 -10.053512 -18.719070
v -10.348694 -12.459991 -18.719070
v -14.127106 -10.944030 -14.031571
v -10.353882 -12.458358 -11.687821
v -12.289215 -11.769211 -9.344071
v -17.407623 -8.915680 -9.344070
v -19.163208 -7.383300 -14.031570
v -20.579193 -5.731322 -18.719070
v -21.365570 -4.515304 -23.406570
v 4.534973 -13.319334 -51.531570
v 8.779694 -12.213911 -51.531570
v 0.637970 -13.778639 -53.875320
v -4.499847 -13.655133 -70.281570
v -0.127136 -13.812100 -67.937820
v 0.357574 -13.793012 -74.969070
v -5.748169 -13.499631 -74.969070
v 4.231323 -13.373059 -72.625320
v 0.146515 14.945193 -74.969070
v -5.691193 14.650805 -74.969070
v 14.928955 -9.037885 -56.219070
v 7.514954 13.759646 -70.281570
v 8.036713 13.601611 -65.594070
v 19.811279 4.025591 -51.531570
v 9.319916 13.163728 -18.719070
v -2.027039 14.959826 -32.781570
v -4.252563 14.822954 -32.781570
v -12.480927 12.834429 -32.781570
v -16.920135 10.417391 -32.781570
v -13.544983 12.368394 -28.094070
v -20.238007 7.321596 -32.781570
v -18.492065 9.163331 -28.094070
v -20.792786 6.572954 -28.094070
v -16.323303 10.825532 -23.406570
v -21.179932 5.974656 -23.406570
v -22.078583 4.155031 -28.094070
v -19.887299 7.744843 -18.719070
v -21.822510 4.763703 -14.031570
v -18.042480 9.552415 -14.031570
v -15.787781 11.165680 -9.344069
v -20.792786 6.572953 -9.344070
v -19.369995 8.314255 -4.656570
v -16.515228 10.697784 -2.312820
v -21.523102 5.370895 0.030930
v -13.144928 12.550659 -5.828445
v 19.016113 -4.573503 46.905930
v 2.912384 14.713468 56.280922
v 7.487030 13.767804 58.624672
v -1.919495 14.962538 51.593430
v -0.909607 14.970532 58.624672
v -9.731567 13.788588 51.593430
v -4.782623 14.767301 56.280922
v -12.538879 12.810559 56.280922
v -8.825958 14.033597 59.210609
v -4.992218 14.742810 62.140297
v -10.247070 13.634595 61.554359
v -15.110504 11.564221 60.968422
v -9.176392 13.942548 65.655922
v -13.585632 12.349378 65.655922
v -19.087738 8.601666 56.280922
v -20.361786 7.163709 60.968422
v -17.392792 10.069913 65.655922
v -20.588776 6.861158 56.280922
v -22.020325 4.302976 60.968422
v -21.361816 5.664899 65.655922
v -22.463745 2.940794 56.280922
v -21.443756 5.518018 51.593430
v -22.078583 4.155027 46.905930
v -17.119873 10.273314 51.593430
v -20.470551 7.020964 46.905930
v -14.795959 11.738295 46.905930
v -18.858063 8.825026 42.218430
v -21.523102 5.370894 37.530930
v -20.238007 7.321593 32.843430
v -18.492065 9.163329 28.155930
v -16.323303 10.825530 23.468430
v -22.425812 3.087765 70.343422
v -20.482880 7.004514 70.343422
v -19.385040 8.298490 75.030922
v -17.085907 10.298093 70.343422
v -15.420258 11.386121 75.030922
v -12.430450 12.855069 70.343422
v -20.588776 6.861163 -56.219070
v -17.119873 10.273317 -51.531570
v -19.087738 8.601672 -56.219070
v -20.361786 7.163714 -60.906570
v -22.020325 4.302981 -60.906570
v -21.361816 5.664905 -65.594070
v -17.392792 10.069919 -65.594070
v -15.110504 11.564227 -60.906570
v -12.538879 12.810565 -56.219070
v -8.825958 14.033603 -59.148758
v -20.482880 7.004519 -70.281570
v -22.425812 3.087772 -70.281570
vn -0.0467 -0.9981 0.0392
vn -0.2007 -0.9793 -0.0280
vn -0.2005 -0.9782 0.0544
vn -0.0162 -0.9999 0.0023
vn -0.0169 -0.9999 0.0024
vn -0.0169 -0.9998 -0.0073
vn -0.0169 -0.9998 -0.0087
vn -0.1146 -0.9933 -0.0172
vn -0.0012 -0.9995 0.0308
vn 0.0218 -0.9997 -0.0076
vn 0.1651 -0.9862 0.0093
vn 0.1477 -0.9890 -0.0093
vn 0.1389 -0.9903 0.0021
vn 0.1389 -0.9903 0.0062
vn 0.1398 -0.9902 0.0066
vn 0.1518 -0.9884 -0.0013
vn 0.1407 -0.9900 0.0022
vn 0.2828 -0.9592 0.0073
vn 0.2815 -0.9595 0.0076
vn 0.2817 -0.9595 -0.0034
vn 0.2815 -0.9596 -0.0042
vn 0.2999 -0.9540 -0.0019
vn 0.2933 -0.9560 0.0053
vn 0.2933 -0.9560 0.0066
vn 0.1518 -0.9884 -0.0076
vn 0.1451 -0.9894 -0.0006
vn 0.2932 -0.9560 -0.0003
vn 0.4119 -0.9112 -0.0045
vn 0.4120 -0.9112 -0.0033
vn 0.4120 -0.9112 -0.0034
vn 0.4120 -0.9112 -0.0022
vn 0.3028 -0.9530 -0.0091
vn 0.4655 -0.8849 0.0133
vn 0.4657 -0.8847 0.0209
vn 0.4657 -0.8848 0.0140
vn 0.3027 -0.9530 -0.0093
vn 0.4655 -0.8848 0.0216
vn 0.6770 -0.7347 0.0433
vn 0.5877 -0.8072 -0.0544
vn 0.6768 -0.7345 -0.0491
vn 0.5027 -0.8624 0.0588
vn 0.7638 -0.6440 -0.0427
vn 0.6020 -0.7961 0.0616
vn 0.7640 -0.6441 0.0385
vn 0.5028 -0.8624 -0.0586
vn 0.3172 -0.9469 0.0522
vn 0.6019 -0.7959 -0.0645
vn 0.3996 -0.9140 0.0700
vn 0.3174 -0.9474 -0.0407
vn 0.0946 -0.9942 -0.0516
vn 0.0947 -0.9952 0.0250
vn 0.1348 -0.9908 -0.0080
vn 0.2819 -0.9594 0.0114
vn 0.2818 -0.9594 0.0090
vn 0.2819 -0.9594 0.0100
vn 0.1666 -0.9857 0.0263
vn 0.1692 -0.9853 0.0219
vn 0.1722 -0.9849 0.0170
vn 0.0713 -0.9974 -0.0143
vn 0.1663 -0.9857 0.0267
vn 0.1263 -0.9919 0.0109
vn 0.0167 -0.9998 -0.0118
vn 0.0167 -0.9997 0.0174
vn 0.1663 -0.9859 -0.0179
vn 0.2520 -0.9677 0.0069
vn 0.2520 -0.9677 0.0053
vn 0.2520 -0.9677 -0.0056
vn 0.1263 -0.9920 -0.0063
vn 0.2683 -0.9633 -0.0072
vn 0.2683 -0.9632 0.0163
vn 0.5046 -0.8601 0.0744
vn 0.3996 -0.9141 -0.0689
vn 0.5043 -0.8595 -0.0835
vn 0.4056 -0.9140 0.0087
vn 0.4056 -0.9140 0.0088
vn 0.4056 -0.9140 0.0078
vn 0.4056 -0.9140 0.0097
vn 0.4492 -0.8914 0.0595
vn 0.6959 -0.7091 -0.1136
vn 0.6202 -0.7830 0.0475
vn 0.6993 -0.7127 0.0551
vn 0.9285 -0.3667 -0.0591
vn 0.9423 -0.3139 -0.1161
vn 0.8234 -0.5661 -0.0403
vn 0.9417 -0.3137 0.1217
vn 0.9686 -0.2436 0.0502
vn 0.9709 0.2375 -0.0324
vn 0.9707 0.2374 0.0366
vn 0.9920 0.1222 -0.0299
vn 0.9993 -0.0269 0.0262
vn 0.9993 -0.0269 -0.0268
vn 0.9961 0.0839 0.0264
vn 0.9368 0.3476 0.0400
vn 0.9370 0.3476 -0.0353
vn 0.7412 0.6703 -0.0364
vn 0.8955 0.4435 0.0372
vn 0.8051 0.5917 -0.0420
vn 0.7411 0.6703 0.0378
vn 0.6892 0.7241 0.0257
vn 0.5644 0.8248 -0.0350
vn 0.5644 0.8248 -0.0354
vn 0.5644 0.8248 -0.0352
vn 0.4886 0.8713 0.0465
vn 0.4866 0.8677 -0.1011
vn 0.5346 0.8450 -0.0156
vn 0.6760 0.7352 -0.0495
vn 0.5991 0.8004 0.0205
vn 0.4453 0.8946 -0.0366
vn 0.4268 0.9014 0.0734
vn 0.4152 0.9097 0.0028
vn 0.2297 0.9732 -0.0106
vn 0.2297 0.9732 -0.0035
vn 0.2297 0.9732 -0.0093
vn 0.2429 0.9697 -0.0270
vn 0.3983 0.9171 0.0177
vn 0.2297 0.9733 -0.0022
vn 0.0693 0.9975 -0.0106
vn 0.0659 0.9978 0.0046
vn 0.0693 0.9976 0.0078
vn 0.0689 0.9976 0.0074
vn 0.2153 0.9765 0.0135
vn 0.2152 0.9763 -0.0226
vn 0.1497 0.9880 0.0387
vn 0.0450 0.9988 -0.0201
vn 0.0565 0.9984 0.0007
vn -0.0681 0.9977 -0.0006
vn -0.0721 0.9974 0.0040
vn -0.0684 0.9977 0.0000
vn -0.0727 0.9973 0.0044
vn -0.0503 0.9977 0.0450
vn -0.0000 0.0000 1.0000
vn -0.2190 0.9757 -0.0060
vn -0.2381 -0.9708 0.0303
vn -0.1731 -0.9848 -0.0134
vn -0.0480 -0.9986 0.0203
vn -0.3188 -0.9477 -0.0178
vn -0.3188 -0.9478 0.0104
vn -0.5363 -0.8436 0.0268
vn -0.5361 -0.8434 0.0353
vn -0.5361 -0.8434 0.0344
vn -0.5641 -0.8220 0.0786
vn -0.5636 -0.8213 -0.0882
vn -0.4323 -0.9013 0.0258
vn -0.3544 -0.9349 -0.0188
vn -0.7855 -0.6140 -0.0773
vn -0.8805 -0.4669 0.0815
vn -0.8806 -0.4670 -0.0809
vn -0.6878 -0.7224 0.0716
vn -0.7856 -0.6140 0.0771
vn -0.9616 -0.2529 -0.1070
vn -0.9669 -0.2543 -0.0196
vn -0.9859 -0.1673 0.0005
vn -0.9286 -0.3703 0.0246
vn -0.9990 -0.0450 -0.0010
vn -0.9931 -0.1172 0.0070
vn -0.9783 -0.2070 0.0000
vn -0.9788 -0.2048 -0.0005
vn -0.9768 -0.2141 -0.0001
vn -0.9768 -0.2141 0.0001
vn -0.9569 -0.2894 0.0228
vn -0.9686 -0.2485 -0.0027
vn -0.9974 -0.0726 -0.0000
vn -0.9571 -0.2895 -0.0110
vn -0.9990 -0.0450 0.0010
vn -0.9859 -0.1673 -0.0005
vn -0.9686 -0.2485 0.0027
vn -0.9571 -0.2895 0.0110
vn -0.9569 -0.2894 -0.0228
vn -0.9788 -0.2048 0.0005
vn -0.9298 -0.3682 -0.0006
vn -0.9505 -0.3106 0.0048
vn -0.9151 -0.4025 -0.0226
vn -0.9151 -0.4025 0.0225
vn -0.6786 -0.7275 -0.1007
vn -0.8256 -0.5622 0.0472
vn -0.6795 -0.7284 0.0878
vn -0.8414 -0.5399 -0.0230
vn -0.8414 -0.5399 -0.0219
vn -0.8412 -0.5397 -0.0332
vn -0.6887 -0.7212 0.0746
vn -0.5524 -0.8302 -0.0749
vn -0.6905 -0.7231 0.0170
vn -0.4412 -0.8944 -0.0730
vn -0.4411 -0.8943 0.0756
vn -0.3010 -0.9533 0.0243
vn -0.3010 -0.9533 -0.0238
vn -0.3934 -0.9186 -0.0378
vn -0.5523 -0.8300 0.0778
vn -0.5268 -0.8497 -0.0235
vn -0.3936 -0.9191 0.0188
vn -0.6661 -0.7420 -0.0752
vn -0.6661 -0.7419 0.0766
vn -0.7753 -0.6265 0.0802
vn -0.5631 -0.8230 -0.0742
vn -0.7753 -0.6265 -0.0797
vn -0.8727 -0.4815 -0.0805
vn -0.9446 -0.3282 -0.0073
vn -0.8920 -0.4516 0.0192
vn -0.6762 -0.7327 -0.0765
vn -0.8726 -0.4814 0.0820
vn -0.5631 -0.8230 0.0754
vn -0.5363 -0.8436 -0.0268
vn -0.5363 -0.8437 -0.0259
vn -0.5361 -0.8434 -0.0344
vn -0.4211 -0.9066 0.0253
vn -0.4211 -0.9066 -0.0258
vn -0.6761 -0.7326 0.0783
vn -0.5641 -0.8220 -0.0786
vn -0.7855 -0.6140 0.0773
vn -0.5361 -0.8434 -0.0353
vn -0.7856 -0.6140 -0.0771
vn -0.3188 -0.9478 -0.0104
vn -0.3188 -0.9477 0.0178
vn -0.4323 -0.9013 -0.0258
vn -0.3544 -0.9349 0.0188
vn -0.5636 -0.8213 0.0882
vn -0.0000 0.0000 -1.0000
vn -0.6878 -0.7224 -0.0716
vn -0.8806 -0.4670 0.0809
vn -0.9520 -0.2949 -0.0818
vn -0.9931 -0.1172 -0.0070
vn -0.9669 -0.2543 0.0196
vn -0.8805 -0.4669 -0.0815
vn -0.6140 0.7885 -0.0352
vn -0.3998 0.9161 -0.0321
vn -0.4812 0.8760 0.0324
vn -0.3398 0.9403 0.0177
vn -0.4813 0.8762 -0.0241
vn -0.2567 0.9657 0.0404
vn -0.2415 0.9687 -0.0571
vn -0.2042 0.9787 0.0202
vn -0.1304 0.9890 -0.0699
vn -0.3398 0.9403 -0.0181
vn -0.1304 0.9890 0.0704
vn -0.0721 0.9974 -0.0040
vn -0.0681 0.9977 0.0006
vn 0.0647 0.9979 0.0066
vn 0.0565 0.9984 -0.0007
vn 0.0610 0.9981 -0.0060
vn 0.0657 0.9978 0.0014
vn 0.0680 0.9977 -0.0041
vn 0.0663 0.9978 -0.0033
vn -0.0591 0.9982 0.0040
vn -0.0545 0.9985 -0.0016
vn -0.0605 0.9982 0.0004
vn 0.0610 0.9981 -0.0004
vn -0.0540 0.9985 -0.0027
vn 0.0597 0.9982 0.0084
vn -0.0566 0.9984 -0.0070
vn 0.2039 0.9790 -0.0035
vn 0.2042 0.9789 -0.0033
vn 0.2021 0.9793 -0.0062
vn 0.0611 0.9981 -0.0025
vn 0.2018 0.9794 -0.0063
vn 0.2302 0.9731 -0.0022
vn 0.2343 0.9721 -0.0042
vn 0.2306 0.9730 -0.0021
vn 0.2302 0.9729 0.0199
vn 0.0587 0.9983 -0.0018
vn 0.0646 0.9979 0.0008
vn 0.2377 0.9713 -0.0023
vn 0.2381 0.9712 -0.0024
vn 0.0646 0.9979 0.0015
vn 0.0692 0.9976 -0.0074
vn -0.0711 0.9974 0.0084
vn 0.0712 0.9975 -0.0037
vn -0.0991 0.9944 -0.0378
vn -0.0952 0.9955 0.0012
vn -0.0992 0.9951 0.0025
vn -0.0987 0.9951 0.0026
vn -0.0964 0.9953 0.0018
vn -0.3232 0.9442 0.0638
vn -0.3232 0.9441 -0.0647
vn -0.1484 0.9876 -0.0509
vn -0.2742 0.9617 -0.0029
vn -0.0964 0.9953 0.0042
vn -0.5250 0.8481 0.0722
vn -0.2741 0.9613 -0.0277
vn -0.4156 0.9070 0.0672
vn -0.5249 0.8481 -0.0723
vn -0.6374 0.7668 -0.0758
vn -0.8356 0.5437 0.0782
vn -0.8359 0.5438 -0.0745
vn -0.7345 0.6740 0.0790
vn -0.9325 0.3610 0.0125
vn -0.9735 0.2287 -0.0061
vn -0.8719 0.4892 0.0239
vn -0.8719 0.4892 0.0238
vn -0.8719 0.4892 0.0240
vn -0.9696 0.2443 -0.0124
vn -0.9831 0.1828 0.0000
vn -0.9418 0.3355 0.0205
vn -0.9981 0.0610 0.0000
vn -0.9679 0.2439 -0.0602
vn -0.9291 0.3643 0.0635
vn -0.9548 0.2967 0.0152
vn -0.9292 0.3643 -0.0620
vn -0.9532 0.3024 0.0000
vn -0.8795 0.4717 -0.0631
vn -0.8794 0.4716 0.0644
vn -0.9119 0.4101 0.0156
vn -0.7512 0.6588 -0.0416
vn -0.7512 0.6588 0.0417
vn -0.8486 0.5273 -0.0420
vn -0.6354 0.7712 -0.0384
vn -0.6354 0.7711 -0.0398
vn -0.6354 0.7712 -0.0388
vn -0.8491 0.5276 0.0276
vn -0.6354 0.7712 -0.0402
vn -0.6765 0.7358 0.0319
vn -0.5053 0.8627 -0.0174
vn -0.3906 0.9203 -0.0234
vn -0.5525 0.8332 0.0210
vn -0.3905 0.9202 0.0261
vn -0.3228 0.9465 -0.0031
vn -0.3228 0.9465 -0.0035
vn -0.3285 0.9445 0.0017
vn -0.1848 0.9828 0.0014
vn -0.1803 0.9836 0.0008
vn -0.1847 0.9828 -0.0000
vn -0.1843 0.9829 -0.0005
vn -0.3459 0.9383 0.0009
vn -0.1817 0.9832 -0.0175
vn -0.1817 0.9833 0.0008
vn -0.3458 0.9381 -0.0204
vn -0.2317 0.9726 0.0188
vn -0.2317 0.9726 -0.0184
vn -0.1267 0.9918 0.0164
vn -0.0782 0.9968 -0.0163
vn -0.0782 0.9968 0.0161
vn -0.3096 0.9500 0.0394
vn -0.1267 0.9918 -0.0153
vn -0.2345 0.9702 0.0619
vn -0.3098 0.9505 -0.0242
vn -0.2344 0.9701 -0.0627
vn -0.4782 0.8783 -0.0024
vn -0.4156 0.9069 0.0702
vn -0.4781 0.8781 0.0212
vn -0.1898 0.9817 -0.0181
vn -0.1920 0.9813 -0.0143
vn -0.1922 0.9813 -0.0140
vn -0.2741 0.9613 0.0277
vn -0.1893 0.9817 -0.0189
vn -0.4156 0.9070 -0.0672
vn -0.0614 0.9981 0.0102
vn -0.0614 0.9981 0.0100
vn -0.0614 0.9981 0.0099
vn -0.0711 0.9974 -0.0084
vn -0.0991 0.9944 0.0378
vn 0.0646 0.9979 -0.0015
vn 0.0692 0.9976 0.0074
vn 0.0712 0.9975 0.0037
vn -0.0953 0.9954 -0.0012
vn -0.0964 0.9953 -0.0018
vn -0.0987 0.9951 -0.0026
vn -0.0992 0.9951 -0.0025
vn 0.0588 0.9983 0.0018
vn 0.0646 0.9979 -0.0008
vn 0.2377 0.9713 0.0023
vn 0.2343 0.9721 0.0042
vn 0.2305 0.9731 0.0022
vn 0.2381 0.9712 0.0024
vn 0.0611 0.9981 0.0025
vn 0.2302 0.9731 0.0022
vn 0.3625 0.9278 -0.0881
vn 0.3639 0.9313 0.0144
vn 0.3621 0.9320 0.0158
vn 0.3633 0.9316 0.0150
vn 0.3601 0.9328 0.0173
vn 0.4323 0.9017 0.0029
vn 0.2302 0.9729 -0.0199
vn 0.6486 0.7609 0.0181
vn 0.6486 0.7610 0.0107
vn 0.6484 0.7611 0.0176
vn 0.6487 0.7610 0.0097
vn 0.3713 0.9251 0.0794
vn 0.5086 0.8607 -0.0245
vn 0.5827 0.8069 0.0969
vn 0.5840 0.8086 -0.0713
vn 0.8049 0.5916 0.0460
vn 0.8711 0.4896 -0.0396
vn 0.7996 0.6006 -0.0038
vn 0.8709 0.4895 0.0433
vn 0.9292 0.3673 -0.0417
vn 0.9291 0.3672 0.0427
vn 0.7987 0.5999 -0.0472
vn 0.7996 0.5987 -0.0462
vn 0.8006 0.5975 -0.0449
vn 0.9678 0.2498 -0.0307
vn 0.8955 0.4441 -0.0297
vn 0.9676 0.2498 0.0363
vn 0.8025 0.5951 -0.0426
vn 0.7283 0.6780 0.1000
vn 0.9915 0.1271 -0.0259
vn 0.9931 -0.1143 0.0263
vn 0.9931 -0.1143 -0.0272
vn 0.9996 -0.0047 0.0262
vn 0.9995 0.0172 -0.0263
vn 0.9749 -0.2211 0.0276
vn 0.9748 -0.2211 -0.0283
vn 0.9915 0.1271 0.0268
vn 0.9301 0.3656 0.0353
vn 0.9680 0.2494 -0.0264
vn 0.9995 0.0172 0.0263
vn 0.8948 0.4437 -0.0503
vn 0.9953 -0.0932 -0.0270
vn 0.9953 -0.0932 0.0262
vn 0.9893 0.1435 -0.0254
vn 0.9680 0.2494 0.0271
vn 0.8102 0.5772 0.1021
vn 0.9716 0.2093 -0.1107
vn 0.9885 0.1434 -0.0490
vn 0.8403 0.5397 -0.0501
vn 0.8105 0.5774 -0.0990
vn 0.5765 0.8125 0.0865
vn 0.5486 0.8358 0.0218
vn 0.5482 0.8352 0.0423
vn 0.6925 0.7157 -0.0905
vn 0.5721 0.8158 -0.0847
vn 0.6925 0.7156 0.0911
vn 0.4316 0.9018 -0.0205
vn 0.4316 0.9018 0.0203
vn 0.2670 0.9635 -0.0181
vn 0.2669 0.9630 -0.0366
vn 0.3754 0.9267 0.0194
vn 0.2142 0.9766 -0.0185
vn 0.2142 0.9766 0.0182
vn 0.3754 0.9267 -0.0195
vn 0.3193 0.9474 0.0200
vn 0.3193 0.9475 -0.0134
vn 0.1612 0.9868 0.0172
vn 0.1612 0.9869 -0.0116
vn 0.1899 0.9817 0.0123
vn 0.0433 0.9990 -0.0112
vn 0.0433 0.9990 0.0107
vn 0.0715 0.9974 0.0103
vn 0.0718 0.9974 0.0106
vn 0.1899 0.9817 -0.0119
vn 0.2173 0.9761 0.0094
vn 0.2174 0.9761 -0.0030
vn 0.2174 0.9761 -0.0013
vn 0.2173 0.9760 0.0111
vn 0.3740 0.9273 -0.0155
vn 0.3725 0.9279 -0.0141
vn 0.3767 0.9261 -0.0182
vn 0.3772 0.9260 -0.0176
vn 0.2381 0.9711 0.0172
vn 0.3772 0.9260 -0.0172
vn 0.3911 0.9197 -0.0347
vn 0.5507 0.8344 0.0229
vn 0.5507 0.8340 0.0343
vn 0.5505 0.8342 0.0332
vn 0.5509 0.8343 0.0218
vn 0.5765 0.8124 -0.0871
vn 0.6572 0.7532 0.0277
vn 0.3909 0.9191 0.0496
vn 0.7266 0.6764 -0.1202
vn -0.0615 0.9981 0.0043
vn 0.0164 0.9998 -0.0103
vn -0.0614 0.9981 0.0039
vn 0.0164 0.9998 0.0152
vn 0.0656 0.9977 -0.0159
vn 0.0656 0.9977 0.0149
vn 0.1138 0.9934 -0.0173
vn -0.0347 0.9994 -0.0004
vn -0.0323 0.9995 0.0007
vn -0.0333 0.9994 0.0003
vn 0.1138 0.9935 -0.0007
vn -0.0323 0.9994 -0.0152
vn 0.1622 0.9864 0.0269
vn 0.0183 0.9994 -0.0277
vn -0.0352 0.9994 -0.0007
vn 0.1622 0.9864 -0.0260
vn 0.2712 0.9622 -0.0254
vn 0.4178 0.9082 0.0254
vn 0.4533 0.8880 -0.0776
vn 0.4533 0.8881 0.0764
vn 0.3114 0.9500 0.0244
vn 0.5630 0.8229 -0.0768
vn 0.6837 0.7239 0.0922
vn 0.6840 0.7242 -0.0874
vn 0.6837 0.7239 -0.0922
vn 0.8908 0.4411 0.1095
vn 0.8908 0.4411 -0.1095
vn 0.5630 0.8229 0.0768
vn 0.4178 0.9082 -0.0254
vn 0.4533 0.8881 -0.0764
vn 0.6840 0.7242 0.0874
vn 0.4533 0.8880 0.0776
vn 0.1622 0.9864 0.0260
vn 0.3114 0.9500 -0.0244
vn 0.1622 0.9864 -0.0269
vn 0.2712 0.9622 0.0254
vn 0.1138 0.9935 0.0007
vn -0.0333 0.9994 -0.0003
vn -0.0323 0.9995 -0.0007
vn -0.0347 0.9994 0.0005
vn 0.0183 0.9994 0.0277
vn -0.0352 0.9994 0.0007
vn -0.1803 0.9836 -0.0008
vn -0.1848 0.9828 -0.0014
vn -0.1843 0.9829 0.0005
vn -0.1817 0.9833 -0.0008
vn -0.1786 0.9839 0.0000
vn -0.2317 0.9726 -0.0188
vn -0.3458 0.9381 0.0204
vn -0.3459 0.9383 -0.0009
vn -0.1817 0.9832 0.0175
vn -0.2317 0.9726 0.0184
vn -0.1267 0.9918 -0.0164
vn -0.0782 0.9968 0.0163
vn -0.0782 0.9968 -0.0161
vn 0.0656 0.9977 -0.0149
vn -0.0323 0.9994 0.0152
vn 0.0164 0.9998 -0.0152
vn 0.0656 0.9977 0.0159
vn 0.1612 0.9868 -0.0172
vn 0.2142 0.9766 -0.0182
vn 0.2142 0.9766 0.0185
vn 0.1138 0.9934 0.0173
vn 0.1612 0.9869 0.0116
vn 0.3193 0.9474 -0.0200
vn 0.3193 0.9475 0.0134
vn 0.1899 0.9817 -0.0123
vn 0.2173 0.9760 -0.0094
vn 0.2173 0.9760 -0.0111
vn 0.2174 0.9761 0.0013
vn 0.3740 0.9273 0.0155
vn 0.3772 0.9260 0.0172
vn 0.3772 0.9260 0.0176
vn 0.1899 0.9817 0.0119
vn 0.3911 0.9197 0.0347
vn 0.3909 0.9191 -0.0496
vn 0.6572 0.7532 -0.0277
vn 0.7266 0.6764 0.1202
vn 0.5507 0.8344 -0.0229
vn 0.5509 0.8343 -0.0218
vn 0.5505 0.8342 -0.0332
vn 0.5765 0.8124 0.0871
vn 0.8413 0.5404 0.0135
vn 0.8105 0.5774 0.0990
vn 0.8403 0.5397 0.0501
vn 0.5765 0.8125 -0.0865
vn 0.5486 0.8358 -0.0218
vn 0.5482 0.8352 -0.0423
vn 0.6925 0.7157 0.0905
vn 0.8102 0.5772 -0.1021
vn 0.8335 0.5520 0.0248
vn 0.9625 0.2662 -0.0521
vn 0.9716 0.2093 0.1107
vn 0.9719 0.2094 -0.1076
vn 0.6925 0.7156 -0.0911
vn 0.9766 -0.2132 -0.0297
vn 0.9457 -0.3232 0.0355
vn 0.9885 0.1434 0.0490
vn 0.9458 -0.3232 -0.0324
vn 0.9969 -0.0737 0.0264
vn 0.9832 -0.1802 0.0280
vn 0.9033 -0.4277 -0.0345
vn 0.9970 -0.0737 -0.0252
vn 0.9032 -0.4276 0.0378
vn 0.8542 -0.5187 0.0358
vn 0.6810 -0.7303 0.0542
vn 0.6814 -0.7308 -0.0415
vn 0.7649 -0.6430 -0.0385
vn 0.5986 -0.7985 -0.0644
vn 0.5986 -0.7985 0.0637
vn 0.8542 -0.5187 -0.0349
vn 0.7791 -0.6242 0.0573
vn 0.7797 -0.6247 -0.0428
vn 0.9565 -0.2859 0.0574
vn 0.9577 -0.2863 0.0289
vn 0.9664 -0.2300 0.1144
vn 0.9833 -0.1802 -0.0271
vn 0.9979 0.0587 -0.0256
vn 0.9979 0.0587 0.0260
vn 0.9859 0.1654 -0.0258
vn 0.9230 0.3839 0.0257
vn 0.9223 0.3836 0.0472
vn 0.9859 0.1654 0.0250
vn 0.9635 0.2665 -0.0267
vn 0.8800 0.4741 -0.0266
vn 0.8801 0.4742 0.0261
vn 0.8335 0.5520 -0.0235
vn 0.7137 0.6990 0.0457
vn 0.7143 0.6995 0.0215
vn 0.6979 -0.7128 0.0694
vn 0.6979 -0.7128 -0.0694
vn 0.9664 -0.2300 -0.1144
vn 0.9565 -0.2859 -0.0574
vn 0.7797 -0.6247 0.0428
vn 0.5610 -0.8276 0.0158
vn 0.5607 -0.8279 0.0166
vn 0.5566 -0.8305 0.0243
vn 0.5986 -0.7985 0.0644
vn 0.5556 -0.8310 0.0261
vn 0.7791 -0.6242 -0.0573
vn 0.6814 -0.7308 0.0415
vn 0.5986 -0.7985 -0.0637
vn 0.8542 -0.5187 0.0349
vn 0.8542 -0.5187 -0.0358
vn 0.9032 -0.4276 -0.0378
vn 0.9033 -0.4277 0.0345
vn 0.7649 -0.6430 0.0385
vn 0.6810 -0.7303 -0.0542
vn 0.4996 -0.8643 -0.0585
vn 0.4996 -0.8643 0.0587
vn 0.5879 -0.8075 0.0473
vn 0.7648 -0.6430 -0.0412
vn 0.9458 -0.3232 0.0324
vn 0.9457 -0.3232 -0.0355
vn 0.8323 -0.5531 0.0372
vn 0.9764 -0.2132 -0.0341
vn 0.8944 -0.4456 0.0388
vn 0.9766 -0.2132 0.0297
vn 0.8322 -0.5530 -0.0398
vn 0.9970 -0.0737 0.0252
vn 0.9832 -0.1802 -0.0280
vn 0.9969 -0.0737 -0.0264
vn 0.9625 0.2662 0.0521
vn 0.9719 0.2094 0.1076
vn 0.9635 0.2665 0.0267
vn 0.9859 0.1654 -0.0250
vn 0.9859 0.1654 0.0258
vn 0.9230 0.3839 -0.0257
vn 0.8801 0.4742 -0.0261
vn 0.8800 0.4741 0.0266
vn 0.7137 0.6990 -0.0457
vn 0.7143 0.6995 -0.0215
vn 0.8335 0.5520 0.0235
vn 0.9979 0.0587 0.0256
vn 0.9979 0.0587 -0.0260
vn 0.9223 0.3836 -0.0472
vn 0.8335 0.5520 -0.0248
vn 0.9833 -0.1802 0.0271
vn 0.9577 -0.2863 -0.0289
vn 0.4620 -0.8868 0.0128
vn 0.4552 -0.8900 0.0258
vn 0.3126 -0.9498 -0.0086
vn 0.3126 -0.9498 0.0084
vn 0.3448 -0.9372 -0.0530
vn 0.3450 -0.9376 0.0428
vn 0.2187 -0.9746 -0.0476
vn 0.1651 -0.9862 -0.0087
vn 0.1395 -0.9884 -0.0595
vn 0.1397 -0.9897 0.0307
vn 0.0234 -0.9996 -0.0185
vn -0.0625 -0.9962 0.0605
vn -0.0626 -0.9975 -0.0327
vn 0.0376 -0.9990 0.0226
vn -0.0959 -0.9954 0.0003
vn -0.0965 -0.9953 0.0020
vn -0.0955 -0.9954 0.0010
vn -0.2256 -0.9742 -0.0010
vn -0.2655 -0.9635 0.0334
vn -0.2651 -0.9621 -0.0640
vn -0.2309 -0.9730 -0.0010
vn -0.2311 -0.9729 -0.0009
vn -0.2318 -0.9728 -0.0002
vn -0.1038 -0.9946 0.0009
vn -0.3600 -0.9327 0.0230
vn -0.3724 -0.9281 0.0001
vn -0.2319 -0.9727 -0.0001
vn -0.4866 -0.8728 -0.0371
vn -0.4075 -0.9126 0.0334
vn -0.5768 -0.8158 -0.0432
vn -0.5766 -0.8155 0.0506
vn -0.6647 -0.7446 0.0616
vn -0.7908 -0.6116 -0.0233
vn -0.7558 -0.6510 -0.0702
vn -0.8751 -0.4833 -0.0249
vn -0.7557 -0.6510 0.0720
vn -0.8450 -0.5348 -0.0030
vn -0.8960 -0.4441 0.0013
vn -0.9505 -0.3106 -0.0048
vn -0.9298 -0.3682 0.0006
vn -0.8256 -0.5622 -0.0472
vn -0.8259 -0.5624 0.0414
vn -0.9151 -0.4025 0.0226
vn -0.6786 -0.7275 0.1007
vn -0.9151 -0.4025 -0.0225
vn -0.8412 -0.5397 0.0332
vn -0.8414 -0.5399 0.0219
vn -0.8414 -0.5399 0.0230
vn -0.6887 -0.7212 -0.0746
vn -0.6795 -0.7284 -0.0878
vn -0.4412 -0.8944 0.0730
vn -0.3909 -0.9204 0.0010
vn -0.5515 -0.8313 -0.0688
vn -0.3906 -0.9198 0.0376
vn -0.3045 -0.9522 -0.0265
vn -0.3044 -0.9522 -0.0256
vn -0.3045 -0.9520 -0.0322
vn -0.2116 -0.9772 0.0166
vn -0.2281 -0.9736 -0.0080
vn -0.2283 -0.9736 -0.0005
vn -0.2282 -0.9736 -0.0011
vn -0.1907 -0.9804 0.0496
vn -0.1909 -0.9812 -0.0269
vn -0.0850 -0.9952 0.0481
vn -0.0851 -0.9961 -0.0247
vn -0.1032 -0.9945 0.0178
vn -0.2283 -0.9735 -0.0086
vn -0.1342 -0.9908 0.0156
vn -0.3010 -0.9533 0.0238
vn -0.3010 -0.9533 -0.0243
vn -0.1342 -0.9908 -0.0186
vn -0.1944 -0.9806 0.0258
vn -0.3936 -0.9191 -0.0188
vn -0.3934 -0.9186 0.0378
vn -0.2647 -0.9639 0.0291
vn -0.1944 -0.9806 -0.0251
vn -0.3117 -0.9493 -0.0421
vn -0.1008 -0.9948 0.0159
vn -0.1417 -0.9897 0.0196
vn -0.0822 -0.9963 -0.0244
vn -0.0821 -0.9956 0.0456
vn -0.0061 -0.9999 -0.0141
vn -0.0232 -0.9989 -0.0403
vn 0.0912 -0.9949 -0.0434
vn 0.0912 -0.9956 0.0225
vn 0.0071 -0.9998 0.0162
vn 0.0264 -0.9985 0.0473
vn 0.1066 -0.9941 -0.0176
vn 0.0264 -0.9994 -0.0242
vn 0.2104 -0.9761 -0.0549
vn 0.1242 -0.9921 0.0174
vn 0.2107 -0.9772 0.0282
vn -0.0540 -0.9978 0.0390
vn -0.0540 -0.9978 -0.0387
vn 0.1133 -0.9936 -0.0009
vn 0.0646 -0.9972 0.0389
vn 0.0645 -0.9954 -0.0713
vn 0.1013 -0.9949 -0.0010
vn 0.1018 -0.9948 -0.0014
vn 0.1047 -0.9945 -0.0040
vn 0.2994 -0.9485 0.1030
vn 0.2525 -0.9676 0.0019
vn 0.2474 -0.9689 0.0072
vn 0.2532 -0.9674 0.0012
vn 0.2357 -0.9718 0.0010
vn 0.3006 -0.9522 -0.0553
vn 0.4391 -0.8963 0.0612
vn 0.2244 -0.9743 -0.0188
vn 0.3398 -0.9401 0.0279
vn 0.4391 -0.8963 -0.0612
vn 0.5449 -0.8380 0.0284
vn 0.6873 -0.7258 -0.0301
vn 0.8343 -0.5366 0.1263
vn 0.9852 0.1298 0.1124
vn 0.9802 0.1908 0.0540
vn 0.8177 0.5736 -0.0485
vn 0.7267 0.6799 0.0985
vn 0.8164 0.5727 0.0739
vn 0.8956 0.4435 -0.0360
vn 0.9812 0.1910 0.0273
vn 0.9872 -0.1569 -0.0274
vn 0.9961 0.0839 -0.0258
vn 0.9873 -0.1569 0.0265
vn 0.8752 -0.4808 0.0533
vn 0.8760 -0.4813 0.0300
vn 0.9643 -0.2634 -0.0291
vn 0.8223 -0.5683 -0.0306
vn 0.8223 -0.5683 0.0301
vn 0.9297 -0.3672 -0.0298
vn 0.9643 -0.2634 0.0282
vn 0.6863 -0.7209 -0.0965
vn 0.5791 -0.8136 0.0522
vn 0.5786 -0.8129 -0.0662
vn 0.6873 -0.7258 0.0296
vn 0.4176 -0.9086 -0.0105
vn 0.4494 -0.8918 -0.0518
vn 0.4084 -0.9123 -0.0305
vn 0.6876 -0.7223 0.0737
vn 0.4018 0.9150 0.0377
vn 0.4152 0.9096 0.0185
vn 0.5992 0.8005 -0.0103
vn 0.1426 -0.9880 0.0587
vn 0.1051 -0.9945 -0.0045
vn 0.2466 -0.9691 0.0080
vn -0.0332 -0.9994 0.0050
vn -0.0250 -0.9995 0.0203
vn -0.1539 -0.9875 -0.0344
vn -0.1538 -0.9872 0.0428
vn -0.1417 -0.9897 -0.0209
vn -0.2446 -0.9694 -0.0215
vn -0.2446 -0.9694 0.0218
vn -0.3544 -0.9348 0.0223
vn -0.3118 -0.9498 -0.0249
vn -0.4211 -0.9066 0.0258
vn -0.4211 -0.9066 -0.0253
vn -0.5363 -0.8437 0.0259
vn -0.6761 -0.7326 -0.0783
vn -0.5631 -0.8230 -0.0754
vn -0.6762 -0.7327 0.0765
vn -0.7753 -0.6265 -0.0802
vn -0.8727 -0.4815 0.0805
vn -0.8726 -0.4814 -0.0820
vn -0.5631 -0.8230 0.0742
vn -0.6661 -0.7419 -0.0766
vn -0.7753 -0.6265 0.0797
vn -0.5268 -0.8497 0.0235
vn -0.6661 -0.7420 0.0752
vn -0.8920 -0.4516 -0.0192
vn -0.8873 -0.4493 -0.1043
vn -0.8411 -0.5397 0.0345
vn -0.8355 -0.5490 0.0246
vn -0.5524 -0.8302 0.0749
vn -0.6905 -0.7231 -0.0170
vn -0.5523 -0.8300 -0.0778
vn -0.9446 -0.3282 0.0073
vn -0.0232 -0.9995 0.0196
vn -0.4411 -0.8943 -0.0756
vn -0.0036 -0.9999 -0.0159
vn -0.0180 -0.9991 -0.0391
vn -0.0180 -0.9996 0.0203
vn -0.1144 -0.9933 -0.0140
vn -0.1310 -0.9906 -0.0396
vn 0.0168 -0.9999 0.0035
vn 0.0164 -0.9998 -0.0070
vn 0.0165 -0.9999 0.0034
vn 0.0168 -0.9998 -0.0071
vn -0.0467 -0.9976 -0.0508
vn -0.1310 -0.9912 0.0181
vn -0.3040 -0.9521 -0.0338
vn -0.5516 -0.8316 0.0643
vn -0.5200 -0.8537 0.0272
vn -0.5222 -0.8525 0.0231
vn -0.5223 -0.8525 0.0228
vn -0.2999 -0.9536 -0.0277
vn -0.7476 -0.6619 -0.0545
vn -0.5196 -0.8540 0.0280
vn -0.7479 -0.6622 0.0463
vn -0.6648 -0.7447 -0.0599
vn -0.3296 -0.9403 0.0842
vn -0.4069 -0.9112 -0.0640
vn -0.6590 -0.7501 -0.0554
vn -0.6588 -0.7498 0.0617
vn -0.8396 -0.5372 -0.0809
vn -0.8396 -0.5372 0.0809
vn -0.6588 -0.7498 -0.0617
vn -0.5594 -0.8276 0.0463
vn -0.5594 -0.8276 -0.0463
vn -0.3252 -0.9451 -0.0313
vn -0.4024 -0.9147 0.0371
vn -0.4024 -0.9147 -0.0371
vn -0.3252 -0.9451 0.0313
vn -0.1910 -0.9816 0.0000
vn -0.2139 -0.9767 -0.0195
vn -0.2139 -0.9767 0.0195
vn -0.0965 -0.9953 -0.0019
vn -0.0959 -0.9954 -0.0002
vn -0.0955 -0.9954 -0.0010
vn -0.2256 -0.9742 0.0010
vn -0.0972 -0.9953 -0.0000
vn 0.0327 -0.9995 0.0022
vn 0.0512 -0.9985 0.0195
vn 0.0512 -0.9985 -0.0195
vn 0.0327 -0.9995 -0.0022
vn 0.1639 -0.9864 -0.0129
vn 0.1770 -0.9842 0.0000
vn 0.1639 -0.9864 0.0129
vn 0.1993 -0.9775 0.0691
vn 0.2745 -0.9616 0.0000
vn 0.2738 -0.9618 -0.0034
vn 0.2757 -0.9612 -0.0003
vn 0.2757 -0.9612 0.0003
vn 0.4397 -0.8967 -0.0505
vn 0.4397 -0.8967 0.0505
vn 0.4111 -0.9116 -0.0045
vn 0.2738 -0.9618 0.0034
vn 0.4111 -0.9116 0.0045
vn 0.3992 -0.9168 0.0116
vn 0.5566 -0.8305 -0.0243
vn 0.5607 -0.8279 -0.0166
vn 0.5610 -0.8276 -0.0158
vn 0.5556 -0.8310 -0.0261
vn 0.3450 -0.9376 -0.0428
vn 0.2187 -0.9746 0.0476
vn 0.1993 -0.9775 -0.0691
vn 0.1651 -0.9862 0.0087
vn 0.1395 -0.9884 0.0595
vn 0.1397 -0.9897 -0.0307
vn 0.3126 -0.9498 -0.0084
vn 0.3448 -0.9372 0.0530
vn -0.0626 -0.9975 0.0327
vn -0.0625 -0.9962 -0.0605
vn 0.0376 -0.9990 -0.0226
vn 0.0234 -0.9996 0.0185
vn -0.1038 -0.9946 -0.0009
vn -0.1146 -0.9933 0.0172
vn -0.0012 -0.9995 -0.0308
vn 0.0218 -0.9997 0.0076
vn 0.1651 -0.9862 -0.0093
vn -0.0162 -0.9999 -0.0023
vn -0.0169 -0.9998 0.0087
vn -0.0169 -0.9998 0.0073
vn 0.1398 -0.9902 -0.0066
vn 0.1389 -0.9903 -0.0062
vn 0.1389 -0.9903 -0.0021
vn 0.1477 -0.9890 0.0093
vn 0.1407 -0.9900 -0.0022
vn 0.1518 -0.9884 0.0013
vn 0.2828 -0.9592 -0.0073
vn 0.2815 -0.9596 0.0042
vn 0.2817 -0.9595 0.0034
vn 0.2815 -0.9595 -0.0076
vn -0.0467 -0.9976 0.0508
vn -0.0467 -0.9981 -0.0392
vn 0.0165 -0.9999 -0.0034
vn 0.0164 -0.9998 0.0070
vn 0.0168 -0.9999 -0.0035
vn 0.1451 -0.9894 0.0006
vn -0.0169 -0.9999 -0.0024
vn 0.1518 -0.9884 0.0076
vn 0.1537 -0.9881 0.0081
vn 0.1348 -0.9908 -0.0076
vn 0.0168 -0.9998 0.0071
vn 0.0947 -0.9952 -0.0250
vn -0.0036 -0.9999 0.0159
vn -0.0180 -0.9991 0.0391
vn -0.0180 -0.9996 -0.0203
vn 0.1348 -0.9908 0.0080
vn 0.0946 -0.9942 0.0516
vn 0.1722 -0.9849 -0.0170
vn 0.1692 -0.9853 -0.0219
vn 0.1666 -0.9857 -0.0263
vn 0.2819 -0.9594 -0.0100
vn 0.2818 -0.9594 -0.0091
vn 0.2819 -0.9594 -0.0114
vn 0.3172 -0.9469 -0.0522
vn 0.3174 -0.9474 0.0407
vn 0.3996 -0.9141 0.0689
vn 0.2683 -0.9632 -0.0163
vn 0.1663 -0.9859 0.0179
vn 0.1663 -0.9857 -0.0267
vn 0.3996 -0.9140 -0.0700
vn 0.6973 -0.7151 -0.0483
vn 0.7701 -0.6271 0.1170
vn 0.6019 -0.7959 0.0645
vn 0.5046 -0.8601 -0.0744
vn 0.5043 -0.8595 0.0835
vn 0.8347 -0.5487 0.0463
vn 0.6202 -0.7830 -0.0475
vn 0.7728 -0.6293 -0.0820
vn 0.9860 -0.1611 0.0426
vn 0.8984 -0.4371 -0.0412
vn 0.9859 -0.1611 -0.0445
vn 0.9502 -0.3081 0.0478
vn 0.9502 -0.3081 -0.0465
vn 0.9995 -0.0046 0.0311
vn 1.0000 -0.0046 0.0035
vn 0.9986 -0.0275 0.0442
vn 0.9561 0.2909 -0.0356
vn 0.8945 0.4405 0.0767
vn 0.9985 -0.0275 -0.0480
vn 0.8960 0.4412 -0.0493
vn 0.8950 0.4436 -0.0468
vn 0.8950 0.4437 -0.0467
vn 0.9915 0.1271 0.0267
vn 0.9747 -0.2211 0.0321
vn 0.9749 -0.2211 -0.0276
vn 0.9915 0.1271 -0.0268
vn 0.9301 0.3656 -0.0353
vn 0.8948 0.4437 0.0503
vn 0.9680 0.2494 0.0264
vn 0.9680 0.2494 -0.0271
vn 0.9953 -0.0932 0.0270
vn 0.9893 0.1435 0.0254
vn 0.9953 -0.0932 -0.0262
vn 0.8944 -0.4456 -0.0388
vn 0.8943 -0.4456 0.0396
vn 0.9764 -0.2132 0.0341
vn 0.9410 -0.3371 -0.0312
vn 0.7638 -0.6440 0.0427
vn 0.7640 -0.6441 -0.0385
vn 0.8445 -0.5346 -0.0330
vn 0.9408 -0.3370 0.0355
vn 0.6768 -0.7345 0.0491
vn 0.5027 -0.8624 -0.0588
vn 0.5028 -0.8624 0.0586
vn 0.6020 -0.7961 -0.0616
vn 0.6770 -0.7347 -0.0433
vn 0.5877 -0.8072 0.0544
vn 0.4657 -0.8848 -0.0140
vn 0.4656 -0.8847 -0.0209
vn 0.4655 -0.8849 -0.0133
vn 0.4655 -0.8848 -0.0216
vn 0.4120 -0.9112 0.0034
vn 0.4120 -0.9112 0.0022
vn 0.4120 -0.9112 0.0033
vn 0.4119 -0.9112 0.0045
vn 0.4996 -0.8643 0.0585
vn 0.5879 -0.8075 -0.0473
vn 0.2999 -0.9540 0.0019
vn 0.2933 -0.9560 -0.0053
vn 0.2932 -0.9560 0.0004
vn 0.3028 -0.9530 0.0091
vn 0.2933 -0.9560 -0.0066
vn 0.3027 -0.9530 0.0093
vn 0.7648 -0.6430 0.0412
vn 0.8323 -0.5531 -0.0372
vn 0.8322 -0.5530 0.0398
vn 0.8421 -0.5331 -0.0814
vn 0.8949 0.4438 -0.0465
vn 0.7317 0.6812 0.0230
vn 0.5876 0.8040 0.0908
vn 0.7147 0.6933 -0.0929
vn 0.5877 0.8041 -0.0899
vn 0.3767 0.9262 0.0182
vn 0.3725 0.9279 0.0141
vn 0.3713 0.9251 -0.0794
vn 0.5507 0.8340 -0.0343
vn 0.4323 0.9017 -0.0029
vn 0.5309 0.8460 -0.0496
vn 0.7148 0.6934 0.0908
vn 0.3625 0.9278 0.0881
vn 0.5313 0.8468 0.0262
vn 0.3633 0.9316 -0.0150
vn 0.3621 0.9320 -0.0158
vn 0.3639 0.9313 -0.0144
vn 0.5081 0.8612 0.0065
vn 0.5086 0.8610 0.0049
vn 0.5086 0.8610 0.0068
vn 0.3752 0.9269 -0.0096
vn 0.6083 0.7897 -0.0795
vn 0.3601 0.9328 -0.0173
vn 0.3601 0.9329 0.0053
vn 0.6084 0.7899 0.0773
vn 0.7152 0.6944 0.0792
vn 0.5695 0.8219 -0.0146
vn 0.5693 0.8217 -0.0255
vn 0.5693 0.8217 -0.0265
vn 0.5086 0.8610 0.0028
vn 0.7154 0.6945 -0.0765
vn 0.8954 0.4450 -0.0134
vn 0.9492 0.3111 0.0474
vn 0.8944 0.4426 0.0640
vn 0.7537 0.6566 0.0264
vn 0.7538 0.6566 0.0266
vn 0.7538 0.6567 0.0238
vn 0.9497 0.3113 -0.0358
vn 0.9851 0.1698 -0.0263
vn 0.9999 -0.0049 0.0119
vn 0.9993 -0.0049 0.0362
vn 0.9989 -0.0172 0.0444
vn 0.9434 -0.3289 -0.0431
vn 0.9435 -0.3289 0.0403
vn 0.9740 -0.2235 -0.0374
vn 0.8223 -0.5683 -0.0301
vn 0.8223 -0.5683 0.0306
vn 0.8760 -0.4813 -0.0300
vn 0.9739 -0.2235 0.0392
vn 0.9739 -0.2234 0.0390
vn 0.9750 -0.2191 0.0361
vn 0.9758 -0.2183 0.0127
vn 0.8752 -0.4808 -0.0533
vn 0.9753 -0.2181 0.0355
vn 0.9977 0.0621 -0.0258
vn 0.9967 0.0621 -0.0518
vn 0.9851 0.1698 0.0271
vn 0.9849 0.1297 -0.1148
vn 0.8947 0.4429 0.0572
vn 0.8955 0.4432 -0.0406
vn 0.8949 0.4445 -0.0395
vn 0.8952 0.4440 -0.0400
vn 0.8948 0.4447 -0.0393
vn 0.6200 0.7813 0.0714
vn 0.6195 0.7807 -0.0821
vn 0.7268 0.6800 -0.0969
vn 0.7538 0.6567 0.0236
vn 0.4014 0.9142 -0.0554
vn 0.3398 -0.9401 -0.0279
vn 0.5449 -0.8380 -0.0284
vn 0.5786 -0.8129 0.0662
vn 0.6873 -0.7258 0.0301
vn 0.6873 -0.7258 -0.0296
vn 0.5791 -0.8136 -0.0522
vn 0.3006 -0.9522 0.0553
vn 0.2994 -0.9485 -0.1030
vn 0.4084 -0.9123 0.0305
vn 0.2474 -0.9689 -0.0071
vn 0.2525 -0.9676 -0.0019
vn 0.2532 -0.9674 -0.0012
vn 0.4176 -0.9086 0.0105
vn 0.2466 -0.9691 -0.0080
vn 0.2104 -0.9761 0.0549
vn 0.1242 -0.9921 -0.0174
vn 0.1133 -0.9936 0.0009
vn 0.0264 -0.9994 0.0242
vn 0.0646 -0.9972 -0.0389
vn -0.0540 -0.9978 -0.0390
vn -0.0540 -0.9978 0.0387
vn -0.1538 -0.9872 -0.0428
vn -0.2446 -0.9694 0.0215
vn -0.2446 -0.9694 -0.0218
vn -0.1417 -0.9897 0.0209
vn -0.3118 -0.9498 0.0249
vn -0.3117 -0.9493 0.0421
vn -0.1417 -0.9897 -0.0196
vn -0.0821 -0.9956 -0.0456
vn -0.0822 -0.9963 0.0244
vn -0.1008 -0.9948 -0.0159
vn -0.1944 -0.9806 0.0251
vn -0.2647 -0.9639 -0.0291
vn -0.0232 -0.9995 -0.0196
vn -0.0232 -0.9989 0.0403
vn -0.1342 -0.9908 0.0186
vn -0.1944 -0.9806 -0.0258
vn 0.0167 -0.9998 0.0118
vn -0.0851 -0.9961 0.0247
vn -0.1342 -0.9908 -0.0156
vn 0.0167 -0.9997 -0.0174
vn -0.2282 -0.9736 0.0011
vn -0.2283 -0.9736 0.0005
vn -0.2281 -0.9736 0.0080
vn -0.2283 -0.9735 0.0086
vn -0.0850 -0.9952 -0.0481
vn -0.1032 -0.9945 -0.0178
vn -0.1909 -0.9812 0.0269
vn -0.3909 -0.9204 -0.0010
vn -0.1907 -0.9804 -0.0496
vn -0.2116 -0.9772 -0.0166
vn -0.3044 -0.9522 0.0256
vn -0.3045 -0.9522 0.0265
vn -0.3045 -0.9520 0.0322
vn -0.3906 -0.9198 -0.0376
vn -0.3040 -0.9521 0.0338
vn -0.5516 -0.8316 -0.0643
vn -0.5223 -0.8525 -0.0228
vn -0.5222 -0.8525 -0.0231
vn -0.5200 -0.8537 -0.0272
vn -0.2999 -0.9536 0.0277
vn -0.5515 -0.8313 0.0688
vn -0.5196 -0.8540 -0.0280
vn -0.4069 -0.9112 0.0640
vn -0.3296 -0.9403 -0.0842
vn -0.4075 -0.9126 -0.0334
vn -0.2007 -0.9793 0.0280
vn -0.3724 -0.9281 -0.0001
vn -0.2311 -0.9729 0.0009
vn -0.2318 -0.9728 0.0002
vn -0.2319 -0.9727 0.0001
vn -0.2005 -0.9782 -0.0544
vn -0.2651 -0.9621 0.0640
vn -0.2309 -0.9730 0.0010
vn -0.3600 -0.9327 -0.0230
vn -0.2655 -0.9635 -0.0334
vn -0.4866 -0.8728 0.0371
vn -0.4866 -0.8728 -0.0391
vn -0.4024 -0.9147 0.0368
vn -0.5766 -0.8155 -0.0506
vn -0.7557 -0.6510 -0.0720
vn -0.7558 -0.6510 0.0702
vn -0.6590 -0.7501 0.0554
vn -0.5768 -0.8158 0.0432
vn -0.7908 -0.6116 0.0233
vn -0.6647 -0.7446 -0.0616
vn -0.7479 -0.6622 -0.0463
vn -0.8450 -0.5348 0.0030
vn -0.6648 -0.7447 0.0599
vn -0.7476 -0.6619 0.0545
vn -0.8259 -0.5624 -0.0414
vn -0.8960 -0.4441 -0.0013
vn -0.1310 -0.9912 -0.0181
vn -0.1310 -0.9906 0.0396
vn -0.1144 -0.9933 0.0140
vn -0.0061 -0.9999 0.0141
vn 0.0912 -0.9956 -0.0225
vn 0.1263 -0.9919 -0.0109
vn 0.1263 -0.9920 0.0063
vn 0.2107 -0.9772 -0.0282
vn 0.2520 -0.9677 0.0071
vn 0.2520 -0.9677 -0.0053
vn 0.2520 -0.9677 0.0056
vn 0.1066 -0.9941 0.0176
vn 0.0912 -0.9949 0.0434
vn 0.2520 -0.9677 -0.0069
vn 0.4056 -0.9140 -0.0087
vn 0.4056 -0.9140 -0.0088
vn 0.4056 -0.9140 -0.0097
vn 0.2683 -0.9633 0.0072
vn 0.4056 -0.9140 -0.0078
vn 0.0264 -0.9985 -0.0473
vn 0.0071 -0.9998 -0.0162
vn -0.1539 -0.9875 0.0344
vn 0.0645 -0.9954 0.0713
vn -0.0250 -0.9995 -0.0203
vn -0.0480 -0.9986 -0.0204
vn -0.1731 -0.9848 0.0134
vn -0.0332 -0.9994 -0.0050
vn 0.1018 -0.9948 0.0013
vn 0.1046 -0.9945 0.0040
vn 0.1051 -0.9945 0.0045
vn 0.1426 -0.9880 -0.0587
vn -0.0503 0.9977 -0.0450
vn 0.0450 0.9988 0.0201
vn 0.1497 0.9880 -0.0387
vn -0.0727 0.9973 -0.0044
vn -0.2190 0.9757 0.0060
vn 0.2357 -0.9718 -0.0010
vn 0.2244 -0.9743 0.0188
vn 0.1013 -0.9949 0.0010
vn -0.2381 -0.9708 -0.0303
vn 0.4492 -0.8914 -0.0595
vn 0.4494 -0.8918 0.0518
vn 0.6876 -0.7223 -0.0737
vn 0.6993 -0.7127 -0.0551
vn 0.6959 -0.7091 0.1136
vn 0.6863 -0.7209 0.0965
vn 0.8343 -0.5366 -0.1263
vn 0.3667 0.9303 -0.0118
vn 0.3667 0.9303 -0.0107
vn 0.3669 0.9302 -0.0115
vn 0.2004 0.9797 0.0085
vn 0.2181 0.9759 0.0086
vn 0.2178 0.9760 -0.0040
vn 0.2173 0.9761 0.0084
vn 0.3667 0.9303 -0.0094
vn 0.2004 0.9797 -0.0081
vn 0.3752 0.9269 0.0056
vn 0.2151 0.9766 0.0026
vn 0.3862 0.9223 0.0098
vn 0.3863 0.9224 -0.0058
vn 0.5695 0.8219 -0.0135
vn 0.8985 -0.4372 0.0384
vn 0.9987 -0.0172 -0.0478
vn 0.9779 0.2078 0.0234
vn 0.8949 0.4428 -0.0554
vn 0.9781 0.2079 -0.0064
vn 0.9558 0.2908 0.0437
vn 0.8115 0.5808 -0.0647
vn 0.8106 0.5802 0.0797
vn 0.8963 -0.4410 0.0461
vn 0.0713 -0.9974 0.0143
vn 0.2819 -0.9594 -0.0088
vn 0.3126 -0.9498 0.0086
vn 0.4620 -0.8868 -0.0128
vn 0.4996 -0.8643 -0.0587
vn 0.4552 -0.8900 -0.0258
vn -0.8751 -0.4833 0.0249
vn -0.4024 -0.9147 -0.0368
vn -0.4866 -0.8728 0.0391
vn 0.3992 -0.9168 -0.0116
vn 0.5721 0.8158 0.0847
vn 0.5720 0.8157 -0.0859
vn 0.4316 0.9018 0.0205
vn 0.4316 0.9018 -0.0203
vn 0.3754 0.9267 -0.0194
vn 0.2670 0.9635 0.0181
vn 0.2669 0.9630 0.0366
vn 0.3754 0.9267 0.0195
vn 0.0718 0.9974 -0.0106
vn 0.0715 0.9974 -0.0103
vn 0.2174 0.9761 0.0030
vn 0.2381 0.9711 -0.0172
vn 0.0433 0.9990 0.0112
vn 0.0433 0.9990 -0.0107
vn -0.0614 0.9981 -0.0099
vn -0.0614 0.9981 -0.0103
vn -0.0615 0.9981 -0.0043
vn -0.0614 0.9981 -0.0039
vn 0.0164 0.9998 0.0103
vn -0.0614 0.9981 -0.0100
vn -0.1922 0.9813 0.0140
vn -0.1920 0.9813 0.0143
vn -0.1898 0.9817 0.0181
vn -0.1267 0.9918 0.0153
vn -0.2344 0.9701 0.0627
vn -0.2345 0.9702 -0.0619
vn -0.4781 0.8781 -0.0212
vn -0.3098 0.9505 0.0242
vn -0.4782 0.8783 0.0024
vn -0.4156 0.9069 -0.0702
vn -0.6822 0.7311 -0.0028
vn -0.6818 0.7308 -0.0332
vn -0.5432 0.8385 0.0422
vn -0.7477 0.6637 0.0226
vn -0.7476 0.6640 0.0176
vn -0.7478 0.6637 0.0179
vn -0.5432 0.8384 -0.0460
vn -0.7047 0.7055 0.0759
vn -0.7475 0.6639 0.0230
vn -0.7048 0.7057 -0.0721
vn -0.8828 0.4695 -0.0130
vn -0.8820 0.4704 -0.0286
vn -0.8801 0.4742 -0.0253
vn -0.8801 0.4741 -0.0257
vn -0.8825 0.4693 -0.0295
vn -0.5930 0.8016 0.0760
vn -0.7830 0.6181 0.0698
vn -0.5930 0.8016 -0.0757
vn -0.5525 0.8332 -0.0210
vn -0.6744 0.7349 0.0714
vn -0.7832 0.6182 -0.0666
vn -0.6745 0.7351 -0.0683
vn -0.8829 0.4695 0.0127
vn -0.8791 0.4675 0.0932
vn -0.6340 0.7732 -0.0141
vn -0.6269 0.7786 -0.0283
vn -0.7543 0.6534 0.0638
vn -0.8250 0.5647 -0.0244
vn -0.4795 0.8775 0.0028
vn -0.4788 0.8779 0.0037
vn -0.4748 0.8801 0.0087
vn -0.5047 0.8616 0.0540
vn -0.4741 0.8804 0.0095
vn -0.3311 0.9436 0.0039
vn -0.3243 0.9460 -0.0017
vn -0.3897 0.9184 -0.0688
vn -0.7544 0.6534 -0.0630
vn -0.9096 0.4155 0.0000
vn -0.8576 0.5141 0.0159
vn -0.3906 0.9203 0.0234
vn -0.9381 0.3462 -0.0063
vn -0.4287 0.9024 -0.0430
vn -0.4287 0.9024 0.0430
vn -0.9274 0.3590 0.1049
vn -0.7345 0.6740 -0.0791
vn -0.3096 0.9500 -0.0394
vn 0.5720 0.8157 0.0859
vn 0.8413 0.5404 -0.0135
vn 0.9410 -0.3371 0.0312
vn 0.8943 -0.4456 -0.0396
vn 0.8437 -0.5341 0.0540
vn 0.8445 -0.5346 0.0330
vn 0.9408 -0.3370 -0.0355
vn 0.9375 -0.3469 0.0286
vn 0.9996 -0.0047 -0.0264
vn 0.9694 -0.2438 0.0278
vn 0.9375 -0.3469 -0.0294
vn 0.8868 -0.4605 -0.0401
vn 0.6973 -0.7151 0.0483
vn 0.7701 -0.6271 -0.1170
vn 0.7743 -0.6305 0.0543
vn 0.9919 0.1222 0.0351
vn 0.2018 0.9794 0.0057
vn 0.2018 0.9794 0.0063
vn 0.2020 0.9794 -0.0004
vn 0.2024 0.9793 0.0001
vn 0.3601 0.9329 -0.0014
vn 0.2030 0.9792 -0.0012
vn 0.2422 0.9670 0.0788
vn 0.3469 0.9375 -0.0285
vn 0.0581 0.9983 -0.0069
vn 0.0581 0.9983 -0.0054
vn 0.0674 0.9977 0.0003
vn 0.0678 0.9977 0.0006
vn 0.0677 0.9977 0.0010
vn 0.0611 0.9981 -0.0099
vn -0.0964 0.9953 -0.0042
vn -0.1484 0.9876 0.0509
vn -0.1484 0.9877 -0.0495
vn -0.0540 0.9985 0.0027
vn -0.0605 0.9982 -0.0004
vn -0.0566 0.9984 0.0070
vn -0.2442 0.9681 0.0557
vn -0.1802 0.9836 -0.0023
vn -0.0545 0.9985 0.0015
vn -0.2435 0.9653 -0.0943
vn -0.2992 0.9540 -0.0190
vn -0.2103 0.9769 0.0388
vn -0.3944 0.9185 0.0279
vn -0.3398 0.9403 0.0181
vn -0.3887 0.9209 -0.0278
vn -0.2042 0.9787 -0.0202
vn -0.5392 0.8390 -0.0727
vn -0.6411 0.7651 0.0604
vn -0.6408 0.7647 -0.0682
vn -0.5136 0.8577 0.0234
vn -0.7573 0.6531 -0.0055
vn -0.8651 0.5015 0.0095
vn -0.8649 0.5014 -0.0242
vn -0.7418 0.6684 0.0555
vn -0.9014 0.4311 -0.0400
vn -0.9622 0.2722 0.0119
vn -0.9467 0.3197 0.0401
vn -0.9219 0.3872 0.0123
vn -0.9014 0.4311 0.0409
vn -0.7380 0.6711 -0.0705
vn -0.7564 0.6523 -0.0490
vn -0.7384 0.6715 0.0620
vn -0.8718 0.4892 -0.0242
vn -0.5392 0.8390 0.0728
vn -0.4286 0.9009 -0.0687
vn -0.6374 0.7667 -0.0764
vn -0.4286 0.9008 0.0690
vn -0.5250 0.8481 -0.0722
vn -0.3232 0.9441 0.0647
vn -0.3232 0.9442 -0.0638
vn -0.6374 0.7668 0.0758
vn -0.8667 0.4863 -0.1110
vn -0.8095 0.5864 0.0281
vn -0.5249 0.8481 0.0723
vn -0.7345 0.6740 -0.0790
vn -0.7345 0.6740 0.0791
vn -0.8776 0.4775 -0.0419
vn -0.9325 0.3610 -0.0084
vn -0.8780 0.4778 0.0276
vn -0.7476 0.6640 -0.0176
vn -0.6822 0.7311 0.0028
vn -0.6818 0.7308 0.0332
vn -0.7366 0.6683 -0.1039
vn -0.5432 0.8384 0.0460
vn -0.5432 0.8385 -0.0422
vn -0.7445 0.6613 -0.0917
vn -0.7352 0.6670 0.1207
vn -0.5930 0.8016 -0.0760
vn -0.9467 0.3197 -0.0391
vn -0.8951 0.4440 0.0409
vn -0.7419 0.6685 -0.0519
vn -0.8925 0.4427 0.0868
vn -0.9064 0.3957 0.1481
vn -0.9883 0.1518 0.0114
vn -0.6957 0.7175 -0.0351
vn -0.6140 0.7885 0.0352
vn -0.4812 0.8760 -0.0324
vn -0.3998 0.9161 0.0321
vn -0.4813 0.8762 0.0241
vn -0.3398 0.9403 -0.0177
vn -0.2415 0.9687 0.0571
vn -0.2567 0.9657 -0.0404
vn -0.6961 0.7179 0.0106
vn -0.5137 0.8579 -0.0081
vn -0.1304 0.9890 0.0699
vn -0.1304 0.9890 -0.0704
vn -0.0591 0.9982 -0.0040
vn 0.0657 0.9978 0.0044
vn 0.5644 0.8248 -0.0348
vn -0.2742 0.9617 0.0029
vn -0.5930 0.8016 0.0757
vn -0.9014 0.4311 -0.0409
vn -0.7384 0.6715 -0.0620
vn -0.7380 0.6711 0.0705
vn -0.8718 0.4892 0.0242
vn -0.7564 0.6523 0.0489
vn -0.8651 0.5015 -0.0095
vn -0.9014 0.4311 0.0400
vn -0.7573 0.6531 0.0055
vn -0.8649 0.5014 0.0242
vn -0.7418 0.6684 -0.0555
vn -0.6408 0.7647 0.0682
vn -0.6411 0.7651 -0.0604
vn -0.5392 0.8390 0.0727
vn -0.3944 0.9185 -0.0279
vn -0.5136 0.8577 -0.0234
vn -0.3887 0.9209 0.0278
vn -0.5392 0.8390 -0.0728
vn -0.4286 0.9009 0.0687
vn -0.2442 0.9681 -0.0557
vn -0.2435 0.9653 0.0943
vn -0.2992 0.9540 0.0190
vn -0.2103 0.9769 -0.0388
vn -0.1802 0.9836 0.0023
vn -0.7419 0.6685 0.0519
vn -0.5137 0.8579 0.0081
vn -0.6961 0.7179 -0.0106
vn -0.8925 0.4427 -0.0868
vn -0.6957 0.7175 0.0351
vn -0.8951 0.4440 -0.0409
vn -0.9064 0.3957 -0.1481
vn -0.9467 0.3197 0.0391
vn -0.9883 0.1518 -0.0114
vn -0.9467 0.3197 -0.0401
vn -0.9622 0.2722 -0.0119
vn -0.4286 0.9008 -0.0690
vn -0.6374 0.7667 0.0764
vn -0.1893 0.9817 0.0189
vn -0.1484 0.9877 0.0495
vn -0.3544 -0.9348 -0.0223
vn -0.9616 -0.2529 0.1070
vn -0.9286 -0.3703 -0.0246
vn -0.8873 -0.4492 0.1043
vn -0.8411 -0.5397 -0.0345
vn -0.8355 -0.5490 -0.0246
vn -0.9520 -0.2949 0.0818
vn 0.2520 -0.9677 -0.0071
vn 0.2819 -0.9594 0.0088
vn 0.1537 -0.9881 -0.0081
vn 0.1348 -0.9908 0.0076
usemtl Default_OBJ.319
s 1
f 1//1 2//1 3//1
f 1//2 3//2 4//2
f 4//3 5//3 1//3
f 6//4 2//5 1//6
f 1//6 7//7 6//4
f 1//8 5//8 8//8
f 8//9 7//9 1//9
f 9//10 7//10 8//10
f 9//11 10//11 7//11
f 7//12 10//12 11//12
f 6//13 7//14 11//15
f 11//15 12//16 2//17
f 11//15 2//17 6//13
f 11//18 10//19 13//20
f 13//20 12//21 11//18
f 14//22 12//23 13//24
f 15//25 16//26 12//16
f 15//27 12//23 14//22
f 12//16 16//26 2//17
f 13//28 17//29 14//30
f 17//29 18//31 14//30
f 14//22 18//32 15//27
f 19//33 18//34 20//35
f 15//27 18//32 19//36
f 20//35 18//34 17//37
f 20//38 21//38 22//38
f 17//39 21//39 20//39
f 22//40 23//40 20//40
f 20//41 23//41 19//41
f 23//42 24//42 25//42
f 26//43 23//43 25//43
f 22//44 24//44 23//44
f 19//45 23//45 26//45
f 27//46 19//46 26//46
f 25//47 28//47 26//47
f 26//48 28//48 29//48
f 26//49 29//49 27//49
f 27//50 30//50 31//50
f 31//51 32//51 27//51
f 32//52 33//52 27//52
f 27//53 33//54 19//55
f 29//56 30//57 27//58
f 30//59 34//59 31//59
f 29//56 34//60 30//57
f 34//61 35//61 36//61
f 37//62 34//62 36//62
f 31//63 34//63 37//63
f 29//64 35//64 34//64
f 35//65 38//66 39//67
f 36//68 35//68 39//68
f 40//69 38//69 35//69
f 40//70 35//70 29//70
f 40//71 28//71 41//71
f 29//72 28//72 40//72
f 41//73 42//73 40//73
f 42//74 38//75 40//76
f 43//77 38//75 42//74
f 43//78 42//78 44//78
f 44//79 42//79 45//79
f 45//80 42//80 41//80
f 45//81 46//81 44//81
f 45//82 47//82 46//82
f 48//83 47//83 45//83
f 41//84 49//84 45//84
f 45//85 49//85 48//85
f 49//86 50//86 48//86
f 48//87 51//87 52//87
f 53//88 51//88 48//88
f 50//89 53//89 48//89
f 48//90 52//90 47//90
f 47//91 52//91 54//91
f 54//92 52//92 55//92
f 52//93 51//93 56//93
f 52//94 56//94 55//94
f 56//95 57//95 58//95
f 55//96 56//96 58//96
f 56//97 51//97 59//97
f 59//98 57//98 56//98
f 57//99 60//99 58//99
f 61//100 57//101 59//102
f 61//103 62//103 57//103
f 62//104 63//104 57//104
f 63//105 60//105 57//105
f 58//106 60//106 64//106
f 64//107 60//107 65//107
f 65//108 60//108 66//108
f 66//109 60//109 63//109
f 66//110 67//110 65//110
f 68//111 69//112 66//113
f 68//114 66//114 62//114
f 66//115 63//115 62//115
f 66//113 69//112 67//116
f 70//117 69//117 71//117
f 71//118 69//119 68//120
f 67//121 69//121 70//121
f 72//122 67//122 70//122
f 72//123 70//123 73//123
f 70//124 74//124 73//124
f 71//125 74//125 70//125
f 71//126 75//127 74//128
f 74//128 75//127 76//129
f 73//130 74//130 76//130
f 73//131 76//131 77//131
f 76//131 78//131 77//131
f 76//132 75//132 78//132
f 78//131 79//131 77//131
f 79//133 80//133 77//133
f 77//134 80//134 81//134
f 77//135 81//135 82//135
f 73//131 77//131 82//131
f 83//136 80//136 79//136
f 84//137 80//137 83//137
f 81//134 80//134 84//134
f 85//138 83//139 86//140
f 86//141 83//141 87//141
f 87//142 83//142 88//142
f 88//143 83//143 79//143
f 84//144 83//144 85//144
f 86//145 87//145 89//145
f 89//146 87//146 90//146
f 90//147 87//147 91//147
f 91//148 87//148 88//148
f 89//149 92//149 86//149
f 93//150 92//150 89//150
f 89//151 90//151 93//151
f 94//152 93//152 95//152
f 94//153 92//153 93//153
f 95//154 93//154 96//154
f 93//155 90//155 96//155
f 97//156 98//157 95//158
f 97//156 95//158 99//159
f 95//160 98//160 100//160
f 95//161 101//161 94//161
f 99//162 95//162 96//162
f 100//163 101//163 95//163
f 102//162 99//162 96//162
f 102//164 103//164 99//164
f 99//165 103//165 104//165
f 104//166 105//166 99//166
f 99//167 105//167 106//167
f 106//168 107//168 99//168
f 99//159 107//169 97//156
f 97//170 107//170 108//170
f 108//171 107//171 109//171
f 107//172 110//172 109//172
f 106//173 110//173 107//173
f 110//174 111//174 112//174
f 109//175 110//175 112//175
f 113//176 111//176 110//176
f 114//177 110//178 106//179
f 113//180 110//180 114//180
f 115//181 116//181 113//181
f 114//182 115//182 113//182
f 117//183 111//183 113//183
f 113//184 116//184 117//184
f 118//185 119//185 116//185
f 116//186 119//186 117//186
f 118//187 116//187 120//187
f 120//188 116//188 115//188
f 120//189 121//189 122//189
f 122//190 118//190 120//190
f 120//191 115//191 123//191
f 123//192 121//192 120//192
f 124//193 121//193 125//193
f 122//194 121//194 124//194
f 125//195 121//195 123//195
f 124//196 125//196 104//196
f 104//197 125//197 105//197
f 105//198 125//198 123//198
f 126//199 127//199 124//199
f 104//200 126//200 124//200
f 124//201 127//201 122//201
f 128//202 127//203 129//204
f 128//205 130//205 127//205
f 127//206 130//206 122//206
f 129//207 127//207 126//207
f 131//208 132//208 129//208
f 133//209 131//209 129//209
f 132//210 128//202 129//204
f 129//211 126//211 133//211
f 132//212 134//212 135//212
f 136//213 134//213 132//213
f 136//214 132//214 137//214
f 135//215 128//215 132//215
f 137//216 132//216 131//216
f 138//217 139//217 137//217
f 140//217 138//217 137//217
f 137//217 139//217 136//217
f 137//218 131//218 140//218
f 102//217 138//217 140//217
f 140//219 131//219 141//219
f 140//220 141//220 102//220
f 102//221 141//221 103//221
f 103//222 141//222 133//222
f 141//223 131//223 133//223
f 138//224 142//224 139//224
f 139//217 143//217 136//217
f 139//225 144//225 143//225
f 139//226 142//226 144//226
f 144//227 145//227 146//227
f 144//228 142//228 145//228
f 144//229 147//229 143//229
f 146//230 147//230 144//230
f 146//231 148//231 149//231
f 146//232 149//232 150//232
f 145//233 148//233 146//233
f 150//234 147//234 146//234
f 151//128 147//235 150//236
f 152//237 151//238 150//239
f 150//239 153//240 152//237
f 150//239 154//241 155//242
f 155//242 153//240 150//239
f 150//243 149//244 154//245
f 155//242 154//241 156//246
f 154//245 149//244 157//247
f 156//246 154//241 158//248
f 158//249 154//245 157//247
f 159//250 155//251 156//252
f 158//248 160//253 156//246
f 156//252 160//254 159//250
f 160//255 161//256 162//257
f 159//258 160//258 162//258
f 160//253 163//259 161//260
f 158//248 163//259 160//253
f 162//257 161//256 164//261
f 161//256 165//262 164//261
f 166//263 165//264 161//260
f 161//260 163//259 166//263
f 166//265 167//265 168//265
f 168//266 165//264 166//263
f 169//267 167//267 166//267
f 170//268 169//269 166//270
f 166//270 163//271 170//268
f 170//272 171//272 172//272
f 172//273 173//273 170//273
f 158//274 171//274 170//274
f 173//275 169//275 170//275
f 170//268 163//271 158//276
f 172//277 174//277 173//277
f 175//278 169//278 173//278
f 175//279 173//279 176//279
f 173//280 174//280 176//280
f 177//281 174//281 172//281
f 177//282 178//282 174//282
f 174//283 178//283 179//283
f 176//284 174//284 179//284
f 178//285 180//285 179//285
f 181//286 180//286 178//286
f 182//287 178//288 177//289
f 181//290 178//290 182//290
f 183//291 181//291 184//291
f 181//292 185//292 184//292
f 102//293 181//293 183//293
f 182//294 185//294 181//294
f 186//291 180//291 181//291
f 181//291 187//291 186//291
f 102//293 187//293 181//293
f 187//291 188//291 186//291
f 189//295 190//295 187//295
f 187//296 190//296 188//296
f 187//297 191//297 189//297
f 187//286 192//286 191//286
f 193//291 192//291 187//291
f 96//293 193//293 187//293
f 96//293 187//293 102//293
f 186//298 188//298 194//298
f 194//298 188//298 195//298
f 188//299 190//299 196//299
f 197//300 188//300 196//300
f 195//301 188//301 197//301
f 198//302 197//302 196//302
f 199//303 197//303 198//303
f 195//304 197//304 199//304
f 200//305 199//306 201//307
f 195//308 199//308 200//308
f 199//306 198//309 201//307
f 202//310 200//310 201//310
f 202//311 201//311 203//311
f 204//312 201//312 205//312
f 201//313 198//313 205//313
f 203//314 201//314 204//314
f 203//315 204//316 206//317
f 204//318 207//319 206//320
f 204//318 208//321 207//319
f 205//322 208//322 204//322
f 208//323 209//323 210//323
f 207//319 208//321 210//324
f 205//325 211//325 208//325
f 211//326 209//326 208//326
f 212//327 209//327 211//327
f 212//328 213//328 209//328
f 209//329 213//329 214//329
f 210//330 209//330 214//330
f 211//331 215//331 212//331
f 216//332 213//332 212//332
f 212//333 217//333 216//333
f 215//334 217//334 212//334
f 216//335 217//335 218//335
f 217//336 219//336 220//336
f 218//337 217//337 220//337
f 215//338 219//338 217//338
f 218//339 221//340 216//341
f 222//342 223//342 218//342
f 218//339 223//343 221//340
f 220//344 222//344 218//344
f 216//345 221//346 224//347
f 224//348 221//348 225//348
f 221//349 223//349 225//349
f 225//350 226//351 224//352
f 227//353 228//354 225//355
f 225//355 223//356 227//353
f 225//350 228//357 229//358
f 225//350 229//358 226//351
f 230//359 229//360 231//361
f 226//362 229//360 230//359
f 229//358 228//357 232//363
f 229//360 232//364 231//361
f 233//365 231//365 234//365
f 234//366 231//367 61//368
f 61//368 231//367 235//369
f 230//370 231//370 233//370
f 231//371 232//371 235//371
f 236//372 233//373 237//374
f 233//373 238//375 237//374
f 239//376 230//376 233//376
f 236//377 239//377 233//377
f 233//378 234//378 238//378
f 238//379 234//379 59//379
f 59//380 51//380 238//380
f 238//381 51//381 53//381
f 237//382 238//382 240//382
f 240//383 238//383 53//383
f 240//384 53//384 241//384
f 241//385 242//385 240//385
f 240//386 242//387 237//388
f 243//389 242//389 241//389
f 244//390 242//390 245//390
f 245//391 242//391 243//391
f 237//388 242//387 236//392
f 236//393 242//393 244//393
f 245//394 243//394 246//394
f 246//395 243//395 247//395
f 247//396 243//396 248//396
f 248//397 243//397 241//397
f 249//398 250//398 246//398
f 251//399 249//399 246//399
f 246//400 247//400 251//400
f 246//401 250//401 245//401
f 244//402 250//402 252//402
f 252//403 250//403 253//403
f 253//404 250//404 249//404
f 245//405 250//405 244//405
f 253//406 249//406 254//406
f 254//407 255//407 253//407
f 255//408 256//408 253//408
f 253//409 256//409 252//409
f 257//410 258//410 256//410
f 257//411 256//411 259//411
f 259//412 256//412 255//412
f 252//413 256//413 260//413
f 256//414 258//414 260//414
f 260//415 258//415 261//415
f 262//416 263//416 258//416
f 258//417 263//417 261//417
f 262//418 258//418 257//418
f 264//419 265//419 262//419
f 257//420 264//420 262//420
f 266//421 263//421 262//421
f 262//422 265//422 266//422
f 267//423 268//423 266//423
f 266//424 265//424 267//424
f 268//425 263//425 266//425
f 269//426 270//426 268//426
f 267//427 269//427 268//427
f 261//428 263//428 268//428
f 268//429 270//429 261//429
f 261//430 270//430 271//430
f 272//431 270//431 269//431
f 272//432 273//432 270//432
f 270//433 273//433 271//433
f 224//434 273//434 274//434
f 274//435 273//435 272//435
f 275//436 273//437 224//352
f 271//438 273//438 275//438
f 275//439 226//440 276//441
f 276//441 271//442 275//439
f 224//352 226//351 275//436
f 276//443 230//444 239//445
f 276//443 239//445 277//446
f 276//447 226//447 230//447
f 277//446 271//448 276//443
f 278//449 271//449 277//449
f 277//450 239//451 236//452
f 236//452 278//453 277//450
f 261//454 278//454 260//454
f 260//455 278//455 244//455
f 261//456 271//456 278//456
f 244//457 278//457 236//457
f 274//458 216//345 224//347
f 272//459 213//459 274//459
f 274//458 213//460 216//345
f 214//461 213//461 272//461
f 272//462 269//462 214//462
f 214//463 269//463 279//463
f 279//464 269//464 267//464
f 210//465 279//466 280//467
f 280//468 279//468 267//468
f 210//469 214//469 279//469
f 281//470 280//470 282//470
f 283//471 280//471 281//471
f 280//467 207//472 210//465
f 282//473 280//473 267//473
f 283//472 207//472 280//467
f 281//474 282//474 284//474
f 282//475 285//475 284//475
f 282//476 265//476 286//476
f 286//477 285//477 282//477
f 267//478 265//478 282//478
f 284//479 285//479 287//479
f 287//480 285//480 288//480
f 288//481 285//481 286//481
f 289//482 290//482 287//482
f 291//483 289//483 287//483
f 287//484 288//484 291//484
f 287//485 290//485 284//485
f 284//486 290//486 292//486
f 292//487 290//487 293//487
f 293//488 290//488 289//488
f 293//489 294//489 292//489
f 295//490 296//490 292//490
f 292//491 294//491 295//491
f 292//492 296//492 281//492
f 284//493 292//493 281//493
f 295//494 297//494 296//494
f 296//495 297//496 298//497
f 281//498 296//498 283//498
f 298//497 299//499 296//495
f 296//495 299//499 283//499
f 206//320 299//500 300//501
f 300//501 299//500 301//502
f 301//502 299//500 298//503
f 283//504 299//500 206//320
f 301//505 302//505 303//505
f 304//506 301//506 303//506
f 300//507 301//507 304//507
f 298//508 302//508 301//508
f 303//509 302//509 305//509
f 305//510 302//510 306//510
f 306//511 302//511 307//511
f 307//512 302//512 298//512
f 297//513 308//513 307//513
f 298//514 297//514 307//514
f 309//515 306//515 307//515
f 307//516 308//516 309//516
f 309//517 308//517 310//517
f 311//518 308//518 295//518
f 310//519 308//519 311//519
f 295//520 308//520 297//520
f 309//521 310//521 312//521
f 313//522 310//522 311//522
f 314//523 310//523 313//523
f 312//524 310//524 314//524
f 315//525 314//526 316//527
f 316//528 314//529 317//530
f 315//531 312//531 314//531
f 317//532 314//532 318//532
f 318//533 314//533 313//533
f 319//534 318//534 320//534
f 321//535 318//535 319//535
f 317//536 318//537 321//538
f 320//539 318//539 313//539
f 319//540 320//540 322//540
f 320//541 323//541 324//541
f 320//542 324//542 322//542
f 313//543 323//543 320//543
f 323//544 325//544 326//544
f 313//545 325//545 323//545
f 327//546 323//546 326//546
f 324//547 323//547 327//547
f 327//548 328//548 329//548
f 327//549 329//549 330//549
f 331//550 324//550 327//550
f 327//551 330//551 331//551
f 326//552 328//552 327//552
f 332//553 333//553 331//553
f 331//554 334//554 332//554
f 333//555 324//555 331//555
f 335//556 334//556 331//556
f 331//557 330//557 335//557
f 336//558 335//558 337//558
f 338//559 335//559 336//559
f 335//560 330//560 337//560
f 338//561 334//561 335//561
f 339//562 338//562 336//562
f 340//563 338//563 341//563
f 341//564 338//564 339//564
f 340//565 334//565 338//565
f 339//566 342//566 343//566
f 343//567 341//567 339//567
f 336//568 344//568 339//568
f 339//569 344//569 342//569
f 342//570 344//570 345//570
f 344//571 346//571 345//571
f 336//572 346//572 344//572
f 345//573 346//573 291//573
f 337//574 346//574 336//574
f 346//575 347//575 291//575
f 337//576 347//576 346//576
f 348//577 347//577 337//577
f 348//578 289//578 347//578
f 347//579 289//579 291//579
f 337//580 330//580 348//580
f 330//581 329//581 348//581
f 349//582 289//582 348//582
f 348//583 329//583 349//583
f 329//584 328//584 349//584
f 293//585 289//585 349//585
f 349//586 328//586 293//586
f 350//587 342//587 345//587
f 345//588 351//588 350//588
f 291//589 352//589 345//589
f 345//590 352//590 353//590
f 345//591 353//591 351//591
f 354//592 355//593 351//594
f 354//595 351//595 356//595
f 351//594 355//593 350//596
f 351//597 353//597 356//597
f 356//598 357//598 358//598
f 356//599 358//599 354//599
f 356//600 353//600 359//600
f 359//601 357//601 356//601
f 360//602 361//602 357//602
f 359//603 360//603 357//603
f 357//604 361//604 362//604
f 358//605 357//605 362//605
f 362//606 17//606 13//606
f 13//607 358//607 362//607
f 362//608 21//608 17//608
f 362//609 361//609 21//609
f 259//610 361//610 360//610
f 363//611 361//611 259//611
f 21//612 361//612 363//612
f 363//613 255//613 254//613
f 22//614 363//614 254//614
f 259//615 255//615 363//615
f 21//616 363//616 22//616
f 364//617 365//617 360//617
f 364//618 360//618 359//618
f 360//619 365//619 259//619
f 365//620 366//620 257//620
f 259//621 365//621 257//621
f 367//622 366//622 365//622
f 367//623 365//623 364//623
f 364//624 368//624 367//624
f 368//625 288//625 367//625
f 369//626 366//626 367//626
f 367//627 288//627 369//627
f 369//628 288//628 286//628
f 286//629 264//629 369//629
f 369//630 264//630 366//630
f 291//631 368//631 352//631
f 352//632 368//632 364//632
f 291//633 288//633 368//633
f 366//634 264//634 257//634
f 359//635 352//635 364//635
f 353//636 352//636 359//636
f 13//637 370//637 358//637
f 358//638 370//638 354//638
f 13//639 10//639 370//639
f 370//640 10//640 371//640
f 354//641 370//641 371//641
f 371//642 372//642 354//642
f 373//643 372//643 371//643
f 371//644 10//644 9//644
f 371//645 9//645 374//645
f 371//646 374//646 373//646
f 374//647 375//647 373//647
f 376//648 375//648 374//648
f 374//649 8//649 376//649
f 374//650 9//650 8//650
f 377//651 375//652 376//653
f 378//654 377//654 376//654
f 376//655 379//655 378//655
f 376//656 380//656 379//656
f 376//657 5//658 380//659
f 8//660 5//660 376//660
f 379//661 380//661 381//661
f 381//662 380//662 4//662
f 380//659 5//658 4//663
f 379//664 381//664 382//664
f 383//665 381//665 4//665
f 384//666 381//666 383//666
f 382//667 381//667 384//667
f 385//668 384//668 383//668
f 386//669 384//669 385//669
f 382//670 384//670 386//670
f 97//671 387//671 386//671
f 386//672 387//672 382//672
f 385//673 388//673 386//673
f 386//674 388//674 389//674
f 389//675 98//675 386//675
f 386//676 98//676 97//676
f 390//677 391//677 389//677
f 389//678 388//678 390//678
f 389//679 391//679 98//679
f 390//680 392//680 391//680
f 98//681 391//681 100//681
f 100//682 391//683 393//684
f 393//685 391//685 394//685
f 391//686 392//686 394//686
f 394//687 392//687 395//687
f 392//688 396//688 395//688
f 397//689 392//689 390//689
f 397//690 396//690 392//690
f 398//691 396//692 397//693
f 398//694 399//694 396//694
f 395//695 396//696 400//697
f 399//698 401//698 396//698
f 396//699 401//699 400//699
f 400//700 402//700 31//700
f 31//701 37//701 400//701
f 401//702 402//702 400//702
f 400//697 403//703 395//695
f 37//704 403//704 400//704
f 395//705 403//705 404//705
f 404//706 403//706 405//706
f 406//707 403//707 37//707
f 405//708 403//708 406//708
f 407//709 405//709 408//709
f 407//710 404//710 405//710
f 405//711 409//711 408//711
f 406//712 409//712 405//712
f 408//713 409//713 410//713
f 406//714 411//714 409//714
f 410//715 409//715 412//715
f 409//716 413//716 412//716
f 411//717 413//717 409//717
f 36//718 413//718 411//718
f 36//719 411//719 406//719
f 39//720 414//720 413//720
f 39//721 413//721 36//721
f 413//722 414//722 412//722
f 412//723 414//723 415//723
f 415//724 414//724 39//724
f 415//725 416//725 412//725
f 43//726 417//726 415//726
f 415//727 417//727 416//727
f 415//728 39//728 43//728
f 412//729 416//729 418//729
f 416//730 419//730 418//730
f 416//731 417//731 420//731
f 420//732 419//732 416//732
f 420//733 421//733 419//733
f 420//734 422//735 421//736
f 420//737 423//737 424//737
f 417//738 423//739 420//740
f 425//741 422//741 420//741
f 424//742 425//742 420//742
f 424//743 426//743 425//743
f 427//744 422//744 425//744
f 427//745 425//745 428//745
f 425//746 426//746 428//746
f 428//747 426//747 429//747
f 430//131 72//131 428//131
f 430//131 428//131 429//131
f 72//131 427//131 428//131
f 426//748 431//748 429//748
f 429//749 431//749 432//749
f 433//131 429//131 432//131
f 430//131 429//131 433//131
f 432//750 434//750 433//750
f 434//751 435//751 433//751
f 435//752 64//752 433//752
f 433//753 64//753 430//753
f 58//754 64//754 435//754
f 58//755 435//755 55//755
f 55//756 435//756 434//756
f 436//757 434//757 432//757
f 55//758 434//758 54//758
f 54//759 434//759 436//759
f 431//760 436//760 432//760
f 437//761 436//761 431//761
f 54//762 436//762 437//762
f 437//763 431//763 438//763
f 438//764 46//764 437//764
f 46//765 47//765 437//765
f 437//766 47//766 54//766
f 439//767 46//767 438//767
f 438//768 424//768 439//768
f 438//769 426//769 424//769
f 438//770 431//770 426//770
f 439//771 423//771 43//771
f 44//772 439//772 43//772
f 424//773 423//773 439//773
f 44//774 46//774 439//774
f 430//775 67//775 72//775
f 65//776 67//776 430//776
f 64//777 65//777 430//777
f 73//131 82//131 427//131
f 82//778 422//778 427//778
f 72//131 73//131 427//131
f 421//736 422//735 82//779
f 43//780 423//739 417//738
f 81//781 421//781 82//781
f 419//782 421//782 81//782
f 419//783 81//783 84//783
f 418//784 419//784 84//784
f 412//785 418//785 410//785
f 84//786 440//786 418//786
f 418//787 440//787 410//787
f 85//788 440//788 84//788
f 410//789 440//789 408//789
f 408//790 440//790 441//790
f 441//791 440//791 85//791
f 441//792 85//138 86//140
f 92//793 441//793 86//793
f 408//794 441//794 442//794
f 442//795 441//795 92//795
f 443//796 444//796 442//796
f 94//797 443//797 442//797
f 442//798 92//798 94//798
f 442//799 444//799 408//799
f 407//800 444//800 445//800
f 445//801 444//801 443//801
f 408//802 444//802 407//802
f 445//803 446//803 407//803
f 445//804 443//804 101//804
f 101//805 446//805 445//805
f 393//684 446//806 100//682
f 100//807 446//807 101//807
f 394//808 404//808 446//808
f 394//809 446//809 393//809
f 446//810 404//810 407//810
f 101//811 443//811 94//811
f 36//812 406//812 37//812
f 395//813 404//813 394//813
f 31//814 402//814 32//814
f 32//815 402//815 401//815
f 32//816 401//816 447//816
f 447//817 401//817 399//817
f 447//818 399//818 398//818
f 2//819 16//820 447//821
f 447//821 16//820 32//822
f 3//823 2//823 447//823
f 447//824 398//824 3//824
f 3//825 398//691 397//693
f 390//826 448//826 397//826
f 448//827 449//828 397//829
f 397//693 449//830 3//825
f 388//831 448//831 390//831
f 383//832 449//828 448//827
f 385//833 448//833 388//833
f 383//834 448//834 385//834
f 3//835 449//835 4//835
f 4//836 449//836 383//836
f 387//837 450//837 382//837
f 451//838 450//838 387//838
f 451//839 387//839 97//839
f 97//840 452//840 451//840
f 452//841 453//841 451//841
f 451//842 453//842 454//842
f 454//843 450//843 451//843
f 455//844 378//844 454//844
f 454//845 378//845 450//845
f 453//846 456//846 454//846
f 454//847 456//847 455//847
f 457//848 377//848 455//848
f 456//849 457//849 455//849
f 455//850 377//850 378//850
f 458//851 457//852 459//853
f 459//854 457//854 456//854
f 460//855 457//852 458//851
f 460//855 377//651 457//852
f 460//856 458//856 461//856
f 460//857 461//857 462//857
f 460//855 375//652 377//651
f 462//858 373//858 460//858
f 373//859 375//859 460//859
f 461//860 463//860 462//860
f 463//861 464//861 462//861
f 462//862 464//862 373//862
f 464//863 372//863 373//863
f 465//864 372//865 464//866
f 465//864 464//866 463//867
f 350//868 355//868 465//868
f 465//869 466//869 350//869
f 465//870 467//870 466//870
f 463//867 467//871 465//864
f 355//872 372//872 465//872
f 466//873 467//873 343//873
f 342//874 466//875 343//876
f 350//877 466//875 342//874
f 343//878 467//878 468//878
f 468//879 467//879 461//879
f 461//880 467//880 463//880
f 469//881 470//881 468//881
f 471//882 469//882 468//882
f 468//883 461//883 471//883
f 468//884 470//884 472//884
f 468//885 472//885 343//885
f 473//886 471//886 459//886
f 471//887 458//887 459//887
f 473//888 469//888 471//888
f 461//889 458//889 471//889
f 459//890 474//890 473//890
f 473//891 474//891 475//891
f 475//892 476//892 473//892
f 476//893 469//893 473//893
f 476//894 470//894 469//894
f 477//895 476//896 475//897
f 478//898 476//899 477//900
f 478//901 470//901 476//901
f 479//902 480//903 478//898
f 478//904 480//905 481//906
f 481//906 470//907 478//904
f 477//900 479//902 478//898
f 482//908 479//908 483//908
f 483//909 479//909 475//909
f 482//910 484//911 479//912
f 484//913 480//903 479//902
f 475//897 479//914 477//895
f 485//915 484//913 486//916
f 486//917 484//917 487//917
f 487//918 484//911 482//910
f 485//915 480//903 484//913
f 488//919 487//919 489//919
f 487//920 490//920 489//920
f 487//921 491//921 490//921
f 482//922 491//922 487//922
f 488//923 486//923 487//923
f 489//924 492//924 488//924
f 488//925 492//926 493//927
f 494//928 486//929 488//930
f 495//931 494//931 488//931
f 488//932 493//932 495//932
f 496//933 497//933 493//933
f 493//934 498//934 496//934
f 493//935 499//935 498//935
f 493//927 492//926 499//936
f 493//937 497//937 495//937
f 500//938 497//938 501//938
f 501//939 497//939 502//939
f 495//940 497//940 500//940
f 502//941 497//941 496//941
f 502//942 496//942 503//942
f 504//943 505//943 502//943
f 502//944 503//944 504//944
f 502//945 505//945 501//945
f 505//946 506//946 507//946
f 504//947 506//947 505//947
f 505//948 507//948 508//948
f 501//949 505//949 508//949
f 508//950 509//950 501//950
f 510//951 511//951 508//951
f 508//952 507//952 510//952
f 508//953 511//953 509//953
f 512//954 511//954 510//954
f 512//955 513//955 511//955
f 509//956 511//956 514//956
f 511//957 513//958 515//959
f 514//960 511//960 515//960
f 516//961 509//961 514//961
f 514//962 517//962 516//962
f 515//963 518//963 514//963
f 514//404 518//404 517//404
f 322//964 518//964 319//964
f 319//965 518//965 515//965
f 519//966 518//966 322//966
f 517//398 518//398 519//398
f 322//967 324//967 519//967
f 520//968 517//968 519//968
f 519//969 324//969 333//969
f 519//970 333//970 520//970
f 520//971 332//971 521//971
f 521//972 522//972 520//972
f 520//973 333//973 332//973
f 522//974 517//974 520//974
f 500//975 522//975 523//975
f 523//976 522//976 521//976
f 516//977 522//977 500//977
f 516//978 517//978 522//978
f 524//979 523//979 521//979
f 494//980 523//980 524//980
f 495//981 523//981 494//981
f 500//982 523//982 495//982
f 521//983 525//983 524//983
f 524//984 525//984 526//984
f 524//985 527//986 494//987
f 526//988 527//986 524//985
f 528//989 527//990 526//991
f 528//989 526//991 481//992
f 481//993 526//993 340//993
f 526//994 525//994 340//994
f 528//995 480//996 485//997
f 485//997 527//998 528//995
f 481//999 480//996 528//995
f 494//1000 527//998 485//997
f 525//1001 334//1001 340//1001
f 332//1002 334//1002 525//1002
f 521//1003 332//1003 525//1003
f 500//1004 509//1004 516//1004
f 515//959 513//958 319//1005
f 319//1006 513//1006 321//1006
f 529//1007 530//1007 513//1007
f 529//1008 513//1008 512//1008
f 513//1009 530//1009 321//1009
f 530//1010 164//1011 316//528
f 529//1012 164//1012 530//1012
f 321//538 530//1013 317//536
f 317//530 530//1010 316//528
f 162//1014 164//1014 529//1014
f 531//1015 532//1015 529//1015
f 512//1016 531//1016 529//1016
f 532//1017 162//1017 529//1017
f 533//1018 532//1018 531//1018
f 533//1019 162//1020 532//1021
f 534//1022 535//1023 533//1024
f 535//1025 536//1025 533//1025
f 533//1026 531//1026 537//1026
f 159//1027 162//1020 533//1019
f 533//1028 536//1028 159//1028
f 537//1029 534//1029 533//1029
f 538//1030 534//1030 539//1030
f 538//1031 540//1032 534//1033
f 534//1022 540//1034 535//1023
f 539//1035 534//1035 537//1035
f 541//1036 539//1036 542//1036
f 542//1037 539//1037 543//1037
f 544//1038 539//1038 537//1038
f 538//1039 539//1040 541//1041
f 543//1042 539//1042 544//1042
f 542//1043 543//1043 545//1043
f 545//1044 543//1044 546//1044
f 546//1045 543//1045 544//1045
f 544//1046 506//1046 546//1046
f 546//1047 506//1047 547//1047
f 548//1048 546//1048 547//1048
f 545//1049 546//1049 548//1049
f 548//1050 547//1050 549//1050
f 549//1051 550//1051 548//1051
f 550//1052 551//1052 548//1052
f 548//1053 551//1054 545//1055
f 552//1056 553//1056 551//1056
f 552//1057 551//1057 550//1057
f 551//1054 553//1058 545//1055
f 553//1059 554//1059 545//1059
f 552//1060 554//1060 553//1060
f 545//1061 554//1061 542//1061
f 555//1062 554//1062 552//1062
f 555//1063 556//1063 554//1063
f 554//1064 556//1065 542//1066
f 542//1066 556//1065 541//1067
f 557//1068 558//1068 556//1068
f 556//1069 558//1069 538//1069
f 557//1070 556//1070 555//1070
f 541//1041 556//1071 538//1039
f 559//1072 558//1072 557//1072
f 559//217 557//217 560//217
f 561//217 557//217 555//217
f 560//217 557//217 561//217
f 560//743 562//743 563//743
f 560//1073 563//1073 564//1073
f 564//217 559//217 560//217
f 561//1074 562//1074 560//1074
f 549//1075 565//1075 562//1075
f 562//746 565//746 563//746
f 561//1076 550//1076 562//1076
f 562//1077 550//1077 549//1077
f 549//1078 566//1078 565//1078
f 563//1079 565//1079 567//1079
f 565//1080 568//1080 567//1080
f 566//1081 568//1081 565//1081
f 568//1082 569//1083 567//1084
f 570//1085 568//1085 566//1085
f 570//1086 569//1083 568//1082
f 571//1087 569//1087 570//1087
f 572//1088 569//1088 571//1088
f 567//1089 569//1089 572//1089
f 573//1090 572//1090 571//1090
f 567//1091 572//1091 574//1091
f 575//1092 572//1092 573//1092
f 574//1093 572//1093 575//1093
f 574//1094 575//1094 135//1094
f 575//1095 130//1095 135//1095
f 576//1096 130//1096 575//1096
f 576//1097 575//1097 573//1097
f 122//1098 130//1098 576//1098
f 576//1099 577//1099 122//1099
f 573//1100 577//1100 576//1100
f 578//1101 579//1101 577//1101
f 573//1102 578//1102 577//1102
f 577//1103 579//1103 580//1103
f 577//1104 580//1104 118//1104
f 122//1105 577//1105 118//1105
f 581//1106 582//1106 580//1106
f 580//1107 579//1107 581//1107
f 582//1108 119//1108 580//1108
f 580//1109 119//1109 118//1109
f 581//1110 499//1110 582//1110
f 583//1111 582//1111 489//1111
f 583//1112 119//1112 582//1112
f 582//1113 499//1113 489//1113
f 583//1114 584//1115 117//1116
f 117//1116 119//1117 583//1114
f 489//1118 490//1118 583//1118
f 490//1119 491//1119 583//1119
f 583//1120 491//1120 584//1120
f 117//1121 584//1121 111//1121
f 491//1122 585//1122 584//1122
f 584//1123 585//1123 586//1123
f 584//1124 586//1125 587//1126
f 111//1127 584//1127 587//1127
f 586//1125 483//1128 587//1126
f 587//1129 588//1129 112//1129
f 587//1130 589//1131 588//1132
f 483//1128 589//1133 587//1126
f 112//1134 111//1134 587//1134
f 588//1132 589//1131 590//1135
f 590//1136 589//1136 591//1136
f 591//1137 589//1137 483//1137
f 591//1138 592//1138 590//1138
f 591//1139 483//1139 475//1139
f 591//1140 593//1140 592//1140
f 474//1141 593//1142 591//1143
f 475//1144 474//1144 591//1144
f 594//1145 593//1145 459//1145
f 459//1146 593//1142 474//1141
f 592//1147 593//1147 594//1147
f 459//1148 456//1148 594//1148
f 592//1149 594//1149 595//1149
f 594//1150 453//1150 595//1150
f 594//1151 456//1151 453//1151
f 596//1152 592//1152 595//1152
f 595//1153 452//1153 108//1153
f 108//1154 596//1154 595//1154
f 595//1155 453//1155 452//1155
f 590//1156 592//1156 596//1156
f 597//1157 596//1157 108//1157
f 590//1158 596//1158 597//1158
f 598//1159 588//1159 597//1159
f 108//1160 598//1160 597//1160
f 597//1161 588//1161 590//1161
f 112//1162 588//1162 598//1162
f 112//1163 598//1163 109//1163
f 109//1164 598//1164 108//1164
f 482//1165 483//1165 586//1165
f 586//1166 585//1166 482//1166
f 482//1167 585//1167 491//1167
f 581//1168 579//1168 578//1168
f 581//1169 578//1169 599//1169
f 498//1170 499//1170 581//1170
f 599//1171 498//1171 581//1171
f 570//1172 599//1172 571//1172
f 570//1173 600//1174 599//1175
f 599//1176 601//1176 571//1176
f 599//1177 578//1177 601//1177
f 600//1174 498//1178 599//1175
f 503//1179 600//1180 570//1181
f 496//1182 498//1182 600//1182
f 496//1183 600//1180 503//1179
f 571//1184 601//1184 573//1184
f 601//1185 578//1185 573//1185
f 602//1186 574//1186 135//1186
f 574//1187 603//1187 567//1187
f 602//1188 603//1188 574//1188
f 604//1189 602//1189 605//1189
f 602//1190 134//1190 605//1190
f 135//1190 134//1190 602//1190
f 604//1191 603//1191 602//1191
f 606//1192 603//1193 604//1194
f 564//1195 606//1195 604//1195
f 604//217 607//217 564//217
f 605//217 607//217 604//217
f 608//217 607//217 605//217
f 608//1196 151//1196 607//1196
f 607//1197 151//1197 152//1197
f 607//1198 152//1198 559//1198
f 607//217 559//217 564//217
f 143//217 608//217 605//217
f 608//1199 147//235 151//128
f 143//1200 147//1200 608//1200
f 567//1201 606//1201 563//1201
f 563//1202 606//1202 564//1202
f 567//1203 603//1193 606//1192
f 605//1204 134//1204 136//1204
f 136//217 143//217 605//217
f 609//1205 503//1205 570//1205
f 570//1206 566//1206 609//1206
f 566//1207 547//1207 609//1207
f 609//1208 547//1208 504//1208
f 504//1209 503//1209 609//1209
f 549//1210 547//1210 566//1210
f 561//217 555//217 552//217
f 552//1211 550//1211 561//1211
f 559//1212 610//1213 558//1214
f 152//1215 610//1215 559//1215
f 610//1216 153//1217 611//1218
f 558//1214 610//1213 611//1219
f 152//1220 153//1220 610//1220
f 611//1221 536//1221 535//1221
f 153//1217 536//1222 611//1218
f 611//1223 540//1223 558//1223
f 535//1224 540//1224 611//1224
f 558//1225 540//1032 538//1031
f 547//1226 506//1226 504//1226
f 507//1227 506//1227 544//1227
f 544//1228 612//1228 507//1228
f 537//1229 612//1229 544//1229
f 507//1230 612//1230 510//1230
f 510//1231 612//1231 512//1231
f 612//1232 531//1232 512//1232
f 537//1233 531//1233 612//1233
f 159//250 536//1222 155//251
f 155//251 536//1222 153//1217
f 501//1234 509//1234 500//1234
f 499//1235 492//1235 489//1235
f 485//1236 486//929 494//928
f 472//1237 470//1237 481//1237
f 341//1238 472//1238 481//1238
f 340//1239 341//1239 481//1239
f 343//1240 472//1240 341//1240
f 108//1241 452//1241 97//1241
f 378//1242 379//1242 450//1242
f 450//1243 379//1243 382//1243
f 354//1244 372//1244 355//1244
f 326//1245 294//1245 328//1245
f 328//1246 294//1246 293//1246
f 326//1247 325//1247 613//1247
f 613//1248 294//1248 326//1248
f 613//1249 325//1249 311//1249
f 613//1250 311//1250 295//1250
f 295//1251 294//1251 613//1251
f 311//1252 325//1252 313//1252
f 168//266 312//1253 315//1254
f 315//1254 165//264 168//266
f 316//527 165//1255 315//525
f 164//1256 165//1256 316//1256
f 614//1257 312//1257 168//1257
f 309//1258 312//1258 614//1258
f 168//1259 615//1260 614//1261
f 615//1260 306//1262 614//1261
f 614//1263 306//1263 309//1263
f 168//1259 167//1264 615//1260
f 615//1265 167//1266 175//1267
f 305//1268 306//1268 615//1268
f 175//1269 616//1269 615//1269
f 615//1270 616//1270 305//1270
f 616//1271 617//1271 618//1271
f 616//1272 618//1272 305//1272
f 176//1273 617//1273 616//1273
f 176//1274 616//1274 175//1274
f 619//1275 617//1275 176//1275
f 620//1276 617//1276 619//1276
f 618//1277 617//1277 620//1277
f 620//1278 619//1279 621//1280
f 620//1281 622//1281 618//1281
f 620//1282 623//1282 622//1282
f 621//1280 623//1283 620//1278
f 186//301 623//301 624//301
f 625//300 623//300 186//300
f 622//1284 623//1284 625//1284
f 624//1285 623//1285 621//1285
f 619//1286 180//1287 624//1288
f 621//1289 619//1286 624//1288
f 624//298 180//298 186//298
f 186//299 626//299 625//299
f 304//1290 622//1290 625//1290
f 625//1291 626//1291 627//1291
f 625//1292 627//1292 304//1292
f 304//1293 627//1293 628//1293
f 628//1294 627//1294 629//1294
f 627//1295 626//1295 629//1295
f 629//1296 630//1296 628//1296
f 626//1297 194//1297 629//1297
f 629//1298 194//1298 630//1298
f 630//1299 631//1299 628//1299
f 202//1300 631//1300 630//1300
f 202//1301 630//1301 632//1301
f 630//1302 194//1302 632//1302
f 203//1303 633//1304 631//1305
f 203//1306 631//1306 202//1306
f 631//1305 633//1304 628//1307
f 300//1308 633//1309 206//317
f 628//1310 633//1310 300//1310
f 206//317 633//1309 203//315
f 632//1311 200//1311 202//1311
f 632//1312 194//1312 195//1312
f 195//1313 200//1313 632//1313
f 304//1314 628//1314 300//1314
f 186//1315 194//1315 626//1315
f 303//1316 622//1316 304//1316
f 618//1317 622//1317 303//1317
f 179//1318 180//1318 619//1318
f 179//1319 619//1319 176//1319
f 618//1320 303//1320 305//1320
f 286//1321 265//1321 264//1321
f 206//320 207//319 283//504
f 252//1322 260//1322 244//1322
f 254//1323 249//1323 24//1323
f 254//1324 24//1324 22//1324
f 251//1325 247//1325 25//1325
f 25//1326 24//1326 251//1326
f 24//1327 249//1327 251//1327
f 634//1328 247//1328 248//1328
f 241//1329 50//1329 248//1329
f 248//1330 50//1330 49//1330
f 248//1331 49//1331 634//1331
f 25//1332 247//1332 634//1332
f 634//1333 28//1333 25//1333
f 41//1334 28//1334 634//1334
f 634//1335 49//1335 41//1335
f 241//1336 53//1336 50//1336
f 235//1337 232//1338 635//1339
f 635//1339 636//1340 235//1337
f 235//1341 636//1341 61//1341
f 68//1342 636//1340 635//1339
f 68//1343 62//1343 636//1343
f 636//1344 62//1344 61//1344
f 635//1345 232//363 637//1346
f 635//1347 638//1348 68//1349
f 637//1350 638//1348 635//1347
f 637//1351 228//354 227//353
f 227//1352 639//1352 637//1352
f 232//363 228//357 637//1346
f 637//1353 639//1353 640//1353
f 640//1354 638//1355 637//1356
f 640//1357 639//1357 641//1357
f 640//1358 642//1358 643//1358
f 640//1354 643//1359 638//1355
f 641//1360 642//1360 640//1360
f 641//1361 644//1361 642//1361
f 642//1362 644//1362 643//1362
f 645//1363 644//1363 641//1363
f 646//1364 644//1364 647//1364
f 647//1365 644//1365 645//1365
f 643//1366 644//1366 646//1366
f 648//1367 645//1367 641//1367
f 648//1368 649//1368 645//1368
f 645//1369 649//1369 650//1369
f 650//1370 647//1370 645//1370
f 651//1371 649//1371 648//1371
f 651//1372 652//1372 649//1372
f 649//1373 652//1373 653//1373
f 650//1374 649//1374 653//1374
f 654//1375 652//1375 651//1375
f 193//1376 652//1376 654//1376
f 653//1377 652//1377 193//1377
f 654//1378 655//1378 656//1378
f 656//298 192//298 654//298
f 654//291 192//291 193//291
f 651//1379 655//1379 654//1379
f 657//1380 655//1380 648//1380
f 648//1381 655//1381 651//1381
f 658//1382 655//1382 657//1382
f 656//1383 655//1383 658//1383
f 641//1384 657//1384 648//1384
f 639//1385 657//1385 641//1385
f 658//1386 657//1386 659//1386
f 659//1387 657//1387 639//1387
f 222//1388 660//1388 659//1388
f 227//1389 222//1389 659//1389
f 659//1390 639//1390 227//1390
f 659//1391 660//1391 658//1391
f 658//1392 660//1392 656//1392
f 656//1393 660//1393 661//1393
f 220//1394 660//1394 222//1394
f 661//1395 660//1395 220//1395
f 220//1396 662//1396 661//1396
f 662//1397 191//1397 661//1397
f 191//285 192//285 661//285
f 661//1398 192//1398 656//1398
f 189//1399 191//1399 662//1399
f 189//1400 662//1400 663//1400
f 220//1401 219//1401 662//1401
f 662//1402 219//1402 663//1402
f 664//1403 190//1403 663//1403
f 663//1404 215//1404 664//1404
f 663//1405 219//1405 215//1405
f 663//1406 190//1406 189//1406
f 664//1316 215//1316 211//1316
f 205//1317 664//1317 211//1317
f 196//1407 190//1407 664//1407
f 196//1408 664//1408 205//1408
f 193//1409 665//1409 653//1409
f 653//1410 665//1410 666//1410
f 653//1411 666//1411 650//1411
f 666//1412 665//1412 667//1412
f 667//1413 665//1413 96//1413
f 96//1414 665//1414 193//1414
f 667//1415 668//1415 666//1415
f 669//131 667//131 88//131
f 667//131 91//131 88//131
f 669//1416 668//1416 667//1416
f 667//131 96//131 91//131
f 78//131 669//131 79//131
f 669//131 88//131 79//131
f 670//1417 668//1417 669//1417
f 78//1418 670//1418 669//1418
f 647//1419 668//1419 670//1419
f 647//1420 670//1420 646//1420
f 670//1421 75//1421 646//1421
f 78//1422 75//1422 670//1422
f 666//1423 668//1423 650//1423
f 650//1424 668//1424 647//1424
f 71//1425 643//1425 646//1425
f 646//1426 75//1426 71//1426
f 638//1355 643//1359 71//1427
f 68//120 638//1428 71//118
f 59//102 234//1429 61//100
f 227//1430 223//1430 222//1430
f 205//1431 198//1431 196//1431
f 184//1432 185//1432 671//1432
f 672//1433 185//1433 177//1433
f 673//1434 185//1434 672//1434
f 177//289 185//1435 182//287
f 671//1436 185//1436 673//1436
f 674//1437 675//1437 671//1437
f 671//1438 675//1438 184//1438
f 673//1439 674//1439 671//1439
f 676//1440 675//1440 674//1440
f 676//1441 674//1441 677//1441
f 677//1442 674//1442 678//1442
f 678//1443 674//1443 673//1443
f 679//1444 678//1444 673//1444
f 679//1445 148//1445 678//1445
f 677//1446 678//1446 145//1446
f 678//1447 148//1447 145//1447
f 673//1448 672//1448 679//1448
f 679//1449 672//1449 171//1449
f 679//1450 171//1450 157//1450
f 157//1451 680//1451 679//1451
f 679//1452 680//1452 148//1452
f 148//1453 680//1453 149//1453
f 149//1454 680//1454 157//1454
f 677//1455 681//1455 676//1455
f 145//1456 142//1456 677//1456
f 677//1457 142//1457 681//1457
f 138//1458 682//1458 681//1458
f 681//1459 142//1459 138//1459
f 681//1460 682//1460 676//1460
f 102//1461 682//1461 138//1461
f 676//1462 682//1462 183//1462
f 183//1463 682//1463 102//1463
f 183//1464 675//1464 676//1464
f 184//1465 675//1465 183//1465
f 171//1466 672//1466 172//1466
f 172//1467 672//1467 177//1467
f 175//1267 167//1266 169//1468
f 157//1469 171//1469 158//1469
f 135//1470 130//1470 128//1470
f 133//1471 126//1471 103//1471
f 103//1472 126//1472 104//1472
f 123//1473 115//1473 105//1473
f 106//179 115//1474 114//177
f 105//1475 115//1475 106//1475
f 96//1476 90//1476 91//1476
f 39//67 38//66 43//1477
f 19//55 33//54 15//1478
f 15//25 33//1479 16//26
f 16//1480 33//1480 32//1480
