# Blender v3.0.1 OBJ File: ''
# www.blender.org
mtllib Medium_Long_Star_Purple.mtl
o obj1.041_obj1.005
v 21.960083 5.903592 74.999992
v 20.788666 3.874661 74.999992
v 20.788666 3.874668 -75.000000
v 21.960083 5.903598 -75.000000
v 21.236115 8.131732 -75.000000
v 21.236115 8.131726 74.999992
v 19.095856 9.084622 74.999992
v 6.600342 9.084622 74.999992
v 19.095856 9.084628 -75.000000
v 2.739014 20.968578 75.000008
v -6.600403 9.084622 74.999992
v -10.679657 -3.470035 74.999992
v 6.600342 9.084628 -75.000000
v 10.679596 -3.470035 74.999992
v -0.000031 -11.229236 74.999992
v -14.540985 -15.353976 74.999992
v -10.679657 -3.470028 -75.000000
v -20.788757 3.874668 -75.000000
v -19.095947 9.084622 74.999992
v -20.788757 3.874661 74.999992
v -21.960175 5.903592 74.999992
v -21.236206 8.131726 74.999992
v -19.095947 9.084628 -75.000000
v -6.600403 9.084628 -75.000000
v 2.739014 20.968586 -75.000000
v 10.679596 -3.470028 -75.000000
v -2.739075 20.968586 -75.000000
v -0.000031 -11.229230 -75.000000
v 14.540924 -15.353971 -75.000000
v 14.540924 -15.353976 74.999992
v 14.296021 -17.683941 -75.000000
v 10.109039 -18.573910 -75.000000
v 12.400665 -19.061001 -75.000000
v 14.296021 -17.683949 74.999992
v 12.400665 -19.061008 74.999992
v 10.109039 -18.573917 74.999992
v -10.109131 -18.573910 -75.000000
v -14.540985 -15.353971 -75.000000
v -14.296112 -17.683941 -75.000000
v -14.296112 -17.683949 74.999992
v -12.400757 -19.061001 -75.000000
v -12.400757 -19.061008 74.999992
v -10.109131 -18.573917 74.999992
v 1.171356 22.709629 -75.000000
v 1.171356 22.709621 75.000008
v -1.171448 22.709629 -75.000000
v -1.171448 22.709621 75.000008
v -2.739075 20.968578 75.000008
v -21.960175 5.903598 -75.000000
v -21.236206 8.131732 -75.000000
vn 0.8660 -0.5000 -0.0000
vn 0.9511 0.3090 0.0000
vn 0.0000 0.0000 1.0000
vn 0.0000 1.0000 0.0000
vn 0.4067 0.9135 0.0000
vn -0.9511 0.3090 0.0000
vn -0.5878 -0.8090 -0.0000
vn -0.4067 0.9135 0.0000
vn 0.0000 0.0000 -1.0000
vn 0.5878 -0.8090 -0.0000
vn 0.9945 -0.1045 -0.0000
vn -0.2079 -0.9781 -0.0000
vn -0.9945 -0.1045 -0.0000
vn 0.2079 -0.9781 -0.0000
vn 0.7431 0.6691 0.0000
vn -0.7431 0.6691 0.0000
vn -0.8660 -0.5000 -0.0000
usemtl Default_OBJ.322
s 1
f 1//1 2//1 3//1
f 1//1 3//1 4//1
f 1//2 4//2 5//2
f 6//2 1//2 5//2
f 7//3 2//3 1//3
f 6//3 7//3 1//3
f 8//4 7//4 9//4
f 7//5 5//5 9//5
f 7//3 8//3 2//3
f 7//5 6//5 5//5
f 10//3 11//3 8//3
f 8//3 11//3 12//3
f 8//4 9//4 13//4
f 10//2 8//2 13//2
f 2//3 8//3 14//3
f 8//3 12//3 14//3
f 15//3 12//3 16//3
f 16//6 12//6 17//6
f 14//3 12//3 15//3
f 12//7 18//7 17//7
f 11//3 19//3 12//3
f 12//7 20//7 18//7
f 19//3 20//3 12//3
f 19//3 21//3 20//3
f 19//3 22//3 21//3
f 22//8 19//8 23//8
f 19//4 24//4 23//4
f 19//4 11//4 24//4
f 24//9 25//9 13//9
f 24//9 13//9 26//9
f 11//6 27//6 24//6
f 27//9 25//9 24//9
f 24//9 26//9 17//9
f 23//9 24//9 17//9
f 28//9 26//9 29//9
f 17//9 26//9 28//9
f 14//2 29//2 26//2
f 2//10 14//10 26//10
f 13//9 3//9 26//9
f 2//10 26//10 3//10
f 14//2 30//2 29//2
f 30//11 31//11 29//11
f 32//9 29//9 33//9
f 28//9 29//9 32//9
f 33//9 29//9 31//9
f 34//10 33//10 31//10
f 30//11 34//11 31//11
f 34//10 35//10 33//10
f 30//3 35//3 34//3
f 35//12 36//12 33//12
f 30//3 36//3 35//3
f 30//3 15//3 36//3
f 36//7 28//7 32//7
f 36//12 32//12 33//12
f 36//7 15//7 28//7
f 14//3 15//3 30//3
f 15//10 37//10 28//10
f 38//9 28//9 37//9
f 17//9 28//9 38//9
f 16//6 17//6 38//6
f 16//13 38//13 39//13
f 38//9 37//9 39//9
f 40//13 16//13 39//13
f 40//7 39//7 41//7
f 39//9 37//9 41//9
f 42//7 40//7 41//7
f 43//14 42//14 41//14
f 43//14 41//14 37//14
f 15//3 16//3 43//3
f 15//10 43//10 37//10
f 43//3 16//3 40//3
f 43//3 40//3 42//3
f 27//9 44//9 25//9
f 45//15 10//15 25//15
f 45//15 25//15 44//15
f 10//2 13//2 25//2
f 46//9 44//9 27//9
f 47//4 45//4 44//4
f 47//4 44//4 46//4
f 47//16 46//16 27//16
f 48//16 47//16 27//16
f 45//3 47//3 48//3
f 10//3 48//3 11//3
f 11//6 48//6 27//6
f 45//3 48//3 10//3
f 20//17 21//17 49//17
f 21//6 22//6 50//6
f 21//6 50//6 49//6
f 49//9 23//9 18//9
f 20//17 49//17 18//17
f 50//9 23//9 49//9
f 22//8 23//8 50//8
f 18//9 23//9 17//9
f 13//9 9//9 3//9
f 9//9 5//9 3//9
f 3//9 5//9 4//9
