# Blender v3.0.1 OBJ File: ''
# www.blender.org
mtllib Medium_Long_SquareCircle_JeansBlue.mtl
o obj1.042_obj1.005
v 7.099701 -3.788604 -16.153854
v -7.384430 -7.920028 -16.153854
v 9.245728 -7.000396 -16.153854
v -8.833893 -9.369491 -16.153854
v 12.457520 -9.146438 -16.153854
v 7.201996 -4.026721 58.846153
v 9.621704 -7.357165 58.846153
v 13.186829 -9.415500 58.846153
v 21.196106 -8.573688 58.846153
v 17.280945 -9.845798 58.846153
v 16.246094 -9.900039 -16.153854
v 24.255371 -5.819109 58.846153
v -10.813904 -9.900039 -16.153854
v 16.246094 -9.900036 -91.153854
v 20.034668 -9.146435 -91.153854
v 25.392517 -3.788601 -91.153854
v -22.693909 -9.900036 -91.153854
v 16.246094 9.899975 -91.153854
v 23.246460 7.000324 -91.153854
v 26.146088 -0.000027 -91.153854
v 25.392517 3.788532 -91.153854
v 24.255371 5.819044 58.846153
v 21.196106 8.573606 58.846153
v 20.034668 9.146381 -91.153854
v 17.280945 9.845723 58.846153
v 16.246094 9.899972 -16.153854
v 13.186829 9.415418 58.846153
v 12.457520 9.146379 -16.153854
v 9.621704 7.357099 58.846153
v 7.201996 4.026655 58.846153
v 9.245728 7.000321 -16.153854
v -8.833893 9.369431 -16.153854
v -7.384430 7.919968 -16.153854
v -10.813904 9.899972 -16.153854
v -10.813904 9.899961 58.846153
v -8.833893 9.369420 58.846153
v -7.384430 7.919958 58.846153
v -6.853912 5.939970 58.846153
v -6.853912 5.939972 -16.153854
v 7.099701 3.788529 -16.153854
v -6.853912 -5.940035 58.846153
v -6.853912 -5.940032 -16.153854
v -7.384430 -7.920031 58.846153
v 6.346100 -0.000030 -16.153854
v -8.833893 -9.369494 58.846153
v -10.813904 -9.900043 58.846153
v -22.693909 -9.900043 58.846153
v -22.693909 9.899961 58.846153
v -24.673889 -9.369494 58.846153
v -26.653900 5.939970 58.846153
v -26.653900 -5.940035 58.846153
v -26.123352 -7.920031 58.846153
v -22.693909 9.899975 -91.153854
v -26.123352 7.919958 58.846153
v -24.673889 9.369420 58.846153
v -24.673889 9.369434 -91.153854
v -26.123352 7.919971 -91.153854
v -26.653900 5.939976 -91.153854
v -26.653900 -5.940029 -91.153854
v -26.123352 -7.920025 -91.153854
v -24.673889 -9.369488 -91.153854
v 6.346100 -0.000033 58.846153
v 25.929749 2.058286 58.846153
v 25.929749 -2.058367 58.846153
v 23.246460 -7.000378 -91.153854
vn 0.0000 0.0000 1.0000
vn -0.8315 -0.5556 -0.0006
vn -0.5556 -0.8315 -0.0012
vn -0.8090 -0.5878 0.0013
vn -0.5000 -0.8660 0.0018
vn -0.1045 -0.9945 0.0022
vn -0.1951 -0.9808 -0.0016
vn 0.0000 -1.0000 -0.0000
vn 0.1652 -0.9863 -0.0016
vn 0.1951 -0.9808 -0.0000
vn 0.0000 0.0000 -1.0000
vn 0.8315 0.5556 -0.0012
vn 0.6691 0.7431 0.0014
vn 0.5556 0.8315 -0.0011
vn 0.1652 0.9863 -0.0016
vn 0.1951 0.9808 0.0000
vn 0.3090 0.9511 0.0012
vn -0.1045 0.9945 0.0022
vn -0.1951 0.9808 -0.0016
vn -0.5000 0.8660 0.0018
vn -0.5556 0.8315 -0.0012
vn 0.2588 0.9659 0.0000
vn 0.7071 0.7071 0.0000
vn 0.9659 0.2588 0.0000
vn 1.0000 0.0000 0.0000
vn 0.9659 -0.2588 -0.0000
vn 0.7071 -0.7071 -0.0000
vn 0.2588 -0.9659 -0.0000
vn -0.2588 -0.9659 -0.0000
vn -0.0000 1.0000 0.0000
vn -0.2588 0.9659 0.0000
vn -0.7071 0.7071 0.0000
vn -0.9659 0.2588 0.0000
vn -1.0000 0.0000 0.0000
vn -0.9659 -0.2588 -0.0000
vn -0.7071 -0.7071 -0.0000
vn -0.9801 0.1987 0.0002
vn -0.9789 0.2043 0.0005
vn -0.9808 0.1951 0.0000
vn -0.9789 -0.2043 0.0005
vn -0.9801 -0.1987 0.0002
vn -0.9808 -0.1951 -0.0000
vn -0.9781 -0.2079 0.0007
vn -0.9781 0.2079 0.0007
vn -0.8315 0.5556 -0.0006
vn -0.8090 0.5878 0.0013
vn 1.0000 0.0000 0.0014
vn 0.9808 0.1951 -0.0013
vn 0.9135 0.4067 0.0014
vn 0.9808 -0.1951 -0.0013
vn 0.9135 -0.4067 0.0014
vn 0.8315 -0.5556 -0.0012
vn 0.5556 -0.8315 -0.0011
vn 0.6691 -0.7431 0.0014
vn 0.3090 -0.9511 0.0012
usemtl Default_OBJ.321
s 1
f 1//1 2//1 3//1
f 3//1 2//1 4//1
f 5//1 3//1 4//1
f 3//2 6//2 1//2
f 5//3 7//3 3//3
f 7//4 6//4 3//4
f 8//5 7//5 5//5
f 8//1 6//1 7//1
f 9//1 8//1 10//1
f 10//6 8//6 11//6
f 12//1 8//1 9//1
f 12//1 6//1 8//1
f 11//7 8//7 5//7
f 11//1 5//1 13//1
f 11//8 13//8 14//8
f 10//9 11//9 15//9
f 15//10 11//10 14//10
f 14//11 16//11 15//11
f 17//11 18//11 14//11
f 13//8 17//8 14//8
f 18//11 19//11 14//11
f 14//11 20//11 16//11
f 14//11 19//11 20//11
f 20//11 19//11 21//11
f 22//12 21//12 19//12
f 23//13 22//13 19//13
f 23//14 19//14 24//14
f 24//11 19//11 18//11
f 25//15 24//15 26//15
f 26//16 24//16 18//16
f 25//17 23//17 24//17
f 22//1 25//1 27//1
f 27//18 25//18 26//18
f 22//1 23//1 25//1
f 27//19 26//19 28//19
f 27//1 29//1 30//1
f 29//20 27//20 28//20
f 22//1 27//1 30//1
f 29//21 28//21 31//21
f 28//1 32//1 31//1
f 26//1 32//1 28//1
f 31//1 32//1 33//1
f 26//1 34//1 32//1
f 35//22 32//22 34//22
f 36//23 37//23 32//23
f 37//23 33//23 32//23
f 35//22 36//22 32//22
f 38//24 39//24 33//24
f 40//1 33//1 39//1
f 31//1 33//1 40//1
f 37//24 38//24 33//24
f 35//1 41//1 38//1
f 38//25 41//25 42//25
f 38//25 42//25 39//25
f 37//1 35//1 38//1
f 41//26 43//26 42//26
f 44//1 42//1 1//1
f 44//1 39//1 42//1
f 43//26 2//26 42//26
f 1//1 42//1 2//1
f 43//27 4//27 2//27
f 43//27 45//27 4//27
f 41//1 45//1 43//1
f 41//1 46//1 45//1
f 45//28 46//28 4//28
f 46//8 47//8 13//8
f 46//28 13//28 4//28
f 41//1 47//1 46//1
f 41//1 48//1 47//1
f 47//8 17//8 13//8
f 47//29 49//29 17//29
f 50//1 51//1 47//1
f 47//1 51//1 52//1
f 47//1 52//1 49//1
f 48//1 50//1 47//1
f 35//1 48//1 41//1
f 53//30 48//30 34//30
f 48//30 35//30 34//30
f 48//1 54//1 50//1
f 48//1 55//1 54//1
f 55//31 48//31 56//31
f 48//31 53//31 56//31
f 54//32 55//32 57//32
f 50//33 54//33 57//33
f 57//11 53//11 58//11
f 56//11 53//11 57//11
f 55//32 56//32 57//32
f 50//33 57//33 58//33
f 59//11 58//11 17//11
f 51//34 58//34 59//34
f 58//11 53//11 17//11
f 51//34 50//34 58//34
f 59//11 17//11 60//11
f 51//35 59//35 60//35
f 52//35 51//35 60//35
f 52//36 60//36 61//36
f 60//11 17//11 61//11
f 49//36 52//36 61//36
f 49//29 61//29 17//29
f 53//11 18//11 17//11
f 34//30 18//30 53//30
f 62//37 40//38 44//39
f 1//40 62//41 44//42
f 40//1 39//1 44//1
f 30//1 62//1 6//1
f 6//43 62//41 1//40
f 62//37 30//44 40//38
f 30//45 31//45 40//45
f 37//1 36//1 35//1
f 34//30 26//30 18//30
f 30//46 29//46 31//46
f 22//1 30//1 63//1
f 63//1 30//1 6//1
f 63//1 12//1 64//1
f 63//47 64//47 20//47
f 63//48 20//48 21//48
f 22//49 63//49 21//49
f 63//1 6//1 12//1
f 64//50 16//50 20//50
f 64//51 12//51 16//51
f 15//11 16//11 65//11
f 12//52 65//52 16//52
f 9//53 15//53 65//53
f 12//54 9//54 65//54
f 9//55 10//55 15//55
f 5//1 4//1 13//1
