# Blender v3.0.1 OBJ File: ''
# www.blender.org
mtllib Medium_Long_DoubleSquare_Yellow.mtl
o obj1.043_obj1.005
v 7.338684 -9.864944 -18.750000
v 6.443298 -8.969558 -18.750000
v -7.338745 -9.864944 -18.750000
v -6.443359 -8.969558 -18.750000
v 6.115570 -7.746436 -18.750000
v -6.115631 -7.746436 -18.750000
v 7.338684 -9.864955 56.250000
v 6.443298 -8.969569 56.250000
v -6.115631 -7.746447 56.250000
v -6.443359 -8.969569 56.250000
v -6.115631 7.746408 56.250000
v -8.561859 -10.192691 56.250000
v -7.338745 -9.864955 56.250000
v -24.054718 -10.192691 56.250000
v -8.561859 -10.192679 -18.750000
v -26.500977 7.746408 56.250000
v -26.500977 -7.746447 56.250000
v -24.054718 10.192647 56.250000
v -26.173248 8.969543 -93.750000
v -26.500977 7.746422 -93.750000
v -25.277863 9.864915 56.250000
v -26.173248 8.969529 56.250000
v -8.561859 10.192647 56.250000
v -24.054718 10.192661 -93.750000
v -8.561859 10.192655 -18.750000
v -7.338745 9.864915 56.250000
v -7.338745 9.864923 -18.750000
v -6.443359 8.969529 56.250000
v -6.443359 8.969537 -18.750000
v -6.115631 7.746415 -18.750000
v 6.115570 7.746415 -18.750000
v 6.443298 8.969537 -18.750000
v 6.115570 7.746408 56.250000
v 6.443298 8.969529 56.250000
v 7.338684 9.864923 -18.750000
v 7.338684 9.864915 56.250000
v 8.561798 10.192647 56.250000
v 24.054657 10.192647 56.250000
v 8.561798 10.192655 -18.750000
v 26.500916 7.746408 56.250000
v 25.277771 9.864915 56.250000
v 25.277771 9.864929 -93.750000
v 24.054657 10.192661 -93.750000
v 26.500916 7.746422 -93.750000
v 24.054657 -10.192677 -93.750000
v 26.173187 8.969529 56.250000
v 26.173187 8.969543 -93.750000
v 26.500916 -7.746433 -93.750000
v 26.500916 -7.746447 56.250000
v 26.173187 -8.969555 -93.750000
v 25.277771 -9.864941 -93.750000
v 26.173187 -8.969569 56.250000
v 25.277771 -9.864955 56.250000
v 24.054657 -10.192691 56.250000
v 8.561798 -10.192691 56.250000
v 8.561798 -10.192679 -18.750000
v 6.115570 -7.746447 56.250000
v -24.054718 -10.192677 -93.750000
v -26.500977 -7.746433 -93.750000
v -25.277863 -9.864941 -93.750000
v -25.277863 -9.864955 56.250000
v -26.173248 -8.969555 -93.750000
v -26.173248 -8.969569 56.250000
v -25.277863 9.864929 -93.750000
vn 0.0000 0.0000 1.0000
vn -0.7071 -0.7071 -0.0000
vn -0.9659 -0.2588 -0.0000
vn 0.9659 -0.2588 -0.0000
vn 0.7071 -0.7071 -0.0000
vn 1.0000 0.0000 0.0000
vn 0.0000 -1.0000 -0.0000
vn 0.2588 -0.9659 -0.0000
vn -0.9659 0.2588 0.0000
vn -1.0000 0.0000 0.0000
vn -0.0000 1.0000 0.0000
vn -0.2588 0.9659 0.0000
vn 0.2588 0.9659 0.0000
vn 0.7071 0.7071 0.0000
vn 0.9659 0.2588 0.0000
vn -0.7071 0.7071 0.0000
vn -0.0000 0.0000 -1.0000
vn -0.2588 -0.9659 -0.0000
usemtl Default_OBJ.317
s 1
f 1//1 2//1 3//1
f 2//1 4//1 3//1
f 5//1 6//1 2//1
f 2//1 6//1 4//1
f 7//2 2//2 1//2
f 8//3 5//3 2//3
f 7//2 8//2 2//2
f 9//4 10//4 4//4
f 10//5 3//5 4//5
f 9//4 4//4 6//4
f 11//1 12//1 9//1
f 11//6 9//6 6//6
f 9//1 13//1 10//1
f 9//1 12//1 13//1
f 12//7 14//7 15//7
f 13//8 12//8 15//8
f 11//1 16//1 12//1
f 12//1 17//1 14//1
f 12//1 16//1 17//1
f 11//1 18//1 16//1
f 16//9 19//9 20//9
f 17//10 16//10 20//10
f 21//1 22//1 16//1
f 16//9 22//9 19//9
f 18//1 21//1 16//1
f 23//1 18//1 11//1
f 24//11 18//11 25//11
f 18//11 23//11 25//11
f 21//12 18//12 24//12
f 26//1 23//1 11//1
f 23//13 26//13 27//13
f 23//13 27//13 25//13
f 26//14 28//14 29//14
f 26//14 29//14 27//14
f 26//1 11//1 28//1
f 28//15 30//15 29//15
f 28//15 11//15 30//15
f 11//6 6//6 30//6
f 31//1 30//1 6//1
f 32//1 30//1 31//1
f 32//1 29//1 30//1
f 33//9 32//9 31//9
f 33//9 34//9 32//9
f 32//1 27//1 29//1
f 35//1 27//1 32//1
f 34//16 35//16 32//16
f 34//16 36//16 35//16
f 37//1 36//1 34//1
f 37//1 34//1 33//1
f 37//11 38//11 39//11
f 36//12 37//12 39//12
f 40//1 37//1 33//1
f 38//1 37//1 40//1
f 41//1 38//1 40//1
f 38//13 41//13 42//13
f 38//13 42//13 43//13
f 38//11 43//11 39//11
f 43//17 42//17 44//17
f 25//11 39//11 43//11
f 25//11 43//11 24//11
f 45//17 43//17 44//17
f 24//17 43//17 45//17
f 46//15 40//15 44//15
f 46//15 44//15 47//15
f 44//17 42//17 47//17
f 40//6 48//6 44//6
f 45//17 44//17 48//17
f 40//6 49//6 48//6
f 49//4 50//4 48//4
f 45//17 48//17 50//17
f 45//17 50//17 51//17
f 52//5 51//5 50//5
f 49//4 52//4 50//4
f 52//5 53//5 51//5
f 49//1 53//1 52//1
f 49//1 54//1 53//1
f 53//8 54//8 45//8
f 53//8 45//8 51//8
f 40//1 54//1 49//1
f 40//1 55//1 54//1
f 45//7 54//7 56//7
f 54//7 55//7 56//7
f 40//1 33//1 55//1
f 33//1 57//1 55//1
f 55//1 57//1 8//1
f 55//18 7//18 1//18
f 55//18 1//18 56//18
f 55//1 8//1 7//1
f 57//10 33//10 31//10
f 8//3 57//3 5//3
f 57//10 31//10 5//10
f 56//1 1//1 15//1
f 56//7 15//7 58//7
f 56//7 58//7 45//7
f 24//17 45//17 58//17
f 59//17 20//17 58//17
f 60//17 59//17 58//17
f 14//18 60//18 58//18
f 20//17 24//17 58//17
f 14//7 58//7 15//7
f 14//18 61//18 60//18
f 61//2 62//2 60//2
f 62//17 59//17 60//17
f 61//2 63//2 62//2
f 63//3 59//3 62//3
f 63//3 17//3 59//3
f 17//1 63//1 61//1
f 17//1 61//1 14//1
f 17//10 20//10 59//10
f 41//14 46//14 47//14
f 41//14 47//14 42//14
f 41//1 40//1 46//1
f 39//1 27//1 35//1
f 39//1 25//1 27//1
f 36//12 39//12 35//12
f 31//1 6//1 5//1
f 64//17 24//17 20//17
f 21//12 24//12 64//12
f 19//17 64//17 20//17
f 22//16 21//16 64//16
f 22//16 64//16 19//16
f 1//1 3//1 15//1
f 13//8 15//8 3//8
f 10//5 13//5 3//5
