# Blender v3.0.1 OBJ File: ''
# www.blender.org
mtllib Medium_Short_Oval_JeansBlue.mtl
o obj1.004_obj1.005
v -21.978088 -1.035413 -25.028601
v -21.978088 -1.035417 24.971397
v -22.079529 0.358532 -50.028603
v -22.079529 0.358524 49.971397
v -22.008026 1.529258 -18.778601
v -22.022980 -0.682781 -43.778603
v -21.269012 -3.549162 -43.778603
v -18.706451 8.085545 -50.028603
v -20.313019 -5.345016 -50.028603
v -20.683228 5.451948 -43.778603
v -22.008026 1.529261 -43.778603
v -21.143921 4.550742 -15.653603
v -20.114197 6.360005 -18.778601
v -21.785156 2.727845 -25.028601
v -21.785156 2.727844 12.471397
v -21.785156 2.727845 -12.528603
v -22.008026 1.529254 31.221397
v -19.208710 7.531888 -12.528603
v -21.399994 3.942076 -6.278603
v -19.683197 6.950762 -3.153602
v -19.073273 7.686800 -6.278602
v -20.844513 5.157942 -0.028602
v -21.399994 3.942075 6.221397
v -20.114197 6.360004 6.221398
v -16.893768 9.718805 -0.028602
v -15.109192 10.952726 6.221398
v -12.290649 12.415022 -0.028602
v -15.109192 10.952726 -6.278602
v -8.685059 13.679007 6.221398
v -13.122437 12.034081 12.471398
v -19.208710 7.531887 12.471397
v -20.114197 6.360002 18.721397
v -17.813477 8.950379 18.721397
v -21.399994 3.942073 18.721397
v -21.785156 2.727841 24.971397
v -20.844513 5.157939 24.971397
v -21.399994 3.942072 31.221397
v -19.791962 6.808001 31.221397
v -19.910187 6.648200 37.471397
v -21.785156 2.727841 37.471397
v -20.683228 5.451941 43.721397
v -22.008026 1.529253 43.721397
v -18.409149 8.388710 37.471397
v -16.714203 9.856964 43.721397
v -18.706451 8.085537 49.971397
v -20.313019 -5.345025 49.971397
v -15.302368 -10.115656 49.971397
v -14.741669 11.173164 49.971397
v -10.664703 -12.340075 49.971397
v -11.751862 12.642109 46.846397
v -9.640656 13.399216 49.971397
v -5.012604 14.437847 49.971397
v -5.069580 -13.712589 49.971397
v -8.497803 13.729595 43.721397
v -3.821259 -13.868099 46.846397
v 0.825104 14.732235 49.971397
v 1.036163 -14.005980 49.971397
v 7.052887 -13.137526 49.971397
v -1.846100 -14.012627 43.721397
v 5.012360 -13.568253 43.721397
v 8.800873 -12.644615 46.846397
v 7.666229 13.695301 49.971397
v 12.375214 -11.213774 49.971397
v 3.433075 14.520313 46.846397
v 12.673004 11.781128 46.846397
v 8.193542 13.546692 46.846397
v 14.683319 10.614101 49.971397
v 16.551788 -8.498219 49.971397
v 20.004700 4.926839 49.971397
v 16.801086 8.997959 43.721397
v 20.885498 -1.759619 49.971397
v 20.805420 2.808954 43.721397
v 19.340485 6.082804 43.721397
v 20.146729 -3.916307 43.721397
v 21.083099 -0.488192 43.721397
v 21.113220 0.731097 37.471397
v 18.847046 -6.072046 37.471397
v 20.969421 -1.341392 31.221397
v 20.985016 1.968670 31.221397
v 19.840454 5.241986 31.221397
v 18.518250 7.210751 37.471397
v 14.535980 10.710004 31.221397
v 12.416931 11.910168 37.471397
v 11.496368 12.342548 34.346397
v 8.128754 13.565552 37.471397
v 8.308167 13.512928 43.721397
v 12.956329 11.633625 43.721397
v 3.665771 14.490856 40.596397
v -0.702698 14.757755 43.721397
v -4.104034 14.554344 37.471397
v 3.590973 14.500515 37.471397
v -9.052979 13.575626 34.346397
v -11.860291 12.597599 37.471397
v -6.144562 14.254449 31.221397
v -1.240906 14.749577 34.346397
v -14.117371 11.525331 31.221397
v -16.162506 10.260365 24.971397
v -8.727539 13.667348 24.971397
v -11.802338 12.621469 21.846397
v -12.866394 12.155435 18.721397
v -6.835571 14.120969 18.721397
v -3.573975 14.609990 21.846397
v -0.648712 14.758084 15.596398
v -3.831879 14.584039 12.471398
v -10.064819 13.263001 15.596398
v 0.791534 14.733571 12.471398
v 0.699799 14.737047 6.221398
v -3.925903 14.574053 6.221398
v -8.591461 13.704469 12.471398
v 5.520050 14.191899 12.471398
v 3.906342 14.458550 15.596398
v 3.541687 14.506783 18.721397
v 8.545929 13.441190 15.596398
v 7.827637 13.650975 21.846397
v 4.057068 14.437341 24.971397
v -0.401642 14.758431 24.971397
v 8.586548 13.428697 24.971397
v 3.247498 14.542542 32.002647
v 7.970795 13.610814 26.533897
v 7.855682 13.643167 29.658897
v 7.625092 13.706436 35.908897
v -1.406891 14.745248 31.612022
v 3.131409 14.555882 35.127647
v 11.709381 12.246716 28.096397
v 16.408051 9.336747 24.971397
v 12.827454 11.701337 24.971397
v 11.444244 12.365621 18.721397
v 14.065765 11.004220 12.471398
v 18.239655 7.543429 18.721397
v 19.623169 5.626497 12.471397
v 16.139648 9.556650 6.221398
v 11.406128 12.382414 9.346398
v 9.998505 12.950772 12.471398
v 8.505249 13.453623 6.221398
v 4.223877 14.412992 -0.028602
v 11.367920 12.399149 -0.028602
v 8.505249 13.453623 -6.278602
v 0.699799 14.737047 -6.278602
v -4.019989 14.563772 -0.028602
v -3.925903 14.574053 -6.278602
v -8.231476 13.799219 -0.028602
v -8.685059 13.679007 -6.278602
v -8.591461 13.704474 -12.528602
v -13.122437 12.034087 -12.528602
v -10.064819 13.263007 -15.653602
v -3.831879 14.584044 -12.528602
v 0.791534 14.733577 -12.528602
v -6.835571 14.120975 -18.778601
v -0.648712 14.758090 -15.653602
v 5.520050 14.191905 -12.528602
v 3.906342 14.458556 -15.653602
v 8.545929 13.441195 -15.653602
v 3.541687 14.506789 -18.778601
v 9.998505 12.950778 -12.528602
v 11.444244 12.365626 -18.778601
v 14.065765 11.004226 -12.528602
v 7.827637 13.650981 -21.903601
v 11.406128 12.382418 -9.403602
v 16.139648 9.556650 -6.278602
v 18.837341 6.802046 -6.278602
v 17.882294 7.942213 -0.028602
v 19.623169 5.626498 -12.528603
v 20.572510 3.581448 -6.278603
v 21.120361 0.315256 -6.278603
v 21.046082 1.552607 -0.028603
v 21.034515 -0.924657 -12.528603
v 18.991669 -5.875144 -9.403603
v 18.844482 -6.075477 -18.778603
v 20.778290 -2.194486 -18.778601
v 21.089569 1.128438 -18.778601
v 20.500641 -3.066339 -6.278603
v 18.166534 -6.910400 -6.278603
v 16.546539 -8.502697 -12.528603
v 12.527771 -11.137747 -6.278603
v 14.601288 -9.950667 -0.028603
v 19.434814 -5.218370 -0.028603
v 20.500641 -3.066340 6.221397
v 18.166534 -6.910401 6.221397
v 21.120361 0.315256 6.221397
v 21.034515 -0.924658 12.471397
v 18.991669 -5.875145 9.346397
v 18.844482 -6.075480 18.721397
v 16.546539 -8.502700 12.471397
v 10.651276 -11.982286 15.596396
v 10.266754 -12.132846 12.471396
v 12.527771 -11.137748 6.221397
v 14.730621 -9.865856 18.721397
v 18.169464 -6.907056 24.971397
v 12.671509 -11.064838 24.971397
v 10.343994 -12.103165 21.846397
v 5.422150 -13.493550 24.971397
v 13.406464 -10.671503 30.440147
v 9.062531 -12.560178 29.658897
v -0.331573 -14.041135 24.971397
v 1.614990 -13.973612 21.846397
v 1.418304 -13.985782 31.221397
v 6.015411 -13.375060 21.846397
v -2.269257 -13.991959 28.096397
v -3.868103 -13.863173 31.221397
v -2.465668 -13.980473 37.471397
v 5.213562 -13.532298 34.346397
v 3.200806 -13.830909 37.471397
v 1.218536 -13.996908 40.596397
v -5.878632 -13.584370 34.346397
v -7.501984 -13.259197 37.471397
v -5.630249 -13.626075 40.596397
v -8.809448 -12.927606 43.721397
v -12.390625 -11.654174 37.471397
v -9.297699 -12.786818 31.221397
v -13.348053 -11.206962 43.721397
v -12.215515 -11.730525 46.846397
v -17.194946 -8.761786 43.721397
v -18.801910 -7.267492 37.471397
v -20.932709 -4.271233 43.721397
v -20.130646 -5.618972 31.221397
v -14.744263 -10.454587 31.221397
v -21.414337 -3.187637 37.471397
v -12.077057 -11.789772 28.096397
v -16.838074 -9.044974 24.971397
v -18.529999 -7.550431 18.721397
v -13.313019 -11.224260 23.408897
v -19.357513 -6.639304 24.971397
v -21.292175 -3.494015 18.721397
v -21.108521 -3.910501 24.971397
v -21.760925 -2.105720 31.221397
v -21.919647 -1.390326 43.721397
v -19.900604 -5.944281 12.471397
v -20.960510 -4.216252 6.221397
v -21.660095 -2.465534 -0.028603
v -18.195648 -7.879595 -0.028603
v -16.729034 -9.128629 6.221397
v -13.081238 -11.336809 -0.028603
v -11.610626 -11.982173 6.221397
v -15.058868 -10.266466 12.471397
v -13.448517 -11.156983 9.346396
v -9.670105 -12.672950 12.471396
v -5.666870 -13.620052 6.221397
v -3.857574 -13.864285 12.471396
v -12.252869 -11.714372 18.721397
v -5.868042 -13.586193 15.596396
v 1.935333 -13.951197 15.596396
v -2.073395 -14.002217 18.721397
v 1.812103 -13.960199 12.471396
v -1.878021 -14.011259 9.346396
v 6.075012 -13.362466 12.471396
v 6.341400 -13.304638 15.596396
v 6.178467 -13.340314 18.721397
v 7.179016 -13.105932 6.221397
v 9.789337 -12.310069 -0.028603
v 0.705841 -14.019771 6.221397
v 2.680511 -13.886534 3.096397
v 4.009613 -13.727045 -0.028603
v 7.179016 -13.105931 -6.278603
v 10.266754 -12.132843 -12.528604
v 6.075012 -13.362463 -12.528604
v 1.812103 -13.960196 -12.528604
v 0.705841 -14.019770 -6.278603
v 2.680511 -13.886534 -3.153603
v -1.683228 -14.019095 -0.028603
v -7.480835 -13.264033 -0.028603
v -5.666870 -13.620051 -6.278603
v -11.610626 -11.982172 -6.278603
v -9.670105 -12.672947 -12.528604
v -3.857574 -13.864282 -12.528604
v -9.473785 -12.733688 -3.153603
v -1.878021 -14.011258 -9.403604
v -16.729034 -9.128629 -6.278603
v -13.448517 -11.156982 -9.403604
v -19.900604 -5.944280 -12.528603
v -20.960510 -4.216251 -6.278603
v -15.058868 -10.266463 -12.528603
v -21.292175 -3.494012 -18.778603
v -18.529999 -7.550427 -18.778603
v -19.357513 -6.639300 -25.028603
v -21.108521 -3.910496 -25.028603
v -20.130646 -5.618966 -31.278603
v -16.838074 -9.044971 -25.028603
v -14.744263 -10.454582 -31.278603
v -12.077057 -11.789767 -28.153603
v -13.313019 -11.224257 -23.466103
v -12.252869 -11.714368 -18.778603
v -9.224182 -12.808619 -21.903603
v -9.184204 -12.820386 -25.028603
v -7.226654 -13.320915 -18.778603
v -6.069214 -13.550947 -25.028603
v -9.297699 -12.786813 -31.278603
v -3.868103 -13.863168 -31.278603
v -2.269257 -13.991953 -28.153603
v -0.331573 -14.041131 -25.028603
v -2.073395 -14.002213 -18.778603
v 1.935333 -13.951194 -15.653604
v -5.868042 -13.586190 -15.653604
v 1.614990 -13.973608 -21.903603
v 6.178467 -13.340310 -18.778603
v 6.341400 -13.304635 -15.653604
v 10.651276 -11.982284 -15.653604
v 14.730621 -9.865852 -18.778603
v 10.343994 -12.103162 -21.903603
v 12.671509 -11.064835 -25.028603
v 5.422150 -13.493546 -25.028603
v 6.015411 -13.375056 -21.903603
v 1.418304 -13.985777 -31.278603
v 9.062531 -12.560173 -29.716103
v 13.406464 -10.671498 -30.497353
v 5.213562 -13.532291 -34.403603
v 9.458282 -12.426867 -34.403603
v 16.982300 -8.117429 -31.278603
v 13.379089 -10.686798 -34.403603
v 18.169464 -6.907052 -25.028603
v 15.607544 -9.250846 -37.528603
v 8.999939 -12.580628 -37.528603
v 13.932709 -10.367277 -40.653603
v 17.797546 -7.315622 -43.778603
v 18.847046 -6.072039 -37.528603
v 12.200287 -11.299220 -43.778603
v 5.012360 -13.568244 -43.778603
v 12.375214 -11.213765 -50.028603
v 15.362732 -9.429951 -46.903603
v 8.800873 -12.644608 -46.903603
v 16.551788 -8.498211 -50.028603
v 20.004700 4.926848 -50.028603
v 20.885498 -1.759611 -50.028603
v 20.146729 -3.916300 -43.778603
v 14.683319 10.614109 -50.028599
v 16.801086 8.997967 -43.778603
v 7.666229 13.695309 -50.028599
v 12.673004 11.781136 -46.903603
v 19.340485 6.082811 -43.778603
v 18.518250 7.210758 -37.528603
v 12.416931 11.910175 -37.528603
v 12.956329 11.633633 -43.778603
v 11.496368 12.342556 -34.403603
v 14.535980 10.710010 -31.278601
v 8.308167 13.512936 -43.778603
v 8.128754 13.565559 -37.528603
v 3.433075 14.520321 -46.903603
v 8.193542 13.546700 -46.903603
v 3.665771 14.490864 -40.653603
v -0.702698 14.757763 -43.778603
v 3.590973 14.500523 -37.528603
v -4.104034 14.554352 -37.528603
v -1.240906 14.749584 -34.403603
v 3.131409 14.555889 -35.184853
v 7.625092 13.706444 -35.966103
v 3.247498 14.542548 -32.059853
v -1.406891 14.745254 -31.669226
v -0.401642 14.758437 -25.028601
v 4.057068 14.437346 -25.028601
v 7.855682 13.643172 -29.716101
v 8.586548 13.428702 -25.028601
v 7.970795 13.610820 -26.591101
v 11.709381 12.246722 -28.153601
v 16.408051 9.336753 -25.028601
v 12.827454 11.701343 -25.028601
v 19.840454 5.241992 -31.278601
v 18.239655 7.543433 -18.778601
v 19.084137 6.462171 -25.028601
v 20.238464 4.431447 -18.778601
v 20.686005 3.232099 -25.028601
v 21.110504 -0.078717 -25.028601
v 20.985016 1.968677 -31.278601
v 20.969421 -1.341385 -31.278601
v 21.113220 0.731104 -37.528603
v 19.694702 -4.786459 -31.278603
v 20.339111 -3.479523 -25.028603
v 21.083099 -0.488184 -43.778603
v 20.805420 2.808962 -43.778603
v -3.573975 14.609996 -21.903601
v -8.727539 13.667354 -25.028601
v -6.144562 14.254455 -31.278601
v -14.117371 11.525336 -31.278601
v -16.162506 10.260371 -25.028601
v -11.802338 12.621474 -21.903601
v -12.866394 12.155440 -18.778601
v -17.813477 8.950385 -18.778601
v -20.844513 5.157943 -25.028601
v -19.791962 6.808008 -31.278601
v -21.399994 3.942079 -31.278601
v -21.785156 2.727848 -37.528603
v -19.910187 6.648206 -37.528603
v -18.409149 8.388718 -37.528603
v -16.714203 9.856972 -43.778603
v -11.860291 12.597607 -37.528603
v -12.907043 12.136425 -43.778603
v -14.741669 11.173172 -50.028599
v -11.751862 12.642117 -46.903603
v -15.302368 -10.115647 -50.028603
v -10.664703 -12.340066 -50.028603
v -9.640656 13.399223 -50.028599
v -8.809448 -12.927598 -43.778603
v -12.215515 -11.730517 -46.903603
v -5.069580 -13.712581 -50.028603
v -3.821259 -13.868092 -46.903603
v -1.846100 -14.012619 -43.778603
v -5.630249 -13.626067 -40.653603
v -13.348053 -11.206955 -43.778603
v -12.390625 -11.654167 -37.528603
v -7.501984 -13.259191 -37.528603
v -18.801910 -7.267485 -37.528603
v -17.194946 -8.761778 -43.778603
v -21.847351 -1.747195 -37.528603
v -21.544617 -2.826293 -31.278603
v -2.465668 -13.980465 -37.528603
v -5.878632 -13.584363 -34.403603
v 1.218536 -13.996901 -40.653603
v 3.200806 -13.830902 -37.528603
v 1.036163 -14.005971 -50.028603
v 0.825104 14.732243 -50.028599
v 7.052887 -13.137516 -50.028603
v -5.012604 14.437855 -50.028599
v -8.497803 13.729603 -43.778603
v -9.052979 13.575634 -34.403603
v -9.473785 -12.733688 3.096397
v -6.069214 -13.550951 24.971397
v -7.226654 -13.320919 18.721397
v -9.224182 -12.808622 21.846397
v -9.184204 -12.820390 24.971397
v 8.999939 -12.580635 37.471397
v 12.200287 -11.299228 43.721397
v 15.607544 -9.250852 37.471397
v 13.932709 -10.367285 40.596397
v 13.379089 -10.686805 34.346397
v 9.458282 -12.426874 34.346397
v 17.797546 -7.315630 43.721397
v 15.362732 -9.429958 46.846397
v 16.982300 -8.117435 31.221397
v 19.694702 -4.786466 31.221397
v 20.339111 -3.479528 24.971397
v 20.778290 -2.194489 18.721397
v 21.110504 -0.078721 24.971397
v 21.089569 1.128434 18.721397
v 20.686005 3.232095 24.971397
v 20.238464 4.431443 18.721397
v 19.084137 6.462167 24.971397
v 20.572510 3.581447 6.221397
v 18.837341 6.802045 6.221398
v -12.907043 12.136417 43.721397
vn -0.9974 -0.0726 -0.0000
vn -0.9981 0.0610 0.0000
vn -0.9990 -0.0450 0.0015
vn -0.9666 -0.2542 -0.0336
vn -0.0000 0.0000 -1.0000
vn -0.9535 -0.2953 -0.0610
vn -0.9098 0.3972 -0.1204
vn -0.9463 0.3196 -0.0490
vn -0.9268 0.3633 -0.0950
vn -0.9316 0.3615 0.0390
vn -0.9305 0.3645 0.0370
vn -0.9304 0.3647 0.0368
vn -0.9831 0.1828 0.0000
vn -0.9547 0.2967 -0.0228
vn -0.8773 0.4705 0.0944
vn -0.8806 0.4723 -0.0375
vn -0.9532 0.3024 0.0000
vn -0.8487 0.5273 -0.0414
vn -0.8494 0.5277 0.0053
vn -0.8575 0.5140 -0.0238
vn -0.9096 0.4155 0.0000
vn -0.8829 0.4695 0.0129
vn -0.7553 0.6543 -0.0376
vn -0.7525 0.6518 0.0943
vn -0.5052 0.8626 -0.0260
vn -0.5052 0.8626 0.0260
vn -0.6760 0.7353 -0.0479
vn -0.6753 0.7360 0.0475
vn -0.3904 0.9198 0.0392
vn -0.3904 0.9200 -0.0351
vn -0.5940 0.8029 0.0499
vn -0.6756 0.7362 -0.0402
vn -0.8822 0.4691 0.0398
vn -0.8807 0.4721 0.0377
vn -0.8819 0.4698 0.0394
vn -0.7476 0.6640 0.0162
vn -0.5940 0.8030 -0.0496
vn -0.8819 0.4697 -0.0394
vn -0.8807 0.4721 -0.0377
vn -0.8822 0.4691 -0.0398
vn -0.8806 0.4723 0.0375
vn -0.9325 0.3610 0.0127
vn -0.8829 0.4695 -0.0129
vn -0.9325 0.3610 -0.0127
vn -0.9696 0.2443 0.0123
vn -0.8720 0.4892 0.0177
vn -0.8721 0.4893 -0.0040
vn -0.9018 0.4313 0.0282
vn -0.9696 0.2443 -0.0123
vn -0.9018 0.4313 -0.0290
vn -0.9471 0.3199 0.0276
vn -0.9463 0.3196 0.0490
vn -0.7422 0.6687 0.0442
vn -0.7569 0.6528 0.0313
vn -0.9098 0.3972 0.1204
vn -0.7421 0.6686 -0.0470
vn -0.0000 0.0000 1.0000
vn -0.6142 0.7887 0.0278
vn -0.4714 0.8812 -0.0368
vn -0.3995 0.9155 0.0481
vn -0.2190 0.9757 0.0115
vn -0.3251 0.9456 -0.0095
vn -0.2380 -0.9701 -0.0468
vn -0.0480 -0.9984 0.0305
vn -0.0480 -0.9984 0.0300
vn -0.0446 -0.9987 0.0253
vn -0.0413 -0.9989 0.0201
vn 0.0646 -0.9975 -0.0287
vn 0.1428 -0.9895 0.0216
vn 0.2478 -0.9687 -0.0142
vn 0.3396 -0.9396 0.0418
vn 0.1496 0.9870 0.0579
vn 0.3666 0.9302 0.0176
vn 0.4007 0.9125 0.0830
vn 0.2004 0.9796 -0.0128
vn 0.5408 0.8404 -0.0341
vn 0.7284 0.6815 0.0706
vn 0.9126 0.4083 -0.0215
vn 0.9881 0.1302 0.0825
vn 0.7534 0.6563 0.0413
vn 0.8379 -0.5389 0.0869
vn 0.9644 -0.2634 -0.0231
vn 0.9953 0.0838 0.0485
vn 0.9962 0.0839 0.0212
vn 0.9636 -0.2632 -0.0467
vn 0.9451 -0.3148 -0.0879
vn 0.9455 -0.3150 0.0827
vn 0.9998 -0.0047 -0.0214
vn 0.9430 0.3297 0.0459
vn 0.9254 0.3706 0.0790
vn 0.9255 0.3707 -0.0776
vn 0.7161 0.6947 -0.0673
vn 0.6093 0.7911 0.0547
vn 0.6092 0.7909 -0.0588
vn 0.9118 0.4080 -0.0463
vn 0.7539 0.6567 0.0193
vn 0.4623 0.8866 -0.0135
vn 0.3600 0.9327 0.0230
vn 0.3601 0.9329 -0.0025
vn 0.3748 0.9271 0.0087
vn 0.5654 0.8247 -0.0123
vn 0.5654 0.8247 0.0123
vn 0.3748 0.9270 -0.0098
vn 0.2008 0.9796 -0.0025
vn 0.2004 0.9797 -0.0032
vn 0.2031 0.9792 0.0008
vn 0.2036 0.9791 0.0013
vn 0.3667 0.9303 0.0034
vn 0.2021 0.9794 -0.0013
vn 0.0656 0.9978 -0.0109
vn 0.0599 0.9982 -0.0035
vn 0.0592 0.9982 -0.0025
vn 0.0272 0.9985 -0.0473
vn 0.2018 0.9794 -0.0018
vn 0.0070 1.0000 0.0029
vn -0.2438 0.9662 0.0834
vn -0.2444 0.9687 -0.0440
vn -0.2064 0.9783 0.0204
vn -0.0885 0.9959 -0.0189
vn -0.1307 0.9907 0.0389
vn 0.0070 0.9976 0.0687
vn -0.3589 0.9329 -0.0304
vn -0.3224 0.9418 -0.0955
vn -0.4161 0.9081 -0.0476
vn -0.3235 0.9452 0.0449
vn -0.6384 0.7679 0.0535
vn -0.5400 0.8402 0.0509
vn -0.6384 0.7679 -0.0530
vn -0.7357 0.6751 -0.0543
vn -0.7358 0.6752 0.0528
vn -0.4143 0.9041 0.1050
vn -0.4620 0.8865 0.0251
vn -0.5434 0.8388 -0.0323
vn -0.3097 0.9502 -0.0363
vn -0.3017 0.9531 -0.0221
vn -0.1677 0.9856 0.0208
vn -0.1183 0.9925 -0.0318
vn -0.0862 0.9958 0.0323
vn -0.3093 0.9491 0.0591
vn -0.2243 0.9739 -0.0356
vn -0.0348 0.9994 -0.0010
vn -0.0323 0.9995 0.0010
vn -0.0330 0.9995 0.0003
vn -0.0352 0.9994 -0.0011
vn -0.1795 0.9838 0.0010
vn -0.1846 0.9828 -0.0010
vn -0.1817 0.9833 0.0012
vn -0.0323 0.9992 -0.0227
vn -0.1815 0.9820 0.0532
vn -0.1848 0.9828 0.0021
vn -0.3459 0.9383 0.0014
vn -0.3457 0.9378 -0.0305
vn 0.1138 0.9935 -0.0011
vn 0.1138 0.9932 -0.0260
vn 0.0656 0.9976 0.0224
vn 0.2142 0.9767 0.0099
vn 0.2141 0.9764 0.0272
vn 0.0656 0.9978 -0.0077
vn 0.2022 0.9793 -0.0095
vn 0.1998 0.9798 -0.0060
vn 0.1997 0.9798 -0.0056
vn 0.2025 0.9792 -0.0096
vn -0.0044 0.9991 -0.0430
vn 0.0718 0.9974 -0.0007
vn 0.0718 0.9974 0.0052
vn 0.0712 0.9975 0.0049
vn 0.0313 0.9988 0.0383
vn 0.2173 0.9760 0.0166
vn 0.0718 0.9974 -0.0067
vn 0.2173 0.9757 -0.0281
vn 0.2076 0.9782 -0.0025
vn 0.1954 0.9807 0.0078
vn 0.1879 0.9822 0.0077
vn 0.1904 0.9817 -0.0023
vn 0.1858 0.9826 0.0021
vn 0.0428 0.9990 0.0085
vn 0.0449 0.9990 -0.0039
vn 0.0438 0.9990 -0.0044
vn 0.1853 0.9827 0.0027
vn 0.0445 0.9990 -0.0030
vn 0.0447 0.9990 -0.0026
vn -0.1019 0.9947 -0.0135
vn -0.1034 0.9946 0.0047
vn 0.1880 0.9821 -0.0137
vn 0.0415 0.9990 0.0155
vn 0.3350 0.9422 0.0026
vn 0.3333 0.9428 0.0028
vn 0.3390 0.9408 -0.0021
vn 0.3252 0.9454 -0.0196
vn 0.2017 0.9792 0.0233
vn 0.3417 0.9398 0.0029
vn 0.3415 0.9399 0.0023
vn 0.4753 0.8798 0.0027
vn 0.3345 0.9421 0.0220
vn 0.5084 0.8603 -0.0368
vn 0.5503 0.8334 0.0515
vn 0.3771 0.9258 -0.0266
vn 0.3771 0.9258 -0.0267
vn 0.3771 0.9258 -0.0259
vn 0.3514 0.9360 0.0217
vn 0.5508 0.8340 -0.0332
vn 0.3771 0.9258 -0.0257
vn 0.3407 0.9401 0.0076
vn 0.3848 0.9222 -0.0395
vn 0.5775 0.8138 -0.0643
vn 0.5775 0.8138 0.0650
vn 0.6939 0.7170 -0.0663
vn 0.6940 0.7171 0.0642
vn 0.4940 0.8687 -0.0373
vn 0.4315 0.9016 0.0304
vn 0.4309 0.9004 0.0590
vn 0.2670 0.9633 -0.0271
vn 0.2667 0.9622 -0.0549
vn 0.4516 0.8847 -0.1159
vn 0.3113 0.9496 0.0365
vn 0.1621 0.9860 -0.0390
vn 0.1621 0.9859 0.0403
vn 0.2711 0.9618 -0.0381
vn 0.4539 0.8892 0.0579
vn 0.2711 0.9618 0.0381
vn 0.1621 0.9859 -0.0403
vn 0.0183 0.9990 0.0415
vn 0.0183 0.9990 -0.0415
vn -0.0331 0.9995 -0.0003
vn -0.0352 0.9994 0.0011
vn -0.1786 0.9839 -0.0000
vn -0.1795 0.9838 -0.0010
vn -0.1862 0.9825 -0.0000
vn -0.1848 0.9828 -0.0021
vn -0.3228 0.9465 0.0000
vn -0.3228 0.9465 0.0052
vn -0.3228 0.9465 -0.0052
vn -0.3459 0.9383 -0.0014
vn -0.3904 0.9200 0.0351
vn -0.1846 0.9828 0.0009
vn -0.3904 0.9198 -0.0392
vn -0.3457 0.9378 0.0305
vn -0.1815 0.9820 -0.0532
vn -0.1817 0.9833 -0.0012
vn -0.0348 0.9994 0.0010
vn -0.0323 0.9995 -0.0010
vn -0.2243 0.9739 0.0356
vn -0.0862 0.9958 -0.0323
vn -0.0323 0.9992 0.0227
vn 0.1138 0.9932 0.0260
vn 0.1138 0.9935 0.0011
vn 0.0656 0.9976 -0.0224
vn 0.2141 0.9764 -0.0272
vn 0.0656 0.9978 0.0077
vn 0.2142 0.9767 -0.0099
vn 0.2670 0.9633 0.0271
vn 0.3848 0.9222 0.0395
vn 0.3407 0.9401 -0.0076
vn 0.4309 0.9004 -0.0590
vn 0.2022 0.9793 0.0095
vn 0.1998 0.9798 0.0060
vn 0.2025 0.9792 0.0096
vn 0.2667 0.9622 0.0549
vn 0.4315 0.9016 -0.0304
vn 0.3113 0.9496 -0.0365
vn 0.4940 0.8687 0.0373
vn 0.4516 0.8847 0.1159
vn 0.7143 0.6996 -0.0185
vn 0.5638 0.8240 0.0557
vn 0.4539 0.8892 -0.0579
vn 0.7138 0.6991 -0.0417
vn 0.6940 0.7171 -0.0642
vn 0.8793 0.4738 0.0479
vn 0.8802 0.4742 0.0215
vn 0.9860 0.1654 -0.0210
vn 0.9852 0.1652 -0.0463
vn 0.8936 0.4424 0.0759
vn 0.9745 0.2099 -0.0793
vn 0.9230 -0.3848 -0.0063
vn 0.8937 -0.4453 0.0538
vn 0.9954 -0.0932 -0.0219
vn 0.9746 0.2100 0.0776
vn 0.9074 -0.4153 -0.0648
vn 0.9834 -0.1802 0.0222
vn 0.8535 -0.5183 0.0537
vn 0.7302 -0.6832 0.0031
vn 0.7457 -0.6658 -0.0237
vn 0.5992 -0.7992 -0.0470
vn 0.5991 -0.7992 0.0483
vn 0.6987 -0.7136 0.0514
vn 0.8543 -0.5187 -0.0329
vn 0.9692 -0.2306 0.0859
vn 0.9692 -0.2306 -0.0859
vn 0.8543 -0.5187 0.0329
vn 0.6987 -0.7136 -0.0514
vn 0.9825 -0.1801 -0.0473
vn 0.9834 -0.1802 -0.0222
vn 0.9074 -0.4153 0.0648
vn 0.8535 -0.5183 -0.0537
vn 0.9230 -0.3848 0.0063
vn 0.7302 -0.6832 -0.0031
vn 0.7457 -0.6658 0.0237
vn 0.5004 -0.8656 -0.0199
vn 0.5000 -0.8649 0.0432
vn 0.5991 -0.7992 -0.0483
vn 0.4887 -0.8711 -0.0480
vn 0.6772 -0.7349 0.0364
vn 0.6774 -0.7352 -0.0247
vn 0.6026 -0.7968 0.0457
vn 0.4573 -0.8893 0.0053
vn 0.4383 -0.8984 -0.0279
vn 0.3167 -0.9453 0.0782
vn 0.3968 -0.9178 0.0127
vn 0.3171 -0.9466 -0.0578
vn 0.6030 -0.7974 -0.0237
vn 0.0947 -0.9948 0.0375
vn 0.0947 -0.9953 -0.0177
vn 0.1351 -0.9908 -0.0043
vn 0.1350 -0.9908 -0.0117
vn 0.1348 -0.9908 -0.0120
vn 0.2819 -0.9593 0.0171
vn 0.1922 -0.9803 0.0459
vn -0.0076 -0.9999 0.0110
vn -0.0232 -0.9993 0.0293
vn -0.0232 -0.9996 -0.0136
vn 0.1703 -0.9833 -0.0641
vn 0.1284 -0.9916 -0.0121
vn 0.0264 -0.9995 0.0172
vn 0.0264 -0.9990 -0.0363
vn -0.1235 -0.9923 0.0091
vn -0.1417 -0.9895 0.0293
vn -0.0540 -0.9968 0.0584
vn -0.1417 -0.9894 -0.0313
vn -0.3119 -0.9500 -0.0148
vn -0.3119 -0.9500 0.0178
vn -0.2173 -0.9760 -0.0113
vn -0.2064 -0.9784 0.0087
vn -0.3545 -0.9350 0.0126
vn -0.3544 -0.9347 -0.0282
vn -0.1536 -0.9860 0.0641
vn -0.3424 -0.9395 -0.0133
vn -0.2041 -0.9784 0.0314
vn -0.1538 -0.9868 -0.0515
vn -0.4321 -0.9010 0.0387
vn -0.5357 -0.8428 0.0529
vn -0.4937 -0.8688 -0.0387
vn -0.7678 -0.6391 0.0446
vn -0.7682 -0.6394 -0.0337
vn -0.5363 -0.8437 -0.0218
vn -0.5639 -0.8242 -0.0521
vn -0.6886 -0.7233 0.0518
vn -0.6671 -0.7430 -0.0542
vn -0.8416 -0.5389 0.0368
vn -0.8418 -0.5390 -0.0286
vn -0.5639 -0.8241 0.0542
vn -0.3935 -0.9189 -0.0282
vn -0.3930 -0.9178 0.0567
vn -0.4811 -0.8759 -0.0364
vn -0.6670 -0.7430 0.0559
vn -0.5422 -0.8385 -0.0537
vn -0.6905 -0.7232 0.0140
vn -0.5151 -0.8565 0.0325
vn -0.6902 -0.7229 0.0326
vn -0.8263 -0.5626 -0.0274
vn -0.8415 -0.5400 -0.0156
vn -0.8416 -0.5400 -0.0113
vn -0.8416 -0.5400 -0.0116
vn -0.8415 -0.5400 -0.0159
vn -0.9600 -0.2798 0.0046
vn -0.9580 -0.2866 0.0075
vn -0.9571 -0.2895 0.0088
vn -0.9571 -0.2895 -0.0163
vn -0.9068 -0.4208 0.0269
vn -0.9069 -0.4208 -0.0226
vn -0.9589 -0.2837 0.0041
vn -0.9791 -0.2033 -0.0008
vn -0.9453 -0.3239 0.0381
vn -0.9536 -0.2954 0.0583
vn -0.9459 -0.3240 0.0167
vn -0.9954 -0.0956 0.0013
vn -0.8260 -0.5625 0.0366
vn -0.8625 -0.5060 0.0064
vn -0.9608 -0.2773 0.0036
vn -0.9253 -0.3792 -0.0026
vn -0.7568 -0.6519 0.0473
vn -0.8410 -0.5381 -0.0566
vn -0.7566 -0.6518 -0.0519
vn -0.4868 -0.8732 0.0244
vn -0.5597 -0.8280 -0.0341
vn -0.6654 -0.7453 0.0421
vn -0.5124 -0.8585 -0.0194
vn -0.4862 -0.8721 -0.0557
vn -0.3847 -0.9229 0.0174
vn -0.4073 -0.9119 0.0500
vn -0.2656 -0.9638 -0.0241
vn -0.2007 -0.9794 0.0198
vn -0.4076 -0.9127 -0.0285
vn -0.2635 -0.9639 0.0389
vn -0.2006 -0.9788 -0.0420
vn -0.0037 -0.9998 -0.0210
vn -0.1187 -0.9929 0.0120
vn -0.0169 -0.9999 0.0035
vn -0.0169 -0.9992 0.0363
vn -0.0929 -0.9956 -0.0120
vn 0.1452 -0.9894 0.0059
vn 0.1452 -0.9894 0.0010
vn 0.1471 -0.9891 -0.0000
vn 0.1389 -0.9903 -0.0051
vn 0.1389 -0.9903 -0.0026
vn 0.1393 -0.9901 -0.0160
vn 0.1450 -0.9894 -0.0033
vn 0.1399 -0.9902 0.0036
vn 0.0103 -0.9999 -0.0031
vn 0.0111 -0.9999 -0.0041
vn 0.0160 -0.9998 -0.0098
vn 0.2824 -0.9593 0.0031
vn 0.2819 -0.9594 0.0040
vn 0.2820 -0.9594 0.0034
vn 0.1348 -0.9909 -0.0040
vn 0.2933 -0.9560 0.0053
vn 0.2933 -0.9560 0.0044
vn 0.2933 -0.9560 0.0090
vn 0.2877 -0.9577 -0.0044
vn 0.2815 -0.9595 -0.0062
vn 0.2933 -0.9560 0.0100
vn 0.1391 -0.9901 -0.0158
vn 0.2815 -0.9595 0.0103
vn 0.3452 -0.9382 -0.0245
vn 0.3452 -0.9382 0.0247
vn 0.1398 -0.9901 -0.0153
vn 0.1396 -0.9891 0.0461
vn 0.1592 -0.9871 0.0173
vn 0.2380 -0.9710 -0.0242
vn 0.3452 -0.9382 -0.0247
vn 0.2380 -0.9710 0.0242
vn 0.4401 -0.8976 0.0245
vn 0.4401 -0.8976 -0.0245
vn 0.2815 -0.9595 -0.0103
vn 0.1388 -0.9902 0.0161
vn 0.1390 -0.9902 0.0159
vn 0.1393 -0.9901 0.0157
vn 0.1398 -0.9901 0.0153
vn 0.1592 -0.9871 -0.0173
vn 0.3452 -0.9382 0.0245
vn 0.1396 -0.9891 -0.0461
vn 0.0419 -0.9990 0.0161
vn 0.0512 -0.9983 0.0292
vn -0.1291 -0.9914 -0.0190
vn -0.1291 -0.9914 0.0190
vn -0.0626 -0.9978 -0.0238
vn 0.0419 -0.9990 -0.0161
vn 0.0512 -0.9983 -0.0292
vn -0.0626 -0.9978 0.0238
vn -0.2656 -0.9638 0.0241
vn -0.2007 -0.9794 -0.0198
vn -0.2373 -0.9714 -0.0135
vn -0.0929 -0.9956 0.0120
vn -0.2653 -0.9629 -0.0501
vn -0.0625 -0.9968 0.0490
vn 0.0068 -0.9999 -0.0083
vn -0.0169 -0.9992 -0.0363
vn -0.3250 -0.9445 0.0470
vn -0.3503 -0.9365 0.0143
vn -0.4868 -0.8732 -0.0244
vn -0.3847 -0.9229 -0.0174
vn -0.4862 -0.8721 0.0557
vn -0.7566 -0.6518 0.0519
vn -0.6654 -0.7453 -0.0421
vn -0.5124 -0.8585 0.0194
vn -0.7568 -0.6519 -0.0473
vn -0.5597 -0.8280 0.0341
vn -0.8625 -0.5060 -0.0064
vn -0.9253 -0.3792 0.0026
vn -0.8410 -0.5381 0.0566
vn -0.8260 -0.5625 -0.0366
vn -0.8263 -0.5626 0.0274
vn -0.9571 -0.2895 -0.0088
vn -0.9580 -0.2866 -0.0075
vn -0.9600 -0.2799 -0.0047
vn -0.8416 -0.5400 0.0116
vn -0.8416 -0.5400 0.0113
vn -0.8415 -0.5400 0.0156
vn -0.9608 -0.2773 -0.0036
vn -0.8415 -0.5400 0.0159
vn -0.6902 -0.7229 -0.0326
vn -0.6905 -0.7232 -0.0140
vn -0.6670 -0.7430 -0.0559
vn -0.4811 -0.8759 0.0364
vn -0.5422 -0.8385 0.0537
vn -0.5151 -0.8565 -0.0325
vn -0.3555 -0.9345 -0.0173
vn -0.5524 -0.8327 0.0379
vn -0.3541 -0.9350 0.0194
vn -0.3609 -0.9326 -0.0011
vn -0.3042 -0.9518 0.0384
vn -0.3042 -0.9518 0.0403
vn -0.3041 -0.9513 0.0499
vn -0.2346 -0.9721 -0.0059
vn -0.2295 -0.9733 -0.0007
vn -0.2283 -0.9736 -0.0002
vn -0.2366 -0.9716 -0.0081
vn -0.1944 -0.9807 -0.0195
vn -0.2283 -0.9736 -0.0011
vn -0.1049 -0.9944 0.0127
vn -0.0851 -0.9957 0.0371
vn -0.1311 -0.9913 0.0122
vn -0.0851 -0.9962 -0.0175
vn -0.0037 -0.9998 0.0210
vn -0.1187 -0.9929 -0.0120
vn -0.1310 -0.9910 -0.0272
vn 0.0111 -0.9999 0.0041
vn 0.0103 -0.9999 0.0031
vn 0.0160 -0.9998 0.0098
vn 0.0171 -0.9998 0.0110
vn 0.1354 -0.9908 0.0033
vn 0.1388 -0.9903 0.0063
vn 0.1466 -0.9892 -0.0010
vn 0.1452 -0.9894 -0.0010
vn 0.1396 -0.9902 0.0018
vn 0.1389 -0.9903 0.0026
vn -0.0169 -0.9999 -0.0035
vn 0.2927 -0.9562 -0.0036
vn 0.2933 -0.9560 -0.0044
vn 0.2929 -0.9561 -0.0039
vn 0.2815 -0.9595 0.0062
vn 0.2933 -0.9560 -0.0100
vn 0.5004 -0.8656 0.0199
vn 0.4887 -0.8711 0.0480
vn 0.4573 -0.8893 -0.0053
vn 0.2877 -0.9577 0.0044
vn 0.4383 -0.8984 0.0279
vn 0.3167 -0.9453 -0.0782
vn 0.2820 -0.9593 -0.0167
vn 0.2819 -0.9594 -0.0040
vn 0.2820 -0.9594 -0.0045
vn 0.2819 -0.9593 -0.0171
vn 0.1922 -0.9803 -0.0459
vn 0.0947 -0.9953 0.0177
vn 0.0947 -0.9948 -0.0375
vn 0.1348 -0.9908 0.0120
vn 0.3171 -0.9466 0.0578
vn 0.3968 -0.9178 -0.0127
vn 0.1703 -0.9833 0.0641
vn 0.2520 -0.9677 -0.0062
vn 0.4055 -0.9141 0.0012
vn 0.4059 -0.9139 0.0011
vn 0.3999 -0.9165 0.0077
vn 0.5811 -0.8138 -0.0009
vn 0.5871 -0.8082 0.0450
vn 0.6030 -0.7974 0.0237
vn 0.4056 -0.9140 0.0007
vn 0.5660 -0.8240 0.0249
vn 0.4056 -0.9139 -0.0145
vn 0.4482 -0.8895 -0.0891
vn 0.4487 -0.8903 0.0776
vn 0.6008 -0.7985 -0.0367
vn 0.7002 -0.7135 0.0244
vn 0.7002 -0.7135 -0.0246
vn 0.4265 -0.9039 0.0331
vn 0.5781 -0.8122 -0.0782
vn 0.3008 -0.9528 -0.0413
vn 0.5107 -0.8598 0.0025
vn 0.3699 -0.9291 -0.0024
vn 0.3000 -0.9503 0.0828
vn 0.5770 -0.8107 0.0990
vn 0.6434 -0.7654 0.0166
vn 0.5446 -0.8376 -0.0425
vn 0.8379 -0.5389 -0.0869
vn 0.8214 -0.5676 -0.0563
vn 0.7284 0.6815 -0.0706
vn 0.4007 0.9125 -0.0830
vn 0.5408 0.8404 0.0341
vn 0.7534 0.6563 -0.0413
vn 0.7539 0.6567 -0.0193
vn 0.6092 0.7909 0.0588
vn 0.4623 0.8866 0.0135
vn 0.6093 0.7911 -0.0547
vn 0.3601 0.9329 0.0025
vn 0.3600 0.9327 -0.0230
vn 0.3748 0.9271 -0.0087
vn 0.2011 0.9796 0.0035
vn 0.2004 0.9797 0.0032
vn 0.2009 0.9795 0.0125
vn 0.2036 0.9791 -0.0013
vn 0.2044 0.9789 -0.0027
vn 0.2042 0.9789 -0.0030
vn 0.3667 0.9303 -0.0034
vn 0.3748 0.9270 0.0098
vn 0.2021 0.9794 0.0013
vn 0.0656 0.9978 0.0109
vn 0.0592 0.9982 0.0025
vn 0.0599 0.9982 0.0035
vn 0.0070 1.0000 -0.0029
vn 0.0272 0.9985 0.0473
vn 0.2018 0.9794 0.0018
vn 0.0415 0.9990 -0.0155
vn 0.0070 0.9976 -0.0687
vn 0.1880 0.9821 0.0137
vn 0.2017 0.9792 -0.0233
vn 0.0445 0.9990 0.0030
vn 0.0438 0.9990 0.0044
vn 0.0447 0.9990 0.0026
vn 0.1853 0.9827 -0.0027
vn 0.1879 0.9822 -0.0077
vn 0.1858 0.9826 -0.0021
vn 0.0449 0.9990 0.0039
vn 0.0428 0.9990 -0.0085
vn 0.0718 0.9974 0.0007
vn 0.0718 0.9974 0.0067
vn 0.0712 0.9975 -0.0049
vn 0.1904 0.9817 0.0023
vn 0.1954 0.9807 -0.0078
vn 0.0718 0.9974 -0.0052
vn 0.2173 0.9757 0.0281
vn 0.2173 0.9760 -0.0166
vn 0.1997 0.9798 0.0056
vn 0.2076 0.9782 0.0025
vn 0.3350 0.9422 -0.0028
vn 0.3417 0.9398 -0.0029
vn 0.3415 0.9399 -0.0023
vn 0.3345 0.9421 -0.0220
vn 0.5503 0.8334 -0.0515
vn 0.5084 0.8603 0.0368
vn 0.3771 0.9258 0.0258
vn 0.3771 0.9258 0.0267
vn 0.3771 0.9258 0.0265
vn 0.3391 0.9408 0.0020
vn 0.4753 0.8798 -0.0027
vn 0.5508 0.8340 0.0332
vn 0.3514 0.9360 -0.0217
vn 0.3771 0.9258 0.0257
vn 0.7164 0.6950 -0.0619
vn 0.5775 0.8138 0.0643
vn 0.7318 0.6813 -0.0190
vn 0.7312 0.6807 -0.0444
vn 0.8957 0.4442 -0.0211
vn 0.8957 0.4442 0.0217
vn 0.8412 0.5403 0.0202
vn 0.9681 0.2495 0.0215
vn 0.9673 0.2492 0.0476
vn 0.8412 0.5403 -0.0205
vn 0.9917 0.1271 -0.0212
vn 0.9916 0.1271 0.0217
vn 0.9437 0.3300 -0.0216
vn 0.9998 -0.0047 -0.0216
vn 0.9430 0.3297 -0.0459
vn 0.9998 -0.0047 0.0214
vn 0.9364 -0.3465 -0.0557
vn 0.9376 -0.3469 -0.0241
vn 0.9750 -0.2212 0.0227
vn 0.9455 -0.3150 -0.0827
vn 0.8447 -0.5347 0.0247
vn 0.8448 -0.5347 -0.0201
vn 0.9750 -0.2211 -0.0230
vn 0.8947 -0.4458 0.0288
vn 0.7752 -0.6312 0.0247
vn 0.7752 -0.6312 -0.0250
vn 0.9636 -0.2632 0.0467
vn 0.9451 -0.3148 0.0879
vn 0.9962 0.0839 -0.0212
vn 0.9255 0.3707 0.0776
vn 0.9254 0.3706 -0.0790
vn 0.9126 0.4083 0.0215
vn 0.9881 0.1302 -0.0825
vn 0.9953 0.0838 -0.0485
vn 0.9118 0.4080 0.0463
vn 0.9644 -0.2634 0.0231
vn 0.9954 -0.0932 0.0213
vn 0.7161 0.6947 0.0673
vn 0.6939 0.7170 0.0663
vn 0.5775 0.8138 -0.0650
vn 0.3333 0.9428 -0.0028
vn -0.0044 0.9991 0.0430
vn -0.1295 0.9880 -0.0845
vn -0.1019 0.9947 0.0135
vn -0.1298 0.9908 0.0394
vn -0.3235 0.9452 -0.0449
vn -0.4161 0.9081 0.0476
vn -0.4143 0.9041 -0.1050
vn -0.1677 0.9856 -0.0208
vn -0.3017 0.9531 0.0221
vn -0.3097 0.9502 0.0363
vn -0.4620 0.8865 -0.0251
vn -0.3093 0.9491 -0.0591
vn -0.5434 0.8388 0.0323
vn -0.3704 0.9289 0.0029
vn -0.5437 0.8392 -0.0060
vn -0.7471 0.6635 -0.0403
vn -0.7358 0.6752 -0.0528
vn -0.5940 0.8030 0.0496
vn -0.7476 0.6640 -0.0162
vn -0.8720 0.4892 -0.0177
vn -0.7357 0.6751 0.0543
vn -0.9318 0.3607 0.0395
vn -0.9018 0.4313 -0.0282
vn -0.8721 0.4893 0.0040
vn -0.7573 0.6531 -0.0024
vn -0.7569 0.6528 -0.0313
vn -0.9018 0.4313 0.0290
vn -0.7422 0.6687 -0.0442
vn -0.6384 0.7679 0.0530
vn -0.5400 0.8402 -0.0509
vn -0.5136 0.8578 0.0227
vn -0.7421 0.6686 0.0470
vn -0.6142 0.7887 -0.0278
vn -0.5130 0.8569 -0.0510
vn -0.4714 0.8812 0.0368
vn -0.3995 0.9155 -0.0481
vn -0.3424 -0.9395 0.0133
vn -0.4321 -0.9010 -0.0387
vn -0.2380 -0.9701 0.0468
vn -0.2041 -0.9784 -0.0314
vn -0.1536 -0.9860 -0.0641
vn -0.1538 -0.9868 0.0515
vn -0.3544 -0.9347 0.0282
vn -0.3545 -0.9350 -0.0126
vn -0.2064 -0.9784 -0.0087
vn -0.3119 -0.9500 0.0148
vn -0.5639 -0.8241 -0.0542
vn -0.5639 -0.8242 0.0521
vn -0.5363 -0.8437 0.0218
vn -0.3935 -0.9189 0.0282
vn -0.3119 -0.9500 -0.0178
vn -0.7866 -0.6148 0.0563
vn -0.6886 -0.7233 -0.0518
vn -0.7867 -0.6149 -0.0553
vn -0.4937 -0.8688 0.0387
vn -0.5357 -0.8428 -0.0529
vn -0.8741 -0.4822 -0.0586
vn -0.8741 -0.4822 0.0581
vn -0.6671 -0.7430 0.0542
vn -0.9670 -0.2544 -0.0161
vn -0.9859 -0.1673 -0.0008
vn -0.8916 -0.4514 -0.0348
vn -0.9686 -0.2485 0.0040
vn -0.8920 -0.4517 -0.0161
vn -0.9570 -0.2895 0.0166
vn -0.1417 -0.9894 0.0313
vn -0.2173 -0.9760 0.0113
vn -0.1417 -0.9895 -0.0293
vn 0.0264 -0.9990 0.0363
vn 0.0264 -0.9995 -0.0172
vn -0.0232 -0.9996 0.0136
vn -0.0540 -0.9968 -0.0584
vn -0.1235 -0.9923 -0.0091
vn 0.0645 -0.9962 -0.0583
vn -0.0540 -0.9969 0.0579
vn 0.1024 -0.9947 -0.0121
vn 0.2106 -0.9767 -0.0423
vn 0.2107 -0.9773 0.0200
vn 0.1284 -0.9916 0.0121
vn -0.1943 -0.9802 0.0376
vn 0.0646 -0.9975 0.0287
vn -0.0446 -0.9987 -0.0253
vn -0.0413 -0.9989 -0.0201
vn -0.0480 -0.9984 -0.0300
vn 0.1428 -0.9895 -0.0216
vn -0.0480 -0.9984 -0.0305
vn -0.0504 0.9986 -0.0164
vn 0.0665 0.9977 0.0122
vn 0.1496 0.9870 -0.0579
vn -0.1307 0.9906 0.0394
vn -0.2190 0.9757 -0.0115
vn -0.1307 0.9907 -0.0389
vn -0.3251 0.9456 0.0095
vn -0.3397 0.9402 0.0266
vn -0.2444 0.9687 0.0440
vn -0.3398 0.9404 -0.0125
vn 0.2478 -0.9687 0.0142
vn 0.3396 -0.9396 -0.0418
vn -0.2438 0.9662 -0.0834
vn -0.3589 0.9329 0.0304
vn -0.2064 0.9783 -0.0204
vn -0.3224 0.9418 0.0955
vn -0.9471 0.3199 -0.0276
vn -0.6384 0.7679 -0.0535
vn -0.0885 0.9959 0.0189
vn -0.1034 0.9946 -0.0047
vn -0.1183 0.9925 0.0318
vn 0.0313 0.9988 -0.0383
vn 0.3252 0.9454 0.0196
vn 0.2004 0.9796 0.0128
vn 0.3666 0.9302 -0.0176
vn 0.8224 -0.5683 -0.0250
vn 0.2520 -0.9677 0.0107
vn 0.6774 -0.7352 0.0247
vn 0.6026 -0.7968 -0.0457
vn -0.0076 -0.9999 -0.0110
vn -0.0232 -0.9993 -0.0293
vn 0.1348 -0.9909 0.0040
vn 0.6772 -0.7349 -0.0364
vn -0.2635 -0.9639 -0.0389
vn -0.3041 -0.9513 0.0514
vn -0.2006 -0.9788 0.0420
vn -0.3366 -0.9416 0.0011
vn -0.3930 -0.9178 -0.0567
vn -0.4076 -0.9127 0.0284
vn -0.5519 -0.8321 -0.0550
vn -0.6653 -0.7452 0.0456
vn -0.4073 -0.9119 -0.0500
vn -0.3250 -0.9445 -0.0470
vn -0.2373 -0.9714 0.0135
vn -0.3503 -0.9365 -0.0143
vn -0.2653 -0.9629 0.0501
vn 0.5000 -0.8649 -0.0432
vn -0.0625 -0.9968 -0.0490
vn 0.0068 -0.9999 0.0083
vn -0.1311 -0.9913 -0.0122
vn -0.0851 -0.9962 0.0175
vn -0.1310 -0.9910 0.0272
vn 0.0171 -0.9998 -0.0110
vn -0.2346 -0.9721 0.0059
vn -0.2295 -0.9733 0.0007
vn -0.2366 -0.9716 0.0081
vn -0.3042 -0.9518 -0.0403
vn -0.3042 -0.9518 -0.0384
vn -0.3041 -0.9513 -0.0499
vn -0.3041 -0.9513 -0.0514
vn -0.3609 -0.9326 0.0011
vn -0.3555 -0.9345 0.0173
vn -0.2283 -0.9736 0.0002
vn -0.3366 -0.9416 -0.0011
vn -0.2283 -0.9736 0.0011
vn -0.3541 -0.9350 -0.0194
vn -0.1049 -0.9944 -0.0127
vn -0.0851 -0.9957 -0.0371
vn -0.1944 -0.9807 0.0195
vn -0.5524 -0.8327 -0.0379
vn -0.5519 -0.8321 0.0550
vn -0.6653 -0.7452 -0.0456
vn -0.9762 -0.2171 -0.0000
vn -0.1943 -0.9802 -0.0376
vn 0.0645 -0.9962 0.0583
vn -0.0540 -0.9969 -0.0579
vn 0.1024 -0.9947 0.0121
vn 0.2106 -0.9767 0.0423
vn 0.2107 -0.9773 -0.0200
vn 0.3008 -0.9528 0.0413
vn 0.4487 -0.8903 -0.0776
vn 0.4482 -0.8895 0.0891
vn 0.2520 -0.9677 -0.0107
vn 0.4056 -0.9139 0.0145
vn 0.4265 -0.9039 -0.0331
vn 0.2520 -0.9677 0.0062
vn 0.3999 -0.9165 -0.0077
vn 0.4054 -0.9142 -0.0007
vn 0.4053 -0.9142 -0.0011
vn 0.4056 -0.9140 -0.0007
vn 0.5770 -0.8107 -0.0990
vn 0.5781 -0.8122 0.0782
vn 0.3000 -0.9503 -0.0828
vn 0.3699 -0.9291 0.0024
vn 0.5107 -0.8598 -0.0025
vn 0.6434 -0.7654 -0.0166
vn 0.5446 -0.8376 0.0425
vn 0.8224 -0.5683 0.0250
vn 0.7002 -0.7135 -0.0244
vn 0.6008 -0.7985 0.0367
vn 0.8214 -0.5676 0.0563
vn 0.5660 -0.8240 -0.0249
vn 0.5811 -0.8138 0.0009
vn 0.5871 -0.8082 -0.0450
vn 0.7752 -0.6312 0.0250
vn 0.7002 -0.7135 0.0246
vn 0.7752 -0.6312 -0.0247
vn 0.9364 -0.3465 0.0557
vn 0.8447 -0.5347 -0.0247
vn 0.9376 -0.3469 0.0241
vn 0.8448 -0.5347 0.0201
vn 0.8947 -0.4458 -0.0288
vn 0.9750 -0.2211 0.0230
vn 0.9750 -0.2211 -0.0227
vn 0.9954 -0.0932 -0.0213
vn 0.9917 0.1271 0.0212
vn 0.9916 0.1271 -0.0217
vn 0.9998 -0.0047 0.0216
vn 0.9681 0.2495 -0.0215
vn 0.8957 0.4442 0.0211
vn 0.8957 0.4442 -0.0217
vn 0.9437 0.3300 0.0216
vn 0.8412 0.5403 -0.0202
vn 0.7318 0.6813 0.0190
vn 0.7312 0.6807 0.0444
vn 0.9673 0.2492 -0.0476
vn 0.8412 0.5403 0.0205
vn 0.9954 -0.0932 0.0219
vn 0.9746 0.2100 -0.0776
vn 0.8937 -0.4453 -0.0538
vn 0.5992 -0.7992 0.0470
vn 0.9852 0.1652 0.0463
vn 0.9745 0.2099 0.0793
vn 0.8802 0.4742 -0.0215
vn 0.8793 0.4738 -0.0479
vn 0.8936 0.4425 -0.0759
vn 0.9860 0.1654 0.0210
vn 0.7143 0.6996 0.0185
vn 0.7138 0.6991 0.0417
vn 0.9825 -0.1801 0.0473
vn 0.5638 0.8240 -0.0557
vn 0.1621 0.9860 0.0390
vn -0.5940 0.8029 -0.0499
vn 0.7164 0.6950 0.0619
vn -0.1295 0.9880 0.0845
vn -0.1298 0.9908 -0.0394
vn -0.3704 0.9289 -0.0029
vn -0.5437 0.8392 0.0060
vn -0.3398 0.9404 0.0125
vn -0.5136 0.8578 -0.0227
vn -0.5130 0.8569 0.0510
vn -0.3397 0.9402 -0.0266
vn 0.0665 0.9977 -0.0122
vn -0.0504 0.9986 0.0164
vn -0.1307 0.9906 -0.0394
vn -0.7573 0.6531 0.0024
vn -0.7471 0.6635 0.0403
vn -0.6359 0.7718 -0.0054
vn -0.6348 0.7705 0.0576
vn -0.8501 0.5261 0.0245
usemtl Default_OBJ.328
s 1
f 1//1 2//1 3//1
f 3//1 2//1 4//1
f 4//2 5//2 3//2
f 3//3 6//3 1//3
f 3//4 7//4 6//4
f 3//5 8//5 9//5
f 9//6 7//6 3//6
f 3//7 10//7 8//7
f 3//8 11//8 10//8
f 3//2 5//2 11//2
f 5//9 12//9 13//9
f 13//10 14//11 5//12
f 15//13 16//13 5//13
f 5//13 17//13 15//13
f 4//2 17//2 5//2
f 5//13 14//13 11//13
f 5//14 16//14 12//14
f 12//15 16//15 18//15
f 18//16 16//16 19//16
f 19//17 16//17 15//17
f 19//18 20//18 21//18
f 19//19 21//19 18//19
f 22//20 20//20 19//20
f 19//21 23//21 22//21
f 15//17 23//17 19//17
f 22//22 23//22 24//22
f 22//23 24//23 25//23
f 25//24 20//24 22//24
f 25//25 26//25 27//25
f 27//26 28//26 25//26
f 28//27 20//27 25//27
f 25//28 24//28 26//28
f 27//29 26//29 29//29
f 29//30 26//30 30//30
f 30//31 26//31 31//31
f 26//32 24//32 31//32
f 24//33 23//34 31//35
f 31//36 32//36 33//36
f 31//37 33//37 30//37
f 31//38 34//39 32//40
f 15//16 34//39 31//38
f 31//35 23//34 15//41
f 34//42 35//42 36//42
f 32//43 34//43 36//43
f 15//17 35//17 34//17
f 36//44 35//44 37//44
f 37//45 35//45 17//45
f 17//13 35//13 15//13
f 36//46 37//46 38//46
f 38//47 37//47 39//47
f 39//48 37//48 40//48
f 37//49 17//49 40//49
f 40//50 41//50 39//50
f 17//13 42//13 40//13
f 40//51 42//51 41//51
f 41//52 42//52 4//52
f 4//2 42//2 17//2
f 43//53 41//53 44//53
f 39//54 41//54 43//54
f 45//55 41//55 4//55
f 44//56 41//56 45//56
f 45//57 46//57 47//57
f 45//57 4//57 46//57
f 48//57 45//57 47//57
f 48//58 44//58 45//58
f 48//57 47//57 49//57
f 48//59 50//59 44//59
f 51//57 48//57 49//57
f 51//60 50//60 48//60
f 52//57 51//57 53//57
f 52//61 54//61 51//61
f 54//62 50//62 51//62
f 51//57 49//57 53//57
f 49//63 55//63 53//63
f 56//57 52//57 53//57
f 56//57 53//57 57//57
f 53//64 55//65 57//66
f 56//57 57//57 58//57
f 57//66 55//65 59//67
f 57//68 59//68 60//68
f 57//69 60//69 58//69
f 60//70 61//70 58//70
f 62//57 56//57 58//57
f 58//71 61//71 63//71
f 62//57 58//57 63//57
f 62//72 64//72 56//72
f 65//73 66//73 62//73
f 67//74 65//74 62//74
f 62//75 66//75 64//75
f 67//57 62//57 63//57
f 67//57 68//57 69//57
f 67//57 63//57 68//57
f 70//76 65//76 67//76
f 69//77 70//77 67//77
f 69//57 68//57 71//57
f 72//78 73//78 69//78
f 71//79 72//79 69//79
f 73//80 70//80 69//80
f 68//81 74//81 71//81
f 74//82 75//82 71//82
f 75//83 72//83 71//83
f 76//84 72//84 75//84
f 76//85 75//85 74//85
f 76//86 74//86 77//86
f 77//87 78//87 76//87
f 78//88 79//88 76//88
f 79//89 80//89 76//89
f 76//90 80//90 81//90
f 81//91 72//91 76//91
f 80//92 82//92 81//92
f 81//93 82//93 83//93
f 83//94 70//94 81//94
f 81//95 73//95 72//95
f 81//96 70//96 73//96
f 82//97 84//97 83//97
f 83//98 84//98 85//98
f 85//99 86//99 83//99
f 86//100 87//100 83//100
f 83//101 87//101 70//101
f 70//102 87//102 65//102
f 65//103 87//103 86//103
f 64//104 66//105 86//106
f 64//104 86//106 88//107
f 86//108 66//108 65//108
f 88//107 86//106 85//109
f 89//110 64//111 88//112
f 89//113 88//113 90//113
f 91//114 88//107 85//109
f 90//115 88//115 91//115
f 90//116 92//116 93//116
f 93//117 54//117 90//117
f 94//118 92//118 90//118
f 90//119 95//119 94//119
f 90//120 54//120 89//120
f 91//121 95//121 90//121
f 93//122 92//122 96//122
f 96//123 92//123 94//123
f 97//124 96//124 98//124
f 98//125 96//125 94//125
f 97//126 38//126 96//126
f 93//127 96//127 43//127
f 96//128 38//128 43//128
f 36//129 38//129 97//129
f 97//130 33//130 36//130
f 98//131 99//131 97//131
f 97//132 99//132 100//132
f 97//133 100//133 33//133
f 100//134 99//134 101//134
f 101//135 99//135 98//135
f 98//136 102//136 101//136
f 101//137 102//137 103//137
f 101//138 103//138 104//138
f 105//139 100//139 101//139
f 104//140 105//140 101//140
f 104//141 106//142 107//143
f 107//143 108//144 104//141
f 108//145 109//146 104//147
f 104//148 103//148 106//148
f 109//149 105//149 104//149
f 29//150 109//146 108//145
f 30//151 109//151 29//151
f 30//152 105//152 109//152
f 107//153 106//153 110//153
f 106//154 111//154 110//154
f 103//155 111//155 106//155
f 111//156 112//156 113//156
f 110//157 111//157 113//157
f 103//158 112//158 111//158
f 114//159 112//160 115//161
f 113//162 112//160 114//159
f 116//163 112//163 102//163
f 115//164 112//165 116//166
f 102//167 112//167 103//167
f 117//168 114//168 115//168
f 116//166 118//169 115//164
f 115//170 119//170 117//170
f 115//171 120//171 119//171
f 115//172 118//173 120//174
f 120//174 118//173 121//175
f 116//176 122//177 118//178
f 118//173 123//179 121//175
f 95//180 123//181 118//178
f 118//178 122//177 95//180
f 94//182 122//182 116//182
f 95//183 122//183 94//183
f 121//184 123//184 91//184
f 91//185 123//185 95//185
f 120//186 121//187 84//188
f 84//189 121//189 85//189
f 85//190 121//190 91//190
f 119//191 120//186 124//192
f 124//192 120//186 84//188
f 124//193 84//193 82//193
f 117//194 119//194 124//194
f 125//195 124//195 82//195
f 126//196 124//196 125//196
f 117//197 124//198 126//199
f 127//200 114//200 126//200
f 127//201 126//201 125//201
f 126//199 114//202 117//197
f 113//203 114//203 127//203
f 128//204 113//204 127//204
f 129//205 127//205 125//205
f 128//206 127//206 129//206
f 128//207 129//207 130//207
f 130//208 131//208 128//208
f 131//209 132//209 128//209
f 128//210 132//210 133//210
f 133//211 113//211 128//211
f 110//212 113//212 133//212
f 133//213 132//213 110//213
f 134//214 132//214 131//214
f 110//215 132//215 134//215
f 134//216 107//216 110//216
f 135//217 107//217 134//217
f 135//218 134//218 136//218
f 136//219 134//219 131//219
f 136//220 137//220 135//220
f 137//221 138//221 135//221
f 135//222 138//222 139//222
f 139//223 107//223 135//223
f 138//224 140//225 139//225
f 139//226 140//227 141//228
f 141//228 108//145 139//226
f 139//144 108//144 107//143
f 141//228 140//227 142//229
f 29//150 108//145 141//228
f 141//230 142//231 27//230
f 27//230 29//232 141//230
f 142//233 143//233 144//233
f 144//234 28//234 142//234
f 142//229 140//227 143//235
f 142//236 28//236 27//236
f 144//237 143//237 145//237
f 145//238 143//238 146//238
f 143//235 140//227 146//239
f 146//240 140//225 138//224
f 138//224 147//241 146//240
f 148//242 145//242 146//242
f 146//243 149//243 148//243
f 146//244 147//244 149//244
f 150//245 151//245 147//245
f 150//246 147//246 138//246
f 147//247 151//247 149//247
f 152//248 151//248 150//248
f 149//249 151//249 153//249
f 153//250 151//250 152//250
f 154//251 152//251 150//251
f 155//252 152//252 156//252
f 157//253 152//253 155//253
f 156//254 152//254 154//254
f 157//255 153//256 152//257
f 150//258 158//258 154//258
f 154//259 158//259 156//259
f 137//260 158//260 150//260
f 156//261 158//261 159//261
f 159//262 158//262 137//262
f 160//263 159//263 161//263
f 161//264 159//264 136//264
f 159//265 137//265 136//265
f 162//266 159//266 160//266
f 156//267 159//267 162//267
f 163//268 160//268 161//268
f 162//269 160//269 163//269
f 164//270 163//270 165//270
f 166//271 163//271 164//271
f 165//272 163//272 161//272
f 162//273 163//273 166//273
f 166//274 167//274 168//274
f 168//275 169//275 166//275
f 169//276 170//276 166//276
f 166//277 170//277 162//277
f 171//278 167//278 166//278
f 166//279 164//279 171//279
f 172//280 167//280 171//280
f 168//281 167//281 173//281
f 173//282 167//282 172//282
f 174//283 172//283 175//283
f 173//284 172//284 174//284
f 175//285 172//285 176//285
f 172//286 171//286 176//286
f 176//287 171//287 165//287
f 165//288 177//288 176//288
f 176//289 177//289 178//289
f 176//290 178//290 175//290
f 165//291 179//291 177//291
f 177//292 179//292 180//292
f 180//293 181//293 177//293
f 177//294 181//294 178//294
f 182//295 181//295 180//295
f 183//296 181//296 182//296
f 178//297 181//297 183//297
f 183//298 184//298 185//298
f 185//299 186//299 183//299
f 186//300 178//300 183//300
f 187//301 184//301 183//301
f 183//302 182//302 187//302
f 187//303 182//303 188//303
f 189//304 187//304 188//304
f 187//305 190//305 184//305
f 189//306 190//306 187//306
f 191//307 190//307 189//307
f 189//308 192//308 193//308
f 189//309 193//309 191//309
f 188//310 192//310 189//310
f 194//311 195//311 191//311
f 191//312 196//312 194//312
f 195//313 197//314 191//315
f 191//316 197//316 190//316
f 191//317 193//317 196//317
f 196//318 198//318 194//318
f 196//319 199//319 198//319
f 200//320 199//320 196//320
f 196//321 193//321 201//321
f 196//322 201//322 202//322
f 196//323 202//323 200//323
f 202//324 203//324 200//324
f 200//325 204//325 199//325
f 205//326 204//326 200//326
f 200//327 203//327 206//327
f 200//328 206//328 205//328
f 205//329 207//329 208//329
f 209//330 205//330 208//330
f 209//331 204//331 205//331
f 205//332 206//332 207//332
f 207//333 210//333 208//333
f 207//334 211//334 210//334
f 206//335 59//335 207//335
f 49//336 211//336 207//336
f 207//337 55//337 49//337
f 59//338 55//338 207//338
f 47//339 211//339 49//339
f 210//340 211//340 212//340
f 212//341 211//341 47//341
f 213//342 212//342 214//342
f 214//343 212//343 46//343
f 208//344 210//344 212//344
f 208//345 212//345 213//345
f 46//346 212//346 47//346
f 215//347 216//347 213//347
f 217//348 215//348 213//348
f 213//349 214//349 217//349
f 213//350 216//350 208//350
f 216//351 209//351 208//351
f 216//352 218//352 209//352
f 219//353 218//353 216//353
f 219//354 216//354 215//354
f 220//355 221//355 219//355
f 222//356 220//356 219//356
f 219//357 221//357 218//357
f 219//358 215//358 222//358
f 223//359 220//359 222//359
f 224//360 223//361 222//362
f 222//362 215//363 224//360
f 2//364 223//365 224//366
f 224//367 225//367 2//367
f 224//368 215//368 225//368
f 225//369 215//369 217//369
f 217//370 226//370 225//370
f 225//371 226//371 2//371
f 226//372 214//372 46//372
f 4//373 226//373 46//373
f 217//374 214//374 226//374
f 2//375 226//375 4//375
f 227//376 220//376 223//376
f 227//377 223//377 228//377
f 229//378 223//365 2//364
f 228//379 223//379 229//379
f 230//380 231//380 228//380
f 230//381 228//381 229//381
f 228//382 231//382 227//382
f 232//383 233//383 231//383
f 232//384 231//384 230//384
f 227//385 231//385 234//385
f 231//386 235//386 234//386
f 233//387 235//387 231//387
f 236//388 235//388 233//388
f 234//389 235//389 236//389
f 236//390 233//390 237//390
f 237//391 238//391 236//391
f 236//392 239//392 234//392
f 236//393 240//393 239//393
f 238//394 240//394 236//394
f 238//395 241//395 242//395
f 242//396 240//396 238//396
f 243//397 241//397 238//397
f 238//398 244//398 243//398
f 237//399 244//399 238//399
f 245//400 246//401 241//402
f 245//403 241//404 243//405
f 241//402 247//406 195//407
f 241//408 195//409 242//410
f 246//401 247//406 241//402
f 190//411 197//412 247//413
f 247//414 197//314 195//313
f 184//415 247//416 246//417
f 190//411 247//413 184//418
f 185//419 246//419 245//419
f 184//415 246//417 185//420
f 248//421 245//403 243//405
f 185//422 245//422 248//422
f 248//423 186//423 185//423
f 249//424 186//424 248//424
f 243//405 250//425 248//421
f 248//426 250//426 251//426
f 248//427 251//427 252//427
f 249//428 248//428 252//428
f 253//429 174//429 249//429
f 252//430 253//430 249//430
f 249//431 174//431 175//431
f 175//432 186//432 249//432
f 254//433 253//433 255//433
f 255//434 253//435 256//436
f 253//435 257//437 256//436
f 252//438 258//438 253//438
f 254//439 174//439 253//439
f 253//440 258//440 257//440
f 257//441 258//441 259//441
f 259//442 258//442 252//442
f 259//443 237//443 260//443
f 260//444 261//444 259//444
f 261//445 257//445 259//445
f 251//446 250//446 259//446
f 252//447 251//447 259//447
f 259//448 250//448 237//448
f 261//449 262//449 263//449
f 264//450 261//450 263//450
f 260//451 265//451 261//451
f 264//452 266//452 261//452
f 261//453 265//453 262//453
f 266//454 257//454 261//454
f 256//455 257//455 266//455
f 256//456 266//456 264//456
f 232//457 265//457 260//457
f 262//458 265//458 232//458
f 267//459 262//459 232//459
f 263//460 262//460 268//460
f 268//461 262//461 267//461
f 269//462 267//462 270//462
f 271//463 267//463 269//463
f 271//464 268//464 267//464
f 270//465 267//465 230//465
f 230//466 267//466 232//466
f 269//467 270//467 272//467
f 272//468 270//468 229//468
f 229//469 270//469 230//469
f 272//470 273//470 269//470
f 274//471 273//471 272//471
f 275//472 272//473 1//474
f 274//475 272//476 275//477
f 1//474 272//473 229//478
f 275//477 276//479 274//475
f 274//480 276//480 277//480
f 277//481 273//481 274//481
f 276//482 278//482 277//482
f 278//483 279//483 277//483
f 277//484 280//484 273//484
f 279//485 280//485 277//485
f 281//486 280//486 282//486
f 273//487 280//487 281//487
f 283//488 280//488 279//488
f 282//489 280//489 283//489
f 282//490 284//491 281//492
f 285//493 282//494 283//495
f 285//493 284//496 282//494
f 286//497 287//497 285//497
f 283//495 286//498 285//493
f 287//499 288//499 285//499
f 285//500 288//500 289//500
f 290//501 284//501 285//501
f 289//502 290//502 285//502
f 290//503 291//503 264//503
f 264//504 292//504 290//504
f 290//505 292//505 284//505
f 293//506 291//507 290//508
f 289//509 293//506 290//508
f 293//510 294//511 291//512
f 294//511 295//513 291//512
f 291//512 295//513 255//514
f 256//515 291//512 255//514
f 264//516 291//516 256//516
f 296//517 295//518 294//519
f 255//520 295//520 254//520
f 254//521 295//521 296//521
f 254//522 296//522 173//522
f 173//523 296//523 297//523
f 297//524 296//524 298//524
f 296//517 294//519 298//525
f 297//526 298//526 299//526
f 299//527 298//527 300//527
f 298//528 294//529 301//530
f 298//528 301//530 300//531
f 302//532 303//532 300//532
f 289//533 302//533 300//533
f 300//534 293//534 289//534
f 300//535 301//535 293//535
f 300//536 303//536 299//536
f 303//537 304//537 299//537
f 305//538 303//538 302//538
f 306//539 303//539 305//539
f 306//540 304//541 303//542
f 307//543 304//543 308//543
f 309//544 304//544 307//544
f 299//545 304//545 309//545
f 308//546 304//541 306//540
f 307//547 308//547 310//547
f 308//548 306//548 311//548
f 310//549 308//549 311//549
f 311//550 312//550 310//550
f 310//551 312//551 313//551
f 310//552 313//552 314//552
f 314//553 307//553 310//553
f 315//554 312//554 311//554
f 313//555 312//555 315//555
f 316//556 315//556 311//556
f 317//557 318//557 315//557
f 317//558 315//558 319//558
f 319//559 315//559 316//559
f 315//560 318//560 313//560
f 313//561 318//561 320//561
f 320//562 318//562 317//562
f 320//5 321//5 322//5
f 322//563 323//563 320//563
f 320//564 323//564 313//564
f 317//5 324//5 320//5
f 320//5 324//5 321//5
f 324//565 325//565 321//565
f 326//5 324//5 317//5
f 326//566 327//566 324//566
f 324//567 327//567 325//567
f 321//568 325//568 328//568
f 328//569 325//569 329//569
f 329//570 325//570 330//570
f 327//101 331//101 325//101
f 325//102 331//102 330//102
f 330//571 332//571 333//571
f 330//572 333//572 329//572
f 330//573 334//573 335//573
f 335//574 332//574 330//574
f 330//575 331//575 334//575
f 336//576 334//577 337//578
f 338//579 334//580 336//581
f 337//582 334//582 327//582
f 334//583 331//583 327//583
f 335//584 334//580 338//579
f 339//585 338//586 336//587
f 340//588 338//588 341//588
f 341//589 338//589 339//589
f 335//584 338//579 340//590
f 342//591 343//591 340//591
f 341//592 342//592 340//592
f 340//593 343//593 344//593
f 340//594 344//594 335//594
f 342//595 345//596 343//597
f 343//598 345//599 344//600
f 342//595 346//601 345//596
f 345//596 346//601 347//602
f 348//603 345//604 347//605
f 344//600 345//599 349//606
f 349//606 345//599 348//607
f 347//605 153//608 348//603
f 350//609 351//609 348//609
f 348//610 157//610 350//610
f 348//611 153//256 157//255
f 348//612 351//612 349//612
f 349//613 351//614 352//615
f 352//616 351//616 350//616
f 353//617 352//617 354//617
f 333//618 352//618 353//618
f 354//619 352//620 350//621
f 332//622 349//613 352//615
f 332//623 352//623 333//623
f 354//624 155//624 353//624
f 354//625 157//625 155//625
f 350//621 157//626 354//619
f 355//627 333//627 353//627
f 353//628 155//628 356//628
f 353//629 356//629 357//629
f 357//630 355//630 353//630
f 357//631 358//631 359//631
f 359//632 355//632 357//632
f 357//633 356//633 358//633
f 359//634 358//634 170//634
f 170//635 358//635 162//635
f 358//636 356//636 162//636
f 359//637 170//637 360//637
f 360//638 361//638 359//638
f 361//639 355//639 359//639
f 362//640 361//640 360//640
f 363//641 355//641 361//641
f 363//642 361//642 362//642
f 314//643 362//643 364//643
f 364//644 362//644 365//644
f 365//645 362//645 360//645
f 363//646 362//646 314//646
f 309//647 364//647 365//647
f 365//648 168//648 309//648
f 360//649 169//649 365//649
f 365//650 169//650 168//650
f 314//651 364//651 307//651
f 307//652 364//652 309//652
f 323//653 366//653 363//653
f 314//654 323//654 363//654
f 366//655 367//655 363//655
f 363//656 367//656 329//656
f 329//657 355//657 363//657
f 321//658 328//658 367//658
f 321//659 367//659 322//659
f 322//660 367//660 366//660
f 367//661 328//661 329//661
f 322//662 366//662 323//662
f 360//663 170//663 169//663
f 329//664 333//664 355//664
f 162//665 356//665 156//665
f 356//666 155//666 156//666
f 344//667 349//613 332//622
f 368//668 153//668 347//668
f 369//669 368//669 347//669
f 347//670 346//670 370//670
f 347//671 370//671 369//671
f 370//672 371//672 369//672
f 369//673 371//673 372//673
f 372//674 373//674 369//674
f 148//675 368//675 369//675
f 369//676 373//676 148//676
f 373//677 374//677 148//677
f 372//678 374//678 373//678
f 374//679 145//679 148//679
f 375//680 374//680 372//680
f 144//681 145//681 374//681
f 144//682 374//682 375//682
f 376//683 13//683 375//683
f 376//684 375//684 372//684
f 144//685 375//685 18//685
f 375//686 13//686 18//686
f 377//687 378//687 376//687
f 372//688 377//688 376//688
f 376//689 14//11 13//10
f 378//42 14//42 376//42
f 379//17 14//17 378//17
f 379//690 378//690 380//690
f 380//691 378//691 377//691
f 380//692 377//692 381//692
f 381//693 10//693 380//693
f 380//694 10//694 379//694
f 382//695 10//695 381//695
f 381//696 377//696 371//696
f 381//697 371//697 383//697
f 383//127 382//127 381//127
f 383//698 384//698 382//698
f 8//699 10//699 382//699
f 8//700 382//700 385//700
f 382//701 384//701 386//701
f 382//702 386//702 385//702
f 8//5 385//5 387//5
f 387//5 385//5 388//5
f 385//5 389//5 388//5
f 385//703 386//703 389//703
f 390//704 391//704 388//704
f 388//705 391//705 387//705
f 388//5 389//5 392//5
f 392//706 393//706 388//706
f 388//707 393//707 390//707
f 390//708 394//708 395//708
f 393//709 394//709 390//709
f 390//710 396//710 391//710
f 397//711 396//711 390//711
f 390//712 395//712 398//712
f 390//713 398//713 397//713
f 397//714 278//714 399//714
f 399//715 400//715 397//715
f 400//716 396//716 397//716
f 397//717 286//717 278//717
f 398//718 286//718 397//718
f 9//719 400//719 7//719
f 387//720 400//720 9//720
f 7//721 400//721 399//721
f 387//722 391//722 400//722
f 391//723 396//723 400//723
f 399//724 276//724 401//724
f 401//725 7//725 399//725
f 399//726 278//726 276//726
f 6//727 7//727 401//727
f 1//728 6//728 401//728
f 401//729 276//729 402//729
f 401//730 402//730 1//730
f 402//731 276//731 275//731
f 1//732 402//732 275//732
f 398//733 395//733 403//733
f 398//734 404//734 286//734
f 403//735 404//735 398//735
f 403//736 405//736 406//736
f 406//737 302//737 403//737
f 302//738 287//738 403//738
f 395//739 405//739 403//739
f 403//740 287//740 404//740
f 316//741 405//741 394//741
f 394//742 405//742 395//742
f 406//743 405//743 316//743
f 311//744 305//744 406//744
f 311//745 406//745 316//745
f 406//746 305//746 302//746
f 404//747 287//747 286//747
f 316//748 394//748 407//748
f 407//749 394//750 393//751
f 407//5 408//5 409//5
f 409//752 316//752 407//752
f 392//5 408//5 407//5
f 407//749 393//751 392//753
f 410//5 408//5 392//5
f 410//754 339//754 408//754
f 339//585 336//587 408//755
f 408//5 326//5 409//5
f 408//756 336//756 326//756
f 389//5 410//5 392//5
f 410//757 411//757 339//757
f 389//758 411//758 410//758
f 411//759 341//759 339//759
f 389//760 386//760 411//760
f 386//761 384//761 411//761
f 383//762 341//762 411//762
f 411//763 384//763 383//763
f 409//764 319//764 316//764
f 409//5 326//5 317//5
f 317//765 319//765 409//765
f 9//5 8//5 387//5
f 383//766 412//766 341//766
f 371//767 412//767 383//767
f 341//768 412//768 370//768
f 370//769 412//769 371//769
f 11//13 14//13 379//13
f 10//770 11//770 379//770
f 371//771 377//771 372//771
f 370//772 342//772 341//772
f 370//773 346//773 342//773
f 148//774 149//774 368//774
f 149//775 153//775 368//775
f 335//776 344//776 332//776
f 336//576 337//578 326//777
f 326//778 337//778 327//778
f 313//779 323//779 314//779
f 311//780 306//780 305//780
f 309//781 168//781 297//781
f 309//782 297//782 299//782
f 289//783 288//783 302//783
f 302//784 288//784 287//784
f 301//785 294//511 293//510
f 297//786 168//786 173//786
f 281//787 292//787 263//787
f 284//491 292//788 281//492
f 263//789 292//789 264//789
f 283//790 279//790 286//790
f 286//791 279//791 278//791
f 271//792 281//792 263//792
f 273//793 281//793 271//793
f 269//794 273//794 271//794
f 263//795 268//795 271//795
f 260//796 413//796 232//796
f 237//797 413//797 260//797
f 413//798 233//798 232//798
f 237//799 233//799 413//799
f 173//800 174//800 254//800
f 250//801 244//801 237//801
f 243//802 244//802 250//802
f 414//803 415//803 242//803
f 414//804 242//804 194//804
f 242//805 415//805 240//805
f 242//410 195//409 194//806
f 414//807 416//808 415//809
f 415//810 416//811 239//812
f 240//813 415//810 239//812
f 417//814 221//814 416//814
f 416//815 221//815 239//815
f 417//816 416//808 414//807
f 209//817 218//817 417//817
f 414//807 209//818 417//816
f 218//819 221//819 417//819
f 198//820 199//820 414//820
f 194//821 198//821 414//821
f 414//822 199//822 209//822
f 239//823 221//823 220//823
f 234//824 239//824 220//824
f 234//825 220//825 227//825
f 229//826 2//826 1//826
f 199//827 204//827 209//827
f 60//828 59//828 203//828
f 203//829 59//829 206//829
f 60//830 203//830 202//830
f 202//831 201//831 418//831
f 418//832 60//832 202//832
f 418//833 419//833 60//833
f 420//834 421//834 418//834
f 418//835 422//835 420//835
f 201//836 423//836 418//836
f 418//837 423//837 422//837
f 421//838 419//838 418//838
f 193//839 423//839 201//839
f 193//840 192//841 423//842
f 423//842 192//841 422//843
f 424//844 425//844 419//844
f 424//845 419//845 421//845
f 60//846 419//846 61//846
f 61//847 419//847 63//847
f 419//848 425//848 63//848
f 68//849 425//849 424//849
f 63//850 425//850 68//850
f 77//851 74//851 424//851
f 77//852 424//852 420//852
f 424//853 421//853 420//853
f 424//854 74//854 68//854
f 420//855 422//855 426//855
f 422//856 192//856 426//856
f 426//857 192//857 188//857
f 188//858 427//858 426//858
f 420//859 426//859 77//859
f 426//860 427//860 77//860
f 427//861 78//861 77//861
f 428//862 427//862 188//862
f 428//863 78//863 427//863
f 188//864 182//864 428//864
f 182//865 429//865 428//865
f 428//866 429//866 430//866
f 430//867 78//867 428//867
f 429//868 431//868 430//868
f 430//869 431//869 432//869
f 432//870 79//870 430//870
f 430//871 79//871 78//871
f 431//872 433//872 432//872
f 432//873 433//873 434//873
f 434//874 80//874 432//874
f 432//875 80//875 79//875
f 433//876 129//876 434//876
f 434//877 129//877 125//877
f 125//878 80//878 434//878
f 130//879 433//879 431//879
f 130//880 129//880 433//880
f 180//881 431//881 429//881
f 130//882 431//882 180//882
f 180//883 429//883 182//883
f 175//884 178//884 186//884
f 179//885 435//885 180//885
f 180//886 435//886 130//886
f 435//887 436//887 130//887
f 161//888 436//888 435//888
f 161//889 435//889 165//889
f 165//890 435//890 179//890
f 161//891 131//891 436//891
f 436//892 131//892 130//892
f 171//893 164//893 165//893
f 136//894 131//894 161//894
f 150//895 138//895 137//895
f 18//896 28//896 144//896
f 125//897 82//897 80//897
f 116//898 102//898 98//898
f 98//899 94//899 116//899
f 30//900 100//900 105//900
f 33//901 100//901 30//901
f 43//697 44//697 93//697
f 93//902 437//902 54//902
f 44//903 437//903 93//903
f 44//904 50//904 437//904
f 437//905 50//905 54//905
f 56//906 64//111 89//110
f 56//907 89//907 52//907
f 89//908 54//908 52//908
f 43//909 38//909 39//909
f 33//910 32//910 36//910
f 18//911 21//911 28//911
f 21//912 20//912 28//912
f 13//913 12//913 18//913
