# Blender v3.0.1 OBJ File: ''
# www.blender.org
mtllib Medium_Long_Circle_DarkBlue.mtl
o obj1.051_obj1.005
v -19.719391 -4.191520 74.999992
v -20.159912 -0.000004 -75.000008
v -19.719391 -4.191506 -75.000008
v -20.159912 -0.000019 74.999992
v -19.719391 4.191479 74.999992
v -18.416992 -8.199828 74.999992
v -19.719391 4.191494 -75.000008
v -18.416992 -8.199815 -75.000008
v -16.309692 -11.849769 74.999992
v -13.489594 -14.981805 -75.000008
v -16.309692 -11.849755 -75.000008
v -13.489594 -14.981818 74.999992
v -10.079926 -17.459091 74.999992
v -10.079926 -17.459076 -75.000008
v -6.229706 -19.173302 -75.000008
v -6.229706 -19.173317 74.999992
v 13.489746 -14.981805 -75.000008
v -2.107208 -20.049583 74.999992
v -2.107208 -20.049568 -75.000015
v 2.107361 -20.049568 -75.000015
v 6.229858 -19.173302 -75.000008
v 10.080078 -17.459076 -75.000008
v 13.489746 -14.981818 74.999992
v 16.309875 -11.849769 74.999992
v -18.416992 8.199805 -75.000008
v -10.079926 17.459068 -75.000008
v 16.309875 -11.849755 -75.000008
v 18.417145 -8.199815 -75.000008
v -6.229706 19.173294 -75.000008
v -13.489594 14.981782 74.999992
v -10.079926 17.459053 74.999992
v -13.489594 14.981795 -75.000008
v -16.309692 11.849732 74.999992
v -16.309692 11.849746 -75.000008
v -18.416992 8.199792 74.999992
v -6.229706 19.173279 74.999992
v 13.489746 14.981782 74.999992
v 6.229858 19.173279 74.999992
v -2.107208 20.049541 74.999992
v 18.417145 -8.199828 74.999992
v -2.107208 20.049557 -75.000008
v 6.229858 19.173294 -75.000008
v 2.107361 20.049557 -75.000008
v 2.107361 20.049541 74.999992
v 10.080078 17.459068 -75.000008
v 13.489746 14.981795 -75.000008
v 10.080078 17.459053 74.999992
v 16.309875 11.849746 -75.000008
v 19.719543 4.191494 -75.000008
v 18.417145 8.199805 -75.000008
v 16.309875 11.849732 74.999992
v 19.719543 -4.191506 -75.000008
v 20.160065 -0.000004 -75.000008
v 19.719543 4.191479 74.999992
v 20.160065 -0.000019 74.999992
v 18.417145 8.199792 74.999992
v 19.719543 -4.191520 74.999992
v 6.229858 -19.173317 74.999992
v 10.080078 -17.459091 74.999992
v 2.107361 -20.049583 74.999992
vn -0.9945 -0.1045 -0.0000
vn -0.0000 0.0000 1.0000
vn -0.9511 -0.3090 -0.0000
vn -0.0000 0.0000 -1.0000
vn -0.8660 -0.5000 -0.0000
vn -0.7431 -0.6691 -0.0000
vn -0.5878 -0.8090 -0.0000
vn -0.4067 -0.9135 -0.0000
vn -0.2079 -0.9781 -0.0000
vn 0.5878 -0.8090 -0.0000
vn 0.7431 -0.6691 -0.0000
vn -0.5878 0.8090 0.0000
vn -0.4067 0.9135 0.0000
vn -0.7431 0.6691 0.0000
vn -0.8660 0.5000 0.0000
vn -0.9511 0.3090 0.0000
vn -0.2079 0.9781 0.0000
vn 0.0000 1.0000 0.0000
vn 0.2079 0.9781 0.0000
vn 0.4067 0.9135 0.0000
vn 0.5878 0.8090 0.0000
vn 0.7431 0.6691 0.0000
vn 0.8660 0.5000 0.0000
vn 0.9945 0.1045 0.0000
vn 0.9511 0.3090 0.0000
vn 0.9945 -0.1045 -0.0000
vn 0.9511 -0.3090 -0.0000
vn 0.8660 -0.5000 -0.0000
vn 0.0000 -1.0000 -0.0000
vn 0.2079 -0.9781 -0.0000
vn 0.4067 -0.9135 -0.0000
vn -0.9945 0.1045 0.0000
usemtl Default_OBJ.316
s 1
f 1//1 2//1 3//1
f 1//1 4//1 2//1
f 5//2 1//2 6//2
f 6//3 1//3 3//3
f 5//2 4//2 1//2
f 2//4 7//4 3//4
f 3//4 7//4 8//4
f 6//3 3//3 8//3
f 9//5 6//5 8//5
f 8//4 7//4 10//4
f 9//5 8//5 11//5
f 11//4 8//4 10//4
f 12//6 11//6 10//6
f 13//7 12//7 10//7
f 13//7 10//7 14//7
f 10//4 15//4 14//4
f 10//4 7//4 15//4
f 16//8 13//8 15//8
f 13//8 14//8 15//8
f 7//4 17//4 15//4
f 18//9 16//9 15//9
f 18//9 15//9 19//9
f 15//4 20//4 19//4
f 15//4 17//4 20//4
f 21//4 17//4 22//4
f 20//4 17//4 21//4
f 23//10 22//10 17//10
f 24//11 23//11 17//11
f 25//4 26//4 17//4
f 25//4 17//4 7//4
f 24//11 17//11 27//11
f 17//4 28//4 27//4
f 17//4 29//4 28//4
f 26//4 29//4 17//4
f 30//12 31//12 26//12
f 31//13 29//13 26//13
f 30//12 26//12 32//12
f 32//4 26//4 25//4
f 33//14 30//14 32//14
f 33//14 32//14 34//14
f 34//4 32//4 25//4
f 35//15 33//15 34//15
f 35//15 34//15 25//15
f 31//2 35//2 23//2
f 31//2 30//2 35//2
f 30//2 33//2 35//2
f 23//2 35//2 5//2
f 35//16 25//16 7//16
f 5//16 35//16 7//16
f 36//2 31//2 23//2
f 31//13 36//13 29//13
f 37//2 38//2 36//2
f 38//2 39//2 36//2
f 37//2 36//2 40//2
f 36//2 23//2 40//2
f 36//17 39//17 41//17
f 36//17 41//17 29//17
f 41//4 42//4 29//4
f 43//4 42//4 41//4
f 39//18 43//18 41//18
f 44//19 42//19 43//19
f 39//18 44//18 43//18
f 38//2 44//2 39//2
f 44//19 38//19 42//19
f 38//20 45//20 42//20
f 42//4 46//4 29//4
f 45//4 46//4 42//4
f 47//21 37//21 45//21
f 37//21 46//21 45//21
f 38//20 47//20 45//20
f 37//2 47//2 38//2
f 28//4 46//4 48//4
f 29//4 46//4 28//4
f 37//22 48//22 46//22
f 49//4 48//4 50//4
f 51//23 50//23 48//23
f 28//4 48//4 52//4
f 37//22 51//22 48//22
f 52//4 48//4 53//4
f 53//4 48//4 49//4
f 54//24 53//24 49//24
f 54//25 49//25 50//25
f 51//2 55//2 54//2
f 54//24 55//24 53//24
f 56//25 54//25 50//25
f 51//2 54//2 56//2
f 51//23 56//23 50//23
f 55//26 52//26 53//26
f 55//26 57//26 52//26
f 51//2 57//2 55//2
f 51//2 40//2 57//2
f 57//27 40//27 52//27
f 40//27 28//27 52//27
f 37//2 40//2 51//2
f 40//28 24//28 28//28
f 40//2 23//2 24//2
f 24//28 27//28 28//28
f 23//2 58//2 59//2
f 23//2 60//2 58//2
f 23//10 59//10 22//10
f 23//2 5//2 16//2
f 23//2 16//2 60//2
f 60//2 16//2 18//2
f 60//29 18//29 20//29
f 60//30 20//30 21//30
f 58//30 60//30 21//30
f 59//31 21//31 22//31
f 59//31 58//31 21//31
f 18//29 19//29 20//29
f 16//2 12//2 13//2
f 5//2 12//2 16//2
f 5//2 6//2 12//2
f 6//2 9//2 12//2
f 12//6 9//6 11//6
f 4//32 5//32 7//32
f 4//32 7//32 2//32
