# Blender v3.0.1 OBJ File: ''
# www.blender.org
mtllib Medium_Long_Hexagon_Red.mtl
o obj1.054_obj1.005
v -18.116821 -9.882297 74.999985
v -18.290527 -8.897281 74.999985
v -18.290527 -8.897275 -75.000008
v -18.116821 -9.882291 -75.000008
v -17.616730 -10.748507 74.999985
v -17.616730 -10.748502 -75.000008
v -16.850525 -11.391437 74.999985
v 18.290405 -8.897281 74.999985
v 1.439941 -20.288670 74.999985
v -1.440063 -20.288670 74.999985
v -1.440063 -20.288662 -75.000008
v -16.850525 -11.391431 -75.000008
v 18.290405 8.897189 -75.000008
v 18.290405 -8.897275 -75.000008
v 16.850403 -11.391431 -75.000008
v 1.439941 -20.288662 -75.000008
v 0.500031 -20.630749 -75.000008
v -0.500153 -20.630756 74.999985
v -0.500153 -20.630749 -75.000008
v 17.616608 -10.748502 -75.000008
v 16.850403 -11.391437 74.999985
v 18.116699 -9.882291 -75.000008
v 17.616608 -10.748507 74.999985
v 18.116699 -9.882297 74.999985
v 0.500031 -20.630756 74.999985
v -18.290527 8.897189 -75.000008
v 16.850403 11.391345 -75.000008
v 17.616608 10.748416 -75.000008
v 18.116699 9.882199 74.999985
v 18.290405 8.897183 74.999985
v 18.116699 9.882205 -75.000008
v 17.616608 10.748410 74.999985
v 16.850403 11.391339 74.999985
v 1.439941 20.288570 74.999985
v -1.440063 20.288570 74.999985
v -18.290527 8.897183 74.999985
v 0.500031 20.630657 74.999985
v 1.439941 20.288578 -75.000008
v 0.500031 20.630665 -75.000008
v -0.500153 20.630657 74.999985
v -0.500153 20.630665 -75.000008
v -1.440063 20.288578 -75.000008
v -16.850525 11.391339 74.999985
v -16.850525 11.391345 -75.000008
v -17.616730 10.748416 -75.000008
v -18.116821 9.882205 -75.000008
v -17.616730 10.748410 74.999985
v -18.116821 9.882199 74.999985
vn -0.9848 -0.1737 -0.0000
vn -0.8660 -0.5000 -0.0000
vn -0.0000 0.0000 1.0000
vn -0.6428 -0.7660 -0.0000
vn -0.5000 -0.8660 -0.0000
vn 0.0000 0.0000 -1.0000
vn -0.3420 -0.9397 -0.0000
vn 0.5000 -0.8660 -0.0000
vn 0.6428 -0.7660 -0.0000
vn 0.8660 -0.5000 -0.0000
vn 0.9848 -0.1737 -0.0000
vn 0.3420 -0.9397 -0.0000
vn 0.0000 -1.0000 -0.0000
vn 0.9848 0.1737 0.0000
vn 1.0000 0.0000 0.0000
vn 0.6428 0.7660 0.0000
vn 0.8660 0.5000 0.0000
vn 0.5000 0.8660 0.0000
vn 0.3420 0.9397 0.0000
vn 0.0000 1.0000 0.0000
vn -0.3420 0.9397 0.0000
vn -0.5000 0.8660 0.0000
vn -0.6428 0.7660 0.0000
vn -0.8660 0.5000 0.0000
vn -0.9848 0.1737 0.0000
vn -1.0000 0.0000 0.0000
usemtl Default_OBJ.318
s 1
f 1//1 2//1 3//1
f 1//1 3//1 4//1
f 5//2 1//2 4//2
f 2//3 1//3 5//3
f 5//2 4//2 6//2
f 2//3 5//3 7//3
f 7//4 5//4 6//4
f 8//3 7//3 9//3
f 8//3 2//3 7//3
f 9//3 7//3 10//3
f 10//5 7//5 11//5
f 7//5 12//5 11//5
f 7//4 6//4 12//4
f 12//6 13//6 11//6
f 11//6 13//6 14//6
f 11//6 14//6 15//6
f 11//6 15//6 16//6
f 11//6 16//6 17//6
f 18//7 10//7 11//7
f 18//7 11//7 19//7
f 11//6 17//6 19//6
f 15//6 14//6 20//6
f 21//8 9//8 15//8
f 21//9 15//9 20//9
f 9//8 16//8 15//8
f 20//6 14//6 22//6
f 23//9 21//9 20//9
f 23//10 20//10 22//10
f 8//11 24//11 22//11
f 24//10 23//10 22//10
f 8//11 22//11 14//11
f 8//3 23//3 24//3
f 8//3 21//3 23//3
f 8//3 9//3 21//3
f 9//12 25//12 17//12
f 25//13 19//13 17//13
f 9//12 17//12 16//12
f 9//3 18//3 25//3
f 25//13 18//13 19//13
f 26//6 13//6 12//6
f 27//6 28//6 13//6
f 26//6 27//6 13//6
f 29//14 30//14 13//14
f 29//14 13//14 31//14
f 13//6 28//6 31//6
f 30//15 8//15 13//15
f 8//15 14//15 13//15
f 32//16 28//16 27//16
f 32//17 31//17 28//17
f 33//16 32//16 27//16
f 32//3 33//3 30//3
f 32//3 30//3 29//3
f 32//17 29//17 31//17
f 34//18 33//18 27//18
f 33//3 35//3 36//3
f 33//3 36//3 30//3
f 33//3 34//3 35//3
f 34//3 37//3 35//3
f 34//18 27//18 38//18
f 34//19 38//19 39//19
f 37//19 34//19 39//19
f 37//3 40//3 35//3
f 40//20 37//20 39//20
f 35//21 40//21 41//21
f 40//20 39//20 41//20
f 41//6 39//6 42//6
f 35//21 41//21 42//21
f 39//6 38//6 42//6
f 43//22 35//22 42//22
f 38//6 27//6 42//6
f 42//6 27//6 26//6
f 44//6 42//6 26//6
f 43//22 42//22 44//22
f 45//6 44//6 26//6
f 43//23 44//23 45//23
f 46//6 45//6 26//6
f 47//23 43//23 45//23
f 47//24 45//24 46//24
f 48//24 47//24 46//24
f 48//25 46//25 26//25
f 47//3 48//3 36//3
f 36//25 48//25 26//25
f 43//3 47//3 36//3
f 35//3 43//3 36//3
f 36//26 26//26 3//26
f 30//3 36//3 2//3
f 2//26 36//26 3//26
f 30//3 2//3 8//3
f 3//6 26//6 12//6
f 9//3 10//3 18//3
f 4//6 3//6 12//6
f 6//6 4//6 12//6
