# Blender v3.0.1 OBJ File: ''
# www.blender.org
mtllib Small_Short_Rectangle_Purple.mtl
o obj1.024_obj1.005
v 16.216187 8.108091 50.000000
v 16.216187 -8.108107 50.000000
v 16.216187 -8.108099 -49.999996
v 16.216187 8.108103 -49.999996
v 15.905823 9.266405 -49.999996
v 13.899536 -10.424707 50.000000
v 13.899536 10.424688 50.000000
v 15.905823 9.266394 50.000000
v 15.057861 10.114325 50.000000
v 15.057861 10.114336 -49.999996
v 13.899536 10.424700 -49.999996
v -13.899658 10.424700 -49.999996
v 13.899536 -10.424700 -49.999996
v -13.899658 10.424688 50.000000
v -16.216248 8.108091 50.000000
v -16.216248 -8.108107 50.000000
v -15.905884 9.266394 50.000000
v -13.899658 -10.424707 50.000000
v -15.057922 10.114325 50.000000
v -15.905884 9.266405 -49.999996
v -15.057922 10.114336 -49.999996
v -16.216248 8.108103 -49.999996
v -16.216248 -8.108099 -49.999996
v -15.905884 -9.266397 -49.999996
v -15.057922 -10.114332 -49.999996
v -13.899658 -10.424700 -49.999996
v -15.057922 -10.114340 50.000000
v -15.905884 -9.266405 50.000000
v 15.057861 -10.114340 50.000000
v 15.057861 -10.114332 -49.999996
v 15.905823 -9.266405 50.000000
v 15.905823 -9.266397 -49.999996
vn 1.0000 0.0000 0.0000
vn 0.9659 0.2588 0.0000
vn -0.0000 0.0000 1.0000
vn 0.7071 0.7071 0.0000
vn 0.2588 0.9659 0.0000
vn 0.0000 0.0000 -1.0000
vn 0.0000 1.0000 0.0000
vn -0.2588 0.9659 0.0000
vn -0.9659 0.2588 0.0000
vn -0.7071 0.7071 0.0000
vn -1.0000 0.0000 0.0000
vn -0.9659 -0.2588 -0.0000
vn 0.0000 -1.0000 -0.0000
vn -0.2588 -0.9659 -0.0000
vn -0.7071 -0.7071 -0.0000
vn 0.2588 -0.9659 -0.0000
vn 0.7071 -0.7071 -0.0000
vn 0.9659 -0.2588 -0.0000
usemtl Default_OBJ.347
s 1
f 1//1 2//1 3//1
f 1//1 3//1 4//1
f 1//2 4//2 5//2
f 1//3 6//3 2//3
f 7//3 6//3 1//3
f 8//3 7//3 1//3
f 8//2 1//2 5//2
f 8//3 9//3 7//3
f 8//4 5//4 10//4
f 9//4 8//4 10//4
f 7//5 9//5 10//5
f 7//5 10//5 11//5
f 10//6 5//6 11//6
f 12//6 11//6 13//6
f 14//7 11//7 12//7
f 11//6 4//6 13//6
f 14//7 7//7 11//7
f 11//6 5//6 4//6
f 14//3 15//3 16//3
f 14//3 17//3 15//3
f 6//3 14//3 18//3
f 14//3 16//3 18//3
f 14//3 19//3 17//3
f 19//8 14//8 12//8
f 7//3 14//3 6//3
f 15//9 17//9 20//9
f 17//10 19//10 21//10
f 17//10 21//10 20//10
f 15//9 20//9 22//9
f 20//6 12//6 22//6
f 21//6 12//6 20//6
f 16//11 15//11 22//11
f 16//11 22//11 23//11
f 22//6 12//6 23//6
f 16//12 23//12 24//12
f 24//6 23//6 25//6
f 25//6 23//6 26//6
f 23//6 12//6 26//6
f 12//6 13//6 26//6
f 6//13 26//13 13//13
f 6//13 18//13 26//13
f 18//14 25//14 26//14
f 18//14 27//14 25//14
f 28//15 24//15 25//15
f 27//15 28//15 25//15
f 16//3 27//3 18//3
f 16//3 28//3 27//3
f 28//12 16//12 24//12
f 19//8 12//8 21//8
f 29//16 6//16 13//16
f 29//16 13//16 30//16
f 13//6 3//6 30//6
f 13//6 4//6 3//6
f 31//17 29//17 30//17
f 31//17 30//17 32//17
f 30//6 3//6 32//6
f 2//18 31//18 32//18
f 2//18 32//18 3//18
f 2//3 29//3 31//3
f 2//3 6//3 29//3
