# Blender v3.0.1 OBJ File: ''
# www.blender.org
mtllib Small_Short_DoubleSquare_JeansRed.mtl
o obj1.013_obj1.005
v 4.633057 -5.868492 -12.500000
v -4.633057 -5.868492 -12.500000
v 4.881348 -6.795097 -12.500000
v -4.881287 -6.795097 -12.500000
v 5.559631 -7.473419 -12.500000
v 5.559631 -7.473428 37.500004
v 4.881348 -6.795106 37.500004
v 6.486267 -7.721712 37.500004
v 4.633057 -5.868501 37.500004
v 6.486267 -7.721702 -12.500000
v 18.223267 -7.721712 37.500004
v 19.149841 -7.473428 37.500004
v 18.223267 -7.721700 -62.500000
v 20.076477 -5.868501 37.500004
v 19.149841 -7.473416 -62.500000
v 19.828186 -6.795106 37.500004
v 19.828186 -6.795094 -62.500000
v 20.076477 -5.868489 -62.500000
v 20.076477 5.868533 -62.499996
v 20.076477 5.868529 37.500004
v 19.149841 7.473448 37.500004
v 18.223267 7.721739 37.500004
v 19.828186 6.795134 37.500004
v 19.149841 7.473453 -62.499996
v 19.828186 6.795138 -62.499996
v 18.223267 7.721744 -62.499996
v -18.223267 -7.721700 -62.500000
v 6.486267 7.721741 -12.499996
v -18.223267 7.721744 -62.499996
v -6.486267 7.721741 -12.499996
v -20.076477 5.868533 -62.499996
v -19.149841 7.473453 -62.499996
v -19.149841 7.473448 37.500004
v -18.223267 7.721739 37.500004
v -6.486267 7.721739 37.500004
v -20.076477 5.868529 37.500004
v -4.633057 -5.868501 37.500004
v -18.223267 -7.721712 37.500004
v -20.076477 -5.868501 37.500004
v -19.828186 6.795138 -62.499996
v -19.828186 6.795134 37.500004
v -19.828186 -6.795106 37.500004
v -20.076477 -5.868489 -62.500000
v -19.828186 -6.795094 -62.500000
v -19.149841 -7.473428 37.500004
v -19.149841 -7.473416 -62.500000
v -4.633057 5.868529 37.500004
v -4.633057 5.868531 -12.500000
v -5.559631 -7.473428 37.500004
v -4.881287 -6.795106 37.500004
v -6.486267 -7.721712 37.500004
v -4.881287 6.795134 37.500004
v -5.559631 7.473448 37.500004
v -4.881287 6.795136 -12.499996
v -5.559631 7.473450 -12.499996
v 5.559631 7.473450 -12.499996
v 4.881348 6.795136 -12.499996
v 4.881348 6.795134 37.500004
v 5.559631 7.473448 37.500004
v 6.486267 7.721739 37.500004
v 4.633057 5.868529 37.500004
v 4.633057 5.868531 -12.500000
v -5.559631 -7.473419 -12.500000
v -6.486267 -7.721702 -12.500000
vn 0.0000 0.0000 1.0000
vn -0.7071 -0.7071 -0.0000
vn -0.9659 -0.2588 -0.0000
vn -0.2588 -0.9659 -0.0000
vn -0.0000 -1.0000 -0.0000
vn 0.2588 -0.9659 -0.0000
vn 0.7071 -0.7071 -0.0000
vn 0.9659 -0.2588 -0.0000
vn -0.0000 0.0000 -1.0000
vn 1.0000 -0.0000 0.0000
vn 0.9659 0.2588 0.0000
vn 0.2588 0.9659 0.0000
vn 0.7071 0.7071 0.0000
vn -0.0000 1.0000 0.0000
vn -0.2588 0.9659 0.0000
vn -0.9659 0.2588 0.0000
vn -1.0000 -0.0000 0.0000
vn -0.7071 0.7071 0.0000
usemtl Default_OBJ.344
s 1
f 1//1 2//1 3//1
f 3//1 2//1 4//1
f 5//1 3//1 4//1
f 6//2 3//2 5//2
f 7//3 1//3 3//3
f 6//2 7//2 3//2
f 8//4 6//4 5//4
f 9//1 6//1 8//1
f 9//1 7//1 6//1
f 8//4 5//4 10//4
f 11//1 9//1 8//1
f 11//5 8//5 10//5
f 12//6 11//6 13//6
f 13//5 11//5 10//5
f 14//1 9//1 11//1
f 14//1 11//1 12//1
f 12//6 13//6 15//6
f 14//1 12//1 16//1
f 16//7 12//7 15//7
f 14//8 16//8 17//8
f 16//7 15//7 17//7
f 15//9 18//9 17//9
f 14//8 17//8 18//8
f 13//9 19//9 18//9
f 13//9 18//9 15//9
f 20//10 14//10 18//10
f 20//10 18//10 19//10
f 21//1 22//1 20//1
f 22//1 9//1 20//1
f 20//1 9//1 14//1
f 21//1 20//1 23//1
f 23//11 20//11 19//11
f 22//12 21//12 24//12
f 21//13 25//13 24//13
f 21//13 23//13 25//13
f 26//9 25//9 19//9
f 24//9 25//9 26//9
f 23//11 19//11 25//11
f 13//9 26//9 19//9
f 27//9 26//9 13//9
f 22//12 24//12 26//12
f 22//14 26//14 28//14
f 29//9 26//9 27//9
f 30//14 28//14 26//14
f 30//14 26//14 29//14
f 31//9 29//9 27//9
f 32//9 29//9 31//9
f 33//15 34//15 29//15
f 33//15 29//15 32//15
f 29//14 34//14 30//14
f 34//14 35//14 30//14
f 35//1 34//1 36//1
f 34//1 33//1 36//1
f 37//1 36//1 38//1
f 36//1 39//1 38//1
f 35//1 36//1 37//1
f 36//16 40//16 31//16
f 39//17 36//17 31//17
f 33//1 41//1 36//1
f 36//16 41//16 40//16
f 38//1 39//1 42//1
f 42//3 39//3 43//3
f 39//17 31//17 43//17
f 42//3 43//3 44//3
f 43//9 27//9 44//9
f 43//9 31//9 27//9
f 45//2 42//2 44//2
f 45//2 44//2 46//2
f 44//9 27//9 46//9
f 38//4 45//4 46//4
f 38//4 46//4 27//4
f 38//1 42//1 45//1
f 40//9 32//9 31//9
f 41//18 32//18 40//18
f 41//18 33//18 32//18
f 47//10 37//10 48//10
f 37//10 2//10 48//10
f 37//1 49//1 50//1
f 37//1 51//1 49//1
f 37//8 4//8 2//8
f 37//1 38//1 51//1
f 37//8 50//8 4//8
f 47//1 35//1 37//1
f 52//11 47//11 48//11
f 53//1 47//1 52//1
f 53//1 35//1 47//1
f 53//13 52//13 54//13
f 53//13 54//13 55//13
f 35//12 53//12 55//12
f 56//1 55//1 54//1
f 56//1 30//1 55//1
f 35//12 55//12 30//12
f 56//1 54//1 57//1
f 58//18 56//18 57//18
f 59//15 28//15 56//15
f 28//1 30//1 56//1
f 58//18 59//18 56//18
f 60//1 59//1 58//1
f 60//1 58//1 61//1
f 61//16 58//16 57//16
f 60//1 61//1 9//1
f 9//17 61//17 62//17
f 61//16 57//16 62//16
f 62//1 48//1 1//1
f 62//1 54//1 48//1
f 57//1 54//1 62//1
f 9//17 62//17 1//17
f 59//15 60//15 28//15
f 22//1 60//1 9//1
f 60//14 22//14 28//14
f 52//11 48//11 54//11
f 50//7 49//7 63//7
f 50//7 63//7 4//7
f 5//1 4//1 63//1
f 10//1 5//1 63//1
f 10//1 63//1 64//1
f 49//6 64//6 63//6
f 10//5 64//5 13//5
f 49//6 51//6 64//6
f 51//5 38//5 64//5
f 38//5 27//5 64//5
f 64//5 27//5 13//5
f 48//1 2//1 1//1
f 7//3 9//3 1//3
