# Blender v3.0.1 OBJ File: ''
# www.blender.org
mtllib Small_Short_SquareCircle_DarkBlue.mtl
o obj1.017_obj1.005
v 7.297913 -3.749969 -11.206894
v -4.108826 -5.999969 -11.206894
v 10.043091 -6.495155 -11.206894
v -5.206909 -7.098045 -11.206894
v 13.793091 -7.499969 -11.206894
v 10.043091 -6.495165 38.793102
v 13.793091 -7.499979 38.793102
v 20.288269 3.750021 38.793102
v 7.297913 -3.749979 38.793102
v 17.543091 -6.495165 38.793102
v 7.297913 3.750021 38.793102
v 20.288269 -3.749979 38.793102
v 21.293091 0.000021 38.793102
v 20.288269 3.750033 -61.206894
v 17.543091 6.495227 -61.206894
v 17.543091 6.495214 38.793102
v 13.793091 7.500021 38.793102
v 20.288269 -3.749967 -61.206894
v 21.293091 0.000033 -61.206894
v 13.793091 -7.499967 -61.206894
v 17.543091 -6.495152 -61.206894
v -15.706909 7.500033 -61.206894
v -15.706909 -7.499967 -61.206894
v -6.706909 -7.499969 -11.206894
v 13.793091 7.500033 -61.206894
v -5.206909 -7.098055 38.793102
v -6.706909 -7.499979 38.793102
v -15.706909 -7.499979 38.793102
v -17.206909 -7.098042 -61.206894
v -18.304993 -5.999979 38.793102
v -17.206909 -7.098055 38.793102
v -18.706909 -4.499979 38.793102
v -15.706909 7.500021 38.793102
v -18.706909 4.500021 38.793102
v -18.304993 6.000021 38.793102
v -17.206909 7.098097 38.793102
v -6.706909 7.500021 38.793102
v -6.706909 7.500031 -11.206894
v -17.206909 7.098109 -61.206894
v -18.304993 6.000033 -61.206894
v -18.706909 4.500033 -61.206894
v -18.706909 -4.499967 -61.206894
v -18.304993 -5.999967 -61.206894
v -5.206909 7.098107 -11.206894
v 13.793091 7.500031 -11.206894
v 10.043091 6.495224 -11.206894
v 7.297913 3.750031 -11.206894
v 10.043091 6.495214 38.793102
v -4.108826 6.000031 -11.206894
v -3.706909 4.500031 -11.206894
v -4.108826 6.000021 38.793102
v -3.706909 4.500021 38.793102
v -3.706909 -4.499969 -11.206894
v 6.293091 0.000031 -11.206894
v 6.293091 0.000021 38.793102
v -4.108826 -5.999979 38.793102
v -3.706909 -4.499979 38.793102
v -5.206909 7.098097 38.793102
vn 0.0000 0.0000 1.0000
vn -0.7071 -0.7071 -0.0000
vn -0.2588 -0.9659 -0.0000
vn 0.2588 -0.9659 -0.0000
vn 0.9659 0.2588 0.0000
vn 0.7071 0.7071 0.0000
vn 0.7071 -0.7071 -0.0000
vn 0.9659 -0.2588 -0.0000
vn 0.0000 0.0000 -1.0000
vn 0.0000 -1.0000 -0.0000
vn -0.0000 1.0000 0.0000
vn -0.2588 0.9659 0.0000
vn -0.7071 0.7071 0.0000
vn -0.9659 0.2588 0.0000
vn -1.0000 0.0000 0.0000
vn -0.9659 -0.2588 -0.0000
vn 0.2588 0.9659 0.0000
vn 1.0000 0.0000 0.0000
usemtl Default_OBJ.348
s 1
f 1//1 2//1 3//1
f 3//1 2//1 4//1
f 5//1 3//1 4//1
f 6//2 1//2 3//2
f 7//3 3//3 5//3
f 7//3 6//3 3//3
f 8//1 9//1 7//1
f 7//1 9//1 6//1
f 10//4 7//4 5//4
f 8//1 7//1 10//1
f 8//1 11//1 9//1
f 8//1 12//1 13//1
f 8//5 13//5 14//5
f 8//6 14//6 15//6
f 16//6 8//6 15//6
f 8//1 16//1 17//1
f 8//1 17//1 11//1
f 8//1 10//1 12//1
f 12//7 10//7 18//7
f 12//8 18//8 19//8
f 13//8 12//8 19//8
f 13//5 19//5 14//5
f 19//9 15//9 14//9
f 18//9 15//9 19//9
f 20//9 18//9 21//9
f 10//7 21//7 18//7
f 20//9 15//9 18//9
f 22//9 20//9 23//9
f 24//10 23//10 20//10
f 22//9 25//9 20//9
f 25//9 15//9 20//9
f 21//4 5//4 20//4
f 5//10 24//10 20//10
f 26//4 24//4 4//4
f 5//1 4//1 24//1
f 26//4 27//4 24//4
f 27//10 28//10 24//10
f 28//10 23//10 24//10
f 28//3 29//3 23//3
f 28//1 30//1 31//1
f 28//1 32//1 30//1
f 33//1 32//1 28//1
f 28//3 31//3 29//3
f 33//1 28//1 27//1
f 33//1 34//1 32//1
f 33//1 35//1 34//1
f 33//1 36//1 35//1
f 37//1 33//1 27//1
f 33//11 37//11 38//11
f 22//11 33//11 38//11
f 36//12 33//12 22//12
f 36//12 22//12 39//12
f 36//13 39//13 40//13
f 35//13 36//13 40//13
f 35//14 40//14 41//14
f 40//9 22//9 41//9
f 39//9 22//9 40//9
f 32//15 34//15 41//15
f 32//15 41//15 42//15
f 34//14 35//14 41//14
f 41//9 22//9 42//9
f 42//9 22//9 23//9
f 42//9 23//9 43//9
f 30//16 32//16 42//16
f 30//16 42//16 43//16
f 43//9 23//9 29//9
f 31//2 30//2 43//2
f 31//2 43//2 29//2
f 37//17 44//17 38//17
f 45//1 38//1 44//1
f 38//11 45//11 25//11
f 38//11 25//11 22//11
f 46//12 17//12 45//12
f 45//1 44//1 46//1
f 45//17 15//17 25//17
f 45//17 16//17 15//17
f 17//17 16//17 45//17
f 47//13 48//13 46//13
f 46//1 49//1 47//1
f 46//1 44//1 49//1
f 48//12 17//12 46//12
f 11//13 48//13 47//13
f 17//1 48//1 11//1
f 47//1 49//1 50//1
f 51//6 49//6 44//6
f 51//5 52//5 49//5
f 52//5 50//5 49//5
f 52//18 53//18 50//18
f 54//1 50//1 53//1
f 47//1 50//1 54//1
f 9//16 54//16 1//16
f 54//1 53//1 1//1
f 54//14 11//14 47//14
f 9//16 55//16 54//16
f 55//14 11//14 54//14
f 11//1 55//1 9//1
f 56//8 2//8 53//8
f 1//1 53//1 2//1
f 57//8 56//8 53//8
f 52//18 57//18 53//18
f 57//1 26//1 56//1
f 52//1 37//1 57//1
f 37//1 27//1 57//1
f 57//1 27//1 26//1
f 56//7 4//7 2//7
f 56//7 26//7 4//7
f 58//6 51//6 44//6
f 51//1 37//1 52//1
f 51//1 58//1 37//1
f 37//17 58//17 44//17
f 10//4 5//4 21//4
f 6//2 9//2 1//2
