# Blender v3.0.1 OBJ File: ''
# www.blender.org
mtllib Small_Long_Circle_Purple.mtl
o obj1.050_obj1.005
v -16.216370 -0.000007 75.000000
v -15.663818 -4.197067 75.000000
v -14.043823 -8.108108 75.000000
v -16.216370 0.000007 -75.000000
v -15.663818 -4.197052 -75.000000
v -14.043823 -8.108094 -75.000000
v -11.466736 -11.466590 75.000000
v -15.663818 4.197056 75.000000
v 14.043457 8.108094 75.000000
v 15.663452 4.197056 75.000000
v 4.196899 15.663640 75.000000
v -11.466736 11.466580 75.000000
v -14.043823 8.108094 75.000000
v 11.466431 11.466580 75.000000
v -15.663818 4.197071 -75.000000
v 11.466431 11.466594 -75.000000
v 8.107910 14.043633 75.000000
v 8.107910 14.043647 -75.000000
v 4.196899 15.663653 -75.000000
v -0.000183 16.216194 75.000000
v -0.000183 16.216209 -75.000000
v -11.466736 11.466594 -75.000000
v -4.197266 15.663653 -75.000000
v -4.197266 15.663640 75.000000
v -8.108276 14.043633 75.000000
v -8.108276 14.043647 -75.000000
v -14.043823 8.108108 -75.000000
v 14.043457 8.108108 -75.000000
v 15.663452 4.197071 -75.000000
v 16.216003 0.000007 -75.000000
v -11.466736 -11.466577 -75.000000
v 8.107910 -14.043633 -75.000000
v 14.043457 -8.108094 -75.000000
v 15.663452 -4.197052 -75.000000
v -8.108276 -14.043633 -75.000000
v -8.108276 -14.043647 75.000000
v -4.197266 -15.663650 75.000000
v -4.197266 -15.663636 -75.000000
v -0.000183 -16.216209 75.000000
v -0.000183 -16.216194 -75.000000
v 4.196899 -15.663636 -75.000000
v 4.196899 -15.663650 75.000000
v 8.107910 -14.043647 75.000000
v 11.466431 -11.466590 75.000000
v 14.043457 -8.108108 75.000000
v 11.466431 -11.466577 -75.000000
v 15.663452 -4.197067 75.000000
v 16.216003 -0.000007 75.000000
vn 0.0000 0.0000 1.0000
vn -0.9914 -0.1305 -0.0000
vn -0.9239 -0.3827 -0.0000
vn -0.7933 -0.6088 -0.0000
vn -0.9239 0.3827 0.0000
vn -0.9914 0.1305 0.0000
vn 0.7934 0.6088 0.0000
vn 0.6088 0.7934 0.0000
vn 0.3827 0.9239 0.0000
vn 0.1305 0.9914 0.0000
vn -0.0000 0.0000 -1.0000
vn -0.1305 0.9914 0.0000
vn -0.3827 0.9239 0.0000
vn -0.6088 0.7934 0.0000
vn -0.7933 0.6088 0.0000
vn 0.9239 0.3827 0.0000
vn 0.9914 0.1305 0.0000
vn -0.6088 -0.7934 -0.0000
vn -0.3827 -0.9239 -0.0000
vn -0.1305 -0.9914 -0.0000
vn 0.1305 -0.9914 -0.0000
vn 0.3827 -0.9239 -0.0000
vn 0.6088 -0.7934 -0.0000
vn 0.7934 -0.6088 -0.0000
vn 0.9239 -0.3827 -0.0000
vn 0.9914 -0.1305 -0.0000
usemtl Default_OBJ.334
s 1
f 1//1 2//1 3//1
f 2//2 1//2 4//2
f 2//2 4//2 5//2
f 3//3 2//3 5//3
f 3//3 5//3 6//3
f 7//4 3//4 6//4
f 8//1 3//1 7//1
f 8//1 1//1 3//1
f 9//1 8//1 10//1
f 10//1 8//1 7//1
f 11//1 12//1 8//1
f 12//1 13//1 8//1
f 14//1 11//1 8//1
f 8//5 13//5 15//5
f 14//1 8//1 9//1
f 1//6 8//6 15//6
f 14//7 9//7 16//7
f 17//8 14//8 16//8
f 14//1 17//1 11//1
f 17//8 16//8 18//8
f 11//9 17//9 19//9
f 17//9 18//9 19//9
f 20//10 11//10 19//10
f 21//11 19//11 22//11
f 20//10 19//10 21//10
f 22//11 19//11 15//11
f 19//11 16//11 15//11
f 18//11 16//11 19//11
f 11//1 20//1 12//1
f 20//12 21//12 23//12
f 24//12 20//12 23//12
f 20//1 24//1 25//1
f 20//1 25//1 12//1
f 25//13 23//13 26//13
f 25//13 24//13 23//13
f 25//14 26//14 22//14
f 12//14 25//14 22//14
f 26//11 21//11 22//11
f 23//11 21//11 26//11
f 13//15 12//15 22//15
f 27//11 22//11 15//11
f 13//15 22//15 27//15
f 13//5 27//5 15//5
f 15//11 16//11 28//11
f 9//7 28//7 16//7
f 9//16 10//16 28//16
f 10//16 29//16 28//16
f 15//11 28//11 29//11
f 10//17 30//17 29//17
f 15//11 29//11 31//11
f 32//11 29//11 33//11
f 33//11 29//11 34//11
f 34//11 29//11 30//11
f 31//11 29//11 35//11
f 35//11 29//11 32//11
f 36//18 31//18 35//18
f 37//19 36//19 35//19
f 37//19 35//19 38//19
f 35//11 32//11 38//11
f 39//20 37//20 38//20
f 39//20 38//20 40//20
f 38//11 32//11 40//11
f 39//21 40//21 41//21
f 40//11 32//11 41//11
f 42//21 39//21 41//21
f 43//22 42//22 41//22
f 43//22 41//22 32//22
f 43//1 37//1 39//1
f 43//1 36//1 37//1
f 43//1 39//1 42//1
f 44//23 43//23 32//23
f 45//1 43//1 44//1
f 10//1 43//1 45//1
f 10//1 36//1 43//1
f 45//24 44//24 46//24
f 45//24 46//24 33//24
f 47//25 45//25 33//25
f 10//1 45//1 47//1
f 47//25 33//25 34//25
f 10//1 47//1 48//1
f 48//26 47//26 34//26
f 48//26 34//26 30//26
f 10//17 48//17 30//17
f 44//23 32//23 46//23
f 32//11 33//11 46//11
f 10//1 7//1 36//1
f 36//18 7//18 31//18
f 6//11 15//11 31//11
f 7//4 6//4 31//4
f 4//11 15//11 6//11
f 1//6 15//6 4//6
f 5//11 4//11 6//11
