# Blender v3.0.1 OBJ File: ''
# www.blender.org
mtllib Small_Long_DoubleSquare_JeansBlue.mtl
o obj1.045_obj1.005
v 5.559692 -7.473426 -18.750000
v 4.881409 -6.795100 -18.750000
v -5.559570 -7.473426 -18.750000
v -4.881226 -6.795100 -18.750000
v 4.633118 -5.868495 -18.750000
v -4.632996 -5.868495 -18.750000
v 5.559692 -7.473433 56.250000
v 4.881409 -6.795107 56.250000
v 6.486328 -7.721716 56.250000
v 6.486328 -7.721709 -18.750000
v 4.633118 5.868509 56.250000
v 4.633118 -5.868502 56.250000
v 18.223328 -7.721716 56.250000
v 20.076538 5.868509 56.250000
v 6.486328 7.721723 56.250000
v 4.633118 5.868516 -18.750000
v 4.881409 6.795121 -18.750000
v 4.881409 6.795114 56.250000
v -4.881226 6.795121 -18.750000
v 5.559692 7.473447 -18.750000
v -6.486206 7.721730 -18.750000
v -5.559570 7.473447 -18.750000
v 5.559692 7.473440 56.250000
v 6.486328 7.721730 -18.750000
v -6.486206 7.721723 56.250000
v 18.223328 7.721737 -93.750000
v -18.223206 7.721737 -93.750000
v -18.223206 7.721723 56.250000
v -20.076416 5.868509 56.250000
v -19.149780 7.473440 56.250000
v -19.828125 6.795114 56.250000
v -19.149780 7.473454 -93.750000
v -19.828125 6.795128 -93.750000
v -20.076416 5.868523 -93.750000
v -20.076416 -5.868502 56.250000
v -20.076416 -5.868488 -93.750000
v -18.223206 -7.721702 -93.750000
v -19.828125 -6.795093 -93.750000
v -19.828125 -6.795107 56.250000
v -19.149780 -7.473433 56.250000
v -19.149780 -7.473419 -93.750000
v -18.223206 -7.721716 56.250000
v -6.486206 -7.721709 -18.750000
v -6.486206 -7.721716 56.250000
v -4.632996 -5.868502 56.250000
v -5.559570 -7.473433 56.250000
v -4.881226 -6.795107 56.250000
v -4.632996 5.868509 56.250000
v -4.881226 6.795114 56.250000
v -4.632996 5.868516 -18.750000
v -5.559570 7.473440 56.250000
v 18.223328 -7.721702 -93.750000
v 20.076538 5.868523 -93.750000
v 20.076538 -5.868488 -93.750000
v 19.149902 -7.473419 -93.750000
v 19.149902 -7.473433 56.250000
v 19.828247 -6.795107 56.250000
v 19.828247 -6.795093 -93.750000
v 20.076538 -5.868502 56.250000
v 19.828247 6.795114 56.250000
v 19.828247 6.795128 -93.750000
v 19.149902 7.473454 -93.750000
v 18.223328 7.721723 56.250000
v 19.149902 7.473440 56.250000
vn 0.0000 0.0000 1.0000
vn -0.7071 -0.7071 -0.0000
vn -0.9659 -0.2588 -0.0000
vn -0.2588 -0.9659 -0.0000
vn 0.0000 -1.0000 -0.0000
vn -1.0000 0.0000 0.0000
vn -0.9659 0.2588 0.0000
vn -0.7071 0.7071 0.0000
vn -0.2588 0.9659 0.0000
vn 0.2588 0.9659 0.0000
vn 0.0000 1.0000 0.0000
vn 0.0000 0.0000 -1.0000
vn 0.9659 -0.2588 -0.0000
vn 1.0000 0.0000 0.0000
vn 0.9659 0.2588 0.0000
vn 0.7071 0.7071 0.0000
vn 0.7071 -0.7071 -0.0000
vn 0.2588 -0.9659 -0.0000
usemtl Default_OBJ.335
s 1
f 1//1 2//1 3//1
f 2//1 4//1 3//1
f 5//1 6//1 2//1
f 2//1 6//1 4//1
f 7//2 2//2 1//2
f 8//3 5//3 2//3
f 7//2 8//2 2//2
f 9//4 7//4 1//4
f 9//1 8//1 7//1
f 9//4 1//4 10//4
f 11//1 12//1 9//1
f 9//1 12//1 8//1
f 13//5 9//5 10//5
f 14//1 15//1 9//1
f 14//1 9//1 13//1
f 15//1 11//1 9//1
f 12//6 11//6 16//6
f 11//7 17//7 16//7
f 15//1 18//1 11//1
f 11//7 18//7 17//7
f 17//1 19//1 16//1
f 20//1 19//1 17//1
f 18//8 20//8 17//8
f 20//1 21//1 22//1
f 20//1 22//1 19//1
f 23//9 24//9 20//9
f 24//1 21//1 20//1
f 18//8 23//8 20//8
f 23//9 15//9 24//9
f 15//1 23//1 18//1
f 25//10 22//10 21//10
f 21//11 24//11 26//11
f 21//11 26//11 27//11
f 28//11 25//11 21//11
f 27//11 28//11 21//11
f 25//1 28//1 29//1
f 28//1 30//1 29//1
f 30//9 28//9 27//9
f 30//1 31//1 29//1
f 30//9 27//9 32//9
f 31//8 30//8 32//8
f 31//8 32//8 33//8
f 29//7 31//7 33//7
f 33//12 32//12 34//12
f 29//7 33//7 34//7
f 35//6 29//6 34//6
f 35//6 34//6 36//6
f 34//12 27//12 37//12
f 36//12 34//12 37//12
f 32//12 27//12 34//12
f 36//12 37//12 38//12
f 39//3 35//3 36//3
f 39//3 36//3 38//3
f 40//2 39//2 38//2
f 40//2 38//2 41//2
f 38//12 37//12 41//12
f 42//4 40//4 41//4
f 42//4 41//4 37//4
f 42//5 37//5 43//5
f 44//5 42//5 43//5
f 45//1 42//1 44//1
f 42//1 39//1 40//1
f 42//1 35//1 39//1
f 29//1 35//1 42//1
f 45//1 29//1 42//1
f 45//1 46//1 47//1
f 45//1 44//1 46//1
f 45//13 47//13 4//13
f 45//13 4//13 6//13
f 48//1 25//1 45//1
f 48//14 45//14 6//14
f 25//1 29//1 45//1
f 49//1 25//1 48//1
f 49//15 48//15 50//15
f 48//14 6//14 50//14
f 16//1 50//1 6//1
f 16//1 19//1 50//1
f 49//15 50//15 19//15
f 51//1 25//1 49//1
f 51//16 49//16 19//16
f 25//10 51//10 22//10
f 51//16 19//16 22//16
f 47//17 46//17 3//17
f 47//17 3//17 4//17
f 46//18 44//18 43//18
f 46//18 43//18 3//18
f 10//1 1//1 43//1
f 1//1 3//1 43//1
f 10//5 43//5 52//5
f 43//5 37//5 52//5
f 52//5 13//5 10//5
f 52//12 26//12 53//12
f 37//12 26//12 52//12
f 52//12 53//12 54//12
f 52//12 54//12 55//12
f 56//18 13//18 52//18
f 56//18 52//18 55//18
f 57//17 56//17 55//17
f 57//17 55//17 58//17
f 55//12 54//12 58//12
f 59//13 57//13 58//13
f 59//13 58//13 54//13
f 14//14 59//14 54//14
f 14//1 13//1 59//1
f 59//1 13//1 57//1
f 57//1 13//1 56//1
f 60//15 14//15 53//15
f 60//15 53//15 61//15
f 53//12 62//12 61//12
f 14//14 54//14 53//14
f 26//12 62//12 53//12
f 63//10 64//10 62//10
f 64//16 61//16 62//16
f 63//10 62//10 26//10
f 64//1 63//1 14//1
f 63//11 26//11 24//11
f 15//11 63//11 24//11
f 63//1 15//1 14//1
f 64//1 14//1 60//1
f 64//16 60//16 61//16
f 27//12 26//12 37//12
f 12//6 16//6 5//6
f 16//1 6//1 5//1
f 8//3 12//3 5//3
