# Blender v3.0.1 OBJ File: ''
# www.blender.org
mtllib Small_Short_Oval_Yellow.mtl
o obj1.025_obj1.005
v -17.723450 -1.404275 -37.495483
v -17.723450 -1.404277 -12.495483
v -17.779480 -0.474682 -49.995483
v -17.779480 -0.474690 50.004517
v -17.637573 1.002789 -12.495483
v -17.414307 -2.836947 -43.745483
v -17.637573 1.002792 -37.495483
v -17.266235 2.319956 -43.745483
v -16.075562 -5.477182 -46.870483
v -16.645752 3.640881 -49.995483
v -13.714600 -7.920089 -49.995483
v -15.125122 -6.627919 -43.745483
v -11.938110 -9.137753 -43.745483
v -16.240112 -5.241342 -37.495483
v -9.922424 -10.165266 -37.495483
v -7.286682 -11.110378 -49.995483
v -4.729309 -11.693190 -43.745483
v -7.410645 -11.074345 -37.495483
v -2.059204 -12.005064 -49.995483
v 1.135132 -12.012084 -43.745483
v -1.456299 -12.036458 -37.495483
v 1.736877 -11.969335 -31.245483
v -4.116272 -11.790346 -31.245483
v 4.421936 -11.601707 -37.495483
v 4.178528 -11.647354 -40.620483
v 8.126221 -10.565201 -43.745483
v 10.887207 -9.277684 -40.620483
v 7.214722 -10.884371 -37.495483
v 13.862976 -7.084398 -43.745483
v 11.456238 -8.938589 -46.870483
v 4.866516 -11.511675 -46.870483
v 15.478699 -5.168964 -49.995483
v 8.531067 -10.408246 -49.995483
v 8.250671 9.568615 -49.995483
v 13.625549 6.357199 -49.995483
v 3.443054 -11.770027 -49.995483
v 2.582153 10.935844 -49.995483
v 3.904358 10.746387 -46.870483
v -2.447205 11.028028 -49.995483
v -0.431152 11.108305 -43.745483
v -5.967041 10.498758 -43.745483
v -8.444458 9.793716 -49.995483
v -3.449951 10.929052 -37.495483
v -10.775330 8.818800 -43.745483
v -8.439026 9.795605 -37.495483
v -5.962585 10.499763 -31.245481
v -12.869385 7.594783 -37.495483
v -10.771362 8.820762 -31.245481
v -14.641357 6.165218 -31.245481
v -12.865967 7.597154 -24.995481
v -8.434753 9.797097 -24.995481
v -5.061096 10.684644 -21.870481
v -3.445496 10.929576 -24.995481
v -2.202454 11.046165 -28.120481
v -11.395386 8.496493 -18.745481
v -6.674133 10.328017 -18.745481
v -8.259155 9.857263 -15.620483
v -4.878784 10.717738 -12.495483
v -1.672852 11.077435 -18.745481
v -1.955933 11.062076 -12.495482
v -5.024048 10.691483 -9.370483
v -9.789490 9.273356 -12.495483
v -8.082825 9.915991 -6.245483
v -12.580688 7.788378 -6.245483
v -13.921448 6.803229 -12.495483
v -15.077515 5.728894 -18.745481
v -16.405762 4.039446 -12.495483
v -16.839600 3.283358 -6.245483
v -17.188232 2.521366 0.004517
v -15.281555 5.509039 0.004517
v -15.454102 5.314072 3.129517
v -11.080078 8.664127 0.004517
v -12.580688 7.788377 6.254517
v -16.405762 4.039445 12.504517
v -13.921448 6.803228 12.504517
v -15.077515 5.728890 18.754517
v -17.188232 2.521363 25.004517
v -12.865967 7.597150 25.004517
v -11.395386 8.496490 18.754517
v -16.031616 4.588550 25.004517
v -8.434753 9.797093 25.004517
v -14.641357 6.165211 31.254517
v -10.771362 8.820756 31.254517
v -12.869385 7.594777 37.504517
v -16.250793 4.276156 31.254517
v -14.856628 5.955241 37.504517
v -17.637573 1.002785 37.504517
v -17.266235 2.319948 43.754517
v -15.856750 4.821680 43.754517
v -16.645752 3.640873 50.004517
v -10.775330 8.818792 43.754517
v -13.392578 7.219339 50.004517
v -8.444458 9.793709 50.004517
v -13.714600 -7.920098 50.004517
v -7.286682 -11.110387 50.004517
v -2.447205 11.028021 50.004517
v -5.967041 10.498751 43.754517
v -8.439026 9.795597 37.504517
v -3.449951 10.929045 37.504517
v -0.431152 11.108297 43.754517
v -5.962585 10.499757 31.254517
v -0.536560 11.107979 34.379517
v -2.202454 11.046161 28.129517
v 4.993652 10.534968 31.254517
v 1.445007 11.042462 25.004517
v -3.445496 10.929572 25.004517
v -1.672852 11.077432 18.754517
v -5.061096 10.684640 21.879517
v -6.674133 10.328013 18.754517
v -4.878784 10.717736 12.504517
v -8.259155 9.857259 15.629517
v -9.789490 9.273355 12.504517
v -5.024048 10.691483 9.379517
v -8.082825 9.915991 6.254517
v -1.955933 11.062074 12.504518
v -3.140869 10.963810 6.254517
v 3.629578 10.791696 12.504517
v 1.689697 11.023825 6.254517
v 5.514954 10.415226 9.379517
v -1.834473 11.069046 3.129517
v -0.022766 11.105513 0.004517
v 6.630737 10.116119 3.129517
v 9.211121 9.172515 12.504517
v 9.639771 8.976379 6.254517
v 12.290894 7.432786 9.379517
v 11.217834 8.134941 4.692017
v 13.217407 6.714931 12.504517
v 14.677490 5.275403 6.254517
v 15.995850 3.348443 18.754517
v 16.693909 1.580261 12.504517
v 10.928040 8.304963 18.754517
v 5.391113 10.444787 18.754517
v 12.477539 7.297458 25.004517
v 7.311646 9.903218 25.004517
v 14.840149 5.081449 25.004517
v 16.439758 2.363759 25.004517
v 12.930054 6.950503 31.254517
v 15.570862 4.078480 31.254517
v 16.906189 0.513446 18.754517
v 16.969360 -0.526693 25.004517
v 16.778442 1.238295 31.254517
v 16.715027 -2.449978 18.754517
v 16.318848 -3.614794 25.004517
v 16.877686 -1.663967 31.254517
v 15.707275 -4.808990 31.254517
v 14.231873 -6.715609 25.004517
v 15.184509 -5.588561 18.754517
v 11.699280 -8.784245 37.504517
v 16.606506 -2.830107 37.504517
v 13.059021 -7.795713 31.254517
v 7.684570 -10.725600 31.254517
v 10.701538 -9.382077 25.004517
v 1.736877 -11.969338 31.254517
v 4.421936 -11.601713 37.504517
v 7.214722 -10.884378 37.504517
v 5.034607 -11.475371 25.004517
v 4.178528 -11.647361 40.629517
v 10.887207 -9.277692 40.629517
v 13.862976 -7.084406 43.754517
v 8.126221 -10.565208 43.754517
v 16.141846 -4.007097 43.754517
v 15.478699 -5.168973 50.004517
v 11.456238 -8.938597 46.879517
v 8.531067 -10.408254 50.004517
v 4.866516 -11.511684 46.879517
v 13.625549 6.357191 50.004517
v 8.250671 9.568607 50.004517
v 3.443054 -11.770035 50.004517
v 2.582153 10.935837 50.004517
v -2.059204 -12.005072 50.004517
v 1.135132 -12.012092 43.754517
v 3.904358 10.746380 46.879517
v 6.159241 10.249832 43.754517
v 12.166809 7.520409 43.754517
v 8.754944 9.367826 40.629517
v 4.875977 10.560305 37.504517
v 10.488220 8.549006 37.504517
v 15.101135 4.750629 43.754517
v 16.144287 3.052702 37.504517
v 9.231812 9.163309 34.379517
v 10.333801 8.630891 28.129517
v 4.376953 10.660963 34.379517
v 6.014893 10.288589 26.567017
v 16.561951 2.019382 43.754517
v 16.825867 1.011745 50.004517
v 16.957703 -0.901596 43.754517
v -1.456299 -12.036465 37.504517
v -4.729309 -11.693195 43.754517
v -7.410645 -11.074350 37.504517
v -11.938110 -9.137760 43.754517
v -9.922424 -10.165273 37.504517
v -9.979980 -10.140032 31.254517
v -4.116272 -11.790350 31.254517
v -0.865662 -12.053615 25.004517
v -6.806213 -11.242904 25.004517
v -3.412964 -11.882782 18.754517
v 2.434937 -11.901904 18.754517
v -0.105957 -12.055970 12.504516
v -6.013245 -11.437668 12.504516
v -9.325256 -10.414550 18.754517
v -8.687134 -10.657019 12.504517
v -5.677124 -11.511549 9.379516
v -9.797974 -10.219082 6.254516
v -6.789551 -11.247301 3.129516
v -2.622375 -11.962967 6.254516
v 0.661621 -12.035838 0.004516
v 3.229797 -11.801384 6.254516
v -4.666565 -11.703857 0.004516
v -10.753113 -9.779152 0.004516
v -6.789551 -11.247299 -3.120484
v -2.622375 -11.962966 -6.245484
v -5.677124 -11.511549 -9.370484
v -0.105957 -12.055968 -12.495484
v 3.229797 -11.801383 -6.245484
v 6.028320 -11.234404 0.004516
v 5.828735 -11.286487 -12.495484
v 10.666016 -9.401688 -6.245484
v 13.007019 -7.837987 -12.495483
v 14.559998 -6.359607 -6.245484
v 8.451111 -10.440022 -12.495483
v 12.625427 -8.136488 0.004516
v 8.356262 -10.477221 -18.745483
v 11.666138 -8.805664 -18.745483
v 14.231873 -6.715605 -24.995483
v 10.701538 -9.382073 -24.995483
v 15.184509 -5.588557 -18.745483
v 13.059021 -7.795707 -31.245483
v 15.707275 -4.808984 -31.245483
v 16.318848 -3.614790 -24.995483
v 16.877686 -1.663961 -31.245483
v 16.969360 -0.526688 -24.995483
v 16.715027 -2.449974 -18.745483
v 15.930664 -4.419811 -12.495483
v 16.906189 0.513450 -18.745483
v 16.693909 1.580262 -12.495483
v 16.439758 2.363763 -24.995483
v 15.995850 3.348447 -18.745483
v 16.593018 1.923597 -31.245483
v 15.970581 3.396209 -31.245483
v 14.840149 5.081452 -24.995481
v 14.084106 5.917623 -31.245481
v 11.079041 8.217336 -28.120481
v 10.928040 8.304967 -18.745481
v 12.477539 7.297462 -24.995481
v 7.311646 9.903222 -24.995481
v 8.115540 9.619850 -32.807983
v 5.429932 10.435601 -31.245481
v 5.391113 10.444791 -18.745481
v 3.359619 10.833150 -29.682981
v 1.445007 11.042466 -24.995481
v -0.536560 11.107986 -34.370483
v 4.875977 10.560312 -37.495483
v 6.159241 10.249840 -43.745483
v 8.754944 9.367834 -40.620483
v 10.488220 8.549013 -37.495483
v 15.344727 4.416120 -37.495483
v 12.166809 7.520416 -43.745483
v 14.562012 5.407986 -43.745483
v 16.300598 2.708382 -43.745483
v 16.957703 -0.901588 -43.745483
v 16.825867 1.011753 -49.995483
v 16.606506 -2.830101 -37.495483
v 16.141846 -4.007090 -43.745483
v 11.699280 -8.784239 -37.495483
v 7.684570 -10.725596 -31.245483
v 5.034607 -11.475366 -24.995483
v 2.434937 -11.901900 -18.745483
v -0.865662 -12.053611 -24.995483
v -3.412964 -11.882778 -18.745483
v -6.806213 -11.242899 -24.995483
v -9.325256 -10.414547 -18.745483
v -6.013245 -11.437665 -12.495484
v -9.979980 -10.140028 -31.245483
v -12.314636 -8.908298 -24.995483
v -14.563477 -7.188187 -31.245483
v -15.530640 -6.174129 -24.995483
v -17.046631 -3.803322 -31.245483
v -17.548828 -2.355828 -24.995483
v -17.046631 -3.803323 -18.745483
v -14.563477 -7.188188 -18.745483
v -17.247131 -3.319912 -12.495483
v -16.240112 -5.241344 -12.495483
v -13.433533 -8.137893 -12.495483
v -10.576294 -9.865401 -18.745483
v -8.687134 -10.657015 -12.495483
v -12.502747 -8.788460 -9.370483
v -9.797974 -10.219081 -6.245484
v -15.425049 -6.296926 -6.245484
v -17.414307 -2.836951 -6.245483
v -16.812134 -4.285723 0.004516
v -17.548828 -2.355830 0.004516
v -15.425049 -6.296928 6.254516
v -17.247131 -3.319914 12.504517
v -16.240112 -5.241345 12.504517
v -12.502747 -8.788461 9.379517
v -13.433533 -8.137896 12.504517
v -10.576294 -9.865405 18.754517
v -14.563477 -7.188191 18.754517
v -17.046631 -3.803326 18.754517
v -15.530640 -6.174133 25.004517
v -12.314636 -8.908301 25.004517
v -14.563477 -7.188194 31.254517
v -16.240112 -5.241348 37.504517
v -17.046631 -3.803328 31.254517
v -17.723450 -1.404281 37.504517
v -17.414307 -2.836955 43.754517
v -15.125122 -6.627927 43.754517
v -16.075562 -5.477190 46.879517
v -17.548828 -2.355832 25.004517
v 9.211121 9.172517 -12.495483
v 3.629578 10.791698 -12.495483
v 12.290894 7.432787 -9.370483
v 13.217407 6.714932 -12.495483
v 5.514954 10.415226 -9.370483
v 9.639771 8.976379 -6.245483
v 11.217834 8.134941 -4.682983
v 6.630737 10.116119 -3.120483
v 1.689697 11.023825 -6.245483
v 11.183228 8.155653 0.004517
v 5.450928 10.430588 0.004517
v -3.140869 10.963810 -6.245483
v -1.834473 11.069046 -3.120483
v -5.459656 10.607300 0.004517
v 15.779480 3.738321 0.004517
v 16.966064 -0.244765 6.254517
v 16.808044 -2.050296 0.004517
v 16.966064 -0.244764 -6.245483
v 16.320984 2.660397 -6.245483
v 14.677490 5.275404 -6.245483
v 16.320984 2.660396 6.254517
v 16.469666 -3.233016 6.254517
v 15.930664 -4.419813 12.504517
v 14.559998 -6.359609 6.254516
v 13.007019 -7.837989 12.504517
v 10.666016 -9.401690 6.254516
v 8.451111 -10.440024 12.504517
v 11.666138 -8.805668 18.754517
v 8.356262 -10.477223 18.754517
v 5.828735 -11.286490 12.504516
v 16.469666 -3.233015 -6.245483
v -16.031616 4.588553 -24.995483
v -17.188232 2.521367 -24.995483
v -16.250793 4.276163 -31.245483
v -14.856628 5.955247 -37.495483
v -15.856750 4.821688 -43.745483
v -13.392578 7.219347 -49.995483
vn -0.9982 -0.0602 -0.0000
vn -0.9954 0.0956 0.0000
vn -0.9845 -0.1749 -0.0086
vn -0.9775 0.2103 -0.0138
vn -0.9257 -0.3685 -0.0852
vn 0.0000 0.0000 -1.0000
vn -0.8433 -0.4604 -0.2772
vn -0.9633 0.2654 -0.0396
vn -0.8539 -0.5157 0.0698
vn -0.7351 -0.6774 -0.0259
vn -0.6174 -0.7840 0.0638
vn -0.6171 -0.7842 0.0640
vn -0.6169 -0.7844 0.0643
vn -0.8554 -0.5165 -0.0380
vn -0.6185 -0.7854 0.0228
vn -0.6133 -0.7869 0.0684
vn -0.3337 -0.9414 0.0488
vn -0.4441 -0.8947 -0.0481
vn -0.3400 -0.9394 -0.0448
vn -0.3389 -0.9397 -0.0458
vn -0.3398 -0.9394 -0.0451
vn -0.3337 -0.9414 -0.0500
vn -0.0543 -0.9982 0.0266
vn -0.1687 -0.9854 -0.0229
vn -0.0543 -0.9982 -0.0264
vn -0.1594 -0.9868 0.0293
vn -0.0306 -0.9992 0.0263
vn -0.1594 -0.9868 -0.0290
vn 0.0737 -0.9969 -0.0270
vn 0.0738 -0.9972 0.0088
vn 0.0865 -0.9957 0.0320
vn 0.2020 -0.9759 -0.0828
vn 0.3316 -0.9387 0.0938
vn 0.3316 -0.9388 -0.0930
vn 0.2489 -0.9685 0.0048
vn 0.2488 -0.9685 -0.0052
vn 0.2489 -0.9685 -0.0035
vn 0.5158 -0.8502 -0.1055
vn 0.5157 -0.8500 0.1071
vn 0.3620 -0.9271 -0.0968
vn 0.2019 -0.9757 0.0849
vn 0.6572 -0.7513 -0.0604
vn 0.3620 -0.9271 0.0972
vn 0.5917 -0.7847 -0.1849
vn 0.2584 -0.9653 -0.0379
vn 0.0427 -0.9988 -0.0229
vn 0.1456 -0.9892 0.0155
vn 0.2343 0.9713 -0.0402
vn 0.0183 0.9984 0.0528
vn 0.0601 0.9977 -0.0322
vn -0.1094 0.9937 0.0225
vn -0.2015 0.9790 -0.0306
vn -0.1094 0.9937 -0.0243
vn -0.3297 0.9438 0.0242
vn -0.2215 0.9749 0.0221
vn -0.3297 0.9438 -0.0242
vn -0.2215 0.9749 -0.0221
vn -0.4447 0.8953 -0.0263
vn -0.4447 0.8953 0.0263
vn -0.3295 0.9438 0.0242
vn -0.5656 0.8242 -0.0282
vn -0.5656 0.8242 0.0282
vn -0.4445 0.8954 0.0263
vn -0.3295 0.9438 -0.0242
vn -0.2212 0.9739 -0.0502
vn -0.2212 0.9745 -0.0380
vn -0.2213 0.9744 -0.0397
vn -0.2211 0.9739 -0.0516
vn -0.4445 0.8954 -0.0242
vn -0.3616 0.9321 0.0227
vn -0.1767 0.9834 0.0407
vn -0.2421 0.9702 -0.0142
vn -0.3613 0.9314 -0.0430
vn -0.2589 0.9658 0.0142
vn -0.1481 0.9883 0.0363
vn -0.1482 0.9888 -0.0191
vn -0.1170 0.9931 0.0021
vn -0.1170 0.9931 -0.0029
vn -0.1170 0.9931 -0.0023
vn -0.1170 0.9931 0.0029
vn -0.2819 0.9586 0.0410
vn -0.2822 0.9594 -0.0051
vn -0.2699 0.9626 -0.0253
vn -0.4275 0.9037 0.0238
vn -0.5130 0.8580 -0.0252
vn -0.3846 0.9229 -0.0159
vn -0.5130 0.8580 0.0251
vn -0.6006 0.7991 -0.0263
vn -0.7436 0.6683 0.0232
vn -0.7434 0.6682 0.0292
vn -0.7435 0.6682 0.0287
vn -0.7435 0.6683 0.0226
vn -0.7259 0.6862 0.0475
vn -0.8428 0.5379 0.0186
vn -0.9357 0.3526 -0.0092
vn -0.9265 0.3758 -0.0188
vn -0.7252 0.6856 -0.0634
vn -0.6004 0.7995 0.0167
vn -0.6002 0.7992 0.0321
vn -0.8430 0.5377 -0.0128
vn -0.8431 0.5377 -0.0126
vn -0.8429 0.5379 -0.0130
vn -0.6259 0.7788 -0.0411
vn -0.6721 0.7397 0.0323
vn -0.8431 0.5375 -0.0125
vn -0.7426 0.6675 -0.0541
vn -0.7435 0.6683 -0.0226
vn -0.8889 0.4582 0.0000
vn -0.8182 0.5746 0.0186
vn -0.6006 0.7991 0.0263
vn -0.6886 0.7246 0.0271
vn -0.8718 0.4878 -0.0441
vn -0.4445 0.8954 0.0242
vn -0.6886 0.7245 -0.0296
vn -0.4445 0.8954 -0.0263
vn -0.7612 0.6485 0.0057
vn -0.7613 0.6483 -0.0039
vn -0.7614 0.6483 0.0052
vn -0.6364 0.7714 0.0040
vn -0.7612 0.6485 -0.0044
vn -0.8702 0.4886 0.0628
vn -0.8727 0.4883 -0.0062
vn -0.9076 0.4195 0.0183
vn -0.9589 0.2837 0.0000
vn -0.8708 0.4890 -0.0513
vn -0.8704 0.4897 -0.0508
vn -0.8703 0.4899 -0.0505
vn -0.9775 0.2103 0.0138
vn -0.8711 0.4908 -0.0172
vn -0.9633 0.2654 0.0396
vn -0.8701 0.4902 -0.0503
vn -0.6359 0.7708 0.0380
vn -0.6172 0.7847 -0.0577
vn -0.6174 0.7849 0.0531
vn -0.7395 0.6723 0.0337
vn -0.0000 0.0000 1.0000
vn -0.4613 0.8866 0.0337
vn -0.2015 0.9790 0.0306
vn -0.1094 0.9937 0.0243
vn -0.1094 0.9937 -0.0225
vn -0.0939 0.9951 -0.0306
vn -0.1247 0.9919 0.0234
vn -0.1767 0.9834 -0.0407
vn 0.0474 0.9974 0.0541
vn -0.0231 0.9993 -0.0281
vn 0.0896 0.9957 -0.0241
vn 0.0907 0.9956 -0.0226
vn 0.0848 0.9959 -0.0325
vn -0.2212 0.9739 0.0502
vn -0.2211 0.9739 0.0516
vn -0.2213 0.9744 0.0397
vn -0.1264 0.9919 -0.0124
vn -0.0231 0.9996 0.0171
vn -0.2212 0.9745 0.0380
vn -0.1481 0.9883 -0.0363
vn -0.2421 0.9702 0.0142
vn -0.1482 0.9888 0.0191
vn -0.3616 0.9321 -0.0227
vn -0.3613 0.9314 0.0430
vn -0.2589 0.9658 -0.0142
vn -0.3846 0.9229 0.0159
vn -0.2819 0.9586 -0.0410
vn -0.2822 0.9594 0.0051
vn -0.4275 0.9037 -0.0238
vn -0.5129 0.8580 0.0252
vn -0.5130 0.8580 -0.0251
vn -0.2699 0.9626 0.0253
vn -0.1170 0.9931 -0.0021
vn -0.1170 0.9931 0.0023
vn -0.2072 0.9769 -0.0521
vn -0.2073 0.9775 -0.0397
vn -0.2073 0.9774 -0.0416
vn -0.1288 0.9916 0.0088
vn 0.0483 0.9988 -0.0046
vn 0.0483 0.9986 0.0221
vn -0.0124 0.9998 -0.0134
vn 0.1700 0.9853 -0.0162
vn 0.1701 0.9853 -0.0164
vn 0.1703 0.9853 -0.0165
vn -0.0124 0.9995 0.0285
vn 0.0016 0.9999 0.0126
vn 0.1614 0.9864 -0.0313
vn 0.1704 0.9852 -0.0167
vn 0.3243 0.9459 -0.0074
vn 0.2782 0.9591 0.0523
vn 0.3399 0.9403 0.0157
vn 0.4971 0.8677 0.0069
vn 0.4153 0.9071 -0.0691
vn 0.4856 0.8740 0.0198
vn 0.5225 0.8517 0.0407
vn 0.6457 0.7629 -0.0335
vn 0.6553 0.7551 -0.0208
vn 0.8263 0.5594 -0.0660
vn 0.8263 0.5595 0.0642
vn 0.6973 0.7130 0.0740
vn 0.5227 0.8521 -0.0253
vn 0.3603 0.9323 0.0304
vn 0.4501 0.8924 0.0323
vn 0.6832 0.7284 -0.0520
vn 0.3603 0.9323 -0.0299
vn 0.6976 0.7132 -0.0688
vn 0.8616 0.5072 0.0187
vn 0.6841 0.7293 -0.0090
vn 0.7359 0.6767 0.0226
vn 0.8616 0.5072 -0.0194
vn 0.9519 0.3057 -0.0195
vn 0.9834 0.1802 0.0200
vn 0.9201 0.3912 0.0206
vn 0.9834 0.1802 -0.0208
vn 0.9977 -0.0644 -0.0208
vn 0.9783 -0.2061 0.0236
vn 0.9992 0.0342 0.0209
vn 0.9783 -0.2061 -0.0231
vn 0.8293 -0.5582 -0.0255
vn 0.8293 -0.5582 0.0258
vn 0.8986 -0.4382 -0.0247
vn 0.9369 -0.3487 0.0251
vn 0.7686 -0.6334 0.0900
vn 0.7470 -0.6623 0.0578
vn 0.9369 -0.3487 -0.0244
vn 0.7480 -0.6632 0.0257
vn 0.4784 -0.8775 -0.0347
vn 0.4782 -0.8772 0.0423
vn 0.6025 -0.7977 -0.0248
vn 0.2046 -0.9784 -0.0303
vn 0.2489 -0.9685 -0.0048
vn 0.2488 -0.9685 -0.0059
vn 0.2489 -0.9685 0.0035
vn 0.2046 -0.9784 0.0306
vn 0.3463 -0.9375 -0.0344
vn 0.4241 -0.9056 0.0089
vn 0.2488 -0.9685 0.0052
vn 0.3316 -0.9388 0.0930
vn 0.4239 -0.9051 -0.0328
vn 0.5158 -0.8502 0.1055
vn 0.3316 -0.9387 -0.0938
vn 0.5784 -0.8155 0.0215
vn 0.7683 -0.6332 -0.0938
vn 0.8025 -0.5943 -0.0523
vn 0.8034 -0.5949 -0.0254
vn 0.6572 -0.7513 0.0604
vn 0.5157 -0.8500 -0.1071
vn 0.5917 -0.7847 0.1849
vn 0.3620 -0.9271 0.0968
vn 0.3620 -0.9271 -0.0971
vn 0.2584 -0.9653 0.0379
vn 0.0427 -0.9988 0.0229
vn 0.1456 -0.9892 -0.0155
vn 0.0183 0.9984 -0.0528
vn 0.2343 0.9713 0.0402
vn 0.1289 0.9896 -0.0642
vn 0.2458 0.9690 0.0234
vn 0.0601 0.9977 0.0322
vn 0.4133 0.9097 -0.0392
vn 0.4121 0.9070 0.0863
vn 0.1291 0.9914 0.0227
vn 0.3051 0.9522 -0.0153
vn 0.4600 0.8876 0.0225
vn 0.3368 0.9397 -0.0594
vn 0.6948 0.7150 -0.0783
vn 0.6942 0.7143 0.0885
vn 0.4954 0.8682 -0.0285
vn 0.6850 0.7257 -0.0645
vn 0.3370 0.9402 0.0494
vn 0.3235 0.9459 -0.0235
vn 0.5259 0.8503 0.0203
vn 0.2947 0.9554 0.0196
vn 0.2947 0.9554 -0.0163
vn 0.0906 0.9957 0.0176
vn 0.0906 0.9956 -0.0223
vn 0.3497 0.9365 0.0270
vn 0.3414 0.9385 0.0519
vn 0.4492 0.8905 -0.0718
vn 0.5365 0.8438 0.0080
vn 0.1900 0.9782 -0.0836
vn 0.1678 0.9857 -0.0152
vn 0.8816 0.4715 0.0190
vn 0.8811 0.4713 0.0388
vn 0.8559 0.5124 0.0703
vn 0.6862 0.7270 -0.0249
vn 0.9900 0.1341 -0.0440
vn 0.9907 0.1342 -0.0202
vn 0.9657 -0.2537 0.0553
vn 0.9735 -0.2122 0.0855
vn 0.9937 0.0781 -0.0799
vn 0.9669 -0.2540 0.0240
vn 0.7354 0.6762 0.0435
vn 0.9201 0.3912 -0.0202
vn 0.9939 0.0781 0.0782
vn 0.0440 0.9942 0.0980
vn 0.0442 0.9978 -0.0500
vn 0.5125 0.8578 0.0400
vn 0.0865 -0.9957 -0.0320
vn -0.0543 -0.9982 0.0264
vn -0.0543 -0.9982 -0.0266
vn 0.2020 -0.9759 0.0828
vn 0.2019 -0.9757 -0.0849
vn -0.1594 -0.9868 -0.0293
vn -0.3398 -0.9394 0.0452
vn -0.3337 -0.9414 0.0500
vn -0.3389 -0.9397 0.0458
vn -0.3337 -0.9414 -0.0488
vn -0.1687 -0.9854 0.0229
vn -0.3400 -0.9394 0.0448
vn -0.3403 -0.9403 -0.0007
vn -0.2708 -0.9621 -0.0325
vn -0.1594 -0.9868 0.0290
vn -0.0306 -0.9992 -0.0263
vn -0.0306 -0.9992 0.0262
vn -0.1352 -0.9904 -0.0286
vn -0.2708 -0.9621 0.0323
vn -0.1352 -0.9904 0.0280
vn 0.0975 -0.9949 0.0273
vn -0.0033 -0.9997 -0.0260
vn 0.0975 -0.9949 -0.0272
vn -0.0033 -0.9997 0.0260
vn -0.1041 -0.9942 -0.0275
vn -0.2409 -0.9700 -0.0315
vn -0.2409 -0.9701 0.0311
vn -0.2806 -0.9598 -0.0078
vn -0.2814 -0.9596 -0.0086
vn -0.2802 -0.9599 -0.0074
vn -0.2802 -0.9599 0.0086
vn -0.1041 -0.9945 0.0123
vn -0.3095 -0.9508 0.0149
vn -0.1595 -0.9871 -0.0133
vn -0.1146 -0.9929 0.0314
vn -0.2883 -0.9574 -0.0159
vn 0.0276 -0.9993 0.0261
vn -0.0622 -0.9978 -0.0210
vn 0.0276 -0.9993 -0.0260
vn -0.1832 -0.9829 0.0192
vn -0.3009 -0.9514 -0.0654
vn -0.3009 -0.9514 0.0654
vn -0.1832 -0.9829 -0.0192
vn -0.0622 -0.9978 0.0210
vn -0.1146 -0.9929 -0.0314
vn 0.0276 -0.9993 0.0260
vn -0.1595 -0.9871 0.0133
vn 0.0276 -0.9993 -0.0261
vn 0.1477 -0.9888 0.0236
vn 0.3068 -0.9505 0.0492
vn 0.3067 -0.9505 0.0492
vn 0.1285 -0.9913 -0.0282
vn 0.3067 -0.9504 -0.0511
vn 0.6153 -0.7876 0.0334
vn 0.4957 -0.8679 -0.0315
vn 0.6153 -0.7876 -0.0335
vn 0.4245 -0.9040 0.0499
vn 0.3072 -0.9517 0.0010
vn 0.4508 -0.8926 -0.0015
vn 0.4958 -0.8680 0.0280
vn 0.6026 -0.7978 -0.0194
vn 0.4508 -0.8926 0.0127
vn 0.6745 -0.7377 -0.0305
vn 0.6745 -0.7377 0.0302
vn 0.6025 -0.7977 0.0248
vn 0.7480 -0.6632 -0.0257
vn 0.8293 -0.5582 0.0255
vn 0.8293 -0.5582 -0.0258
vn 0.9369 -0.3487 -0.0251
vn 0.9783 -0.2061 0.0231
vn 0.9783 -0.2061 -0.0236
vn 0.8986 -0.4382 0.0247
vn 0.8985 -0.4382 -0.0253
vn 0.9977 -0.0644 0.0208
vn 0.9885 -0.1257 0.0844
vn 0.9969 -0.0643 0.0448
vn 0.9834 0.1802 -0.0200
vn 0.9519 0.3057 0.0195
vn 0.9519 0.3057 -0.0198
vn 0.9836 0.1802 0.0114
vn 0.9211 0.3893 -0.0048
vn 0.8616 0.5072 0.0191
vn 0.8616 0.5072 -0.0187
vn 0.8006 0.5990 -0.0167
vn 0.6260 0.7793 0.0285
vn 0.6976 0.7132 0.0688
vn 0.6813 0.7263 -0.0911
vn 0.6832 0.7284 0.0520
vn 0.4495 0.8912 0.0612
vn 0.5423 0.8350 -0.0930
vn 0.3289 0.9415 0.0738
vn 0.3827 0.9231 -0.0366
vn 0.4501 0.8924 -0.0323
vn 0.3603 0.9323 0.0299
vn 0.1905 0.9811 0.0340
vn 0.1906 0.9813 -0.0265
vn 0.2044 0.9786 0.0218
vn 0.0443 0.9988 0.0217
vn 0.1434 0.9878 -0.0613
vn 0.0291 0.9990 -0.0327
vn 0.1066 0.9942 0.0104
vn 0.0440 0.9942 -0.0980
vn -0.0939 0.9951 0.0306
vn -0.1247 0.9919 -0.0234
vn 0.1291 0.9914 -0.0227
vn 0.0442 0.9978 0.0500
vn 0.3051 0.9522 0.0153
vn 0.3368 0.9397 0.0594
vn 0.2872 0.9578 -0.0063
vn 0.3370 0.9405 -0.0442
vn 0.6472 0.7605 -0.0522
vn 0.6473 0.7607 0.0487
vn 0.4600 0.8876 -0.0225
vn 0.5137 0.8555 0.0646
vn 0.4133 0.9097 0.0392
vn 0.5125 0.8578 -0.0400
vn 0.6610 0.7495 0.0362
vn 0.4121 0.9070 -0.0863
vn 0.6614 0.7499 0.0148
vn 0.8406 0.5413 -0.0194
vn 0.8399 0.5409 -0.0437
vn 0.9788 0.1779 0.1014
vn 0.9788 0.1782 0.1010
vn 0.9789 0.1771 0.1020
vn 0.9833 0.1790 0.0341
vn 0.8560 0.5125 -0.0672
vn 0.9735 -0.2122 -0.0855
vn 0.9794 0.1706 0.1077
vn 0.9669 -0.2540 -0.0240
vn 0.9657 -0.2537 -0.0553
vn 0.8025 -0.5943 0.0523
vn 0.8034 -0.5949 0.0254
vn 0.7686 -0.6334 -0.0900
vn 0.7683 -0.6332 0.0938
vn 0.9772 0.1702 -0.1273
vn 0.9369 -0.3487 0.0244
vn 0.9952 0.0790 -0.0579
vn 0.5784 -0.8155 -0.0215
vn 0.4239 -0.9051 0.0328
vn 0.4241 -0.9056 -0.0089
vn 0.4784 -0.8775 0.0347
vn 0.7470 -0.6623 -0.0578
vn 0.2046 -0.9784 -0.0306
vn 0.2046 -0.9784 0.0303
vn 0.2488 -0.9685 0.0059
vn 0.4782 -0.8772 -0.0423
vn 0.3463 -0.9375 0.0344
vn 0.0975 -0.9949 -0.0273
vn 0.0975 -0.9949 0.0272
vn 0.3463 -0.9375 -0.0343
vn 0.2338 -0.9718 0.0309
vn 0.2338 -0.9718 -0.0313
vn 0.1285 -0.9913 0.0278
vn -0.2409 -0.9700 0.0315
vn -0.2409 -0.9701 -0.0311
vn -0.1352 -0.9904 -0.0280
vn -0.1041 -0.9942 0.0275
vn -0.1352 -0.9904 0.0286
vn -0.2708 -0.9621 -0.0323
vn -0.3900 -0.9201 -0.0352
vn -0.3900 -0.9201 0.0357
vn -0.5411 -0.8402 -0.0365
vn -0.5414 -0.8407 -0.0016
vn -0.3403 -0.9403 0.0007
vn -0.2708 -0.9621 0.0325
vn -0.6475 -0.7617 0.0234
vn -0.8060 -0.5913 -0.0288
vn -0.8059 -0.5912 0.0320
vn -0.6127 -0.7862 -0.0805
vn -0.9321 -0.3603 -0.0374
vn -0.9561 -0.2930 -0.0090
vn -0.8835 -0.4670 0.0372
vn -0.9836 -0.1805 -0.0000
vn -0.8835 -0.4670 -0.0372
vn -0.9561 -0.2930 0.0090
vn -0.8060 -0.5913 0.0288
vn -0.8858 -0.4640 0.0076
vn -0.8857 -0.4642 0.0075
vn -0.8857 -0.4641 0.0121
vn -0.9705 -0.2409 -0.0123
vn -0.9704 -0.2413 -0.0125
vn -0.9705 -0.2409 -0.0075
vn -0.8059 -0.5912 -0.0320
vn -0.6475 -0.7617 -0.0234
vn -0.7180 -0.6957 0.0241
vn -0.5572 -0.8299 0.0279
vn -0.5573 -0.8299 -0.0254
vn -0.4018 -0.9153 -0.0284
vn -0.4686 -0.8829 0.0298
vn -0.4019 -0.9157 0.0055
vn -0.4683 -0.8824 -0.0442
vn -0.2814 -0.9596 0.0086
vn -0.2883 -0.9574 0.0159
vn -0.2806 -0.9598 0.0078
vn -0.2802 -0.9599 0.0074
vn -0.4514 -0.8921 -0.0177
vn -0.2802 -0.9599 -0.0086
vn -0.5678 -0.8146 0.1185
vn -0.3095 -0.9508 -0.0149
vn -0.3371 -0.9414 0.0148
vn -0.5716 -0.8200 -0.0296
vn -0.8665 -0.4982 -0.0320
vn -0.8666 -0.4982 0.0289
vn -0.6713 -0.7403 -0.0375
vn -0.6690 -0.7379 0.0890
vn -0.9342 -0.3566 0.0073
vn -0.6690 -0.7379 -0.0890
vn -0.9303 -0.3551 0.0922
vn -0.8851 -0.4639 -0.0371
vn -0.8685 -0.4954 -0.0172
vn -0.6713 -0.7403 0.0375
vn -0.5678 -0.8146 -0.1185
vn -0.5716 -0.8200 0.0296
vn -0.4683 -0.8824 0.0442
vn -0.7165 -0.6942 -0.0689
vn -0.4514 -0.8921 0.0177
vn -0.4686 -0.8829 -0.0298
vn -0.5573 -0.8299 0.0254
vn -0.7180 -0.6957 -0.0241
vn -0.5572 -0.8299 -0.0279
vn -0.4018 -0.9153 0.0284
vn -0.3900 -0.9201 0.0352
vn -0.5411 -0.8402 0.0365
vn -0.3900 -0.9201 -0.0357
vn -0.5414 -0.8407 0.0016
vn -0.6127 -0.7862 0.0805
vn -0.9321 -0.3603 0.0374
vn -0.9321 -0.3603 -0.0365
vn -0.6133 -0.7869 -0.0684
vn -0.6171 -0.7842 -0.0640
vn -0.6169 -0.7844 -0.0643
vn -0.8554 -0.5165 0.0380
vn -0.6174 -0.7840 -0.0638
vn -0.8539 -0.5157 -0.0698
vn -0.7351 -0.6774 0.0259
vn -0.6185 -0.7854 -0.0228
vn -0.8433 -0.4604 0.2772
vn -0.9257 -0.3685 0.0852
vn -0.9845 -0.1749 0.0086
vn -0.9544 -0.2987 -0.0000
vn -0.9397 -0.3420 0.0037
vn -0.8857 -0.4642 -0.0075
vn -0.4019 -0.9157 -0.0055
vn -0.9742 -0.2258 -0.0036
vn -0.8857 -0.4642 0.0122
vn -0.9704 -0.2413 -0.0073
vn -0.7165 -0.6942 0.0689
vn -0.1041 -0.9945 -0.0123
vn -0.0306 -0.9992 -0.0262
vn 0.8006 0.5990 0.0176
vn 0.9207 0.3892 -0.0287
vn 0.2458 0.9690 -0.0234
vn 0.1289 0.9896 0.0642
vn 0.3603 0.9323 -0.0304
vn 0.0891 0.9953 0.0389
vn 0.0892 0.9956 -0.0301
vn 0.2785 0.9601 0.0252
vn 0.5225 0.8517 -0.0407
vn 0.5227 0.8521 0.0253
vn 0.2782 0.9591 -0.0523
vn 0.4971 0.8677 -0.0069
vn 0.3243 0.9459 0.0074
vn 0.4153 0.9071 0.0691
vn 0.4856 0.8740 -0.0198
vn 0.3399 0.9403 -0.0157
vn 0.1703 0.9853 0.0165
vn 0.1704 0.9852 0.0167
vn 0.1701 0.9853 0.0164
vn 0.3962 0.9182 -0.0011
vn 0.3685 0.9285 0.0457
vn 0.1222 0.9911 -0.0536
vn 0.1614 0.9864 0.0313
vn 0.1700 0.9853 0.0162
vn 0.0483 0.9986 -0.0221
vn -0.0124 0.9998 0.0134
vn 0.0016 0.9999 -0.0126
vn -0.0124 0.9995 -0.0285
vn -0.2072 0.9769 0.0521
vn -0.2071 0.9768 0.0537
vn -0.2073 0.9774 0.0416
vn -0.0912 0.9950 0.0412
vn -0.1613 0.9860 -0.0414
vn -0.3266 0.9446 -0.0326
vn -0.3266 0.9446 0.0326
vn -0.1613 0.9860 0.0414
vn -0.0912 0.9950 -0.0412
vn -0.2073 0.9775 0.0397
vn -0.1288 0.9916 -0.0088
vn 0.3685 0.9285 -0.0457
vn 0.1222 0.9911 0.0536
vn 0.3962 0.9182 0.0011
vn 0.6929 0.7210 0.0000
vn 0.6929 0.7210 0.0019
vn 0.6929 0.7210 -0.0019
vn 0.9818 0.1745 -0.0752
vn 0.9818 0.1745 0.0752
vn 0.9751 0.2165 0.0471
vn 0.6541 0.7532 0.0699
vn 0.6541 0.7532 -0.0699
vn 0.8465 0.5320 -0.0184
vn 0.9751 0.2165 -0.0471
vn 0.8465 0.5320 0.0184
vn 0.8459 0.5317 0.0414
vn 0.9760 0.2167 -0.0208
vn 0.9850 -0.1636 0.0539
vn 0.9888 -0.1258 0.0798
vn 0.9862 -0.1638 0.0224
vn 0.8531 -0.5211 -0.0254
vn 0.8522 -0.5205 -0.0524
vn 0.6153 -0.7876 -0.0334
vn 0.6153 -0.7876 0.0335
vn 0.7595 -0.6496 0.0351
vn 0.8205 -0.5639 -0.0937
vn 0.4957 -0.8679 0.0315
vn 0.4958 -0.8680 -0.0280
vn 0.7596 -0.6497 -0.0308
vn 0.6745 -0.7377 0.0305
vn 0.4508 -0.8926 0.0015
vn 0.4508 -0.8926 -0.0127
vn 0.6026 -0.7978 0.0194
vn 0.6745 -0.7377 -0.0302
vn 0.3072 -0.9517 -0.0010
vn 0.2338 -0.9718 0.0313
vn 0.2338 -0.9718 -0.0309
vn 0.3463 -0.9375 0.0343
vn 0.1285 -0.9913 -0.0278
vn 0.1285 -0.9913 0.0282
vn 0.3068 -0.9505 -0.0492
vn 0.3067 -0.9505 -0.0492
vn 0.3067 -0.9504 0.0511
vn 0.4245 -0.9040 -0.0499
vn 0.9885 -0.1257 -0.0844
vn 0.8985 -0.4382 0.0253
vn 0.8459 0.5317 -0.0414
vn 0.6553 0.7551 0.0208
vn 0.8263 0.5595 -0.0642
vn 0.6457 0.7629 0.0335
vn 0.9760 0.2167 0.0208
vn 0.9850 -0.1636 -0.0539
vn 0.9888 -0.1258 -0.0798
vn 0.9862 -0.1638 -0.0224
vn 0.8531 -0.5211 0.0254
vn 0.8522 -0.5205 0.0524
vn 0.8205 -0.5639 0.0937
vn 0.6973 0.7130 -0.0740
vn 0.8263 0.5594 0.0660
vn 0.0483 0.9988 0.0046
vn -0.0231 0.9993 0.0281
vn -0.0231 0.9996 -0.0171
vn 0.9964 0.0791 -0.0290
vn 0.7596 -0.6497 0.0308
vn 0.7595 -0.6496 -0.0351
vn 0.1477 -0.9888 -0.0236
vn -0.3371 -0.9414 -0.0148
vn -0.4441 -0.8947 0.0481
vn 0.0738 -0.9972 -0.0088
vn 0.0737 -0.9969 0.0270
vn 0.9982 0.0341 0.0497
vn 0.9969 -0.0643 -0.0448
vn 0.9519 0.3057 0.0198
vn 0.2785 0.9601 -0.0252
vn 0.1906 0.9813 0.0265
vn 0.0891 0.9953 -0.0389
vn 0.0892 0.9956 0.0301
vn -0.2071 0.9768 -0.0537
vn -0.4275 0.9037 0.0240
vn -0.4275 0.9037 -0.0240
vn -0.6886 0.7246 -0.0271
vn -0.8613 0.5071 0.0306
vn -0.9225 0.3742 -0.0949
vn -0.8718 0.4878 0.0441
vn -0.8727 0.4883 0.0062
vn -0.6886 0.7245 0.0296
vn -0.7613 0.6483 -0.0052
vn -0.7614 0.6483 0.0039
vn -0.7612 0.6485 -0.0057
vn -0.8702 0.4886 -0.0628
vn -0.9076 0.4195 -0.0183
vn -0.7612 0.6485 0.0044
vn -0.8703 0.4900 0.0505
vn -0.8704 0.4897 0.0508
vn -0.8708 0.4890 0.0513
vn -0.8701 0.4902 0.0503
vn -0.6359 0.7708 -0.0380
vn -0.6364 0.7714 -0.0040
vn -0.8711 0.4908 0.0172
vn -0.7395 0.6723 -0.0337
vn -0.6174 0.7849 -0.0531
vn -0.6172 0.7847 0.0577
vn -0.4613 0.8866 -0.0337
vn -0.1264 0.9919 0.0124
vn -0.9321 -0.3603 0.0365
usemtl Default_OBJ.346
s 1
f 1//1 2//1 3//1
f 3//1 2//1 4//1
f 4//2 5//2 3//2
f 3//3 6//3 1//3
f 7//4 8//4 3//4
f 3//2 5//2 7//2
f 3//5 9//5 6//5
f 3//6 10//6 11//6
f 11//7 9//7 3//7
f 3//8 8//8 10//8
f 6//9 9//9 12//9
f 12//10 9//10 11//10
f 12//11 13//12 14//13
f 6//14 12//14 14//14
f 11//15 13//15 12//15
f 14//13 13//12 15//16
f 16//17 17//17 13//17
f 16//18 13//18 11//18
f 15//19 13//20 18//21
f 13//20 17//22 18//21
f 19//23 20//23 17//23
f 19//24 17//24 16//24
f 20//25 21//25 17//25
f 17//26 21//26 18//26
f 21//27 22//27 23//27
f 21//28 23//28 18//28
f 24//29 22//29 21//29
f 21//30 25//30 24//30
f 20//31 25//31 21//31
f 20//32 26//32 25//32
f 26//33 27//33 25//33
f 25//34 27//34 28//34
f 24//35 25//36 28//37
f 29//38 27//38 26//38
f 26//39 30//39 29//39
f 31//40 30//40 26//40
f 31//41 26//41 20//41
f 29//42 30//42 32//42
f 33//43 30//43 31//43
f 32//44 30//44 33//44
f 34//6 35//6 33//6
f 36//6 34//6 33//6
f 33//45 31//45 36//45
f 33//6 35//6 32//6
f 19//6 37//6 36//6
f 36//46 20//46 19//46
f 36//47 31//47 20//47
f 37//6 34//6 36//6
f 37//48 38//48 34//48
f 39//6 37//6 19//6
f 39//49 38//49 37//49
f 40//50 38//50 39//50
f 39//51 41//51 40//51
f 16//6 39//6 19//6
f 42//6 39//6 16//6
f 42//52 41//52 39//52
f 40//53 41//53 43//53
f 42//54 44//54 41//54
f 41//55 45//55 43//55
f 44//56 45//56 41//56
f 45//57 46//57 43//57
f 47//58 48//58 45//58
f 47//59 45//59 44//59
f 45//60 48//60 46//60
f 49//61 50//61 48//61
f 47//62 49//62 48//62
f 48//63 50//63 51//63
f 46//64 48//64 51//64
f 51//65 52//66 53//67
f 53//67 54//68 51//65
f 50//69 55//69 51//69
f 55//70 56//70 51//70
f 51//71 54//71 46//71
f 51//72 56//72 52//72
f 55//73 57//73 56//73
f 56//74 57//74 58//74
f 52//75 56//75 59//75
f 59//76 56//76 58//76
f 60//77 59//78 58//79
f 58//79 61//80 60//77
f 58//81 57//81 62//81
f 62//82 61//82 58//82
f 63//83 61//83 62//83
f 62//84 64//84 63//84
f 65//85 64//85 62//85
f 62//86 57//86 55//86
f 65//87 62//87 55//87
f 55//88 66//88 65//88
f 67//89 68//90 65//91
f 65//91 66//92 67//89
f 65//93 68//93 64//93
f 68//94 69//94 70//94
f 5//95 69//95 68//95
f 5//96 68//96 67//96
f 64//97 68//97 70//97
f 70//98 71//98 72//98
f 72//99 64//99 70//99
f 69//100 71//101 70//102
f 72//103 71//103 73//103
f 73//104 71//104 74//104
f 74//105 71//101 69//100
f 75//106 73//106 74//106
f 74//107 76//107 75//107
f 74//108 69//108 77//108
f 77//109 76//109 74//109
f 76//88 78//88 79//88
f 75//110 76//110 79//110
f 80//111 78//111 76//111
f 80//112 76//112 77//112
f 79//113 78//113 81//113
f 80//114 82//114 78//114
f 78//115 83//115 81//115
f 78//62 82//62 83//62
f 83//61 82//61 84//61
f 80//116 85//117 82//118
f 84//119 82//119 86//119
f 82//118 85//117 86//120
f 86//121 85//121 87//121
f 77//122 85//122 80//122
f 87//123 85//123 77//123
f 87//124 69//124 5//124
f 4//2 87//2 5//2
f 77//124 69//124 87//124
f 87//125 88//126 86//127
f 4//128 88//128 87//128
f 89//129 88//129 90//129
f 90//130 88//130 4//130
f 86//127 88//126 89//131
f 86//132 89//132 84//132
f 91//133 89//133 92//133
f 84//134 89//134 91//134
f 92//135 89//135 90//135
f 93//136 92//136 94//136
f 92//136 90//136 94//136
f 93//137 91//137 92//137
f 93//136 94//136 95//136
f 96//136 93//136 95//136
f 96//138 97//138 93//138
f 97//56 91//56 93//56
f 98//57 97//57 99//57
f 99//139 97//139 100//139
f 100//140 97//140 96//140
f 98//54 91//54 97//54
f 83//64 98//64 101//64
f 84//59 98//59 83//59
f 101//55 98//55 99//55
f 84//58 91//58 98//58
f 81//60 83//60 101//60
f 99//141 102//141 101//141
f 101//142 102//142 103//142
f 101//143 103//143 81//143
f 103//144 104//144 105//144
f 106//145 103//145 105//145
f 102//146 104//147 103//148
f 81//149 103//150 106//151
f 107//152 108//152 106//152
f 107//153 106//153 105//153
f 106//151 108//154 81//149
f 109//155 108//155 107//155
f 81//156 108//156 109//156
f 110//157 109//157 107//157
f 81//158 109//158 79//158
f 79//159 109//159 111//159
f 111//160 109//160 110//160
f 79//161 111//161 112//161
f 112//162 111//162 110//162
f 110//163 113//163 112//163
f 73//164 112//164 114//164
f 75//165 112//165 73//165
f 75//166 79//166 112//166
f 112//167 113//167 114//167
f 115//168 113//78 110//169
f 114//170 113//171 116//172
f 116//173 113//173 115//173
f 115//174 107//174 117//174
f 115//175 117//175 118//175
f 118//176 116//176 115//176
f 110//169 107//80 115//168
f 117//177 119//178 118//179
f 120//180 116//180 118//180
f 121//181 120//181 118//181
f 118//182 122//182 121//182
f 118//179 119//178 122//183
f 123//184 124//184 119//184
f 123//185 119//185 117//185
f 119//186 124//186 122//186
f 125//187 124//187 123//187
f 122//188 124//188 126//188
f 126//189 124//189 125//189
f 127//190 125//190 123//190
f 128//191 126//191 125//191
f 128//192 125//192 127//192
f 127//193 129//193 130//193
f 130//194 128//194 127//194
f 127//195 131//195 129//195
f 123//196 131//196 127//196
f 123//197 132//197 131//197
f 133//198 131//198 134//198
f 135//199 131//199 133//199
f 131//200 132//200 134//200
f 129//201 131//201 135//201
f 136//202 129//202 135//202
f 133//203 137//203 135//203
f 135//204 137//204 138//204
f 135//205 138//205 136//205
f 139//206 129//206 136//206
f 140//207 139//207 136//207
f 136//208 138//208 141//208
f 136//209 141//209 140//209
f 142//210 139//210 140//210
f 143//211 142//211 140//211
f 140//212 141//212 144//212
f 140//213 144//213 143//213
f 143//214 145//214 146//214
f 146//215 147//215 143//215
f 147//216 142//216 143//216
f 143//217 144//217 145//217
f 148//218 145//218 149//218
f 150//219 145//219 148//219
f 145//220 144//220 149//220
f 146//221 145//221 150//221
f 151//222 150//222 148//222
f 152//223 150//223 151//223
f 146//224 150//224 152//224
f 153//225 151//225 154//225
f 154//226 151//227 155//228
f 156//229 151//229 153//229
f 152//230 151//230 156//230
f 155//231 151//231 148//231
f 155//228 157//232 154//226
f 155//233 158//233 157//233
f 148//234 158//234 155//234
f 159//235 160//235 158//235
f 158//236 160//236 157//236
f 159//237 158//237 148//237
f 149//238 159//238 148//238
f 149//239 161//239 159//239
f 159//240 161//240 162//240
f 162//241 163//241 159//241
f 159//242 163//242 160//242
f 164//243 163//243 162//243
f 160//244 163//244 165//244
f 165//245 163//245 164//245
f 166//136 167//136 164//136
f 166//136 164//136 162//136
f 168//246 165//246 164//246
f 167//136 168//136 164//136
f 169//136 170//136 168//136
f 170//247 171//247 168//247
f 171//248 165//248 168//248
f 167//136 169//136 168//136
f 169//249 172//249 96//249
f 167//250 172//250 169//250
f 169//136 96//136 170//136
f 100//251 172//251 173//251
f 173//252 172//252 167//252
f 96//253 172//253 100//253
f 174//254 173//254 167//254
f 175//255 173//255 174//255
f 100//256 173//256 176//256
f 176//257 173//257 175//257
f 177//258 175//258 174//258
f 176//259 175//259 177//259
f 177//260 178//260 179//260
f 179//261 137//261 177//261
f 137//262 180//262 177//262
f 177//263 174//263 178//263
f 177//264 180//264 176//264
f 181//265 104//265 180//265
f 181//266 180//266 137//266
f 104//267 182//267 180//267
f 180//268 182//268 176//268
f 176//269 182//269 102//269
f 102//146 182//270 104//147
f 183//271 104//271 181//271
f 134//272 183//272 181//272
f 134//273 181//273 133//273
f 133//274 181//274 137//274
f 105//275 183//275 134//275
f 105//276 104//276 183//276
f 179//277 178//277 184//277
f 184//278 178//278 185//278
f 185//279 178//279 166//279
f 178//280 174//280 166//280
f 179//281 184//281 186//281
f 186//282 184//282 185//282
f 161//283 186//283 162//283
f 162//284 186//284 185//284
f 179//285 186//285 149//285
f 149//286 186//286 161//286
f 166//136 162//136 185//136
f 138//287 137//287 179//287
f 141//288 138//288 179//288
f 149//289 141//289 179//289
f 176//290 102//290 99//290
f 99//291 100//291 176//291
f 166//292 174//292 167//292
f 187//293 157//293 171//293
f 187//294 171//294 188//294
f 188//295 171//295 170//295
f 157//296 160//296 171//296
f 160//297 165//297 171//297
f 187//298 188//298 189//298
f 189//299 188//300 190//301
f 190//302 188//302 95//302
f 95//303 188//303 170//303
f 189//299 190//301 191//304
f 191//305 192//305 189//305
f 192//306 193//306 189//306
f 193//307 187//307 189//307
f 153//308 187//308 193//308
f 194//309 153//309 193//309
f 194//310 193//310 195//310
f 195//311 193//311 192//311
f 194//312 195//312 196//312
f 197//313 156//313 194//313
f 196//314 197//314 194//314
f 156//315 153//315 194//315
f 198//316 197//316 196//316
f 198//317 196//317 199//317
f 196//318 195//318 200//318
f 199//319 196//319 200//319
f 201//320 202//321 199//322
f 199//323 200//323 201//323
f 199//324 202//324 198//324
f 202//325 203//325 204//325
f 205//326 202//326 204//326
f 198//327 202//327 205//327
f 201//320 203//328 202//321
f 206//329 207//329 205//329
f 206//330 205//330 208//330
f 207//331 198//331 205//331
f 205//332 204//332 208//332
f 208//333 204//333 209//333
f 209//334 210//334 208//334
f 208//335 210//335 211//335
f 208//336 211//336 206//336
f 211//337 212//337 213//337
f 213//338 214//338 211//338
f 211//339 210//339 212//339
f 211//340 214//340 206//340
f 206//341 214//341 215//341
f 216//342 217//342 214//343
f 216//344 214//344 213//344
f 214//345 217//345 215//345
f 218//346 219//346 217//346
f 218//347 217//347 220//347
f 220//342 217//342 216//342
f 217//348 219//348 221//348
f 215//349 217//349 221//349
f 216//350 222//350 220//350
f 222//351 223//351 220//351
f 223//352 218//352 220//352
f 224//353 223//353 225//353
f 225//354 223//354 222//354
f 226//355 218//355 223//355
f 224//356 226//356 223//356
f 225//357 227//357 224//357
f 227//358 228//358 224//358
f 224//359 228//359 229//359
f 229//360 226//360 224//360
f 228//361 230//361 229//361
f 229//362 230//362 231//362
f 231//363 232//363 229//363
f 229//364 232//364 226//364
f 226//365 232//365 233//365
f 231//366 234//366 232//366
f 233//367 232//367 235//367
f 232//368 234//368 235//368
f 236//369 234//369 231//369
f 236//370 237//370 234//370
f 234//371 237//371 235//371
f 231//372 238//372 236//372
f 238//373 239//373 236//373
f 236//374 239//374 240//374
f 240//375 237//375 236//375
f 239//376 241//376 240//376
f 241//377 242//377 240//377
f 240//378 243//378 237//378
f 240//379 242//379 244//379
f 244//380 243//380 240//380
f 244//381 242//381 245//381
f 241//382 246//382 242//382
f 246//383 247//383 242//383
f 242//384 247//384 245//384
f 245//385 243//385 244//385
f 245//386 248//386 243//386
f 245//387 249//387 250//387
f 250//388 248//388 245//388
f 247//389 249//389 245//389
f 54//390 249//390 251//390
f 251//391 249//391 247//391
f 250//392 249//392 54//392
f 251//393 247//393 252//393
f 43//394 251//394 252//394
f 46//395 251//395 43//395
f 46//396 54//396 251//396
f 252//397 253//397 40//397
f 252//398 40//398 43//398
f 252//399 254//399 253//399
f 255//400 254//400 252//400
f 252//401 247//401 246//401
f 252//402 246//402 255//402
f 255//403 241//403 256//403
f 256//404 257//404 255//404
f 257//405 254//405 255//405
f 255//406 246//406 241//406
f 34//407 253//407 257//407
f 34//408 257//408 35//408
f 258//409 257//409 256//409
f 253//410 254//410 257//410
f 35//411 257//411 258//411
f 259//412 258//412 256//412
f 35//413 258//413 259//413
f 260//414 259//415 256//416
f 261//417 259//417 260//417
f 35//418 259//418 261//418
f 261//419 260//419 32//419
f 32//6 35//6 261//6
f 262//420 260//414 256//416
f 263//421 260//421 262//421
f 32//422 260//422 263//422
f 29//423 263//423 262//423
f 32//424 263//424 29//424
f 262//425 228//425 264//425
f 264//426 29//426 262//426
f 256//427 238//427 262//427
f 262//428 230//428 228//428
f 262//429 238//429 230//429
f 264//430 27//430 29//430
f 28//431 27//431 264//431
f 264//432 265//432 28//432
f 264//433 227//433 265//433
f 264//434 228//434 227//434
f 265//435 266//435 22//435
f 24//436 265//436 22//436
f 28//37 265//437 24//35
f 265//438 227//438 225//438
f 225//439 266//439 265//439
f 266//440 267//440 268//440
f 22//441 266//441 268//441
f 225//442 222//442 266//442
f 266//443 222//443 267//443
f 268//316 267//316 269//316
f 267//444 222//444 216//444
f 216//445 213//445 267//445
f 267//314 213//314 269//314
f 270//446 269//446 271//446
f 271//447 269//447 272//447
f 268//448 269//448 270//448
f 269//449 213//449 272//449
f 268//450 270//450 23//450
f 23//451 270//451 273//451
f 270//452 271//452 274//452
f 273//453 270//453 274//453
f 275//454 273//454 274//454
f 15//455 273//455 275//455
f 18//456 273//456 15//456
f 18//457 23//457 273//457
f 276//458 275//458 274//458
f 277//459 275//459 276//459
f 14//460 275//460 277//460
f 15//461 275//461 14//461
f 14//462 277//462 1//462
f 1//463 277//463 278//463
f 278//464 277//464 276//464
f 278//465 2//465 1//465
f 276//466 279//466 278//466
f 278//467 279//467 2//467
f 276//468 280//468 279//468
f 281//469 279//470 282//471
f 2//472 279//473 281//474
f 279//475 280//475 282//475
f 274//476 280//476 276//476
f 282//477 280//477 283//477
f 274//478 284//478 280//478
f 280//479 284//479 283//479
f 274//480 271//480 284//480
f 283//481 284//481 285//481
f 284//482 271//482 285//482
f 285//483 286//483 283//483
f 212//484 287//485 285//486
f 272//487 212//484 285//486
f 285//488 287//488 286//488
f 285//489 271//489 272//489
f 286//490 287//490 288//490
f 210//491 287//491 212//491
f 209//492 287//492 210//492
f 288//493 287//493 209//493
f 289//494 288//494 290//494
f 282//495 288//495 289//495
f 282//496 286//496 288//496
f 290//497 288//497 209//497
f 290//498 291//498 289//498
f 209//499 292//499 290//499
f 290//500 292//500 291//500
f 293//501 292//501 294//501
f 291//502 292//502 293//502
f 292//503 295//503 294//503
f 292//504 203//504 295//504
f 209//505 203//505 292//505
f 296//506 295//506 201//506
f 294//507 295//507 296//507
f 295//508 203//508 201//508
f 201//509 297//509 296//509
f 296//510 297//510 298//510
f 296//511 298//511 294//511
f 299//459 298//459 300//459
f 294//460 298//460 299//460
f 300//458 298//458 301//458
f 298//512 297//512 301//512
f 301//476 302//476 300//476
f 297//513 200//513 301//513
f 200//514 195//514 301//514
f 301//515 192//515 302//515
f 195//516 192//516 301//516
f 302//517 192//517 191//517
f 303//518 302//518 191//518
f 300//468 302//468 304//468
f 304//475 302//475 303//475
f 305//519 304//519 303//519
f 303//520 306//520 305//520
f 191//521 190//522 303//523
f 303//524 307//524 306//524
f 303//523 190//522 307//525
f 307//526 308//526 306//526
f 94//527 308//527 307//527
f 307//528 190//528 94//528
f 4//529 308//529 94//529
f 306//530 308//530 4//530
f 305//531 306//531 4//531
f 2//465 291//465 305//465
f 305//465 291//465 309//465
f 309//467 304//467 305//467
f 2//1 305//1 4//1
f 309//532 291//532 293//532
f 293//533 299//533 309//533
f 309//464 299//464 300//464
f 300//466 304//466 309//466
f 294//534 299//534 293//534
f 201//535 200//535 297//535
f 289//536 291//536 2//536
f 282//471 289//537 281//469
f 281//474 289//538 2//472
f 283//539 286//539 282//539
f 213//540 212//540 272//540
f 23//541 22//541 268//541
f 256//542 241//542 239//542
f 256//543 239//543 238//543
f 38//544 253//544 34//544
f 40//545 253//545 38//545
f 243//546 248//546 310//546
f 250//547 59//547 248//547
f 59//548 311//548 248//548
f 248//549 311//549 310//549
f 310//550 312//550 313//550
f 313//551 243//551 310//551
f 311//552 314//552 310//552
f 310//553 315//553 312//553
f 314//554 315//554 310//554
f 316//555 315//555 317//555
f 312//556 315//556 316//556
f 317//557 315//557 314//557
f 318//558 317//559 314//560
f 319//561 316//561 317//561
f 319//562 317//562 320//562
f 320//563 317//563 121//563
f 121//564 317//564 318//564
f 318//558 314//560 311//565
f 60//566 318//566 311//566
f 60//567 321//567 318//567
f 318//568 322//568 121//568
f 321//569 322//569 318//569
f 63//570 322//571 321//572
f 121//573 322//573 323//573
f 323//574 322//574 63//574
f 72//575 114//575 323//575
f 323//576 63//576 72//576
f 114//577 120//577 323//577
f 323//578 120//578 121//578
f 63//570 321//572 61//579
f 61//580 321//580 60//580
f 320//581 122//581 319//581
f 121//582 122//582 320//582
f 122//583 126//583 319//583
f 324//584 316//585 319//584
f 319//584 126//586 324//584
f 324//587 325//587 326//587
f 326//588 327//588 324//588
f 327//589 328//589 324//589
f 329//590 316//590 324//590
f 324//591 126//591 128//591
f 328//592 329//592 324//592
f 324//593 330//593 325//593
f 324//594 128//594 330//594
f 330//595 128//595 130//595
f 325//596 330//596 130//596
f 331//597 325//597 332//597
f 332//598 325//598 130//598
f 326//599 325//599 331//599
f 333//600 331//600 332//600
f 326//601 331//601 333//601
f 333//602 334//602 335//602
f 221//603 333//603 335//603
f 332//604 334//604 333//604
f 326//605 333//605 221//605
f 335//606 334//606 336//606
f 334//607 337//607 336//607
f 332//608 147//608 334//608
f 334//609 147//609 337//609
f 336//610 337//610 338//610
f 338//611 337//611 152//611
f 152//612 337//612 146//612
f 337//613 147//613 146//613
f 336//614 338//614 339//614
f 339//615 338//615 197//615
f 338//616 156//616 197//616
f 152//617 156//617 338//617
f 339//618 197//618 198//618
f 339//619 198//619 207//619
f 339//620 335//620 336//620
f 207//621 335//620 339//620
f 215//622 335//622 207//622
f 221//623 335//623 215//623
f 130//624 142//624 332//624
f 332//625 142//625 147//625
f 235//626 329//626 328//626
f 313//627 312//627 329//627
f 313//628 329//628 235//628
f 312//629 316//629 329//629
f 235//630 328//630 327//630
f 233//631 327//631 340//631
f 235//632 327//632 233//632
f 340//633 327//633 326//633
f 233//634 340//634 219//634
f 219//635 340//635 326//635
f 221//636 219//636 326//636
f 237//637 243//637 313//637
f 235//638 237//638 313//638
f 60//639 311//639 59//639
f 250//640 54//640 53//640
f 53//641 59//641 250//641
f 230//642 238//642 231//642
f 233//643 218//643 226//643
f 233//644 219//644 218//644
f 215//645 207//645 206//645
f 204//646 203//646 209//646
f 94//647 190//647 95//647
f 154//648 157//648 187//648
f 154//649 187//649 153//649
f 96//136 95//136 170//136
f 144//650 141//650 149//650
f 130//651 139//651 142//651
f 130//652 129//652 139//652
f 117//653 132//653 123//653
f 134//654 132//654 105//654
f 132//655 107//655 105//655
f 117//656 107//656 132//656
f 114//170 116//172 120//657
f 72//658 73//658 114//658
f 90//136 4//136 94//136
f 63//659 64//659 72//659
f 50//110 66//110 55//110
f 341//660 66//660 50//660
f 5//661 66//661 342//661
f 67//662 66//662 5//662
f 342//663 66//663 341//663
f 341//664 343//664 342//664
f 341//665 50//665 49//665
f 49//666 343//667 341//668
f 7//669 343//669 344//669
f 342//670 343//670 7//670
f 344//671 343//667 49//666
f 344//672 8//673 7//674
f 345//675 8//673 344//672
f 47//676 345//676 344//676
f 344//677 49//677 47//677
f 10//678 8//678 345//678
f 10//679 345//679 346//679
f 44//680 345//680 47//680
f 346//681 345//681 44//681
f 346//6 42//6 11//6
f 346//682 44//682 42//682
f 10//6 346//6 11//6
f 7//124 5//124 342//124
f 53//683 52//683 59//683
f 11//6 42//6 16//6
f 1//684 6//684 14//684
