# Blender v3.0.1 OBJ File: ''
# www.blender.org
mtllib Small_Long_SquareCircle_Yellow.mtl
o obj1.031_obj1.005
v 7.297913 -3.750030 -16.810349
v -4.108826 -6.000030 -16.810349
v 10.043091 -6.495215 -16.810349
v -5.206909 -7.098105 -16.810349
v 13.793091 -7.500030 -16.810349
v 10.043091 -6.495226 58.189659
v 13.793091 -7.500041 58.189659
v 7.297913 -3.750041 58.189659
v 20.288269 3.749959 58.189659
v 17.543091 -6.495226 58.189659
v 6.293091 -0.000030 -16.810349
v 7.297913 3.749959 58.189659
v 6.293091 -0.000041 58.189659
v -3.706909 -4.500030 -16.810349
v -3.706909 4.499970 -16.810349
v 7.297913 3.749970 -16.810349
v 10.043091 6.495164 -16.810349
v -4.108826 5.999970 -16.810349
v 10.043091 6.495153 58.189659
v 13.793091 7.499959 58.189659
v 13.793091 7.499970 -16.810349
v 17.543091 6.495153 58.189659
v 17.543091 6.495167 -91.810349
v 13.793091 -7.500027 -91.810349
v 20.288269 3.749974 -91.810349
v 13.793091 7.499973 -91.810349
v -15.706909 7.499973 -91.810349
v -6.706909 7.499970 -16.810349
v -18.706909 4.499973 -91.810349
v -15.706909 -7.500027 -91.810349
v -18.304993 5.999973 -91.810349
v -17.206909 7.098035 58.189659
v -15.706909 7.499959 58.189659
v -17.206909 7.098049 -91.810349
v -18.706909 -4.500027 -91.810349
v -6.706909 -7.500030 -16.810349
v -17.206909 -7.098103 -91.810349
v -15.706909 -7.500041 58.189659
v -5.206909 -7.098116 58.189659
v -6.706909 -7.500041 58.189659
v -3.706909 -4.500041 58.189659
v -4.108826 -6.000041 58.189659
v -3.706909 4.499959 58.189659
v -4.108826 5.999959 58.189659
v -5.206909 7.098035 58.189659
v -6.706909 7.499959 58.189659
v -5.206909 7.098046 -16.810349
v -18.304993 -6.000027 -91.810349
v -17.206909 -7.098116 58.189659
v -18.304993 -6.000041 58.189659
v -18.706909 -4.500041 58.189659
v -18.706909 4.499959 58.189659
v -18.304993 5.999959 58.189659
v 21.293091 -0.000027 -91.810349
v 17.543091 -6.495213 -91.810349
v 20.288269 -3.750026 -91.810349
v 20.288269 -3.750041 58.189659
v 21.293091 -0.000041 58.189659
vn -0.0000 0.0000 1.0000
vn -0.7071 -0.7071 -0.0000
vn -0.2588 -0.9659 -0.0000
vn 0.2588 -0.9659 -0.0000
vn -0.9659 -0.2588 -0.0000
vn -0.9659 0.2588 0.0000
vn -0.7071 0.7071 0.0000
vn -0.2588 0.9659 0.0000
vn 0.2588 0.9659 0.0000
vn 0.7071 0.7071 0.0000
vn 0.0000 0.0000 -1.0000
vn -0.0000 1.0000 0.0000
vn 0.0000 -1.0000 -0.0000
vn 0.9659 -0.2588 -0.0000
vn 1.0000 0.0000 0.0000
vn 0.9659 0.2588 0.0000
vn 0.7071 -0.7071 -0.0000
vn -1.0000 0.0000 0.0000
usemtl Default_OBJ.339
s 1
f 1//1 2//1 3//1
f 3//1 2//1 4//1
f 5//1 3//1 4//1
f 6//2 1//2 3//2
f 7//3 3//3 5//3
f 7//3 6//3 3//3
f 7//1 8//1 6//1
f 9//1 7//1 10//1
f 10//4 7//4 5//4
f 9//1 8//1 7//1
f 6//2 8//2 1//2
f 8//5 11//5 1//5
f 12//1 13//1 8//1
f 8//5 13//5 11//5
f 9//1 12//1 8//1
f 11//1 14//1 1//1
f 11//1 15//1 14//1
f 16//1 15//1 11//1
f 11//6 12//6 16//6
f 13//6 12//6 11//6
f 17//1 18//1 16//1
f 16//1 18//1 15//1
f 16//7 19//7 17//7
f 12//7 19//7 16//7
f 19//8 20//8 17//8
f 20//1 19//1 12//1
f 17//8 20//8 21//8
f 9//1 20//1 12//1
f 9//1 22//1 20//1
f 20//9 22//9 21//9
f 22//10 9//10 23//10
f 21//9 22//9 23//9
f 24//11 23//11 25//11
f 9//10 25//10 23//10
f 26//11 23//11 24//11
f 21//9 23//9 26//9
f 27//11 26//11 24//11
f 28//12 21//12 26//12
f 28//12 26//12 27//12
f 29//11 27//11 30//11
f 31//11 27//11 29//11
f 27//11 24//11 30//11
f 32//8 33//8 27//8
f 32//8 27//8 34//8
f 27//12 33//12 28//12
f 34//11 27//11 31//11
f 35//11 29//11 30//11
f 36//13 30//13 24//13
f 35//11 30//11 37//11
f 38//3 37//3 30//3
f 38//13 30//13 36//13
f 39//4 36//4 4//4
f 5//1 4//1 36//1
f 5//13 36//13 24//13
f 39//4 40//4 36//4
f 40//13 38//13 36//13
f 41//1 40//1 39//1
f 41//1 38//1 40//1
f 41//14 42//14 2//14
f 41//14 2//14 14//14
f 41//1 39//1 42//1
f 43//15 41//15 14//15
f 43//1 33//1 41//1
f 41//1 33//1 38//1
f 43//15 14//15 15//15
f 44//1 45//1 43//1
f 44//16 43//16 15//16
f 45//1 46//1 43//1
f 46//1 33//1 43//1
f 33//12 46//12 28//12
f 46//9 45//9 28//9
f 45//10 44//10 18//10
f 45//10 18//10 47//10
f 45//9 47//9 28//9
f 17//1 47//1 18//1
f 21//1 47//1 17//1
f 21//1 28//1 47//1
f 44//16 15//16 18//16
f 42//17 4//17 2//17
f 42//17 39//17 4//17
f 48//11 35//11 37//11
f 38//3 49//3 37//3
f 49//2 48//2 37//2
f 38//1 50//1 49//1
f 49//2 50//2 48//2
f 51//1 50//1 38//1
f 50//5 51//5 35//5
f 50//5 35//5 48//5
f 51//18 52//18 29//18
f 51//18 29//18 35//18
f 33//1 52//1 51//1
f 33//1 51//1 38//1
f 52//6 53//6 29//6
f 33//1 53//1 52//1
f 33//1 32//1 53//1
f 53//6 31//6 29//6
f 53//7 34//7 31//7
f 53//7 32//7 34//7
f 24//11 54//11 55//11
f 55//4 5//4 24//4
f 24//11 25//11 54//11
f 55//11 54//11 56//11
f 57//14 56//14 54//14
f 58//14 57//14 54//14
f 58//16 54//16 25//16
f 9//16 58//16 25//16
f 9//1 57//1 58//1
f 9//1 10//1 57//1
f 57//17 10//17 56//17
f 10//17 55//17 56//17
f 10//4 5//4 55//4
f 1//1 14//1 2//1
