# Blender v3.0.1 OBJ File: ''
# www.blender.org
mtllib Small_Long_3Prong_Green.mtl
o obj1.032_obj1.005
v 5.269836 -13.012837 22.861839
v 15.269836 4.307673 22.861839
v 5.269836 -13.012837 27.861839
v 15.269836 4.307673 27.861839
v 6.050842 -9.489903 27.861839
v 3.073669 -15.208992 77.861839
v 5.711853 -12.064964 77.861839
v 5.711853 -7.960720 77.861839
v 3.073669 -4.816688 77.861839
v 4.669922 -6.156110 27.861839
v 1.626587 -4.217283 27.861839
v -0.968201 -4.103996 77.861839
v -0.968201 -15.921692 77.861839
v -4.522583 -13.869568 77.861839
v -4.522583 -13.869555 -32.138165
v -0.968201 -15.921679 -32.138165
v -4.522583 -6.156116 77.861839
v -5.926331 -10.012840 77.861839
v -4.841248 -6.571378 27.861839
v -1.978455 -4.374681 27.861839
v -5.926331 -10.012837 27.861839
v -5.835205 -11.054730 27.861839
v -5.564514 -12.064961 27.861839
v -11.978455 1.669516 27.861839
v -15.122498 4.307673 27.861839
v -14.522583 3.450940 77.861839
v -7.874207 1.669516 27.861839
v -10.968201 1.398819 77.861839
v -14.522583 11.164391 77.861839
v -6.926331 12.503819 77.861839
v -10.968201 13.216511 77.861839
v -6.926331 2.111516 77.861839
v -15.926331 7.307667 77.861839
v -14.522583 11.164403 -32.138161
v -10.968201 13.216523 -32.138161
v -15.122498 4.307673 22.861839
v -15.926331 7.307680 -32.138165
v -19.926331 14.307679 -32.138161
v -19.926331 -1.770190 -32.138165
v -14.522583 3.450952 -32.138165
v -10.968201 1.398832 -32.138165
v -19.047668 -3.891509 -32.138165
v -11.978455 1.669517 22.861839
v -5.926331 -10.012828 -32.138165
v -6.926331 2.111528 -32.138165
v -4.522583 -6.156104 -32.138165
v -7.874207 1.669517 22.861839
v -4.288147 5.255559 -32.138165
v -0.968201 -4.103983 -32.138165
v -4.730164 4.307673 22.861839
v -1.978455 -4.374681 22.861839
v 1.626587 -4.217282 22.861839
v 5.313538 3.655105 22.861839
v 4.073669 7.307673 22.861839
v -4.017456 8.349563 22.861839
v 4.073669 7.307680 -32.138165
v 4.877502 10.307673 22.861839
v 5.477417 11.164403 -32.138161
v 5.477417 3.450952 -32.138165
v -4.288147 9.359799 -32.138165
v -6.926331 12.503831 -32.138161
v 7.073669 12.503825 22.861839
v 9.031799 13.216523 -32.138161
v -9.926331 13.307673 22.861839
v -6.069580 11.903937 22.861839
v -16.926331 17.307680 -32.138161
v -18.426331 16.905756 -32.138161
v -16.926331 17.307682 -72.138161
v 17.073669 17.307682 -72.138161
v 17.073669 17.307680 -32.138161
v -19.524414 15.807679 -32.138161
v 19.195007 -3.891507 -72.138161
v 18.573669 16.905756 -32.138161
v 18.573669 16.905758 -72.138161
v 20.073669 14.307681 -72.138161
v 20.073669 -1.770188 -72.138161
v 19.671753 -3.270190 -32.138165
v 19.195007 -3.891509 -32.138165
v 19.671753 -3.270188 -72.138161
v 3.952332 -19.134148 -72.138161
v -19.047668 -3.891507 -72.138161
v -3.804993 -19.134148 -72.138161
v -3.804993 -19.134150 -32.138165
v -19.926331 -1.770188 -72.138161
v -19.524414 -3.270188 -72.138161
v -19.524414 -3.270190 -32.138165
v -19.824097 -2.546643 -72.138161
v -19.824097 -2.546645 -32.138165
v -19.926331 14.307681 -72.138161
v -19.524414 15.807681 -72.138161
v -18.426331 16.905758 -72.138161
v -3.183716 -19.610903 -32.138165
v -2.460144 -19.910608 -32.138165
v -3.183716 -19.610901 -72.138161
v -2.460144 -19.910606 -72.138161
v -1.683716 -20.012827 -32.138165
v -1.683716 -20.012825 -72.138161
v 1.831055 -20.012825 -72.138161
v 1.831055 -20.012827 -32.138165
v 3.073669 -15.208980 -32.138165
v 2.607483 -19.910608 -32.138165
v 5.711853 -12.064952 -32.138165
v 3.952332 -19.134150 -32.138165
v 3.331055 -19.610903 -32.138165
v 3.331055 -19.610901 -72.138161
v 2.607483 -19.910606 -72.138161
v 5.711853 -7.960707 -32.138165
v 6.050842 -9.489903 22.861839
v 12.369751 1.764396 22.861839
v 4.669922 -6.156110 22.861839
v 8.520752 1.512118 22.861839
v 9.031799 1.398832 -32.138165
v 13.073669 2.111528 -32.138165
v 15.711853 5.255559 -32.138165
v 20.073669 -1.770190 -32.138165
v 20.073669 14.307679 -32.138161
v 15.711853 5.255547 77.861839
v 15.711853 9.359787 77.861839
v 15.711853 9.359799 -32.138165
v 19.671753 15.807679 -32.138161
v 13.073669 12.503831 -32.138161
v 10.073669 13.307673 22.861839
v 13.073669 12.503819 77.861839
v 9.031799 13.216511 77.861839
v 9.031799 1.398819 77.861839
v 13.073669 2.111516 77.861839
v 10.073669 13.307673 27.861839
v -9.926331 13.307673 27.861839
v 7.073669 12.503825 27.861839
v 5.477417 11.164391 77.861839
v 4.877502 10.307673 27.861839
v -6.069580 11.903937 27.861839
v 4.073669 7.307667 77.861839
v 5.477417 3.450940 77.861839
v 5.313538 3.655104 27.861839
v 8.520752 1.512118 27.861839
v 12.369751 1.764395 27.861839
v 4.073669 7.307673 27.861839
v -4.730164 4.307673 27.861839
v -4.017456 8.349563 27.861839
v -4.288147 9.359787 77.861839
v -4.288147 5.255547 77.861839
v 19.671753 15.807681 -72.138161
v 19.971436 -2.546645 -32.138165
v 19.971436 -2.546643 -72.138161
v 3.073669 -4.816676 -32.138165
v -4.841248 -6.571378 22.861839
v -5.926331 -10.012837 22.861839
v -5.835205 -11.054730 22.861839
v -5.564514 -12.064961 22.861839
v -5.122498 -13.012837 22.861839
v -5.122498 -13.012837 27.861839
vn 0.8660 -0.5000 0.0000
vn -0.0000 0.0000 1.0000
vn 0.7071 -0.7071 0.0000
vn 0.9763 -0.2164 -0.0045
vn 0.7660 -0.6428 0.0054
vn 1.0000 0.0000 0.0068
vn 0.7660 0.6428 0.0072
vn 0.9239 0.3827 -0.0054
vn 0.5373 0.8434 -0.0054
vn 0.1736 0.9848 0.0068
vn -0.5000 -0.8660 -0.0000
vn 0.1737 -0.9848 -0.0000
vn -0.9397 0.3420 0.0031
vn -0.6088 0.7934 -0.0027
vn -0.5000 0.8660 0.0054
vn -0.9537 0.3007 0.0000
vn -0.9962 -0.0871 -0.0000
vn -0.9397 -0.3420 0.0072
vn -0.9659 -0.2588 0.0036
vn -0.6428 -0.7660 -0.0054
vn 0.0000 -1.0000 -0.0054
vn -0.5000 -0.8660 0.0054
vn 0.1736 -0.9848 0.0054
vn -0.9397 0.3420 0.0000
vn -0.5000 0.8660 0.0000
vn -0.9659 -0.2588 -0.0000
vn -0.9397 -0.3420 0.0054
vn -0.9397 -0.3420 -0.0049
vn -0.6428 -0.7660 0.0049
vn -0.5000 -0.8660 -0.0049
vn 0.0000 -1.0000 0.0049
vn 0.1736 -0.9848 -0.0049
vn 0.7660 -0.6428 -0.0049
vn 0.6428 -0.7660 0.0049
vn 0.0000 0.0000 -1.0000
vn 0.9848 -0.1736 0.0049
vn -0.9469 -0.3214 -0.0000
vn -0.9659 0.2588 0.0000
vn -0.9397 0.3420 -0.0049
vn -0.9397 -0.3420 -0.0015
vn -0.7071 0.7071 0.0033
vn -0.5000 0.8660 -0.0066
vn 0.3420 0.9397 0.0049
vn 0.7660 0.6428 -0.0049
vn 0.1736 0.9848 -0.0049
vn -0.2588 0.9659 0.0000
vn 0.0000 1.0000 0.0000
vn 0.2588 0.9659 0.0000
vn 0.7934 -0.6088 -0.0000
vn -0.0001 0.0000 -1.0000
vn -0.7071 -0.7071 -0.0000
vn -0.7934 -0.6088 -0.0000
vn 0.0001 0.0000 -1.0000
vn -0.9239 -0.3827 -0.0000
vn -0.9914 -0.1305 -0.0000
vn -1.0000 0.0000 0.0000
vn -0.7071 0.7071 0.0000
vn -0.6088 -0.7933 -0.0000
vn -0.3827 -0.9239 -0.0000
vn -0.1305 -0.9914 -0.0000
vn 0.0000 -1.0000 -0.0000
vn 0.1305 -0.9914 -0.0000
vn 0.6088 -0.7933 -0.0000
vn 0.3827 -0.9239 -0.0000
vn 1.0000 0.0000 -0.0062
vn 0.9763 -0.2164 0.0041
vn 0.9239 0.3827 0.0049
vn 0.0654 -0.9979 0.0027
vn 0.6593 -0.7518 0.0037
vn 0.1736 -0.9848 -0.0040
vn 0.9061 -0.4231 -0.0000
vn 0.9063 -0.4226 -0.0000
vn 1.0000 0.0000 0.0000
vn 0.9659 0.2588 0.0000
vn 0.7660 0.6428 0.0000
vn 0.1736 0.9848 0.0054
vn -0.2588 0.9659 -0.0036
vn -0.7071 0.7071 -0.0036
vn -0.5000 0.8660 0.0072
vn -0.9397 0.3420 0.0054
vn -0.9397 -0.3420 0.0017
vn -0.5000 -0.8660 0.0031
vn -0.5556 -0.8315 -0.0016
vn 0.0654 -0.9979 -0.0029
vn 0.6593 -0.7518 -0.0041
vn 0.1736 -0.9848 0.0044
vn 0.8660 0.5000 -0.0054
vn 1.0000 0.0000 0.0054
vn 0.9848 -0.1736 -0.0054
vn 0.7660 0.6428 0.0054
vn 0.6428 -0.7660 -0.0054
vn 0.3420 0.9397 -0.0054
vn -0.0872 0.9962 0.0000
vn -0.2588 0.9659 0.0033
vn 0.7071 0.7071 0.0000
vn 0.9914 -0.1305 -0.0000
vn 0.9239 -0.3827 -0.0000
vn -0.5000 -0.8660 -0.0029
vn 0.1736 0.9848 -0.0062
vn 0.5373 0.8434 0.0049
vn 0.7660 0.6428 -0.0066
vn -0.5556 -0.8315 0.0014
vn 0.8660 0.5000 0.0049
vn 1.0000 0.0000 -0.0049
vn -0.0436 0.9990 0.0041
vn -0.6088 0.7934 0.0025
vn -0.5000 0.8660 -0.0049
vn -0.9397 0.3420 -0.0029
vn -0.9659 -0.2588 -0.0033
vn -0.9397 -0.3420 -0.0066
vn -0.9063 -0.4226 -0.0033
vn -0.8660 -0.5000 0.0000
vn -0.8191 -0.5736 -0.0000
vn -0.9063 -0.4226 0.0036
vn -0.0436 0.9990 -0.0045
usemtl Default_OBJ.332
s 1
f 1//1 2//1 3//1
f 3//1 2//1 4//1
f 4//2 5//2 3//2
f 3//3 6//3 1//3
f 5//4 7//4 3//4
f 7//5 6//5 3//5
f 8//2 6//2 7//2
f 8//6 7//6 5//6
f 9//7 8//7 10//7
f 10//8 8//8 5//8
f 9//2 6//2 8//2
f 9//9 10//9 11//9
f 9//2 12//2 13//2
f 12//10 9//10 11//10
f 9//2 13//2 6//2
f 13//11 14//11 15//11
f 13//11 15//11 16//11
f 17//2 14//2 13//2
f 6//12 13//12 16//12
f 12//2 17//2 13//2
f 18//13 17//13 19//13
f 17//14 20//14 19//14
f 17//15 12//15 20//15
f 17//2 18//2 14//2
f 18//16 19//16 21//16
f 18//17 21//17 22//17
f 14//18 18//18 23//18
f 23//19 18//19 22//19
f 24//2 25//2 22//2
f 25//2 23//2 22//2
f 24//2 22//2 21//2
f 24//20 26//20 25//20
f 24//2 21//2 19//2
f 27//2 24//2 19//2
f 27//21 28//21 24//21
f 28//22 26//22 24//22
f 29//2 26//2 28//2
f 30//2 31//2 28//2
f 30//2 28//2 32//2
f 32//23 28//23 27//23
f 31//2 29//2 28//2
f 29//2 33//2 26//2
f 33//24 29//24 34//24
f 29//25 35//25 34//25
f 29//25 31//25 35//25
f 25//26 33//26 36//26
f 36//26 33//26 37//26
f 33//24 34//24 37//24
f 26//27 33//27 25//27
f 34//2 38//2 37//2
f 38//2 39//2 37//2
f 36//28 37//28 40//28
f 37//2 39//2 40//2
f 41//2 40//2 42//2
f 40//2 39//2 42//2
f 43//29 36//29 40//29
f 43//30 40//30 41//30
f 41//2 42//2 44//2
f 45//2 41//2 46//2
f 41//2 44//2 46//2
f 47//31 43//31 41//31
f 47//32 41//32 45//32
f 48//2 45//2 49//2
f 45//2 46//2 49//2
f 50//33 45//33 48//33
f 50//34 47//34 45//34
f 47//35 50//35 51//35
f 51//35 50//35 52//35
f 50//35 53//35 52//35
f 50//35 54//35 53//35
f 55//36 50//36 48//36
f 55//35 54//35 50//35
f 53//37 54//37 56//37
f 55//35 57//35 54//35
f 54//38 57//38 56//38
f 56//39 57//39 58//39
f 53//40 56//40 59//40
f 56//2 60//2 48//2
f 56//2 48//2 59//2
f 58//2 60//2 56//2
f 58//2 61//2 60//2
f 57//41 62//41 58//41
f 62//42 63//42 58//42
f 63//2 61//2 58//2
f 64//43 65//43 61//43
f 65//44 60//44 61//44
f 64//45 61//45 35//45
f 61//2 66//2 35//2
f 63//2 66//2 61//2
f 67//46 66//46 68//46
f 66//47 69//47 68//47
f 70//2 66//2 63//2
f 66//47 70//47 69//47
f 66//2 38//2 34//2
f 66//2 71//2 38//2
f 66//2 67//2 71//2
f 35//2 66//2 34//2
f 68//35 69//35 72//35
f 70//48 73//48 69//48
f 69//35 74//35 75//35
f 69//35 75//35 76//35
f 73//48 74//48 69//48
f 72//35 69//35 76//35
f 77//49 78//49 72//49
f 77//49 72//49 79//49
f 72//35 76//35 79//50
f 78//3 80//3 72//3
f 81//35 72//35 80//35
f 68//35 72//35 81//35
f 81//35 80//35 82//35
f 83//51 81//51 82//51
f 83//51 42//51 81//51
f 84//35 68//35 81//35
f 42//52 85//52 81//52
f 85//53 84//35 81//35
f 42//52 86//52 85//52
f 87//35 84//35 85//53
f 86//54 87//54 85//54
f 39//2 86//2 42//2
f 39//2 88//2 86//2
f 86//54 88//54 87//54
f 88//55 39//55 87//55
f 39//55 84//55 87//55
f 39//56 89//56 84//56
f 89//35 68//35 84//35
f 39//56 38//56 89//56
f 38//38 90//38 89//38
f 91//35 68//35 89//35
f 90//35 91//35 89//35
f 38//38 71//38 90//38
f 71//57 67//57 90//57
f 67//57 91//57 90//57
f 67//46 68//46 91//46
f 16//2 15//2 83//2
f 16//2 83//2 92//2
f 92//58 83//58 82//58
f 15//2 42//2 83//2
f 16//2 92//2 93//2
f 92//58 82//58 94//58
f 92//59 94//59 95//59
f 93//59 92//59 95//59
f 16//2 93//2 96//2
f 96//60 93//60 97//60
f 93//60 95//60 97//60
f 82//35 98//35 97//35
f 99//61 97//61 98//61
f 99//61 96//61 97//61
f 82//35 97//35 94//35
f 94//35 97//35 95//35
f 100//2 16//2 99//2
f 16//2 96//2 99//2
f 100//2 99//2 101//2
f 101//62 99//62 98//62
f 6//12 16//12 100//12
f 1//3 6//3 100//3
f 102//2 100//2 103//2
f 1//33 100//33 102//33
f 100//2 104//2 103//2
f 100//2 101//2 104//2
f 103//63 104//63 105//63
f 104//64 101//64 105//64
f 103//63 105//63 80//63
f 101//64 106//64 105//64
f 98//35 80//35 105//35
f 98//35 105//35 106//35
f 101//62 98//62 106//62
f 78//2 102//2 103//2
f 78//3 103//3 80//3
f 78//2 107//2 102//2
f 108//65 102//65 107//65
f 108//66 1//66 102//66
f 109//35 2//35 108//35
f 108//35 2//35 1//35
f 110//67 108//67 107//67
f 110//35 109//35 108//35
f 109//68 111//68 112//68
f 111//35 109//35 110//35
f 2//69 109//69 113//69
f 109//70 112//70 113//70
f 114//2 113//2 115//2
f 115//2 113//2 78//2
f 2//33 113//33 114//33
f 78//2 113//2 112//2
f 116//2 114//2 115//2
f 117//71 2//71 114//72
f 118//73 117//73 114//73
f 118//73 114//73 119//73
f 116//2 119//2 114//2
f 120//2 70//2 116//2
f 116//2 70//2 121//2
f 120//74 116//74 75//74
f 116//73 76//73 75//73
f 116//73 115//73 76//73
f 116//2 121//2 119//2
f 70//2 63//2 121//2
f 122//45 121//45 63//45
f 122//48 123//48 121//48
f 123//75 119//75 121//75
f 123//2 124//2 125//2
f 123//2 125//2 126//2
f 123//2 126//2 118//2
f 123//75 118//75 119//75
f 127//48 123//48 122//48
f 124//76 123//76 127//76
f 122//47 128//47 127//47
f 127//2 128//2 129//2
f 129//77 124//77 127//77
f 130//78 129//78 131//78
f 129//2 132//2 131//2
f 129//2 128//2 132//2
f 130//79 124//79 129//79
f 130//2 133//2 134//2
f 133//80 130//80 131//80
f 130//2 134//2 125//2
f 124//2 130//2 125//2
f 134//81 133//81 135//81
f 125//82 134//82 136//82
f 136//83 134//83 135//83
f 136//2 135//2 11//2
f 136//2 11//2 10//2
f 137//2 136//2 10//2
f 137//84 125//84 136//84
f 137//2 10//2 5//2
f 4//85 126//85 137//85
f 4//2 137//2 5//2
f 126//86 125//86 137//86
f 138//2 139//2 135//2
f 135//2 139//2 11//2
f 135//37 133//37 138//37
f 131//2 140//2 138//2
f 138//2 140//2 139//2
f 133//38 131//38 138//38
f 131//2 132//2 140//2
f 132//87 141//87 140//87
f 141//88 142//88 140//88
f 140//89 142//89 139//89
f 30//2 32//2 141//2
f 141//2 32//2 142//2
f 30//90 141//90 132//90
f 142//5 32//5 139//5
f 139//91 32//91 27//91
f 139//2 27//2 20//2
f 139//2 20//2 11//2
f 128//92 30//92 132//92
f 122//47 64//47 128//47
f 31//93 128//93 64//93
f 31//76 30//76 128//76
f 118//2 126//2 117//2
f 117//5 126//5 4//5
f 64//35 122//35 62//35
f 62//94 122//94 63//94
f 120//2 73//2 70//2
f 120//74 75//74 143//74
f 73//95 120//95 143//95
f 74//35 143//35 75//35
f 73//95 143//95 74//95
f 117//71 4//72 2//71
f 115//2 78//2 77//2
f 115//2 77//2 144//2
f 115//96 144//96 76//96
f 144//97 77//97 79//97
f 144//97 79//97 145//97
f 144//96 145//96 76//96
f 79//50 76//35 145//35
f 111//98 59//98 112//98
f 78//2 112//2 107//2
f 112//2 146//2 107//2
f 112//2 59//2 146//2
f 49//99 52//99 146//99
f 52//100 110//100 146//100
f 110//101 107//101 146//101
f 59//2 49//2 146//2
f 53//35 111//35 52//35
f 52//35 111//35 110//35
f 111//102 53//102 59//102
f 82//35 80//35 98//35
f 64//35 62//35 65//35
f 31//93 64//93 35//93
f 65//35 62//35 57//35
f 65//35 57//35 55//35
f 65//103 55//103 60//103
f 55//104 48//104 60//104
f 59//2 48//2 49//2
f 51//105 52//105 49//105
f 147//106 51//106 46//106
f 147//35 47//35 51//35
f 46//107 51//107 49//107
f 43//35 47//35 147//35
f 148//35 43//35 147//35
f 148//16 147//16 44//16
f 44//108 147//108 46//108
f 149//17 148//17 44//17
f 149//35 43//35 148//35
f 150//109 149//109 44//109
f 150//35 36//35 149//35
f 36//35 43//35 149//35
f 150//110 44//110 15//110
f 151//111 150//111 15//111
f 151//35 36//35 150//35
f 36//112 151//112 152//112
f 14//113 152//113 151//113
f 14//113 151//113 15//113
f 36//112 152//112 25//112
f 25//2 152//2 23//2
f 14//114 23//114 152//114
f 44//2 42//2 15//2
f 27//2 19//2 20//2
f 12//115 11//115 20//115
