# Blender v3.0.1 OBJ File: ''
# www.blender.org
mtllib Small_Long_Rectangle_DarkBlue.mtl
o obj1.033_obj1.005
v 13.899597 10.424695 75.000000
v 13.899597 -10.424701 75.000000
v 16.216248 8.108098 75.000000
v -13.899597 10.424695 75.000000
v -13.899597 -10.424701 75.000000
v -13.899597 -10.424687 -75.000008
v 13.899597 -10.424687 -75.000008
v 15.057922 -10.114337 75.000000
v 16.216248 -8.108104 75.000000
v 15.905884 -9.266398 75.000000
v 15.905884 -9.266385 -75.000008
v 15.057922 -10.114324 -75.000008
v 16.216248 -8.108090 -75.000008
v 16.216248 8.108111 -75.000008
v 13.899597 10.424708 -75.000008
v 15.057922 10.114345 -75.000008
v 15.905884 9.266414 -75.000008
v 15.057922 10.114331 75.000000
v 15.905884 9.266400 75.000000
v -13.899597 10.424708 -75.000008
v -16.216187 -8.108090 -75.000008
v -15.057861 10.114345 -75.000008
v -16.216187 8.108111 -75.000008
v -15.057861 10.114331 75.000000
v -15.057861 -10.114324 -75.000008
v -16.216187 -8.108104 75.000000
v -15.905823 -9.266385 -75.000008
v -15.057861 -10.114337 75.000000
v -15.905823 -9.266398 75.000000
v -16.216187 8.108098 75.000000
v -15.905823 9.266414 -75.000008
v -15.905823 9.266400 75.000000
vn 0.0000 0.0000 1.0000
vn 0.0000 -1.0000 -0.0000
vn 0.2588 -0.9659 -0.0000
vn 0.9659 -0.2588 -0.0000
vn 0.7071 -0.7071 -0.0000
vn 0.0000 0.0000 -1.0000
vn 1.0000 0.0000 0.0000
vn 0.9659 0.2588 0.0000
vn 0.2588 0.9659 0.0000
vn 0.7071 0.7071 0.0000
vn 0.0000 1.0000 0.0000
vn -0.2588 0.9659 0.0000
vn -1.0000 0.0000 0.0000
vn -0.9659 -0.2588 -0.0000
vn -0.7071 -0.7071 -0.0000
vn -0.2588 -0.9659 -0.0000
vn -0.9659 0.2588 0.0000
vn -0.7071 0.7071 0.0000
usemtl Default_OBJ.338
s 1
f 1//1 2//1 3//1
f 1//1 4//1 2//1
f 2//2 5//2 6//2
f 2//2 6//2 7//2
f 8//3 2//3 7//3
f 2//1 4//1 5//1
f 3//1 2//1 9//1
f 9//1 2//1 10//1
f 10//1 2//1 8//1
f 9//4 10//4 11//4
f 10//5 8//5 12//5
f 10//5 12//5 11//5
f 7//6 13//6 11//6
f 9//4 11//4 13//4
f 7//6 11//6 12//6
f 3//7 9//7 13//7
f 7//6 14//6 13//6
f 3//7 13//7 14//7
f 15//6 16//6 14//6
f 7//6 15//6 14//6
f 3//8 14//8 17//8
f 16//6 17//6 14//6
f 1//9 18//9 16//9
f 18//10 17//10 16//10
f 1//9 16//9 15//9
f 19//1 18//1 1//1
f 18//10 19//10 17//10
f 19//1 1//1 3//1
f 19//8 3//8 17//8
f 4//11 1//11 15//11
f 4//11 15//11 20//11
f 20//6 15//6 7//6
f 20//6 7//6 6//6
f 21//6 20//6 6//6
f 22//6 20//6 23//6
f 23//6 20//6 21//6
f 24//12 4//12 20//12
f 24//12 20//12 22//12
f 21//6 6//6 25//6
f 26//13 23//13 21//13
f 26//14 21//14 27//14
f 27//6 21//6 25//6
f 28//15 29//15 25//15
f 29//15 27//15 25//15
f 28//16 25//16 6//16
f 26//1 29//1 28//1
f 5//16 28//16 6//16
f 5//1 26//1 28//1
f 29//14 26//14 27//14
f 4//1 26//1 5//1
f 26//13 30//13 23//13
f 4//1 30//1 26//1
f 30//17 31//17 23//17
f 4//1 32//1 30//1
f 30//17 32//17 31//17
f 32//18 22//18 31//18
f 31//6 22//6 23//6
f 4//1 24//1 32//1
f 32//18 24//18 22//18
f 8//3 7//3 12//3
