# Blender v3.0.1 OBJ File: ''
# www.blender.org
mtllib Small_Short_Hexagon_Brown.mtl
o obj1.019_obj1.005
v -0.402222 -16.594835 50.000000
v -1.158264 -16.319664 50.000000
v -1.158264 -16.319656 -50.000000
v -0.402222 -16.594828 -50.000000
v 0.402283 -16.594835 50.000000
v 0.402283 -16.594828 -50.000000
v 1.158325 -16.319664 50.000000
v 1.158325 -16.319656 -50.000000
v 13.554138 -9.162947 -50.000000
v 14.712402 -7.156721 50.000000
v -13.554077 -9.162954 50.000000
v 13.554138 -9.162954 50.000000
v 14.170410 -8.645802 50.000000
v 14.572693 -7.949045 50.000000
v 14.170410 -8.645793 -50.000000
v 14.572693 -7.949035 -50.000000
v 14.712402 -7.156711 -50.000000
v 14.712402 7.156702 50.000000
v 14.712402 7.156710 -50.000000
v -13.554077 -9.162947 -50.000000
v 1.158325 16.319654 -50.000000
v 13.554138 9.162943 -50.000000
v 14.572693 7.949034 -50.000000
v 14.572693 7.949026 50.000000
v 14.170410 8.645792 -50.000000
v 14.170410 8.645784 50.000000
v 13.554138 9.162935 50.000000
v 1.158325 16.319647 50.000000
v -0.402222 16.594816 50.000000
v -1.158264 16.319647 50.000000
v 0.402283 16.594816 50.000000
v 0.402283 16.594824 -50.000000
v -0.402222 16.594824 -50.000000
v -1.158264 16.319654 -50.000000
v -13.554077 9.162943 -50.000000
v -14.712341 7.156710 -50.000000
v -14.170410 8.645792 -50.000000
v -14.170410 8.645784 50.000000
v -13.554077 9.162935 50.000000
v -14.572632 7.949034 -50.000000
v -14.712341 7.156702 50.000000
v -14.572632 7.949026 50.000000
v -14.712341 -7.156721 50.000000
v -14.712341 -7.156711 -50.000000
v -14.572632 -7.949045 50.000000
v -14.572632 -7.949035 -50.000000
v -14.170410 -8.645793 -50.000000
v -14.170410 -8.645802 50.000000
vn -0.3420 -0.9397 -0.0000
vn 0.0000 -1.0000 -0.0000
vn 0.0000 0.0000 1.0000
vn 0.3420 -0.9397 -0.0000
vn 0.5000 -0.8660 -0.0000
vn 0.6428 -0.7660 -0.0000
vn 0.8660 -0.5000 -0.0000
vn 0.9849 -0.1733 -0.0000
vn 0.9848 -0.1736 -0.0000
vn 0.0000 0.0000 -1.0000
vn 1.0000 0.0000 0.0000
vn 0.9848 0.1736 0.0000
vn 0.9849 0.1733 0.0000
vn 0.8660 0.5000 0.0000
vn 0.6428 0.7660 0.0000
vn 0.5000 0.8660 0.0000
vn 0.3420 0.9397 0.0000
vn 0.0000 1.0000 0.0000
vn -0.3420 0.9397 0.0000
vn -0.5000 0.8660 0.0000
vn -0.6428 0.7661 0.0000
vn -0.8661 0.5000 0.0000
vn -0.9848 0.1736 0.0000
vn -1.0000 0.0000 0.0000
vn -0.9848 -0.1736 -0.0000
vn -0.8661 -0.5000 -0.0000
vn -0.6428 -0.7661 -0.0000
vn -0.5000 -0.8660 -0.0000
usemtl Default_OBJ.345
s 1
f 1//1 2//1 3//1
f 1//1 3//1 4//1
f 5//2 1//2 4//2
f 5//3 2//3 1//3
f 5//2 4//2 6//2
f 7//3 2//3 5//3
f 7//4 5//4 6//4
f 7//4 6//4 8//4
f 7//5 8//5 9//5
f 10//3 11//3 7//3
f 7//3 11//3 2//3
f 10//3 7//3 12//3
f 12//5 7//5 9//5
f 10//3 12//3 13//3
f 13//6 12//6 9//6
f 10//3 13//3 14//3
f 13//6 9//6 15//6
f 14//7 13//7 15//7
f 10//8 14//9 16//9
f 14//7 15//7 16//7
f 15//10 17//10 16//10
f 10//8 16//9 17//9
f 18//11 10//11 17//11
f 18//11 17//11 19//11
f 20//10 17//10 8//10
f 8//10 17//10 9//10
f 21//10 22//10 17//10
f 17//10 22//10 19//10
f 20//10 21//10 17//10
f 9//10 17//10 15//10
f 19//10 22//10 23//10
f 24//12 18//12 19//13
f 24//12 19//13 23//12
f 22//10 25//10 23//10
f 26//14 24//14 23//14
f 26//14 23//14 25//14
f 26//15 25//15 22//15
f 27//15 26//15 22//15
f 26//3 27//3 24//3
f 27//3 28//3 10//3
f 28//16 27//16 22//16
f 27//3 18//3 24//3
f 27//3 10//3 18//3
f 28//3 29//3 30//3
f 28//3 31//3 29//3
f 28//16 22//16 21//16
f 28//3 11//3 10//3
f 28//3 30//3 11//3
f 31//17 28//17 21//17
f 31//17 21//17 32//17
f 29//18 31//18 32//18
f 32//10 21//10 33//10
f 29//18 32//18 33//18
f 30//19 29//19 33//19
f 30//19 33//19 34//19
f 33//10 21//10 34//10
f 30//20 34//20 35//20
f 34//10 21//10 20//10
f 35//10 34//10 20//10
f 36//10 35//10 20//10
f 37//10 35//10 36//10
f 38//21 39//21 35//21
f 38//21 35//21 37//21
f 39//20 30//20 35//20
f 40//10 37//10 36//10
f 38//22 37//22 40//22
f 41//23 42//23 40//23
f 42//22 38//22 40//22
f 41//23 40//23 36//23
f 41//3 43//3 11//3
f 43//24 41//24 36//24
f 39//3 41//3 11//3
f 39//3 38//3 41//3
f 38//3 42//3 41//3
f 43//24 36//24 44//24
f 43//3 45//3 11//3
f 45//25 43//25 44//25
f 44//10 36//10 20//10
f 46//10 44//10 20//10
f 45//25 44//25 46//25
f 47//10 46//10 20//10
f 48//26 45//26 46//26
f 48//26 46//26 47//26
f 48//27 47//27 20//27
f 11//27 48//27 20//27
f 45//3 48//3 11//3
f 30//3 39//3 11//3
f 20//10 8//10 3//10
f 2//28 11//28 20//28
f 2//28 20//28 3//28
f 4//10 8//10 6//10
f 3//10 8//10 4//10
