# Blender v3.0.1 OBJ File: ''
# www.blender.org
mtllib Small_Short_Arch_JeansBlue.mtl
o obj1.006_obj1.005
v -19.304993 -6.020907 50.000000
v -19.304993 12.511892 50.000000
v -19.304993 12.511904 -49.999996
v -19.304993 -6.020898 -49.999996
v -18.994629 -7.179209 50.000000
v -11.002075 -2.715708 50.000000
v -12.200195 -6.386687 50.000000
v -14.487732 -8.337507 50.000000
v -16.988403 -8.337507 50.000000
v -18.146667 -8.027140 50.000000
v -18.146667 -8.027132 -49.999996
v -18.994629 -7.179201 -49.999996
v -16.988403 -8.337500 -49.999996
v -14.487732 -8.337500 -49.999996
v -12.200195 -6.386678 -49.999996
v -12.614929 -7.384408 -49.999996
v -13.437073 -8.085524 -49.999996
v -12.614929 -7.384417 50.000000
v -13.437073 -8.085531 50.000000
v -11.002075 -2.715696 -49.999996
v -8.729248 0.406122 -49.999996
v -8.729248 0.406110 50.000000
v -5.603699 2.673830 -49.999996
v -16.988403 14.828501 -49.999996
v -18.146667 14.518137 -49.999996
v -18.146667 14.518126 50.000000
v -16.988403 14.828489 50.000000
v 16.988403 14.828501 -49.999996
v -1.930786 3.865908 -49.999996
v 16.988403 14.828489 50.000000
v 18.146729 14.518137 -49.999996
v 18.994629 13.670198 -49.999996
v 19.304993 12.511904 -49.999996
v 8.729248 0.406122 -49.999996
v 5.603699 2.673830 -49.999996
v 1.930786 3.865908 -49.999996
v 18.994629 13.670187 50.000000
v 19.304993 12.511892 50.000000
v 19.304993 -6.020898 -49.999996
v 11.002136 -2.715696 -49.999996
v 12.200195 -6.386678 -49.999996
v 11.002136 -2.715708 50.000000
v 8.729248 0.406110 50.000000
v 14.487793 -8.337500 -49.999996
v 12.614929 -7.384408 -49.999996
v 12.614929 -7.384417 50.000000
v 12.200195 -6.386687 50.000000
v 19.304993 -6.020907 50.000000
v 14.487793 -8.337507 50.000000
v 16.988403 -8.337507 50.000000
v 13.437073 -8.085531 50.000000
v 13.437073 -8.085524 -49.999996
v 16.988403 -8.337500 -49.999996
v 18.146729 -8.027140 50.000000
v 18.146729 -8.027132 -49.999996
v 18.994629 -7.179209 50.000000
v 18.994629 -7.179201 -49.999996
v 5.603699 2.673818 50.000000
v 1.930786 3.865896 50.000000
v -1.930786 3.865896 50.000000
v -5.603699 2.673818 50.000000
v 18.146729 14.518126 50.000000
v -18.994629 13.670187 50.000000
v -18.994629 13.670198 -49.999996
vn -1.0000 0.0000 0.0000
vn -0.9659 -0.2588 -0.0000
vn 0.0000 0.0000 1.0000
vn -0.2588 -0.9659 -0.0000
vn -0.7071 -0.7071 -0.0000
vn 0.0000 0.0000 -1.0000
vn 0.0000 -1.0000 -0.0000
vn 0.2332 -0.9724 -0.0000
vn 0.6489 -0.7609 -0.0000
vn 0.9234 -0.3838 -0.0000
vn 0.9506 -0.3103 -0.0000
vn 0.8084 -0.5886 -0.0000
vn 0.5873 -0.8094 -0.0000
vn -0.2588 0.9659 0.0000
vn 0.0000 1.0000 0.0000
vn 0.2588 0.9659 0.0000
vn 0.9659 0.2588 0.0000
vn 1.0000 0.0000 0.0000
vn -0.8084 -0.5886 -0.0000
vn -0.9507 -0.3103 -0.0000
vn -0.9234 -0.3838 -0.0000
vn -0.2332 -0.9724 -0.0000
vn -0.6489 -0.7609 -0.0000
vn 0.2588 -0.9659 -0.0000
vn 0.7071 -0.7071 -0.0000
vn 0.9659 -0.2588 -0.0000
vn -0.5873 -0.8094 -0.0000
vn -0.3087 -0.9512 -0.0000
vn 0.3087 -0.9512 -0.0000
vn 0.7071 0.7071 0.0000
vn -0.7071 0.7071 0.0000
vn -0.9659 0.2588 0.0000
usemtl Default_OBJ.342
s 1
f 1//1 2//1 3//1
f 1//1 3//1 4//1
f 5//2 1//2 4//2
f 2//3 1//3 6//3
f 6//3 1//3 7//3
f 7//3 1//3 8//3
f 8//3 1//3 9//3
f 1//3 10//3 9//3
f 1//3 5//3 10//3
f 9//4 10//4 11//4
f 10//5 12//5 11//5
f 10//5 5//5 12//5
f 12//6 4//6 11//6
f 5//2 4//2 12//2
f 4//6 13//6 11//6
f 9//4 11//4 13//4
f 8//7 9//7 13//7
f 4//6 14//6 13//6
f 8//7 13//7 14//7
f 14//6 15//6 16//6
f 4//6 15//6 14//6
f 8//8 14//8 17//8
f 14//6 16//6 17//6
f 18//9 17//9 16//9
f 7//10 18//10 16//10
f 7//10 16//10 15//10
f 18//9 19//9 17//9
f 18//3 8//3 19//3
f 7//3 8//3 18//3
f 19//8 8//8 17//8
f 6//11 7//11 15//11
f 20//11 6//11 15//11
f 4//6 20//6 15//6
f 20//6 3//6 21//6
f 21//12 6//12 20//12
f 4//6 3//6 20//6
f 22//12 6//12 21//12
f 23//13 22//13 21//13
f 3//6 24//6 21//6
f 21//6 24//6 23//6
f 25//6 24//6 3//6
f 26//14 27//14 24//14
f 26//14 24//14 25//14
f 24//6 28//6 29//6
f 24//6 29//6 23//6
f 27//15 30//15 24//15
f 30//15 28//15 24//15
f 30//16 31//16 28//16
f 28//6 32//6 33//6
f 31//6 32//6 28//6
f 28//6 33//6 34//6
f 35//6 28//6 34//6
f 36//6 28//6 35//6
f 29//6 28//6 36//6
f 37//17 38//17 33//17
f 37//17 33//17 32//17
f 38//18 39//18 33//18
f 40//6 33//6 39//6
f 34//6 33//6 40//6
f 40//6 39//6 41//6
f 42//19 43//19 40//19
f 41//20 42//20 40//20
f 40//19 43//19 34//19
f 41//6 39//6 44//6
f 41//6 44//6 45//6
f 46//21 47//21 41//21
f 46//21 41//21 45//21
f 47//20 42//20 41//20
f 48//3 42//3 47//3
f 48//3 47//3 49//3
f 49//3 47//3 46//3
f 48//3 49//3 50//3
f 50//7 49//7 44//7
f 49//22 51//22 44//22
f 49//3 46//3 51//3
f 51//23 46//23 45//23
f 51//23 45//23 52//23
f 51//22 52//22 44//22
f 45//6 44//6 52//6
f 50//7 44//7 53//7
f 48//3 50//3 54//3
f 54//24 50//24 53//24
f 53//6 39//6 55//6
f 44//6 39//6 53//6
f 54//24 53//24 55//24
f 56//25 54//25 55//25
f 56//25 55//25 57//25
f 55//6 39//6 57//6
f 48//26 56//26 57//26
f 48//26 57//26 39//26
f 48//3 54//3 56//3
f 38//3 42//3 48//3
f 38//18 48//18 39//18
f 38//3 30//3 43//3
f 38//3 43//3 42//3
f 30//3 58//3 43//3
f 43//27 58//27 34//27
f 58//28 59//28 35//28
f 34//27 58//27 35//27
f 30//3 59//3 58//3
f 35//28 59//28 36//28
f 59//7 60//7 36//7
f 30//3 60//3 59//3
f 30//3 27//3 60//3
f 60//3 27//3 61//3
f 36//7 60//7 29//7
f 29//29 60//29 23//29
f 60//29 61//29 23//29
f 27//3 22//3 61//3
f 61//13 22//13 23//13
f 37//3 30//3 38//3
f 37//3 62//3 30//3
f 62//30 37//30 32//30
f 62//30 32//30 31//30
f 30//16 62//16 31//16
f 27//3 2//3 22//3
f 27//3 26//3 2//3
f 63//31 26//31 25//31
f 63//31 25//31 64//31
f 64//6 25//6 3//6
f 2//32 63//32 64//32
f 2//32 64//32 3//32
f 26//3 63//3 2//3
f 2//3 6//3 22//3
