# Blender v3.0.1 OBJ File: ''
# www.blender.org
mtllib Small_Short_Star_Red.mtl
o obj1.005_obj1.005
v -11.499268 -14.224523 50.000000
v -11.696228 -12.350353 50.000000
v -11.696228 -12.350346 -50.000000
v -11.499268 -14.224514 -50.000000
v -9.974670 -15.332199 50.000000
v -9.974670 -15.332191 -50.000000
v -8.131348 -14.940392 50.000000
v -8.131348 -14.940382 -50.000000
v 0.000122 -9.032509 50.000000
v 0.000122 -9.032501 -50.000000
v 8.131653 -14.940392 50.000000
v -5.309021 7.307451 50.000000
v -8.590271 -2.791201 50.000000
v 8.590576 -2.791201 50.000000
v 5.309326 7.307451 50.000000
v 16.722046 3.116682 50.000000
v 8.590576 -2.791192 -50.000000
v 11.696533 -12.350346 -50.000000
v 11.696533 -12.350353 50.000000
v 11.499512 -14.224523 50.000000
v 11.499512 -14.224514 -50.000000
v 9.974915 -15.332199 50.000000
v 9.974915 -15.332191 -50.000000
v 8.131653 -14.940382 -50.000000
v 5.309326 7.307459 -50.000000
v 16.722046 3.116690 -50.000000
v -5.309021 7.307459 -50.000000
v 2.203369 16.866613 -50.000000
v 15.360413 7.307459 -50.000000
v 2.203369 16.866606 50.000000
v -2.203064 16.866613 -50.000000
v -0.942139 18.267061 -49.999996
v 0.942383 18.267061 -49.999996
v 0.942383 18.267054 50.000000
v -0.942139 18.267054 50.000000
v -2.203064 16.866606 50.000000
v 15.360413 7.307451 50.000000
v 17.081970 6.540967 -50.000000
v 17.664307 4.748709 -50.000000
v 17.081970 6.540958 50.000000
v 17.664307 4.748701 50.000000
v -8.590271 -2.791192 -50.000000
v -15.360107 7.307459 -50.000000
v -16.721802 3.116690 -50.000000
v -17.664062 4.748709 -50.000000
v -17.081726 6.540958 50.000000
v -15.360107 7.307451 50.000000
v -17.081726 6.540967 -50.000000
v -16.721802 3.116682 50.000000
v -17.664062 4.748701 50.000000
vn -0.9945 -0.1045 -0.0000
vn -0.5878 -0.8090 -0.0000
vn 0.0000 0.0000 1.0000
vn 0.2079 -0.9781 -0.0000
vn 0.5878 -0.8090 -0.0000
vn 0.9511 0.3090 0.0000
vn 0.9945 -0.1045 -0.0000
vn -0.0000 0.0000 -1.0000
vn -0.2079 -0.9781 -0.0000
vn 0.0000 1.0000 0.0000
vn 0.7431 0.6691 0.0000
vn -0.7432 0.6691 0.0000
vn -0.9511 0.3090 0.0000
vn 0.4067 0.9135 0.0000
vn 0.8660 -0.5000 -0.0000
vn -0.4067 0.9135 0.0000
vn -0.8660 -0.5000 -0.0000
usemtl Default_OBJ.349
s 1
f 1//1 2//1 3//1
f 1//1 3//1 4//1
f 5//2 1//2 4//2
f 2//3 1//3 5//3
f 5//2 4//2 6//2
f 7//3 2//3 5//3
f 5//4 6//4 8//4
f 7//4 5//4 8//4
f 9//3 2//3 7//3
f 9//5 7//5 8//5
f 9//5 8//5 10//5
f 11//2 9//2 10//2
f 12//3 13//3 9//3
f 9//3 13//3 2//3
f 14//3 9//3 11//3
f 14//3 12//3 9//3
f 15//3 12//3 14//3
f 16//3 15//3 14//3
f 16//5 14//5 17//5
f 14//6 18//6 17//6
f 14//6 19//6 18//6
f 14//3 11//3 19//3
f 19//7 20//7 18//7
f 19//3 11//3 20//3
f 20//7 21//7 18//7
f 20//3 11//3 22//3
f 20//5 22//5 23//5
f 20//5 23//5 21//5
f 24//8 18//8 21//8
f 24//8 21//8 23//8
f 24//8 17//8 18//8
f 11//2 10//2 24//2
f 11//9 24//9 23//9
f 10//8 17//8 24//8
f 22//9 11//9 23//9
f 25//8 26//8 17//8
f 16//5 17//5 26//5
f 27//8 25//8 17//8
f 27//8 17//8 10//8
f 27//8 28//8 25//8
f 15//10 29//10 25//10
f 30//6 15//6 25//6
f 25//8 29//8 26//8
f 30//6 25//6 28//6
f 31//8 28//8 27//8
f 32//8 28//8 31//8
f 30//11 28//11 33//11
f 32//8 33//8 28//8
f 34//10 33//10 32//10
f 35//10 34//10 32//10
f 36//12 35//12 32//12
f 36//12 32//12 31//12
f 30//3 36//3 12//3
f 12//13 36//13 31//13
f 30//3 35//3 36//3
f 34//3 35//3 30//3
f 34//11 30//11 33//11
f 12//13 31//13 27//13
f 30//3 12//3 15//3
f 15//10 37//10 29//10
f 37//14 38//14 29//14
f 29//8 38//8 26//8
f 26//8 38//8 39//8
f 40//6 39//6 38//6
f 37//14 40//14 38//14
f 40//3 16//3 41//3
f 40//6 41//6 39//6
f 40//3 37//3 16//3
f 41//15 16//15 26//15
f 41//15 26//15 39//15
f 37//3 15//3 16//3
f 42//8 27//8 10//8
f 43//8 27//8 42//8
f 12//10 27//10 43//10
f 44//8 43//8 42//8
f 45//8 43//8 44//8
f 46//16 47//16 43//16
f 46//16 43//16 48//16
f 48//8 43//8 45//8
f 47//10 12//10 43//10
f 49//17 50//17 45//17
f 50//13 48//13 45//13
f 49//17 45//17 44//17
f 47//3 49//3 13//3
f 13//2 49//2 44//2
f 47//3 50//3 49//3
f 47//3 46//3 50//3
f 50//13 46//13 48//13
f 12//3 47//3 13//3
f 13//2 44//2 42//2
f 2//13 13//13 42//13
f 42//8 10//8 3//8
f 2//13 42//13 3//13
f 3//8 10//8 8//8
f 3//8 8//8 6//8
f 4//8 3//8 6//8
