# Blender v3.0.1 OBJ File: ''
# www.blender.org
mtllib Small_Board_Red.mtl
o obj1.031
v -5.709351 -90.154434 -25.723463
v 0.102966 -88.663254 -25.723463
v -0.545471 -91.713776 -25.723463
v -0.545471 -91.713776 24.276537
v 0.102966 -94.764297 24.276537
v -5.709351 -93.273109 -25.723463
v 0.102966 -94.764297 -25.723463
v -6.977844 -96.122162 -25.723463
v -5.709351 -93.273109 24.276537
v 1.936035 -97.287361 -25.723463
v -6.977844 -96.122162 24.276537
v -9.295471 -98.208969 -25.723463
v -9.295471 -98.208969 24.276537
v 4.636902 -98.846703 -25.723463
v 1.936035 -97.287361 24.276537
v 4.636902 -98.846703 24.276537
v 7.738464 -99.172691 -25.723463
v 7.738464 -99.172691 24.276537
v -12.261536 -99.172691 24.276537
v -12.261536 -99.172691 -25.723463
v -15.363098 -98.846703 24.276537
v -108.856812 -127.934296 24.276531
v 117.143188 -128.934296 24.008583
v -108.856812 -128.934296 24.008583
v -109.856812 -127.934296 24.008583
v -69.307129 -104.351395 24.276537
v -70.632629 -104.351395 24.276537
v -71.878174 -103.898048 24.276537
v -108.856812 98.065704 24.276552
v -88.046265 -10.921388 24.276545
v -85.952087 -77.817291 24.276537
v -85.952087 -94.741425 24.276537
v -85.289368 -95.889328 24.276537
v -84.273987 -96.741341 24.276537
v 117.143188 -127.934296 24.276531
v -86.182312 -79.122650 24.276537
v -86.182312 -93.436066 24.276537
v -109.856812 98.065704 24.008604
v -84.273987 -96.741341 -25.723463
v -71.878174 -103.898048 -25.723463
v -70.632629 -104.351395 -25.723463
v -69.307129 -104.351395 -25.723463
v -108.856812 -129.934296 -25.723467
v -15.363098 -98.846703 -25.723463
v -68.061584 -103.898048 -25.723463
v -55.665833 -96.741341 -25.723463
v -68.061584 -103.898048 24.276537
v -18.063965 -97.287361 -25.723463
v -54.650452 -95.889328 -25.723463
v -55.665833 -96.741341 24.276537
v -54.650452 -95.889328 24.276537
v -53.987671 -94.741425 -25.723463
v -19.897034 -94.764297 -25.723463
v -53.757507 -93.436066 -25.723463
v -20.545471 -91.713776 -25.723463
v -19.897034 -94.764297 24.276537
v -18.063965 -97.287361 24.276537
v -20.545471 -91.713776 24.276537
v -53.757507 -93.436066 24.276537
v -53.987671 -94.741425 24.276537
v -53.757507 -79.122650 24.276537
v -19.897034 -88.663254 24.276537
v -19.897034 -88.663254 -25.723463
v -18.063965 -86.140190 24.276537
v -18.063965 -86.140190 -25.723463
v -15.363098 -84.580849 24.276537
v -10.545471 -74.393265 24.276537
v -53.987671 -77.817291 24.276537
v -9.897034 -71.342743 24.276537
v -54.650452 -76.669388 24.276537
v -53.757507 -79.122650 -25.723463
v -53.987671 -77.817291 -25.723463
v -9.897034 -71.342743 -25.723463
v -10.545471 -74.393265 -25.723463
v -54.650452 -76.669388 -25.723463
v -55.665833 -75.817375 24.276537
v -55.665833 -75.817375 -25.723463
v -56.091858 -30.487822 -25.723459
v -15.982727 -29.340620 -25.723459
v -13.566711 -31.543119 -25.723459
v -13.566711 -31.543123 24.276543
v -8.063965 -68.819679 -25.723463
v -10.787109 -33.264191 24.276543
v -10.787109 -33.264191 -25.723459
v -8.063965 -68.819679 24.276537
v -5.363098 -67.260345 24.276537
v -5.363098 -67.260345 -25.723461
v -2.261536 -66.934357 24.276537
v -7.738586 -34.445190 -25.723459
v -4.524963 -35.045929 -25.723459
v -2.261536 -66.934357 -25.723461
v 0.704529 -67.898079 24.276537
v -1.255676 -35.045929 -25.723459
v 1.957947 -34.445190 -25.723459
v 0.704529 -67.898079 -25.723463
v -1.255676 -35.045929 24.276543
v 1.957947 -34.445190 24.276543
v 5.006470 -33.264191 24.276543
v 3.022156 -69.984879 24.276537
v 7.786072 -31.543123 24.276543
v 5.006470 -33.264191 -25.723459
v 10.202148 -29.340624 24.276543
v 7.786072 -31.543119 -25.723459
v 51.816040 -75.284599 24.276537
v 13.022156 -87.305389 24.276537
v 51.304688 -77.192894 24.276537
v 4.290649 -72.833931 24.276537
v 51.816040 -75.284599 -25.723463
v 53.213013 -73.887627 -25.723463
v 53.213013 -73.887627 24.276537
v 55.121277 -73.376297 -25.723463
v 53.795105 -28.029554 -25.723459
v 52.118530 -27.580305 -25.723459
v 10.202148 -29.340620 -25.723459
v 12.172302 -26.731676 24.276543
v 12.172302 -26.731672 -25.723459
v 50.891174 -26.352949 -25.723459
v 50.891174 -26.352953 24.276543
v 50.441895 -24.676348 24.276543
v 13.629578 -23.805128 -25.723459
v 50.441895 -24.676344 -25.723459
v 50.441895 -12.939330 -25.723455
v 50.441895 -12.939332 24.276545
v 14.825867 -17.405291 24.276545
v 14.524231 -20.660646 24.276545
v 13.629578 -23.805132 24.276543
v 14.524231 -20.660643 -25.723455
v 14.825867 -17.405287 -25.723455
v 14.524231 -14.149949 24.276545
v 14.524231 -14.149947 -25.723455
v 13.629578 -11.005464 24.276545
v 13.629578 -11.005462 -25.723455
v 50.891174 -11.262727 24.276545
v 12.172302 -8.078919 24.276545
v 50.891174 -11.262725 -25.723455
v 52.118530 -10.035369 -25.723455
v 52.118530 -10.035371 24.276545
v 53.795105 -9.586120 -25.723455
v 57.247803 39.127335 24.276546
v 10.202148 -5.469972 24.276545
v 53.795105 -9.586122 24.276545
v 59.156067 38.615997 24.276546
v 57.247803 39.127335 -25.723452
v 55.850830 40.524307 24.276546
v 55.850830 40.524307 -25.723452
v 10.202148 -5.469970 -25.723455
v 59.156067 38.615997 -25.723452
v 12.172302 -8.078918 -25.723455
v 7.786072 -3.267457 24.276545
v 11.496033 42.411194 -25.723452
v 7.786072 -3.267455 -25.723455
v 5.006470 -1.546403 24.276545
v 5.006470 -1.546401 -25.723455
v 7.771790 40.293381 -25.723452
v 1.957947 -0.365403 24.276545
v 3.258789 38.872452 -25.723452
v 1.957947 -0.365401 -25.723455
v -1.255676 0.235335 24.276545
v -1.255676 0.235337 -25.723455
v -4.524963 0.235335 24.276545
v -4.524963 0.235337 -25.723455
v -1.716980 38.309708 -25.723452
v -1.629089 38.311646 24.276546
v -6.513672 38.632187 24.276546
v -7.738586 -0.365403 24.276545
v 4.149109 39.076828 24.276546
v -3.345154 38.324341 21.151546
v -0.146484 38.386444 18.026546
v 4.235657 39.098526 18.026546
v 7.657776 40.244446 22.714046
v 10.246094 41.571686 24.276546
v 10.761841 41.899200 21.151546
v 8.261902 40.512939 18.026546
v 13.070984 43.739990 18.026546
v 14.743286 45.704346 21.151546
v 12.903076 43.579987 24.276546
v 15.033875 46.147781 24.276546
v 16.475525 49.924698 21.151550
v 15.990906 48.085190 18.026546
v 16.218872 53.991791 18.026550
v 16.564209 52.072113 14.901550
v 16.580017 51.807831 24.276550
v 15.427734 55.940002 21.151550
v 55.339478 42.432602 24.276546
v 55.339478 58.648804 24.276550
v 14.237366 57.751236 24.276550
v 12.219055 59.793167 21.151550
v 11.503662 60.352524 24.276550
v 55.850830 60.557098 24.276550
v 55.339478 58.648804 -25.723452
v 55.850830 60.557098 -25.723452
v 57.247803 61.954071 24.276550
v 57.247803 61.954071 -25.723452
v 15.038330 56.617920 -25.723452
v 12.915771 59.179047 -25.723452
v 14.750244 57.058746 -22.598452
v 10.774414 60.861923 -22.598452
v 10.260620 61.189178 -25.723452
v 4.164795 63.693329 -25.723452
v 7.672974 62.521652 -24.160952
v 4.248962 63.672195 -19.473452
v 8.274170 62.253296 -19.473452
v -0.132812 64.383911 -19.473452
v 4.333008 63.650772 -13.223451
v -0.044006 64.376923 -13.223451
v 4.416870 63.629074 -6.973451
v 8.348755 62.218399 -13.223451
v 0.044739 64.369644 -6.973451
v 8.423157 62.183243 -6.973451
v 4.500610 63.607086 -0.723451
v 0.133423 64.362091 -0.723451
v 4.201599 63.684128 5.526549
v -4.364868 64.385605 -0.723451
v -0.182800 64.387726 5.526549
v 8.232056 62.272812 5.526549
v 3.900818 63.757614 11.776551
v 7.963989 62.394562 11.776551
v 7.693054 62.513062 18.026550
v 9.673157 61.535095 14.901551
v 11.464661 60.381241 11.776551
v 9.717590 61.509918 18.026550
v 11.504272 60.352081 14.901551
v 7.789978 62.471176 24.276550
v 12.307617 59.719177 14.901551
v 13.854370 58.209457 18.026550
v 15.476746 55.846115 14.901551
v 15.846680 55.050873 14.901551
v 15.354004 56.077118 11.776551
v 14.372253 57.578903 11.776551
v 13.036743 59.064209 8.651551
v 16.040161 54.547852 8.651551
v 13.070801 59.031372 11.776551
v 14.928162 56.791763 5.526549
v 11.685303 60.216553 5.526549
v 14.358521 57.596725 5.526549
v 13.226135 58.878937 2.401549
v 15.399353 55.993362 2.401549
v 10.165466 61.247208 2.401549
v 11.902039 60.049057 -0.723451
v 14.512573 57.392563 -0.723451
v 16.130127 54.282166 -0.723451
v 15.441284 55.914337 -3.848451
v 13.293152 58.811676 -3.848451
v 10.252502 61.194153 -3.848451
v 11.841614 60.096359 -6.973451
v 14.469788 57.450119 -6.973451
v 8.497314 62.147842 -0.723451
v 15.242493 56.276230 -6.973451
v 13.240906 58.864212 -10.098451
v 14.872559 56.876923 -13.223451
v 16.172424 54.147781 -10.098452
v 10.184570 61.235596 -10.098451
v 11.780884 60.143433 -13.223451
v 13.936340 58.114944 -13.223451
v 11.416138 60.416718 -16.348452
v 15.132812 56.463211 -16.348452
v 13.077515 59.024887 -19.473452
v 10.116394 61.276794 -16.348452
v 15.992004 54.680710 -19.473452
v 15.499817 55.801208 -16.348452
v 16.564209 50.691437 -16.348452
v 16.475159 52.841415 -22.598452
v 16.217407 48.770050 -19.473452
v 15.842407 47.708847 -16.348452
v 16.505310 52.635452 -13.223452
v 16.439148 49.710510 -13.223452
v 15.473022 46.918472 -16.348452
v 15.346130 46.680634 -13.223452
v 16.039429 48.218613 -10.098452
v 14.367126 45.187576 -13.223452
v 16.552124 50.543961 -6.973451
v 15.401611 46.782867 -6.973452
v 13.025757 43.696381 -10.098452
v 14.923279 45.973785 -6.973452
v 13.062561 43.731827 -13.223452
v 11.449585 42.377106 -13.223452
v 11.675781 42.545715 -6.973452
v 9.906982 41.369247 -10.098452
v 14.350830 45.166397 -6.973452
v 13.219849 43.886246 -3.848452
v 8.219727 40.493454 -6.973452
v 10.157654 41.517914 -3.848452
v 7.944885 40.369232 -13.223452
v 4.188293 39.086609 -6.973452
v 4.494507 39.165375 -0.723452
v 8.491516 40.621063 -0.723452
v 10.246765 41.572067 2.401548
v 11.897888 42.717331 -0.723452
v 8.415222 40.584747 5.526548
v 13.288391 43.955078 2.401548
v 11.835754 42.668671 5.526548
v 10.176819 41.529510 8.651546
v 13.234619 43.901016 8.651546
v 14.464783 45.316299 5.526548
v 8.338684 40.548706 11.776546
v 11.773193 42.620224 11.776546
v 10.106628 41.487228 14.901546
v 11.406921 42.345947 14.901546
v 13.928955 44.649033 11.776546
v 15.128357 46.302124 14.901546
v 15.496155 46.963394 14.901546
v 15.657837 47.292740 11.776546
v 14.866028 45.886322 11.776546
v 16.505676 50.130859 11.776550
v 16.171814 48.617538 8.651550
v 16.551880 52.221710 5.526549
v 15.592163 47.155457 5.526548
v 15.238464 46.489243 5.526548
v 16.531189 50.336960 2.401549
v 15.438416 46.852188 2.401549
v 16.530945 52.428513 -3.848451
v 16.129578 48.483963 -0.723451
v 15.617004 55.564407 2.401549
v 14.508789 45.375488 -0.723452
v 15.395447 46.771439 -3.848451
v 15.614441 47.201492 -3.848451
v 15.404480 55.983734 5.526549
v 15.595337 55.609253 -6.973451
v 16.438721 53.055954 11.776550
v 4.408386 39.142807 5.526548
v 4.322083 39.120514 11.776546
v 0.036194 38.401230 5.526548
v -0.055115 38.393677 11.776546
v -4.462952 38.390060 5.526548
v -4.371643 38.382965 -0.723452
v 0.127441 38.409073 -0.723452
v -4.554260 38.397446 11.776546
v -7.446472 38.796906 11.776546
v -8.754456 39.088547 -0.723452
v -8.840942 39.110428 5.526548
v -9.060547 39.167465 -6.973452
v -10.227478 39.507507 -6.973452
v -12.785645 40.496017 -0.723452
v -4.695496 38.409500 -6.973452
v -10.207458 39.501129 5.526548
v -9.827698 39.383835 -13.223452
v -7.488770 38.805206 -13.223452
v -10.088135 39.463531 -16.348452
v -4.197144 38.370270 -16.348452
v -5.018738 38.439880 -13.223452
v -0.521118 38.359970 -13.223452
v 3.880188 39.011505 -13.223452
v 3.570312 38.940125 -19.473452
v -0.846191 38.341171 -19.473452
v -0.196533 38.382599 -6.973452
v -3.762024 38.343506 -22.598452
v -6.920044 38.699631 -19.473452
v -9.687012 39.342117 -22.598452
v -12.528198 40.379608 -19.473452
v -15.993286 42.362228 -19.473452
v -17.017456 43.174194 -22.598452
v -14.972534 41.672745 -25.723452
v -15.000000 41.689972 -16.348452
v -18.709656 44.906235 -19.473452
v -17.141052 43.282043 -13.223452
v -13.815979 41.005707 -13.223452
v -18.613770 44.789871 -10.098452
v -15.114258 41.762344 -6.973452
v -19.702942 46.323090 -16.348452
v -20.452698 47.833786 -13.223452
v -20.618713 48.276016 -10.098452
v -19.780151 46.454758 -6.973452
v -17.200806 43.335022 -3.848452
v -20.398438 47.701263 -3.848451
v -18.904419 45.151718 -0.723452
v -16.234131 42.541168 -0.723452
v -20.840027 48.995224 -0.723451
v -20.605408 48.238235 8.651546
v -21.077637 50.182816 11.776550
v -21.077637 50.182816 -13.223452
v -20.382812 47.664047 2.401549
v -18.759216 44.967514 8.651546
v -19.738708 46.383621 5.526548
v -20.391418 47.684601 11.776546
v -17.556641 43.662964 11.776546
v -15.362488 41.923828 5.526548
v -14.056885 41.135788 11.776546
v -15.484009 42.005081 14.901546
v -19.686157 46.294998 14.901546
v -18.773865 44.985748 18.026546
v -16.258545 42.559692 18.026546
v -13.063110 40.626190 18.026546
v -10.358765 39.549805 14.901546
v -9.766541 39.365601 11.776546
v -3.825317 38.346970 14.901546
v -6.888794 38.694199 18.026546
v -3.537659 38.332413 18.026546
v -9.919556 39.411575 21.151546
v -13.131958 40.659271 22.714046
v -10.385742 39.558609 24.276546
v -15.950195 42.330887 24.276546
v -10.787109 -1.546403 24.276545
v -13.566711 -3.267457 24.276545
v -19.761719 46.422913 24.276546
v -48.462402 47.079559 24.276546
v -17.477112 43.587784 21.151546
v -50.693787 -7.968644 24.276545
v -50.856812 45.070419 24.276546
v -48.462402 47.079559 -25.723452
v -50.856812 45.070419 -25.723452
v -53.530029 -6.705842 24.276545
v -53.793945 44.001373 24.276546
v -65.260498 1.816832 24.276545
v -62.491333 -6.705842 24.276545
v -53.530029 -6.705840 -25.723455
v -50.693787 -7.968642 -25.723455
v -67.337952 4.124084 24.276545
v -65.260498 1.816835 -25.723455
v -62.491333 -6.705840 -25.723455
v -67.337952 4.124085 -25.723455
v -53.793945 44.001373 -25.723452
v -70.442688 4.124084 24.276545
v -70.442688 4.124085 -25.723455
v -73.606812 44.467529 -25.723452
v -59.856812 45.070419 -25.723452
v -56.919617 44.001373 -25.723452
v -62.251221 47.079559 -25.723452
v -71.959717 46.114639 -25.723452
v -59.856812 45.070419 24.276546
v -62.251221 47.079559 24.276546
v -71.356812 48.364639 -25.723452
v -63.814026 49.786453 -25.723452
v -64.356812 52.864639 -25.723452
v -63.814026 49.786453 24.276550
v -71.356812 48.364639 24.276550
v -64.356812 52.864639 24.276550
v -63.814026 55.942825 -25.723452
v -63.814026 55.942825 24.276550
v -71.356812 57.364639 24.276550
v -62.251221 58.649734 24.276550
v -62.251221 58.649734 -25.723452
v -59.856812 60.658875 24.276550
v -71.959717 59.614639 24.276550
v -71.959717 59.614639 -25.723452
v -71.356812 57.364639 -25.723452
v -73.606812 61.261749 24.276550
v -73.606812 61.261749 -25.723452
v -59.856812 60.658875 -25.723452
v -56.919617 61.727905 24.276550
v -56.919617 61.727905 -25.723452
v -53.793945 61.727905 24.276550
v -53.793945 61.727905 -25.723452
v -108.856812 100.065704 -25.723448
v -75.856812 61.864639 -25.723452
v -10.378052 63.217255 -25.723452
v -109.856812 99.797760 -25.723448
v -110.588867 99.065704 -25.723448
v -108.856812 100.065704 22.276552
v -110.856812 98.065704 -25.723448
v -87.106812 61.261749 -25.723452
v -84.856812 61.864639 -25.723452
v -1.614624 64.457947 -25.723452
v -6.501587 64.138611 -25.723452
v 117.143188 100.065704 -25.723448
v -3.331543 64.444687 -22.598452
v -9.911865 63.363983 -22.598452
v -6.878052 64.077011 -19.473452
v -3.524536 64.436584 -19.473452
v -10.352295 63.225632 -16.348452
v -13.057495 62.148453 -19.473452
v -3.812805 64.421982 -16.348452
v -4.542542 64.371552 -13.223451
v -7.437378 63.975082 -13.223451
v -4.453735 64.378723 -6.973451
v -8.834412 63.663574 -6.973451
v -9.760071 63.409485 -13.223451
v -8.750305 63.684723 -0.723451
v -4.681152 64.359772 5.526549
v -9.049316 63.608093 5.526549
v -10.218994 63.268524 5.526549
v -12.782288 62.277710 -0.723451
v -10.202148 63.273865 -6.973451
v -14.052246 61.638016 -13.223451
v -15.359314 60.849182 -6.973451
v -17.554443 59.110855 -13.223451
v -18.838745 57.705231 -10.098451
v -17.304199 59.343506 -3.848451
v -16.232056 60.231461 -0.723451
v -18.904114 57.621429 -0.723451
v -20.249817 55.410889 -3.848451
v -19.863464 56.171661 -6.973451
v -21.008545 53.026291 -6.973451
v -20.570923 54.630768 -13.223451
v -19.812622 56.261795 -16.348452
v -21.008545 53.026291 -19.473452
v -18.772461 57.788620 -19.473452
v -15.479919 60.768600 -16.348452
v -20.535767 54.725601 -22.598452
v -16.254883 60.214172 -19.473452
v -17.474304 59.186554 -22.598452
v -19.760925 56.351593 -25.723452
v -15.945679 60.443344 -25.723452
v -13.125793 62.115601 -24.160952
v -50.856812 60.658875 -25.723452
v -48.462402 58.649734 -25.723452
v -48.462402 58.649734 24.276550
v -46.899597 55.942825 24.276550
v -46.899597 55.942825 -25.723452
v -19.923218 56.063065 24.276550
v -21.158386 51.385818 24.276550
v -46.356812 52.864639 24.276550
v -46.899597 49.786453 24.276550
v -46.356812 52.864639 -25.723452
v -46.899597 49.786453 -25.723452
v -21.158386 51.385818 -25.723452
v -19.922729 46.709213 -25.723452
v -20.563171 48.121109 -22.598452
v -17.867188 43.968109 -25.723452
v -20.978027 49.586411 -19.473452
v -17.867554 58.803513 24.276550
v -17.017700 59.597046 21.151550
v -20.591553 54.573746 21.151550
v -18.709961 57.866013 18.026550
v -15.993835 60.408386 18.026550
v -12.530212 62.391876 18.026550
v -14.972839 61.097992 24.276550
v -15.000427 61.080704 14.901551
v -17.140869 59.489609 11.776551
v -13.817139 61.765091 11.776551
v -10.082458 63.311523 14.901551
v -18.669373 57.915604 8.651551
v -15.112305 61.009811 5.526549
v -19.788635 56.303711 14.901551
v -20.570923 54.630768 11.776551
v -21.008545 53.026291 18.026550
v -20.570923 54.630768 -0.723451
v -19.863464 56.171661 5.526549
v -17.199646 59.437500 2.401549
v -9.831360 63.388245 11.776551
v -7.472900 63.968185 11.776551
v -4.996826 64.330322 11.776551
v -4.173340 64.399475 14.901551
v -0.499573 64.409698 11.776551
v 3.598328 63.827560 18.026550
v -0.816895 64.428024 18.026550
v 3.294250 63.893936 24.276550
v 59.156067 62.465408 24.276550
v 117.143188 98.065704 24.276552
v -1.688354 64.459549 24.276550
v 88.863586 61.954071 24.276550
v 90.260559 60.557098 24.276550
v 86.955261 62.465408 24.276550
v 90.771912 42.432602 24.276546
v 93.145630 -11.262727 24.276545
v 90.771912 58.648804 24.276550
v 117.143188 99.065704 24.008604
v 118.143188 98.065704 24.008604
v 118.143188 -127.934296 24.008583
v 93.594849 -12.939332 24.276545
v 93.594849 -12.939330 -25.723455
v 93.594849 -24.676344 -25.723459
v 93.594849 -24.676348 24.276543
v 93.145630 -26.352953 24.276543
v 92.914673 -77.192894 24.276537
v 92.914673 -95.725693 24.276537
v 92.914673 -77.192894 -25.723463
v 92.403381 -75.284599 24.276537
v 92.403381 -97.633995 24.276537
v 92.914673 -95.725693 -25.723463
v 92.403381 -97.633995 -25.723463
v 91.006409 -99.030968 24.276537
v 119.143188 -127.934296 -25.723467
v 91.006409 -99.030968 -25.723463
v 119.143188 98.065704 22.276552
v 119.143188 -127.934296 22.276531
v 118.875244 -128.934296 22.276531
v 117.143188 -129.934296 -25.723467
v 118.875244 -128.934296 -25.723467
v 119.143188 98.065704 -25.723448
v 118.464539 -128.216385 23.751125
v 118.875244 -127.934296 23.276531
v 118.464539 -129.408890 22.558613
v 118.143188 -129.666351 22.276531
v 118.143188 -129.666351 -25.723467
v 117.143188 -129.666351 23.276531
v 117.143188 -129.934296 22.276531
v -108.856812 -129.666351 23.276531
v -108.856812 -129.934296 22.276531
v -109.856812 -129.666351 22.276531
v -109.856812 -129.666351 -25.723467
v -110.588867 -128.934296 -25.723467
v -110.856812 -127.934296 -25.723467
v -86.182312 -79.122650 -25.723463
v -86.182312 -93.436066 -25.723463
v -85.952087 -94.741425 -25.723463
v -85.289368 -95.889328 -25.723463
v -88.046265 -10.921386 -25.723455
v -85.952087 -77.817291 -25.723463
v -110.856812 -127.934296 22.276531
v -110.588867 -128.934296 22.276531
v -110.588867 -127.934296 23.276531
v -110.178162 -129.408890 22.558613
v -110.178162 -128.216385 23.751125
v -110.856812 98.065704 22.276552
v -110.588867 98.065704 23.276552
v -110.588867 99.065704 22.276552
v -110.178162 98.347778 23.751146
v -108.856812 99.065704 24.008604
v -110.178162 99.540283 22.558634
v -108.856812 99.797760 23.276552
v 117.143188 99.797760 23.276552
v -109.856812 99.797760 22.276552
v 117.143188 100.065704 22.276552
v 118.143188 99.797760 22.276552
v 118.143188 99.797760 -25.723448
v 118.875244 99.065704 -25.723448
v 118.875244 99.065704 22.276552
v 118.617798 99.387054 22.558634
v 118.875244 98.065704 23.276552
v 117.425293 99.387054 23.751146
v -81.688721 -30.487822 -25.723459
v -85.289368 -76.669388 -25.723463
v -85.289368 -76.669388 24.276537
v -84.273987 -75.817375 -25.723463
v -82.013306 -27.400114 -25.723459
v -82.013306 -27.400118 24.276543
v -81.688721 -30.487825 24.276543
v -79.177002 -32.312714 -25.723459
v -79.177002 -32.312714 24.276543
v -76.140137 -31.667208 24.276543
v -76.140137 -31.667204 -25.723459
v -70.632629 -68.207321 -25.723463
v -71.878174 -68.660667 -25.723463
v -61.640503 -31.667204 -25.723459
v -69.307129 -68.207321 -25.723463
v -68.890320 -26.399904 24.276543
v -68.890320 -26.399900 -25.723459
v -58.603638 -32.312714 -25.723459
v -61.640503 -31.667208 24.276543
v -58.603638 -32.312714 24.276543
v -68.061584 -68.660667 -25.723463
v -56.091858 -30.487825 24.276543
v -15.982727 -29.340624 24.276543
v -17.952942 -26.731676 24.276543
v -19.410156 -23.805132 24.276543
v -55.767334 -27.400118 24.276543
v -19.410156 -23.805128 -25.723459
v -17.952942 -26.731672 -25.723459
v -55.767334 -27.400114 -25.723459
v -20.304871 -20.660643 -25.723455
v -58.536560 -18.877439 -25.723455
v -51.286682 -13.610137 -25.723455
v -51.286682 -13.610139 24.276545
v -49.734375 -10.921388 24.276545
v -49.734375 -10.921386 -25.723455
v -20.606506 -17.405287 -25.723455
v -19.410156 -11.005462 -25.723455
v -20.304871 -14.149947 -25.723455
v -20.606506 -17.405291 24.276545
v -20.304871 -14.149949 24.276545
v -19.410156 -11.005464 24.276545
v -17.952942 -8.078918 -25.723455
v -17.952942 -8.078919 24.276545
v -15.982727 -5.469970 -25.723455
v -13.566711 -3.267455 -25.723455
v -15.982727 -5.469972 24.276545
v -10.787109 -1.546401 -25.723455
v -7.738586 -0.365401 -25.723455
v -11.181274 39.834473 -25.723452
v -6.643127 38.652954 -25.723452
v -20.304871 -20.660646 24.276545
v -58.536560 -18.877443 24.276545
v -68.061584 -68.660667 24.276537
v -69.307129 -68.207321 24.276537
v -70.632629 -68.207321 24.276537
v -71.878174 -68.660667 24.276537
v -84.273987 -75.817375 24.276537
v -79.244080 -18.877443 24.276545
v -86.493896 -13.610139 24.276545
v -86.493896 -13.610137 -25.723455
v -79.244080 -18.877439 -25.723455
v -87.086853 -7.968644 24.276545
v -87.086853 -7.968642 -25.723455
v -89.356812 48.364639 -25.723452
v -88.753906 46.114639 -25.723452
v -87.106812 44.467529 -25.723452
v -84.250549 -6.705840 -25.723455
v -84.250549 -6.705842 24.276545
v -88.753906 46.114639 24.276546
v -87.106812 44.467529 24.276546
v -72.520142 1.816835 -25.723455
v -84.856812 43.864639 -25.723452
v -84.856812 43.864639 24.276546
v -72.520142 1.816832 24.276545
v -75.856812 43.864639 24.276546
v -73.606812 44.467529 24.276546
v -75.856812 43.864639 -25.723452
v -71.959717 46.114639 24.276546
v -75.289307 -6.705842 24.276545
v -75.289307 -6.705840 -25.723455
v -89.356812 48.364639 24.276550
v -89.356812 57.364639 -25.723452
v -89.356812 57.364639 24.276550
v -88.753906 59.614639 24.276550
v -87.106812 61.261749 24.276550
v -88.753906 59.614639 -25.723452
v -84.856812 61.864639 24.276550
v -75.856812 61.864639 24.276550
v 90.771912 58.648804 -25.723452
v 90.771912 42.432602 -25.723452
v 93.145630 -11.262725 -25.723455
v 88.863586 61.954071 -25.723452
v 90.260559 60.557098 -25.723452
v 86.955261 62.465408 -25.723452
v 59.156067 62.465408 -25.723452
v 91.918213 -10.035369 -25.723455
v 90.260559 40.524307 -25.723452
v 91.918213 -10.035371 24.276545
v 88.863586 39.127335 -25.723452
v 90.260559 40.524307 24.276546
v 88.863586 39.127335 24.276546
v 90.241638 -9.586122 24.276545
v 86.955261 38.615997 24.276546
v 86.955261 38.615997 -25.723452
v 90.241638 -9.586120 -25.723455
v 78.504639 -9.586120 -25.723455
v 67.208740 -10.035369 -25.723455
v 76.828003 -10.035369 -25.723455
v 76.828003 -10.035371 24.276545
v 78.504639 -9.586122 24.276545
v 65.532104 -9.586120 -25.723455
v 68.436096 -11.262725 -25.723455
v 65.532104 -9.586122 24.276545
v 67.208740 -10.035371 24.276545
v 75.600647 -11.262725 -25.723455
v 68.885315 -12.939330 -25.723455
v 68.436096 -11.262727 24.276545
v 68.885315 -24.676344 -25.723459
v 68.885315 -12.939332 24.276545
v 75.151428 -12.939330 -25.723455
v 75.151428 -24.676344 -25.723459
v 75.151428 -12.939332 24.276545
v 75.151428 -24.676348 24.276543
v 68.436096 -26.352949 -25.723459
v 75.600647 -26.352949 -25.723459
v 76.828003 -27.580305 -25.723459
v 67.208740 -27.580305 -25.723459
v 68.436096 -26.352953 24.276543
v 67.208740 -27.580309 24.276543
v 78.504639 -28.029554 -25.723459
v 65.532104 -28.029554 -25.723459
v 65.532104 -28.029558 24.276543
v 90.241638 -28.029554 -25.723459
v 89.098083 -73.376297 -25.723463
v 90.241638 -28.029558 24.276543
v 78.504639 -28.029558 24.276543
v 76.828003 -27.580309 24.276543
v 91.918213 -27.580305 -25.723459
v 91.006409 -73.887627 -25.723463
v 93.145630 -26.352949 -25.723459
v 91.918213 -27.580309 24.276543
v 92.403381 -75.284599 -25.723463
v 91.006409 -73.887627 24.276537
v 89.098083 -73.376297 24.276537
v 55.121277 -73.376297 24.276537
v 53.795105 -28.029558 24.276543
v 52.118530 -27.580309 24.276543
v 75.600647 -26.352953 24.276543
v 68.885315 -24.676348 24.276543
v 75.600647 -11.262727 24.276545
v 86.597473 -99.542297 -25.723463
v 89.098083 -99.542297 -25.723463
v 84.866394 -99.127167 -25.723463
v 55.121277 -99.542297 -25.723463
v 57.621948 -99.542297 -25.723463
v 59.352966 -99.127167 -25.723463
v 59.352966 -99.127167 24.276537
v 60.707397 -97.972076 24.276537
v 60.707397 -97.972076 -25.723463
v 61.390686 -96.328316 24.276537
v 82.828735 -96.328316 24.276537
v 83.511963 -97.972076 24.276537
v 84.866394 -99.127167 24.276537
v 86.597473 -99.542297 24.276537
v 89.098083 -99.542297 24.276537
v 83.511963 -97.972076 -25.723463
v 82.828735 -96.328316 -25.723463
v 81.926270 -93.408760 24.276537
v 81.926270 -93.408760 -25.723463
v 80.245911 -90.856400 -25.723463
v 66.298584 -88.873512 -25.723463
v 63.973450 -90.856400 -25.723463
v 62.293091 -93.408760 -25.723463
v 61.390686 -96.328316 -25.723463
v 62.293091 -93.408760 24.276537
v 80.245911 -90.856400 24.276537
v 69.084290 -87.617218 24.276537
v 63.973450 -90.856400 24.276537
v 66.298584 -88.873512 24.276537
v 69.084290 -87.617218 -25.723463
v 72.109680 -87.187096 -25.723463
v 75.135132 -87.617218 -25.723463
v 77.920776 -88.873512 -25.723463
v 75.135132 -87.617218 24.276537
v 72.109680 -87.187096 24.276537
v 77.920776 -88.873512 24.276537
v 57.621948 -99.542297 24.276537
v 55.121277 -99.542297 24.276537
v 53.213013 -99.030968 24.276537
v 53.213013 -99.030968 -25.723463
v 51.816040 -97.633995 -25.723463
v 10.704529 -98.208969 -25.723463
v 13.022156 -96.122162 -25.723463
v 14.290649 -93.273109 -25.723463
v 51.304688 -95.725693 -25.723463
v 51.816040 -97.633995 24.276537
v 14.290649 -90.154434 -25.723463
v 51.304688 -77.192894 -25.723463
v 51.304688 -95.725693 24.276537
v 13.022156 -87.305389 -25.723463
v 10.704529 -85.218582 -25.723463
v 14.290649 -90.154434 24.276537
v 4.290649 -72.833931 -25.723463
v 7.738464 -84.254860 -25.723463
v 4.290649 -75.952606 -25.723463
v 10.704529 -85.218582 24.276537
v 4.290649 -75.952606 24.276537
v 3.022156 -78.801659 24.276537
v 3.022156 -78.801659 -25.723463
v 0.704529 -80.888458 -25.723463
v 4.636902 -84.580849 -25.723463
v 1.936035 -86.140190 -25.723463
v -2.261536 -81.852180 -25.723463
v 0.704529 -80.888458 24.276537
v -2.261536 -81.852180 24.276537
v -6.977844 -87.305389 -25.723463
v -5.363098 -81.526192 24.276537
v -5.363098 -81.526192 -25.723463
v -8.063965 -79.966850 -25.723463
v -9.295471 -85.218582 -25.723463
v -12.261536 -84.254860 -25.723463
v -9.295471 -85.218582 24.276537
v -6.977844 -87.305389 24.276537
v -5.709351 -90.154434 24.276537
v 0.102966 -88.663254 24.276537
v 1.936035 -86.140190 24.276537
v 4.636902 -84.580849 24.276537
v 7.738464 -84.254860 24.276537
v -8.063965 -79.966850 24.276537
v -12.261536 -84.254860 24.276537
v -9.897034 -77.443794 24.276537
v -9.897034 -77.443794 -25.723463
v -15.363098 -84.580849 -25.723463
v 3.022156 -69.984879 -25.723463
v 14.290649 -93.273109 24.276537
v 13.022156 -96.122162 24.276537
v 10.704529 -98.208969 24.276537
v -6.652649 64.114563 24.276550
v -3.751648 64.425323 21.151550
v -9.693542 63.429077 21.151550
v -11.173340 62.941666 24.276550
v -50.856812 60.658875 24.276550
v -6.906189 64.072189 18.026550
v -20.492065 47.933243 21.151546
v -20.962158 49.508896 18.026550
v -56.919617 44.001373 24.276546
v -17.305786 43.429550 2.401548
v 7.667114 40.248413 -19.473452
v 9.652893 41.223785 -16.348452
v 9.700867 41.250854 -19.473452
v 11.492432 42.408539 -16.348452
v 12.297974 43.042740 -16.348452
v 13.844849 44.552170 -19.473452
v 15.419128 46.815704 -22.598452
v 12.200745 42.961639 -22.598452
v 14.219116 44.998810 -25.723452
v 16.580200 50.959381 -25.723452
v 55.339478 42.432602 -25.723452
v 15.660217 55.473221 -13.223451
v -4.524963 -35.045929 24.276543
v -7.738586 -34.445190 24.276543
vn 0.0000 0.0000 -1.0000
vn 0.9781 -0.2079 0.0000
vn 0.9781 0.2079 0.0000
vn -1.0000 0.0000 0.0000
vn -0.9135 0.4067 0.0000
vn -0.6691 0.7431 0.0000
vn 0.5000 0.8660 0.0000
vn 0.8090 0.5878 0.0000
vn -0.0000 0.0000 1.0000
vn 0.1045 0.9945 0.0000
vn -0.3090 0.9511 0.0000
vn 0.0000 -0.2588 0.9659
vn -0.2506 -0.2506 0.9351
vn -0.2588 -0.0000 0.9659
vn 0.3420 0.9397 0.0000
vn 0.0000 1.0000 0.0000
vn -0.3420 0.9397 0.0000
vn -0.5000 0.8660 0.0000
vn -0.6428 0.7660 0.0000
vn -0.8660 0.5000 0.0000
vn -0.9848 0.1736 0.0000
vn 0.8090 -0.5878 0.0000
vn 0.5000 -0.8660 0.0000
vn -0.9848 -0.1736 0.0000
vn -0.8660 -0.5000 0.0000
vn -0.6428 -0.7660 0.0000
vn 0.6737 0.7390 0.0000
vn 0.5264 0.8502 0.0000
vn 0.1045 -0.9945 0.0000
vn -0.3090 -0.9511 0.0000
vn -0.1838 0.9830 0.0000
vn -0.3612 0.9325 0.0000
vn -0.5264 0.8502 0.0000
vn -0.6737 0.7390 0.0000
vn 0.9659 -0.2588 0.0000
vn 0.7071 -0.7071 0.0000
vn 0.2588 -0.9659 0.0000
vn -0.7980 0.6026 0.0000
vn 0.7071 0.7071 0.0000
vn 0.9659 0.2588 0.0000
vn 1.0000 -0.0000 0.0000
vn -0.8952 0.4457 0.0000
vn -0.9618 0.2737 0.0000
vn -0.9957 0.0923 0.0000
vn -0.9957 -0.0923 -0.0000
vn -0.9618 -0.2737 -0.0000
vn -0.8952 -0.4457 -0.0000
vn 0.2588 0.9659 0.0000
vn -0.7980 -0.6026 -0.0000
vn -0.6737 -0.7390 -0.0000
vn -0.5264 -0.8502 -0.0000
vn -0.3612 -0.9325 -0.0000
vn -0.1838 -0.9830 -0.0000
vn 0.0000 -1.0000 -0.0000
vn 0.1838 -0.9830 -0.0000
vn -0.0151 0.9999 0.0045
vn -0.0101 0.9999 0.0096
vn -0.0126 0.9999 0.0086
vn -0.1313 0.9912 -0.0193
vn 0.0654 0.9973 -0.0319
vn -0.1631 0.9866 0.0002
vn -0.1604 0.9871 0.0009
vn -0.1604 0.9871 0.0012
vn -0.3162 0.9487 -0.0011
vn -0.3740 0.9141 -0.1568
vn -0.4640 0.8857 0.0163
vn -0.3314 0.9434 0.0113
vn -0.3339 0.9426 -0.0004
vn -0.3313 0.9435 0.0099
vn -0.4746 0.8801 -0.0108
vn -0.5555 0.8279 0.0772
vn -0.6885 0.7204 -0.0844
vn -0.6029 0.7977 -0.0159
vn -0.6885 0.7204 0.0843
vn -0.7694 0.6385 -0.0191
vn -0.9222 0.3785 -0.0798
vn -0.8264 0.5553 0.0932
vn -0.9246 0.3795 0.0321
vn -0.9938 -0.0999 -0.0484
vn -0.9828 0.1785 0.0474
vn -0.9985 -0.0255 0.0488
vn -0.9570 0.2614 -0.1255
vn -0.9513 -0.3040 -0.0513
vn -0.9211 -0.3631 -0.1404
vn -0.7661 -0.6380 0.0779
vn -0.6891 -0.7241 -0.0281
vn -0.7698 -0.6380 0.0190
vn -0.6888 -0.7201 -0.0842
vn -0.6035 -0.7972 0.0157
vn -0.3752 -0.9134 0.1575
vn -0.4654 -0.8849 -0.0161
vn -0.3172 -0.9484 0.0011
vn -0.3324 -0.9431 -0.0114
vn -0.3350 -0.9422 0.0003
vn -0.3324 -0.9431 -0.0100
vn -0.4760 -0.8794 0.0107
vn -0.1630 -0.9866 -0.0002
vn -0.1602 -0.9871 -0.0009
vn -0.1603 -0.9871 -0.0012
vn -0.3334 -0.9428 0.0001
vn -0.1610 -0.9870 0.0002
vn -0.1662 -0.9861 -0.0002
vn -0.3368 -0.9416 0.0002
vn -0.3386 -0.9409 -0.0003
vn -0.1644 -0.9864 0.0002
vn -0.1696 -0.9855 -0.0002
vn -0.3421 -0.9396 -0.0002
vn -0.3396 -0.9406 0.0010
vn -0.1670 -0.9860 0.0010
vn -0.1704 -0.9854 0.0014
vn -0.1704 -0.9854 0.0040
vn -0.0052 -1.0000 0.0013
vn 0.0028 -1.0000 -0.0017
vn -0.0045 -1.0000 -0.0001
vn -0.0027 -1.0000 0.0007
vn -0.1584 -0.9874 -0.0033
vn -0.1584 -0.9874 0.0032
vn -0.1584 -0.9874 -0.0040
vn -0.3306 -0.9438 0.0034
vn -0.3305 -0.9438 -0.0042
vn -0.3306 -0.9438 -0.0034
vn -0.1584 -0.9874 0.0040
vn -0.3305 -0.9438 0.0042
vn -0.3178 -0.9482 -0.0034
vn -0.3178 -0.9482 0.0034
vn -0.3180 -0.9481 -0.0042
vn -0.3180 -0.9481 0.0042
vn -0.4444 -0.8958 -0.0012
vn -0.4451 -0.8955 -0.0017
vn -0.4458 -0.8951 -0.0024
vn -0.4983 -0.8664 0.0342
vn -0.4985 -0.8669 -0.0045
vn -0.4442 -0.8959 0.0008
vn -0.5425 -0.8400 -0.0006
vn -0.5427 -0.8400 -0.0010
vn -0.5425 -0.8401 0.0007
vn -0.5427 -0.8400 0.0009
vn -0.4440 -0.8960 0.0009
vn -0.5352 -0.8440 -0.0353
vn -0.6176 -0.7840 -0.0627
vn -0.6182 -0.7834 -0.0634
vn -0.6187 -0.7830 -0.0640
vn -0.6222 -0.7798 -0.0688
vn -0.6221 -0.7798 0.0696
vn -0.7716 -0.6314 0.0769
vn -0.7661 -0.6380 -0.0776
vn -0.8692 -0.4873 0.0837
vn -0.8693 -0.4873 -0.0827
vn -0.9061 -0.4215 -0.0349
vn -0.9067 -0.4218 0.0044
vn -0.8370 -0.5472 -0.0076
vn -0.7716 -0.6314 -0.0774
vn -0.8291 -0.5514 0.0923
vn -0.8334 -0.5462 0.0850
vn -0.8335 -0.5460 0.0848
vn -0.8341 -0.5453 0.0837
vn -0.7448 -0.6673 0.0011
vn -0.7443 -0.6669 -0.0350
vn -0.6434 -0.7655 -0.0010
vn -0.6432 -0.7656 0.0107
vn -0.6433 -0.7656 -0.0003
vn -0.6433 -0.7655 0.0114
vn -0.8284 -0.5509 -0.1008
vn -0.6994 -0.7137 0.0393
vn -0.6453 -0.7639 -0.0027
vn -0.8141 -0.5761 -0.0738
vn -0.7981 -0.6011 0.0426
vn -0.8160 -0.5775 0.0245
vn -0.6994 -0.7136 -0.0394
vn -0.6116 -0.7903 -0.0368
vn -0.7127 -0.7004 0.0397
vn -0.7981 -0.6011 -0.0427
vn -0.6116 -0.7903 0.0368
vn -0.8887 -0.4565 0.0421
vn -0.8863 -0.4609 0.0451
vn -0.8899 -0.4543 0.0407
vn -0.8863 -0.4609 -0.0454
vn -0.8026 -0.5950 0.0430
vn -0.7127 -0.7004 -0.0399
vn -0.6163 -0.7866 -0.0371
vn -0.7090 -0.7041 0.0398
vn -0.8026 -0.5950 -0.0429
vn -0.6163 -0.7866 0.0371
vn -0.4765 -0.8792 0.0007
vn -0.5207 -0.8530 0.0349
vn -0.5244 -0.8507 -0.0349
vn -0.3430 -0.9393 0.0015
vn -0.3430 -0.9393 0.0042
vn -0.5244 -0.8507 0.0348
vn -0.4716 -0.8818 -0.0024
vn -0.8352 -0.5498 -0.0105
vn -0.8326 -0.5481 0.0794
vn -0.7090 -0.7041 -0.0398
vn -0.8444 -0.5249 -0.1071
vn -0.8445 -0.5249 0.1062
vn -0.6126 -0.7895 -0.0370
vn -0.6852 -0.7281 0.0221
vn -0.6851 -0.7281 0.0215
vn -0.6852 -0.7282 0.0170
vn -0.7972 -0.6028 -0.0329
vn -0.6126 -0.7895 0.0370
vn -0.7261 -0.6826 0.0828
vn -0.7975 -0.6031 0.0134
vn -0.6852 -0.7281 0.0163
vn -0.5515 -0.8316 0.0659
vn -0.5516 -0.8315 0.0661
vn -0.5563 -0.8277 0.0729
vn -0.7261 -0.6826 -0.0820
vn -0.5507 -0.8322 0.0646
vn -0.5518 -0.8339 -0.0085
vn -0.5171 -0.8552 -0.0348
vn -0.4692 -0.8831 0.0007
vn -0.8268 -0.5547 -0.0936
vn -0.8271 -0.5549 0.0891
vn -0.5562 -0.8275 -0.0766
vn -0.6888 -0.7200 0.0843
vn -0.8740 -0.4845 0.0361
vn -0.9758 -0.2033 -0.0808
vn -0.9226 -0.3774 0.0795
vn -0.9829 -0.1780 -0.0472
vn -0.9713 0.2351 -0.0367
vn -0.9938 0.1003 0.0486
vn -0.9733 -0.2027 0.1078
vn -0.9992 0.0226 -0.0329
vn -0.9714 0.2351 0.0349
vn -0.9054 0.4231 0.0350
vn -0.9400 0.3391 -0.0377
vn -0.9059 0.4234 -0.0046
vn -0.9398 0.3390 0.0416
vn -0.8326 0.5473 -0.0852
vn -0.8333 0.5464 -0.0840
vn -0.8327 0.5472 -0.0851
vn -0.8362 0.5483 0.0078
vn -0.9725 0.2325 -0.0134
vn -0.9545 0.2920 -0.0607
vn -0.8279 0.5517 0.1006
vn -0.8594 0.5081 0.0580
vn -0.8286 0.5522 -0.0922
vn -0.7447 0.6674 -0.0012
vn -0.6431 0.7657 0.0011
vn -0.6432 0.7656 -0.0108
vn -0.6432 0.7657 0.0004
vn -0.5976 0.8009 0.0367
vn -0.5976 0.8009 -0.0367
vn -0.6993 0.7138 -0.0393
vn -0.8135 0.5768 0.0736
vn -0.6993 0.7138 0.0393
vn -0.5103 0.8593 -0.0347
vn -0.6114 0.7905 -0.0370
vn -0.5103 0.8593 0.0347
vn -0.4572 0.8894 0.0024
vn -0.3296 0.9441 -0.0035
vn -0.3296 0.9441 0.0034
vn -0.3295 0.9442 -0.0043
vn -0.3295 0.9442 0.0042
vn -0.3422 0.9396 -0.0015
vn -0.3422 0.9396 -0.0043
vn -0.3386 0.9409 -0.0011
vn -0.4704 0.8824 0.0024
vn -0.5238 0.8511 0.0352
vn -0.5238 0.8511 -0.0350
vn -0.4754 0.8798 -0.0007
vn -0.3414 0.9399 0.0003
vn -0.6163 0.7866 -0.0373
vn -0.5200 0.8535 -0.0351
vn -0.6163 0.7866 0.0373
vn -0.5200 0.8535 0.0351
vn -0.7090 0.7041 0.0397
vn -0.7090 0.7041 -0.0398
vn -0.6124 0.7897 -0.0373
vn -0.4717 0.8818 -0.0007
vn -0.5162 0.8558 -0.0350
vn -0.6124 0.7897 0.0372
vn -0.5162 0.8558 0.0350
vn -0.6852 0.7281 -0.0164
vn -0.6852 0.7281 -0.0171
vn -0.6851 0.7281 -0.0214
vn -0.6852 0.7280 -0.0220
vn -0.5511 0.8344 0.0086
vn -0.4679 0.8838 -0.0007
vn -0.5508 0.8320 -0.0662
vn -0.5499 0.8327 -0.0650
vn -0.5509 0.8319 -0.0665
vn -0.5557 0.8281 -0.0735
vn -0.7259 0.6828 -0.0826
vn -0.7259 0.6829 0.0819
vn -0.8733 0.4858 -0.0361
vn -0.8267 0.5556 -0.0888
vn -0.8739 0.4861 0.0060
vn -0.8732 0.4872 0.0065
vn -0.8719 0.4897 0.0076
vn -0.7971 0.6037 -0.0134
vn -0.8714 0.4906 0.0079
vn -0.9580 0.2862 -0.0194
vn -0.9575 0.2860 -0.0362
vn -0.8696 0.4896 0.0645
vn -0.9897 0.1381 0.0389
vn -0.9781 0.1853 0.0947
vn -0.8441 0.5257 -0.1059
vn -0.8440 0.5256 0.1067
vn -0.8819 0.4682 -0.0555
vn -0.9771 0.1851 -0.1052
vn -0.9540 0.2992 0.0179
vn -0.8832 0.4689 -0.0021
vn -0.9895 -0.1368 -0.0458
vn -0.9895 0.1370 0.0459
vn -0.9791 -0.1712 0.1098
vn -0.9810 -0.1716 -0.0907
vn -0.9528 0.2988 -0.0547
vn -0.8858 0.4619 -0.0450
vn -0.8892 0.4557 -0.0408
vn -0.8881 0.4576 -0.0421
vn -0.8904 0.4534 -0.0393
vn -0.9809 0.1720 0.0911
vn -0.8858 0.4619 0.0453
vn -0.7129 0.7002 0.0399
vn -0.7129 0.7002 -0.0397
vn -0.7977 0.6015 0.0424
vn -0.8023 0.5954 -0.0427
vn -0.9790 0.1717 -0.1102
vn -0.9559 0.2924 0.0259
vn -0.8911 0.4538 -0.0001
vn -0.8155 0.5782 -0.0244
vn -0.7977 0.6015 -0.0423
vn -0.8608 0.5089 0.0002
vn -0.9562 -0.2916 -0.0259
vn -0.8918 -0.4525 0.0001
vn -0.8911 -0.4521 0.0392
vn -0.9548 -0.2912 0.0604
vn -0.8600 -0.5070 -0.0580
vn -0.8615 -0.5078 -0.0002
vn -0.9530 -0.2979 0.0545
vn -0.9772 -0.1846 0.1047
vn -0.9543 -0.2983 -0.0179
vn -0.9783 -0.1848 -0.0942
vn -0.8826 -0.4669 0.0554
vn -0.8839 -0.4676 0.0021
vn -0.8023 0.5954 0.0427
vn -0.8347 0.5506 0.0105
vn -0.8322 0.5489 -0.0790
vn -0.9996 -0.0229 -0.0150
vn -0.9726 -0.2319 0.0133
vn -0.9992 -0.0229 0.0329
vn -0.9404 -0.3376 -0.0413
vn -0.9405 -0.3377 0.0374
vn -0.9716 -0.2340 -0.0347
vn -0.9731 0.2034 -0.1082
vn -0.7968 0.6034 0.0326
vn -0.9756 0.2040 0.0812
vn -0.3377 0.9412 0.0003
vn -0.3358 0.9419 -0.0003
vn -0.3323 0.9432 -0.0003
vn -0.1699 0.9855 0.0002
vn -0.1646 0.9864 -0.0002
vn -0.1664 0.9861 0.0002
vn -0.1612 0.9869 -0.0002
vn 0.0001 1.0000 -0.0002
vn -0.0051 1.0000 0.0002
vn -0.0024 1.0000 -0.0009
vn -0.0058 1.0000 -0.0014
vn -0.1671 0.9859 -0.0011
vn -0.0022 1.0000 0.0009
vn 0.0008 1.0000 -0.0012
vn 0.1368 0.9906 0.0008
vn 0.1592 0.9872 0.0010
vn 0.1589 0.9873 -0.0014
vn 0.1624 0.9867 -0.0008
vn 0.1623 0.9866 0.0133
vn 0.1624 0.9867 -0.0012
vn 0.2798 0.9601 -0.0016
vn 0.2798 0.9601 -0.0014
vn 0.2798 0.9601 -0.0013
vn 0.3296 0.9440 -0.0144
vn 0.1589 0.9873 -0.0040
vn 0.1711 0.9852 0.0041
vn 0.2749 0.9615 0.0004
vn 0.2749 0.9615 0.0010
vn 0.2749 0.9615 0.0009
vn 0.3296 0.9440 0.0143
vn 0.2798 0.9601 -0.0011
vn 0.2401 0.9707 0.0041
vn 0.2401 0.9707 0.0044
vn 0.2401 0.9707 0.0045
vn 0.1711 0.9852 -0.0141
vn 0.2401 0.9707 0.0047
vn 0.1822 0.9817 0.0553
vn 0.1463 0.9891 0.0164
vn 0.1463 0.9892 -0.0028
vn 0.0152 0.9999 0.0007
vn 0.0072 1.0000 -0.0033
vn 0.0178 0.9998 0.0039
vn 0.0178 0.9997 -0.0176
vn -0.1463 0.9892 -0.0032
vn -0.1463 0.9892 0.0032
vn -0.1464 0.9892 -0.0040
vn -0.1344 0.9909 0.0040
vn -0.1345 0.9909 0.0032
vn -0.1345 0.9909 -0.0032
vn -0.1464 0.9892 0.0040
vn 0.0056 1.0000 -0.0033
vn 0.0061 1.0000 0.0031
vn -0.0058 1.0000 -0.0039
vn 0.0060 1.0000 0.0039
vn -0.1585 0.9873 0.0040
vn -0.1584 0.9874 0.0032
vn -0.1584 0.9874 -0.0032
vn -0.1585 0.9873 -0.0040
vn -0.1344 0.9909 -0.0040
vn -0.1124 0.9936 0.0107
vn 0.0073 1.0000 -0.0060
vn 0.0588 0.9968 -0.0541
vn 0.0588 0.9968 0.0538
vn 0.1659 0.9846 0.0555
vn 0.2865 0.9564 -0.0570
vn 0.2865 0.9564 0.0567
vn 0.1822 0.9817 -0.0553
vn 0.4956 0.8663 0.0626
vn 0.5489 0.8348 -0.0419
vn 0.4964 0.8676 0.0289
vn 0.4122 0.9094 -0.0553
vn 0.3825 0.9230 0.0414
vn 0.6823 0.7286 -0.0602
vn 0.6344 0.7719 0.0414
vn 0.4125 0.9100 0.0430
vn 0.5646 0.8247 -0.0333
vn 0.6734 0.7383 -0.0389
vn 0.5648 0.8250 0.0174
vn 0.7814 0.6231 -0.0342
vn 0.8048 0.5856 0.0968
vn 0.8053 0.5859 -0.0900
vn 0.8654 0.4977 0.0578
vn 0.8666 0.4984 -0.0245
vn 0.6353 0.7714 0.0359
vn 0.7869 0.6161 -0.0345
vn 0.8031 0.5881 0.0959
vn 0.6986 0.7146 -0.0346
vn 0.5610 0.8268 -0.0415
vn 0.5092 0.8585 0.0606
vn 0.8045 0.5891 -0.0758
vn 0.9442 0.3294 -0.0030
vn 0.9033 0.4290 0.0076
vn 0.8915 0.4490 -0.0599
vn 0.9700 0.2430 -0.0047
vn 0.9806 0.1962 0.0000
vn 0.9435 0.3314 0.0032
vn 0.8915 0.4490 0.0608
vn 0.9706 0.2409 0.0044
vn 0.8697 0.4909 -0.0501
vn 0.9008 0.4341 -0.0078
vn 0.8705 0.4914 0.0274
vn 0.9641 0.2648 -0.0191
vn 0.6865 0.7261 0.0389
vn 0.7107 0.6973 0.0933
vn 0.8151 0.5746 -0.0738
vn 0.5853 0.8106 -0.0201
vn 0.5849 0.8100 0.0418
vn 0.8153 0.5747 0.0715
vn 0.7106 0.6961 -0.1020
vn 0.7118 0.6973 0.0843
vn 0.6937 0.7194 0.0351
vn 0.6935 0.7191 0.0443
vn 0.6935 0.7192 0.0431
vn 0.5175 0.8553 -0.0235
vn 0.4312 0.9001 0.0631
vn 0.4314 0.9006 -0.0535
vn 0.2381 0.9712 -0.0121
vn 0.2382 0.9712 -0.0113
vn 0.2383 0.9712 -0.0048
vn 0.3813 0.9243 0.0178
vn 0.1806 0.9812 -0.0681
vn 0.2979 0.9520 -0.0701
vn 0.1806 0.9812 0.0681
vn 0.0008 0.9999 0.0160
vn 0.1368 0.9905 -0.0159
vn -0.0116 0.9999 0.0010
vn -0.0154 0.9999 0.0054
vn -0.0159 0.9999 0.0049
vn 0.1073 0.9942 -0.0046
vn 0.1073 0.9942 -0.0052
vn 0.1073 0.9942 -0.0047
vn 0.1073 0.9942 -0.0040
vn 0.2979 0.9520 0.0704
vn 0.1628 0.9843 -0.0681
vn 0.3666 0.9303 0.0102
vn 0.3667 0.9303 0.0103
vn 0.3615 0.9324 -0.0013
vn 0.3666 0.9303 0.0109
vn 0.2327 0.9725 -0.0110
vn 0.1628 0.9843 0.0681
vn 0.4408 0.8847 -0.1515
vn 0.7292 0.6792 -0.0831
vn 0.5389 0.8391 0.0742
vn -0.4067 -0.9135 -0.0000
vn -0.7431 -0.6691 -0.0000
vn -0.9511 -0.3090 -0.0000
vn 0.6428 0.7660 0.0000
vn 0.8660 0.5000 0.0000
vn 0.9848 0.1737 0.0000
vn 0.9848 -0.1737 0.0000
vn 0.8660 -0.5000 0.0000
vn 0.6428 -0.7660 0.0000
vn -0.9659 -0.2588 0.0000
vn -0.7071 -0.7071 0.0000
vn 0.3420 -0.9397 0.0000
vn -0.2588 0.9659 0.0000
vn -0.0146 -0.9999 -0.0045
vn -0.0097 -0.9999 -0.0096
vn -0.0122 -0.9999 -0.0086
vn -0.1311 -0.9912 0.0194
vn 0.0652 -0.9974 0.0316
vn 0.1617 -0.9845 -0.0676
vn 0.1617 -0.9845 0.0677
vn 0.1066 -0.9943 0.0046
vn 0.1066 -0.9943 0.0040
vn -0.0155 -0.9999 -0.0049
vn 0.2972 -0.9522 0.0710
vn 0.1795 -0.9814 -0.0678
vn 0.2972 -0.9522 -0.0712
vn 0.1066 -0.9943 0.0052
vn -0.0149 -0.9999 -0.0054
vn -0.0112 -0.9999 -0.0010
vn 0.0012 -0.9999 -0.0159
vn 0.1357 -0.9906 0.0157
vn 0.1795 -0.9814 0.0679
vn 0.1611 -0.9868 -0.0132
vn 0.2366 -0.9716 0.0045
vn 0.2368 -0.9716 0.0049
vn 0.2367 -0.9715 0.0114
vn 0.2366 -0.9715 0.0123
vn 0.1357 -0.9908 -0.0008
vn 0.1611 -0.9869 0.0009
vn 0.1581 -0.9874 -0.0009
vn 0.1578 -0.9875 0.0013
vn 0.0005 -1.0000 0.0001
vn 0.1611 -0.9869 0.0012
vn -0.0017 -1.0000 -0.0009
vn 0.0012 -1.0000 0.0011
vn 0.1578 -0.9875 0.0039
vn 0.1696 -0.9855 -0.0040
vn 0.2788 -0.9603 0.0016
vn 0.2788 -0.9603 0.0013
vn 0.3294 -0.9441 0.0145
vn 0.3294 -0.9441 -0.0145
vn 0.2740 -0.9617 -0.0004
vn 0.2740 -0.9617 -0.0010
vn 0.2740 -0.9617 -0.0009
vn 0.2740 -0.9617 -0.0015
vn 0.3815 -0.9243 0.0069
vn 0.4253 -0.9047 -0.0252
vn 0.4253 -0.9045 0.0314
vn 0.5850 -0.8108 0.0200
vn 0.6901 -0.7226 -0.0414
vn 0.5654 -0.8236 -0.0449
vn 0.6503 -0.7587 0.0392
vn 0.6983 -0.7149 -0.0364
vn 0.5089 -0.8580 0.0692
vn 0.7979 -0.5976 0.0792
vn 0.7995 -0.5988 -0.0469
vn 0.7992 -0.5993 -0.0460
vn 0.7953 -0.6051 -0.0366
vn 0.7950 -0.6055 -0.0365
vn 0.9392 -0.3419 0.0329
vn 0.9394 -0.3420 -0.0220
vn 0.8578 -0.5132 0.0294
vn 0.8262 -0.5563 0.0893
vn 0.8261 -0.5562 -0.0899
vn 0.9648 -0.2631 0.0000
vn 0.9275 -0.3725 0.0307
vn 0.7982 -0.6017 -0.0283
vn 0.9012 -0.4232 0.0932
vn 0.6535 -0.7562 0.0326
vn 0.9012 -0.4231 -0.0938
vn 0.6931 -0.7194 -0.0442
vn 0.6932 -0.7194 -0.0431
vn 0.6935 -0.7196 -0.0351
vn 0.6934 -0.7197 -0.0339
vn 0.8212 -0.5636 0.0890
vn 0.8212 -0.5636 -0.0896
vn 0.7289 -0.6796 0.0832
vn 0.5387 -0.8392 -0.0740
vn 0.5697 -0.8205 0.0475
vn 0.3663 -0.9304 -0.0105
vn 0.3663 -0.9304 -0.0106
vn 0.3615 -0.9324 0.0013
vn 0.5176 -0.8556 -0.0015
vn 0.3667 -0.9303 -0.0110
vn 0.4408 -0.8847 0.1514
vn -0.9848 -0.1737 0.0000
vn -0.9848 0.1737 0.0000
vn 0.8090 0.5799 -0.0962
vn 0.9635 0.2546 0.0824
vn 0.7983 0.5987 -0.0650
vn 0.6210 0.7832 0.0301
vn 0.8966 0.4346 -0.0847
vn 0.9775 0.2087 0.0319
vn 0.8073 0.5786 0.1164
vn 0.8964 0.4345 0.0879
vn 0.9371 0.3486 -0.0183
vn 0.9932 0.1161 0.0048
vn 0.9978 0.0670 0.0000
vn 0.9959 -0.0910 0.0000
vn 0.9767 -0.2123 0.0323
vn 0.9580 -0.2696 0.0973
vn 0.7983 -0.5988 0.0650
vn 0.9634 -0.2544 -0.0848
vn 0.8818 -0.4703 0.0355
vn 0.7525 -0.6571 -0.0435
vn 0.6830 -0.7296 0.0343
vn 0.5490 -0.8348 0.0417
vn 0.6209 -0.7833 -0.0301
vn 0.4960 -0.8661 -0.0624
vn 0.6821 -0.7288 0.0601
vn 0.4967 -0.8674 -0.0287
vn 0.6342 -0.7720 -0.0413
vn 0.4127 -0.9098 -0.0430
vn 0.4125 -0.9093 0.0555
vn 0.5646 -0.8247 0.0332
vn 0.6757 -0.7361 0.0403
vn 0.5648 -0.8250 -0.0173
vn 0.8125 -0.5736 0.1037
vn 0.8121 -0.5733 -0.1085
vn 0.7861 -0.6170 0.0371
vn 0.9266 -0.3748 -0.0313
vn 0.8991 -0.4270 -0.0969
vn 0.9787 -0.2033 -0.0299
vn 0.8995 -0.4272 0.0915
vn 0.9088 -0.4172 0.0000
vn 0.8731 -0.4866 -0.0318
vn 0.8733 -0.4867 0.0211
vn 0.9463 -0.3229 0.0166
vn 0.7579 -0.6515 -0.0348
vn 0.7917 -0.6097 0.0377
vn 0.8511 -0.5239 -0.0328
vn 0.6983 -0.7149 0.0346
vn 0.5092 -0.8585 -0.0604
vn 0.6367 -0.7702 -0.0378
vn 0.5609 -0.8268 0.0414
vn 0.4190 -0.9077 0.0229
vn 0.4189 -0.9076 -0.0279
vn 0.3772 -0.9261 0.0076
vn 0.3772 -0.9261 0.0063
vn 0.3772 -0.9261 0.0009
vn 0.3772 -0.9261 -0.0057
vn 0.2388 -0.9711 -0.0047
vn 0.2388 -0.9711 -0.0045
vn 0.2388 -0.9711 -0.0044
vn 0.2388 -0.9711 -0.0043
vn 0.2788 -0.9603 0.0011
vn 0.1696 -0.9854 0.0140
vn 0.1447 -0.9895 0.0026
vn 0.1808 -0.9820 -0.0554
vn 0.1447 -0.9893 -0.0162
vn 0.0073 -1.0000 0.0030
vn 0.0176 -0.9998 -0.0038
vn 0.0151 -0.9999 -0.0007
vn 0.0176 -0.9997 0.0175
vn -0.1466 -0.9892 0.0040
vn -0.1466 -0.9892 0.0032
vn -0.1466 -0.9892 -0.0032
vn -0.1466 -0.9892 -0.0040
vn 0.0055 -1.0000 0.0032
vn -0.1350 -0.9908 -0.0032
vn -0.1349 -0.9908 0.0032
vn -0.1348 -0.9909 -0.0039
vn -0.3026 -0.9531 -0.0032
vn -0.3057 -0.9521 -0.0041
vn -0.3059 -0.9521 -0.0038
vn -0.1348 -0.9909 0.0040
vn -0.3052 -0.9523 -0.0019
vn -0.3017 -0.9534 -0.0046
vn -0.1128 -0.9936 -0.0107
vn 0.0000 0.2588 0.9659
vn 0.2506 0.2506 0.9351
vn 0.2588 -0.0000 0.9659
vn -0.9659 0.2588 0.0000
vn -0.7071 0.7071 0.0000
vn 0.7932 -0.4306 0.4306
vn 0.7933 -0.4306 0.4306
vn 0.9351 -0.2506 0.2506
vn 0.6982 -0.6982 -0.1581
vn 0.4627 -0.6269 0.6269
vn 0.4627 -0.6269 0.6268
vn 0.3653 -0.8562 0.3653
vn 0.0000 -0.9659 0.2588
vn 0.0000 -0.7071 0.7071
vn 0.2506 -0.9351 0.2506
vn -0.2588 -0.9659 0.0000
vn -0.2506 -0.9351 0.2506
vn -0.9351 -0.2506 0.2506
vn -0.7932 -0.4306 0.4306
vn -0.7933 -0.4305 0.4306
vn -0.6982 -0.6982 -0.1581
vn -0.4627 -0.6269 0.6269
vn -0.4627 -0.6269 0.6268
vn -0.3653 -0.8562 0.3653
vn -0.3653 -0.3653 0.8562
vn -0.6982 0.1581 0.6982
vn -0.9659 -0.0000 0.2588
vn -0.7071 -0.0000 0.7071
vn -0.9351 0.2506 0.2506
vn -0.7932 0.4306 0.4306
vn -0.6982 -0.1581 0.6982
vn -0.3653 0.3653 0.8562
vn -0.7932 0.4305 0.4306
vn -0.4627 0.6269 0.6269
vn -0.2506 0.2506 0.9351
vn 0.0000 0.7071 0.7071
vn -0.3653 0.8562 0.3653
vn -0.2506 0.9351 0.2506
vn 0.0000 0.9659 0.2588
vn 0.2506 0.9351 0.2506
vn 0.6982 0.6982 -0.1582
vn 0.8562 0.3653 0.3653
vn 0.9351 0.2506 0.2506
vn 0.6269 0.4627 0.6269
vn 0.4306 0.7933 0.4306
vn 0.4305 0.7933 0.4306
vn 0.4305 0.7933 0.4305
vn 0.3653 0.3653 0.8562
vn -0.1581 0.6982 0.6982
vn 0.9659 -0.0000 0.2588
vn 0.7071 -0.0000 0.7071
vn -0.6982 0.6982 -0.1581
vn 0.9945 0.1045 0.0000
vn 0.5878 0.8090 0.0000
vn -0.2079 0.9781 0.0000
vn -0.5878 0.8090 0.0000
vn 0.2079 0.9781 0.0000
vn -0.9945 0.1045 0.0000
vn 0.8952 0.4457 0.0000
vn 0.7980 0.6026 0.0000
vn 0.9618 0.2737 0.0000
vn 0.9957 -0.0923 -0.0000
vn 0.9618 -0.2737 -0.0000
vn 0.8952 -0.4457 -0.0000
vn 0.7980 -0.6026 -0.0000
vn 0.6737 -0.7390 -0.0000
vn 0.5264 -0.8502 -0.0000
vn 0.3612 -0.9325 -0.0000
vn 0.1659 0.9846 -0.0555
vn 0.2518 0.9672 0.0320
vn 0.0695 0.9970 0.0347
vn 0.4353 0.8978 -0.0667
vn 0.9957 0.0923 0.0000
vn -0.5000 -0.8660 0.0000
vn -0.3420 -0.9397 0.0000
vn 0.9511 -0.3090 -0.0000
vn 0.4067 -0.9135 -0.0000
vn 0.7431 -0.6691 -0.0000
vn 0.3653 -0.3653 0.8562
vn 0.6982 0.1581 0.6982
vn -0.6489 0.7609 0.0000
vn -0.2332 0.9724 0.0000
vn -0.9234 0.3838 0.0000
vn 0.2332 0.9724 0.0000
vn 0.6489 0.7609 0.0000
vn 0.9234 0.3838 0.0000
vn 0.9554 0.2953 0.0000
vn -0.9554 0.2953 0.0000
vn -0.8352 0.5499 0.0000
vn -0.4111 0.9116 0.0000
vn -0.1408 0.9900 0.0000
vn 0.4111 0.9116 0.0000
vn 0.1408 0.9900 0.0000
vn 0.8352 0.5499 0.0000
vn -0.6691 -0.7431 0.0000
vn -0.9135 -0.4067 0.0000
vn 0.2506 -0.2506 0.9351
vn 0.0074 -1.0000 0.0061
vn 0.0693 -0.9970 -0.0348
vn 0.1651 -0.9847 0.0553
vn 0.2510 -0.9675 -0.0320
vn 0.4356 -0.8977 0.0663
vn 0.3830 -0.9228 -0.0414
vn 0.1651 -0.9847 -0.0554
vn 0.2858 -0.9565 0.0581
vn 0.1808 -0.9820 0.0553
vn 0.2858 -0.9566 -0.0576
vn 0.0583 -0.9968 0.0538
vn 0.0583 -0.9969 -0.0535
vn 0.9748 0.2203 -0.0356
vn 0.9926 0.1213 -0.0053
vn 0.9584 0.2697 -0.0936
vn 0.8970 0.4340 0.0839
vn 0.8188 0.5681 0.0832
vn 0.8186 0.5680 -0.0856
vn 0.9359 0.3515 0.0206
vn 0.8973 0.4341 -0.0801
vn 0.4315 -0.9005 0.0534
vn 0.5846 -0.8102 -0.0417
vn 0.4313 -0.9000 -0.0631
vn 0.5175 -0.8554 0.0234
vn 0.3814 -0.9242 -0.0179
vn 0.2312 -0.9728 0.0112
vn 0.6938 0.7193 0.0339
vn 0.5700 0.8203 -0.0476
vn 0.5177 0.8556 0.0016
vn 0.3814 0.9244 -0.0069
vn 0.2749 0.9615 0.0015
vn 0.2381 0.9712 -0.0044
vn 0.9595 0.2636 -0.0993
vn 0.4252 0.9047 0.0253
vn 0.4251 0.9046 -0.0314
vn 0.7098 0.6965 -0.1058
vn 0.5656 0.8235 0.0451
vn 0.6986 0.7146 0.0364
vn 0.8057 0.5855 -0.0895
vn 0.5089 0.8580 -0.0694
vn 0.8068 0.5862 0.0739
vn 0.9663 0.2571 0.0150
vn 0.9608 0.2556 0.1070
vn 0.4189 0.9078 -0.0229
vn 0.4188 0.9076 0.0279
vn 0.3767 0.9263 0.0058
vn 0.3767 0.9263 -0.0010
vn 0.3767 0.9263 -0.0065
vn 0.3767 0.9263 -0.0078
vn 0.6832 0.7295 -0.0344
vn -0.3012 0.9536 0.0035
vn -0.3042 0.9526 0.0042
vn -0.3042 0.9526 0.0039
vn -0.3168 0.9485 0.0042
vn -0.3167 0.9485 0.0034
vn -0.3167 0.9485 -0.0035
vn -0.3168 0.9485 -0.0043
vn -0.4424 0.8968 0.0013
vn -0.4421 0.8970 0.0001
vn -0.4431 0.8965 0.0018
vn -0.4421 0.8970 -0.0010
vn -0.3037 0.9527 0.0021
vn -0.4439 0.8961 0.0024
vn -0.4968 0.8672 -0.0344
vn -0.5414 0.8407 -0.0007
vn -0.5415 0.8407 0.0007
vn -0.5415 0.8407 0.0010
vn -0.5415 0.8407 -0.0010
vn -0.6186 0.7857 -0.0006
vn -0.6178 0.7837 0.0642
vn -0.6183 0.7833 0.0647
vn -0.6173 0.7841 0.0634
vn -0.7713 0.6319 -0.0766
vn -0.6216 0.7803 0.0692
vn -0.7713 0.6318 0.0770
vn -0.7443 0.6670 0.0350
vn -0.6431 0.7657 -0.0115
vn -0.8686 0.4886 0.0826
vn -0.8685 0.4885 -0.0837
vn -0.7653 0.6390 0.0774
vn -0.6216 0.7802 -0.0701
vn -0.7652 0.6390 -0.0777
vn -0.9204 0.3646 0.1415
vn -0.9508 0.3055 0.0518
vn -0.9985 0.0256 -0.0490
vn -0.9573 -0.2608 0.1249
vn -0.6886 0.7246 0.0276
vn -0.4939 0.8685 -0.0416
vn -0.5339 0.8448 0.0354
vn -0.3003 0.9538 0.0046
vn -0.1706 0.9853 -0.0014
vn -0.1706 0.9853 -0.0041
vn -0.6114 0.7905 0.0371
vn -0.4968 0.8672 0.0344
vn -0.9897 -0.1378 -0.0387
vn -0.9996 0.0226 0.0151
vn -0.9582 -0.2854 0.0192
vn -0.9578 -0.2852 0.0360
vn -0.8725 -0.4885 -0.0075
vn -0.8746 -0.4849 -0.0060
vn -0.8740 -0.4859 -0.0064
vn -0.8721 -0.4893 -0.0078
vn -0.8703 -0.4883 -0.0645
vn -0.9251 -0.3784 -0.0319
vn -0.5171 -0.8552 0.0348
vn -0.4729 -0.8811 0.0007
vn -0.5207 -0.8530 -0.0348
vn -0.5113 -0.8587 -0.0345
vn -0.5116 -0.8592 0.0046
vn -0.9715 -0.2340 0.0364
vn -0.6189 -0.7855 0.0005
vn -0.4951 -0.8678 0.0420
vn 0.1838 0.9830 0.0000
vn 0.3612 0.9325 0.0000
usemtl Default_OBJ.331
s 1
f 1//1 2//1 3//1
f 3//2 2//2 4//2
f 5//3 3//3 4//3
f 6//1 3//1 7//1
f 7//3 3//3 5//3
f 1//1 3//1 6//1
f 6//1 7//1 8//1
f 1//4 6//4 9//4
f 6//5 8//5 9//5
f 8//1 7//1 10//1
f 9//5 8//5 11//5
f 8//1 10//1 12//1
f 8//6 12//6 13//6
f 11//6 8//6 13//6
f 10//1 14//1 12//1
f 14//7 10//7 15//7
f 10//8 7//8 15//8
f 16//9 15//9 13//9
f 16//7 14//7 15//7
f 15//8 7//8 5//8
f 5//9 11//9 15//9
f 15//9 11//9 13//9
f 17//10 14//10 16//10
f 18//10 17//10 16//10
f 18//9 16//9 19//9
f 16//9 13//9 19//9
f 19//10 20//10 21//10
f 13//11 20//11 19//11
f 19//9 21//9 22//9
f 18//9 19//9 22//9
f 23//12 22//12 24//12
f 25//13 24//13 22//13
f 26//9 27//9 22//9
f 27//9 28//9 22//9
f 21//9 26//9 22//9
f 29//9 22//9 30//9
f 30//9 22//9 31//9
f 32//9 22//9 33//9
f 34//9 33//9 22//9
f 35//9 18//9 22//9
f 31//9 22//9 36//9
f 28//9 34//9 22//9
f 36//9 22//9 37//9
f 23//12 35//12 22//12
f 25//14 22//14 38//14
f 22//14 29//14 38//14
f 37//9 22//9 32//9
f 39//7 28//7 40//7
f 40//15 28//15 41//15
f 34//7 28//7 39//7
f 28//15 27//15 41//15
f 41//16 27//16 42//16
f 41//1 42//1 43//1
f 40//1 41//1 43//1
f 27//16 26//16 42//16
f 42//1 44//1 43//1
f 42//17 26//17 45//17
f 45//1 44//1 42//1
f 46//1 44//1 45//1
f 26//17 47//17 45//17
f 45//18 47//18 46//18
f 48//1 44//1 46//1
f 49//1 48//1 46//1
f 47//18 50//18 46//18
f 46//19 50//19 49//19
f 50//19 51//19 49//19
f 49//20 51//20 52//20
f 52//1 53//1 49//1
f 49//1 53//1 48//1
f 54//1 55//1 53//1
f 53//3 55//3 56//3
f 48//8 53//8 57//8
f 57//8 53//8 56//8
f 54//1 53//1 52//1
f 56//3 55//3 58//3
f 58//9 59//9 56//9
f 56//9 51//9 57//9
f 56//9 60//9 51//9
f 56//9 59//9 60//9
f 51//20 60//20 52//20
f 52//21 60//21 54//21
f 60//21 59//21 54//21
f 59//4 61//4 54//4
f 62//9 59//9 58//9
f 62//9 61//9 59//9
f 62//22 63//22 64//22
f 58//2 63//2 62//2
f 64//9 61//9 62//9
f 63//22 65//22 64//22
f 64//23 65//23 66//23
f 67//9 64//9 66//9
f 67//9 68//9 64//9
f 64//9 68//9 61//9
f 69//9 68//9 67//9
f 69//9 70//9 68//9
f 61//24 68//24 71//24
f 68//25 70//25 72//25
f 71//24 68//24 72//24
f 72//1 73//1 74//1
f 72//1 74//1 65//1
f 75//1 73//1 72//1
f 72//1 65//1 71//1
f 72//25 70//25 75//25
f 70//26 76//26 75//26
f 75//26 76//26 77//26
f 77//1 78//1 75//1
f 78//1 79//1 75//1
f 75//1 80//1 73//1
f 79//1 80//1 75//1
f 79//27 81//27 80//27
f 73//1 80//1 82//1
f 81//28 83//28 80//28
f 80//28 83//28 84//28
f 80//1 84//1 82//1
f 73//22 82//22 85//22
f 85//23 82//23 86//23
f 82//1 84//1 87//1
f 82//23 87//23 86//23
f 86//29 87//29 88//29
f 84//1 89//1 87//1
f 89//1 90//1 87//1
f 87//1 90//1 91//1
f 87//29 91//29 88//29
f 88//30 91//30 92//30
f 90//1 93//1 91//1
f 91//1 94//1 95//1
f 93//1 94//1 91//1
f 91//30 95//30 92//30
f 90//16 96//16 93//16
f 96//31 97//31 93//31
f 93//31 97//31 94//31
f 97//9 88//9 92//9
f 97//9 96//9 88//9
f 98//9 97//9 92//9
f 97//32 98//32 94//32
f 98//9 92//9 99//9
f 100//9 98//9 99//9
f 94//32 98//32 101//32
f 98//33 100//33 101//33
f 100//34 102//34 103//34
f 101//33 100//33 103//33
f 102//9 100//9 104//9
f 104//9 100//9 99//9
f 104//9 105//9 106//9
f 104//9 107//9 105//9
f 104//35 106//35 108//35
f 109//36 104//36 108//36
f 102//9 104//9 110//9
f 104//9 99//9 107//9
f 110//36 104//36 109//36
f 111//37 110//37 109//37
f 109//1 112//1 111//1
f 113//1 112//1 109//1
f 114//1 113//1 109//1
f 108//1 114//1 109//1
f 103//1 114//1 108//1
f 103//34 102//34 114//34
f 102//38 115//38 114//38
f 114//38 115//38 116//38
f 116//1 117//1 114//1
f 117//1 113//1 114//1
f 113//39 117//39 118//39
f 118//40 117//40 119//40
f 120//1 121//1 117//1
f 117//40 121//40 119//40
f 120//1 117//1 116//1
f 121//41 122//41 119//41
f 119//41 122//41 123//41
f 123//9 124//9 119//9
f 119//9 125//9 126//9
f 119//9 124//9 125//9
f 119//9 126//9 118//9
f 118//9 126//9 115//9
f 115//42 126//42 116//42
f 116//42 126//42 120//42
f 126//43 125//43 120//43
f 125//44 124//44 127//44
f 127//44 124//44 128//44
f 124//45 129//45 128//45
f 123//9 129//9 124//9
f 128//45 129//45 130//45
f 129//46 131//46 130//46
f 123//9 131//9 129//9
f 130//46 131//46 132//46
f 133//9 131//9 123//9
f 131//47 134//47 132//47
f 133//9 134//9 131//9
f 123//35 135//35 133//35
f 135//36 136//36 133//36
f 133//36 136//36 137//36
f 137//9 134//9 133//9
f 136//37 138//37 137//37
f 139//9 140//9 137//9
f 137//9 140//9 134//9
f 137//37 138//37 141//37
f 139//9 137//9 141//9
f 142//9 139//9 141//9
f 139//48 142//48 143//48
f 139//9 144//9 140//9
f 144//39 139//39 145//39
f 145//39 139//39 143//39
f 146//1 143//1 136//1
f 136//1 143//1 138//1
f 143//48 142//48 147//48
f 143//1 147//1 138//1
f 145//1 143//1 146//1
f 146//1 136//1 148//1
f 148//49 140//49 146//49
f 140//50 149//50 146//50
f 150//1 145//1 146//1
f 151//1 150//1 146//1
f 146//50 149//50 151//50
f 149//51 152//51 151//51
f 151//51 152//51 153//51
f 154//1 150//1 151//1
f 153//1 154//1 151//1
f 152//52 155//52 153//52
f 156//1 154//1 153//1
f 157//1 156//1 153//1
f 153//52 155//52 157//52
f 155//53 158//53 157//53
f 157//53 158//53 159//53
f 159//1 156//1 157//1
f 158//54 160//54 159//54
f 161//1 162//1 159//1
f 159//54 160//54 161//54
f 162//1 156//1 159//1
f 163//9 160//9 158//9
f 163//9 164//9 160//9
f 164//9 165//9 160//9
f 160//55 165//55 161//55
f 166//9 163//9 158//9
f 167//56 163//57 168//58
f 168//59 163//59 166//59
f 167//60 164//60 163//60
f 166//9 155//9 152//9
f 166//9 158//9 155//9
f 169//61 168//62 166//63
f 170//64 169//64 166//64
f 171//9 166//9 152//9
f 170//65 166//65 171//65
f 170//66 171//66 172//66
f 170//67 173//68 169//69
f 170//70 172//70 173//70
f 172//71 174//71 173//71
f 175//72 174//72 172//72
f 172//73 171//73 176//73
f 175//74 172//74 176//74
f 175//75 176//75 177//75
f 178//76 179//76 175//76
f 175//77 179//77 174//77
f 178//78 175//78 177//78
f 178//79 180//79 181//79
f 178//80 181//80 179//80
f 178//81 182//81 180//81
f 178//82 177//82 182//82
f 183//83 180//83 182//83
f 184//9 182//9 177//9
f 185//9 182//9 184//9
f 185//9 186//9 182//9
f 183//84 182//84 186//84
f 187//85 183//85 186//85
f 187//86 186//86 188//86
f 189//9 188//9 186//9
f 189//9 186//9 185//9
f 189//35 185//35 190//35
f 191//35 189//35 190//35
f 192//9 188//9 189//9
f 192//36 189//36 193//36
f 193//36 189//36 191//36
f 194//1 191//1 190//1
f 195//1 191//1 194//1
f 195//1 193//1 191//1
f 196//87 195//87 194//87
f 197//88 195//88 196//88
f 198//1 193//1 195//1
f 197//89 198//89 195//89
f 199//1 193//1 198//1
f 200//90 199//90 198//90
f 200//91 198//91 197//91
f 200//92 201//92 199//92
f 200//93 202//94 201//95
f 200//96 197//96 202//96
f 201//97 203//98 199//99
f 201//95 202//94 204//100
f 205//101 203//98 201//97
f 205//101 201//97 204//102
f 206//103 204//100 207//104
f 207//104 204//100 202//94
f 205//101 204//102 208//105
f 206//106 208//105 204//102
f 206//103 207//104 209//107
f 206//103 209//107 210//108
f 211//109 208//105 206//106
f 211//109 206//106 210//110
f 212//111 211//109 210//110
f 211//112 213//113 208//114
f 211//112 214//115 213//113
f 212//116 214//117 211//118
f 212//119 210//120 215//121
f 212//116 216//122 214//117
f 217//123 212//119 215//121
f 217//124 216//125 212//126
f 217//124 218//127 216//125
f 219//128 218//129 217//130
f 219//131 217//131 220//131
f 217//132 215//132 220//132
f 219//128 221//133 218//129
f 219//134 220//135 222//136
f 219//134 222//136 221//137
f 218//129 221//133 223//138
f 187//139 223//139 221//139
f 222//140 224//141 221//142
f 225//143 221//142 224//141
f 187//144 221//144 225//144
f 225//145 224//145 226//145
f 187//146 225//146 183//146
f 183//147 225//147 180//147
f 225//148 226//148 180//148
f 226//149 227//149 180//149
f 226//150 228//150 227//150
f 226//151 229//151 228//151
f 224//152 229//152 226//152
f 230//153 231//154 229//155
f 231//154 228//156 229//155
f 230//157 229//157 232//157
f 224//158 232//158 229//158
f 230//159 232//160 220//161
f 224//162 220//161 232//160
f 230//163 233//163 231//163
f 230//164 234//164 235//164
f 230//165 220//165 234//165
f 230//166 235//166 233//166
f 236//167 237//167 235//167
f 237//168 233//168 235//168
f 234//169 236//169 235//169
f 238//170 239//170 236//170
f 236//171 239//171 240//171
f 236//172 240//172 237//172
f 234//173 238//173 236//173
f 237//174 240//175 241//176
f 240//177 242//177 241//177
f 240//178 243//178 242//178
f 240//179 239//179 243//179
f 244//180 245//180 243//180
f 243//181 245//181 246//181
f 243//182 246//182 242//182
f 244//183 243//183 239//183
f 247//184 209//184 244//184
f 244//185 209//185 245//185
f 247//186 244//186 239//186
f 247//187 210//108 209//107
f 247//187 215//188 210//108
f 238//189 247//189 239//189
f 238//190 215//190 247//190
f 242//191 246//191 248//191
f 249//192 248//192 246//192
f 245//193 249//193 246//193
f 249//194 250//194 251//194
f 249//195 251//195 248//195
f 252//196 253//196 249//196
f 249//197 253//198 254//199
f 249//200 254//200 250//200
f 245//201 252//201 249//201
f 255//202 256//202 254//202
f 256//203 250//203 254//203
f 255//204 254//199 253//198
f 255//205 202//206 257//207
f 255//208 257//208 256//208
f 258//209 202//206 255//205
f 258//210 255//210 253//210
f 207//211 258//211 253//211
f 207//212 202//212 258//212
f 257//213 196//213 259//213
f 257//214 259//214 256//214
f 257//215 202//215 197//215
f 257//216 197//216 196//216
f 256//217 259//217 260//217
f 260//218 259//218 261//218
f 196//219 262//219 259//219
f 261//220 259//220 262//220
f 261//221 263//221 264//221
f 261//222 262//222 263//222
f 260//223 261//223 265//223
f 261//224 266//224 265//224
f 261//225 264//225 266//225
f 264//226 263//226 267//226
f 264//227 268//227 266//227
f 264//228 267//228 268//228
f 269//229 266//229 268//229
f 269//230 268//231 270//232
f 267//233 270//233 268//233
f 269//234 271//234 266//234
f 269//235 272//235 271//235
f 269//236 273//236 274//236
f 269//237 274//237 272//237
f 269//230 270//232 273//238
f 273//239 270//239 275//239
f 273//240 275//241 276//242
f 277//243 273//243 278//243
f 273//244 276//244 278//244
f 277//245 279//245 273//245
f 273//246 279//246 274//246
f 280//247 279//247 277//247
f 277//248 278//248 281//248
f 280//249 277//249 282//249
f 282//250 277//250 281//250
f 278//251 283//251 281//251
f 284//252 281//253 283//254
f 284//252 285//255 281//253
f 286//256 281//257 285//258
f 286//259 282//259 281//259
f 287//260 288//260 286//260
f 286//261 288//261 282//261
f 287//262 286//262 289//262
f 286//256 285//258 289//263
f 290//264 288//264 287//264
f 291//265 287//265 289//265
f 291//266 290//266 287//266
f 292//267 291//267 289//267
f 293//268 294//268 291//268
f 291//269 294//269 290//269
f 293//270 291//270 292//270
f 295//271 292//271 289//271
f 295//272 296//272 292//272
f 293//273 292//273 296//273
f 297//274 296//274 295//274
f 298//275 299//276 296//277
f 293//278 296//277 299//276
f 298//279 296//279 297//279
f 297//280 295//280 173//280
f 298//281 297//282 173//283
f 174//284 298//281 173//283
f 300//285 299//285 298//285
f 300//286 298//286 174//286
f 301//287 300//287 179//287
f 300//288 174//288 179//288
f 301//289 302//290 300//291
f 300//292 303//292 299//292
f 300//291 302//290 303//293
f 301//294 304//294 302//294
f 305//295 302//295 304//295
f 305//296 303//296 302//296
f 305//297 304//297 306//297
f 305//298 306//298 307//298
f 305//299 308//299 293//299
f 305//300 293//300 303//300
f 305//301 307//301 308//301
f 309//302 307//302 306//302
f 309//303 310//303 307//303
f 310//304 308//304 307//304
f 309//305 241//305 311//305
f 309//306 311//306 312//306
f 313//307 309//307 306//307
f 313//308 241//308 309//308
f 309//309 312//309 310//309
f 314//310 312//311 315//312
f 316//313 315//312 312//311
f 311//314 316//314 312//314
f 310//315 312//315 314//315
f 290//316 314//316 288//316
f 314//317 280//317 288//317
f 314//318 315//318 280//318
f 310//319 314//319 290//319
f 311//320 271//320 316//320
f 316//321 271//321 272//321
f 316//322 272//322 315//322
f 315//323 274//323 279//323
f 315//324 279//324 280//324
f 315//325 272//325 274//325
f 313//326 306//326 317//326
f 237//327 313//327 317//327
f 237//174 241//176 313//328
f 231//329 317//329 306//329
f 231//330 233//330 317//330
f 237//331 317//331 233//331
f 242//332 311//332 241//332
f 311//333 318//333 271//333
f 242//334 318//334 311//334
f 251//335 271//335 318//335
f 251//336 318//336 248//336
f 242//337 248//337 318//337
f 310//338 290//338 294//338
f 310//339 294//339 308//339
f 293//340 308//340 294//340
f 306//341 304//341 319//341
f 231//342 306//342 319//342
f 181//343 319//343 304//343
f 231//344 319//344 228//344
f 227//345 228//345 319//345
f 227//346 319//346 181//346
f 181//347 304//347 301//347
f 293//348 299//348 303//348
f 181//349 301//349 179//349
f 295//350 320//351 321//352
f 295//350 289//263 320//351
f 295//350 321//352 173//68
f 320//353 322//354 321//355
f 169//69 173//68 321//352
f 169//61 321//355 323//356
f 323//356 321//355 322//354
f 324//357 322//358 325//359
f 326//360 325//359 322//358
f 320//353 326//361 322//354
f 323//362 322//358 324//357
f 323//362 324//357 327//363
f 324//364 328//364 327//364
f 324//365 325//366 329//367
f 324//368 330//368 328//368
f 324//365 329//367 330//369
f 329//370 331//371 332//372
f 329//373 332//373 333//373
f 329//367 325//366 334//374
f 329//375 334//375 331//375
f 329//376 335//377 330//378
f 329//379 333//379 335//379
f 331//371 336//380 332//372
f 331//381 337//382 336//383
f 334//384 337//384 331//384
f 338//385 336//383 337//382
f 339//386 338//386 337//386
f 339//387 337//387 340//387
f 334//388 340//388 337//388
f 334//389 341//390 340//391
f 341//392 339//392 340//392
f 341//393 342//394 343//395
f 341//396 343//397 344//398
f 341//393 345//399 342//394
f 341//400 344//400 339//400
f 334//389 345//401 341//390
f 326//360 345//402 325//359
f 334//389 325//403 345//401
f 326//404 284//405 345//406
f 284//405 342//407 345//406
f 343//397 156//408 344//398
f 344//409 156//409 162//409
f 346//410 344//410 162//410
f 347//411 344//411 346//411
f 339//412 344//412 347//412
f 347//413 346//413 348//413
f 347//414 348//414 349//414
f 338//415 347//415 349//415
f 339//416 347//416 338//416
f 350//417 349//417 351//417
f 351//418 349//418 352//418
f 353//419 349//419 350//419
f 338//420 349//420 353//420
f 348//421 352//421 349//421
f 353//422 350//422 354//422
f 353//423 354//423 355//423
f 338//424 353//424 356//424
f 353//425 355//425 356//425
f 357//426 358//426 355//426
f 358//427 356//427 355//427
f 359//428 355//428 354//428
f 357//429 355//429 360//429
f 359//430 360//430 355//430
f 357//431 361//431 362//431
f 357//432 360//432 361//432
f 363//433 358//433 357//433
f 363//434 357//434 362//434
f 363//435 364//435 365//435
f 363//436 365//436 366//436
f 363//437 333//437 358//437
f 363//438 366//438 333//438
f 363//439 362//439 364//439
f 364//440 361//440 367//440
f 364//441 362//441 361//441
f 364//442 367//442 365//442
f 368//443 367//443 369//443
f 369//444 367//444 370//444
f 368//445 371//445 367//445
f 371//446 365//446 367//446
f 361//447 370//447 367//447
f 372//448 373//448 368//448
f 368//449 373//449 371//449
f 372//450 368//450 374//450
f 368//451 369//451 374//451
f 372//452 375//452 376//452
f 372//453 376//453 373//453
f 372//454 374//454 375//454
f 377//455 376//455 375//455
f 378//456 377//456 375//456
f 379//457 375//457 374//457
f 378//458 375//458 379//458
f 378//459 379//459 380//459
f 381//460 378//461 380//462
f 381//463 382//463 378//463
f 383//464 378//464 382//464
f 383//465 377//465 378//465
f 383//466 328//467 384//468
f 383//469 384//469 377//469
f 385//470 328//470 383//470
f 386//471 383//471 382//471
f 386//472 385//472 383//472
f 323//473 327//473 385//473
f 385//474 327//474 328//474
f 323//475 385//476 168//58
f 387//477 168//58 385//476
f 387//478 385//479 386//480
f 387//477 167//56 168//58
f 387//478 386//480 167//481
f 388//482 386//482 382//482
f 167//483 386//483 388//483
f 389//484 388//485 382//486
f 389//484 390//487 388//485
f 388//488 390//488 164//488
f 167//489 388//489 164//489
f 390//9 391//9 392//9
f 390//9 392//9 165//9
f 164//9 390//9 165//9
f 389//490 391//490 390//490
f 391//9 393//9 392//9
f 394//9 395//9 391//9
f 396//491 394//491 391//491
f 391//9 397//9 393//9
f 389//492 396//492 391//492
f 391//9 398//9 397//9
f 391//9 395//9 398//9
f 395//19 399//19 398//19
f 399//19 400//19 398//19
f 398//9 401//9 397//9
f 398//17 400//17 402//17
f 398//9 402//9 401//9
f 401//9 403//9 404//9
f 401//54 404//54 405//54
f 406//493 401//493 405//493
f 397//493 401//493 406//493
f 402//9 403//9 401//9
f 402//9 407//9 403//9
f 403//494 407//494 408//494
f 409//495 403//495 408//495
f 404//495 403//495 409//495
f 408//1 405//1 409//1
f 405//54 404//54 409//54
f 408//494 407//494 410//494
f 408//1 411//1 405//1
f 410//1 411//1 408//1
f 407//54 412//54 410//54
f 410//54 412//54 413//54
f 413//1 414//1 410//1
f 414//1 415//1 410//1
f 416//1 411//1 410//1
f 415//1 416//1 410//1
f 417//1 415//1 418//1
f 418//1 415//1 414//1
f 416//15 415//15 419//15
f 419//496 415//496 420//496
f 415//496 417//496 420//496
f 421//1 417//1 418//1
f 421//1 422//1 417//1
f 417//497 422//497 420//497
f 421//1 423//1 422//1
f 420//497 422//497 424//497
f 422//498 423//498 424//498
f 424//9 425//9 420//9
f 424//498 423//498 426//498
f 426//9 425//9 424//9
f 423//499 427//499 426//499
f 428//9 429//9 426//9
f 426//9 429//9 425//9
f 426//499 427//499 428//499
f 430//9 429//9 428//9
f 428//500 427//500 430//500
f 427//500 431//500 430//500
f 430//501 431//501 432//501
f 432//9 433//9 430//9
f 430//9 433//9 429//9
f 434//502 435//502 433//502
f 433//502 435//502 429//502
f 432//9 436//9 433//9
f 436//503 434//503 433//503
f 437//1 438//1 434//1
f 437//503 434//503 436//503
f 434//1 438//1 431//1
f 434//1 431//1 435//1
f 431//501 438//501 432//501
f 432//504 438//504 439//504
f 438//504 440//504 439//504
f 437//1 440//1 438//1
f 439//54 440//54 441//54
f 440//54 442//54 441//54
f 443//1 442//1 440//1
f 444//1 440//1 437//1
f 443//1 440//1 444//1
f 443//1 445//1 442//1
f 446//1 443//1 447//1
f 448//505 443//505 446//505
f 447//1 443//1 449//1
f 449//1 443//1 450//1
f 451//1 443//1 444//1
f 450//1 443//1 451//1
f 443//1 452//1 453//1
f 443//1 453//1 445//1
f 448//16 454//16 443//16
f 443//1 454//1 452//1
f 455//506 452//507 203//508
f 203//509 452//509 199//509
f 452//1 454//1 199//1
f 455//510 453//510 452//510
f 456//511 453//511 455//511
f 457//512 456//512 455//512
f 458//513 457//513 455//514
f 458//515 455//506 203//508
f 459//516 460//516 457//516
f 459//517 457//517 461//517
f 457//518 460//518 456//518
f 458//513 461//519 457//513
f 461//520 203//508 205//521
f 461//522 205//522 462//522
f 461//523 462//523 463//523
f 459//524 461//524 463//524
f 458//515 203//508 461//520
f 464//525 465//525 463//525
f 465//526 466//527 463//528
f 459//529 463//528 466//527
f 464//530 463//530 462//530
f 467//531 464//532 213//533
f 464//534 208//114 213//113
f 467//531 465//535 464//532
f 464//534 205//536 208//114
f 464//534 462//537 205//536
f 468//538 467//531 213//533
f 468//539 469//539 467//539
f 467//540 469//541 470//541
f 467//542 470//542 471//542
f 467//543 471//543 472//543
f 467//544 472//545 465//546
f 472//545 466//547 465//546
f 472//548 473//548 466//548
f 474//549 473//549 472//549
f 474//550 472//550 471//550
f 474//551 475//551 473//551
f 476//552 475//552 474//552
f 477//553 474//553 471//553
f 477//554 476//554 474//554
f 477//555 478//555 479//555
f 477//556 471//556 478//556
f 480//557 477//557 479//557
f 480//558 481//559 477//560
f 477//560 481//559 476//561
f 480//562 482//562 481//562
f 482//563 483//563 481//563
f 476//564 481//564 483//564
f 476//565 483//565 475//565
f 484//566 475//566 483//566
f 482//567 485//567 483//567
f 484//568 483//568 485//568
f 484//569 486//569 475//569
f 484//570 485//570 486//570
f 487//571 475//571 486//571
f 488//572 486//572 485//572
f 487//573 486//574 489//575
f 489//575 486//574 490//576
f 488//577 490//577 486//577
f 488//578 491//578 490//578
f 490//579 491//579 492//579
f 493//580 490//580 492//580
f 493//581 489//581 490//581
f 493//582 456//583 460//584
f 493//585 460//585 489//585
f 493//582 445//586 456//583
f 493//587 492//587 445//587
f 494//1 445//1 492//1
f 495//1 492//1 491//1
f 494//1 492//1 495//1
f 494//26 495//26 496//26
f 496//25 495//25 497//25
f 495//1 491//1 498//1
f 495//25 498//25 497//25
f 499//9 497//9 500//9
f 500//9 497//9 501//9
f 499//9 496//9 497//9
f 497//588 498//588 501//588
f 500//9 501//9 502//9
f 498//588 503//588 501//588
f 501//589 503//589 502//589
f 503//589 504//589 502//589
f 500//9 502//9 394//9
f 394//9 502//9 395//9
f 502//20 504//20 395//20
f 503//1 505//1 504//1
f 504//20 399//20 395//20
f 504//1 506//1 399//1
f 504//1 505//1 506//1
f 351//590 506//590 507//590
f 507//591 506//591 505//591
f 351//592 508//592 506//592
f 399//1 506//1 508//1
f 351//593 352//593 508//593
f 508//1 352//1 400//1
f 399//1 508//1 400//1
f 507//594 509//594 354//594
f 507//595 505//595 509//595
f 351//596 507//596 354//596
f 359//597 354//597 509//597
f 359//598 509//598 370//598
f 509//599 505//599 370//599
f 369//600 370//600 505//600
f 369//600 505//600 500//600
f 482//601 500//601 505//601
f 482//601 505//601 485//601
f 488//602 485//602 505//602
f 498//1 505//1 503//1
f 498//1 491//1 505//1
f 488//603 505//603 491//603
f 510//9 496//9 499//9
f 511//604 510//604 499//604
f 512//605 499//605 500//605
f 512//606 513//606 499//606
f 511//607 499//607 513//607
f 511//608 513//608 514//608
f 511//609 515//609 516//609
f 511//610 516//610 510//610
f 511//611 514//611 515//611
f 514//612 513//612 517//612
f 514//613 517//613 515//613
f 517//614 513//614 518//614
f 517//615 519//615 520//615
f 517//616 520//616 515//616
f 517//617 518//617 519//617
f 521//618 522//618 518//618
f 519//619 518//619 522//619
f 523//620 524//620 518//620
f 521//621 518//621 524//621
f 523//622 518//622 513//622
f 523//623 525//623 524//623
f 523//624 513//624 525//624
f 512//625 500//625 525//625
f 525//601 500//601 482//601
f 526//567 525//567 482//567
f 526//567 524//567 525//567
f 512//626 525//626 513//626
f 526//627 527//627 524//627
f 526//628 480//628 479//628
f 526//629 479//629 527//629
f 526//630 482//630 480//630
f 528//631 527//631 479//631
f 521//632 527//632 528//632
f 521//633 524//633 527//633
f 528//634 479//634 478//634
f 528//635 478//635 471//635
f 521//636 528//636 522//636
f 528//637 471//637 522//637
f 519//638 522//638 470//638
f 522//639 471//639 470//639
f 520//640 519//641 529//642
f 519//641 470//643 529//642
f 520//644 529//645 530//646
f 469//647 530//646 529//645
f 470//541 469//541 529//648
f 468//649 530//649 469//649
f 468//650 531//650 530//650
f 520//651 530//651 532//651
f 532//652 530//652 531//652
f 533//653 531//654 468//655
f 532//656 531//656 533//656
f 534//657 533//658 216//659
f 533//658 214//660 216//659
f 533//653 468//655 214//115
f 532//661 533//661 535//661
f 534//662 535//663 533//664
f 534//665 216//666 218//667
f 534//662 536//668 535//663
f 534//665 223//669 536//670
f 534//665 218//667 223//669
f 537//9 536//9 192//9
f 192//9 536//9 223//9
f 538//9 539//9 536//9
f 535//671 536//671 539//671
f 538//9 536//9 537//9
f 538//9 540//9 541//9
f 538//9 542//9 540//9
f 538//9 537//9 542//9
f 538//9 543//9 544//9
f 538//9 545//9 543//9
f 538//9 29//9 539//9
f 538//9 541//9 545//9
f 29//672 538//672 546//672
f 538//673 547//673 546//673
f 547//674 538//674 548//674
f 538//674 35//674 548//674
f 538//9 544//9 549//9
f 538//9 549//9 35//9
f 544//502 550//502 549//502
f 550//4 551//4 549//4
f 549//4 551//4 552//4
f 549//9 552//9 35//9
f 552//675 551//675 553//675
f 552//9 553//9 554//9
f 552//9 554//9 35//9
f 555//4 554//4 556//4
f 554//502 557//502 556//502
f 553//9 557//9 554//9
f 554//9 555//9 35//9
f 558//675 555//675 559//675
f 559//4 555//4 556//4
f 555//9 558//9 35//9
f 560//675 558//675 559//675
f 558//9 561//9 35//9
f 561//676 558//676 560//676
f 560//1 559//1 562//1
f 563//1 560//1 562//1
f 563//676 561//676 560//676
f 551//1 550//1 562//1
f 556//1 551//1 562//1
f 564//41 565//41 562//41
f 565//35 566//35 562//35
f 567//1 563//1 562//1
f 567//1 562//1 568//1
f 550//1 569//1 562//1
f 564//41 562//41 569//41
f 559//1 556//1 562//1
f 566//35 568//35 562//35
f 570//677 566//677 571//678
f 571//679 566//679 565//679
f 570//677 572//677 566//677
f 566//36 573//36 574//36
f 572//680 573//680 566//680
f 566//36 574//36 568//36
f 567//1 568//1 574//1
f 573//37 567//37 574//37
f 570//681 575//681 572//682
f 572//683 575//683 573//683
f 576//684 575//684 577//684
f 575//685 24//685 577//685
f 575//685 23//685 24//685
f 575//686 576//686 573//686
f 570//681 23//681 575//681
f 573//37 576//37 567//37
f 576//54 43//54 567//54
f 576//54 578//54 43//54
f 576//684 577//684 578//684
f 578//687 579//687 580//687
f 579//688 578//688 577//688
f 578//687 580//687 43//687
f 581//1 582//1 580//1
f 579//503 581//503 580//503
f 580//1 582//1 43//1
f 582//1 583//1 584//1
f 582//1 584//1 585//1
f 582//1 585//1 586//1
f 582//1 449//1 587//1
f 582//1 587//1 588//1
f 582//1 588//1 583//1
f 589//4 449//4 582//4
f 590//502 589//502 582//502
f 586//1 39//1 582//1
f 590//502 582//502 581//502
f 582//1 39//1 43//1
f 583//41 37//41 584//41
f 31//499 36//499 583//499
f 36//41 37//41 583//41
f 588//499 31//499 583//499
f 589//689 590//689 591//689
f 592//690 591//691 590//690
f 592//692 590//692 579//692
f 579//503 590//503 581//503
f 593//693 592//694 24//694
f 592//694 577//694 24//694
f 592//695 579//695 577//695
f 593//691 591//691 592//690
f 593//696 24//696 25//696
f 593//697 25//697 591//697
f 589//698 591//698 594//698
f 591//698 595//698 594//698
f 591//699 25//699 595//699
f 594//700 595//700 596//700
f 597//701 596//701 595//701
f 597//702 595//702 38//702
f 25//699 38//699 595//699
f 597//703 38//703 598//703
f 599//704 596//701 597//701
f 599//705 597//705 598//705
f 38//706 29//706 598//706
f 598//672 29//672 546//672
f 600//707 598//707 601//707
f 598//707 546//707 601//707
f 599//705 598//705 600//705
f 599//708 600//708 602//708
f 602//709 600//709 448//709
f 448//710 600//710 603//710
f 600//710 601//710 603//710
f 603//48 604//48 605//48
f 601//711 604//711 603//711
f 448//16 603//16 454//16
f 603//48 605//48 454//48
f 604//39 606//39 605//39
f 605//1 606//1 569//1
f 454//1 605//1 569//1
f 604//39 607//39 606//39
f 607//40 569//40 606//40
f 608//712 607//712 604//712
f 608//713 609//713 607//713
f 609//714 564//714 607//714
f 607//40 564//40 569//40
f 610//715 609//715 608//715
f 610//716 608//717 601//716
f 608//717 604//718 601//716
f 610//715 547//715 609//715
f 610//719 546//719 547//719
f 610//720 601//720 546//720
f 564//721 609//721 565//721
f 609//722 547//722 571//722
f 609//721 571//721 565//721
f 602//505 448//505 446//505
f 602//676 446//676 447//676
f 596//676 602//676 447//676
f 599//723 602//723 596//723
f 594//675 596//675 449//675
f 596//675 447//675 449//675
f 589//4 594//4 449//4
f 585//497 33//497 586//497
f 33//496 34//496 586//496
f 586//496 34//496 39//496
f 588//1 611//1 612//1
f 612//500 613//500 588//500
f 613//500 31//500 588//500
f 588//1 587//1 611//1
f 612//1 611//1 614//1
f 611//1 587//1 615//1
f 615//724 616//724 611//724
f 616//724 617//724 611//724
f 611//1 618//1 614//1
f 611//725 617//725 618//725
f 617//725 619//725 618//725
f 619//726 620//726 618//726
f 618//1 621//1 622//1
f 623//1 618//1 622//1
f 618//726 620//726 621//726
f 614//1 618//1 623//1
f 621//1 624//1 625//1
f 622//1 621//1 625//1
f 621//727 626//727 627//727
f 620//727 626//727 621//727
f 627//1 624//1 621//1
f 624//1 628//1 625//1
f 627//725 629//725 624//725
f 629//728 630//728 624//728
f 624//728 630//728 628//728
f 625//1 628//1 631//1
f 628//1 78//1 77//1
f 631//1 628//1 77//1
f 630//727 632//727 628//727
f 628//727 632//727 78//727
f 633//9 632//9 70//9
f 632//9 76//9 70//9
f 634//9 632//9 633//9
f 632//9 630//9 76//9
f 635//9 636//9 632//9
f 632//729 636//729 78//729
f 635//9 632//9 634//9
f 635//730 634//730 637//730
f 637//730 634//730 638//730
f 634//731 633//731 638//731
f 78//1 637//1 638//1
f 78//1 638//1 79//1
f 638//731 633//731 79//731
f 639//1 640//1 637//1
f 640//732 635//732 637//732
f 639//1 637//1 78//1
f 641//1 642//1 639//1
f 639//495 636//495 641//495
f 78//729 636//729 639//729
f 642//1 640//1 639//1
f 641//727 643//727 642//727
f 643//20 644//20 642//20
f 645//1 646//1 642//1
f 642//1 646//1 640//1
f 642//20 644//20 645//20
f 406//1 647//1 645//1
f 645//1 647//1 648//1
f 645//1 648//1 646//1
f 644//495 397//495 645//495
f 645//495 397//495 406//495
f 648//733 649//733 646//733
f 650//733 649//733 648//733
f 647//734 650//734 648//734
f 650//9 644//9 649//9
f 651//9 644//9 650//9
f 651//734 650//734 647//734
f 651//9 397//9 644//9
f 652//735 651//735 647//735
f 653//9 397//9 651//9
f 653//735 651//735 652//735
f 406//1 654//1 652//1
f 654//736 653//736 652//736
f 406//1 652//1 647//1
f 406//1 655//1 654//1
f 655//737 656//737 654//737
f 656//736 653//736 654//736
f 393//9 397//9 656//9
f 393//737 656//737 655//737
f 656//9 397//9 653//9
f 655//1 352//1 657//1
f 657//738 393//738 655//738
f 406//1 352//1 655//1
f 392//738 393//738 657//738
f 658//739 392//739 657//739
f 352//1 659//1 657//1
f 657//1 659//1 658//1
f 658//1 660//1 161//1
f 161//55 165//55 658//55
f 165//739 392//739 658//739
f 659//1 660//1 658//1
f 346//740 660//740 348//740
f 348//741 660//741 659//741
f 346//742 162//742 660//742
f 660//1 162//1 161//1
f 348//743 659//743 352//743
f 649//9 643//9 661//9
f 649//744 661//744 646//744
f 649//9 644//9 643//9
f 661//9 636//9 635//9
f 661//9 643//9 636//9
f 646//744 661//744 640//744
f 661//732 635//732 640//732
f 643//9 662//9 636//9
f 662//727 643//727 641//727
f 636//495 662//495 641//495
f 81//9 633//9 70//9
f 633//27 81//27 79//27
f 76//745 663//745 631//745
f 77//745 76//745 631//745
f 631//746 663//746 625//746
f 630//9 663//9 76//9
f 630//9 664//9 663//9
f 663//746 664//746 625//746
f 625//54 664//54 622//54
f 630//9 629//9 664//9
f 629//9 620//9 664//9
f 664//54 665//54 622//54
f 620//9 665//9 664//9
f 622//504 665//504 623//504
f 620//9 619//9 665//9
f 619//9 666//9 665//9
f 665//504 666//504 623//504
f 623//23 666//23 614//23
f 619//9 667//9 666//9
f 666//23 667//23 614//23
f 614//501 667//501 612//501
f 617//9 613//9 667//9
f 667//501 613//501 612//501
f 619//9 617//9 667//9
f 629//9 626//9 620//9
f 626//725 629//725 627//725
f 617//9 31//9 613//9
f 30//9 31//9 617//9
f 30//9 617//9 616//9
f 668//9 669//9 616//9
f 30//9 616//9 669//9
f 668//747 616//747 615//747
f 669//725 668//725 670//725
f 670//725 668//725 671//725
f 671//747 668//747 615//747
f 670//1 671//1 615//1
f 30//497 669//497 670//497
f 615//1 587//1 670//1
f 587//497 30//497 670//497
f 672//747 30//747 587//747
f 673//747 672//747 587//747
f 587//1 449//1 674//1
f 587//1 674//1 675//1
f 587//1 675//1 673//1
f 673//1 676//1 677//1
f 677//748 678//748 673//748
f 678//748 672//748 673//748
f 675//1 676//1 673//1
f 676//39 675//39 679//39
f 680//39 676//39 679//39
f 677//1 676//1 681//1
f 676//1 682//1 681//1
f 682//48 676//48 680//48
f 680//9 679//9 672//9
f 680//9 672//9 678//9
f 683//48 682//48 680//48
f 680//9 678//9 684//9
f 683//9 680//9 684//9
f 685//9 683//9 412//9
f 685//16 682//16 683//16
f 683//9 684//9 412//9
f 686//9 685//9 412//9
f 686//505 414//505 685//505
f 414//505 687//505 685//505
f 687//16 682//16 685//16
f 687//1 414//1 413//1
f 682//1 687//1 413//1
f 419//9 686//9 407//9
f 686//9 412//9 407//9
f 418//676 414//676 686//676
f 688//676 418//676 686//676
f 419//9 688//9 686//9
f 421//675 418//675 688//675
f 425//675 421//675 688//675
f 420//9 425//9 688//9
f 419//9 420//9 688//9
f 684//9 678//9 689//9
f 684//747 689//747 690//747
f 681//747 684//747 690//747
f 413//749 684//749 681//749
f 412//749 684//749 413//749
f 689//54 678//54 690//54
f 677//1 681//1 690//1
f 690//54 678//54 677//54
f 681//1 682//1 413//1
f 679//9 30//9 672//9
f 679//40 675//40 691//40
f 691//9 30//9 679//9
f 675//40 674//40 691//40
f 29//9 30//9 691//9
f 674//41 692//41 691//41
f 691//41 692//41 693//41
f 29//9 691//9 693//9
f 29//9 693//9 694//9
f 693//35 692//35 694//35
f 29//9 694//9 695//9
f 694//36 696//36 695//36
f 692//35 696//35 694//35
f 696//1 449//1 450//1
f 696//36 450//36 695//36
f 692//1 449//1 696//1
f 29//9 695//9 697//9
f 695//37 450//37 697//37
f 450//37 451//37 697//37
f 451//54 444//54 697//54
f 697//54 444//54 698//54
f 29//9 697//9 698//9
f 444//687 437//687 698//687
f 698//687 437//687 436//687
f 439//9 698//9 436//9
f 439//9 29//9 698//9
f 674//1 449//1 692//1
f 584//498 32//498 585//498
f 32//497 33//497 585//497
f 37//498 32//498 584//498
f 570//750 548//750 23//750
f 570//751 571//751 548//751
f 547//722 548//722 571//722
f 699//1 569//1 700//1
f 700//1 569//1 701//1
f 454//1 569//1 702//1
f 703//1 569//1 699//1
f 701//1 569//1 550//1
f 702//1 569//1 703//1
f 704//1 454//1 702//1
f 702//687 540//687 704//687
f 703//503 541//503 702//503
f 541//503 540//503 702//503
f 704//54 537//54 705//54
f 542//54 537//54 704//54
f 705//1 454//1 704//1
f 540//687 542//687 704//687
f 537//37 192//37 705//37
f 199//1 454//1 705//1
f 199//1 705//1 193//1
f 705//37 192//37 193//37
f 699//502 545//502 703//502
f 545//502 541//502 703//502
f 706//1 707//1 701//1
f 706//503 701//503 708//503
f 708//503 701//503 544//503
f 701//502 550//502 544//502
f 707//1 700//1 701//1
f 709//1 707//1 706//1
f 707//675 710//675 700//675
f 709//676 710//676 707//676
f 543//9 710//9 544//9
f 710//675 543//675 700//675
f 710//9 708//9 544//9
f 710//9 711//9 708//9
f 711//676 710//676 709//676
f 711//9 712//9 708//9
f 711//9 713//9 712//9
f 713//505 711//505 714//505
f 714//505 711//505 709//505
f 714//1 709//1 715//1
f 716//1 714//1 715//1
f 147//16 713//16 714//16
f 147//1 714//1 716//1
f 717//1 716//1 718//1
f 718//37 716//37 719//37
f 719//37 716//37 720//37
f 721//1 147//1 716//1
f 716//54 715//54 720//54
f 721//1 716//1 717//1
f 717//1 718//1 722//1
f 721//687 717//687 723//687
f 717//503 722//503 724//503
f 723//687 717//687 724//687
f 142//9 141//9 723//9
f 141//54 721//54 723//54
f 720//9 723//9 724//9
f 142//9 723//9 720//9
f 722//1 718//1 725//1
f 722//1 725//1 726//1
f 724//503 722//503 727//503
f 722//502 726//502 727//502
f 726//4 728//4 729//4
f 727//502 726//502 729//502
f 726//1 730//1 728//1
f 726//1 725//1 730//1
f 728//1 730//1 731//1
f 730//35 725//35 732//35
f 733//41 730//41 732//41
f 731//41 730//41 733//41
f 734//1 731//1 735//1
f 735//40 731//40 733//40
f 728//1 731//1 734//1
f 735//1 736//1 734//1
f 734//1 736//1 737//1
f 728//675 734//675 738//675
f 738//676 734//676 739//676
f 734//676 737//676 739//676
f 736//1 740//1 737//1
f 737//1 740//1 741//1
f 737//505 741//505 742//505
f 739//505 737//505 742//505
f 741//1 740//1 111//1
f 740//1 743//1 744//1
f 111//1 740//1 744//1
f 745//16 740//16 746//16
f 746//48 740//48 747//48
f 740//48 736//48 747//48
f 743//16 740//16 745//16
f 743//1 748//1 749//1
f 744//1 743//1 749//1
f 748//505 743//505 745//505
f 750//676 748//676 751//676
f 751//505 748//505 745//505
f 749//1 748//1 752//1
f 748//1 750//1 752//1
f 557//503 753//503 752//503
f 556//502 557//502 752//502
f 752//1 750//1 556//1
f 752//503 753//503 749//503
f 753//687 754//687 749//687
f 751//9 745//9 753//9
f 751//9 753//9 557//9
f 745//9 754//9 753//9
f 749//687 754//687 744//687
f 754//54 755//54 744//54
f 745//9 746//9 754//9
f 746//9 755//9 754//9
f 756//9 110//9 755//9
f 755//37 110//37 111//37
f 744//54 755//54 111//54
f 742//9 756//9 755//9
f 746//9 742//9 755//9
f 742//16 112//16 756//16
f 756//48 112//48 757//48
f 756//9 757//9 110//9
f 112//48 113//48 757//48
f 757//9 118//9 102//9
f 757//9 102//9 110//9
f 757//39 113//39 118//39
f 750//1 551//1 556//1
f 551//675 750//675 553//675
f 553//676 750//676 751//676
f 553//9 751//9 557//9
f 747//39 736//39 758//39
f 747//9 758//9 738//9
f 746//9 747//9 739//9
f 747//9 738//9 739//9
f 736//39 735//39 758//39
f 758//40 735//40 733//40
f 733//9 738//9 758//9
f 746//9 739//9 742//9
f 741//16 112//16 742//16
f 112//1 741//1 111//1
f 759//675 728//675 738//675
f 733//9 759//9 738//9
f 732//9 729//9 759//9
f 729//4 728//4 759//4
f 732//9 759//9 733//9
f 732//35 725//35 760//35
f 760//9 729//9 732//9
f 725//36 718//36 760//36
f 719//9 727//9 760//9
f 760//9 727//9 729//9
f 760//36 718//36 719//36
f 719//9 724//9 727//9
f 720//9 724//9 719//9
f 138//1 147//1 721//1
f 138//54 721//54 141//54
f 713//9 720//9 712//9
f 713//9 142//9 720//9
f 720//54 715//54 712//54
f 715//1 709//1 706//1
f 715//687 706//687 712//687
f 142//16 713//16 147//16
f 712//687 706//687 708//687
f 700//4 545//4 699//4
f 543//4 545//4 700//4
f 761//1 762//1 567//1
f 761//1 567//1 763//1
f 17//1 567//1 43//1
f 762//1 563//1 567//1
f 764//1 567//1 17//1
f 765//1 567//1 764//1
f 766//1 567//1 765//1
f 763//1 567//1 766//1
f 767//752 768//752 766//752
f 765//753 767//753 766//753
f 769//1 763//1 766//1
f 766//752 768//752 769//752
f 768//754 770//754 769//754
f 771//9 770//9 768//9
f 771//9 768//9 772//9
f 773//9 768//9 767//9
f 773//9 772//9 768//9
f 773//755 774//755 761//755
f 763//755 773//755 761//755
f 772//756 773//756 763//756
f 35//9 774//9 773//9
f 35//9 773//9 767//9
f 775//9 774//9 35//9
f 774//16 775//16 761//16
f 561//9 775//9 35//9
f 761//16 775//16 762//16
f 762//505 775//505 563//505
f 775//505 561//505 563//505
f 771//757 772//757 776//757
f 776//756 772//756 763//756
f 769//1 777//1 776//1
f 777//757 771//757 776//757
f 776//1 763//1 769//1
f 778//758 771//758 777//758
f 778//758 777//758 779//758
f 777//1 780//1 779//1
f 781//1 780//1 777//1
f 781//1 777//1 782//1
f 782//1 777//1 783//1
f 784//1 777//1 769//1
f 783//1 777//1 784//1
f 770//759 785//759 783//759
f 785//760 782//760 783//760
f 770//759 783//759 784//759
f 786//9 785//9 778//9
f 778//9 785//9 771//9
f 771//9 785//9 770//9
f 786//9 787//9 785//9
f 787//9 788//9 785//9
f 785//760 788//760 782//760
f 787//9 789//9 788//9
f 788//752 789//752 781//752
f 788//752 781//752 782//752
f 789//761 787//761 790//761
f 789//761 790//761 781//761
f 791//1 792//1 790//1
f 787//762 791//762 790//762
f 790//1 792//1 781//1
f 792//1 793//1 781//1
f 794//763 793//763 792//763
f 795//764 794//764 792//764
f 795//764 792//764 791//764
f 787//762 795//762 791//762
f 796//9 795//9 787//9
f 796//9 794//9 795//9
f 786//9 796//9 787//9
f 796//756 786//756 780//756
f 796//756 780//756 793//756
f 794//763 796//763 793//763
f 793//1 780//1 781//1
f 786//765 778//765 779//765
f 786//765 779//765 780//765
f 769//754 770//754 784//754
f 35//9 767//9 797//9
f 797//753 767//753 765//753
f 35//9 797//9 798//9
f 798//16 797//16 764//16
f 764//16 797//16 765//16
f 35//9 798//9 18//9
f 798//9 799//9 18//9
f 799//48 798//48 800//48
f 800//48 798//48 764//48
f 801//39 799//39 800//39
f 802//1 800//1 17//1
f 801//1 800//1 802//1
f 800//1 764//1 17//1
f 803//1 801//1 802//1
f 804//1 805//1 801//1
f 804//1 801//1 803//1
f 806//39 799//39 801//39
f 805//40 806//40 801//40
f 807//1 808//1 805//1
f 807//1 805//1 804//1
f 808//41 809//41 805//41
f 809//40 806//40 805//40
f 810//1 108//1 808//1
f 810//1 808//1 807//1
f 108//35 106//35 808//35
f 106//41 809//41 808//41
f 811//766 810//766 105//766
f 105//767 810//767 812//767
f 813//1 108//1 810//1
f 810//767 807//767 812//767
f 811//1 813//1 810//1
f 814//1 815//1 811//1
f 814//30 811//30 816//30
f 816//766 811//766 105//766
f 815//1 813//1 811//1
f 813//4 815//4 817//4
f 817//5 815//5 818//5
f 815//5 819//5 818//5
f 819//1 815//1 814//1
f 819//6 820//6 818//6
f 821//1 819//1 814//1
f 820//1 819//1 821//1
f 820//1 821//1 822//1
f 823//1 820//1 822//1
f 818//6 820//6 824//6
f 824//11 820//11 825//11
f 820//11 823//11 825//11
f 2//1 823//1 822//1
f 826//1 823//1 2//1
f 825//10 823//10 827//10
f 828//1 823//1 826//1
f 823//10 828//10 827//10
f 828//7 829//7 827//7
f 829//1 828//1 830//1
f 830//1 828//1 826//1
f 831//1 829//1 830//1
f 831//30 830//30 832//30
f 832//766 830//766 833//766
f 830//766 826//766 833//766
f 827//9 832//9 833//9
f 833//767 826//767 834//767
f 835//9 833//9 834//9
f 825//9 827//9 833//9
f 825//9 833//9 835//9
f 835//22 2//22 836//22
f 4//2 2//2 835//2
f 835//9 834//9 4//9
f 825//9 835//9 836//9
f 2//22 822//22 836//22
f 836//23 822//23 837//23
f 837//9 824//9 836//9
f 824//9 825//9 836//9
f 822//23 821//23 837//23
f 837//29 821//29 838//29
f 818//9 837//9 838//9
f 818//9 824//9 837//9
f 821//29 814//29 838//29
f 838//30 814//30 816//30
f 817//9 838//9 816//9
f 817//9 818//9 838//9
f 826//767 1//767 834//767
f 834//4 1//4 9//4
f 4//9 834//9 9//9
f 839//9 840//9 832//9
f 840//30 831//30 832//30
f 827//9 839//9 832//9
f 827//7 829//7 839//7
f 841//9 840//9 839//9
f 829//8 842//8 839//8
f 839//8 842//8 841//8
f 67//9 66//9 841//9
f 841//9 66//9 840//9
f 842//3 74//3 841//3
f 841//3 74//3 67//3
f 843//1 74//1 842//1
f 843//1 842//1 831//1
f 831//1 842//1 829//1
f 65//23 843//23 66//23
f 66//29 843//29 840//29
f 843//29 831//29 840//29
f 65//1 74//1 843//1
f 826//1 2//1 1//1
f 107//9 817//9 816//9
f 107//4 813//4 817//4
f 107//9 816//9 105//9
f 844//1 108//1 813//1
f 844//767 813//767 107//767
f 95//1 101//1 844//1
f 95//766 844//766 99//766
f 99//767 844//767 107//767
f 101//1 103//1 844//1
f 103//1 108//1 844//1
f 106//9 105//9 812//9
f 106//9 812//9 809//9
f 809//9 812//9 845//9
f 812//4 807//4 845//4
f 807//4 804//4 845//4
f 809//9 845//9 806//9
f 806//9 845//9 846//9
f 804//5 803//5 845//5
f 845//5 803//5 846//5
f 846//6 803//6 847//6
f 806//9 846//9 847//9
f 802//11 17//11 847//11
f 803//6 802//6 847//6
f 847//11 17//11 18//11
f 799//9 847//9 18//9
f 806//9 847//9 799//9
f 35//768 23//768 548//768
f 539//9 29//9 848//9
f 849//769 535//769 539//769
f 849//770 539//770 848//770
f 850//771 849//771 848//771
f 848//9 29//9 851//9
f 850//772 848//772 851//772
f 850//773 851//773 516//773
f 851//9 29//9 441//9
f 851//9 441//9 852//9
f 851//9 852//9 516//9
f 442//746 494//746 852//746
f 441//746 442//746 852//746
f 516//9 852//9 510//9
f 510//9 852//9 496//9
f 852//26 494//26 496//26
f 850//774 516//774 515//774
f 850//775 853//775 849//775
f 850//776 515//776 853//776
f 853//777 520//777 532//777
f 853//778 515//778 520//778
f 849//779 853//779 535//779
f 853//780 532//780 535//780
f 854//781 855//781 500//781
f 855//782 369//782 500//782
f 854//783 500//783 394//783
f 854//784 380//784 855//784
f 396//785 854//785 394//785
f 396//786 380//786 854//786
f 379//787 369//787 855//787
f 379//788 855//788 380//788
f 442//1 445//1 494//1
f 487//789 459//789 473//789
f 487//790 473//790 475//790
f 487//791 460//791 459//791
f 487//792 489//792 460//792
f 459//793 466//793 473//793
f 468//655 213//113 214//115
f 456//794 445//794 453//794
f 441//9 29//9 439//9
f 439//9 436//9 432//9
f 435//4 421//4 429//4
f 435//1 427//1 423//1
f 435//1 423//1 421//1
f 435//1 431//1 427//1
f 429//4 421//4 425//4
f 856//9 419//9 407//9
f 856//15 416//15 419//15
f 411//16 416//16 856//16
f 402//16 411//16 856//16
f 402//9 856//9 407//9
f 411//1 400//1 405//1
f 400//17 411//17 402//17
f 405//1 400//1 406//1
f 400//1 352//1 406//1
f 396//795 381//460 380//462
f 389//796 381//796 396//796
f 389//797 382//797 381//797
f 377//798 384//798 335//798
f 330//378 335//377 384//799
f 330//800 384//468 328//467
f 379//801 374//801 369//801
f 377//802 335//802 376//802
f 335//803 333//803 376//803
f 857//804 373//804 376//804
f 857//805 376//805 333//805
f 857//806 366//806 365//806
f 857//807 365//807 371//807
f 857//808 333//808 366//808
f 857//809 371//809 373//809
f 361//810 360//810 370//810
f 359//811 370//811 360//811
f 332//812 356//812 358//812
f 332//813 358//813 333//813
f 332//814 336//815 356//816
f 338//817 356//816 336//815
f 350//818 351//818 354//818
f 343//819 342//820 858//821
f 284//822 283//823 342//824
f 283//823 858//825 342//824
f 859//826 860//827 858//828
f 860//827 154//829 858//828
f 343//819 858//821 154//830
f 283//831 859//826 858//828
f 283//832 276//832 859//832
f 861//833 859//834 276//835
f 861//833 860//836 859//834
f 862//837 861//837 276//837
f 862//838 860//839 861//840
f 267//841 863//841 862//841
f 862//838 863//842 860//839
f 267//843 862//843 270//843
f 862//844 275//844 270//844
f 862//845 276//242 275//241
f 267//846 263//846 863//846
f 863//847 263//847 864//847
f 863//848 864//848 865//848
f 863//849 865//849 860//849
f 864//850 866//850 865//850
f 864//851 867//851 866//851
f 864//852 263//852 867//852
f 867//1 868//1 866//1
f 262//853 867//853 263//853
f 262//854 194//854 867//854
f 867//1 190//1 868//1
f 194//1 190//1 867//1
f 190//41 184//41 868//41
f 184//40 144//40 868//40
f 868//40 144//40 145//40
f 866//1 868//1 145//1
f 865//855 866//855 150//855
f 866//1 145//1 150//1
f 865//856 150//856 154//856
f 865//857 154//857 860//857
f 343//819 154//830 156//858
f 320//353 285//859 326//361
f 326//361 285//859 284//860
f 169//61 323//356 168//62
f 320//351 289//263 285//258
f 280//861 282//861 288//861
f 278//862 276//862 283//862
f 251//863 265//863 271//863
f 271//864 265//864 266//864
f 260//865 265//865 869//865
f 251//866 869//866 265//866
f 256//867 260//868 869//869
f 256//867 869//869 250//870
f 251//871 250//871 869//871
f 196//872 194//872 262//872
f 252//873 207//873 253//873
f 252//874 209//874 207//874
f 245//875 209//875 252//875
f 234//876 215//876 238//876
f 234//877 220//877 215//877
f 227//878 181//878 180//878
f 222//879 220//879 224//879
f 187//880 188//880 223//880
f 192//9 223//9 188//9
f 185//41 184//41 190//41
f 184//9 177//9 144//9
f 144//9 177//9 176//9
f 176//9 171//9 140//9
f 144//9 176//9 140//9
f 171//9 149//9 140//9
f 171//9 152//9 149//9
f 134//49 140//49 148//49
f 132//47 134//47 148//47
f 148//1 136//1 135//1
f 148//1 135//1 132//1
f 132//1 135//1 122//1
f 122//35 135//35 123//35
f 132//1 122//1 130//1
f 130//1 122//1 128//1
f 128//1 122//1 121//1
f 128//1 121//1 127//1
f 120//43 125//43 127//43
f 127//1 121//1 120//1
f 118//9 115//9 102//9
f 94//1 101//1 95//1
f 92//766 95//766 99//766
f 96//9 870//9 88//9
f 870//16 96//16 90//16
f 870//9 86//9 88//9
f 89//881 870//881 90//881
f 870//9 871//9 86//9
f 871//881 870//881 89//881
f 871//9 83//9 86//9
f 83//882 871//882 84//882
f 84//882 871//882 89//882
f 83//9 85//9 86//9
f 69//22 73//22 85//22
f 81//9 69//9 85//9
f 83//9 81//9 85//9
f 81//9 70//9 69//9
f 74//2 73//2 67//2
f 67//2 73//2 69//2
f 71//1 65//1 63//1
f 71//1 63//1 54//1
f 54//4 61//4 71//4
f 54//1 63//1 55//1
f 55//2 63//2 58//2
f 21//9 57//9 50//9
f 21//7 44//7 57//7
f 44//7 48//7 57//7
f 57//9 51//9 50//9
f 21//9 50//9 47//9
f 21//9 47//9 26//9
f 44//1 20//1 43//1
f 20//10 44//10 21//10
f 20//1 17//1 43//1
f 39//1 40//1 43//1
f 14//1 17//1 20//1
f 12//1 14//1 20//1
f 12//11 20//11 13//11
f 5//9 9//9 11//9
f 4//9 9//9 5//9
