# Blender v3.0.1 OBJ File: ''
# www.blender.org
mtllib Small_Long_Oval_Brown.mtl
o obj1.040_obj1.005
v -10.289001 9.556718 -18.772980
v -5.523560 10.974854 -14.085479
v -5.378296 11.001100 -18.772980
v -8.758667 10.140626 -23.460480
v -4.111816 11.192613 -23.460480
v -2.455444 11.345445 -18.772980
v -0.282776 11.384263 -14.085479
v 0.439575 11.356965 -23.460480
v 3.130066 11.075059 -18.772980
v 1.221863 11.304612 -16.429230
v 5.015442 10.698594 -14.085480
v 8.711609 9.455888 -18.772980
v 8.542419 9.529892 -9.397980
v 11.791382 7.716156 -14.085480
v 1.190186 11.307190 -9.397979
v -3.640381 11.247177 -9.397979
v -2.333984 11.352417 -4.710479
v 6.131226 10.399490 -4.710479
v -8.582336 10.199356 -9.397980
v -5.959167 10.890671 -0.022979
v -0.522278 11.388870 -0.022979
v 4.951416 10.713959 -0.022979
v -2.333984 11.352417 4.664521
v 6.131226 10.399490 4.664521
v -8.582336 10.199356 9.352020
v -3.640381 11.247177 9.352021
v 1.190186 11.307190 9.352021
v -11.579590 8.947495 -0.022979
v -9.514832 9.869292 11.695770
v -5.523560 10.974853 14.039521
v -13.080200 8.071747 9.352020
v -14.543213 6.984528 4.664521
v -0.282776 11.384261 14.039521
v -2.455444 11.345443 18.727020
v -5.378296 11.001098 18.727020
v -10.957214 9.255996 14.039520
v -10.289001 9.556716 18.727020
v -8.758667 10.140624 23.414520
v -14.420959 7.086593 18.727020
v -11.894897 8.779860 28.102020
v -15.288513 6.305618 14.039520
v -16.905273 4.322814 18.727020
v -15.577026 6.012251 28.102020
v -15.953613 5.597443 4.664521
v -17.687744 2.804733 -0.022980
v -17.687744 2.804732 37.477020
v -16.830444 4.438902 32.789520
v -14.546753 6.981520 32.789520
v -16.531128 4.871916 37.477020
v -13.365479 7.880522 37.477020
v -17.276245 3.686735 42.164520
v -15.140869 6.448576 46.852020
v -16.750305 4.559523 46.852020
v -17.638245 2.925276 51.539520
v -15.356140 6.238599 56.227028
v -18.137085 1.286146 56.227028
v -16.816101 4.460797 60.914528
v -18.278992 -0.191318 74.977028
v -18.137085 1.286149 -18.772980
v -18.155579 1.186948 70.289528
v -17.765747 2.603314 65.602028
v -17.830566 2.423371 -14.085480
v -16.905273 4.322816 -18.772980
v -17.277588 3.684266 -23.460480
v -17.687744 2.804735 -37.522980
v -18.278992 -0.191311 -75.022980
v -18.137085 1.286151 -56.272980
v -17.339111 3.566727 -9.397980
v -16.129089 5.389832 -14.085480
v -12.153687 8.636125 -15.257355
v -14.420959 7.086595 -18.772980
v -13.080200 8.071747 -9.397980
v -9.514832 9.869294 -11.741730
v -14.543213 6.984528 -4.710479
v -16.656128 4.696716 -4.710480
v -15.781067 5.792404 -0.022979
v -11.894897 8.779862 -28.147980
v -15.577026 6.012254 -28.147980
v -14.546753 6.981523 -32.835480
v -10.456726 9.484026 -32.835480
v -7.173645 10.611390 -28.147980
v -5.560608 10.968004 -32.835480
v -2.172363 11.360795 -28.147980
v 1.296265 11.298387 -31.663605
v 4.891602 10.728150 -28.147980
v 7.652710 9.889405 -24.632355
v 8.684021 9.468065 -32.835480
v 10.428528 8.588334 -28.147980
v 14.334534 5.372270 -23.460480
v 15.496338 3.631807 -28.147980
v 12.612061 7.086504 -32.835480
v 14.976196 4.507509 -32.835480
v 11.978027 7.580827 -37.522980
v 14.340637 5.364824 -37.522980
v 13.584595 6.200991 -46.897980
v 10.579529 8.500704 -42.210480
v 15.471069 3.679568 -46.897980
v 16.383179 0.965258 -42.210480
v 15.940247 2.647127 -37.522980
v 9.763794 8.951021 -46.897980
v 5.542786 10.564684 -42.210480
v 6.812134 10.186586 -37.522980
v 9.519836 9.075258 -51.585480
v 11.942444 7.606936 -51.585480
v 4.930420 10.718966 -46.897980
v 9.988708 8.832385 -56.272980
v 15.584106 3.460116 -51.585480
v 14.845215 4.699481 -56.272980
v 16.469971 -0.170972 -51.585480
v 16.093506 2.206957 -46.897980
v 16.378174 -1.380598 -46.897980
v 15.728760 -3.538465 -51.585480
v 15.207764 -4.525618 -46.897980
v 16.165283 -2.351103 -42.210480
v 14.541748 -5.494841 -42.210480
v 12.559509 -7.512342 -46.897980
v 13.535889 -6.632459 -51.585480
v 10.202026 -9.098707 -37.522980
v 13.732361 -6.432234 -37.522980
v 15.819336 -3.331419 -37.522980
v 15.325378 -4.325972 -32.835480
v 16.469849 -0.243330 -37.522980
v 16.404785 -1.193877 -32.835480
v 16.215515 -2.166610 -28.147980
v 14.684998 -5.305190 -28.147980
v 12.544922 -7.524245 -32.835480
v 13.700806 -6.465011 -23.460480
v 11.166626 -8.522307 -28.147980
v 15.893127 -3.151336 -23.460480
v 16.469910 -0.153350 -23.460480
v 15.431152 -4.136443 -18.772980
v 12.507507 -7.554626 -18.772980
v 14.818848 -5.119674 -14.085480
v 16.194397 1.863633 -18.772980
v 16.252258 -2.019393 -14.085480
v 7.837097 -10.201491 -14.085480
v 10.166504 -9.118317 -9.397980
v 14.060486 -6.076248 -9.397980
v 15.970154 -2.949646 -9.397980
v 15.531616 -3.946457 -4.710480
v 16.466553 0.038605 -9.397980
v 16.441589 -0.853744 -4.710480
v 16.153015 2.011246 -4.710480
v 16.308533 -1.766937 -0.022980
v 15.279968 4.021683 -0.022980
v 15.821472 2.943757 -9.397980
v 14.177979 5.558777 -9.397980
v 12.612122 7.086472 -4.710479
v 10.683716 8.439026 -0.022979
v 12.612122 7.086472 4.664521
v 16.153015 2.011245 4.664520
v 14.177979 5.558776 9.352020
v 8.542419 9.529892 9.352020
v 5.015442 10.698592 14.039520
v 11.791382 7.716156 14.039520
v 1.221863 11.304610 16.383270
v 3.130066 11.075057 18.727020
v 8.711609 9.455886 18.727020
v 12.717896 6.998290 18.727020
v 7.652710 9.889403 24.586395
v 4.633789 10.787459 21.070770
v 0.439575 11.356963 23.414520
v 14.334534 5.372268 23.414520
v 10.428528 8.588332 28.102020
v 4.891602 10.728148 28.102020
v 8.684021 9.468061 32.789520
v -2.172363 11.360793 28.102020
v 1.296265 11.298385 31.617645
v 0.945496 11.325834 37.477020
v -3.945007 11.212934 37.477020
v -5.560608 10.968000 32.789520
v 4.876648 10.731672 35.133270
v -7.173645 10.611388 28.102020
v -10.456726 9.484022 32.789520
v -8.934265 10.080458 37.477020
v -2.701965 11.329527 42.164520
v -11.270874 9.104124 46.852020
v -6.462097 10.783125 46.852020
v -1.513062 11.384565 46.852020
v -8.213989 10.316771 50.367645
v -1.036072 11.391340 51.539520
v -4.972046 11.069792 53.883278
v -13.368896 7.878141 56.227028
v -8.938538 10.078961 56.227028
v -5.647156 10.951795 59.742653
v -3.949463 11.212415 56.227028
v -10.824829 9.317990 60.328590
v 1.687012 11.262113 60.914528
v -2.336487 11.352262 63.258278
v -6.466553 10.782117 65.602028
v 4.376465 10.843671 56.227028
v 5.659729 10.533200 65.602028
v 8.255432 9.651196 60.914528
v -0.930664 11.391660 65.602028
v 9.988708 8.832379 56.227028
v 8.732300 9.446669 51.539520
v 3.877441 10.944334 51.539520
v 8.271729 9.644438 46.852020
v 3.378052 11.034300 46.852020
v 7.112366 10.084929 42.164520
v 2.155945 11.210569 42.164520
v 9.834290 8.914259 42.164520
v 6.812134 10.186583 37.477020
v 11.978027 7.580824 37.477020
v 13.458557 6.326185 42.164520
v 12.430542 7.233870 46.852020
v 15.071350 4.361845 46.852020
v 14.343262 5.361646 51.539520
v 16.020325 2.426924 51.539520
v 16.278931 1.521665 46.852020
v 15.560120 3.507963 42.164520
v 16.463867 -0.499010 51.539520
v 15.644775 3.336072 56.227028
v 16.319946 1.327665 60.914528
v 16.106995 -2.546740 56.227028
v 12.612122 7.086469 60.914528
v 15.177856 4.192044 60.914528
v 11.667297 7.803769 65.602028
v 14.601624 5.033994 65.602028
v 16.062439 2.302747 65.602028
v 9.810486 8.926724 70.289528
v 15.725098 3.163968 70.289528
v 16.458191 -0.618228 65.602028
v 16.453125 0.318875 70.289528
v 16.043274 -2.742679 70.289528
v 15.642334 -3.723727 65.602028
v 16.345886 -1.573397 60.914528
v 14.078430 -6.055896 65.602028
v 13.170593 -6.982318 70.289528
v 14.979187 -4.885608 74.977028
v 16.326355 1.295117 74.977028
v 13.126038 6.640561 74.977028
v 7.751160 9.851972 74.977028
v 8.031555 -10.124881 74.977028
v 2.082642 11.219205 74.977028
v 2.943542 -11.486667 74.977028
v 3.404846 11.029752 70.289528
v -2.558716 -11.721713 74.977028
v -2.946716 11.311383 74.977028
v -7.786194 -10.827014 74.977028
v -6.429993 -11.172961 72.633278
v -2.841492 -11.702121 69.117653
v 4.367004 -11.228320 70.289528
v 0.635620 -11.728732 65.602028
v -5.228821 -11.409823 65.602028
v -10.209839 -9.973025 70.289528
v -12.437622 -8.854388 65.602028
v -15.409485 -6.567599 70.289528
v -14.214111 -7.636737 74.977028
v -13.861389 -7.908343 60.914528
v -10.267883 -9.948382 60.914528
v -16.401978 -5.428042 65.602028
v -17.181580 -4.242709 60.914528
v -18.151062 -1.594501 65.602028
v -17.834412 -2.794925 70.289528
v -18.222961 -1.120913 56.227028
v -17.746643 -3.036547 56.227028
v -18.222961 -1.120910 -18.772980
v -18.048340 -2.072464 -0.022980
v -18.048340 -2.072466 37.477020
v -17.834412 -2.794924 51.539520
v -16.188293 -5.700030 51.539520
v -15.107910 -6.862551 56.227028
v -10.421936 -9.881900 56.227028
v -12.081421 -9.059465 51.539520
v -13.589966 -8.106203 46.852020
v -10.479492 -9.856661 46.852020
v -7.910156 -10.790988 56.227028
v -8.495300 -10.610384 49.195770
v -5.221863 -11.411028 52.711395
v -14.914551 -7.041872 42.164520
v -12.814148 -8.624941 37.477020
v -7.305725 -10.959536 37.477020
v -4.615784 -11.506990 46.852020
v -9.824768 -10.131181 28.102020
v -3.912476 -11.599412 28.102020
v -1.365173 -11.770250 37.477020
v 1.935425 -11.618531 28.102020
v 1.237366 -11.685976 46.852020
v 4.535095 -11.192003 37.477020
v -1.454712 -11.768511 49.781708
v 5.383362 -10.989183 49.195770
v 1.658508 -11.647600 52.711395
v 7.185059 -10.442232 46.852020
v 10.202026 -9.098711 37.477020
v 11.672302 -8.182894 46.852020
v 9.338196 -9.547503 51.539520
v 14.541748 -5.494844 42.164520
v 15.207764 -4.525621 46.852020
v 14.229797 -5.880572 51.539520
v 15.728760 -3.538470 51.539520
v 12.972290 -7.161364 56.227028
v 8.792480 -9.802463 60.914528
v 6.715210 -10.601016 56.227028
v 15.325378 -4.325976 60.914528
v 10.709290 -8.806369 65.602028
v 5.868591 -10.857959 65.602028
v 3.679016 -11.364001 60.914528
v -1.221863 -11.772388 59.742653
v 3.922424 -11.318347 56.227028
v -2.706421 -11.711856 62.086403
v -6.155273 -11.232715 58.570778
v -1.955811 -11.753100 56.227028
v 9.221680 -9.603686 70.289528
v 16.378174 -1.380602 46.852020
v 16.165283 -2.351107 42.164520
v 16.426392 0.629057 42.164520
v 16.469849 -0.243334 37.477020
v 15.940247 2.647124 37.477020
v 16.232788 1.716261 32.789520
v 14.976196 4.507506 32.789520
v 14.340637 5.364821 37.477020
v 12.612061 7.086501 32.789520
v 15.496338 3.631804 28.102020
v 15.901489 2.747451 23.414520
v 16.406677 0.796813 28.102020
v 16.194397 1.863631 18.727020
v 16.469910 -0.153352 23.414520
v 15.431152 -4.136445 18.727020
v 15.893127 -3.151338 23.414520
v 16.215515 -2.166612 28.102020
v 16.252258 -2.019395 14.039520
v 14.818848 -5.119675 14.039520
v 13.700806 -6.465013 23.414520
v 12.507507 -7.554627 18.727020
v 7.951599 -10.156663 18.727020
v 7.837097 -10.201493 14.039520
v 3.622375 -11.374253 16.383270
v 0.207825 -11.750566 12.867644
v 2.730286 -11.518021 9.352019
v 10.166504 -9.118317 9.352020
v 5.329224 -11.003129 18.727020
v -0.605469 -11.772599 18.727020
v -1.259094 -11.771913 15.211394
v -6.512756 -11.154298 18.727020
v -6.176636 -11.228181 14.039519
v -9.186646 -10.373658 18.727020
v -11.075806 -9.582032 28.102020
v -13.933044 -7.854524 18.727020
v -13.002258 -8.505097 14.039520
v -15.977661 -5.952241 23.414520
v -16.739624 -4.957978 18.727020
v -15.000549 -6.962998 14.039520
v -17.746643 -3.036546 18.727020
v -17.546143 -3.519960 28.102020
v -15.062988 -6.904832 28.102020
v -16.895569 -4.720720 32.789520
v -16.030151 -5.890764 37.477020
v -17.650635 -3.278292 42.164520
v -17.042847 -4.482225 46.852020
v -17.277527 -4.066971 4.664520
v -17.004150 -4.546372 14.039520
v -15.924561 -6.013566 9.352020
v -16.696289 -5.021454 4.664520
v -13.861389 -7.908340 4.664520
v -10.356018 -9.910538 9.352020
v -7.289062 -10.963928 4.664520
v -3.121887 -11.679596 9.352019
v -0.410645 -11.769638 5.836395
v -3.508057 -11.643539 2.320770
v 4.071899 -11.289032 2.320770
v 0.162109 -11.752472 -0.022980
v 7.932007 -10.164383 4.664520
v 5.528809 -10.951035 -0.022980
v 14.060486 -6.076249 9.352020
v 12.125916 -7.853119 -0.022980
v 7.932007 -10.164383 -4.710480
v 15.531616 -3.946457 4.664520
v 4.071899 -11.289032 -2.366730
v 2.730286 -11.518021 -9.397981
v -0.410645 -11.769638 -5.882355
v 0.207825 -11.750564 -12.913606
v -3.121887 -11.679596 -9.397981
v -7.289062 -10.963928 -4.710480
v -3.508057 -11.643539 -2.366730
v -11.252625 -9.495789 -0.022980
v -5.166077 -11.420486 -0.022980
v -10.356018 -9.910538 -9.397980
v -13.861389 -7.908340 -4.710480
v -17.311646 -4.002365 -0.022980
v -16.696289 -5.021454 -4.710480
v -17.913818 -2.553588 -9.397980
v -15.924561 -6.013565 -9.397980
v -17.433167 -3.761382 -14.085480
v -15.000549 -6.962997 -14.085480
v -13.002258 -8.505095 -14.085480
v -16.739624 -4.957976 -18.772980
v -13.933044 -7.854522 -18.772980
v -17.985107 -2.312713 -23.460480
v -15.977661 -5.952239 -23.460480
v -17.746643 -3.036544 -18.772980
v -17.546143 -3.519957 -28.147980
v -15.062988 -6.904830 -28.147980
v -11.075806 -9.582030 -28.147980
v -16.895569 -4.720717 -32.835480
v -12.814148 -8.624937 -37.522980
v -16.030151 -5.890761 -37.522980
v -18.048340 -2.072462 -37.522980
v -14.914551 -7.041868 -42.210480
v -17.650635 -3.278288 -42.210480
v -17.042847 -4.482222 -46.897980
v -13.589966 -8.106199 -46.897980
v -10.479492 -9.856657 -46.897980
v -12.081421 -9.059462 -51.585480
v -8.495300 -10.610380 -49.241730
v -4.615784 -11.506987 -46.897980
v -7.305725 -10.959532 -37.522980
v -1.365173 -11.770247 -37.522980
v -3.912476 -11.599410 -28.147980
v -9.824768 -10.131179 -28.147980
v -6.512756 -11.154296 -18.772980
v 1.935425 -11.618529 -28.147980
v -0.605469 -11.772597 -18.772980
v -1.259094 -11.771911 -15.257356
v -6.176636 -11.228179 -14.085481
v -9.186646 -10.373656 -18.772980
v 3.622375 -11.374251 -16.429230
v 5.329224 -11.003127 -18.772980
v 7.951599 -10.156661 -18.772980
v 7.856750 -10.193862 -28.147980
v 4.535095 -11.191999 -37.522980
v 1.237366 -11.685972 -46.897980
v 7.185059 -10.442228 -46.897980
v -1.461792 -11.768354 -49.827667
v 5.354065 -10.996748 -49.241730
v 1.643860 -11.649046 -52.757355
v -5.221863 -11.411024 -52.757355
v -7.910156 -10.790982 -56.272980
v -1.955811 -11.753095 -56.272980
v -6.155273 -11.232709 -58.616730
v -1.221863 -11.772382 -59.788605
v 3.922424 -11.318341 -56.272980
v 3.679016 -11.363996 -60.960480
v 6.715210 -10.601010 -56.272980
v 10.387695 -8.994321 -60.960480
v 9.285400 -9.573072 -51.585480
v 11.199768 -8.500867 -56.272980
v 15.084106 -4.724530 -60.960480
v 16.106995 -2.546735 -56.272980
v 16.345886 -1.573392 -60.960480
v 16.153015 2.011248 -60.960480
v 16.458191 -0.618222 -65.647980
v 15.801086 2.991748 -65.647980
v 15.377686 3.850833 -60.960480
v 16.453125 0.318881 -70.335480
v 16.117249 2.130817 -70.335480
v 14.062500 5.691348 -65.647980
v 14.725586 4.867175 -70.335480
v 13.126038 6.640567 -75.022980
v 9.810486 8.926730 -70.335480
v 16.326355 1.295124 -75.022980
v 11.667297 7.803775 -65.647980
v 3.404846 11.029757 -70.335480
v 5.659729 10.533206 -65.647980
v 7.751160 9.851977 -75.022980
v 2.082642 11.219211 -75.022980
v 2.943542 -11.486661 -75.022980
v 8.031555 -10.124875 -75.022980
v -2.558716 -11.721707 -75.022980
v -2.946716 11.311389 -75.022980
v -8.943970 10.077075 -75.022980
v -7.786194 -10.827008 -75.022980
v -0.930664 11.391665 -65.647980
v -6.466553 10.782123 -65.647980
v -14.214111 -7.636731 -75.022980
v -15.244812 6.348437 -70.335480
v -11.274841 9.102160 -65.647980
v -13.892090 7.502704 -75.022980
v -10.824829 9.317996 -60.374542
v -16.356262 5.105044 -65.647980
v -15.025757 6.556964 -60.960480
v -16.816101 4.460803 -60.960480
v -15.356140 6.238604 -56.272980
v -13.368896 7.878146 -56.272980
v -11.270874 9.104128 -46.897980
v -8.213989 10.316774 -50.413605
v -8.938538 10.078967 -56.272980
v -15.140869 6.448580 -46.897980
v -3.949463 11.212420 -56.272980
v -5.647156 10.951800 -59.788605
v -4.972046 11.069796 -53.929230
v 1.687012 11.262118 -60.960480
v -2.336487 11.352267 -63.304230
v 8.255432 9.651202 -60.960480
v 4.376465 10.843677 -56.272980
v 13.458557 6.326190 -60.960480
v 4.315002 10.856661 -51.585480
v -1.036072 11.391344 -51.585480
v 0.145630 11.370501 -42.210480
v -6.462097 10.783129 -46.897980
v -8.934265 10.080462 -37.522980
v -2.701965 11.329531 -42.210480
v 0.945496 11.325838 -37.522980
v -3.945007 11.212938 -37.522980
v 4.876648 10.731676 -35.179230
v -13.365479 7.880525 -37.522980
v -16.531128 4.871919 -37.522980
v -17.276245 3.686739 -42.210480
v -16.830444 4.438905 -32.835480
v -17.638245 2.925280 -51.585480
v -16.750305 4.559526 -46.897980
v -17.765747 2.603320 -65.647980
v -18.155579 1.186954 -70.335480
v -17.145264 3.924243 -75.022980
v -10.209839 -9.973020 -70.335480
v -15.409485 -6.567594 -70.335480
v -17.834412 -2.794919 -70.335480
v -16.401978 -5.428037 -65.647980
v -12.437622 -8.854383 -65.647980
v -13.861389 -7.908338 -60.960480
v -5.228821 -11.409818 -65.647980
v -10.267883 -9.948377 -60.960480
v -2.841492 -11.702115 -69.163605
v -2.706421 -11.711850 -62.132355
v 0.635620 -11.728726 -65.647980
v 4.367004 -11.228314 -70.335480
v 7.626709 -10.281842 -65.647980
v 13.363464 -6.801038 -65.647980
v 10.956726 -8.655225 -70.335480
v 14.242798 -5.865170 -70.335480
v 15.642334 -3.723722 -65.647980
v 16.043274 -2.742673 -70.335480
v 14.979187 -4.885602 -75.022980
v -6.429993 -11.172956 -72.679230
v -17.181580 -4.242703 -60.960480
v -10.421936 -9.881894 -56.272980
v -15.107910 -6.862546 -56.272980
v -16.188293 -5.700025 -51.585480
v -17.746643 -3.036542 -56.272980
v -17.834412 -2.794920 -51.585480
v -18.222961 -1.120908 -56.272980
v -18.151062 -1.594495 -65.647980
v 16.441589 -0.853745 4.664520
v 15.970154 -2.949646 9.352020
v 16.466553 0.038604 9.352020
v 16.386658 0.941757 14.039520
v 15.821472 2.943756 9.352020
v 15.442261 3.733352 14.039520
v 7.856750 -10.193864 28.102020
v 11.166626 -8.522309 28.102020
v 12.544922 -7.524248 32.789520
v 14.684998 -5.305192 28.102020
v 15.325378 -4.325975 32.789520
v 13.732361 -6.432237 37.477020
v 15.819336 -3.331423 37.477020
v 16.404785 -1.193880 32.789520
v -17.145264 3.924237 74.977028
v -8.943970 10.077069 74.977028
v -13.892090 7.502697 74.977028
v -15.244812 6.348432 70.289528
v -16.356262 5.105039 65.602028
v -11.274841 9.102155 65.602028
v -15.025757 6.556958 60.914528
v -4.111816 11.192611 23.414520
v 15.442261 3.733353 -14.085480
v 16.386658 0.941758 -14.085480
v 12.717896 6.998292 -18.772980
v 15.901489 2.747453 -23.460480
v 16.406677 0.796815 -28.147980
v 16.232788 1.716264 -32.835480
v 4.633789 10.787461 -21.116730
vn -0.2822 0.9594 -0.0034
vn -0.2821 0.9590 0.0274
vn -0.2208 0.9751 -0.0198
vn -0.1170 0.9931 0.0022
vn -0.1170 0.9931 0.0090
vn -0.1170 0.9931 0.0086
vn -0.1170 0.9931 0.0019
vn -0.0779 0.9966 0.0278
vn -0.0361 0.9992 -0.0198
vn 0.0483 0.9983 0.0323
vn 0.0483 0.9971 -0.0584
vn 0.0232 0.9995 -0.0190
vn 0.1450 0.9892 0.0211
vn 0.1282 0.9906 0.0486
vn 0.2784 0.9598 -0.0349
vn 0.4017 0.9127 -0.0747
vn 0.4017 0.9127 0.0748
vn 0.2345 0.9699 0.0654
vn 0.1283 0.9914 -0.0240
vn -0.0124 0.9997 0.0203
vn -0.0124 0.9997 -0.0190
vn 0.2346 0.9703 -0.0594
vn 0.1116 0.9910 0.0743
vn -0.2073 0.9777 0.0349
vn -0.2073 0.9776 0.0358
vn -0.2073 0.9779 0.0274
vn -0.1613 0.9865 -0.0276
vn 0.1117 0.9924 -0.0509
vn -0.0912 0.9955 0.0275
vn 0.1223 0.9918 -0.0358
vn -0.0912 0.9955 -0.0275
vn 0.1117 0.9924 0.0509
vn 0.1223 0.9918 0.0358
vn -0.1613 0.9865 0.0276
vn -0.0124 0.9997 0.0190
vn 0.1116 0.9910 -0.0743
vn -0.2073 0.9777 -0.0349
vn -0.2073 0.9779 -0.0274
vn -0.2073 0.9776 -0.0358
vn -0.3267 0.9449 -0.0217
vn -0.2798 0.9598 0.0238
vn -0.4282 0.9027 -0.0431
vn -0.4283 0.9026 -0.0431
vn -0.4272 0.9031 -0.0428
vn -0.5013 0.8641 0.0449
vn -0.2073 0.9779 -0.0265
vn -0.4264 0.9014 -0.0760
vn -0.0779 0.9966 0.0266
vn -0.0779 0.9966 -0.0278
vn -0.1170 0.9931 -0.0023
vn -0.1170 0.9931 -0.0019
vn -0.1170 0.9931 -0.0086
vn -0.3010 0.9515 0.0637
vn -0.3016 0.9533 -0.0182
vn -0.2822 0.9594 0.0034
vn -0.2821 0.9590 -0.0274
vn -0.5122 0.8567 0.0605
vn -0.5130 0.8582 0.0181
vn -0.4481 0.8931 -0.0406
vn -0.5627 0.8260 -0.0335
vn -0.7435 0.6683 0.0263
vn -0.6007 0.7993 0.0175
vn -0.7436 0.6684 -0.0151
vn -0.7679 0.6405 0.0061
vn -0.8432 0.5376 -0.0083
vn -0.8430 0.5379 -0.0086
vn -0.8430 0.5378 -0.0085
vn -0.8858 0.4641 0.0006
vn -0.8889 0.4582 0.0000
vn -0.8880 0.4598 0.0002
vn -0.8845 0.4665 0.0009
vn -0.7835 0.6213 -0.0010
vn -0.7437 0.6680 0.0253
vn -0.7439 0.6681 -0.0142
vn -0.8726 0.4883 0.0106
vn -0.6885 0.7244 0.0346
vn -0.6870 0.7229 0.0736
vn -0.8726 0.4882 -0.0153
vn -0.7539 0.6557 -0.0420
vn -0.7593 0.6497 -0.0368
vn -0.7607 0.6481 -0.0353
vn -0.7540 0.6554 -0.0427
vn -0.8710 0.4912 0.0063
vn -0.9053 0.4248 -0.0005
vn -0.8693 0.4881 0.0782
vn -0.8196 0.5730 -0.0060
vn -0.9585 0.2850 0.0001
vn -0.9560 0.2934 0.0009
vn -0.9569 0.2906 0.0006
vn -0.7587 0.6464 0.0816
vn -0.8687 0.4878 -0.0856
vn -0.9955 0.0946 -0.0001
vn -0.9960 0.0893 -0.0005
vn -0.9954 0.0956 0.0000
vn -0.9962 0.0868 -0.0007
vn -0.9113 0.4112 -0.0217
vn -0.9636 0.2673 0.0006
vn -0.9589 0.2837 0.0000
vn -0.9262 0.3757 -0.0306
vn -0.9264 0.3758 0.0224
vn -0.9378 0.3471 0.0056
vn -0.9955 0.0946 0.0001
vn -0.9960 0.0893 0.0005
vn -0.9583 0.2856 -0.0001
vn -0.9568 0.2907 -0.0006
vn -0.9687 0.2483 0.0031
vn -0.9164 0.4002 -0.0015
vn -0.8670 0.4973 -0.0304
vn -0.8670 0.4973 0.0304
vn -0.6215 0.7814 0.0564
vn -0.7433 0.6683 -0.0292
vn -0.7434 0.6682 -0.0290
vn -0.7432 0.6683 -0.0318
vn -0.6370 0.7704 -0.0265
vn -0.7244 0.6848 0.0794
vn -0.3420 0.9375 0.0641
vn -0.5123 0.8567 -0.0594
vn -0.5125 0.8574 -0.0473
vn -0.5126 0.8573 -0.0489
vn -0.3164 0.9440 -0.0936
vn -0.4414 0.8972 0.0166
vn -0.2798 0.9598 -0.0238
vn -0.4272 0.9031 0.0428
vn -0.4264 0.9014 0.0760
vn -0.7250 0.6854 -0.0673
vn -0.7335 0.6774 -0.0564
vn -0.5013 0.8641 -0.0449
vn -0.5999 0.7988 0.0447
vn -0.7345 0.6783 -0.0214
vn -0.8697 0.4935 0.0078
vn -0.8425 0.5377 0.0316
vn -0.5999 0.7988 -0.0447
vn -0.8429 0.5379 -0.0087
vn -0.7012 0.7130 0.0038
vn -0.6007 0.7993 -0.0175
vn -0.7824 0.6222 0.0252
vn -0.5122 0.8567 -0.0605
vn -0.4481 0.8931 0.0406
vn -0.7433 0.6682 -0.0320
vn -0.6005 0.7989 0.0332
vn -0.5216 0.8526 -0.0320
vn -0.3615 0.9319 0.0291
vn -0.3615 0.9319 -0.0287
vn -0.2900 0.9567 -0.0270
vn -0.1481 0.9887 0.0242
vn -0.2207 0.9751 0.0233
vn -0.1481 0.9886 -0.0258
vn -0.0361 0.9991 0.0209
vn -0.0385 0.9977 -0.0557
vn 0.0890 0.9936 0.0702
vn 0.0891 0.9948 -0.0488
vn 0.2095 0.9754 0.0682
vn 0.2284 0.9706 -0.0761
vn 0.3602 0.9320 0.0409
vn 0.3598 0.9311 -0.0605
vn 0.5416 0.8321 0.1196
vn 0.6963 0.7119 -0.0918
vn 0.6960 0.7116 0.0962
vn 0.5182 0.8547 -0.0324
vn 0.7364 0.6751 0.0444
vn 0.5183 0.8549 0.0200
vn 0.6840 0.7293 -0.0156
vn 0.7369 0.6755 0.0236
vn 0.6262 0.7795 0.0190
vn 0.8007 0.5990 -0.0098
vn 0.8008 0.5989 -0.0090
vn 0.8006 0.5990 -0.0111
vn 0.9227 0.3832 0.0424
vn 0.9208 0.3875 0.0453
vn 0.9226 0.3835 0.0429
vn 0.8616 0.5071 -0.0241
vn 0.8575 0.5047 -0.1001
vn 0.6828 0.7280 -0.0609
vn 0.3791 0.9251 0.0229
vn 0.3790 0.9250 -0.0280
vn 0.4500 0.8921 0.0408
vn 0.5840 0.8114 -0.0237
vn 0.5183 0.8552 0.0015
vn 0.5183 0.8552 -0.0043
vn 0.5172 0.8559 -0.0040
vn 0.3435 0.9391 0.0070
vn 0.3435 0.9391 -0.0140
vn 0.5837 0.8110 0.0388
vn 0.5183 0.8552 0.0075
vn 0.7498 0.6585 -0.0652
vn 0.7502 0.6588 0.0559
vn 0.6465 0.7596 -0.0708
vn 0.9706 0.2368 -0.0422
vn 0.9676 0.2361 -0.0901
vn 0.9211 0.3893 0.0040
vn 0.8007 0.5990 -0.0087
vn 0.9961 0.0790 0.0399
vn 0.9201 0.3889 0.0462
vn 0.9960 0.0790 -0.0406
vn 0.9760 -0.2148 -0.0363
vn 0.9368 -0.3486 0.0307
vn 0.9973 -0.0655 0.0317
vn 0.9368 -0.3486 -0.0296
vn 0.7479 -0.6631 -0.0309
vn 0.7479 -0.6631 0.0313
vn 0.8155 -0.5780 -0.0311
vn 0.8881 -0.4586 0.0314
vn 0.6639 -0.7467 0.0406
vn 0.6018 -0.7967 -0.0554
vn 0.8881 -0.4586 -0.0304
vn 0.8292 -0.5581 0.0316
vn 0.8292 -0.5581 -0.0310
vn 0.9781 -0.2060 0.0291
vn 0.9781 -0.2060 -0.0282
vn 0.9450 -0.3257 0.0305
vn 0.9450 -0.3257 -0.0294
vn 0.8984 -0.4381 0.0312
vn 0.7542 -0.6557 -0.0339
vn 0.7541 -0.6556 0.0383
vn 0.6742 -0.7374 -0.0409
vn 0.6742 -0.7374 0.0412
vn 0.8334 -0.5514 0.0386
vn 0.8984 -0.4381 -0.0302
vn 0.9816 -0.1889 0.0278
vn 0.8335 -0.5515 -0.0337
vn 0.9804 -0.1886 0.0570
vn 0.7593 -0.6494 0.0423
vn 0.7594 -0.6495 -0.0370
vn 0.9858 -0.1254 0.1119
vn 0.9853 -0.1253 -0.1160
vn 0.9073 -0.4195 0.0305
vn 0.5852 -0.8040 -0.1050
vn 0.5836 -0.8018 0.1287
vn 0.6145 -0.7866 -0.0611
vn 0.8530 -0.5210 0.0317
vn 0.9073 -0.4195 -0.0286
vn 0.8530 -0.5210 -0.0310
vn 0.9861 -0.1638 0.0268
vn 0.9862 -0.1638 -0.0259
vn 0.9589 -0.2821 0.0297
vn 0.9938 0.1001 0.0477
vn 0.9590 -0.2822 -0.0277
vn 0.9947 0.1002 0.0244
vn 0.9788 0.1739 0.1077
vn 0.9759 0.2167 -0.0259
vn 0.8458 0.5316 0.0459
vn 0.8170 0.5700 0.0871
vn 0.8166 0.5697 -0.0923
vn 0.5744 0.8152 -0.0738
vn 0.4541 0.8883 -0.0695
vn 0.4541 0.8883 0.0688
vn 0.6909 0.7189 0.0768
vn 0.4541 0.8883 0.0695
vn 0.6909 0.7189 -0.0768
vn 0.3687 0.9290 0.0305
vn 0.3687 0.9290 -0.0305
vn 0.8166 0.5697 0.0923
vn 0.8170 0.5700 -0.0871
vn 0.5744 0.8152 0.0738
vn 0.4541 0.8883 -0.0688
vn 0.2345 0.9699 -0.0654
vn 0.2346 0.9703 0.0594
vn 0.5740 0.8146 -0.0827
vn 0.4017 0.9127 0.0747
vn 0.1282 0.9906 -0.0486
vn 0.1283 0.9914 0.0240
vn 0.1450 0.9892 -0.0211
vn 0.2784 0.9598 0.0349
vn 0.4017 0.9127 -0.0748
vn 0.5225 0.8521 0.0310
vn 0.5227 0.8521 0.0272
vn 0.5226 0.8521 0.0278
vn 0.5226 0.8520 0.0314
vn 0.2781 0.9586 -0.0608
vn 0.3021 0.9531 -0.0159
vn 0.1842 0.9786 0.0918
vn 0.5684 0.8181 0.0877
vn 0.5416 0.8321 -0.1196
vn 0.3598 0.9311 0.0605
vn 0.2095 0.9754 -0.0682
vn 0.3602 0.9320 -0.0409
vn 0.0891 0.9948 0.0488
vn 0.0890 0.9936 -0.0702
vn 0.2284 0.9706 0.0761
vn -0.0232 0.9996 -0.0172
vn -0.0231 0.9997 -0.0061
vn -0.0232 0.9997 -0.0073
vn -0.0538 0.9980 -0.0336
vn 0.1520 0.9884 0.0045
vn 0.2547 0.9613 -0.1045
vn -0.0385 0.9977 0.0557
vn -0.2900 0.9567 0.0270
vn -0.1481 0.9887 -0.0242
vn -0.2213 0.9749 0.0261
vn -0.2213 0.9749 0.0253
vn -0.2212 0.9746 0.0336
vn -0.2900 0.9566 -0.0275
vn -0.5216 0.8526 0.0320
vn -0.5216 0.8526 -0.0321
vn -0.4445 0.8953 0.0304
vn -0.3615 0.9319 -0.0291
vn -0.2212 0.9746 0.0344
vn -0.3296 0.9440 0.0162
vn -0.4446 0.8956 -0.0175
vn -0.1768 0.9839 -0.0271
vn -0.1205 0.9927 0.0113
vn -0.1204 0.9926 0.0185
vn -0.1206 0.9925 0.0189
vn -0.1563 0.9863 0.0529
vn -0.1206 0.9926 0.0108
vn -0.3294 0.9434 -0.0390
vn -0.1333 0.9871 -0.0885
vn -0.3988 0.9165 0.0306
vn -0.2367 0.9715 0.0102
vn -0.4448 0.8954 -0.0187
vn -0.2214 0.9746 -0.0347
vn -0.2214 0.9745 0.0373
vn -0.4446 0.8949 -0.0384
vn -0.2965 0.9542 0.0407
vn -0.0283 0.9958 -0.0868
vn -0.1310 0.9913 0.0104
vn -0.0502 0.9975 0.0497
vn -0.3024 0.9531 -0.0147
vn 0.0442 0.9970 -0.0637
vn 0.2379 0.9700 -0.0508
vn 0.2379 0.9700 0.0499
vn 0.0093 0.9997 -0.0224
vn 0.1290 0.9906 0.0447
vn 0.3371 0.9406 -0.0397
vn 0.3372 0.9409 0.0329
vn 0.2948 0.9555 -0.0109
vn 0.0906 0.9958 0.0117
vn 0.0906 0.9958 0.0107
vn 0.0906 0.9958 0.0105
vn 0.0442 0.9969 0.0655
vn 0.2948 0.9555 0.0114
vn 0.2732 0.9619 -0.0106
vn 0.0906 0.9958 0.0095
vn 0.2731 0.9617 0.0228
vn 0.0714 0.9974 -0.0087
vn 0.0714 0.9973 0.0189
vn 0.2214 0.9750 -0.0211
vn 0.3952 0.9185 -0.0111
vn 0.3951 0.9186 -0.0114
vn 0.3952 0.9186 -0.0058
vn 0.2215 0.9751 0.0070
vn 0.3951 0.9186 -0.0054
vn 0.4498 0.8918 -0.0480
vn 0.5808 0.8133 0.0343
vn 0.5809 0.8134 -0.0301
vn 0.5012 0.8647 0.0324
vn 0.7358 0.6765 0.0304
vn 0.5014 0.8651 -0.0128
vn 0.5866 0.8057 0.0824
vn 0.7358 0.6765 -0.0300
vn 0.9200 0.3912 -0.0248
vn 0.9200 0.3912 0.0247
vn 0.8014 0.5976 -0.0253
vn 0.8679 0.4959 0.0290
vn 0.9884 0.1498 0.0256
vn 0.8679 0.4960 -0.0267
vn 0.9875 0.1497 0.0501
vn 0.9909 0.0779 -0.1094
vn 0.9909 0.0779 0.1095
vn 0.6922 0.7124 0.1156
vn 0.6917 0.7118 -0.1220
vn 0.9286 0.3703 0.0249
vn 0.7475 0.6626 -0.0465
vn 0.5071 0.8614 -0.0296
vn 0.6862 0.7269 0.0271
vn 0.5070 0.8612 0.0370
vn 0.7480 0.6631 -0.0271
vn 0.8815 0.4715 0.0237
vn 0.6930 0.7113 0.1177
vn 0.8816 0.4715 -0.0232
vn 0.6832 0.7238 0.0972
vn 0.9286 0.3702 -0.0260
vn 0.9906 0.1342 0.0265
vn 0.9685 0.2478 0.0242
vn 0.9906 0.1342 -0.0258
vn 0.9668 -0.2540 -0.0295
vn 0.9668 -0.2540 0.0286
vn 0.9996 0.0089 -0.0258
vn 0.9908 -0.1326 0.0276
vn 0.8297 -0.5564 0.0455
vn 0.8293 -0.5569 0.0459
vn 0.8282 -0.5584 0.0475
vn 0.8268 -0.5603 0.0494
vn 0.8259 -0.5596 -0.0683
vn 0.9696 -0.2113 0.1235
vn 0.9897 -0.1325 0.0544
vn 0.0000 0.0000 1.0000
vn 0.9685 0.2478 -0.0254
vn 0.8542 0.5114 0.0943
vn 0.6907 0.7089 -0.1428
vn 0.5121 0.8571 0.0558
vn 0.3115 0.9489 -0.0504
vn 0.2344 0.9718 0.0268
vn 0.0183 0.9992 -0.0352
vn -0.1685 -0.9845 0.0478
vn 0.0427 -0.9991 -0.0054
vn -0.1425 -0.9898 0.0036
vn 0.0710 -0.9969 -0.0334
vn 0.0554 -0.9965 0.0623
vn -0.2178 -0.9737 0.0670
vn -0.0542 -0.9975 -0.0461
vn -0.2427 -0.9647 -0.1025
vn -0.3334 -0.9405 -0.0660
vn -0.5469 -0.8350 0.0606
vn -0.5472 -0.8355 -0.0510
vn -0.4436 -0.8938 0.0665
vn -0.2881 -0.9573 -0.0254
vn -0.4935 -0.8694 -0.0256
vn -0.6532 -0.7558 0.0459
vn -0.3334 -0.9405 0.0652
vn -0.6532 -0.7558 -0.0454
vn -0.7404 -0.6706 -0.0464
vn -0.9088 -0.4146 0.0463
vn -0.9089 -0.4147 -0.0448
vn -0.8403 -0.5401 0.0466
vn -0.9804 -0.1962 0.0160
vn -0.8634 -0.4714 0.1799
vn -0.8377 -0.5385 0.0908
vn -0.9443 -0.3291 -0.0094
vn -0.9944 -0.1059 0.0023
vn -0.9690 -0.2409 0.0548
vn -0.9982 -0.0602 -0.0000
vn -0.9836 -0.1805 -0.0000
vn -0.9723 -0.2335 0.0028
vn -0.9709 -0.2393 0.0050
vn -0.9719 -0.2353 0.0034
vn -0.9704 -0.2413 0.0057
vn -0.8222 -0.5671 0.0489
vn -0.8700 -0.4930 -0.0091
vn -0.8223 -0.5671 -0.0468
vn -0.5411 -0.8398 -0.0435
vn -0.5411 -0.8398 0.0442
vn -0.6325 -0.7732 -0.0460
vn -0.7403 -0.6706 0.0473
vn -0.6325 -0.7732 0.0463
vn -0.4903 -0.8713 -0.0194
vn -0.3400 -0.9394 -0.0445
vn -0.3381 -0.9356 0.1018
vn -0.3822 -0.9237 0.0265
vn -0.3124 -0.9472 -0.0719
vn -0.4896 -0.8700 -0.0592
vn -0.5580 -0.8293 0.0300
vn -0.2709 -0.9624 0.0215
vn -0.2701 -0.9595 -0.0799
vn -0.3901 -0.9205 -0.0238
vn -0.3917 -0.9198 0.0228
vn -0.3901 -0.9205 0.0235
vn -0.3988 -0.9168 0.0201
vn -0.2410 -0.9703 -0.0210
vn -0.1352 -0.9906 0.0187
vn -0.1352 -0.9906 -0.0191
vn -0.0033 -0.9998 -0.0173
vn -0.0306 -0.9994 0.0175
vn 0.0975 -0.9951 0.0182
vn 0.0975 -0.9951 -0.0181
vn -0.0305 -0.9980 -0.0562
vn 0.1689 -0.9856 -0.0057
vn 0.2042 -0.9764 -0.0709
vn 0.2046 -0.9786 0.0204
vn 0.0350 -0.9994 0.0040
vn 0.4497 -0.8930 0.0167
vn 0.3464 -0.9378 -0.0229
vn 0.3264 -0.9448 0.0304
vn 0.4494 -0.8926 -0.0361
vn 0.6573 -0.7531 -0.0295
vn 0.7184 -0.6944 0.0415
vn 0.7180 -0.6941 -0.0508
vn 0.5985 -0.7984 0.0656
vn 0.8421 -0.5390 0.0199
vn 0.8414 -0.5385 0.0460
vn 0.8253 -0.5606 0.0682
vn 0.5988 -0.7988 -0.0576
vn 0.4807 -0.8745 -0.0641
vn 0.4805 -0.8740 0.0724
vn 0.6361 -0.7588 0.1397
vn 0.8249 -0.5603 -0.0751
vn 0.6384 -0.7616 -0.1112
vn 0.8304 -0.5569 0.0154
vn 0.9374 -0.3475 0.0244
vn 0.9375 -0.3476 -0.0187
vn 0.3900 -0.9201 0.0361
vn 0.6296 -0.7712 -0.0936
vn 0.2919 -0.9559 -0.0332
vn 0.2919 -0.9559 0.0335
vn 0.0843 -0.9964 -0.0053
vn 0.2488 -0.9686 0.0035
vn 0.1641 -0.9860 0.0298
vn 0.0455 -0.9978 -0.0481
vn 0.0667 -0.9955 0.0680
vn -0.2160 -0.9738 -0.0713
vn -0.2413 -0.9647 0.1052
vn -0.0542 -0.9974 0.0468
vn -0.0998 -0.9943 -0.0376
vn -0.2821 -0.9589 0.0305
vn -0.1130 -0.9934 0.0181
vn -0.1592 -0.9850 -0.0665
vn -0.0343 -0.9973 -0.0652
vn -0.1593 -0.9859 0.0521
vn 0.0737 -0.9962 0.0459
vn 0.0737 -0.9971 -0.0209
vn 0.2482 -0.9662 -0.0693
vn 0.3900 -0.9202 -0.0328
vn 0.1641 -0.9861 -0.0253
vn 0.3172 -0.9480 0.0267
vn 0.3173 -0.9480 -0.0249
vn 0.5524 -0.8323 0.0464
vn 0.5527 -0.8327 0.0350
vn 0.5527 -0.8327 0.0338
vn 0.5524 -0.8322 0.0477
vn 0.6321 -0.7743 -0.0306
vn 0.1906 -0.9815 0.0181
vn 0.3501 -0.9366 -0.0146
vn 0.9368 -0.3486 -0.0307
vn 0.9716 -0.2350 -0.0287
vn 0.9716 -0.2350 0.0264
vn 0.9368 -0.3486 0.0296
vn 0.9958 -0.0872 -0.0272
vn 0.9991 0.0342 0.0249
vn 0.9991 0.0342 -0.0247
vn 0.9959 -0.0873 0.0255
vn 0.9833 0.1802 -0.0244
vn 0.9573 0.2881 -0.0247
vn 0.9573 0.2881 0.0247
vn 0.9833 0.1802 0.0256
vn 0.9116 0.4104 -0.0246
vn 0.8616 0.5071 0.0241
vn 0.8616 0.5071 -0.0233
vn 0.7369 0.6755 -0.0236
vn 0.6840 0.7293 0.0156
vn 0.6840 0.7292 -0.0208
vn 0.8013 0.5976 0.0282
vn 0.7364 0.6751 -0.0444
vn 0.6960 0.7116 -0.0962
vn 0.5182 0.8547 0.0324
vn 0.5183 0.8549 -0.0200
vn 0.6963 0.7119 0.0918
vn 0.8584 0.5125 -0.0225
vn 0.9116 0.4104 0.0245
vn 0.9518 0.3056 -0.0246
vn 0.9518 0.3056 0.0246
vn 0.8578 0.5121 -0.0430
vn 0.9810 0.1922 0.0251
vn 0.9810 0.1922 -0.0257
vn 0.9858 -0.1254 -0.1119
vn 0.9816 -0.1889 -0.0278
vn 0.9804 -0.1886 -0.0570
vn 0.9976 -0.0644 0.0265
vn 0.9853 -0.1253 0.1160
vn 0.9073 -0.4195 -0.0305
vn 0.8335 -0.5515 0.0337
vn 0.7594 -0.6495 0.0370
vn 0.7593 -0.6494 -0.0423
vn 0.4945 -0.8659 0.0754
vn 0.4959 -0.8683 -0.0038
vn 0.5836 -0.8018 -0.1287
vn 0.2131 -0.9716 -0.1030
vn 0.1881 -0.9796 0.0702
vn 0.5852 -0.8040 0.1050
vn 0.3064 -0.9495 -0.0671
vn 0.3074 -0.9516 0.0014
vn 0.3072 -0.9517 0.0016
vn 0.3072 -0.9517 0.0005
vn 0.2522 -0.9672 -0.0305
vn 0.1283 -0.9897 0.0633
vn 0.0725 -0.9967 0.0363
vn 0.0850 -0.9963 -0.0160
vn -0.1050 -0.9943 0.0181
vn -0.1112 -0.9938 0.0087
vn -0.1041 -0.9944 0.0192
vn -0.0937 -0.9933 -0.0677
vn -0.1117 -0.9937 0.0077
vn -0.2803 -0.9599 -0.0038
vn -0.2802 -0.9599 -0.0050
vn -0.2803 -0.9599 0.0050
vn -0.2802 -0.9599 0.0058
vn -0.2410 -0.9703 0.0208
vn -0.1041 -0.9944 -0.0183
vn -0.4019 -0.9157 -0.0037
vn -0.4687 -0.8831 -0.0199
vn -0.3697 -0.9266 -0.0685
vn -0.4686 -0.8829 0.0295
vn -0.6223 -0.7814 0.0457
vn -0.7178 -0.6955 -0.0308
vn -0.7178 -0.6955 0.0312
vn -0.6109 -0.7916 -0.0114
vn -0.8848 -0.4637 0.0455
vn -0.8483 -0.5294 -0.0092
vn -0.8057 -0.5911 0.0371
vn -0.5564 -0.8287 -0.0598
vn -0.8057 -0.5910 -0.0396
vn -0.5574 -0.8301 -0.0186
vn -0.7166 -0.6961 0.0442
vn -0.9054 -0.4242 0.0170
vn -0.6461 -0.7600 -0.0704
vn -0.8831 -0.4668 0.0465
vn -0.8079 -0.5873 0.0480
vn -0.8832 -0.4668 -0.0452
vn -0.6474 -0.7615 -0.0329
vn -0.9001 -0.4356 0.0048
vn -0.8080 -0.5874 -0.0461
vn -0.9473 -0.3204 -0.0020
vn -0.7232 -0.6890 0.0479
vn -0.7232 -0.6890 -0.0472
vn -0.8696 -0.4928 0.0305
vn -0.9397 -0.3420 0.0025
vn -0.8935 -0.4490 0.0031
vn -0.9296 -0.3686 -0.0040
vn -0.8857 -0.4642 0.0092
vn -0.9544 -0.2987 -0.0000
vn -0.8144 -0.5803 -0.0059
vn -0.7696 -0.6381 0.0225
vn -0.7698 -0.6382 -0.0126
vn -0.8537 -0.5199 0.0305
vn -0.7132 -0.7003 -0.0308
vn -0.5716 -0.8168 0.0786
vn -0.6105 -0.7910 -0.0399
vn -0.5716 -0.8168 -0.0778
vn -0.4205 -0.9044 -0.0719
vn -0.2371 -0.9695 0.0627
vn -0.2371 -0.9696 -0.0611
vn -0.3697 -0.9266 0.0691
vn -0.1066 -0.9927 -0.0568
vn 0.0276 -0.9985 -0.0463
vn 0.0276 -0.9985 0.0468
vn -0.0726 -0.9962 0.0486
vn -0.1291 -0.9885 0.0783
vn 0.0956 -0.9953 -0.0142
vn 0.1129 -0.9936 0.0081
vn -0.0336 -0.9994 -0.0062
vn 0.2656 -0.9638 0.0248
vn 0.2680 -0.9632 0.0201
vn 0.2651 -0.9639 0.0258
vn 0.1475 -0.9878 -0.0508
vn 0.2685 -0.9631 0.0199
vn 0.5262 -0.8488 0.0523
vn 0.6114 -0.7826 -0.1168
vn 0.3064 -0.9496 0.0658
vn 0.4241 -0.9032 -0.0659
vn 0.7772 -0.6279 0.0414
vn 0.5262 -0.8488 -0.0523
vn 0.4241 -0.9032 0.0659
vn 0.7772 -0.6279 -0.0414
vn 0.8176 -0.5619 0.1257
vn 0.8176 -0.5619 -0.1257
vn 0.2651 -0.9639 -0.0258
vn 0.2680 -0.9632 -0.0201
vn 0.2656 -0.9638 -0.0248
vn 0.2685 -0.9631 -0.0199
vn 0.6114 -0.7826 0.1168
vn 0.3064 -0.9496 -0.0658
vn 0.0956 -0.9953 0.0142
vn 0.3064 -0.9495 0.0671
vn 0.1881 -0.9796 -0.0702
vn 0.0276 -0.9985 -0.0468
vn 0.0276 -0.9985 0.0463
vn 0.1129 -0.9936 -0.0081
vn -0.1066 -0.9927 0.0568
vn -0.1291 -0.9885 -0.0783
vn -0.0336 -0.9994 0.0062
vn -0.3012 -0.9526 0.0436
vn -0.1637 -0.9863 -0.0219
vn -0.4205 -0.9044 0.0719
vn -0.2371 -0.9695 -0.0627
vn -0.4205 -0.9044 -0.0723
vn -0.4205 -0.9044 0.0723
vn -0.3012 -0.9526 -0.0436
vn -0.6667 -0.7353 0.1220
vn -0.6667 -0.7353 -0.1220
vn -0.9342 -0.3566 0.0019
vn -0.9333 -0.3563 -0.0451
vn -0.7123 -0.6995 0.0586
vn -0.7123 -0.6995 -0.0586
vn -0.8541 -0.5201 -0.0010
vn -0.9035 -0.4286 0.0090
vn -0.8663 -0.4981 -0.0372
vn -0.7132 -0.7003 0.0308
vn -0.8663 -0.4980 0.0395
vn -0.7958 -0.6046 -0.0344
vn -0.5716 -0.8168 0.0778
vn -0.6105 -0.7910 0.0399
vn -0.5716 -0.8168 -0.0786
vn -0.7957 -0.6046 0.0366
vn -0.6109 -0.7916 0.0114
vn -0.7178 -0.6955 -0.0312
vn -0.8749 -0.4826 -0.0399
vn -0.8855 -0.4644 -0.0132
vn -0.8854 -0.4640 -0.0266
vn -0.8853 -0.4643 -0.0259
vn -0.8857 -0.4642 -0.0125
vn -0.7178 -0.6955 0.0308
vn -0.8748 -0.4825 0.0423
vn -0.8057 -0.5911 -0.0371
vn -0.6223 -0.7814 -0.0457
vn -0.5564 -0.8287 0.0598
vn -0.7166 -0.6961 -0.0442
vn -0.5574 -0.8301 0.0186
vn -0.8057 -0.5910 0.0396
vn -0.6461 -0.7600 0.0704
vn -0.9054 -0.4242 -0.0170
vn -0.8831 -0.4668 -0.0465
vn -0.6474 -0.7615 0.0329
vn -0.8079 -0.5873 -0.0480
vn -0.8832 -0.4668 0.0452
vn -0.8080 -0.5874 0.0461
vn -0.7232 -0.6890 -0.0479
vn -0.5580 -0.8293 -0.0300
vn -0.4896 -0.8700 0.0592
vn -0.3822 -0.9237 -0.0265
vn -0.2701 -0.9595 0.0799
vn -0.2709 -0.9624 -0.0215
vn -0.4903 -0.8713 0.0194
vn -0.3901 -0.9205 0.0238
vn -0.1352 -0.9906 0.0191
vn -0.1352 -0.9906 -0.0187
vn -0.3901 -0.9205 -0.0235
vn -0.3917 -0.9198 -0.0228
vn -0.3988 -0.9168 -0.0201
vn -0.2410 -0.9703 0.0210
vn -0.2410 -0.9703 -0.0208
vn -0.0033 -0.9998 0.0173
vn -0.1041 -0.9944 0.0183
vn -0.1041 -0.9944 -0.0192
vn -0.1112 -0.9938 -0.0087
vn -0.1050 -0.9943 -0.0181
vn -0.1117 -0.9937 -0.0077
vn -0.2803 -0.9599 -0.0050
vn -0.2802 -0.9599 0.0050
vn -0.2803 -0.9599 0.0038
vn -0.2802 -0.9599 -0.0058
vn -0.3697 -0.9266 0.0685
vn -0.4686 -0.8829 -0.0295
vn -0.4687 -0.8831 0.0199
vn -0.4019 -0.9157 0.0037
vn -0.3697 -0.9266 -0.0691
vn -0.2371 -0.9696 0.0611
vn -0.0726 -0.9962 -0.0486
vn -0.0937 -0.9933 0.0677
vn 0.0725 -0.9967 -0.0363
vn 0.0850 -0.9963 0.0160
vn 0.2131 -0.9716 0.1030
vn 0.2522 -0.9672 0.0305
vn 0.1283 -0.9897 -0.0633
vn 0.3072 -0.9517 -0.0005
vn 0.3072 -0.9517 -0.0016
vn 0.3074 -0.9516 -0.0015
vn 0.1286 -0.9915 0.0185
vn 0.2339 -0.9720 -0.0209
vn 0.3072 -0.9517 0.0007
vn 0.4959 -0.8683 0.0038
vn 0.5391 -0.8422 -0.0021
vn 0.4945 -0.8659 -0.0754
vn 0.5166 -0.8558 0.0293
vn 0.4459 -0.8830 0.1465
vn 0.4501 -0.8912 -0.0574
vn 0.2339 -0.9720 0.0206
vn 0.0975 -0.9951 -0.0182
vn 0.0975 -0.9951 0.0181
vn 0.2046 -0.9786 -0.0204
vn 0.3464 -0.9378 0.0229
vn -0.0306 -0.9994 -0.0175
vn -0.0305 -0.9980 0.0562
vn 0.2042 -0.9763 0.0715
vn 0.1681 -0.9857 0.0055
vn 0.0347 -0.9994 -0.0039
vn -0.0891 -0.9960 -0.0071
vn -0.0345 -0.9964 -0.0772
vn -0.2297 -0.9732 0.0078
vn -0.3381 -0.9356 -0.1018
vn -0.3124 -0.9472 0.0719
vn -0.0346 -0.9973 0.0649
vn -0.1593 -0.9859 -0.0521
vn -0.1130 -0.9934 -0.0181
vn -0.1592 -0.9850 0.0665
vn 0.0737 -0.9971 0.0209
vn 0.0737 -0.9962 -0.0460
vn 0.2488 -0.9686 -0.0035
vn 0.0843 -0.9964 0.0053
vn 0.2487 -0.9660 0.0707
vn 0.2485 -0.9661 0.0705
vn 0.2482 -0.9662 0.0700
vn 0.3324 -0.9411 -0.0621
vn 0.2508 -0.9652 0.0741
vn 0.4239 -0.9051 -0.0339
vn 0.4240 -0.9054 0.0219
vn 0.6722 -0.7394 -0.0386
vn 0.7655 -0.6309 0.1261
vn 0.7651 -0.6306 -0.1300
vn 0.5684 -0.8216 0.0442
vn 0.9279 -0.3716 -0.0299
vn 0.9966 0.0536 0.0619
vn 0.8146 -0.5773 -0.0564
vn 0.9702 0.1689 0.1738
vn 0.9723 0.1693 -0.1611
vn 0.9761 -0.2148 0.0333
vn 0.9979 0.0537 0.0349
vn 0.9832 0.1790 -0.0364
vn 0.9210 0.3882 0.0343
vn 0.9214 0.3884 0.0121
vn 0.9832 0.1790 0.0347
vn 0.9832 0.1792 0.0344
vn 0.9828 0.1815 0.0332
vn 0.9827 0.1822 0.0328
vn 0.8405 0.5413 -0.0233
vn 0.8405 0.5413 0.0237
vn 0.8911 0.4532 -0.0231
vn 0.6351 0.7689 0.0742
vn 0.8539 0.5112 -0.0980
vn 0.8906 0.4529 -0.0410
vn 0.6610 0.7494 -0.0383
vn 0.6354 0.7693 -0.0674
vn 0.3115 0.9489 -0.0493
vn 0.3115 0.9489 0.0504
vn 0.4130 0.9091 0.0542
vn 0.5121 0.8571 -0.0558
vn -0.0000 0.0000 -1.0000
vn 0.2344 0.9718 -0.0268
vn 0.0183 0.9992 0.0352
vn 0.0601 0.9980 -0.0215
vn -0.1094 0.9939 0.0150
vn -0.2015 0.9793 -0.0204
vn -0.5332 0.8448 -0.0447
vn -0.4599 0.8839 0.0849
vn -0.3298 0.9439 0.0162
vn -0.3298 0.9440 -0.0105
vn -0.6168 0.7842 -0.0678
vn -0.6171 0.7845 0.0618
vn -0.5504 0.8348 0.0128
vn -0.7603 0.6494 0.0147
vn -0.7604 0.6494 -0.0095
vn -0.6367 0.7711 0.0071
vn -0.6364 0.7713 0.0075
vn -0.6364 0.7714 0.0023
vn -0.5445 0.8377 -0.0436
vn -0.3988 0.9165 -0.0306
vn -0.4448 0.8954 0.0187
vn -0.5657 0.8244 0.0188
vn -0.4446 0.8949 0.0384
vn -0.6364 0.7714 -0.0027
vn -0.2214 0.9746 0.0347
vn -0.2214 0.9745 -0.0373
vn -0.2367 0.9715 -0.0102
vn -0.2965 0.9542 -0.0407
vn -0.0502 0.9975 -0.0497
vn -0.0283 0.9958 0.0868
vn -0.3024 0.9531 0.0147
vn -0.1310 0.9913 -0.0104
vn -0.1093 0.9928 -0.0489
vn 0.0093 0.9997 0.0224
vn 0.1290 0.9906 -0.0447
vn 0.2379 0.9700 -0.0499
vn 0.0442 0.9970 0.0637
vn 0.2379 0.9700 0.0508
vn 0.3371 0.9406 0.0397
vn 0.4130 0.9089 -0.0576
vn 0.5375 0.8411 0.0597
vn 0.5378 0.8415 -0.0518
vn 0.6614 0.7499 -0.0163
vn 0.7902 0.6126 0.0188
vn 0.7901 0.6126 -0.0212
vn 0.6464 0.7596 0.0724
vn 0.3373 0.9413 -0.0150
vn 0.3238 0.9461 0.0016
vn 0.0442 0.9969 -0.0655
vn 0.0994 0.9950 -0.0015
vn 0.0994 0.9949 0.0162
vn 0.3238 0.9460 -0.0147
vn 0.1222 0.9924 -0.0132
vn -0.0989 0.9950 0.0147
vn -0.0932 0.9954 0.0199
vn -0.1333 0.9871 0.0885
vn -0.1563 0.9863 -0.0529
vn -0.3294 0.9434 0.0390
vn -0.1768 0.9839 0.0271
vn -0.3296 0.9440 -0.0162
vn -0.0143 0.9944 -0.1044
vn -0.0167 0.9997 0.0157
vn -0.0188 0.9997 0.0154
vn -0.0232 0.9997 0.0073
vn -0.2213 0.9749 -0.0261
vn -0.2212 0.9746 -0.0344
vn -0.2212 0.9746 -0.0336
vn -0.0144 0.9998 0.0120
vn 0.1476 0.9889 -0.0158
vn 0.1906 0.9813 0.0275
vn 0.1902 0.9792 -0.0707
vn -0.0231 0.9997 0.0061
vn 0.1520 0.9884 -0.0045
vn 0.3003 0.9535 0.0262
vn 0.2547 0.9613 0.1045
vn -0.2213 0.9749 -0.0253
vn -0.0538 0.9980 0.0336
vn -0.4446 0.8956 0.0175
vn -0.2900 0.9566 0.0275
vn -0.4445 0.8953 -0.0304
vn -0.6885 0.7244 -0.0346
vn -0.5216 0.8526 0.0321
vn -0.7541 0.6554 0.0425
vn -0.7593 0.6497 0.0369
vn -0.7540 0.6554 0.0427
vn -0.6870 0.7229 -0.0736
vn -0.5657 0.8244 -0.0188
vn -0.8726 0.4883 -0.0106
vn -0.8726 0.4882 0.0153
vn -0.7439 0.6681 0.0142
vn -0.8809 0.4733 -0.0039
vn -0.7437 0.6680 -0.0253
vn -0.7972 0.6036 0.0106
vn -0.9053 0.4248 0.0005
vn -0.7607 0.6481 0.0353
vn -0.8710 0.4912 -0.0063
vn -0.7587 0.6464 -0.0816
vn -0.9560 0.2934 -0.0009
vn -0.8196 0.5730 0.0060
vn -0.8693 0.4881 -0.0782
vn 0.1477 0.9890 0.0133
vn -0.8687 0.4878 0.0856
vn -0.9113 0.4112 0.0217
vn -0.8711 0.4908 -0.0180
vn -0.8686 0.4897 -0.0759
vn -0.8685 0.4898 -0.0758
vn -0.8686 0.4896 -0.0759
vn -0.8687 0.4894 -0.0762
vn -0.9636 0.2673 -0.0006
vn -0.8668 0.4888 0.0986
vn -0.9962 0.0868 0.0007
vn -0.9628 0.2652 -0.0526
vn -0.7391 0.6719 -0.0478
vn -0.4436 -0.8938 -0.0665
vn -0.5472 -0.8355 0.0510
vn -0.8634 -0.4714 -0.1799
vn -0.8377 -0.5385 -0.0908
vn -0.6532 -0.7558 0.0454
vn -0.8403 -0.5401 -0.0466
vn -0.5469 -0.8350 -0.0606
vn -0.6532 -0.7558 -0.0459
vn -0.3334 -0.9405 0.0660
vn -0.3334 -0.9405 -0.0652
vn -0.4935 -0.8694 0.0256
vn -0.2178 -0.9737 -0.0670
vn -0.2160 -0.9738 0.0713
vn -0.0542 -0.9975 0.0461
vn -0.0542 -0.9974 -0.0468
vn -0.2413 -0.9647 -0.1052
vn -0.0998 -0.9943 0.0376
vn 0.0455 -0.9978 0.0481
vn 0.0667 -0.9955 -0.0680
vn 0.0554 -0.9965 -0.0623
vn 0.2023 -0.9777 0.0567
vn 0.2024 -0.9777 -0.0553
vn 0.5174 -0.8527 0.0717
vn 0.3630 -0.9296 -0.0647
vn 0.3324 -0.9411 0.0627
vn 0.5174 -0.8528 -0.0705
vn 0.6469 -0.7619 -0.0308
vn 0.8032 -0.5948 0.0319
vn 0.8032 -0.5948 -0.0313
vn 0.6705 -0.7375 0.0806
vn 0.8659 -0.4993 -0.0304
vn 0.9668 -0.2540 0.0295
vn 0.9668 -0.2540 -0.0286
vn 0.9279 -0.3715 0.0312
vn 0.8659 -0.4993 0.0317
vn 0.9897 -0.1325 -0.0544
vn 0.9696 -0.2113 -0.1235
vn 0.9908 -0.1326 -0.0276
vn 0.5974 -0.7922 -0.1244
vn 0.6462 -0.7610 -0.0575
vn 0.3630 -0.9295 0.0649
vn 0.2585 -0.9657 -0.0253
vn 0.0710 -0.9969 0.0334
vn -0.2427 -0.9647 0.1025
vn 0.0427 -0.9991 0.0054
vn -0.1425 -0.9898 -0.0036
vn -0.1685 -0.9845 -0.0478
vn -0.2881 -0.9573 0.0254
vn -0.7404 -0.6706 0.0464
vn -0.4937 -0.8696 -0.0039
vn -0.7403 -0.6706 -0.0473
vn -0.5411 -0.8398 0.0435
vn -0.3400 -0.9394 0.0445
vn -0.5411 -0.8398 -0.0442
vn -0.3403 -0.9403 0.0022
vn -0.6325 -0.7732 0.0460
vn -0.8223 -0.5671 0.0468
vn -0.8222 -0.5671 -0.0489
vn -0.8696 -0.4928 -0.0305
vn -0.8700 -0.4930 0.0091
vn -0.6325 -0.7732 -0.0463
vn -0.7232 -0.6890 0.0472
vn -0.9001 -0.4356 -0.0048
vn -0.9473 -0.3204 0.0020
vn -0.9704 -0.2413 -0.0057
vn -0.9709 -0.2393 -0.0050
vn -0.9719 -0.2353 -0.0034
vn -0.9723 -0.2335 -0.0028
vn -0.9944 -0.1059 -0.0023
vn -0.9443 -0.3291 0.0094
vn -0.9690 -0.2409 -0.0548
vn -0.9804 -0.1962 -0.0160
vn -0.9089 -0.4147 0.0448
vn -0.9088 -0.4146 -0.0463
vn -0.2821 -0.9589 -0.0305
vn 0.1290 0.9907 0.0429
vn 0.9832 0.1823 0.0114
vn 0.4780 -0.8768 0.0516
vn 0.3246 -0.9454 -0.0299
vn 0.2768 -0.9540 -0.1151
vn 0.5686 -0.8218 -0.0358
vn 0.4785 -0.8777 -0.0282
vn -0.4019 -0.9155 -0.0189
vn -0.9799 -0.1995 0.0010
vn -0.9417 -0.3365 -0.0015
vn -0.9704 -0.2413 0.0121
vn -0.9701 -0.2412 0.0276
vn -0.9495 -0.3135 -0.0166
vn -0.9742 -0.2258 -0.0024
vn -0.1637 -0.9863 0.0219
vn -0.0621 -0.9968 -0.0509
vn -0.0621 -0.9968 0.0509
vn 0.1475 -0.9878 0.0508
vn 0.9590 -0.2822 0.0277
vn 0.9589 -0.2821 -0.0297
vn 0.8530 -0.5210 0.0310
vn 0.9947 0.1002 -0.0244
vn 0.9862 -0.1638 0.0259
vn 0.9938 0.1001 -0.0477
vn 0.9861 -0.1638 -0.0268
vn 0.9986 -0.0453 0.0258
vn 0.9759 0.2167 0.0259
vn 0.9759 0.2167 -0.0251
vn 0.9470 0.3204 0.0226
vn 0.9977 -0.0453 0.0498
vn 0.9470 0.3204 -0.0242
vn 0.7365 0.6751 -0.0422
vn 0.8247 0.5584 0.0904
vn 0.7356 0.6743 0.0642
vn 0.8465 0.5320 -0.0211
vn 0.8458 0.5316 -0.0459
vn 0.9073 -0.4195 0.0286
vn 0.8530 -0.5210 -0.0317
vn 0.6145 -0.7866 0.0611
vn -0.4019 -0.9155 0.0189
vn 0.1286 -0.9915 -0.0185
vn 0.3072 -0.9517 -0.0007
vn 0.2339 -0.9720 0.0209
vn 0.4459 -0.8830 -0.1465
vn 0.5391 -0.8422 0.0021
vn 0.2339 -0.9720 -0.0206
vn 0.4501 -0.8912 0.0574
vn 0.5166 -0.8558 -0.0293
vn 0.6742 -0.7374 -0.0412
vn 0.7542 -0.6557 0.0339
vn 0.7541 -0.6556 -0.0383
vn 0.6024 -0.7975 0.0332
vn 0.8292 -0.5581 0.0310
vn 0.9450 -0.3257 0.0294
vn 0.8984 -0.4381 -0.0312
vn 0.9450 -0.3257 -0.0305
vn 0.9979 0.0590 0.0255
vn 0.9976 -0.0644 -0.0269
vn 0.9781 -0.2060 0.0282
vn 0.9979 0.0590 -0.0258
vn 0.8292 -0.5581 -0.0316
vn 0.8881 -0.4586 0.0304
vn 0.9781 -0.2060 -0.0291
vn 0.6018 -0.7967 0.0554
vn 0.8334 -0.5514 -0.0386
vn 0.6742 -0.7374 0.0409
vn 0.8984 -0.4381 0.0302
vn 0.8246 0.5583 -0.0907
vn 0.8881 -0.4586 -0.0314
vn -0.0890 -0.9960 0.0071
vn -0.0343 -0.9964 0.0775
vn -0.2297 -0.9732 -0.0078
vn -0.3403 -0.9403 -0.0022
vn -0.4937 -0.8696 0.0039
vn -0.8668 0.4888 -0.0986
vn -0.7391 0.6719 0.0478
vn -0.9628 0.2652 0.0526
vn -0.8686 0.4896 0.0759
vn -0.8685 0.4898 0.0758
vn -0.8686 0.4897 0.0759
vn -0.8687 0.4894 0.0762
vn -0.4599 0.8839 -0.0849
vn -0.5332 0.8448 0.0447
vn -0.6171 0.7845 -0.0618
vn -0.6168 0.7842 0.0678
vn -0.7603 0.6494 -0.0147
vn -0.8711 0.4908 0.0180
vn -0.7604 0.6494 0.0095
vn -0.6364 0.7714 -0.0023
vn -0.6364 0.7713 -0.0075
vn -0.6368 0.7710 -0.0071
vn -0.5504 0.8348 -0.0128
vn -0.5445 0.8377 0.0436
vn -0.3298 0.9439 -0.0162
vn -0.3298 0.9440 0.0105
vn -0.2015 0.9793 0.0204
vn 0.2585 -0.9657 0.0253
vn 0.0601 0.9980 0.0215
vn -0.1094 0.9939 -0.0150
vn 0.3115 0.9489 0.0493
vn 0.1290 0.9907 -0.0429
vn 0.5975 -0.7923 0.1239
vn 0.9986 0.0089 -0.0527
vn 0.4130 0.9091 -0.0542
vn 0.4130 0.9089 0.0576
vn 0.5878 0.8074 -0.0517
vn 0.4499 0.8920 0.0429
vn 0.3003 0.9535 -0.0262
vn 0.1906 0.9814 -0.0251
vn 0.1902 0.9792 0.0707
vn 0.0245 0.9995 -0.0179
vn 0.0245 0.9995 0.0183
vn -0.1093 0.9928 0.0489
vn -0.0932 0.9954 -0.0199
vn -0.6364 0.7714 0.0027
vn -0.0231 0.9996 -0.0187
vn -0.2207 0.9751 -0.0233
vn -0.1481 0.9886 0.0258
vn -0.3615 0.9319 0.0287
vn -0.1170 0.9931 -0.0090
vn -0.0361 0.9992 0.0198
vn -0.2208 0.9751 0.0198
vn -0.0361 0.9991 -0.0209
vn 0.0483 0.9983 -0.0323
vn 0.1487 0.9885 0.0259
vn 0.0483 0.9971 0.0584
vn 0.0232 0.9995 0.0190
vn 0.9788 0.1739 -0.1077
vn 0.7356 0.6743 -0.0642
vn 0.8465 0.5320 0.0211
vn 0.5740 0.8146 0.0827
vn 0.9470 0.3204 0.0242
vn 0.9470 0.3204 -0.0226
vn 0.7365 0.6751 0.0422
vn 0.8247 0.5584 -0.0904
vn 0.5225 0.8521 -0.0310
vn 0.5226 0.8520 -0.0314
vn 0.5226 0.8521 -0.0278
vn 0.5684 0.8181 -0.0877
vn 0.8246 0.5583 0.0907
vn 0.5227 0.8521 -0.0272
vn 0.9759 0.2167 0.0251
vn 0.9977 -0.0453 -0.0498
vn 0.9986 -0.0453 -0.0258
vn 0.9810 0.1922 -0.0251
vn 0.8578 0.5121 0.0430
vn 0.9810 0.1922 0.0257
vn 0.8584 0.5125 0.0225
vn 0.9976 -0.0644 -0.0265
vn 0.9976 -0.0644 0.0269
vn 0.9979 0.0590 -0.0255
vn 0.9116 0.4104 -0.0245
vn 0.9116 0.4104 0.0246
vn 0.9833 0.1802 -0.0256
vn 0.9979 0.0590 0.0258
vn 0.6024 -0.7975 -0.0332
vn 0.9972 -0.0655 -0.0353
vn 0.9832 0.1802 0.0283
vn 0.4499 0.8920 -0.0429
vn 0.3021 0.9531 0.0159
vn 0.1842 0.9786 -0.0918
vn 0.2781 0.9586 0.0608
vn 0.1487 0.9885 -0.0259
vn -0.6005 0.7989 -0.0332
vn -0.6406 0.7677 -0.0125
vn -0.7002 0.7120 0.0534
vn -0.5624 0.8256 0.0461
vn -0.4336 0.9006 -0.0312
vn -0.0124 0.9997 -0.0203
vn -0.3267 0.9449 0.0217
vn -0.2073 0.9779 0.0265
vn -0.0779 0.9966 -0.0266
usemtl Default_OBJ.337
s 1
f 1//1 2//1 3//1
f 3//2 4//2 1//2
f 3//3 5//3 4//3
f 6//4 5//5 3//6
f 3//6 2//7 6//4
f 2//8 7//8 6//8
f 8//9 5//9 6//9
f 9//10 8//10 6//10
f 6//11 10//11 9//11
f 6//12 7//12 10//12
f 9//13 10//13 11//13
f 10//14 7//14 11//14
f 9//15 11//15 12//15
f 11//16 13//16 14//16
f 12//17 11//17 14//17
f 15//18 13//18 11//18
f 11//19 7//19 15//19
f 15//20 7//20 16//20
f 16//21 17//21 15//21
f 15//22 18//22 13//22
f 15//23 17//23 18//23
f 19//24 17//25 16//26
f 20//27 17//27 19//27
f 18//28 17//28 21//28
f 21//29 17//29 20//29
f 22//30 18//30 21//30
f 20//31 23//31 21//31
f 21//32 23//32 24//32
f 21//33 24//33 22//33
f 25//34 23//34 20//34
f 23//35 26//35 27//35
f 24//36 23//36 27//36
f 25//37 26//38 23//39
f 28//40 25//40 20//40
f 25//41 29//41 30//41
f 31//42 29//43 25//44
f 28//45 32//45 25//45
f 25//37 30//46 26//38
f 25//47 32//47 31//47
f 30//48 33//48 26//48
f 34//49 33//49 30//49
f 34//50 30//51 35//52
f 29//53 36//53 30//53
f 30//54 36//54 37//54
f 35//55 30//55 37//55
f 37//56 38//56 35//56
f 39//57 38//57 37//57
f 37//58 36//58 39//58
f 40//59 38//59 39//59
f 39//60 36//60 41//60
f 39//61 41//61 42//61
f 39//62 43//62 40//62
f 42//63 43//63 39//63
f 42//64 41//64 44//64
f 42//65 44//66 45//67
f 42//68 45//69 46//70
f 46//70 47//71 42//68
f 42//72 47//72 43//72
f 43//73 47//73 48//73
f 48//74 47//74 49//74
f 49//75 47//75 46//75
f 50//76 48//76 49//76
f 49//77 51//77 50//77
f 46//78 51//78 49//78
f 52//79 51//80 53//81
f 50//82 51//80 52//79
f 51//83 54//83 53//83
f 46//84 54//84 51//84
f 55//85 54//85 56//85
f 52//86 54//86 55//86
f 56//87 54//88 46//89
f 53//90 54//90 52//90
f 56//91 57//91 55//91
f 58//92 56//93 59//94
f 58//92 60//95 56//93
f 61//96 57//96 56//96
f 56//97 60//97 61//97
f 46//89 45//98 56//87
f 56//87 45//98 59//98
f 59//99 62//99 63//99
f 63//100 64//100 59//100
f 59//101 64//101 65//101
f 66//102 59//94 67//103
f 58//92 59//94 66//102
f 67//104 59//98 65//105
f 45//106 62//106 59//106
f 68//107 62//107 45//107
f 69//108 62//108 68//108
f 63//109 62//109 69//109
f 69//110 70//110 71//110
f 63//111 69//112 71//113
f 72//114 70//114 69//114
f 72//115 69//115 68//115
f 1//116 70//116 2//116
f 71//117 70//118 1//119
f 2//120 70//120 73//120
f 73//121 70//121 72//121
f 2//122 73//122 19//122
f 19//123 73//123 72//123
f 72//124 74//124 19//124
f 68//125 74//125 72//125
f 68//126 75//126 74//126
f 19//127 74//127 28//127
f 28//128 74//128 76//128
f 74//129 75//129 76//129
f 45//130 75//130 68//130
f 76//131 75//131 45//131
f 76//132 32//132 28//132
f 45//67 44//66 76//133
f 76//134 44//134 32//134
f 77//135 78//135 71//135
f 78//136 64//136 71//136
f 1//119 4//137 71//117
f 71//138 4//138 77//138
f 71//113 64//139 63//111
f 77//140 79//140 78//140
f 77//141 80//141 79//141
f 81//142 80//142 77//142
f 77//143 4//143 81//143
f 82//144 80//144 81//144
f 82//145 81//145 83//145
f 4//146 5//146 81//146
f 81//147 5//147 83//147
f 83//148 5//148 8//148
f 83//149 84//149 82//149
f 85//150 84//150 83//150
f 83//151 8//151 85//151
f 8//152 86//152 85//152
f 87//153 84//153 85//153
f 88//154 87//154 85//154
f 85//155 86//155 88//155
f 88//156 86//156 89//156
f 88//157 89//157 90//157
f 90//158 91//158 88//158
f 91//159 87//159 88//159
f 92//160 91//160 90//160
f 93//161 87//161 91//161
f 93//162 91//162 94//162
f 94//163 91//163 92//163
f 95//164 96//164 94//164
f 97//165 95//166 94//167
f 94//168 98//169 97//170
f 94//171 92//171 99//171
f 99//172 98//172 94//172
f 94//173 96//173 93//173
f 96//174 100//174 101//174
f 96//175 101//175 102//175
f 93//176 96//176 102//176
f 95//177 100//177 96//177
f 103//178 100//179 104//180
f 105//181 100//181 103//181
f 101//182 100//182 105//182
f 104//183 100//183 95//183
f 106//184 103//178 104//180
f 107//185 104//185 95//185
f 108//186 104//186 107//186
f 106//187 104//187 108//187
f 109//188 107//188 110//188
f 108//189 107//189 109//189
f 110//190 107//190 97//190
f 97//165 107//191 95//166
f 111//192 109//192 110//192
f 97//170 98//169 110//193
f 110//194 98//194 111//194
f 112//195 109//195 111//195
f 113//196 112//196 111//196
f 111//197 98//197 114//197
f 111//198 114//198 113//198
f 113//199 115//199 116//199
f 116//200 117//200 113//200
f 117//201 112//201 113//201
f 113//202 114//202 115//202
f 116//203 115//203 118//203
f 118//204 115//204 119//204
f 115//205 114//205 120//205
f 119//206 115//206 120//206
f 120//207 121//207 119//207
f 120//208 114//208 122//208
f 122//209 123//209 120//209
f 120//210 123//210 121//210
f 121//211 123//211 124//211
f 125//212 121//212 124//212
f 126//213 121//213 125//213
f 119//214 121//214 126//214
f 125//215 127//215 128//215
f 128//216 126//216 125//216
f 125//217 129//217 127//217
f 124//218 129//218 125//218
f 124//219 130//219 129//219
f 127//220 129//220 131//220
f 129//221 130//221 131//221
f 132//222 127//222 131//222
f 131//223 133//223 132//223
f 131//224 130//224 134//224
f 134//225 135//225 131//225
f 131//226 135//226 133//226
f 136//227 133//227 137//227
f 132//228 133//228 136//228
f 137//229 133//229 138//229
f 138//230 133//230 139//230
f 133//231 135//231 139//231
f 139//232 140//232 138//232
f 139//233 135//233 141//233
f 141//234 142//234 139//234
f 139//235 142//235 140//235
f 142//236 143//236 144//236
f 140//237 142//237 144//237
f 141//238 143//238 142//238
f 144//239 143//239 145//239
f 146//240 143//240 141//240
f 147//241 143//241 146//241
f 147//242 148//242 143//242
f 143//243 148//243 145//243
f 13//244 148//244 147//244
f 148//245 18//245 149//245
f 13//246 18//246 148//246
f 145//247 148//247 149//247
f 149//248 24//248 150//248
f 149//249 150//249 145//249
f 149//250 18//250 22//250
f 22//251 24//251 149//251
f 145//252 150//252 151//252
f 151//253 150//253 152//253
f 150//254 153//254 152//254
f 24//255 153//255 150//255
f 27//256 154//256 153//256
f 27//257 153//257 24//257
f 153//258 155//258 152//258
f 153//259 154//259 155//259
f 33//260 156//260 154//260
f 27//261 33//261 154//261
f 154//262 156//262 157//262
f 158//263 154//263 157//263
f 155//264 154//264 158//264
f 159//265 155//266 158//267
f 158//267 160//268 159//265
f 157//269 161//269 158//269
f 161//270 160//270 158//270
f 162//271 160//271 161//271
f 159//272 160//272 163//272
f 163//273 160//273 164//273
f 164//274 160//274 165//274
f 165//275 160//275 162//275
f 165//276 166//276 164//276
f 165//277 162//277 167//277
f 167//278 168//278 165//278
f 165//279 168//279 166//279
f 169//280 168//281 170//282
f 170//283 168//283 171//283
f 172//284 168//284 169//284
f 166//285 168//285 172//285
f 171//286 168//286 167//286
f 173//287 174//287 171//287
f 173//288 171//288 167//288
f 170//289 171//290 175//291
f 171//292 174//292 175//292
f 48//293 174//293 40//293
f 50//294 174//294 48//294
f 175//295 174//295 50//295
f 40//296 174//296 173//296
f 175//291 176//297 170//289
f 175//298 177//298 178//298
f 50//299 177//299 175//299
f 178//300 176//300 175//300
f 178//301 179//302 176//303
f 178//304 180//304 181//304
f 181//305 179//302 178//301
f 177//306 180//306 178//306
f 181//307 180//307 182//307
f 183//308 180//308 177//308
f 182//309 180//309 184//309
f 184//310 180//310 183//310
f 184//311 185//311 186//311
f 186//312 182//312 184//312
f 183//313 187//313 184//313
f 184//314 187//314 185//314
f 188//315 185//315 189//315
f 189//316 185//316 190//316
f 186//317 185//317 188//317
f 185//318 187//318 190//318
f 186//319 188//319 191//319
f 188//320 192//320 193//320
f 191//321 188//321 193//321
f 188//322 189//322 194//322
f 194//323 192//323 188//323
f 191//324 193//324 195//324
f 195//325 196//325 191//325
f 196//326 197//326 191//326
f 191//327 197//328 181//329
f 191//330 181//330 186//330
f 198//331 197//331 196//331
f 199//332 197//332 198//332
f 181//329 197//328 199//333
f 199//334 198//334 200//334
f 199//335 179//335 181//335
f 201//336 179//336 199//336
f 200//337 201//337 199//337
f 200//338 198//339 202//340
f 203//341 201//341 200//341
f 203//342 200//338 202//340
f 203//343 202//343 204//343
f 204//344 202//344 205//344
f 205//345 202//345 206//345
f 202//346 198//346 206//346
f 207//347 205//347 206//347
f 206//348 198//348 196//348
f 206//349 196//349 208//349
f 206//350 208//350 207//350
f 207//351 209//351 210//351
f 210//352 211//352 207//352
f 211//353 205//353 207//353
f 207//354 208//354 209//354
f 210//355 209//355 212//355
f 209//356 208//356 213//356
f 212//357 209//357 213//357
f 213//358 214//358 215//358
f 215//359 212//359 213//359
f 213//360 208//360 195//360
f 195//361 216//361 213//361
f 213//362 217//362 214//362
f 213//363 216//363 217//363
f 216//364 193//364 218//364
f 219//365 216//365 218//365
f 195//366 193//366 216//366
f 217//367 216//367 219//367
f 220//368 217//368 219//368
f 219//369 221//369 222//369
f 219//370 222//370 220//370
f 218//371 221//371 219//371
f 214//372 217//372 220//372
f 223//373 214//373 220//373
f 220//374 222//374 224//374
f 220//375 224//375 223//375
f 223//376 225//376 226//376
f 226//377 227//377 223//377
f 227//378 214//378 223//378
f 223//379 224//379 225//379
f 226//380 225//381 228//382
f 228//382 225//381 229//383
f 229//384 225//384 230//384
f 230//385 225//385 231//385
f 225//386 224//386 231//386
f 232//387 230//387 231//387
f 224//388 222//388 231//388
f 231//389 222//389 232//389
f 232//387 233//387 234//387
f 232//387 234//387 230//387
f 222//390 221//390 232//390
f 232//391 221//391 233//391
f 233//387 235//387 236//387
f 233//387 236//387 234//387
f 221//392 237//392 233//392
f 233//393 237//393 235//393
f 235//387 238//387 236//387
f 235//394 237//394 239//394
f 235//387 239//387 238//387
f 239//387 240//387 238//387
f 240//395 241//395 238//395
f 238//396 242//396 236//396
f 241//397 242//397 238//397
f 236//398 242//398 243//398
f 243//399 242//399 244//399
f 245//400 242//400 246//400
f 244//401 242//401 245//401
f 246//402 242//402 241//402
f 245//403 246//403 247//403
f 247//404 246//404 248//404
f 248//405 246//405 249//405
f 249//406 246//406 240//406
f 246//407 241//407 240//407
f 250//408 251//408 247//408
f 252//409 250//409 247//409
f 247//410 251//410 245//410
f 247//411 248//411 252//411
f 253//412 250//412 252//412
f 254//413 253//413 252//413
f 252//414 255//414 254//414
f 252//415 248//415 255//415
f 254//416 255//416 58//416
f 58//417 255//417 249//417
f 255//418 248//418 249//418
f 256//419 253//419 254//419
f 256//420 254//420 58//420
f 257//421 253//421 256//421
f 258//422 256//422 58//422
f 258//423 259//423 256//423
f 256//423 259//423 260//423
f 260//424 261//425 256//426
f 256//426 261//425 257//427
f 257//428 262//428 263//428
f 261//429 262//429 257//429
f 263//430 253//430 257//430
f 264//431 250//431 263//431
f 263//432 265//432 264//432
f 262//433 265//433 263//433
f 263//434 250//434 253//434
f 266//435 265//435 262//435
f 267//436 265//436 266//436
f 264//437 265//437 268//437
f 269//438 270//438 265//438
f 267//439 269//439 265//439
f 265//440 270//440 268//440
f 266//441 271//441 267//441
f 267//442 271//442 272//442
f 273//443 274//443 267//443
f 274//444 269//444 267//444
f 273//445 267//445 272//445
f 275//446 273//447 272//448
f 276//449 273//449 275//449
f 277//450 273//450 276//450
f 277//451 274//451 273//451
f 276//452 278//452 277//452
f 277//453 279//453 274//453
f 278//454 280//454 277//454
f 280//455 279//455 277//455
f 279//456 281//456 274//456
f 282//457 283//457 279//457
f 284//458 282//458 279//458
f 280//459 284//459 279//459
f 283//460 281//460 279//460
f 285//461 286//461 284//461
f 285//462 284//462 280//462
f 287//463 282//463 284//463
f 286//464 287//464 284//464
f 285//465 288//465 286//465
f 286//466 288//466 289//466
f 289//467 290//467 286//467
f 286//468 290//468 287//468
f 289//469 291//469 290//469
f 290//470 291//470 215//470
f 292//471 290//471 215//471
f 287//472 290//472 292//472
f 292//473 293//473 294//473
f 294//474 287//474 292//474
f 292//475 295//475 293//475
f 215//476 295//476 292//476
f 293//477 295//477 228//477
f 228//478 295//478 226//478
f 215//479 227//479 295//479
f 295//480 227//480 226//480
f 296//481 297//481 293//481
f 296//482 293//482 228//482
f 293//483 297//483 298//483
f 294//484 293//484 298//484
f 298//485 299//485 300//485
f 294//486 298//486 300//486
f 298//487 297//487 244//487
f 244//488 301//488 298//488
f 298//489 301//489 299//489
f 251//490 301//490 245//490
f 302//491 301//491 251//491
f 245//492 301//492 244//492
f 299//493 301//493 302//493
f 268//494 302//494 251//494
f 303//495 299//495 302//495
f 303//496 302//496 268//496
f 270//497 283//497 303//497
f 268//498 270//498 303//498
f 303//499 283//499 300//499
f 300//500 299//500 303//500
f 300//501 283//501 294//501
f 296//502 304//502 297//502
f 297//503 243//503 244//503
f 297//504 304//504 243//504
f 243//505 304//505 234//505
f 229//506 304//507 296//508
f 234//509 304//507 229//506
f 228//510 229//510 296//510
f 294//511 283//511 282//511
f 294//512 282//512 287//512
f 305//513 291//513 289//513
f 291//514 212//514 215//514
f 305//515 212//515 291//515
f 289//516 306//516 305//516
f 306//517 307//517 305//517
f 305//518 307//518 210//518
f 210//519 212//519 305//519
f 308//520 307//520 306//520
f 309//521 307//521 308//521
f 307//522 211//522 210//522
f 309//523 211//523 307//523
f 308//524 310//524 309//524
f 310//525 311//525 309//525
f 309//526 311//526 312//526
f 312//527 211//527 309//527
f 311//528 313//528 312//528
f 312//529 313//529 204//529
f 204//530 205//530 312//530
f 312//531 205//531 211//531
f 314//532 313//532 311//532
f 164//533 313//533 314//533
f 164//534 166//534 313//534
f 313//535 166//535 204//535
f 314//536 163//536 164//536
f 315//537 163//537 314//537
f 314//538 311//538 310//538
f 314//539 310//539 316//539
f 316//540 315//540 314//540
f 317//541 163//541 315//541
f 317//542 315//542 318//542
f 318//543 315//543 316//543
f 317//544 318//544 319//544
f 320//545 318//545 321//545
f 319//546 318//546 320//546
f 321//547 318//547 316//547
f 319//548 322//548 317//548
f 323//549 322//549 319//549
f 319//550 320//550 324//550
f 325//551 323//551 319//551
f 319//552 324//552 325//552
f 325//553 324//553 326//553
f 326//554 327//554 325//554
f 327//555 323//555 325//555
f 328//556 329//556 327//556
f 327//557 329//557 330//557
f 331//558 323//558 327//558
f 331//559 327//559 330//559
f 332//560 327//561 326//562
f 332//563 328//563 327//563
f 333//564 328//564 332//564
f 328//565 334//565 329//565
f 333//566 334//566 328//566
f 335//567 334//568 333//569
f 329//570 334//570 336//570
f 336//571 334//568 335//567
f 337//572 336//573 335//574
f 335//574 275//575 337//572
f 335//576 276//576 275//576
f 333//577 276//577 335//577
f 337//578 275//578 338//578
f 337//579 338//579 339//579
f 340//580 336//580 337//580
f 339//581 340//581 337//581
f 338//582 341//582 339//582
f 339//583 341//583 342//583
f 342//584 343//584 339//584
f 343//585 340//585 339//585
f 342//586 341//586 344//586
f 344//587 341//587 345//587
f 345//588 341//588 346//588
f 346//589 341//589 338//589
f 346//590 347//590 345//590
f 346//591 338//591 272//591
f 272//592 347//592 346//592
f 345//593 347//593 260//593
f 348//594 347//594 272//594
f 260//595 347//595 348//595
f 348//596 271//596 349//596
f 348//597 349//597 260//597
f 272//598 271//598 348//598
f 350//599 261//599 349//599
f 349//600 271//600 350//600
f 349//601 261//601 260//601
f 350//602 271//602 266//602
f 266//603 262//603 350//603
f 350//604 262//604 261//604
f 344//605 345//605 260//605
f 351//606 352//606 344//606
f 259//607 351//607 344//607
f 344//608 352//608 342//608
f 260//609 259//609 344//609
f 353//610 352//610 351//610
f 353//611 343//611 352//611
f 352//612 343//612 342//612
f 351//613 354//613 353//613
f 354//614 355//614 353//614
f 355//615 356//615 353//615
f 353//616 340//616 343//616
f 356//617 340//617 353//617
f 357//618 356//618 355//618
f 358//619 356//619 357//619
f 358//620 336//620 356//620
f 356//621 336//621 340//621
f 357//622 359//622 358//622
f 330//623 329//623 358//623
f 358//624 359//624 330//624
f 358//625 329//625 336//625
f 360//626 359//626 357//626
f 330//627 359//627 361//627
f 361//628 359//628 362//628
f 362//629 359//629 360//629
f 363//630 361//631 364//632
f 364//633 361//633 362//633
f 330//634 361//631 363//630
f 365//635 363//635 366//635
f 331//636 363//636 365//636
f 330//637 363//637 331//637
f 366//638 363//638 364//638
f 138//639 140//639 366//639
f 366//640 367//640 138//640
f 364//641 367//641 366//641
f 366//642 368//642 365//642
f 366//643 140//643 144//643
f 144//644 368//644 366//644
f 364//645 369//646 367//647
f 367//647 369//646 370//648
f 138//649 367//649 137//649
f 137//650 367//650 370//650
f 369//651 371//651 370//651
f 370//652 136//652 137//652
f 370//653 372//653 136//653
f 370//654 371//654 373//654
f 373//655 372//655 370//655
f 362//656 371//656 369//656
f 373//657 371//657 374//657
f 374//658 371//658 375//658
f 375//659 371//659 362//659
f 376//660 374//660 377//660
f 374//661 375//661 377//661
f 378//662 374//662 379//662
f 373//663 374//663 378//663
f 379//664 374//664 376//664
f 376//665 357//665 355//665
f 377//666 357//666 376//666
f 380//667 379//667 376//667
f 376//668 355//668 380//668
f 380//669 351//669 259//669
f 259//670 381//670 380//670
f 381//671 379//671 380//671
f 380//672 355//672 354//672
f 380//673 354//673 351//673
f 382//674 381//674 259//674
f 383//675 381//675 382//675
f 383//676 379//676 381//676
f 382//677 384//677 383//677
f 384//678 385//678 383//678
f 386//679 378//679 383//679
f 385//680 386//680 383//680
f 378//681 379//681 383//681
f 387//682 385//682 384//682
f 388//683 386//683 385//683
f 388//684 385//684 387//684
f 389//685 390//685 387//685
f 391//686 389//687 387//688
f 387//688 384//689 391//686
f 387//690 390//690 388//690
f 392//691 390//691 389//691
f 393//692 390//692 392//692
f 388//693 390//693 394//693
f 394//694 390//694 393//694
f 393//695 395//695 396//695
f 396//696 394//696 393//696
f 392//697 395//697 393//697
f 396//698 395//698 397//698
f 398//699 395//699 392//699
f 397//700 395//700 398//700
f 397//701 399//701 396//701
f 400//702 399//702 397//702
f 398//703 400//703 397//703
f 401//704 399//704 400//704
f 402//705 399//705 401//705
f 396//706 399//706 403//706
f 403//707 399//707 402//707
f 404//708 405//708 403//708
f 403//709 405//709 406//709
f 406//710 407//710 403//710
f 402//711 404//711 403//711
f 403//712 407//712 396//712
f 408//713 407//713 406//713
f 408//714 409//714 407//714
f 407//715 410//716 396//717
f 407//718 409//718 410//718
f 410//719 409//719 411//719
f 408//720 412//720 409//720
f 412//452 413//452 409//452
f 409//721 413//721 411//721
f 413//722 414//723 411//724
f 411//724 414//723 415//725
f 411//726 415//727 416//728
f 416//728 410//729 411//726
f 416//730 415//730 386//730
f 416//731 386//731 388//731
f 388//732 394//732 416//732
f 394//733 410//733 416//733
f 415//734 378//734 386//734
f 373//735 378//735 415//735
f 415//736 372//736 373//736
f 414//737 372//737 415//737
f 417//738 372//738 414//738
f 417//739 414//739 413//739
f 136//740 372//740 417//740
f 136//741 417//741 418//741
f 418//742 417//742 413//742
f 419//743 136//744 418//745
f 418//746 413//746 412//746
f 412//747 420//747 418//747
f 418//745 420//748 419//743
f 132//749 136//749 419//749
f 420//750 127//750 419//750
f 419//751 127//751 132//751
f 118//752 126//752 420//752
f 118//462 420//462 421//462
f 128//753 127//753 420//753
f 420//754 126//754 128//754
f 421//755 420//755 412//755
f 421//756 412//756 408//756
f 422//757 421//757 408//757
f 423//758 421//758 422//758
f 118//759 421//759 423//759
f 406//760 422//760 408//760
f 406//761 424//761 422//761
f 422//762 425//762 423//762
f 422//763 426//763 425//763
f 422//764 424//764 426//764
f 427//765 424//765 406//765
f 426//766 424//766 427//766
f 405//767 427//767 406//767
f 404//768 427//768 405//768
f 428//769 427//769 404//769
f 429//770 426//770 427//770
f 429//771 427//771 428//771
f 430//772 431//772 429//772
f 428//773 430//773 429//773
f 429//774 431//774 432//774
f 432//775 426//775 429//775
f 432//776 433//776 434//776
f 432//777 431//777 433//777
f 434//778 426//779 432//780
f 433//781 435//781 434//781
f 436//782 426//779 434//778
f 437//783 436//783 434//783
f 434//784 435//784 437//784
f 435//785 438//785 437//785
f 437//786 438//786 439//786
f 439//787 117//787 437//787
f 437//788 117//788 436//788
f 438//789 440//789 439//789
f 440//790 441//790 439//790
f 439//791 112//791 117//791
f 439//792 441//792 108//792
f 108//793 109//793 439//793
f 439//794 109//794 112//794
f 442//795 441//795 440//795
f 443//796 441//796 442//796
f 441//797 444//797 108//797
f 443//798 444//798 441//798
f 442//799 445//800 443//801
f 445//800 446//802 443//801
f 447//803 444//803 443//803
f 443//804 448//804 447//804
f 446//805 448//805 443//805
f 449//806 450//806 448//806
f 449//807 448//807 451//807
f 451//808 448//808 446//808
f 447//809 448//809 452//809
f 448//810 450//810 452//810
f 453//811 454//811 450//811
f 455//812 453//812 450//812
f 450//813 454//813 452//813
f 455//814 450//814 449//814
f 456//815 455//815 457//815
f 457//815 455//815 458//815
f 455//815 449//815 458//815
f 456//816 453//816 455//816
f 459//815 456//815 457//815
f 460//817 453//817 456//817
f 460//815 456//815 459//815
f 461//815 460//815 462//815
f 462//815 460//815 459//815
f 463//818 453//818 460//818
f 460//819 464//819 463//819
f 461//820 464//820 460//820
f 465//815 461//815 462//815
f 461//821 466//821 467//821
f 468//822 466//822 461//822
f 468//815 461//815 465//815
f 461//823 467//823 464//823
f 467//824 469//824 464//824
f 470//825 471//825 467//825
f 467//826 466//826 470//826
f 471//827 469//827 467//827
f 470//828 472//828 471//828
f 471//829 472//829 473//829
f 474//830 471//831 473//832
f 474//833 469//833 471//833
f 475//834 476//834 474//834
f 474//835 476//835 477//835
f 474//836 478//836 475//836
f 477//837 469//837 474//837
f 473//832 478//838 474//830
f 479//839 480//839 477//839
f 477//840 481//840 479//840
f 477//841 476//841 481//841
f 480//842 469//842 477//842
f 482//843 480//843 479//843
f 483//844 480//844 482//844
f 464//845 469//845 480//845
f 464//846 480//846 483//846
f 464//847 483//847 463//847
f 463//848 483//848 482//848
f 463//849 482//849 454//849
f 484//850 482//850 485//850
f 485//851 482//851 479//851
f 454//852 482//852 484//852
f 106//853 484//853 485//853
f 454//854 484//854 452//854
f 452//855 484//855 486//855
f 486//856 484//856 106//856
f 452//857 486//857 447//857
f 447//858 486//858 444//858
f 444//859 486//859 108//859
f 108//860 486//860 106//860
f 485//861 103//861 106//861
f 485//862 487//862 103//862
f 479//863 488//863 485//863
f 488//864 487//864 485//864
f 488//865 105//865 487//865
f 487//866 105//866 103//866
f 489//867 105//867 488//867
f 490//868 489//868 488//868
f 479//869 481//869 488//869
f 481//870 476//870 488//870
f 488//871 476//871 490//871
f 490//872 476//872 475//872
f 491//873 492//873 490//873
f 490//874 475//874 491//874
f 490//875 492//875 489//875
f 493//876 492//877 494//878
f 494//879 492//880 491//881
f 489//882 492//877 493//876
f 493//883 101//883 489//883
f 102//884 101//884 493//884
f 493//885 495//885 102//885
f 494//878 84//886 493//876
f 493//887 84//887 495//887
f 102//888 495//888 87//888
f 495//889 84//889 87//889
f 491//881 82//890 494//879
f 82//891 84//891 494//891
f 475//892 496//892 491//892
f 491//893 80//893 82//893
f 496//894 80//894 491//894
f 497//895 79//895 496//895
f 79//896 80//896 496//896
f 478//897 498//898 496//899
f 496//900 498//900 497//900
f 478//901 496//901 475//901
f 65//902 499//902 497//902
f 497//903 498//903 65//903
f 497//904 499//904 79//904
f 65//905 64//905 499//905
f 79//906 499//906 78//906
f 499//907 64//907 78//907
f 65//908 498//908 500//908
f 501//909 498//898 478//897
f 500//910 498//910 501//910
f 478//911 500//911 501//911
f 65//105 500//912 67//104
f 473//913 500//913 478//913
f 67//914 500//914 473//914
f 489//915 101//915 105//915
f 473//916 472//916 67//916
f 67//917 472//917 502//917
f 502//918 472//918 470//918
f 466//919 503//920 502//921
f 470//922 466//919 502//921
f 502//923 503//923 67//923
f 504//924 503//924 466//924
f 67//103 503//925 66//102
f 66//926 503//926 504//926
f 504//927 466//927 468//927
f 504//815 468//815 465//815
f 66//815 504//815 465//815
f 462//928 505//928 465//928
f 465//929 505//929 506//929
f 465//930 507//930 66//930
f 465//931 506//931 507//931
f 508//932 506//932 509//932
f 507//933 506//933 508//933
f 506//934 505//934 509//934
f 509//935 510//935 508//935
f 509//936 505//936 511//936
f 511//937 512//937 509//937
f 509//938 512//938 510//938
f 505//939 513//939 511//939
f 511//940 514//940 512//940
f 511//941 513//941 515//941
f 515//942 514//942 511//942
f 512//943 514//943 430//943
f 514//944 431//944 430//944
f 433//945 514//945 515//945
f 433//946 431//946 514//946
f 515//947 513//947 516//947
f 516//948 517//948 515//948
f 517//949 433//949 515//949
f 518//950 517//950 519//950
f 519//951 517//951 516//951
f 517//952 435//952 433//952
f 518//953 435//953 517//953
f 519//954 520//954 518//954
f 518//955 520//955 521//955
f 521//956 438//956 518//956
f 518//957 438//957 435//957
f 520//958 522//958 521//958
f 521//959 522//959 442//959
f 442//960 440//960 521//960
f 521//961 440//961 438//961
f 523//962 522//962 520//962
f 451//963 445//963 522//963
f 451//964 522//964 523//964
f 522//965 445//965 442//965
f 458//815 449//815 523//815
f 523//966 519//966 458//966
f 523//967 520//967 519//967
f 523//815 449//815 451//815
f 458//968 519//968 516//968
f 458//969 516//969 457//969
f 516//970 513//970 457//970
f 524//971 513//971 505//971
f 457//972 513//972 459//972
f 459//973 513//973 524//973
f 459//974 524//974 462//974
f 462//975 524//975 505//975
f 508//976 510//976 525//976
f 510//977 512//977 526//977
f 525//978 510//978 527//978
f 527//979 510//979 526//979
f 428//980 404//980 526//980
f 526//981 404//981 527//981
f 526//982 512//982 428//982
f 527//983 404//983 528//983
f 529//984 525//984 527//984
f 527//985 528//985 529//985
f 530//986 528//986 401//986
f 529//987 528//987 530//987
f 528//988 404//988 402//988
f 401//989 528//989 402//989
f 401//990 400//990 530//990
f 530//991 400//991 398//991
f 529//992 530//993 531//994
f 531//994 530//993 398//995
f 66//996 532//996 531//996
f 531//422 258//422 66//422
f 398//423 258//423 531//423
f 532//997 525//997 531//997
f 531//998 525//998 529//998
f 66//999 507//999 532//999
f 532//1000 507//1000 508//1000
f 508//1001 525//1001 532//1001
f 512//1002 430//1002 428//1002
f 463//1003 454//1003 453//1003
f 451//1004 446//1004 445//1004
f 423//1005 436//1005 116//1005
f 423//1006 425//1006 436//1006
f 425//1007 426//1007 436//1007
f 436//1008 117//1008 116//1008
f 423//1009 116//1009 118//1009
f 396//717 410//716 394//1010
f 398//1011 389//1011 258//1011
f 392//1012 389//1012 398//1012
f 258//1013 389//1013 391//1013
f 391//1014 384//1014 258//1014
f 258//1015 384//1015 382//1015
f 382//1016 259//1016 258//1016
f 377//1017 360//1017 357//1017
f 362//1018 360//1018 377//1018
f 377//1019 375//1019 362//1019
f 362//1020 369//1020 364//1020
f 144//1021 533//1021 368//1021
f 368//1022 533//1022 534//1022
f 365//1023 368//1023 534//1023
f 533//1024 151//1024 535//1024
f 534//1025 533//1025 535//1025
f 144//1026 151//1026 533//1026
f 535//1027 322//1027 534//1027
f 535//1028 536//1028 322//1028
f 535//1029 151//1029 537//1029
f 537//1030 536//1030 535//1030
f 537//1031 538//1031 536//1031
f 322//1032 536//1032 317//1032
f 536//1033 538//1033 317//1033
f 538//1034 155//1034 159//1034
f 317//1035 538//1035 159//1035
f 152//1036 155//1036 538//1036
f 152//1037 538//1037 537//1037
f 537//1038 151//1038 152//1038
f 534//1039 322//1039 323//1039
f 534//1040 323//1040 365//1040
f 365//1041 323//1041 331//1041
f 338//1042 275//446 272//448
f 333//720 278//720 276//720
f 332//1043 278//1043 333//1043
f 326//562 539//1044 332//560
f 332//1045 539//1045 278//1045
f 539//1046 324//1046 540//1046
f 326//1047 324//1047 539//1047
f 539//1048 280//1048 278//1048
f 285//759 280//759 539//759
f 540//1049 541//1049 539//1049
f 539//1050 541//1050 285//1050
f 542//1051 541//1051 540//1051
f 542//1052 543//1052 541//1052
f 541//1053 543//1053 544//1053
f 285//1054 541//1054 544//1054
f 544//1055 543//1055 545//1055
f 321//1056 546//1056 543//1056
f 321//1057 543//1057 542//1057
f 543//1058 546//1058 545//1058
f 316//1059 310//1059 546//1059
f 316//1060 546//1060 321//1060
f 545//1061 546//1061 308//1061
f 546//1062 310//1062 308//1062
f 545//1063 288//1063 544//1063
f 545//1064 306//1064 288//1064
f 308//1065 306//1065 545//1065
f 544//1066 288//1066 285//1066
f 324//1067 320//1067 542//1067
f 540//1068 324//1068 542//1068
f 542//1069 320//1069 321//1069
f 159//1070 163//1070 317//1070
f 288//1071 306//1071 289//1071
f 274//1072 281//1072 270//1072
f 270//1073 281//1073 283//1073
f 274//1074 270//1074 269//1074
f 268//1075 251//1075 264//1075
f 264//1076 251//1076 250//1076
f 66//422 258//422 58//422
f 547//387 58//387 249//387
f 548//387 249//387 240//387
f 548//387 549//387 249//387
f 549//387 547//387 249//387
f 550//1077 60//1077 547//1077
f 549//1078 550//1078 547//1078
f 547//1079 60//1079 58//1079
f 61//1080 60//1081 550//1082
f 61//1080 550//1082 551//1083
f 548//1084 550//1084 549//1084
f 552//1085 550//1085 548//1085
f 551//1086 550//1086 552//1086
f 552//1087 553//1087 551//1087
f 553//1088 57//1088 551//1088
f 551//1089 57//1089 61//1089
f 55//1090 57//1090 553//1090
f 55//1091 553//1092 183//1093
f 552//1094 187//1094 553//1094
f 553//1095 187//1095 183//1095
f 190//1096 552//1096 548//1096
f 190//1097 187//1097 552//1097
f 239//387 548//387 240//387
f 239//1098 190//1098 548//1098
f 236//1099 243//1099 234//1099
f 239//1100 237//1100 194//1100
f 194//1101 190//1101 239//1101
f 192//1102 237//1102 221//1102
f 194//1103 237//1103 192//1103
f 234//1104 229//1104 230//1104
f 215//1105 214//1105 227//1105
f 192//1106 221//1106 218//1106
f 193//1107 192//1107 218//1107
f 208//1108 196//1108 195//1108
f 204//1109 166//1109 203//1109
f 166//1110 172//1110 203//1110
f 169//1111 201//1111 203//1111
f 203//1112 172//1112 169//1112
f 176//1113 179//1113 201//1113
f 176//1114 201//1114 169//1114
f 194//1115 189//1115 190//1115
f 181//1116 182//1116 186//1116
f 177//901 52//901 183//901
f 183//1093 52//1117 55//1091
f 170//282 176//1118 169//280
f 50//836 52//836 177//836
f 173//1119 554//1119 38//1119
f 167//1120 554//1120 173//1120
f 40//1121 173//1121 38//1121
f 35//52 554//1122 34//50
f 34//1123 554//1123 162//1123
f 38//1124 554//1124 35//1124
f 162//1125 554//1125 167//1125
f 34//1126 162//1126 157//1126
f 162//1127 161//1127 157//1127
f 157//1128 156//1128 34//1128
f 34//1129 156//1129 33//1129
f 145//1130 151//1130 144//1130
f 555//1131 14//1131 147//1131
f 146//1132 555//1132 147//1132
f 14//1133 13//1133 147//1133
f 134//1134 555//1134 556//1134
f 556//1135 555//1135 146//1135
f 557//1136 14//1136 555//1136
f 557//1137 555//1137 134//1137
f 557//1138 86//1139 12//1140
f 89//1141 86//1141 557//1141
f 134//1142 89//1142 557//1142
f 12//1140 14//1143 557//1138
f 141//1144 556//1144 146//1144
f 134//1145 556//1145 135//1145
f 135//1146 556//1146 141//1146
f 130//1147 558//1147 134//1147
f 558//1148 89//1148 134//1148
f 559//1149 558//1149 130//1149
f 90//1150 89//1150 558//1150
f 90//539 558//539 559//539
f 559//1151 130//1151 124//1151
f 124//1152 123//1152 559//1152
f 123//1153 560//1153 559//1153
f 559//540 560//540 90//540
f 560//1154 92//1154 90//1154
f 99//1155 92//1155 560//1155
f 99//1156 560//1156 122//1156
f 122//1157 560//1157 123//1157
f 119//1158 126//1158 118//1158
f 114//1159 98//1159 122//1159
f 122//1160 98//1160 99//1160
f 102//1161 87//1161 93//1161
f 12//1162 86//1162 561//1162
f 561//1163 86//1163 8//1163
f 12//1164 561//1164 9//1164
f 9//1165 561//1165 8//1165
f 43//1166 48//1166 40//1166
f 44//1167 41//1167 31//1167
f 32//1168 44//1168 31//1168
f 41//1169 36//1169 31//1169
f 31//42 36//1170 29//43
f 26//1171 33//1171 27//1171
f 20//1172 19//1172 28//1172
f 19//24 16//26 2//1173
f 16//1174 7//1174 2//1174
