# Blender v3.0.1 OBJ File: ''
# www.blender.org
mtllib Small_Short_3Prong_Brown.mtl
o obj1.027_obj1.005
v 2.999756 -15.008728 -6.470593
v 1.757141 -19.812576 -6.470593
v 2.533569 -19.710358 -6.470593
v 1.757141 -19.812574 -46.470592
v -1.757629 -19.812576 -6.470593
v -1.757629 -19.812574 -46.470592
v -1.042114 -15.721428 -6.470593
v 2.999756 -15.008738 53.529411
v 5.637939 -11.864710 53.529411
v 5.637939 -11.864700 -6.470593
v 3.878418 -18.933899 -6.470593
v 3.257141 -19.410652 -6.470593
v 3.257141 -19.410650 -46.470592
v 2.533569 -19.710356 -46.470592
v 3.878418 -18.933897 -46.470592
v -19.121582 -3.691259 -46.470592
v 19.121094 -3.691259 -46.470592
v -3.878906 -18.933897 -46.470592
v 19.121094 -3.691261 -6.470592
v -17.000244 17.507936 -46.470589
v 16.999756 17.507936 -46.470589
v 19.999756 -1.569937 -46.470592
v 19.597839 -3.069937 -46.470592
v 19.897522 -2.346395 -46.470592
v 19.597839 -3.069938 -6.470592
v 19.897522 -2.346397 -6.470592
v 19.999756 -1.569938 -6.470592
v 19.999756 14.507936 -46.470589
v 12.999756 2.311775 -6.470592
v 15.637939 5.455811 -6.470592
v 19.999756 14.507935 -6.470588
v 19.597839 16.007935 -6.470588
v 16.999756 17.507935 -6.470588
v 12.999756 12.704086 -6.470588
v 15.637939 9.560043 -6.470592
v 12.999756 12.704084 53.529411
v 15.637939 9.560041 53.529411
v 8.957886 13.416777 53.529411
v 8.957886 1.599073 53.529411
v 12.999756 2.311765 53.529411
v 15.637939 5.455801 53.529411
v 8.957886 1.599083 -6.470592
v 5.637939 -7.760459 -6.470593
v 2.999756 -4.616424 -6.470592
v 5.403503 3.651207 -6.470592
v -1.042114 -3.903742 53.529411
v -1.042114 -3.903732 -6.470592
v 2.999756 -4.616435 53.529411
v -4.596497 -5.955866 53.529411
v -1.042114 -15.721437 53.529411
v -4.596497 -13.669304 -6.470593
v -4.596497 -13.669313 53.529411
v -6.000244 -9.812576 -6.470593
v -19.121582 -3.691261 -6.470592
v -3.878906 -18.933899 -6.470593
v -3.257629 -19.410652 -6.470593
v -3.257629 -19.410650 -46.470592
v -2.534058 -19.710356 -46.470592
v -2.534058 -19.710358 -6.470593
v -6.000244 -9.812586 53.529411
v -4.596497 -5.955856 -6.470593
v -11.042114 1.599083 -6.470592
v -7.000244 2.311775 -6.470592
v -4.362061 5.455811 -6.470592
v -4.362061 5.455801 53.529411
v -7.000244 2.311765 53.529411
v -7.000244 12.704084 53.529411
v -4.362061 9.560041 53.529411
v -4.362061 9.560043 -6.470592
v -11.042114 13.416777 53.529411
v -11.042114 1.599073 53.529411
v -7.000244 12.704086 -6.470588
v -14.596497 3.651197 53.529411
v -14.596497 3.651207 -6.470592
v -14.596497 11.364653 53.529411
v -16.000244 7.507917 53.529411
v -14.596497 11.364655 -6.470588
v -11.042114 13.416779 -6.470588
v -16.000244 7.507927 -6.470592
v -20.000244 14.507935 -6.470588
v -20.000244 -1.569938 -6.470592
v -19.598328 -3.069938 -6.470592
v -19.898010 -2.346397 -6.470592
v -20.000244 -1.569937 -46.470592
v -20.000244 14.507936 -46.470589
v -19.598328 16.007936 -46.470589
v -19.598328 16.007935 -6.470588
v -18.500244 17.106005 -46.470589
v -17.000244 17.507935 -6.470588
v -18.500244 17.106003 -6.470588
v 8.957886 13.416779 -6.470588
v 5.403503 11.364653 53.529411
v 5.403503 11.364655 -6.470588
v 5.403503 3.651197 53.529411
v 3.999756 7.507917 53.529411
v 3.999756 7.507927 -6.470592
v -19.598328 -3.069937 -46.470592
v -19.898010 -2.346395 -46.470592
v 5.637939 -7.760470 53.529411
v 18.499756 17.106003 -6.470588
v 19.597839 16.007936 -46.470589
v 18.499756 17.106005 -46.470589
vn 0.0000 -0.0000 1.0000
vn 0.1305 -0.9914 -0.0000
vn 0.0000 -1.0000 -0.0000
vn 0.1737 -0.9848 -0.0000
vn 0.7660 -0.6428 -0.0000
vn 0.6088 -0.7933 -0.0000
vn 0.3827 -0.9239 -0.0000
vn 0.0000 0.0000 -1.0000
vn 0.7071 -0.7071 -0.0000
vn 0.7934 -0.6088 -0.0000
vn 0.9239 -0.3827 -0.0000
vn 0.9914 -0.1305 -0.0000
vn 1.0000 -0.0000 0.0000
vn 0.9659 0.2588 0.0000
vn 0.7660 0.6428 0.0000
vn 0.1736 0.9848 0.0000
vn 0.1736 -0.9848 -0.0000
vn -0.5000 -0.8660 -0.0000
vn -0.5000 0.8660 0.0000
vn -0.9397 -0.3420 -0.0000
vn -0.6088 -0.7933 -0.0000
vn -0.7071 -0.7071 -0.0000
vn -0.3827 -0.9239 -0.0000
vn -0.1305 -0.9914 -0.0000
vn -0.9397 0.3420 0.0000
vn -0.9914 -0.1305 -0.0000
vn -1.0000 -0.0000 0.0000
vn -0.9659 0.2588 0.0000
vn -0.7071 0.7071 0.0000
vn -0.2588 0.9659 0.0000
vn 0.0000 1.0000 0.0000
vn -0.7934 -0.6088 -0.0000
vn -0.9239 -0.3827 -0.0000
vn 0.7071 0.7071 0.0000
vn 0.2588 0.9659 0.0000
usemtl Default_OBJ.341
s 1
f 1//1 2//1 3//1
f 3//2 2//2 4//2
f 2//3 5//3 6//3
f 2//3 6//3 4//3
f 7//1 5//1 2//1
f 1//1 7//1 2//1
f 8//4 7//4 1//4
f 9//5 1//5 10//5
f 10//1 1//1 11//1
f 9//5 8//5 1//5
f 1//1 12//1 11//1
f 1//1 3//1 12//1
f 11//6 12//6 13//6
f 12//7 3//7 14//7
f 12//7 14//7 13//7
f 4//8 15//8 13//8
f 11//6 13//6 15//6
f 4//8 13//8 14//8
f 16//8 17//8 15//8
f 16//8 15//8 18//8
f 19//9 11//9 15//9
f 18//8 15//8 4//8
f 19//9 15//9 17//9
f 20//8 17//8 16//8
f 17//8 21//8 22//8
f 20//8 21//8 17//8
f 17//8 22//8 23//8
f 19//10 17//10 23//10
f 23//8 22//8 24//8
f 25//10 19//10 23//10
f 26//11 25//11 23//11
f 26//11 23//11 24//11
f 27//12 26//12 24//12
f 27//12 24//12 22//12
f 27//13 22//13 28//13
f 27//1 29//1 19//1
f 27//1 19//1 25//1
f 27//1 25//1 26//1
f 30//1 29//1 27//1
f 31//1 30//1 27//1
f 31//13 27//13 28//13
f 32//1 33//1 31//1
f 31//1 33//1 34//1
f 32//14 31//14 28//14
f 31//1 34//1 35//1
f 31//1 35//1 30//1
f 36//15 35//15 34//15
f 36//15 37//15 35//15
f 37//13 30//13 35//13
f 36//1 38//1 39//1
f 38//16 36//16 34//16
f 36//1 39//1 40//1
f 36//1 40//1 41//1
f 36//1 41//1 37//1
f 41//5 40//5 29//5
f 41//5 29//5 30//5
f 37//13 41//13 30//13
f 40//17 39//17 42//17
f 40//17 42//17 29//17
f 19//1 42//1 43//1
f 42//1 44//1 43//1
f 19//1 29//1 42//1
f 39//18 45//18 42//18
f 42//1 45//1 44//1
f 46//16 44//16 47//16
f 45//1 47//1 44//1
f 46//16 48//16 44//16
f 48//15 43//15 44//15
f 49//19 46//19 47//19
f 48//1 46//1 50//1
f 46//1 49//1 50//1
f 8//4 50//4 7//4
f 50//18 51//18 7//18
f 49//1 52//1 50//1
f 50//18 52//18 51//18
f 48//1 50//1 8//1
f 53//1 54//1 51//1
f 51//1 54//1 55//1
f 52//20 53//20 51//20
f 7//1 51//1 55//1
f 7//1 55//1 56//1
f 56//21 55//21 18//21
f 55//22 16//22 18//22
f 55//22 54//22 16//22
f 56//21 18//21 57//21
f 56//23 57//23 58//23
f 59//23 56//23 58//23
f 7//1 56//1 59//1
f 7//1 59//1 5//1
f 5//24 59//24 58//24
f 57//8 6//8 58//8
f 5//24 58//24 6//24
f 18//8 6//8 57//8
f 52//20 60//20 53//20
f 60//25 61//25 53//25
f 62//1 54//1 53//1
f 62//1 53//1 61//1
f 63//1 62//1 61//1
f 60//25 49//25 61//25
f 49//19 47//19 61//19
f 63//1 61//1 47//1
f 64//1 63//1 47//1
f 65//5 63//5 64//5
f 65//5 66//5 63//5
f 66//17 62//17 63//17
f 67//1 65//1 68//1
f 68//13 65//13 64//13
f 67//1 66//1 65//1
f 67//15 68//15 69//15
f 67//1 70//1 71//1
f 70//16 67//16 72//16
f 67//15 69//15 72//15
f 67//1 71//1 66//1
f 71//18 73//18 74//18
f 71//18 74//18 62//18
f 66//17 71//17 62//17
f 75//1 73//1 71//1
f 70//1 75//1 71//1
f 76//25 75//25 77//25
f 75//19 78//19 77//19
f 75//19 70//19 78//19
f 75//1 76//1 73//1
f 76//25 77//25 79//25
f 73//20 76//20 79//20
f 77//1 80//1 79//1
f 80//1 81//1 79//1
f 73//20 79//20 74//20
f 79//1 81//1 74//1
f 74//1 81//1 54//1
f 81//1 82//1 54//1
f 81//1 83//1 82//1
f 83//26 81//26 84//26
f 81//27 85//27 84//27
f 81//27 80//27 85//27
f 80//28 86//28 85//28
f 85//8 20//8 84//8
f 86//8 20//8 85//8
f 80//28 87//28 86//28
f 88//8 20//8 86//8
f 87//29 88//29 86//29
f 89//1 87//1 80//1
f 89//1 90//1 87//1
f 87//29 90//29 88//29
f 89//1 80//1 77//1
f 90//30 89//30 20//30
f 89//31 21//31 20//31
f 89//31 33//31 21//31
f 33//1 89//1 91//1
f 72//1 89//1 78//1
f 78//1 89//1 77//1
f 91//1 89//1 72//1
f 33//1 91//1 34//1
f 92//19 91//19 93//19
f 91//1 72//1 93//1
f 38//16 34//16 91//16
f 92//19 38//19 91//19
f 38//1 92//1 39//1
f 92//1 94//1 39//1
f 92//1 95//1 94//1
f 95//25 92//25 93//25
f 94//20 95//20 96//20
f 95//25 93//25 96//25
f 93//1 69//1 96//1
f 96//1 69//1 64//1
f 94//20 96//20 45//20
f 96//1 64//1 45//1
f 39//18 94//18 45//18
f 93//1 72//1 69//1
f 90//30 20//30 88//30
f 54//32 82//32 97//32
f 82//33 83//33 98//33
f 82//33 98//33 97//33
f 97//8 84//8 16//8
f 54//32 97//32 16//32
f 98//8 84//8 97//8
f 83//26 84//26 98//26
f 84//8 20//8 16//8
f 70//16 72//16 78//16
f 62//1 74//1 54//1
f 68//13 64//13 69//13
f 45//1 64//1 47//1
f 49//1 60//1 52//1
f 48//1 9//1 99//1
f 48//15 99//15 43//15
f 48//1 8//1 9//1
f 99//13 10//13 43//13
f 99//13 9//13 10//13
f 19//1 43//1 10//1
f 32//1 100//1 33//1
f 32//14 28//14 101//14
f 100//34 32//34 101//34
f 33//35 100//35 21//35
f 100//35 102//35 21//35
f 100//34 101//34 102//34
f 102//8 101//8 21//8
f 21//8 101//8 28//8
f 21//8 28//8 22//8
f 18//8 4//8 6//8
f 19//1 10//1 11//1
f 3//2 4//2 14//2
