# Blender v3.0.1 OBJ File: ''
# www.blender.org
mtllib Small_Long_Star_Green.mtl
o obj1.034_obj1.005
v 17.664185 4.748700 75.000000
v 16.721924 3.116681 75.000000
v 16.721924 3.116687 -75.000008
v 17.664185 4.748706 -75.000008
v 17.081848 6.540951 75.000000
v 15.360291 7.307446 75.000000
v 5.309204 7.307446 75.000000
v 8.590454 -2.791202 75.000000
v 15.360291 7.307453 -75.000008
v 17.081848 6.540958 -75.000008
v 8.590454 -2.791195 -75.000008
v 5.309204 7.307453 -75.000008
v 11.696411 -12.350360 75.000000
v 11.696411 -12.350354 -75.000008
v 8.131531 -14.940396 -75.000008
v 0.000000 -9.032514 -75.000008
v -5.309143 7.307453 -75.000008
v -15.360229 7.307446 75.000000
v -5.309143 7.307446 75.000000
v -15.360229 7.307453 -75.000008
v -8.590393 -2.791195 -75.000008
v 2.203247 16.866611 -75.000008
v -2.203186 16.866611 -75.000008
v -0.942261 18.267048 -75.000008
v 0.942261 18.267040 75.000000
v 2.203247 16.866604 75.000000
v 0.942261 18.267048 -75.000008
v -2.203186 16.866604 75.000000
v -0.942261 18.267040 75.000000
v -8.590393 -2.791202 75.000000
v 0.000000 -9.032519 75.000000
v -11.696350 -12.350360 75.000000
v -16.721924 3.116687 -75.000008
v -16.721924 3.116681 75.000000
v -17.664185 4.748700 75.000000
v -17.664185 4.748706 -75.000008
v -17.081848 6.540958 -75.000008
v -17.081848 6.540951 75.000000
v -11.696350 -12.350354 -75.000008
v -11.499390 -14.224536 74.999985
v -8.131470 -14.940402 74.999985
v -9.974792 -15.332202 74.999985
v -11.499390 -14.224530 -75.000008
v -9.974792 -15.332196 -75.000008
v -8.131470 -14.940396 -75.000008
v 8.131531 -14.940402 74.999985
v 11.499390 -14.224536 74.999985
v 9.974792 -15.332202 74.999985
v 9.974792 -15.332196 -75.000008
v 11.499390 -14.224530 -75.000008
vn 0.8660 -0.5000 -0.0000
vn 0.9511 0.3090 0.0000
vn 0.0000 0.0000 1.0000
vn 0.0000 1.0000 0.0000
vn 0.4067 0.9135 0.0000
vn 0.0000 0.0000 -1.0000
vn 0.5878 -0.8090 -0.0000
vn -0.9511 0.3090 0.0000
vn 0.7431 0.6691 0.0000
vn -0.7432 0.6691 0.0000
vn -0.5878 -0.8090 -0.0000
vn -0.8660 -0.5000 -0.0000
vn -0.4067 0.9135 0.0000
vn -0.9945 -0.1045 -0.0000
vn 0.2079 -0.9781 -0.0000
vn -0.2079 -0.9781 -0.0000
vn 0.9945 -0.1045 -0.0000
usemtl Default_OBJ.340
s 1
f 1//1 2//1 3//1
f 1//1 3//1 4//1
f 5//2 1//2 4//2
f 6//3 2//3 1//3
f 5//3 6//3 1//3
f 6//3 7//3 8//3
f 6//3 8//3 2//3
f 7//4 6//4 9//4
f 6//5 5//5 9//5
f 9//6 10//6 3//6
f 11//6 9//6 3//6
f 5//5 10//5 9//5
f 12//6 9//6 11//6
f 7//4 9//4 12//4
f 8//2 13//2 11//2
f 2//7 8//7 11//7
f 13//2 14//2 11//2
f 15//6 11//6 14//6
f 16//6 11//6 15//6
f 17//6 11//6 16//6
f 17//6 12//6 11//6
f 2//7 11//7 3//7
f 18//4 19//4 17//4
f 18//4 17//4 20//4
f 20//6 17//6 21//6
f 21//6 17//6 16//6
f 17//6 22//6 12//6
f 19//8 23//8 17//8
f 23//6 22//6 17//6
f 24//6 22//6 23//6
f 25//9 26//9 22//9
f 25//9 22//9 27//9
f 26//2 12//2 22//2
f 24//6 27//6 22//6
f 28//10 24//10 23//10
f 28//10 29//10 24//10
f 29//4 27//4 24//4
f 26//3 29//3 28//3
f 25//3 29//3 26//3
f 29//4 25//4 27//4
f 26//3 28//3 19//3
f 19//8 28//8 23//8
f 26//3 19//3 7//3
f 26//2 7//2 12//2
f 7//3 19//3 8//3
f 19//3 18//3 30//3
f 8//3 19//3 31//3
f 19//3 30//3 31//3
f 31//3 30//3 32//3
f 32//8 30//8 21//8
f 30//11 33//11 21//11
f 30//11 34//11 33//11
f 18//3 34//3 30//3
f 18//3 35//3 34//3
f 34//12 35//12 36//12
f 34//12 36//12 33//12
f 36//6 20//6 33//6
f 37//6 20//6 36//6
f 35//8 37//8 36//8
f 38//13 18//13 37//13
f 18//13 20//13 37//13
f 35//8 38//8 37//8
f 18//3 38//3 35//3
f 33//6 20//6 21//6
f 32//8 21//8 39//8
f 40//14 32//14 39//14
f 41//3 32//3 42//3
f 32//3 40//3 42//3
f 31//3 32//3 41//3
f 40//14 39//14 43//14
f 40//11 43//11 44//11
f 42//11 40//11 44//11
f 39//6 45//6 44//6
f 43//6 39//6 44//6
f 41//15 42//15 44//15
f 41//15 44//15 45//15
f 39//6 16//6 45//6
f 31//7 45//7 16//7
f 31//7 41//7 45//7
f 21//6 16//6 39//6
f 8//3 31//3 46//3
f 46//11 31//11 16//11
f 13//3 46//3 47//3
f 47//3 46//3 48//3
f 46//11 16//11 15//11
f 8//3 46//3 13//3
f 48//16 46//16 15//16
f 48//7 49//7 50//7
f 48//16 15//16 49//16
f 47//7 48//7 50//7
f 47//17 50//17 14//17
f 15//6 14//6 50//6
f 15//6 50//6 49//6
f 13//17 47//17 14//17
f 3//6 10//6 4//6
f 5//2 4//2 10//2
