# Blender v3.0.1 OBJ File: ''
# www.blender.org
mtllib Small_Long_Hexagon_JeansRed.mtl
o obj1.048_obj1.005
v -14.712158 -7.156726 75.000000
v -14.572449 -7.949039 75.000000
v -14.170227 -8.645801 75.000000
v -14.572449 -7.949032 -75.000008
v -14.712158 -7.156720 -75.000008
v -13.553894 -9.162951 75.000000
v -14.712158 7.156704 75.000000
v -14.712158 7.156711 -75.000008
v -13.553894 9.162930 75.000000
v -14.572449 7.949039 -75.000008
v -14.170227 8.645780 75.000000
v -14.572449 7.949032 75.000000
v -14.170227 8.645785 -75.000008
v -13.553894 9.162936 -75.000008
v -1.158081 16.319660 -75.000008
v 13.554321 9.162936 -75.000008
v -13.553894 -9.162946 -75.000008
v -14.170227 -8.645795 -75.000008
v -1.158081 -16.319660 74.999985
v 14.712585 -7.156720 -75.000008
v -1.158081 -16.319653 -75.000008
v -0.402039 -16.594830 -75.000008
v 0.402466 -16.594830 -75.000008
v 1.158508 -16.319653 -75.000008
v 13.554321 -9.162946 -75.000008
v 13.554321 -9.162951 75.000000
v 1.158508 -16.319660 74.999985
v 0.402466 -16.594837 74.999985
v -0.402039 -16.594837 74.999985
v 14.712585 -7.156726 75.000000
v 13.554321 9.162930 75.000000
v 14.712585 7.156704 75.000000
v 14.572876 -7.949032 -75.000008
v 14.170593 -8.645801 75.000000
v 14.572876 -7.949039 75.000000
v 1.158508 16.319653 75.000000
v -1.158081 16.319653 75.000000
v 14.170593 8.645780 75.000000
v -0.402039 16.594814 75.000000
v 0.402466 16.594814 75.000000
v 0.402466 16.594822 -75.000008
v -0.402039 16.594822 -75.000008
v 1.158508 16.319660 -75.000008
v 14.572876 7.949032 75.000000
v 14.572876 7.949039 -75.000008
v 14.170593 8.645785 -75.000008
v 14.712585 7.156711 -75.000008
v 14.170593 -8.645795 -75.000008
vn -0.0000 0.0000 1.0000
vn -0.8661 -0.4999 -0.0000
vn -0.9848 -0.1737 -0.0000
vn -1.0000 0.0000 0.0000
vn -0.9848 0.1736 0.0000
vn 0.0000 0.0000 -1.0000
vn -0.8661 0.5000 0.0000
vn -0.6428 0.7661 0.0000
vn -0.5000 0.8660 0.0000
vn -0.6428 -0.7661 -0.0000
vn -0.5000 -0.8660 -0.0000
vn -0.3420 -0.9397 -0.0000
vn 0.5000 -0.8660 -0.0000
vn 0.3420 -0.9397 -0.0000
vn 0.0000 -1.0000 -0.0000
vn 1.0000 0.0000 0.0000
vn 0.9848 -0.1737 -0.0000
vn 0.9848 -0.1736 -0.0000
vn 0.5000 0.8660 0.0000
vn 0.6428 0.7660 0.0000
vn -0.3420 0.9397 0.0000
vn 0.0000 1.0000 0.0000
vn 0.3420 0.9397 0.0000
vn 0.8660 0.5000 0.0000
vn 0.9848 0.1736 0.0000
vn 0.8660 -0.5000 -0.0000
vn 0.6428 -0.7660 -0.0000
usemtl Default_OBJ.336
s 1
f 1//1 2//1 3//1
f 3//2 2//2 4//2
f 2//3 1//3 5//3
f 2//3 5//3 4//3
f 1//1 3//1 6//1
f 7//1 1//1 6//1
f 1//4 7//4 8//4
f 1//4 8//4 5//4
f 9//1 7//1 6//1
f 7//5 10//5 8//5
f 9//1 11//1 7//1
f 11//1 12//1 7//1
f 7//5 12//5 10//5
f 10//6 13//6 8//6
f 12//7 13//7 10//7
f 12//7 11//7 13//7
f 11//8 14//8 13//8
f 13//6 14//6 8//6
f 11//8 9//8 14//8
f 9//9 15//9 14//9
f 15//6 16//6 14//6
f 14//6 16//6 17//6
f 8//6 14//6 17//6
f 4//6 5//6 17//6
f 18//6 4//6 17//6
f 6//10 3//10 17//10
f 3//10 18//10 17//10
f 19//11 6//11 17//11
f 5//6 8//6 17//6
f 17//6 16//6 20//6
f 17//6 20//6 21//6
f 19//11 17//11 21//11
f 19//12 21//12 22//12
f 21//6 23//6 22//6
f 21//6 24//6 23//6
f 21//6 20//6 24//6
f 24//6 20//6 25//6
f 26//13 24//13 25//13
f 26//13 27//13 24//13
f 27//14 28//14 24//14
f 28//14 23//14 24//14
f 27//1 29//1 28//1
f 28//15 29//15 23//15
f 27//1 19//1 29//1
f 29//12 19//12 22//12
f 29//15 22//15 23//15
f 30//1 27//1 26//1
f 30//1 6//1 27//1
f 27//1 6//1 19//1
f 31//1 30//1 32//1
f 32//16 30//16 20//16
f 31//1 6//1 30//1
f 30//17 33//18 20//18
f 30//1 34//1 35//1
f 30//1 26//1 34//1
f 30//17 35//17 33//18
f 31//1 36//1 37//1
f 36//19 31//19 16//19
f 31//1 9//1 6//1
f 31//1 37//1 9//1
f 31//20 38//20 16//20
f 38//1 31//1 32//1
f 9//9 37//9 15//9
f 37//21 39//21 15//21
f 36//1 39//1 37//1
f 36//1 40//1 39//1
f 39//22 40//22 41//22
f 39//22 41//22 42//22
f 39//21 42//21 15//21
f 42//6 43//6 15//6
f 41//6 43//6 42//6
f 40//23 36//23 43//23
f 40//23 43//23 41//23
f 36//19 16//19 43//19
f 43//6 16//6 15//6
f 38//1 32//1 44//1
f 38//24 44//24 45//24
f 38//24 45//24 46//24
f 38//20 46//20 16//20
f 16//6 46//6 47//6
f 47//6 46//6 45//6
f 44//25 32//25 47//25
f 44//25 47//25 45//25
f 32//16 20//16 47//16
f 20//6 16//6 47//6
f 48//6 20//6 33//6
f 35//26 48//26 33//26
f 35//26 34//26 48//26
f 34//27 25//27 48//27
f 25//6 20//6 48//6
f 34//27 26//27 25//27
f 3//2 4//2 18//2
