# Blender v3.0.1 OBJ File: ''
# www.blender.org
mtllib Small_Long_Arch_Red.mtl
o obj1.046_obj1.005
v -11.002075 -2.715717 75.000000
v -19.304993 -6.020916 75.000000
v -12.200195 -6.386699 75.000000
v -14.487732 -8.337520 75.000000
v -19.304993 12.511884 75.000000
v -19.304993 12.511897 -75.000008
v -19.304993 -6.020901 -75.000008
v -18.994629 -7.179218 75.000000
v -16.988403 -8.337520 75.000000
v -18.146667 -8.027156 75.000000
v -18.994629 -7.179204 -75.000008
v -18.146667 -8.027143 -75.000008
v -16.988403 -8.337506 -75.000008
v -14.487732 -8.337506 -75.000008
v -13.437073 -8.085544 75.000000
v -13.437073 -8.085530 -75.000008
v -12.614929 -7.384411 -75.000008
v -12.200195 -6.386685 -75.000008
v -11.002075 -2.715703 -75.000008
v -12.614929 -7.384426 75.000000
v -8.729248 0.406116 -75.000008
v -8.729248 0.406102 75.000000
v -16.988403 14.828481 75.000000
v -5.603699 2.673810 75.000000
v -18.146667 14.518117 75.000000
v -18.994629 13.670178 75.000000
v -16.988403 14.828494 -75.000008
v 16.988403 14.828494 -75.000008
v 16.988403 14.828481 75.000000
v -1.930786 3.865887 75.000000
v 1.930786 3.865887 75.000000
v -1.930786 3.865901 -75.000008
v -5.603699 2.673824 -75.000008
v 1.930786 3.865901 -75.000008
v 5.603699 2.673824 -75.000008
v 5.603699 2.673810 75.000000
v 8.729248 0.406102 75.000000
v 11.002136 -2.715717 75.000000
v 8.729248 0.406116 -75.000008
v 19.304993 12.511884 75.000000
v 19.304993 -6.020916 75.000000
v 12.200195 -6.386699 75.000000
v 11.002136 -2.715703 -75.000008
v 19.304993 -6.020901 -75.000008
v 18.994629 -7.179204 -75.000008
v 18.146729 -8.027156 75.000000
v 18.994629 -7.179218 75.000000
v 16.988403 -8.337520 75.000000
v 14.487793 -8.337520 75.000000
v 14.487793 -8.337506 -75.000008
v 13.437073 -8.085544 75.000000
v 12.614929 -7.384426 75.000000
v 12.614929 -7.384411 -75.000008
v 13.437073 -8.085530 -75.000008
v 12.200195 -6.386685 -75.000008
v 16.988403 -8.337506 -75.000008
v 18.146729 -8.027143 -75.000008
v 19.304993 12.511897 -75.000008
v 18.994629 13.670178 75.000000
v 18.994629 13.670192 -75.000008
v 18.146729 14.518117 75.000000
v 18.146729 14.518130 -75.000008
v -18.146667 14.518130 -75.000008
v -18.994629 13.670192 -75.000008
vn 0.0000 0.0000 1.0000
vn -1.0000 0.0000 0.0000
vn -0.9659 -0.2588 -0.0000
vn -0.7071 -0.7071 -0.0000
vn -0.2588 -0.9659 -0.0000
vn 0.0000 0.0000 -1.0000
vn 0.0000 -1.0000 -0.0000
vn 0.2332 -0.9724 -0.0000
vn 0.9506 -0.3103 -0.0000
vn 0.9234 -0.3838 -0.0000
vn 0.6489 -0.7609 -0.0000
vn 0.8084 -0.5886 -0.0000
vn 0.5873 -0.8094 -0.0000
vn -0.2588 0.9659 0.0000
vn 0.0000 1.0000 0.0000
vn 0.3087 -0.9512 -0.0000
vn -0.3087 -0.9512 -0.0000
vn -0.5873 -0.8094 -0.0000
vn -0.8084 -0.5886 -0.0000
vn -0.9507 -0.3103 -0.0000
vn 1.0000 0.0000 0.0000
vn 0.9659 -0.2588 -0.0000
vn -0.2332 -0.9724 -0.0000
vn -0.6489 -0.7609 -0.0000
vn -0.9234 -0.3838 -0.0000
vn 0.2588 -0.9659 -0.0000
vn 0.7071 -0.7071 -0.0000
vn 0.9659 0.2588 0.0000
vn 0.7071 0.7071 0.0000
vn 0.2588 0.9659 0.0000
vn -0.7071 0.7071 0.0000
vn -0.9659 0.2588 0.0000
usemtl Default_OBJ.333
s 1
f 1//1 2//1 3//1
f 3//1 2//1 4//1
f 2//2 5//2 6//2
f 2//2 6//2 7//2
f 8//3 2//3 7//3
f 5//1 2//1 1//1
f 4//1 2//1 9//1
f 2//1 10//1 9//1
f 2//1 8//1 10//1
f 10//4 8//4 11//4
f 10//4 11//4 12//4
f 9//5 10//5 12//5
f 11//6 7//6 12//6
f 12//6 7//6 13//6
f 9//5 12//5 13//5
f 7//6 14//6 13//6
f 4//7 13//7 14//7
f 4//7 9//7 13//7
f 15//8 4//8 14//8
f 15//8 14//8 16//8
f 14//6 17//6 16//6
f 14//6 18//6 17//6
f 7//6 18//6 14//6
f 7//6 19//6 18//6
f 19//9 1//9 18//9
f 1//9 3//9 18//9
f 3//10 20//10 18//10
f 20//10 17//10 18//10
f 20//1 4//1 15//1
f 20//11 15//11 16//11
f 20//11 16//11 17//11
f 3//1 4//1 20//1
f 19//6 6//6 21//6
f 21//12 22//12 19//12
f 22//12 1//12 19//12
f 7//6 6//6 19//6
f 23//1 22//1 24//1
f 24//13 22//13 21//13
f 23//1 5//1 22//1
f 5//1 1//1 22//1
f 23//1 25//1 26//1
f 25//14 23//14 27//14
f 23//15 28//15 27//15
f 23//1 26//1 5//1
f 23//15 29//15 28//15
f 29//1 23//1 30//1
f 30//1 23//1 24//1
f 29//1 30//1 31//1
f 31//7 30//7 32//7
f 32//16 30//16 33//16
f 30//16 24//16 33//16
f 33//13 24//13 21//13
f 21//6 27//6 33//6
f 27//6 32//6 33//6
f 27//6 28//6 32//6
f 32//6 28//6 34//6
f 34//7 31//7 32//7
f 34//6 28//6 35//6
f 35//17 36//17 34//17
f 36//17 31//17 34//17
f 29//1 36//1 37//1
f 37//18 36//18 35//18
f 29//1 31//1 36//1
f 38//19 37//19 39//19
f 39//18 37//18 35//18
f 40//1 29//1 37//1
f 40//1 37//1 38//1
f 40//1 38//1 41//1
f 41//1 38//1 42//1
f 42//20 38//20 43//20
f 43//19 38//19 39//19
f 40//21 41//21 44//21
f 41//22 45//22 44//22
f 41//1 46//1 47//1
f 41//1 48//1 46//1
f 41//22 47//22 45//22
f 41//1 49//1 48//1
f 41//1 42//1 49//1
f 48//7 49//7 50//7
f 49//23 51//23 50//23
f 49//1 52//1 51//1
f 49//1 42//1 52//1
f 51//24 52//24 53//24
f 51//24 53//24 54//24
f 51//23 54//23 50//23
f 53//6 50//6 54//6
f 52//25 55//25 53//25
f 55//6 50//6 53//6
f 52//25 42//25 55//25
f 55//20 42//20 43//20
f 43//6 44//6 55//6
f 55//6 44//6 50//6
f 50//6 44//6 56//6
f 48//7 50//7 56//7
f 46//26 48//26 56//26
f 46//26 56//26 57//26
f 56//6 44//6 57//6
f 47//27 46//27 57//27
f 47//27 57//27 45//27
f 57//6 44//6 45//6
f 43//6 58//6 44//6
f 40//21 44//21 58//21
f 59//28 40//28 58//28
f 59//28 58//28 60//28
f 28//6 60//6 58//6
f 39//6 58//6 43//6
f 28//6 58//6 39//6
f 61//29 59//29 60//29
f 61//29 60//29 62//29
f 62//6 60//6 28//6
f 61//30 62//30 28//30
f 59//1 61//1 29//1
f 29//30 61//30 28//30
f 59//1 29//1 40//1
f 35//6 28//6 39//6
f 26//31 25//31 63//31
f 26//31 63//31 64//31
f 5//32 26//32 64//32
f 64//6 27//6 6//6
f 63//6 27//6 64//6
f 5//32 64//32 6//32
f 25//14 27//14 63//14
f 6//6 27//6 21//6
f 8//3 7//3 11//3
