# Blender v3.0.1 OBJ File: ''
# www.blender.org
mtllib Small_Short_Circle_Green.mtl
o obj1.026_obj1.005
v -16.216370 -0.000010 50.000000
v -15.663818 4.197065 50.000000
v -16.216370 0.000002 -50.000004
v -15.663818 -4.197057 -50.000004
v -15.663818 -4.197070 50.000000
v -15.663818 4.197070 -50.000000
v -14.043823 -8.108110 50.000000
v -14.043823 -8.108099 -50.000004
v -11.466736 11.466585 -50.000000
v -8.108276 -14.043638 -50.000004
v -14.043823 8.108095 -50.000000
v -14.043823 8.108091 50.000000
v -11.466736 11.466581 50.000000
v -8.108276 14.043642 -50.000000
v -8.108276 14.043638 50.000000
v 4.196899 15.663649 50.000000
v 11.466431 -11.466593 50.000000
v 8.107910 -14.043650 50.000000
v -8.108276 -14.043650 50.000000
v 4.196899 -15.663660 50.000000
v 4.196899 -15.663649 -50.000004
v 8.107910 -14.043638 -50.000004
v 11.466431 -11.466581 -50.000004
v 14.043457 -8.108110 50.000000
v 14.043457 -8.108099 -50.000004
v 4.196899 15.663652 -50.000000
v 8.107910 14.043642 -50.000000
v 11.466431 11.466585 -50.000000
v -0.000183 16.216200 50.000000
v -0.000183 16.216204 -50.000000
v -4.197266 15.663652 -50.000000
v 15.663452 -4.197057 -50.000004
v 15.663452 -4.197070 50.000000
v 16.216003 -0.000010 50.000000
v 16.216003 0.000002 -50.000004
v 15.663452 4.197070 -50.000000
v 14.043457 8.108095 -50.000000
v 14.043457 8.108091 50.000000
v 15.663452 4.197065 50.000000
v 11.466431 11.466581 50.000000
v 8.107910 14.043638 50.000000
v -4.197266 15.663649 50.000000
v -4.197266 -15.663649 -50.000004
v -0.000183 -16.216200 -50.000004
v -0.000183 -16.216211 50.000000
v -4.197266 -15.663660 50.000000
v -11.466736 -11.466593 50.000000
v -11.466736 -11.466581 -50.000004
vn -0.9914 0.1305 0.0000
vn -0.9914 -0.1305 -0.0000
vn -0.0000 0.0000 1.0000
vn 0.0000 0.0000 -1.0000
vn -0.9239 -0.3827 -0.0000
vn -0.9239 0.3827 0.0000
vn -0.7934 0.6088 0.0000
vn -0.6088 0.7934 0.0000
vn 0.3827 -0.9239 -0.0000
vn 0.6088 -0.7934 -0.0000
vn 0.7934 -0.6088 -0.0000
vn 0.3827 0.9239 0.0000
vn 0.1305 0.9914 0.0000
vn 0.9239 -0.3827 -0.0000
vn 0.9914 -0.1305 -0.0000
vn 0.9239 0.3827 0.0000
vn 0.7934 0.6088 0.0000
vn 0.6088 0.7934 0.0000
vn 0.9914 0.1305 0.0000
vn -0.1305 0.9914 0.0000
vn -0.3827 0.9239 0.0000
vn 0.1305 -0.9914 -0.0000
vn -0.1305 -0.9914 -0.0000
vn -0.3827 -0.9239 -0.0000
vn -0.6088 -0.7934 -0.0000
vn -0.7933 -0.6088 -0.0000
usemtl Default_OBJ.343
s 1
f 1//1 2//1 3//1
f 1//2 3//2 4//2
f 2//3 1//3 5//3
f 5//2 1//2 4//2
f 3//4 6//4 4//4
f 7//5 5//5 4//5
f 7//5 4//5 8//5
f 4//4 6//4 8//4
f 2//1 6//1 3//1
f 6//4 9//4 10//4
f 8//4 6//4 10//4
f 11//4 9//4 6//4
f 2//6 11//6 6//6
f 12//7 13//7 11//7
f 13//7 9//7 11//7
f 2//6 12//6 11//6
f 13//3 12//3 2//3
f 13//8 14//8 9//8
f 13//8 15//8 14//8
f 16//3 13//3 17//3
f 16//3 15//3 13//3
f 13//3 18//3 17//3
f 13//3 2//3 19//3
f 13//3 19//3 18//3
f 18//3 19//3 20//3
f 18//9 20//9 21//9
f 18//9 21//9 22//9
f 17//10 18//10 22//10
f 17//10 22//10 23//10
f 22//4 9//4 23//4
f 10//4 9//4 22//4
f 10//4 22//4 21//4
f 24//11 17//11 23//11
f 24//11 23//11 25//11
f 23//4 26//4 25//4
f 9//4 26//4 23//4
f 27//4 28//4 26//4
f 16//12 27//12 26//12
f 29//13 16//13 26//13
f 30//4 26//4 31//4
f 29//13 26//13 30//13
f 31//4 26//4 14//4
f 14//4 26//4 9//4
f 25//4 26//4 32//4
f 26//4 28//4 32//4
f 33//14 25//14 32//14
f 34//15 33//15 32//15
f 34//15 32//15 35//15
f 32//4 36//4 35//4
f 32//4 37//4 36//4
f 32//4 28//4 37//4
f 38//16 36//16 37//16
f 38//17 37//17 28//17
f 38//3 33//3 39//3
f 38//16 39//16 36//16
f 40//17 38//17 28//17
f 40//3 33//3 38//3
f 41//18 40//18 28//18
f 40//3 16//3 33//3
f 40//3 41//3 16//3
f 41//18 28//18 27//18
f 16//12 41//12 27//12
f 39//19 35//19 36//19
f 39//19 34//19 35//19
f 39//3 33//3 34//3
f 16//3 24//3 33//3
f 33//14 24//14 25//14
f 16//3 29//3 42//3
f 29//20 30//20 31//20
f 42//20 29//20 31//20
f 16//3 42//3 15//3
f 15//21 42//21 31//21
f 15//21 31//21 14//21
f 16//3 17//3 24//3
f 10//4 21//4 43//4
f 43//4 21//4 44//4
f 20//22 44//22 21//22
f 45//23 43//23 44//23
f 20//22 45//22 44//22
f 20//3 46//3 45//3
f 45//23 46//23 43//23
f 46//24 19//24 10//24
f 46//24 10//24 43//24
f 20//3 19//3 46//3
f 2//3 7//3 19//3
f 19//3 7//3 47//3
f 19//25 47//25 48//25
f 19//25 48//25 10//25
f 8//4 10//4 48//4
f 47//26 8//26 48//26
f 47//26 7//26 8//26
f 2//3 5//3 7//3
