# Blender v3.0.1 OBJ File: ''
# www.blender.org
mtllib Medium_Short_SquareCircle_Red.mtl
o obj1.002_obj1.006
v 7.099670 -3.788566 -10.769226
v -7.384460 -7.919998 -10.769226
v 9.245697 -7.000358 -10.769226
v -8.833923 -9.369461 -10.769226
v 12.457489 -9.146408 -10.769226
v 9.621674 -7.357141 39.230770
v 7.201965 -4.026705 39.230770
v 13.186798 -9.415468 39.230770
v 17.280914 -9.845781 39.230770
v 16.246063 -9.900002 -10.769226
v 24.255341 -5.819086 39.230770
v 21.196075 -8.573664 39.230770
v 23.246429 -7.000356 -60.769226
v 25.392487 -3.788564 -60.769226
v 25.929718 -2.058336 39.230778
v 25.929718 2.058317 39.230778
v 24.255341 5.819059 39.230778
v 25.392487 3.788569 -60.769226
v 26.146057 0.000003 -60.769226
v 7.201965 4.026678 39.230778
v 16.246063 -9.899999 -60.769226
v 23.246429 7.000361 -60.769226
v 20.034637 -9.146405 -60.769226
v 16.246063 9.900004 -60.769226
v 21.196075 8.573637 39.230778
v 20.034637 9.146411 -60.769226
v -22.693939 -9.899999 -60.769226
v -10.813934 9.900002 -10.769226
v 16.246063 9.900002 -10.769226
v -22.693939 9.900004 -60.769226
v -10.813934 -9.900002 -10.769226
v -26.653931 5.939998 -60.769226
v -26.653931 -5.940000 -60.769226
v -22.693939 -9.900011 39.230770
v -24.673920 -9.369458 -60.769226
v -26.123383 -7.919995 -60.769226
v -8.833923 -9.369471 39.230770
v -10.813934 -9.900011 39.230770
v -6.853943 -5.940012 39.230770
v -26.653931 -5.940012 39.230770
v -6.853943 5.939985 39.230778
v -22.693939 9.899992 39.230778
v -26.653931 5.939985 39.230778
v -24.673920 -9.369471 39.230770
v -26.123383 -7.920008 39.230770
v -6.853943 -5.940002 -10.769226
v -6.853943 5.939995 -10.769226
v -7.384460 7.919999 -10.769226
v -7.384460 7.919989 39.230778
v -10.813934 9.899992 39.230778
v -8.833923 9.369452 39.230778
v -8.833923 9.369461 -10.769226
v 9.245697 7.000359 -10.769226
v 12.457489 9.146408 -10.769226
v 13.186798 9.415449 39.230778
v 9.621674 7.357122 39.230778
v 17.280914 9.845755 39.230778
v 7.099670 3.788567 -10.769226
v 6.346069 -0.000009 39.230778
v 6.346069 0.000000 -10.769226
v -26.123383 7.919989 39.230778
v -24.673920 9.369452 39.230778
v -24.673920 9.369464 -60.769226
v -26.123383 7.920001 -60.769226
v -7.384460 -7.920008 39.230770
vn -0.0000 0.0000 1.0000
vn -0.5556 -0.8315 -0.0018
vn -0.8315 -0.5556 -0.0009
vn -0.8090 -0.5878 0.0019
vn -0.5000 -0.8660 0.0026
vn -0.1045 -0.9945 0.0032
vn -0.1951 -0.9808 -0.0024
vn 0.6691 -0.7431 0.0020
vn 0.8315 -0.5556 -0.0018
vn 0.9135 -0.4067 0.0021
vn 0.9135 0.4067 0.0021
vn 0.9808 0.1951 -0.0019
vn 1.0000 0.0000 0.0022
vn -0.0000 0.0000 -1.0000
vn 0.9808 -0.1951 -0.0019
vn 0.1652 -0.9863 -0.0023
vn 0.1951 -0.9808 -0.0000
vn 0.3090 -0.9511 0.0019
vn 0.5556 -0.8315 -0.0017
vn 0.8315 0.5556 -0.0018
vn 0.6691 0.7431 0.0020
vn 0.5556 0.8315 -0.0017
vn -0.0000 1.0000 0.0000
vn 0.1951 0.9808 0.0000
vn 0.0000 -1.0000 -0.0000
vn -0.2588 -0.9659 -0.0000
vn 0.2588 -0.9659 -0.0000
vn -0.9659 -0.2588 -0.0000
vn -1.0000 0.0000 0.0000
vn 1.0000 0.0000 0.0000
vn 0.9659 0.2588 0.0000
vn 0.7071 0.7071 0.0000
vn 0.2588 0.9659 0.0000
vn -0.1951 0.9808 -0.0024
vn -0.5000 0.8660 0.0026
vn -0.5556 0.8315 -0.0018
vn -0.8090 0.5878 0.0019
vn -0.1045 0.9945 0.0032
vn 0.1652 0.9863 -0.0023
vn 0.3090 0.9511 0.0019
vn -0.8315 0.5556 -0.0009
vn -0.9801 0.1987 0.0003
vn -0.9789 0.2044 0.0007
vn -0.9808 0.1951 0.0000
vn -0.9781 0.2079 0.0010
vn -0.9789 -0.2044 0.0007
vn -0.9801 -0.1987 0.0003
vn -0.9808 -0.1951 -0.0000
vn -0.9781 -0.2079 0.0010
vn 0.9659 -0.2588 -0.0000
vn -0.9659 0.2588 0.0000
vn -0.7071 0.7071 0.0000
vn -0.2588 0.9659 0.0000
vn -0.7071 -0.7071 -0.0000
vn 0.7071 -0.7071 -0.0000
usemtl Default_OBJ.329
s 1
f 1//1 2//1 3//1
f 3//1 2//1 4//1
f 5//1 3//1 4//1
f 5//2 6//2 3//2
f 3//3 7//3 1//3
f 6//4 7//4 3//4
f 8//1 7//1 6//1
f 8//5 6//5 5//5
f 9//6 8//6 10//6
f 10//7 8//7 5//7
f 11//1 7//1 8//1
f 12//1 8//1 9//1
f 11//1 8//1 12//1
f 11//8 12//8 13//8
f 11//9 13//9 14//9
f 15//10 11//10 14//10
f 16//1 11//1 15//1
f 16//1 7//1 11//1
f 17//11 16//11 18//11
f 16//12 19//12 18//12
f 17//1 20//1 16//1
f 16//1 20//1 7//1
f 16//13 15//13 19//13
f 21//14 22//14 19//14
f 21//14 19//14 23//14
f 13//14 19//14 14//14
f 23//14 19//14 13//14
f 15//15 14//15 19//15
f 19//14 22//14 18//14
f 9//16 10//16 23//16
f 23//17 10//17 21//17
f 12//18 9//18 23//18
f 12//19 23//19 13//19
f 24//14 22//14 21//14
f 17//20 18//20 22//20
f 25//21 17//21 22//21
f 25//22 22//22 26//22
f 26//14 22//14 24//14
f 27//14 24//14 21//14
f 28//23 29//23 24//23
f 29//24 26//24 24//24
f 28//23 24//23 30//23
f 30//14 24//14 27//14
f 31//25 27//25 21//25
f 32//14 30//14 27//14
f 33//14 32//14 27//14
f 34//26 35//26 27//26
f 34//25 27//25 31//25
f 36//14 27//14 35//14
f 33//14 27//14 36//14
f 37//27 31//27 4//27
f 5//1 4//1 31//1
f 10//1 5//1 31//1
f 10//25 31//25 21//25
f 37//27 38//27 31//27
f 38//25 34//25 31//25
f 39//1 38//1 37//1
f 39//1 40//1 38//1
f 38//1 40//1 34//1
f 41//1 42//1 40//1
f 42//1 43//1 40//1
f 40//1 44//1 34//1
f 40//1 45//1 44//1
f 45//28 40//28 33//28
f 40//29 43//29 32//29
f 40//29 32//29 33//29
f 41//1 40//1 39//1
f 41//30 39//30 46//30
f 41//30 46//30 47//30
f 41//31 47//31 48//31
f 49//31 41//31 48//31
f 50//1 42//1 41//1
f 49//1 51//1 41//1
f 51//1 50//1 41//1
f 51//32 49//32 48//32
f 50//33 51//33 28//33
f 51//33 52//33 28//33
f 51//32 48//32 52//32
f 53//1 52//1 48//1
f 54//1 52//1 53//1
f 29//1 52//1 54//1
f 29//1 28//1 52//1
f 55//34 29//34 54//34
f 56//35 55//35 54//35
f 56//36 54//36 53//36
f 55//1 56//1 20//1
f 20//37 56//37 53//37
f 17//1 55//1 20//1
f 55//38 57//38 29//38
f 17//1 57//1 55//1
f 57//39 26//39 29//39
f 17//1 25//1 57//1
f 57//40 25//40 26//40
f 20//41 53//41 58//41
f 53//1 48//1 58//1
f 59//42 58//43 60//44
f 58//1 47//1 60//1
f 58//1 48//1 47//1
f 59//42 20//45 58//43
f 1//46 59//47 60//48
f 20//1 59//1 7//1
f 7//49 59//47 1//46
f 60//1 46//1 1//1
f 60//1 47//1 46//1
f 42//23 50//23 28//23
f 39//50 2//50 46//50
f 1//1 46//1 2//1
f 43//51 61//51 32//51
f 42//1 61//1 43//1
f 61//52 62//52 63//52
f 61//52 63//52 64//52
f 42//1 62//1 61//1
f 61//51 64//51 32//51
f 62//53 42//53 30//53
f 62//53 30//53 63//53
f 64//14 30//14 32//14
f 63//14 30//14 64//14
f 34//26 44//26 35//26
f 44//54 45//54 35//54
f 45//28 33//28 36//28
f 45//54 36//54 35//54
f 30//23 42//23 28//23
f 39//50 65//50 2//50
f 39//1 37//1 65//1
f 65//55 4//55 2//55
f 65//55 37//55 4//55
