# Blender v3.0.1 OBJ File: ''
# www.blender.org
mtllib Medium_Short_Arch_Yellow.mtl
o obj1.020_obj1.005
v -23.999878 -7.511500 50.000000
v -22.559875 -10.005655 50.000000
v -21.119904 -10.391504 50.000000
v -23.614044 -8.951502 50.000000
v -23.999878 15.528494 50.000008
v -23.999878 15.528505 -49.999996
v -23.999878 -7.511487 -49.999996
v -12.019348 -0.827906 50.000000
v -14.054047 -4.193881 50.000000
v -15.167206 -7.966242 50.000000
v -18.011078 -10.391504 50.000000
v -23.614044 -8.951490 -49.999996
v -21.119904 -10.391493 -49.999996
v -22.559875 -10.005644 -49.999996
v -18.011078 -10.391493 -49.999996
v -15.167206 -7.966230 -49.999996
v -16.704865 -10.078238 -49.999996
v -16.704865 -10.078249 50.000000
v -15.682800 -9.206610 -49.999996
v -15.682800 -9.206621 50.000000
v -14.054047 -4.193868 -49.999996
v -12.019348 -0.827894 -49.999996
v -9.196533 1.911005 -49.999996
v -21.119904 18.408510 -49.999996
v -5.770691 3.843233 -49.999996
v -9.196533 1.910993 50.000008
v -5.770691 3.843221 50.000008
v -21.119904 18.408499 50.000008
v -22.559875 18.022650 50.000008
v 21.120117 18.408510 -49.999996
v -22.559875 18.022661 -49.999996
v 21.120117 18.408499 50.000008
v -1.966461 4.842084 50.000008
v -1.966461 4.842097 -49.999996
v 1.966705 4.842084 50.000008
v 1.966705 4.842097 -49.999996
v 5.770905 3.843233 -49.999996
v 5.770905 3.843221 50.000008
v 9.196747 1.910993 50.000008
v 24.000122 15.528494 50.000008
v 12.019562 -0.827906 50.000000
v 9.196747 1.911005 -49.999996
v 24.000122 -7.511487 -49.999996
v 24.000122 15.528505 -49.999996
v 23.614258 16.968496 50.000008
v 24.000122 -7.511500 50.000000
v 22.560120 18.022650 50.000008
v 23.614258 16.968508 -49.999996
v 22.560120 18.022661 -49.999996
v 23.614258 -8.951490 -49.999996
v 21.120117 -10.391504 50.000000
v 23.614258 -8.951502 50.000000
v 18.011292 -10.391504 50.000000
v 15.167419 -7.966242 50.000000
v 14.054260 -4.193881 50.000000
v 14.054260 -4.193868 -49.999996
v 12.019562 -0.827894 -49.999996
v 15.167419 -7.966230 -49.999996
v 15.683014 -9.206610 -49.999996
v 16.705078 -10.078238 -49.999996
v 15.683014 -9.206621 50.000000
v 18.011292 -10.391493 -49.999996
v 16.705078 -10.078249 50.000000
v 21.120117 -10.391493 -49.999996
v 22.560120 -10.005644 -49.999996
v 22.560120 -10.005655 50.000000
v -23.614044 16.968508 -49.999996
v -23.614044 16.968496 50.000008
vn 0.0000 -0.0000 1.0000
vn -1.0000 0.0000 0.0000
vn -0.9659 -0.2588 -0.0000
vn -0.7071 -0.7071 -0.0000
vn -0.0000 0.0000 -1.0000
vn -0.2588 -0.9659 -0.0000
vn 0.0000 -1.0000 -0.0000
vn 0.2332 -0.9724 -0.0000
vn 0.6489 -0.7609 -0.0000
vn 0.9234 -0.3838 -0.0000
vn 0.9591 -0.2830 -0.0000
vn 0.8558 -0.5173 -0.0000
vn 0.6964 -0.7177 -0.0000
vn 0.4913 -0.8710 -0.0000
vn 0.0000 1.0000 0.0000
vn -0.2588 0.9659 0.0000
vn 0.2540 -0.9672 -0.0000
vn -0.2540 -0.9672 -0.0000
vn -0.4913 -0.8710 -0.0000
vn -0.6964 -0.7177 -0.0000
vn 1.0000 0.0000 0.0000
vn 0.9659 0.2588 0.0000
vn 0.7071 0.7071 0.0000
vn 0.2588 0.9659 0.0000
vn 0.9659 -0.2588 -0.0000
vn -0.9591 -0.2830 -0.0000
vn -0.8558 -0.5173 -0.0000
vn -0.9234 -0.3838 -0.0000
vn -0.6489 -0.7609 -0.0000
vn -0.2332 -0.9724 -0.0000
vn 0.2588 -0.9659 -0.0000
vn 0.7071 -0.7071 -0.0000
vn -0.7071 0.7071 0.0000
vn -0.9659 0.2588 0.0000
usemtl Default_OBJ.324
s 1
f 1//1 2//1 3//1
f 1//1 4//1 2//1
f 1//2 5//2 6//2
f 1//2 6//2 7//2
f 4//3 1//3 7//3
f 5//1 1//1 8//1
f 8//1 1//1 9//1
f 9//1 1//1 10//1
f 10//1 1//1 11//1
f 11//1 1//1 3//1
f 2//4 4//4 12//4
f 4//3 7//3 12//3
f 12//5 13//5 14//5
f 7//5 13//5 12//5
f 2//4 12//4 14//4
f 2//6 14//6 13//6
f 3//6 2//6 13//6
f 11//7 3//7 13//7
f 7//5 15//5 13//5
f 11//7 13//7 15//7
f 7//5 16//5 15//5
f 15//5 16//5 17//5
f 18//8 11//8 15//8
f 18//8 15//8 17//8
f 17//5 16//5 19//5
f 20//9 18//9 17//9
f 20//9 17//9 19//9
f 20//10 19//10 16//10
f 10//1 18//1 20//1
f 10//10 20//10 16//10
f 10//1 11//1 18//1
f 7//5 21//5 16//5
f 21//11 10//11 16//11
f 9//11 10//11 21//11
f 7//5 22//5 21//5
f 22//12 9//12 21//12
f 6//5 23//5 22//5
f 23//13 8//13 22//13
f 7//5 6//5 22//5
f 8//12 9//12 22//12
f 24//5 25//5 23//5
f 6//5 24//5 23//5
f 25//14 26//14 23//14
f 26//13 8//13 23//13
f 27//14 26//14 25//14
f 27//1 28//1 26//1
f 26//1 5//1 8//1
f 28//1 5//1 26//1
f 28//1 29//1 5//1
f 28//15 30//15 24//15
f 28//16 24//16 31//16
f 29//16 28//16 31//16
f 28//15 32//15 30//15
f 32//1 28//1 33//1
f 33//1 28//1 27//1
f 33//17 27//17 25//17
f 34//17 33//17 25//17
f 32//1 33//1 35//1
f 35//7 33//7 34//7
f 24//5 30//5 34//5
f 24//5 34//5 25//5
f 34//5 30//5 36//5
f 36//7 35//7 34//7
f 36//5 30//5 37//5
f 37//18 38//18 36//18
f 38//18 35//18 36//18
f 32//1 38//1 39//1
f 39//19 38//19 37//19
f 32//1 35//1 38//1
f 40//1 39//1 41//1
f 41//20 39//20 42//20
f 42//19 39//19 37//19
f 40//1 32//1 39//1
f 40//21 43//21 44//21
f 45//22 40//22 44//22
f 40//21 46//21 43//21
f 40//1 41//1 46//1
f 45//1 32//1 40//1
f 45//1 47//1 32//1
f 45//22 44//22 48//22
f 47//23 45//23 48//23
f 47//23 48//23 49//23
f 47//24 49//24 30//24
f 32//24 47//24 30//24
f 49//5 48//5 30//5
f 30//5 48//5 44//5
f 46//25 50//25 43//25
f 46//1 51//1 52//1
f 46//1 53//1 51//1
f 46//25 52//25 50//25
f 46//1 54//1 53//1
f 46//1 55//1 54//1
f 46//1 41//1 55//1
f 54//26 55//26 56//26
f 56//27 55//27 57//27
f 55//27 41//27 57//27
f 57//5 44//5 43//5
f 42//5 44//5 57//5
f 57//5 43//5 56//5
f 57//20 41//20 42//20
f 56//5 43//5 58//5
f 58//26 54//26 56//26
f 59//5 58//5 60//5
f 61//28 58//28 59//28
f 61//28 54//28 58//28
f 58//5 62//5 60//5
f 58//5 43//5 62//5
f 63//29 61//29 59//29
f 54//1 61//1 63//1
f 63//29 59//29 60//29
f 53//1 54//1 63//1
f 63//30 60//30 62//30
f 53//30 63//30 62//30
f 62//5 43//5 64//5
f 51//7 62//7 64//7
f 51//7 53//7 62//7
f 64//5 50//5 65//5
f 66//31 64//31 65//31
f 66//31 51//31 64//31
f 64//5 43//5 50//5
f 52//32 66//32 65//32
f 52//1 51//1 66//1
f 52//32 65//32 50//32
f 30//5 44//5 42//5
f 37//5 30//5 42//5
f 29//33 31//33 67//33
f 68//33 29//33 67//33
f 29//1 68//1 5//1
f 68//34 67//34 6//34
f 5//34 68//34 6//34
f 67//5 31//5 6//5
f 31//5 24//5 6//5
