# Blender v3.0.1 OBJ File: ''
# www.blender.org
mtllib Medium_Short_Star_DarkBlue.mtl
o obj1.018_obj1.005
v -14.296051 -17.683952 50.000000
v -14.540924 -15.353985 50.000000
v -14.540924 -15.353976 -50.000000
v -14.296051 -17.683945 -50.000000
v -12.400696 -19.061010 -50.000000
v -12.400696 -19.061018 50.000000
v -10.109070 -18.573921 50.000000
v -10.109070 -18.573914 -50.000000
v 0.000031 -11.229237 50.000000
v 0.000031 -11.229228 -50.000000
v 10.679657 -3.470032 50.000000
v 14.540985 -15.353985 50.000000
v -10.679596 -3.470032 50.000000
v 10.109100 -18.573921 50.000000
v 12.400726 -19.061018 50.000000
v 10.109100 -18.573914 -50.000000
v 10.679657 -3.470024 -50.000000
v 14.540985 -15.353976 -50.000000
v 12.400726 -19.061010 -50.000000
v -6.600342 9.084629 -50.000000
v -10.679596 -3.470024 -50.000000
v 6.600403 9.084629 -50.000000
v 20.788727 3.874663 -50.000000
v 20.788727 3.874655 50.000000
v -2.739014 20.968582 -49.999996
v 2.739075 20.968582 -49.999996
v 2.739075 20.968575 50.000000
v 6.600403 9.084621 50.000000
v 19.095917 9.084629 -50.000000
v 1.171417 22.709618 50.000000
v -2.739014 20.968575 50.000000
v 1.171417 22.709625 -49.999996
v -1.171387 22.709625 -49.999996
v -1.171387 22.709618 50.000000
v -6.600342 9.084621 50.000000
v -19.095886 9.084621 50.000000
v -21.960114 5.903581 50.000000
v -20.788696 3.874655 50.000000
v -21.236145 8.131718 50.000000
v -19.095886 9.084629 -50.000000
v -20.788696 3.874663 -50.000000
v -21.960114 5.903590 -50.000000
v -21.236145 8.131725 -50.000000
v 19.095917 9.084621 50.000000
v 21.236176 8.131718 50.000000
v 21.236176 8.131725 -50.000000
v 21.960144 5.903590 -50.000000
v 21.960144 5.903581 50.000000
v 14.296082 -17.683945 -50.000000
v 14.296082 -17.683952 50.000000
vn -0.9945 -0.1045 -0.0000
vn -0.5878 -0.8090 -0.0000
vn 0.0000 0.0000 1.0000
vn 0.2079 -0.9781 -0.0000
vn 0.5878 -0.8090 -0.0000
vn -0.2079 -0.9781 -0.0000
vn 0.0000 0.0000 -1.0000
vn 0.9511 0.3090 0.0000
vn 0.0000 1.0000 0.0000
vn 0.7431 0.6691 0.0000
vn -0.7431 0.6691 0.0000
vn -0.9511 0.3090 0.0000
vn -0.4067 0.9135 0.0000
vn -0.8660 -0.5000 -0.0000
vn 0.4067 0.9135 0.0000
vn 0.8660 -0.5000 -0.0000
vn 0.9945 -0.1045 -0.0000
usemtl Default_OBJ.330
s 1
f 1//1 2//1 3//1
f 1//1 3//1 4//1
f 1//2 4//2 5//2
f 6//2 1//2 5//2
f 7//3 2//3 1//3
f 7//3 1//3 6//3
f 7//4 6//4 5//4
f 7//4 5//4 8//4
f 9//3 2//3 7//3
f 9//5 7//5 8//5
f 9//5 8//5 10//5
f 11//3 9//3 12//3
f 11//3 13//3 9//3
f 14//2 9//2 10//2
f 9//3 13//3 2//3
f 12//3 9//3 14//3
f 12//3 14//3 15//3
f 15//6 14//6 16//6
f 14//2 10//2 16//2
f 16//7 17//7 18//7
f 16//7 18//7 19//7
f 15//6 16//6 19//6
f 10//7 17//7 16//7
f 20//7 17//7 21//7
f 21//7 17//7 10//7
f 22//7 23//7 17//7
f 24//5 17//5 23//5
f 20//7 22//7 17//7
f 24//5 11//5 17//5
f 11//8 18//8 17//8
f 25//7 26//7 22//7
f 27//8 22//8 26//8
f 20//7 25//7 22//7
f 28//9 29//9 22//9
f 27//8 28//8 22//8
f 22//7 29//7 23//7
f 30//3 31//3 27//3
f 27//3 31//3 28//3
f 27//10 26//10 32//10
f 30//10 27//10 32//10
f 30//9 32//9 33//9
f 34//9 30//9 33//9
f 30//3 34//3 31//3
f 34//11 33//11 25//11
f 31//11 34//11 25//11
f 33//7 32//7 25//7
f 25//7 32//7 26//7
f 31//3 35//3 28//3
f 35//12 31//12 25//12
f 35//3 36//3 13//3
f 36//9 35//9 20//9
f 11//3 35//3 13//3
f 35//12 25//12 20//12
f 28//3 35//3 11//3
f 36//3 37//3 38//3
f 36//3 39//3 37//3
f 36//9 20//9 40//9
f 36//3 38//3 13//3
f 39//13 36//13 40//13
f 40//7 20//7 21//7
f 41//7 40//7 21//7
f 42//7 40//7 41//7
f 39//13 40//13 43//13
f 43//7 40//7 42//7
f 38//14 37//14 42//14
f 37//12 43//12 42//12
f 38//14 42//14 41//14
f 37//12 39//12 43//12
f 38//2 41//2 21//2
f 13//2 38//2 21//2
f 28//9 44//9 29//9
f 44//15 45//15 29//15
f 29//7 46//7 23//7
f 45//15 46//15 29//15
f 23//7 46//7 47//7
f 45//8 47//8 46//8
f 45//8 48//8 47//8
f 48//16 23//16 47//16
f 48//16 24//16 23//16
f 45//3 24//3 48//3
f 45//3 44//3 24//3
f 44//3 28//3 24//3
f 24//3 28//3 11//3
f 2//12 13//12 21//12
f 21//7 10//7 3//7
f 2//12 21//12 3//12
f 19//7 18//7 49//7
f 50//5 15//5 19//5
f 50//5 19//5 49//5
f 12//17 49//17 18//17
f 12//17 50//17 49//17
f 12//3 15//3 50//3
f 11//8 12//8 18//8
f 3//7 10//7 8//7
f 3//7 8//7 4//7
f 4//7 8//7 5//7
