# Blender v3.0.1 OBJ File: ''
# www.blender.org
mtllib Medium_Short_Rectangle_JeansBlue.mtl
o obj1.009
v 20.160065 10.080023 49.999989
v 20.160065 -10.079981 49.999989
v 20.160065 10.080011 -50.000011
v 20.160065 -10.079992 -50.000008
v 19.774200 -11.519987 -50.000008
v 17.280060 -12.959978 49.999989
v 19.774200 -11.519976 49.999989
v 18.720062 -12.574129 49.999989
v 17.280060 -12.959990 -50.000008
v -17.279938 -12.959990 -50.000008
v -17.279938 -12.959978 49.999989
v 17.280060 12.960020 49.999989
v -17.279938 12.960020 49.999989
v 17.280060 12.960009 -50.000011
v 18.720062 12.574171 49.999989
v 19.774200 11.520018 49.999989
v 19.774200 11.520006 -50.000011
v 18.720062 12.574160 -50.000011
v -17.279938 12.960009 -50.000011
v -18.719940 12.574171 49.999989
v -18.719940 12.574160 -50.000011
v -19.774078 11.520006 -50.000011
v -20.159943 10.080011 -50.000011
v -20.159943 -10.079992 -50.000008
v -20.159943 10.080023 49.999989
v -20.159943 -10.079981 49.999989
v -19.774078 11.520018 49.999989
v -19.774078 -11.519976 49.999989
v -18.719940 -12.574129 49.999989
v -19.774078 -11.519987 -50.000008
v -18.719940 -12.574141 -50.000008
v 18.720062 -12.574141 -50.000008
vn 1.0000 0.0000 0.0000
vn 0.9659 -0.2588 0.0000
vn -0.0000 0.0000 1.0000
vn 0.2588 -0.9659 0.0000
vn 0.0000 -1.0000 0.0000
vn 0.0000 1.0000 -0.0000
vn 0.2588 0.9659 -0.0000
vn 0.7071 0.7071 -0.0000
vn 0.9659 0.2588 -0.0000
vn 0.0000 0.0000 -1.0000
vn -0.2588 0.9659 -0.0000
vn -1.0000 0.0000 0.0000
vn -0.9659 0.2588 -0.0000
vn -0.7071 0.7071 -0.0000
vn -0.9659 -0.2588 0.0000
vn -0.7071 -0.7071 0.0000
vn -0.2588 -0.9659 0.0000
vn 0.7071 -0.7071 0.0000
usemtl Default_OBJ
s 1
f 1//1 2//1 3//1
f 2//1 4//1 3//1
f 2//2 5//2 4//2
f 1//3 6//3 2//3
f 2//2 7//2 5//2
f 2//3 6//3 7//3
f 7//3 6//3 8//3
f 8//4 6//4 9//4
f 6//5 10//5 9//5
f 6//5 11//5 10//5
f 12//3 11//3 6//3
f 1//3 12//3 6//3
f 12//3 13//3 11//3
f 13//6 12//6 14//6
f 12//7 15//7 14//7
f 16//3 15//3 12//3
f 16//3 12//3 1//3
f 15//8 16//8 17//8
f 16//9 3//9 17//9
f 16//9 1//9 3//9
f 15//8 17//8 18//8
f 18//10 17//10 14//10
f 14//10 17//10 3//10
f 15//7 18//7 14//7
f 19//10 14//10 9//10
f 13//6 14//6 19//6
f 14//10 3//10 9//10
f 20//11 13//11 19//11
f 20//11 19//11 21//11
f 21//10 19//10 22//10
f 22//10 19//10 23//10
f 24//10 19//10 10//10
f 23//10 19//10 24//10
f 19//10 9//10 10//10
f 25//12 23//12 24//12
f 25//13 22//13 23//13
f 26//12 25//12 24//12
f 13//3 25//3 26//3
f 25//13 27//13 22//13
f 13//3 27//3 25//3
f 13//3 20//3 27//3
f 27//14 20//14 21//14
f 27//14 21//14 22//14
f 26//3 28//3 29//3
f 28//15 26//15 24//15
f 26//3 29//3 11//3
f 13//3 26//3 11//3
f 29//16 28//16 30//16
f 29//16 30//16 31//16
f 29//17 31//17 10//17
f 11//17 29//17 10//17
f 31//10 24//10 10//10
f 30//10 24//10 31//10
f 28//15 24//15 30//15
f 8//4 9//4 32//4
f 9//10 5//10 32//10
f 9//10 4//10 5//10
f 9//10 3//10 4//10
f 7//18 8//18 32//18
f 7//18 32//18 5//18
